<svg width="23" height="25" fill="none" xmlns="http://www.w3.org/2000/svg"><path d="M20.354 0H2.646C1.186 0 0 1.224 0 2.728v19.518c0 1.504 1.187 2.728 2.646 2.728h17.708c1.46 0 2.646-1.224 2.646-2.728V2.728C23 1.224 21.813 0 20.354 0zM2.646 1.617h17.708c.595 0 1.078.498 1.078 1.111v4.574H1.568V2.728c0-.613.484-1.111 1.078-1.111zm17.708 21.74H2.646c-.595 0-1.078-.498-1.078-1.111V8.919h19.864v13.327c0 .613-.483 1.111-1.078 1.111z" fill="#E41D2C"/><path d="M5.196 10.55c-1.374 0-2.491 1.153-2.491 2.57 0 1.416 1.117 2.569 2.491 2.569s2.492-1.153 2.492-2.57c0-1.416-1.118-2.568-2.492-2.568zm0 3.522c-.51 0-.923-.427-.923-.952 0-.525.414-.952.923-.952.51 0 .924.427.924.952 0 .525-.415.952-.924.952zm0 2.758c-1.374 0-2.491 1.152-2.491 2.569 0 1.416 1.117 2.569 2.491 2.569s2.492-1.153 2.492-2.57c0-1.416-1.118-2.568-2.492-2.568zm0 3.521c-.51 0-.923-.427-.923-.952 0-.525.414-.952.923-.952.51 0 .924.427.924.952 0 .525-.415.952-.924.952zm5.887-9.801c-1.373 0-2.491 1.153-2.491 2.57 0 1.416 1.118 2.569 2.491 2.569 1.374 0 2.492-1.153 2.492-2.57 0-1.416-1.118-2.568-2.492-2.568zm0 3.522c-.509 0-.923-.427-.923-.952 0-.525.414-.952.923-.952.51 0 .924.427.924.952 0 .525-.415.952-.924.952zm0 2.758c-1.373 0-2.491 1.152-2.491 2.569 0 1.416 1.118 2.569 2.491 2.569 1.374 0 2.492-1.153 2.492-2.57 0-1.416-1.118-2.568-2.492-2.568zm0 3.521c-.509 0-.923-.427-.923-.952 0-.525.414-.952.923-.952.51 0 .924.427.924.952 0 .525-.415.952-.924.952zm6.326-9.801c-1.592 0-2.887 1.336-2.887 2.977v5.054c0 1.641 1.295 2.977 2.887 2.977 1.591 0 2.886-1.336 2.886-2.977v-5.054c0-1.64-1.295-2.976-2.886-2.976zm1.318 8.031c0 .747-.589 1.36-1.318 1.36-.727 0-1.319-.61-1.319-1.36v-5.054c0-.75.592-1.36 1.319-1.36s1.318.61 1.318 1.36v5.054z" fill="#E41D2C"/></svg>