<svg width="26" height="26" fill="none" xmlns="http://www.w3.org/2000/svg"><path d="M22.108 3.066h-1.645V1.59a.61.61 0 10-1.219 0v1.477H6.691V1.59a.61.61 0 10-1.219 0v1.477H3.827C2.147 3.066.78 4.452.78 6.132v15.84a3.037 3.037 0 003.043 3.032h18.285a3.038 3.038 0 003.047-3.028V6.132c0-1.68-1.367-3.066-3.047-3.066zm1.828 18.906a1.817 1.817 0 01-1.821 1.813H3.827a1.817 1.817 0 01-1.828-1.806V6.132c0-1.008.82-1.847 1.828-1.847h1.645v2.139a.61.61 0 101.219 0V4.285h12.553v2.139a.61.61 0 101.219 0V4.285h1.645c1.008 0 1.828.839 1.828 1.847v15.84z" fill="#E41D2C"/><path d="M19.517 14.644H6.418a.61.61 0 100 1.219h13.099a.61.61 0 100-1.219zm0 4.388H6.418a.61.61 0 100 1.219h13.099a.61.61 0 100-1.219zM6.418 11.537h7.095a.61.61 0 100-1.22H6.418a.61.61 0 100 1.22z" fill="#E41D2C"/></svg>