<svg width="136" height="72" fill="none" xmlns="http://www.w3.org/2000/svg"><path d="M2.267 53.343v2.26l93.76-.263-.052-2.417-93.708.42z" fill="#606060"/><path d="M3.375 55.34v6.517l9.755-.21.422-1.787 21.832.42 1.371 3.311 21.832.526.264 1.682 4.271-.841v-1.42h2.267v1.998l3.692-.84.844 1.103 10.757-.263 1.424-1.997 2.004.263v1.681h3.955v-1.366l2.004-.263-.264 1.682 3.375.263-.58-3.101 37.388-.263s3.375.263 2.531-5.098L3.375 55.34z" fill="#606060"/><path d="M26.208 71.685c4.602 0 8.332-3.718 8.332-8.304s-3.73-8.303-8.332-8.303c-4.601 0-8.331 3.717-8.331 8.303s3.73 8.304 8.331 8.304z" fill="#444"/><path d="M4.535 0L0 52.24l96.397-.841L97.768.579 4.535 0z" fill="#DFDFDF"/><path d="M96.028 14.137l1.424 6.202h20.408l-19.564-6.517-2.268.315zm.316 8.461l26.05-.84 9.914 21.179.58 13.822-16.716.263-6.803-5.36h-9.334l-3.691 5.097h-3.111l4.535-6.517-1.424-27.644zM26.05 69.425c3.437 0 6.223-2.777 6.223-6.202s-2.786-6.201-6.222-6.201c-3.437 0-6.223 2.776-6.223 6.201s2.786 6.202 6.223 6.202z" fill="#DFDFDF"/><path d="M106.364 72c4.601 0 8.331-3.718 8.331-8.304s-3.73-8.303-8.331-8.303c-4.602 0-8.332 3.717-8.332 8.303S101.762 72 106.364 72z" fill="#444"/><path d="M106.786 70.318c3.437 0 6.223-2.776 6.223-6.201s-2.786-6.202-6.223-6.202-6.223 2.777-6.223 6.202 2.786 6.201 6.223 6.201z" fill="#DFDFDF"/><path d="M106.522 66.902a2.528 2.528 0 002.532-2.523 2.528 2.528 0 00-2.532-2.522 2.527 2.527 0 00-2.531 2.522 2.527 2.527 0 002.531 2.523zM26.05 65.746a2.527 2.527 0 002.532-2.523 2.527 2.527 0 00-2.531-2.522 2.527 2.527 0 00-2.532 2.522 2.527 2.527 0 002.532 2.523z" fill="#fff"/><path d="M14.185 65.22l1.424.264s1.107-11.878 10.758-11.562c9.65.315 10.177 11.562 10.177 11.562l2.531-.263S38.76 51.714 26.577 52.24c-12.181.525-12.392 12.98-12.392 12.98zm79.892.264l1.423.262s1.108-11.877 10.758-11.562c9.65.316 10.178 11.562 10.178 11.562l2.531-.262s-.317-13.507-12.498-12.981c-12.181.525-12.392 12.98-12.392 12.98zM43.928 51.399l-.844 6.78 6.222-.316.58-5.886-5.959-.578zm16.979.841l5.96-.841-.845 6.78-4.27.262-.845-6.201zm16.981-.263l5.695-.316-.58 5.676-4.535 1.104-.58-6.464z" fill="#444"/><path d="M100.879 46.564s4.271-3.364 6.539-1.104-.264 2.523-.264 2.523l-2.004-1.42-2.003.842-2.268-.841z" fill="#5E5E5E"/><path d="M103.147 27.119l.738 10.458 20.514 7.042-.528-3.941-3.164-11.615-2.32-1.471-15.24-.473z" fill="#606060"/><path d="M130.041 49.401l-1.107 5.361 7.066-.526-.844-4.834h-5.115z" fill="#F2F2F2"/><path d="M96.028 26.277s-.844 22.599-3.375 22.599h2.531l2.532-22.44-1.688-.159zm28.898-1.734l-1.319.368 6.487 14.558.369.788-5.537-15.714z" fill="#606060"/><path d="M130.622 42.937l1.423-2.575-7.646-16.345-1.424.526 7.647 18.394z" fill="#606060"/><defs><clipPath id="clip0"><path fill="#fff" d="M0 0h136v72H0z"/></clipPath></defs></svg>