<svg width="79" height="78" fill="none" xmlns="http://www.w3.org/2000/svg"><path d="M39.504 57.484c9.96 0 18.035-8.074 18.035-18.035 0-9.96-8.075-18.035-18.035-18.035-9.961 0-18.036 8.074-18.036 18.035 0 9.96 8.075 18.035 18.036 18.035z" stroke="#312930" stroke-miterlimit="10"/><path d="M50.34 10.133l.317.11-2.118 7.917-.902-.224 1.513-5.55-3.356 2.785-.316-.11-1.5-3.935-1.513 5.55-.902-.225 2.118-7.916.317.11 1.931 5.192 4.41-3.704zm1.462 9.992l4.94-6.361 3.86 3.1-.509.65-3.188-2.497-1.524 1.949 2.408 1.948-.508.65-2.408-1.949-1.862 2.382 3.237 2.607-.508.65-3.938-3.129zm6.141 5.475l6.947-4.017.423.793-2.856 1.672 2.067 3.86 2.856-1.672.424.793-6.947 4.018-.423-.794 3.324-1.969-2.067-3.86-3.324 1.97-.424-.794zm8.33 18.736c-1.101.075-2.052-.259-2.852-1-.8-.74-1.162-1.696-1.197-2.813-.035-1.118.376-1.987 1.133-2.826.757-.84 1.711-1.242 2.782-1.235l.025-1.28-3.808.138-.016-.926 7.805-.302.016.926-3.273.142-.025 1.28c.961.06 1.772.53 2.414 1.215.641.685.955 1.532.94 2.54.035 1.117-.405 2.067-1.132 2.825-.758.84-1.711 1.242-2.812 1.316zm-2.283-1.813c.593.576 1.385.854 2.297.805.912-.048 1.648-.343 2.315-.938.587-.622.938-1.328.892-2.173-.046-.845-.31-1.582-.933-2.077-.623-.494-1.336-.744-2.327-.724-.913.049-1.727.316-2.315.939-.587.622-.938 1.328-.892 2.173.046.845.34 1.5.963 1.995zM61 55.166c.268.002.457-.024.665.141a.85.85 0 01.325.575c-.01.272-.071.435-.161.68a.903.903 0 01-.578.35c-.268-.002-.457.024-.664-.141a.85.85 0 01-.326-.575c.011-.272.071-.435.162-.68.14-.135.358-.242.577-.35zm-11.123 8.878c.238.083.367.22.436.52.098.219.087.491-.003.736-.09.244-.23.38-.528.459a.91.91 0 01-.646.05c-.238-.084-.367-.221-.435-.521-.099-.219-.088-.491.002-.736.09-.244.23-.38.529-.459.218-.107.407-.133.645-.05zm-23.382 3.421l.06-.164c.121-.327 1.094.199 1.297-.839l1.256-5.106c.223-.846-.912-.69-.73-1.18l.06-.164 2.762.784-.06.164c-.152.409-.935-.143-1.127.621l-1.328 5.543.08.028 4.402-5.85.318.111.572 5.747c.087.493.174.986.122 1.615l.08.027 1.913-5.43c.303-.818-.881-.77-.73-1.18l.06-.164 2.365.645-.06.164c-.152.409-.935-.143-1.207.593l-1.782 4.83c-.362.981.791 1.016.64 1.426l-.06.163-2.047-.533-.662-5.502c-.038-.383-.016-.93-.024-1.395l-.08-.027-4.202 5.55-1.888-.477zM23.57 56.398c-.958-.796-1.663-.583-2.974.062-.11.054-.218.108-.347-.03l-.049-.109 2.098-1.565.11-.054c.592.576 1.263 1.18 2.734 2.524l1.47 1.344-.09.244c-.278.27-.75-.631-1.368.073l-3.456 4.033c-.618.704.332 1.037.132 1.335l-.17.217-1.134-1.042c-.879-.768-1.886-1.674-3.002-2.525l.03-.082 1.137-1.626.08.028c.078.028.128.137.067.3-.432 1.413-.462 1.495.496 2.29l1.214 1.07 2.022-2.328-.988-.714c-.958-.796-1.409.426-1.745.124l-.049-.109 1.883-2.193.128.137c.336.302-.896.974-.017 1.743l.878.768 1.744-2.058c.309-.352.35-.705-.193-1.172l-.641-.685zm-6.868-9.129c.687-.405-.114-1.146.324-1.362l.11-.053 1.18 2.626-.031.082c-.358.243-.533-.74-1.19-.418l-2.437 1.266 1.603 3.42 2.517-1.238c.687-.404-.035-1.118.324-1.361l.109-.054 1.18 2.626-.11.054c-.358.243-.423-.794-1.19-.417l-4.954 2.504c-.766.376-.014 1.009-.452 1.224l-.11.054-1.179-2.627.11-.053c.358-.244.472.903 1.238.526l2.11-1.104-1.604-3.42-2.109 1.104c-.766.377-.014 1.009-.373 1.252l-.11.054-1.179-2.627.11-.053c.358-.243.472.903 1.208.608l4.905-2.613zm-3.686-14.056c2.14.014 3.77 1.413 3.65 3.672-.1 2.45-1.858 3.582-3.999 3.568l-.066 1.633 2.754.045c.803.006.47-1.031.927-1.055l.079.027-.172 2.885-.079-.027c-.456.024-.015-.926-.818-.932l-5.43-.063c-.803-.006-.52.922-.866.892l-.08-.027.172-2.885.079.028c.456-.025.065 1.035.758 1.094l2.329-.012.036-1.552c-1.891-.203-3.362-1.547-3.303-3.643.149-2.34 1.889-3.663 4.03-3.648zm-.334 6.232c1.605.011 3.47-.44 3.638-2.59.108-1.986-1.713-2.624-3.318-2.635-1.606-.01-3.58.493-3.639 2.59-.107 1.986 1.792 2.652 3.319 2.635zm5.734-16.649a.9.9 0 01-.635-.222c-.208-.165-.337-.303-.326-.575a.99.99 0 01.241-.653.904.904 0 01.578-.35.9.9 0 01.634.223.85.85 0 01.326.575.99.99 0 01-.241.652c-.09.245-.31.352-.577.35zm11.461-8.302c-.238-.083-.336-.302-.435-.52a.684.684 0 01.082-.709c.09-.244.31-.352.528-.46a.647.647 0 01.696.06c.208.166.337.303.435.522a.684.684 0 01-.082.708c-.09.244-.31.352-.528.459-.268-.002-.457.024-.696-.06z" fill="#312930"/><path d="M31.128 35.432H47.88M31.128 39.45H47.88m-16.752 4.016H47.88" stroke="#312930" stroke-miterlimit="10" stroke-linecap="round" stroke-linejoin="round"/></svg>