<svg width="64" height="57" fill="none" xmlns="http://www.w3.org/2000/svg"><path d="M16.53 0v56.795h33.229L64 42.596V0H16.53z" fill="#EFEEEE"/><path d="M49.59 42.384v14.41L64 42.385H49.59z" fill="#ABABAB"/><path d="M6.3 13.563h39.051V30.94H0l6.3-17.377z" fill="#E41D2C"/><path d="M16.226 17.432c.52 0 .956.088 1.313.263.358.175.642.404.86.688.217.284.373.609.468.973.092.362.142.736.142 1.115 0 .52-.078.975-.234 1.363a2.447 2.447 0 01-.653.949c-.28.246-.618.433-1.016.553a4.511 4.511 0 01-1.32.187h-1.093v4.047h-2.045V17.432h3.578zm-.625 4.591c.407 0 .739-.125.987-.372.25-.246.376-.629.376-1.15 0-.51-.108-.899-.326-1.164-.218-.263-.582-.397-1.094-.397h-.851v3.083h.908zm9.286-4.594c.712 0 1.283.118 1.72.35.436.232.774.561 1.016.994.243.43.404.947.49 1.555.085.606.127 1.282.127 2.028 0 .89-.052 1.663-.16 2.321-.11.656-.296 1.2-.561 1.626-.265.428-.62.743-1.065.951-.445.209-1.009.313-1.69.313h-3.228V17.429h3.351zm-.398 8.638c.36 0 .649-.062.867-.185.217-.123.39-.327.518-.61.13-.285.215-.659.255-1.125.043-.461.064-1.039.064-1.73 0-.577-.021-1.083-.056-1.521-.038-.436-.117-.798-.235-1.086-.12-.29-.293-.507-.527-.651-.232-.147-.542-.223-.93-.223h-.864v7.13h.909zm12.183-8.636v1.676h-3.62v2.385h3.407v1.676h-3.408v4.401h-2.044V17.431h5.665z" fill="#fff"/></svg>