<svg width="78" height="98" fill="none" xmlns="http://www.w3.org/2000/svg"><path d="M5.736 9.126L59.427.941c3.16-.517 6.176 1.708 6.594 4.88l11.045 76.916c.483 3.669-2.822 4.609-6.378 5.178L19.864 96.43c-3.556.57-6.896-1.815-7.366-5.384L1.3 15.258c-.392-2.974 1.574-5.654 4.436-6.132z" fill="#EE7754"/><path d="M58.176 6.754L8.292 14.74c-2.862.478-3.577 1.178-3.138 3.743l9.713 61.457c.478 2.862 2.169 3.446 5.44 3.015l46.243-7.304c3.172-.418 5.017-.964 4.552-3.727L62.158 8.65c-.413-2.366-1.305-2.249-3.982-1.896z" fill="#FFF3D6"/><path d="M52.925 47.312c4.698.907 8.174 4.123 8.84 9.178.828 6.278-3.61 12.063-9.888 12.89-6.278.828-12.063-3.61-12.89-9.888-.461-3.5.443-6.502 2.672-8.887l9.392 9.502 1.874-12.795z" fill="#4BCC6A"/><path d="M50.35 58.221l-8.203-8.64c2.688-2.333 6.175-3.753 9.684-2.86" fill="#EE7754"/><path d="M27.82 21.69l2.175 12.714 18.727-11.565-20.903-1.149z" fill="#F5F2EB"/><path d="M34.098 23.921L20.333 22.57c-.988-.022-2.298 1.192-3.077 1.789l-1.159.83c-1.488 1.139-2.365 2.313-2.484 4.12-.013.193.004.387.049.575l.952 4.013c.228 2.472 1.223 4.24 2.153 4.355 2.338.288 5.847.068 8.762-2.03.232-.167-.72-3.088-.703-5.627.006-.845.598-2.594 1.593-2.859l7.293-1.395a.602.602 0 00.489-.627l-.103-1.793z" fill="#E9C78A"/><path d="M54.558 19.21a5.942 5.942 0 00-1.871-1.545A5.889 5.889 0 0050.36 17l-3.969-.28a26.228 26.228 0 00-12.636 2.251l-5.94 2.684.124.02 16.853 2.653-17.247 3.65a2.438 2.438 0 00-1.936 2.423l.025 1.87c.033 2.473 1.226 5.963 3.088 7.617 1.933 1.718 4.398 2.431 6.623 2.514l1.772.067a30.834 30.834 0 0016.33-3.958 9.658 9.658 0 003.582-3.53 9.75 9.75 0 001.332-4.867c.023-3.947-1.32-7.8-3.803-10.905z" fill="#E9C78A"/><path d="M30.005 22.523c.2.4.42.795.601 1.204.102.232.171.481.023.705-.149.224-.485.342-.73.435-.38.148-.77.265-1.145.428-.188.082-.447.176-.593.32-.084.083-.204.194-.135.342.028.06.178.14.229.19.145.136.362.352.286.575-.076.223-.429.296-.627.364-.472.169-.945.338-1.417.51-.157.057-.269-.181-.111-.239.367-.133.735-.266 1.102-.397.139-.05.54-.116.632-.224.208-.25-.09-.422-.244-.566-.307-.29-.213-.522.118-.758.516-.368 1.14-.534 1.728-.757.137-.044.27-.1.398-.165.372-.223.3-.56.147-.867-.163-.329-.331-.663-.498-.995-.076-.152.162-.26.237-.108l-.001.003zm-4.191-.072c.36.486.899 1.156.231 1.57-.393.24-.854.38-1.297.503-.22.061-.443.116-.664.173-.159.042-.529.211-.54.408-.006.103.239.26.31.306.25.172.49.355.5.682a.841.841 0 01-.364.678c-.31.226-.734.282-1.106.34a10.89 10.89 0 01-1.532.113l.135-.082c-.068.2.399.43.495.602a.627.627 0 01.043.478c-.125.443-.594.592-.988.703-.161.045-.205-.214-.044-.259.236-.067.551-.148.702-.363.226-.322-.09-.53-.302-.729a.464.464 0 01-.151-.528.133.133 0 01.135-.082c.49-.003.98-.04 1.463-.113.4-.063 1.052-.109 1.212-.556.233-.657-.921-.729-.79-1.399.085-.457.949-.504 1.293-.596a6.3 6.3 0 001.111-.382c.321-.154.476-.284.348-.665-.077-.227-.26-.447-.4-.636-.103-.136.098-.302.2-.166zm-3.63-.391c.207.335.28.735.205 1.118a1.523 1.523 0 01-.61.949c-.363.252-.803.35-1.222.475a6.688 6.688 0 00-.938.354c-.117.043-.229.1-.333.169-.165.069-.222.222-.168.46a.718.718 0 01.09.115c.092.317.19.521-.075.81-.31.34-.79.301-1.203.403-.27.07-.564.213-.727.445-.174.249-.11.461-.103.733.004.168-.01.325-.135.448-.066.065-.552.223-.49.324.09.145-.149.252-.236.109-.14-.227.014-.391.208-.505.227-.133.405-.181.382-.486-.006-.081-.02-.162-.018-.245a.918.918 0 01.094-.395c.16-.325.5-.536.835-.645.2-.054.404-.094.61-.118.172-.028.372-.059.513-.175.3-.24.12-.487-.023-.752-.144-.265-.157-.45.11-.638.407-.286.923-.474 1.399-.621.499-.156 1.066-.248 1.452-.627.434-.423.462-1.087.151-1.6-.088-.144.15-.25.237-.108l-.005.002z" fill="#F5F2EB"/><path d="M21.044 29.094c-.405.374.274.956.454 1.256.157.26.217.53.1.816-.06.14-.157.253-.223.388-.177.353-.05.55.143.852.176.273.28.507.242.842-.027.233-.133.503-.044.736.072.185.263.295.39.436a.67.67 0 01.18.66c-.23 1.05.05 2.242.162 3.316.018.165-.228.206-.246.039l-.194-1.87c-.044-.414-.12-.852-.04-1.264.046-.226.154-.398.015-.65-.051-.093-.159-.16-.232-.233a1.098 1.098 0 01-.26-.335c-.175-.413.132-.835-.017-1.247-.126-.349-.475-.598-.459-1.002.018-.42.433-.657.365-1.088-.09-.572-1.168-1.238-.498-1.859.12-.107.28.092.162.203v.004zm-4.644.03c-.2.638.49 1.079.763 1.565a1.14 1.14 0 01.083.993c-.175.473-.51.874-.158 1.375.223.316.55.546.71.906.202.455.016.936.13 1.401.11.45.5.802.491 1.284-.008.481-.346.847-.269 1.364.09.593.474 1.113.823 1.577.1.133-.09.298-.191.164-.569-.755-1.145-1.654-.765-2.61.143-.362.191-.626.002-.996-.118-.227-.263-.437-.33-.687-.155-.569.11-1.124-.277-1.642-.23-.308-.561-.545-.692-.922-.132-.376.018-.707.174-1.046.142-.305.256-.594.105-.934-.129-.288-.372-.502-.556-.75-.255-.344-.41-.719-.277-1.137.05-.159.286-.063.236.095H16.4zm14.504-10.476c.935.415 1.935.519 2.942.537.937.016 1.934-.106 2.863.068.292.042.566.17.786.368.158.154.239.358.381.527a1.187 1.187 0 00.829.413c.592.06 1.145-.229 1.688-.413.415-.144.848-.23 1.288-.257a4.889 4.889 0 012.632.6c.778.429 1.412 1.068 2.144 1.567a4.43 4.43 0 001.375.642c.502.132 1.025.195 1.51.386.651.259 1.322.823 1.315 1.582-.006.703-.595 1.233-1.222 1.431-.462.147-.958.14-1.44.11-.268-.015-.775-.097-.73.333.022.213.154.413.195.625.129.675-.306 1.325-.855 1.664-.883.542-1.988.391-2.97.583a2.524 2.524 0 00-1.372.713c-.315.317-.592.69-1.028.853-.733.273-1.477-.17-2.11-.517-.428-.234-.888-.433-1.384-.406a.95.95 0 00-.61.226c-.197.187-.204.464-.325.691-.392.725-1.24.23-1.687-.158-.409-.354-.812-.593-1.34-.356-.372.165-.679.453-1.01.683-.596.416-1.18.562-1.822.123-.513-.35-.82-.7-1.473-.365a8.867 8.867 0 01-1.522.632 8.224 8.224 0 01-3.402.268c-.167-.021-.143-.283.026-.261a8.01 8.01 0 003.11-.201 7.781 7.781 0 001.474-.568c.322-.164.622-.356 1-.278.724.154 1.12 1.037 1.943.73.616-.23 1.039-.801 1.654-1.039.653-.252 1.12.087 1.61.507.209.18.431.357.719.388.386.044.51-.342.63-.627a1 1 0 01.58-.57c.611-.234 1.313.008 1.863.304.409.22.827.488 1.287.582.581.119.992-.156 1.374-.551.261-.273.506-.552.84-.741.396-.224.852-.322 1.3-.383.991-.126 2.248-.014 2.942-.87.341-.421.355-.852.193-1.35-.074-.227-.183-.507-.061-.734.122-.228.349-.233.57-.225.625.021 1.265.128 1.87-.109.434-.17.853-.543.915-1.035.071-.56-.365-1.032-.82-1.296-.851-.49-1.9-.44-2.771-.91-.74-.402-1.349-.995-2.029-1.483a4.655 4.655 0 00-2.135-.898 4.561 4.561 0 00-2.286.248c-.463.162-.92.369-1.419.384-.39.012-.803-.08-1.105-.348-.39-.349-.47-.795-1.04-.94-.959-.241-2.054-.074-3.034-.095-1.005-.02-2.005-.137-2.934-.552-.156-.07-.064-.316.092-.246l-.004.014z" fill="#F5F2EB"/><path d="M39.634 16.034c1.13 1.304 2.93 1.51 4.522 1.78 1.71.29 3.337.804 4.843 1.691.852.501 1.613 1.175 2.537 1.54.856.338 1.78.448 2.62.833 1.192.544 2.226 1.993 1.296 3.198-.212.272-.477.497-.691.766-.31.388-.365.769-.265 1.253.136.66.299 1.283-.326 1.725-.813.572-1.771 1.005-2.64 1.494-.914.512-1.82 1.051-2.785 1.469-.865.374-1.781.636-2.732.659-.461.008-.96-.049-1.4.114-.519.192-.639.666-.912 1.086-.949 1.45-2.95.795-4.345.668a3.822 3.822 0 00-1.843.277c-.459.186-.898.42-1.371.572-1.01.323-1.977.011-3-.04-1.257-.065-2.534.148-3.78.273l-3.682.372c-.168.017-.214-.243-.045-.26 2.048-.207 4.097-.456 6.151-.612.958-.074 1.856.033 2.808.138 1.07.117 1.857-.293 2.81-.68.83-.337 1.63-.364 2.517-.23.866.13 1.758.334 2.614.06a1.75 1.75 0 00.99-.747c.209-.338.333-.713.67-.95.626-.443 1.499-.255 2.216-.322 2.02-.188 3.811-1.412 5.528-2.376l1.261-.709c.486-.272 1.198-.516 1.179-1.174-.02-.678-.381-1.274-.025-1.925.346-.629 1.116-1.002 1.205-1.77.108-.922-.722-1.725-1.491-2.079-.792-.367-1.668-.48-2.484-.78-.846-.31-1.54-.868-2.29-1.352-1.705-1.099-3.564-1.648-5.535-1.975-1.552-.26-3.228-.553-4.32-1.811-.118-.14.085-.304.195-.176z" fill="#F5F2EB"/><path d="M60.048 21.858c.22 1.534.445 3.123.13 4.651-.281 1.364-1.029 2.515-1.994 3.488-1.123 1.131-2.467 2.045-3.773 2.95a72.416 72.416 0 01-4.404 2.823c-.628.368-1.226.81-1.992.745-.389-.033-.78-.164-1.178-.13-.445.037-.8.294-1.156.54-.549.378-1.068.601-1.75.53-.814-.087-1.548-.327-2.37-.112-1.423.37-2.556 1.447-4.022 1.707-.83.147-1.702-.023-2.517.217-.738.218-1.175.922-1.899 1.156-1.352.435-2.3-1.168-3.598-1.157-.523.005-.993.246-1.464.44-.389.165-.794.29-1.21.369a5.85 5.85 0 01-2.598-.128c-.163-.044-.07-.29.093-.246a5.55 5.55 0 002.612.086c.755-.16 1.415-.59 2.168-.74 1.218-.242 1.997.765 3.064 1.111.842.27 1.369-.31 1.996-.762.571-.41 1.22-.507 1.913-.523.824-.02 1.572-.05 2.336-.368.642-.266 1.235-.63 1.855-.94.587-.293 1.212-.549 1.877-.587.724-.044 1.416.254 2.135.23.79-.024 1.271-.647 1.95-.94.62-.27 1.21-.038 1.852-.004.839.047 1.68-.662 2.36-1.074a68.704 68.704 0 002.242-1.411c1.354-.888 2.698-1.806 3.97-2.81 1.271-1.003 2.477-2.179 3.025-3.737.597-1.704.334-3.57.081-5.328-.028-.167.231-.209.26-.04l.006-.006z" fill="#F5F2EB"/><defs><clipPath id="clip0"><path transform="rotate(-7.508 .437 8.715)" fill="#fff" d="M.437 8.715h66.3v89.5H.437z"/></clipPath></defs></svg>