<svg width="81" height="93" fill="none" xmlns="http://www.w3.org/2000/svg"><path fill-rule="evenodd" clip-rule="evenodd" d="M71.758 50.037V89.38c0 1.118-.223 2.012-1.117 2.683l7.6-4.248c.895-.67 1.118-1.564 1.118-2.682V45.79l-7.6 4.247z" fill="#fff"/><path fill-rule="evenodd" clip-rule="evenodd" d="M78.689 46.907v38.227c0 1.117-.224 1.565-.895 2.012l-5.365 3.13V50.483l6.26-3.577zm-7.825 45.827h.447l7.601-4.247c1.341-.894 1.341-2.236 1.341-3.13V45.79c0-.223-.223-.447-.447-.67-.223-.224-.447-.224-.67 0l-7.6 4.247c-.225.224-.448.447-.448.67v39.345c0 1.118-.224 1.565-.894 2.012-.224.224-.447.67-.224.894.447.447.67.447.894.447z" fill="#262626"/><path fill-rule="evenodd" clip-rule="evenodd" d="M22.131 20.752v39.345c0 1.341.447 2.906 1.341 4.247.671 1.341 1.789 2.46 2.906 3.13l41.804 24.143c2.235 1.341 4.247.223 4.247-2.46V49.815L22.131 20.752z" fill="#fff"/><path fill-rule="evenodd" clip-rule="evenodd" d="M25.26 31.436l40.686 23.58v27.917L25.261 59.816v-28.38zm1.342 2.328v11.86l8.495 4.876V38.687l-8.495-4.923zm9.836 5.7V51.27l8.495 4.875V44.388l-8.495-4.923zm9.836 5.701v11.749l8.495 4.875v-11.7l-8.495-4.924zm9.836 5.7V62.56l8.495 4.874V55.79l-8.495-4.924zm8.495 18.115l-8.495-4.875v11.697l8.495 4.826V68.98zm-9.836 6.06V63.335l-8.495-4.875v11.753l8.495 4.827zm-9.836-5.59V57.69l-8.495-4.874v11.808l8.495 4.827zm-9.836-5.588V52.046l-8.495-4.875v11.865l8.495 4.826z" fill="#E41D2C"/><path fill-rule="evenodd" clip-rule="evenodd" d="M71.535 50.037v39.12c0 1.119-.224 1.79-.894 2.236-.447.224-1.341.224-2.236-.447L26.602 66.803c-1.118-.67-2.012-1.565-2.683-2.906-.67-1.341-1.117-2.683-1.117-3.8V21.87l48.733 28.167zM69.97 92.958c.447 0 1.118-.223 1.341-.447 1.118-.67 1.565-1.788 1.565-3.353V49.813c0-.223-.223-.447-.447-.67L22.355 20.082h-.67c-.224.223-.448.447-.448.67v39.345c0 1.341.447 3.13 1.341 4.47.895 1.566 2.012 2.683 3.354 3.354l41.803 24.366c.67.448 1.565.671 2.235.671z" fill="#262626"/><path fill-rule="evenodd" clip-rule="evenodd" d="M67.511 29.918A6105.066 6105.066 0 0025.708 5.775c-1.118-.671-2.236-.671-2.906-.224-.67.447-1.341 1.341-1.341 2.683v12.742l50.297 29.06v-12.74c0-1.342-.447-2.906-1.34-4.248-.671-1.34-1.566-2.459-2.907-3.13z" fill="#fff"/><path fill-rule="evenodd" clip-rule="evenodd" d="M67.288 30.588c.894.447 2.012 1.565 2.682 2.907.67 1.34 1.118 2.682 1.118 3.8v11.624L22.355 20.53V8.234c0-1.118.223-1.789.894-2.236.67-.223 1.341-.223 2.235.224l41.804 24.366zm4.47 20.12h.448c.223-.224.447-.447.447-.671V37.295c0-1.342-.447-3.13-1.341-4.471-.895-1.565-2.012-2.683-3.354-3.577L26.155 5.104c-1.341-.67-2.683-.67-3.577-.224-1.117.671-1.564 1.789-1.564 3.354v12.742c0 .223.223.447.447.67l50.074 29.062h.224z" fill="#262626"/><path fill-rule="evenodd" clip-rule="evenodd" d="M75.559 25.447C61.699 17.399 47.615 9.352 33.756 1.304 32.86.857 31.967.41 30.849.857l-8.047 4.47c1.117-.446 2.012-.223 2.906.448l.67.447.671.447c13.413 7.824 27.05 15.648 40.462 23.473 2.46 1.34 4.248 4.47 4.248 7.377V50.26l8.047-4.471V33.048c0-3.13-1.788-6.26-4.247-7.601z" fill="#fff"/><path fill-rule="evenodd" clip-rule="evenodd" d="M79.136 45.118l-6.483 3.8V37.294c0-2.906-2.012-6.26-4.471-7.824L26.155 5.103c-.224-.223-.447-.223-.67-.447l5.812-3.13c.67-.223 1.117-.223 2.235.448l41.58 23.92c2.235 1.34 3.8 4.247 3.8 6.706v12.518h.224zm-7.377 5.589h.447l8.047-4.471c0-.224.224-.447.224-.894V32.6c0-2.907-2.012-6.26-4.471-7.825L34.203.632c-.895-.447-2.012-.894-3.354-.447L22.802 4.88c-.447.223-.67.447-.447.894.223.223.447.447.894.223.67-.223 1.341-.223 2.235.448l41.804 24.143c2.235 1.34 3.8 4.247 3.8 6.706v12.742c0 .224.224.447.447.67h.224z" fill="#262626"/><path fill-rule="evenodd" clip-rule="evenodd" d="M70.194 32.6l7.824-4.47c.894 1.34 1.565 3.129 1.565 4.694v12.742l-8.048 4.47v-12.74c.224-1.789-.447-3.354-1.341-4.695z" fill="#fff"/><path fill-rule="evenodd" clip-rule="evenodd" d="M79.136 45.119l-6.483 3.8V37.295a8.06 8.06 0 00-1.342-4.471l6.707-3.8c.67 1.34 1.118 2.682 1.118 3.8v12.295zm-7.377 5.588h.447l8.047-4.47c0-.224.224-.448.224-.895V32.6c0-1.788-.67-3.577-1.788-5.142-.224-.223-.671-.447-.895-.223l-8.047 4.47c-.224 0-.224.224-.224.448v.447c.894 1.341 1.565 2.906 1.565 4.471v12.742c0 .224.224.447.447.67 0 .224.224.224.224.224z" fill="#262626"/><path fill-rule="evenodd" clip-rule="evenodd" d="M28.838 79.769l4.918-2.906c-5.813 3.353-12.966-2.236-16.766-6.483-5.142-5.812-9.613-15.872-7.825-23.696.671-2.236 1.789-4.247 3.8-5.589l-5.14 2.906c-5.142 3.354-4.472 11.625-2.683 16.766 2.459 7.601 8.941 16.766 16.766 19.225 2.235.895 4.694 1.118 6.93-.223z" fill="#fff"/><path fill-rule="evenodd" clip-rule="evenodd" d="M28.39 79.098c-1.788 1.118-4.023 1.118-6.259.447-7.6-2.235-13.86-11.177-16.319-18.778-1.788-5.588-2.235-13.189 2.46-16.095l1.34-.67c-.447.67-.67 1.564-.894 2.458-2.012 8.272 2.683 18.331 7.824 24.367 3.354 3.8 8.272 7.377 12.966 7.6l-1.118.671zm-3.353 2.46c1.565 0 2.906-.448 4.248-1.119l4.918-2.906c.223-.223.447-.67.223-.894-.223-.223-.67-.447-.894-.223-5.589 3.13-12.519-2.46-15.872-6.26-5.141-5.812-9.389-15.648-7.6-23.025.67-2.459 1.788-4.024 3.576-5.142.224-.223.447-.67.224-.894-.224-.223-.67-.447-.894-.223l-5.142 2.906c-5.365 3.353-4.918 11.624-3.13 17.66 2.46 8.048 9.166 17.213 17.214 19.672.894.224 2.011.447 3.13.447z" fill="#262626"/><path fill-rule="evenodd" clip-rule="evenodd" d="M19.896 44.448c8.047 4.695 14.307 15.648 14.307 25.037 0 9.166-6.483 12.966-14.307 8.272-8.048-4.695-14.307-15.649-14.307-24.814 0-9.389 6.482-13.19 14.307-8.495z" fill="#fff"/><path fill-rule="evenodd" clip-rule="evenodd" d="M13.636 43.107c1.789 0 4.024.67 6.036 1.788 7.824 4.471 14.084 15.425 14.084 24.367 0 4.248-1.342 7.377-3.8 8.719-2.46 1.34-5.813 1.117-9.39-.895-7.824-4.47-14.083-15.424-14.083-24.366 0-4.248 1.341-7.377 3.8-8.719.894-.447 2.012-.894 3.353-.894zM26.378 80.44a7.72 7.72 0 004.024-1.117c2.907-1.789 4.471-5.142 4.471-9.836 0-9.39-6.706-20.79-14.754-25.485-4.024-2.459-7.824-2.682-10.954-1.117-2.906 1.788-4.47 5.141-4.47 9.836 0 9.389 6.706 20.79 14.754 25.484 2.682 1.341 4.918 2.236 6.93 2.236z" fill="#262626"/><path fill-rule="evenodd" clip-rule="evenodd" d="M23.472 38.636c-3.577-2.012-8.271-3.577-12.295-1.341L6.26 40.2c7.377-3.577 15.872 3.13 20.343 8.271 6.036 6.93 11.177 18.555 9.389 27.944-.67 3.13-2.012 5.588-4.471 7.377 1.118-.671 4.695-2.683 5.589-3.354 5.588-4.247 4.694-13.86 2.906-19.672-2.906-8.718-8.719-17.66-16.543-22.13z" fill="#fff"/><path fill-rule="evenodd" clip-rule="evenodd" d="M23.026 39.083c7.153 4.248 13.412 12.519 16.095 21.684 2.012 6.483 2.46 15.201-2.683 19.002-.223.223-.894.447-1.564.894.67-1.341 1.34-2.683 1.564-4.471 2.012-9.613-3.576-21.46-9.389-28.39-4.247-4.919-10.506-9.613-16.542-9.613l.894-.447c3.8-2.012 8.495-.447 11.625 1.341zm8.27 45.157h.448l1.118-.671c1.565-.894 3.8-2.012 4.47-2.683 5.59-4.247 5.366-13.412 3.13-20.566-2.906-9.389-9.165-18.107-16.766-22.355-3.576-2.012-8.495-3.8-12.965-1.34L5.813 39.53c-.224.224-.448.67-.224.894.224.224.67.447.894.224 6.483-3.13 14.53 2.459 19.672 8.271 5.589 6.707 10.954 18.108 9.166 27.273-.67 3.13-2.012 5.589-4.248 6.93-.223.223-.447.67-.223.894 0 .224.223.224.447.224z" fill="#262626"/><path fill-rule="evenodd" clip-rule="evenodd" d="M29.061 79.545l4.918-2.683-5.142 2.907.224-.224z" fill="#fff"/><path fill-rule="evenodd" clip-rule="evenodd" d="M28.837 80.44h.448l5.141-2.907c.224-.224.447-.67.224-.894-.224-.224-.67-.447-.895-.224l-4.918 2.906-.223.224c-.224.224-.447.67-.224.894h.447z" fill="#262626"/><path fill-rule="evenodd" clip-rule="evenodd" d="M8.048 44.001c1.34-.67 2.906-1.118 4.694-.894 1.788.224 3.577.894 5.589 2.012 2.012 1.118 3.8 2.682 5.588 4.47 1.789 1.79 3.354 4.025 4.695 6.484 1.341 2.235 2.459 4.918 3.13 7.377.67 2.459 1.117 4.694 1.117 7.153 0 2.236-.447 4.248-1.117 5.813-.671 1.564-1.789 2.906-3.13 3.576-1.341.67-2.906 1.118-4.695.894-1.788-.223-3.576-.894-5.588-2.011-2.012-1.118-3.8-2.683-5.589-4.472-1.788-1.788-3.353-4.023-4.694-6.482-1.342-2.236-2.46-4.918-3.13-7.377-.67-2.46-1.118-4.695-1.118-7.154 0-2.235.447-4.247 1.118-5.812.894-1.565 1.788-2.683 3.13-3.577zm23.025 10.73c-3.13-5.588-7.6-10.506-12.519-13.189-4.918-2.906-9.389-3.13-12.518-1.341C2.906 41.989.894 46.013.894 51.825c0 5.589 2.012 12.072 5.142 17.66 3.13 5.59 7.6 10.507 12.518 13.19 4.918 2.906 9.39 3.13 12.519 1.341 3.13-1.788 5.142-5.812 5.142-11.624 0-5.813-2.012-12.072-5.142-17.66z" fill="#fff"/><path fill-rule="evenodd" clip-rule="evenodd" d="M11.848 43.778h.894c1.565.223 3.353.894 5.365 1.788 1.789 1.118 3.8 2.459 5.365 4.47 1.789 1.79 3.354 4.025 4.695 6.26 1.341 2.236 2.459 4.695 3.13 7.154.67 2.459 1.117 4.694 1.117 6.93 0 2.235-.447 4.023-1.117 5.588-.671 1.565-1.565 2.683-2.907 3.353-1.34.671-2.682.895-4.247.895-1.565-.224-3.353-.894-5.365-1.789-1.788-1.117-3.8-2.459-5.365-4.47-1.789-1.789-3.353-4.024-4.695-6.26-1.341-2.235-2.459-4.694-3.13-7.153-.67-2.46-1.117-4.918-1.117-6.93 0-2.236.447-4.024 1.118-5.59.67-1.564 1.564-2.682 2.906-3.352.894-.447 2.235-.894 3.353-.894zm13.19 37.779a7.72 7.72 0 004.023-1.118c1.565-.894 2.683-2.235 3.353-4.024.671-1.788 1.118-3.8 1.118-6.035 0-2.236-.447-4.695-1.118-7.377-.67-2.46-1.788-4.918-3.13-7.377-1.34-2.46-2.905-4.695-4.917-6.483-1.789-2.012-3.8-3.354-5.813-4.695-2.011-1.117-4.023-1.788-5.812-2.012-2.012-.223-3.577.224-5.141 1.118-1.565.894-2.683 2.235-3.354 4.024-.67 1.788-1.117 3.8-1.117 6.036 0 2.235.447 4.694 1.117 7.377.671 2.459 1.789 4.918 3.13 7.377 1.341 2.459 3.13 4.694 4.918 6.483 1.789 2.011 3.8 3.353 5.812 4.694 2.012 1.118 4.024 1.788 5.813 2.012h1.117zM10.506 39.754c-1.565 0-3.13.447-4.248 1.117-3.13 1.789-4.918 5.59-4.918 10.954 0 5.365 1.789 11.401 5.142 17.213 3.353 5.813 7.6 10.284 12.295 12.966 4.47 2.683 8.718 3.13 11.848 1.341 3.13-1.788 4.918-5.588 4.918-10.953 0-5.366-1.788-11.401-5.142-17.213-3.353-5.813-7.6-10.284-12.295-12.966-2.682-1.789-5.365-2.46-7.6-2.46zM26.378 85.58c1.789 0 3.577-.447 4.919-1.341 3.576-2.012 5.588-6.483 5.588-12.072 0-5.589-1.788-12.072-5.365-17.884-3.353-6.035-8.048-10.73-12.742-13.636-4.918-2.906-9.613-3.353-13.19-1.341C2.013 41.318 0 45.789 0 51.378c0 5.589 1.788 12.072 5.365 17.884 3.353 6.036 8.048 10.73 12.742 13.636 2.906 2.012 5.813 2.683 8.271 2.683z" fill="#262626"/><path fill-rule="evenodd" clip-rule="evenodd" d="M16.99 61.438l1.34 2.683 9.166-2.46-1.34-2.906-9.166 2.683z" fill="#fff"/><path fill-rule="evenodd" clip-rule="evenodd" d="M26.378 61.214l-7.824 2.236-.67-1.565 7.824-2.235.67 1.564zm-8.047 3.577l9.389-2.682a.48.48 0 00.447-.448v-.67l-1.341-2.683c-.224-.223-.448-.447-.895-.447l-9.165 2.683a.48.48 0 00-.447.447v.67l1.341 2.683c0 .447.447.447.67.447z" fill="#E41D2C"/><path fill-rule="evenodd" clip-rule="evenodd" d="M20.343 66.58h.447c.223-.224.447-.671.223-.895l-10.73-18.33c-.223-.224-.67-.448-.894-.224-.224.224-.447.67-.224.894l10.73 18.331c0 .224.224.224.448.224z" fill="#E41D2C"/><path fill-rule="evenodd" clip-rule="evenodd" d="M74.53 90.722c.224 0 .246.002.47-.222 1.118-.894 1.56-2.013 1.56-2.907V48.248c0-.447-.225-.67-.672-.67-.447 0-.67.223-.67.67v39.345c0 1.117-.224 1.565-.894 2.012-.224.223-.448.67-.224.894.224.447.206.224.43.224z" fill="#262626"/></svg>