<svg width="101" height="92" fill="none" xmlns="http://www.w3.org/2000/svg"><path fill-rule="evenodd" clip-rule="evenodd" d="M90.27 72.913c2.58 0 4.746-2.063 4.746-4.643 0-2.579-2.063-4.642-4.745-4.642-2.683 0-4.746 2.063-4.746 4.642 0 2.476 2.166 4.643 4.746 4.643z" fill="#fff"/><path fill-rule="evenodd" clip-rule="evenodd" d="M90.27 64.144c-2.166 0-4.023 1.857-4.023 4.023 0 2.27 1.857 4.024 4.023 4.024 2.167 0 4.024-1.857 4.024-4.024 0-2.166-1.754-4.023-4.024-4.023zm0 9.388c-2.888 0-5.364-2.373-5.364-5.365 0-2.888 2.476-5.364 5.364-5.364 2.89 0 5.262 2.373 5.262 5.364 0 2.992-2.373 5.365-5.262 5.365z" fill="#262626"/><path fill-rule="evenodd" clip-rule="evenodd" d="M95.119 76.111c-.103-2.579-2.166-4.746-4.849-4.746-2.682 0-4.849 2.064-4.849 4.746v12.07c.104.62.103 1.032 1.445 1.858 1.34.825 5.468.825 6.809 0 1.444-.826 1.34-1.135 1.444-1.857v-12.07z" fill="#fff"/><path fill-rule="evenodd" clip-rule="evenodd" d="M86.04 76.214v11.967c.104.516.104.722 1.032 1.238 1.239.722 5.056.722 6.19 0 1.032-.619 1.032-.722 1.032-1.238l.103-11.967v-.103c-.103-2.27-1.96-4.127-4.23-4.127-2.166.103-4.023 1.857-4.126 4.23zm4.23 14.96c-1.444 0-2.991-.207-3.713-.723-1.548-.825-1.651-1.444-1.754-2.27L84.7 76.008l.103-.103c.103-2.89 2.579-5.262 5.468-5.262 2.888 0 5.364 2.373 5.468 5.262v12.173c-.104.929-.207 1.548-1.754 2.373-.826.516-2.27.722-3.714.722z" fill="#E41D2C"/><path fill-rule="evenodd" clip-rule="evenodd" d="M90.27 72.913c2.58 0 4.746-2.063 4.746-4.643 0-2.579-2.063-4.642-4.745-4.642-2.683 0-4.746 2.063-4.746 4.642 0 2.476 2.166 4.643 4.746 4.643z" fill="#fff"/><path fill-rule="evenodd" clip-rule="evenodd" d="M90.27 64.144c-2.166 0-4.023 1.857-4.023 4.023 0 2.27 1.857 4.024 4.023 4.024 2.167 0 4.024-1.857 4.024-4.024 0-2.166-1.754-4.023-4.024-4.023zm0 9.388c-2.888 0-5.364-2.373-5.364-5.365 0-2.888 2.476-5.364 5.364-5.364 2.89 0 5.262 2.373 5.262 5.364 0 2.992-2.373 5.365-5.262 5.365z" fill="#E41D2C"/><path fill-rule="evenodd" clip-rule="evenodd" d="M22.18 30.821V55.17l.207.825c.412 1.65 1.341 3.198 2.373 4.54 2.27 2.785 5.674 4.951 8.975 6.292 10.523 4.437 25.586 4.23 35.799-1.031 2.785-1.445 5.468-3.405 7.325-5.984.722-1.135 1.444-2.476 1.754-3.817l.206-.825V30.82c-.103.516-.206 1.032-.413 1.548a13.842 13.842 0 01-2.785 4.54c-3.301 3.61-8.46 5.983-13.205 7.22-9.285 2.477-21.046 1.96-29.919-2.166-3.404-1.547-6.912-4.023-8.872-7.325-.516-.928-1.032-2.063-1.341-3.094l-.104-.723z" fill="#fff"/><path fill-rule="evenodd" clip-rule="evenodd" d="M22.8 34.432v20.633l.206.62a13.147 13.147 0 002.166 4.332c1.857 2.373 5.055 4.54 8.77 6.087 10.626 4.54 25.481 4.127 35.282-1.032 2.167-1.134 5.159-3.095 7.119-5.777.825-1.135 1.444-2.373 1.65-3.61l.207-.723v-20.53a16.993 16.993 0 01-1.96 2.785c-4.024 4.437-10.214 6.5-13.515 7.428-10.11 2.786-21.975 1.857-30.434-2.166-2.889-1.341-6.912-3.817-9.182-7.531-.103-.103-.206-.31-.31-.516zM50.447 70.54c-5.984 0-11.967-1.031-17.022-3.198-2.786-1.135-6.603-3.301-9.182-6.5-1.238-1.444-2.064-3.198-2.476-4.745l-.207-.825v-24.45c0-.31.207-.62.516-.62.31 0 .62.206.722.516l.207.825c.206.929.722 1.96 1.238 2.889 1.65 2.682 4.642 5.158 8.563 7.015 8.253 3.92 19.807 4.746 29.505 2.167 3.198-.825 9.182-2.889 12.896-7.015a12.308 12.308 0 002.58-4.23c.206-.516.309-.929.412-1.445.103-.31.31-.515.722-.515.31 0 .619.309.619.619v24.347l-.206.928a10.92 10.92 0 01-1.857 4.024c-2.064 2.992-5.262 5.055-7.531 6.19-5.572 2.682-12.587 4.023-19.499 4.023z" fill="#262626"/><path fill-rule="evenodd" clip-rule="evenodd" d="M100.381 29.377v2.166L50.449 60.327V58.16l49.932-28.783z" fill="#fff"/><path fill-rule="evenodd" clip-rule="evenodd" d="M51.067 58.572v.62L99.66 31.13v-.619L51.067 58.572zm-.619 2.373c-.103 0-.206 0-.31-.103a.567.567 0 01-.309-.516V58.16c0-.206.103-.413.31-.516l49.83-28.783a.657.657 0 01.618 0c.207.103.31.31.31.515v2.167c0 .206-.207.413-.31.516l-49.83 28.783c0 .103-.206.103-.309.103z" fill="#262626"/><path fill-rule="evenodd" clip-rule="evenodd" d="M50.449 58.16v2.167L.619 31.543v-2.166L50.45 58.16z" fill="#fff"/><path fill-rule="evenodd" clip-rule="evenodd" d="M1.238 31.13l48.591 28.061v-.619L1.238 30.512v.618zm49.21 29.815c-.103 0-.206 0-.31-.103L.31 32.06a.567.567 0 01-.31-.516v-2.167c0-.206.103-.412.31-.515a.657.657 0 01.618 0l49.83 28.783c.206.103.31.31.31.516v2.166a.567.567 0 01-.31.516c0 .103-.206.103-.31.103z" fill="#262626"/><path fill-rule="evenodd" clip-rule="evenodd" d="M50.449.593l49.932 28.784L50.449 58.16.619 29.377 50.45.593z" fill="#fff"/><path fill-rule="evenodd" clip-rule="evenodd" d="M1.857 29.377l48.591 28.06 48.592-28.06L50.448 1.315 1.857 29.377zm48.591 29.402c-.103 0-.206 0-.31-.103L.31 29.996c-.207-.207-.31-.413-.31-.62 0-.206.103-.412.31-.515L50.139.077a.658.658 0 01.619 0l49.932 28.784c.207.103.31.31.31.516 0 .206-.206.412-.31.515L50.758 58.78h-.31z" fill="#262626"/><path fill-rule="evenodd" clip-rule="evenodd" d="M90.27 64.763c-.309 0-.618-.31-.618-.62V46.916c0-7.015-4.952-12.793-11.865-13.824l-27.442-4.127c-.412-.103-.619-.413-.516-.722.104-.31.413-.62.723-.516l27.545 4.127c7.531 1.134 12.999 7.53 12.999 15.062v17.126c-.206.412-.413.722-.825.722z" fill="#E41D2C"/><path fill-rule="evenodd" clip-rule="evenodd" d="M54.782 25.766c-2.373-1.341-6.19-1.341-8.563 0s-2.373 3.61 0 4.952c2.373 1.341 6.19 1.341 8.563 0 2.372-1.341 2.372-3.508 0-4.952z" fill="#fff"/><path fill-rule="evenodd" clip-rule="evenodd" d="M50.449 25.353c-1.445 0-2.89.31-4.024.929-.928.516-1.444 1.238-1.444 1.96s.515 1.341 1.444 1.96c2.167 1.238 5.777 1.238 8.047 0 .928-.516 1.444-1.238 1.444-1.96s-.515-1.341-1.444-1.96c-1.135-.516-2.58-.929-4.023-.929zm0 7.119c-1.651 0-3.302-.413-4.643-1.135-1.341-.825-2.063-1.857-2.063-2.992s.722-2.27 2.063-2.992c2.58-1.444 6.603-1.444 9.285 0 1.341.826 2.063 1.857 2.063 2.992s-.722 2.27-2.063 2.992c-1.238.722-2.889 1.135-4.642 1.135z" fill="#E41D2C"/></svg>