<svg width="37" height="40" fill="none" xmlns="http://www.w3.org/2000/svg"><path fill-rule="evenodd" clip-rule="evenodd" d="M0 29.11c.898.936 1.624 1.71 2.251 2.38 1.711 1.825 2.683 2.861 4.373 4.224h6.947L17.857 40l4.286-4.286h7.36c1.691-1.363 2.663-2.4 4.374-4.224.627-.67 1.353-1.444 2.251-2.38V6.604A512.331 512.331 0 0128.875 0H7.253A512.334 512.334 0 010 6.604V29.11z" fill="#E41D2C"/><path d="M22.837 17.276h-4.623v3.092h.8v3.112h-1.58V11.072h1.58v4.668h3.843v-5.406L20.516 8h-4.603l-2.342 2.334v13.904l2.342 2.333h4.603l2.321-2.334v-6.961z" fill="#fff" stroke="#E41D2C"/></svg>