<svg xmlns="http://www.w3.org/2000/svg" xmlns:xlink="http://www.w3.org/1999/xlink" width="18" height="96" viewBox="0 0 18 96"><svg width="16" height="16" viewBox="0 0 16 16" fill="none" id="expand" y="0"><path d="M12.667 13.333a.665.665 0 0 0 .215-.038.66.66 0 0 0 .151-.072l.005-.003a.68.68 0 0 0 .154-.147.665.665 0 0 0 .09-.15l.002-.006a.67.67 0 0 0 .045-.21c.001-.013.004-.026.004-.04v-2a.667.667 0 0 0-1.333 0v.39L8.943 8 12 4.943v.39a.667.667 0 0 0 1.333 0v-2c0-.014-.003-.027-.004-.04a.66.66 0 0 0-.046-.21v-.005a.68.68 0 0 0-.118-.183.681.681 0 0 0-.127-.115l-.005-.003a.657.657 0 0 0-.191-.084.665.665 0 0 0-.175-.026h-2a.667.667 0 0 0 0 1.333h.39L8 7.057 4.943 4h.39a.667.667 0 0 0 0-1.333h-2c-.013 0-.026.003-.04.004a.747.747 0 0 0-.21.045l-.005.001a.66.66 0 0 0-.183.118.662.662 0 0 0-.115.127l-.002.004a.651.651 0 0 0-.085.192.651.651 0 0 0-.026.175v2a.667.667 0 0 0 1.333 0v-.39L7.057 8 4 11.057v-.39a.667.667 0 0 0-1.333 0v2a.664.664 0 0 0 .038.215.652.652 0 0 0 .073.152l.002.004a.67.67 0 0 0 .115.127l.031.027a.672.672 0 0 0 .152.09c.01.005.021.007.031.01a.627.627 0 0 0 .224.041h2a.667.667 0 0 0 0-1.333h-.39L8 8.943 11.057 12h-.39a.667.667 0 0 0 0 1.333h2z" fill="#E41D2C"></path><path d="M15.333 0h-4a.667.667 0 0 0 0 1.333h3.334v3.334a.667.667 0 0 0 1.333 0v-4A.667.667 0 0 0 15.333 0zM.667 5.333a.667.667 0 0 0 .666-.666V1.333h3.334a.667.667 0 0 0 0-1.333h-4A.667.667 0 0 0 0 .667v4c0 .368.299.666.667.666zM15.333 10.667a.667.667 0 0 0-.666.666v3.334h-3.334a.667.667 0 0 0 0 1.333h4a.667.667 0 0 0 .667-.667v-4a.667.667 0 0 0-.667-.666zM4.667 14.667H1.333v-3.334a.667.667 0 0 0-1.333 0v4c0 .368.299.667.667.667h4a.667.667 0 0 0 0-1.333z" fill="#E41D2C"></path></svg><svg width="12" height="16" viewBox="0 0 12 16" fill="none" id="flag" y="16"><path d="M10.667 6.667A.667.667 0 0 0 11.333 6V.667A.667.667 0 0 0 10.667 0H1.333a.667.667 0 0 0-.666.667v14.666a.667.667 0 0 0 1.138.472L6 11.61l4.195 4.195a.666.666 0 0 0 1.138-.472v-10a.667.667 0 0 0-1.333 0v8.39l-3.529-3.528-1.333-1.333a.667.667 0 0 0-.943.943l.862.862L2 13.724V1.334h8V6c0 .368.299.667.667.667z" fill="#E41D2C"></path></svg><svg width="18" height="14" viewBox="0 0 18 14" fill="none" id="mail" y="32"><path fill-rule="evenodd" clip-rule="evenodd" d="M2.25.25h13.5a1.5 1.5 0 0 1 1.5 1.5v10.5a1.5 1.5 0 0 1-1.5 1.5H2.25a1.5 1.5 0 0 1-1.5-1.5V1.75a1.5 1.5 0 0 1 1.5-1.5zm0 4.964v7.036h13.5V5.214L9 8.589 2.25 5.214zm0-1.678L9 6.912l6.75-3.375V1.75H2.25v1.787z" fill="#E41D2C"></path></svg><svg width="16" height="16" viewBox="0 0 16 16" fill="none" id="map-pin" y="46"><path fill-rule="evenodd" clip-rule="evenodd" d="M8 1.333a5.333 5.333 0 0 0-5.333 5.334c0 2.065 1.344 4.07 2.817 5.624A19.622 19.622 0 0 0 8 14.515a19.624 19.624 0 0 0 2.516-2.224c1.473-1.555 2.817-3.559 2.817-5.624A5.333 5.333 0 0 0 8 1.333zm0 14l-.37.555-.002-.002-.004-.002-.016-.01a7.106 7.106 0 0 1-.256-.181 20.935 20.935 0 0 1-2.836-2.484C2.99 11.597 1.333 9.268 1.333 6.667a6.667 6.667 0 1 1 13.334 0c0 2.601-1.656 4.93-3.183 6.542a20.935 20.935 0 0 1-3.037 2.626l-.055.038-.015.01-.005.004h-.001s-.001.001-.371-.554zm0 0l.37.555a.667.667 0 0 1-.74 0l.37-.555z" fill="#E41D2C"></path><path fill-rule="evenodd" clip-rule="evenodd" d="M8 5.333A1.333 1.333 0 1 0 8 8a1.333 1.333 0 0 0 0-2.667zM5.333 6.667a2.667 2.667 0 1 1 5.334 0 2.667 2.667 0 0 1-5.334 0z" fill="#E41D2C"></path></svg><svg width="16" height="16" viewBox="0 0 16 16" fill="none" id="person" y="62"><path d="M12.667 8H11.26a4.65 4.65 0 0 0 1.407-3.333A4.672 4.672 0 0 0 8 0a4.672 4.672 0 0 0-4.667 4.667A4.65 4.65 0 0 0 4.74 8H3.333A3.337 3.337 0 0 0 0 11.333v4a.667.667 0 0 0 1.333 0v-4c0-1.103.897-2 2-2h9.334c1.103 0 2 .897 2 2v4a.667.667 0 0 0 1.333 0v-4A3.337 3.337 0 0 0 12.667 8zm-8-3.333A3.337 3.337 0 0 1 8 1.333a3.337 3.337 0 0 1 3.333 3.334A3.337 3.337 0 0 1 8 8a3.337 3.337 0 0 1-3.333-3.333z" fill="#262626"></path></svg><svg width="18" height="18" viewBox="0 0 18 18" fill="none" id="search" y="78"><path fill-rule="evenodd" clip-rule="evenodd" d="M8.25 3a5.25 5.25 0 1 0 0 10.5 5.25 5.25 0 0 0 0-10.5zM1.5 8.25a6.75 6.75 0 1 1 13.5 0 6.75 6.75 0 0 1-13.5 0z" fill="#fff"></path><path fill-rule="evenodd" clip-rule="evenodd" d="M11.957 11.957a.75.75 0 0 1 1.06 0l3.263 3.263a.75.75 0 0 1-1.06 1.06l-3.263-3.262a.75.75 0 0 1 0-1.06z" fill="#fff"></path></svg></svg>