<svg width="64" height="92" fill="none" xmlns="http://www.w3.org/2000/svg"><path fill-rule="evenodd" clip-rule="evenodd" d="M.6 64.67v-8.9c0-7.1 8.8-9.7 14.8-10.2.5 1 1 2.1 1.6 3.1l.2.3c-1.6 3.8 4 9.3 9.8 11.4 4.2 1.6 8.8 1 12.9-.6 4.4-1.7 7.1-4.1 6.6-6.3 3 3.9 7.2 6.9 10.6 10.5 3 3.4 5.4 6.5 5.9 11.1v8c0 2.7-.3 3.4-3.2 5.1C37.2 101.172.6 69.87.6 64.67z" fill="#fff"/><path fill-rule="evenodd" clip-rule="evenodd" d="M46.9 55.07c1.6 1.8 3.4 3.5 5.2 5.1 1.5 1.4 3.1 2.8 4.5 4.3 2.7 3.1 5.2 6.2 5.7 10.8v8c0 2.4-.2 2.9-2.9 4.5-12.5 7.2-28.9-.1-37.5-5.1-12.1-7-20.7-15.9-20.7-18v-8.9c0-7.6 10.7-9.2 13.8-9.5.5.9.9 1.8 1.4 2.7v.1c-.4 1.1-.3 2.3.3 3.7 1.4 3.2 5.5 6.7 9.9 8.3 4 1.5 8.5 1.3 13.4-.6 3.8-1.6 6.2-3.5 6.9-5.4zm.5 36.9c4.3 0 8.6-.9 12.6-3.2 2.9-1.7 3.5-2.6 3.5-5.6v-8.1c-.5-5-3.1-8.3-6-11.5-1.4-1.6-3-3-4.6-4.4-2.1-1.9-4.3-3.9-6-6.1-.2-.2-.5-.3-.7-.2-.3.1-.4.4-.3.7.3 1.8-2.1 4-6.2 5.6-4.6 1.8-8.8 2-12.5.6-4.1-1.5-7.9-4.7-9.2-7.7-.5-1.1-.5-2.1-.2-3 .1-.2.1-.4 0-.5l-.2-.3c-.5-1-1.1-2-1.6-3.1-.1-.2-.4-.3-.6-.3C8 45.47 0 48.67 0 55.67v8.9c0 3.1 9.5 12.3 21.3 19.1 6.1 3.6 16.1 8.3 26.1 8.3z" fill="#262626"/><path fill-rule="evenodd" clip-rule="evenodd" d="M.6 64.67v-8.9c0-6.4 7.2-9.1 13-10-2.1 2.6-1.5 6.8 0 9.6 3.6 6.6 12.1 11 19.6 10.7 5.6-.3 14.2-3.2 17-8.4 2.3 2.1 4.7 4.1 6.8 6.4 3.2 3.6 5.7 7 5.9 12v7.2c0 2.7-.3 3.4-3.2 5.1C37.2 101.172.6 69.87.6 64.67z" fill="#fff"/><path fill-rule="evenodd" clip-rule="evenodd" d="M50.3 58.57c.6.5 1.2 1.1 1.7 1.6 1.5 1.4 3.1 2.8 4.5 4.3 2.9 3.3 5.6 6.6 5.8 11.6v7.2c0 2.4-.2 2.9-2.9 4.5-12.5 7.2-28.9-.1-37.5-5.1-12.1-7-20.7-15.9-20.7-18v-8.9c0-6.1 7-8.3 11.1-9.1-1.3 2.7-.7 6.4.7 9 3.6 6.6 12.3 11.4 20.2 11 5.2-.3 13.8-3 17.1-8.1zm-2.9 33.4c4.3 0 8.6-.9 12.6-3.2 2.9-1.7 3.5-2.6 3.5-5.6v-7.2c-.2-5.4-3-8.9-6-12.4-1.4-1.6-3-3-4.6-4.4-.8-.7-1.5-1.4-2.3-2.1-.1-.1-.3-.2-.5-.2s-.4.1-.5.3c-2.8 5.1-11.5 7.8-16.5 8.1-7.4.4-15.6-4-19-10.2-1.4-2.6-1.9-6.6-.1-8.9.2-.2.2-.5.1-.7-.1-.2-.4-.4-.6-.3-4.1.6-13.5 2.8-13.5 10.6v8.9c0 3.1 9.5 12.3 21.3 19.1 6.1 3.5 16.1 8.2 26.1 8.2z" fill="#262626"/><path fill-rule="evenodd" clip-rule="evenodd" d="M46.4 53.47c-.5-.6-1.8-2-2.2-2.6-.7-1.2-.7-1.7-.9-3.1-6.2 7.1-20.7 11.3-26.3 1.2-1.6 3.8 4 9.3 9.8 11.4 4.2 1.6 8.8 1 12.9-.6 4.5-1.7 7.1-4.1 6.7-6.3z" fill="#fff"/><path fill-rule="evenodd" clip-rule="evenodd" d="M45.8 53.77c.2 1.8-2.2 3.9-6.3 5.4-4.6 1.8-8.8 2-12.5.6-4.1-1.5-7.9-4.7-9.2-7.7-.2-.5-.4-1-.4-1.5 2 2.8 5 4.5 8.6 4.9 5.7.6 12.5-2.1 16.8-6.4.1.6.3 1.2.8 2 .2.4.8 1.1 1.4 1.8.4.4.6.7.8.9zm-13.7 8.2c2.5 0 5.1-.5 7.9-1.6 4.9-1.9 7.5-4.5 7-7 0-.1-.1-.2-.1-.3-.2-.2-.5-.6-.8-.9-.5-.6-1.1-1.3-1.3-1.6-.6-1-.6-1.4-.7-2.4v-.4c0-.2-.2-.5-.4-.5-.2-.1-.5 0-.7.2-4 4.6-11 7.5-16.7 7-3.8-.4-6.8-2.4-8.6-5.7-.1-.2-.4-.4-.7-.3-.2.1-.4.2-.4.4-.5 1.2-.4 2.5.2 3.9 1.4 3.2 5.5 6.6 9.9 8.3 1.7.6 3.5.9 5.4.9z" fill="#262626"/><path fill-rule="evenodd" clip-rule="evenodd" d="M20.5 53.87c-2.3-2.2-4.2-6.3-6.1-10.1-2.5-5.1-2.4-10.9-2.4-15.6l.9-2.8c.3-1.2.3-2.4.3-3.5 0-1.5.1-2.9.8-3.7 1.3-1.1 3.2.6 5.6 2.7 1.6 1.4 3.3 2.9 5.2 4 1.9 1.1 3.6 1.6 5.2 2 1.5.4 2.9.8 4 1.7 1.7 1.5 1.7 2.7 1.6 4.8 0 2-.1 4 1.1 8.2.1-1 .4-1.9.7-2.8.6-1.6 1.9-3.5 3.8-3.5 3.1 0 4 3.9 3.5 6.3-.3 1.4-1.1 3.1-1.8 4.3-.2.4.1 1.5.2 2-4.5 5.1-10.9 8.5-16.1 8.5-2.1 0-4.8-.9-6.5-2.5z" fill="#fff"/><path fill-rule="evenodd" clip-rule="evenodd" d="M42.6 47.67c-4.4 4.8-10.5 8-15.4 8-2.3 0-4.8-1-6.3-2.4-2.1-2-3.9-5.7-5.6-9.2l-.4-.7c-2.3-4.7-2.3-10.1-2.3-14.5v-.7l.9-2.6c.3-1.3.4-2.6.4-3.7 0-1.4.1-2.7.6-3.2.9-.8 2.7.9 4.7 2.7 1.6 1.4 3.4 3 5.3 4.1 1.9 1.1 3.7 1.6 5.3 2h.1c1.5.4 2.8.7 3.8 1.6 1.5 1.2 1.5 2.1 1.4 4.1v.5c0 1.9 0 4 1.1 8.1.1.3.3.5.6.4.3 0 .5-.2.6-.5.1-1 .3-1.9.6-2.7.3-.7 1.3-3.2 3.3-3.2.8 0 1.5.3 2 1 1 1.2 1.1 3.3.8 4.6-.2 1.1-.8 2.5-1.7 4.1.1.2-.2.7.2 2.2zm-15.4 9.3c5.3 0 11.9-3.5 16.5-8.7.1-.2.2-.4.1-.6-.3-.9-.3-1.4-.3-1.6.9-1.8 1.5-3.2 1.8-4.4.4-1.6.2-4.1-1.1-5.7-.7-.9-1.7-1.4-3-1.4-2.7 0-4 2.8-4.4 4-.1.1-.1.3-.1.4-.5-2.4-.5-3.8-.5-5.2v-.5c0-2 .1-3.4-1.9-5.1-1.2-1-2.7-1.4-4.2-1.8-1.6-.4-3.2-.9-5-1.9-1.8-1.1-3.6-2.6-5.1-3.9-2.5-2.2-4.7-4.2-6.4-2.7-1 .9-1 2.5-1 4.1 0 1.1 0 2.3-.3 3.4l-.9 2.8v1c0 4.5.1 10.1 2.5 15l.4.7c1.7 3.6 3.6 7.3 5.8 9.5 1.7 1.6 4.5 2.6 7.1 2.6z" fill="#262626"/><path fill-rule="evenodd" clip-rule="evenodd" d="M49 15.47c4.1 7.6 1.5 28.2-5.6 32.7-.1-.4-.6-1.9-.4-2.4.6-1.2 1.4-2.9 1.8-4.3 1.5-6.8-6.6-10-8 0-1.2-4.2-1.1-6.2-1.1-8.2 0-2.1.1-3.3-1.6-4.8-1.1-.9-2.5-1.3-4-1.7-1.6-.4-3.3-.9-5.2-2-1.9-1.1-3.6-2.6-5.2-4-2.3-2.1-4.3-3.8-5.6-2.7-.8.7-.8 2.1-.8 3.7 0 1.2 0 2.4-.3 3.5l-.9 2.8c-.2-3.7-.2-7.9.3-11.4 1-6.7 4-7 12.3-11.4 1.3-.7 3-1.9 5.6-1.9 6.3-.1 15.6 7.1 18.7 12.1z" fill="#fff"/><path fill-rule="evenodd" clip-rule="evenodd" d="M48.5 15.77c3.8 7.1 1.6 26.2-4.7 31.4-.1-.5-.2-.9-.1-1.1.9-1.8 1.5-3.2 1.8-4.4.6-2.5 0-4.8-1.5-6.1-1.1-.9-2.5-1.2-3.7-.7-.9.3-2.4 1.3-3.3 4.1-.5-2.3-.5-3.8-.5-5.2v-.5c0-2 .1-3.4-1.9-5.1-1.2-1-2.7-1.4-4.2-1.8-1.6-.4-3.2-.9-5-1.9-1.8-1.1-3.6-2.6-5.1-3.9-2.5-2.2-4.7-4.2-6.4-2.7-1 .9-1 2.5-1 4.1 0 .7 0 1.4-.1 2.1 0-2.5.2-5 .5-7.1.8-5.3 2.8-6.3 8.3-9 1.1-.6 2.3-1.2 3.7-1.9l.6-.3c1.2-.7 2.7-1.5 4.8-1.6 5.7-.4 14.8 6.9 17.8 11.6zm-5.1 33c.1 0 .2 0 .3-.1 7.4-4.6 10.1-25.6 5.9-33.5-3.2-5.1-12.7-12.5-19.2-12.4-2.4.1-4.1 1-5.3 1.7l-.6.3c-1.4.7-2.6 1.4-3.7 1.9-5.5 2.8-8 4-8.9 10-.5 3.3-.6 7.5-.3 11.5 0 .3.2.5.5.6.3 0 .6-.2.7-.4l.7-2.8c.3-1.3.4-2.6.4-3.7 0-1.4.1-2.7.6-3.2.9-.8 2.7.9 4.7 2.7 1.6 1.4 3.4 3 5.3 4.1 1.9 1.1 3.7 1.6 5.3 2h.1c1.5.4 2.8.7 3.8 1.6 1.5 1.2 1.5 2.1 1.4 4.1v.5c0 1.9 0 4 1.1 8.1.1.3.3.5.6.4.3 0 .5-.2.6-.5.4-3 1.6-5.1 3.1-5.7.8-.3 1.8-.1 2.5.5.9.8 1.7 2.5 1.2 4.9-.2 1.1-.8 2.5-1.7 4.1-.5.8.3 2.8.3 2.9.1.2.2.3.4.4h.2z" fill="#262626"/><path fill-rule="evenodd" clip-rule="evenodd" d="M31.9 35.37c-3.4-4.3-3.1-6.1-8.3-9.1-5.8-3.3-10.3-5.4-13.4-4.5-.2-9.7 3.3-16.7 11.9-19.6 8.6-3 17-1.5 24.2 4 5.7 4.3 9.8 17.5 5.8 25.2-3 2.8-9.4 5.8-13.6 5.7-3.1-.2-5.8-.9-6.6-1.7z" fill="#fff"/><path fill-rule="evenodd" clip-rule="evenodd" d="M51.6 30.87c-2.9 2.7-9.1 5.7-13.1 5.5-3.1-.1-5.5-.8-6.1-1.4-1-1.3-1.7-2.4-2.3-3.3-1.4-2.2-2.4-3.8-6.1-5.9-5.7-3.3-10-5.2-13.1-4.7 0-9.7 3.8-15.6 11.5-18.3 8.3-2.9 16.5-1.5 23.6 3.9 5.6 4.2 9.4 17 5.6 24.2zm-12.8 6.7c4.5 0 10.8-3 13.7-5.9.1 0 .1-.1.1-.2 4.2-7.9.2-21.3-5.9-25.9-7.5-5.6-16-7-24.8-4.1-8.4 2.9-12.5 9.7-12.4 20.2 0 .2.1.4.3.5.2.1.4.1.5.1 2.8-.9 7.2 1.1 12.9 4.4 3.4 1.9 4.3 3.4 5.7 5.5.6 1 1.3 2.1 2.4 3.5v.1c1.1 1.1 4.3 1.7 7 1.8h.5z" fill="#E41D2C"/><path fill-rule="evenodd" clip-rule="evenodd" d="M52.1 31.27c-2.9 2.7-9 5.7-13.3 5.7-5.4-8.3 3.8-21.3 13.8-20.6 1.4 4.7 1.8 10.5-.5 14.9z" fill="#fff"/><path fill-rule="evenodd" clip-rule="evenodd" d="M51.6 30.87c-2.7 2.5-8.3 5.3-12.5 5.4-2-3.3-1.7-7.6.7-11.7 2.8-4.7 7.7-7.8 12.3-7.6 1.5 5.3 1.3 10.5-.5 13.9zm-12.8 6.7c4.5 0 10.7-3.1 13.7-5.9.1 0 .1-.1.1-.2 3-5.6 1.4-12.6.6-15.3-.1-.2-.3-.4-.6-.4-5.1-.4-10.7 2.9-13.9 8.2-2.7 4.6-2.9 9.6-.5 13.4.2.1.4.2.6.2z" fill="#E41D2C"/><path fill-rule="evenodd" clip-rule="evenodd" d="M9.6 46.67c1.2-.3 2.3-.6 3.5-.8-.3.4-.6.9-.9 1.3-.7 1-1.2 3-1.5 5-.6 4.2-.4 9.1-.4 13.8 0 .4.3 1 .7 1.2l25.3 14.6c.4.2.7.1.7-.4 2.8-13.6 6.6-15.6 15-22.1l2.7 2.4c-9.9 11.3-10.4 8.5-10.1 29.6-16.3-1.4-34.2-14.5-41-22 .9-8.1 2.4-17.8 6-22.5v-.1z" fill="#fff"/><path fill-rule="evenodd" clip-rule="evenodd" d="M36.5 81.27l.5.3-.6-.2c-.1 0 0 0 .1-.1zm17.3-19.6c-.6-.5-1.2-1.1-1.8-1.6l-.1-.1-1.3 1c-7.2 5.5-10.5 8-13.1 20.3 0 .4-.2.8-.5 1-.3.2-.7.2-1.1-.1l-25.3-14.6c-.6-.3-1-1.1-1-1.7v-2.9c0-3.7-.1-7.6.5-11 .3-1.8.8-4.1 1.6-5.3l.1-.1c-.6.1-1.2.3-1.8.5-3.6 4.7-5.1 14.7-5.8 21.8 7.5 8.1 24.5 20 39.8 21.6-.2-17.7.2-18.3 6.7-25.3.9-.9 1.9-2.1 3.1-3.5zm-9.3 30.2c.2 0 .3-.1.4-.2.1-.1.2-.3.2-.5-.2-17.9 0-18.2 6.4-25.2 1-1.1 2.2-2.4 3.6-4 .2-.2.2-.6 0-.9-.7-.7-1.5-1.4-2.2-2l-.5-.4c-.2-.2-.6-.2-.8 0l-1.7 1.3c-7.2 5.5-10.8 8.3-13.5 21.1l-25.1-14.5c-.2-.1-.4-.5-.4-.7v-2.9c0-3.7-.1-7.5.4-10.8.4-2.3.9-4 1.4-4.8.3-.5.6-.9.9-1.3.1-.2.1-.5 0-.7-.1-.2-.4-.3-.6-.3-1.3.2-2.5.5-3.6.8-.1 0-.2.1-.3.2l-.1.1c-3.9 5-5.4 15.4-6.1 22.8 0 .2 0 .4.2.5 7.6 8.6 25.5 21 41.4 22.4z" fill="#262626"/><path fill-rule="evenodd" clip-rule="evenodd" d="M9.6 46.67c1.2-.3 2.3-.6 3.5-.8-.3.4-.6.9-.9 1.3-.7 1-1.2 3-1.5 5-.6 4.2-.4 9.1-.4 13.8 0 .4.3 1 .7 1.2l25.3 14.6c.4.2.7.1.7-.4 2.8-13.6 6.6-15.6 15-22.1l2.7 2.4c-9.9 11.3-10.4 8.5-10.1 29.6-16.3-1.4-34.2-14.5-41-22 .9-8.1 2.4-17.8 6-22.5v-.1z" fill="#fff"/><path fill-rule="evenodd" clip-rule="evenodd" d="M36.5 81.27l.5.3-.6-.2c-.1 0 0 0 .1-.1zm17.3-19.6c-.6-.5-1.2-1.1-1.7-1.6l-.1-.1-1.3 1c-7.2 5.5-10.5 8-13.1 20.3 0 .4-.2.8-.5 1-.3.2-.7.2-1.1-.1l-25.3-14.6c-.6-.3-1-1.1-1-1.7v-2.9c0-3.7-.1-7.6.5-11 .3-1.8.8-4.1 1.6-5.3l.1-.1c-.6.1-1.2.3-1.8.5-3.6 4.7-5.1 14.7-5.8 21.8 7.5 8.1 24.5 20 39.8 21.6-.2-17.7.2-18.3 6.7-25.3.8-.9 1.8-2.1 3-3.5zm-9.3 30.2c.2 0 .3-.1.4-.2.1-.1.2-.3.2-.5-.2-17.9 0-18.2 6.4-25.2 1-1.1 2.2-2.4 3.6-4 .2-.2.2-.6 0-.9-.7-.7-1.5-1.4-2.2-2l-.5-.4c-.2-.2-.6-.2-.8 0l-1.7 1.3c-7.2 5.5-10.8 8.3-13.5 21.1l-25.1-14.5c-.2-.1-.4-.5-.4-.7v-2.9c0-3.7-.1-7.5.4-10.8.4-2.3.9-4 1.4-4.8.3-.5.6-.9.9-1.3.1-.2.1-.5 0-.7-.1-.2-.4-.3-.6-.3-1.3.2-2.5.5-3.6.8-.1 0-.2.1-.3.2l-.1.1c-3.9 5-5.4 15.4-6.1 22.8 0 .2 0 .4.2.5 7.6 8.6 25.5 21 41.4 22.4z" fill="#262626"/><path fill-rule="evenodd" clip-rule="evenodd" d="M15.3 23.37c-.8 0-1.5 0-2.1.2-.1-9.8 4.3-17 12.4-20 6.8-2.5 13.4-1.8 19.4 1.8-5.4-2.6-11.3-2.8-17.3-.6-7.7 2.8-12.1 9.5-12.4 18.6z" fill="#fff"/><path fill-rule="evenodd" clip-rule="evenodd" d="M14.7 22.77c-.3 0-.6 0-.9.1.1-9.1 4.4-15.9 11.9-18.7 2.7-1 5.3-1.5 7.9-1.5h.1c-2.1.2-4.2.7-6.3 1.5-7.6 2.8-12.2 9.6-12.7 18.6zm-1.5 1.4h.2c.5-.2 1.1-.2 1.9-.2.2 0 .3-.1.4-.2.1-.1.2-.3.2-.4.3-8.9 4.5-15.3 11.9-18.1 5.8-2.1 11.5-1.9 16.9.6.3.2.7 0 .8-.3.2-.3.1-.6-.2-.8-6.2-3.7-13.1-4.3-20-1.8-8.2 3-12.9 10.5-12.7 20.6 0 .2.1.4.3.5 0 .1.2.1.3.1z" fill="#E41D2C"/><path fill-rule="evenodd" clip-rule="evenodd" d="M24.6 26.87c.1-9 4.3-15.7 11.8-18.5 3.9-1.3 7.6-1.7 11.2-1.1l.9.9c-3.2-.4-6.6.1-10 1.3-7.4 2.7-11.6 10-11.8 18.7-.1 0-1.8-1.1-2.1-1.3z" fill="#fff"/><path fill-rule="evenodd" clip-rule="evenodd" d="M43.7 7.57c-1.8.2-3.6.7-5.5 1.3-7.1 2.6-11.6 9.3-12.2 18.1-.3-.2-.6-.4-.9-.5.3-8.6 4.4-14.8 11.6-17.5 2.3-.8 4.7-1.3 7-1.4zm-17.1 21.2c.2 0 .3-.1.4-.2.1-.1.2-.3.2-.4.3-8.8 4.6-15.5 11.5-18.1 3.3-1.2 6.5-1.7 9.7-1.3.2 0 .5-.1.6-.3.1-.2.1-.5-.1-.7-.3-.4-.6-.7-.9-1-.1-.1-.2-.2-.3-.2-3.8-.6-7.6-.2-11.5 1.2-7.7 2.8-12.1 9.8-12.2 19 0 .2.1.4.3.5l.3-.5-.2.6c2 1.4 2 1.4 2.2 1.4z" fill="#E41D2C"/><path fill-rule="evenodd" clip-rule="evenodd" d="M5.2 26.17h1c.4 0 .8.1 1.2.1 1.4.2 3 .7 4.8 1.4 1.8.7 3.8 1.7 5.8 2.8 2.1 1.2 4.2 2.6 6.2 4.1 1.4 1.1 2.7 2.2 3.9 3.3l2.2-1.3c-1.4-1.4-3-2.7-4.6-4-2.1-1.6-4.3-3-6.5-4.3-2.1-1.2-4.1-2.2-6.1-3-1.9-.8-3.7-1.3-5.3-1.6-.5-.1-1-.1-1.5-.2H4.9l.3 2.7z" fill="#fff"/><path fill-rule="evenodd" clip-rule="evenodd" d="M29.3 36.47l-1.1.6c-1.1-1-2.3-2.1-3.6-3-2-1.5-4.1-2.9-6.3-4.2-2-1.2-4-2.1-5.8-2.9-1.8-.7-3.5-1.2-4.9-1.4-.5-.1-.9-.1-1.3-.1h-.5l-.1-1.2h.7c.5 0 .9.1 1.4.1 1.5.2 3.3.8 5.2 1.5 1.9.8 3.9 1.8 6 2.9 2.2 1.3 4.4 2.7 6.4 4.2 1.3 1.3 2.7 2.4 3.9 3.5zm-1.2 2c.1 0 .2 0 .3-.1l2.2-1.2c.2-.1.3-.3.3-.5s-.1-.4-.2-.5c-1.4-1.4-3-2.7-4.7-4-2.1-1.6-4.3-3-6.5-4.3-2.1-1.2-4.2-2.2-6.1-3-2-.8-3.8-1.3-5.4-1.6-.6-.1-1.1-.1-1.6-.2H4.9c-.2 0-.3.1-.4.2-.1.1-.1.3-.1.5l.3 2.4c.1.3.4.6.7.6.3 0 .6-.1.9 0 .4 0 .7.1 1.2.1 1.3.2 2.9.7 4.7 1.4 1.8.7 3.7 1.7 5.6 2.8 2.1 1.2 4.2 2.6 6.1 4 1.4 1.1 2.7 2.2 3.8 3.3.1.1.2.1.4.1z" fill="#E41D2C"/><path fill-rule="evenodd" clip-rule="evenodd" d="M35.4 33.67c-5.3-5.2-17.8-13.6-25.2-12.9l-5.3 3c7.8-.8 20.7 8.4 25.3 12.9l5.2-3z" fill="#fff"/><path fill-rule="evenodd" clip-rule="evenodd" d="M34.4 33.57l-4 2.3c-4.7-4.4-15.4-11.9-23.1-12.7l3.2-1.8c6.6-.6 18 6.7 23.9 12.2zm-4.1 3.7c.1 0 .2 0 .3-.1l5.1-3c.2-.1.3-.3.3-.5s-.1-.4-.2-.5c-4.9-4.8-17.8-13.8-25.6-13.1-.1 0-.2 0-.2.1l-5.3 3c-.3.1-.4.4-.3.7.1.3.3.5.7.4 7.4-.8 20 8 24.8 12.7.1.2.2.3.4.3z" fill="#E41D2C"/><path fill-rule="evenodd" clip-rule="evenodd" d="M28.6 50.37c-1.6-.9-6.2-3.1-7.5-5.5-1.3.8-5.9-2.3-7.5-3.2 1-2.5 6.2-1.7 7.5.6 1.3-.7 6.5 4.5 7.5 8.1z" fill="#fff"/><path fill-rule="evenodd" clip-rule="evenodd" d="M21.5 42.87c.9 0 4.3 3.2 5.9 6.2-2-1.1-4.8-2.7-5.8-4.4-.1-.1-.2-.2-.4-.3-.2-.1-.3 0-.5.1-.8.5-4.7-1.9-5.9-2.6-.1-.1-.3-.2-.4-.3.5-.5 1.3-.6 1.8-.7 1.8-.1 3.7.7 4.3 1.8.1.1.2.2.4.3.2 0 .4 0 .6-.1zm7.1 8.1c.1 0 .3-.1.4-.1.2-.1.3-.4.2-.6-.9-3.1-4.8-7.5-7-8.4-.3-.1-.6-.2-.9-.2-1.1-1.5-3.4-2.2-5.2-2-1.5.1-2.7.8-3.1 1.9-.1.3 0 .6.3.8.2.1.6.3.9.6 2.6 1.6 5.1 3 6.6 2.8 1.4 2 4.6 3.7 6.5 4.7.4.2.7.4.9.5h.4z" fill="#262626"/><path fill-rule="evenodd" clip-rule="evenodd" d="M37 39.97c3 12.2-7.1 20.3-15.1 16.3-5.5-2.8-9.4-14.2-9.4-19.4.7 5.8 5.9 13.6 7.7 11.6.6 1.7 10.9 7.5 16.8-8.5z" fill="#fff"/><path fill-rule="evenodd" clip-rule="evenodd" d="M36.8 42.17c.8 5.8-1.7 10.1-4.4 12.3-3.1 2.4-6.8 2.9-10.1 1.2-3.1-1.6-5.6-6-7.2-10.4 1.3 2.1 2.7 3.7 3.9 4.1.4.1.8.1 1.1 0 1 1 3.2 2.1 5.8 2.1 3.1 0 7.5-1.7 10.9-9.3zm-10.6 15.7c2.4 0 4.8-.8 6.8-2.5 3.4-2.7 6.3-8.2 4.5-15.6-.1-.3-.3-.5-.6-.5-.3-.1-.5.1-.6.4-3.2 8.6-7.5 10.5-10.5 10.5h-.1c-2.9 0-4.9-1.6-5-2-.1-.2-.3-.3-.5-.4-.2 0-.4 0-.6.2-.1.1-.2.2-.5.1-1.9-.6-5.6-6.4-6.2-11.4 0-.3-.3-.6-.6-.6s-.6.3-.6.6c0 5.2 4 17 9.8 19.9 1.6.9 3.2 1.3 4.7 1.3z" fill="#262626"/></svg>