<svg width="23" height="25" viewBox="0 0 23 25" fill="none" xmlns="http://www.w3.org/2000/svg">
<path d="M20.3542 0H2.64576C1.18688 0 0 1.2238 0 2.72806V22.2458C0 23.7501 1.18688 24.9739 2.64576 24.9739H20.3542C21.8131 24.9739 23 23.7501 23 22.2458V2.72806C23 1.2238 21.8131 0 20.3542 0ZM2.64576 1.61677H20.3542C20.9485 1.61677 21.432 2.11528 21.432 2.72801V7.30231H1.56804V2.72801C1.56804 2.11533 2.05151 1.61677 2.64576 1.61677ZM20.3542 23.3571H2.64576C2.05147 23.3571 1.56804 22.8586 1.56804 22.2458V8.91917H21.432V22.2458C21.432 22.8586 20.9485 23.3571 20.3542 23.3571Z" fill="#E41D2C"/>
<path d="M5.19608 10.5509C3.82225 10.5509 2.70459 11.7033 2.70459 13.1198C2.70459 14.5364 3.82225 15.6888 5.19608 15.6888C6.56991 15.6888 7.68762 14.5364 7.68762 13.1198C7.68762 11.7033 6.56991 10.5509 5.19608 10.5509ZM5.19608 14.0721C4.68689 14.0721 4.27264 13.6449 4.27264 13.1198C4.27264 12.5948 4.68689 12.1677 5.19608 12.1677C5.70528 12.1677 6.11958 12.5948 6.11958 13.1198C6.11958 13.6449 5.70528 14.0721 5.19608 14.0721Z" fill="#E41D2C"/>
<path d="M5.19608 16.8298C3.82225 16.8298 2.70459 17.9823 2.70459 19.3989C2.70459 20.8154 3.82225 21.9678 5.19608 21.9678C6.56991 21.9678 7.68762 20.8154 7.68762 19.3989C7.68762 17.9823 6.56991 16.8298 5.19608 16.8298ZM5.19608 20.351C4.68689 20.351 4.27264 19.9239 4.27264 19.3989C4.27264 18.8738 4.68689 18.4466 5.19608 18.4466C5.70528 18.4466 6.11958 18.8738 6.11958 19.3989C6.11958 19.9239 5.70528 20.351 5.19608 20.351Z" fill="#E41D2C"/>
<path d="M11.0833 10.5509C9.70951 10.5509 8.5918 11.7033 8.5918 13.1198C8.5918 14.5364 9.70951 15.6888 11.0833 15.6888C12.4572 15.6888 13.5748 14.5364 13.5748 13.1198C13.5748 11.7033 12.4572 10.5509 11.0833 10.5509ZM11.0833 14.0721C10.5741 14.0721 10.1598 13.6449 10.1598 13.1198C10.1598 12.5948 10.5741 12.1677 11.0833 12.1677C11.5925 12.1677 12.0068 12.5948 12.0068 13.1198C12.0068 13.6449 11.5925 14.0721 11.0833 14.0721Z" fill="#E41D2C"/>
<path d="M11.0833 16.8298C9.70951 16.8298 8.5918 17.9823 8.5918 19.3989C8.5918 20.8154 9.70951 21.9678 11.0833 21.9678C12.4572 21.9678 13.5748 20.8154 13.5748 19.3989C13.5748 17.9823 12.4572 16.8298 11.0833 16.8298ZM11.0833 20.351C10.5741 20.351 10.1598 19.9239 10.1598 19.3989C10.1598 18.8738 10.5741 18.4466 11.0833 18.4466C11.5925 18.4466 12.0068 18.8738 12.0068 19.3989C12.0068 19.9239 11.5925 20.351 11.0833 20.351Z" fill="#E41D2C"/>
<path d="M17.4087 10.5509C15.817 10.5509 14.522 11.8861 14.522 13.5274V18.581C14.522 20.2222 15.8169 21.5575 17.4087 21.5575C19.0004 21.5575 20.2954 20.2223 20.2954 18.581V13.5274C20.2955 11.8861 19.0005 10.5509 17.4087 10.5509ZM18.7274 18.581C18.7274 19.3284 18.1381 19.9407 17.4087 19.9407C16.6816 19.9407 16.09 19.3307 16.09 18.581V13.5274C16.09 12.7777 16.6816 12.1677 17.4087 12.1677C18.1358 12.1677 18.7274 12.7777 18.7274 13.5274V18.581H18.7274Z" fill="#E41D2C"/>
</svg>
