<svg width="26" height="26" viewBox="0 0 26 26" fill="none" xmlns="http://www.w3.org/2000/svg">
<path d="M22.1082 3.06624H20.4629V1.5885C20.4629 1.25182 20.1902 0.979126 19.8535 0.979126C19.5168 0.979126 19.2441 1.25182 19.2441 1.5885V3.06624H6.69098V1.5885C6.69098 1.25182 6.41828 0.979126 6.0816 0.979126C5.74492 0.979126 5.47223 1.25182 5.47223 1.5885V3.06624H3.82691C2.14694 3.06624 0.780029 4.45199 0.780029 6.13215V21.9721C0.783076 23.6494 2.1456 25.0068 3.8231 25.0037H22.1082C23.7857 25.0089 25.1497 23.6532 25.1551 21.9759V6.13215C25.1551 4.45199 23.7882 3.06624 22.1082 3.06624ZM23.9363 21.9721C23.934 22.9757 23.1184 23.7873 22.1149 23.785H3.82691C2.82334 23.7909 2.00488 22.9823 1.99878 21.9788V6.13215C1.99878 5.12402 2.81877 4.28499 3.82691 4.28499H5.47223V6.42351C5.47223 6.76 5.74492 7.03289 6.0816 7.03289C6.41828 7.03289 6.69098 6.76 6.69098 6.42351V4.28499H19.2441V6.42351C19.2441 6.76 19.5168 7.03289 19.8535 7.03289C20.1902 7.03289 20.4629 6.76 20.4629 6.42351V4.28499H22.1082C23.1163 4.28499 23.9363 5.12402 23.9363 6.13215V21.9721Z" fill="#E41D2C"/>
<path d="M19.5166 14.6443H6.41846C6.08178 14.6443 5.80908 14.917 5.80908 15.2536C5.80908 15.5901 6.08178 15.863 6.41846 15.863H19.5166C19.8533 15.863 20.126 15.5901 20.126 15.2536C20.126 14.917 19.8533 14.6443 19.5166 14.6443Z" fill="#E41D2C"/>
<path d="M19.5166 19.032H6.41846C6.08178 19.032 5.80908 19.3047 5.80908 19.6414C5.80908 19.9778 6.08178 20.2507 6.41846 20.2507H19.5166C19.8533 20.2507 20.126 19.9778 20.126 19.6414C20.126 19.3047 19.8533 19.032 19.5166 19.032Z" fill="#E41D2C"/>
<path d="M6.41846 11.5365H13.5133C13.85 11.5365 14.1227 11.2636 14.1227 10.9271C14.1227 10.5904 13.85 10.3177 13.5133 10.3177H6.41846C6.08178 10.3177 5.80908 10.5904 5.80908 10.9271C5.80908 11.2636 6.08178 11.5365 6.41846 11.5365Z" fill="#E41D2C"/>
</svg>
