<svg width="112" height="24" viewBox="0 0 112 24" fill="none" xmlns="http://www.w3.org/2000/svg">
<g clip-path="url(#clip0)">
<path d="M15.3364 23.0588L16.0909 21.6731V23.0588H15.3364Z" fill="#E41D2C"/>
<path d="M16.0909 13.7545V15.1402L15.3364 13.7545H16.0909Z" fill="#E41D2C"/>
<path d="M9.99483 20.7266C10.2374 20.4839 10.463 20.2412 10.6717 19.9986C11.0747 19.5048 11.4266 18.9714 11.7221 18.4066C11.42 17.8814 11.176 17.3248 10.9943 16.7467C10.9103 16.4654 10.843 16.1794 10.793 15.8901C10.7408 15.6096 10.7084 15.3258 10.6959 15.0407C10.671 14.5667 10.6987 14.0914 10.7784 13.6235C10.8571 13.6534 10.9383 13.6761 11.021 13.6915C11.0471 13.7027 11.0751 13.7093 11.1035 13.7109C11.0986 14.1092 11.1295 14.5072 11.1957 14.9C11.2664 15.301 11.3703 15.6955 11.5062 16.0794C11.9089 16.8584 12.3455 17.6301 12.7628 18.4066C12.3358 19.1808 11.9283 19.9597 11.4843 20.7314C11.183 21.1206 10.8581 21.491 10.5115 21.8405C10.1453 22.2 9.75638 22.5356 9.34711 22.8451C9.19912 22.8233 9.05357 22.7845 8.90559 22.7481C8.49458 22.6542 8.08954 22.5359 7.69263 22.3938C8.22935 22.1101 8.73997 21.7796 9.21853 21.4061C9.49168 21.1966 9.75099 20.9696 9.99483 20.7266Z" fill="#E41D2C"/>
<path d="M11.4502 22.6219C11.4726 22.5988 11.4937 22.5745 11.5133 22.5491L11.5521 22.4787L11.8699 21.8963L12.5031 20.7339L13.7718 18.4066L12.5031 16.0794L11.8699 14.917L11.5521 14.3346L11.5133 14.2642C11.5133 14.2375 11.5012 14.2132 11.4939 14.189L11.4648 14.0385C11.4478 13.9414 11.4308 13.8419 11.4187 13.7449H11.5036H12.2605L14.798 18.4066L12.2605 23.0538H11.4793H11.0524L11.3216 22.7748L11.4502 22.6219Z" fill="#E41D2C"/>
<path d="M13.2868 23.0586L15.8219 18.4066L13.2868 13.7545H14.3105L16.0912 17.0209V19.7922L14.3105 23.0586H13.2868Z" fill="#E41D2C"/>
<path d="M7.82607 17.3291C7.91735 15.6589 8.58826 14.0729 9.72314 12.8445C9.7919 12.9357 9.86645 13.0225 9.94632 13.1041C9.00429 14.4861 8.57519 16.1541 8.73336 17.8193C7.17325 18.9739 5.29735 19.6234 3.35752 19.6806C2.95601 19.2722 2.58391 18.836 2.24402 18.375C4.1678 18.6044 6.11568 18.2394 7.82607 17.3291Z" fill="#E41D2C"/>
<path d="M10.1887 13.3154C10.2297 13.3526 10.2754 13.3844 10.3245 13.4101C10.3755 13.4343 10.4167 13.4732 10.4652 13.495C10.2951 14.0279 10.1908 14.5797 10.1547 15.1379C10.1377 15.4264 10.1377 15.7157 10.1547 16.0043C10.1751 16.2956 10.2115 16.5857 10.2639 16.873C10.3077 17.1239 10.3668 17.3719 10.441 17.6156C10.5137 17.8583 10.5986 18.1009 10.6957 18.3436C10.5429 18.5523 10.3803 18.761 10.2105 18.9673C10.0348 19.1765 9.8469 19.375 9.64769 19.5618C9.40509 19.7827 9.1625 19.9987 8.89322 20.2098C8.62305 20.4148 8.34204 20.6052 8.05143 20.7801C7.43802 21.1535 6.78765 21.4626 6.11069 21.7022C5.85597 21.5688 5.62551 21.4159 5.36836 21.2678C5.12339 21.1206 4.88763 20.9585 4.66241 20.7825C6.57207 20.4447 8.33185 19.5281 9.70348 18.1568C9.29313 16.536 9.46485 14.8225 10.1887 13.3154Z" fill="#E41D2C"/>
<path d="M2.37514 15.9172C3.65631 16.2308 4.99103 16.2565 6.28331 15.9924C6.69666 14.8758 7.37519 13.8764 8.26043 13.0804C8.43697 12.9228 8.62159 12.7746 8.81355 12.6363C9.01247 12.4979 9.21382 12.3717 9.41517 12.2577C9.43333 12.2962 9.44873 12.3359 9.46127 12.3766C9.4734 12.4154 9.50008 12.447 9.51464 12.4834C9.52919 12.5198 9.5389 12.5368 9.55103 12.5635C8.24262 13.6075 7.34201 15.0778 7.00623 16.718C5.17832 17.3678 3.19491 17.4398 1.32472 16.9243L1.12579 16.519C1.03603 16.3273 0.938998 16.138 0.861369 15.9415L0.638184 15.3469C0.929294 15.4683 1.21555 15.5896 1.50181 15.677C1.78807 15.7643 2.08646 15.8493 2.37514 15.9172Z" fill="#E41D2C"/>
<path d="M4.75981 10.2433C5.88744 9.87039 7.08876 9.77712 8.26042 9.97151C8.50301 10.0128 8.72377 10.0637 8.9518 10.1268C9.17984 10.1899 9.40788 10.2724 9.62621 10.3695C9.60555 10.4047 9.58287 10.4388 9.55828 10.4714C9.53888 10.5078 9.52675 10.5466 9.50734 10.583C9.48793 10.6194 9.48308 10.634 9.46852 10.6583C7.84105 10.2847 6.13398 10.4978 4.64822 11.2601C2.99457 10.2414 1.6964 8.73598 0.931702 6.95022L1.12578 6.55224C1.21796 6.36295 1.30772 6.17124 1.40961 5.98681L1.73711 5.4408C1.82202 5.74414 1.9142 6.03777 2.01609 6.31927C2.11798 6.60077 2.25868 6.88713 2.37513 7.15407C2.93396 8.34627 3.74809 9.40093 4.75981 10.2433Z" fill="#E41D2C"/>
<path d="M4.67697 12.2843C6.03683 11.3072 7.69632 10.8382 9.36628 10.9593C9.33817 11.0647 9.3163 11.1717 9.30078 11.2796C7.6353 11.4174 6.06904 12.1284 4.86862 13.2914C2.9945 12.7957 1.31519 11.7421 0.0531616 10.2701C0.119677 9.69703 0.226685 9.12938 0.373383 8.57141C1.39461 10.2202 2.89664 11.516 4.67697 12.2843Z" fill="#E41D2C"/>
<path d="M9.29371 11.6194C9.29371 11.6752 9.29371 11.7334 9.29371 11.7868C9.30535 11.8413 9.31345 11.8964 9.31797 11.9518C8.2488 12.357 7.29863 13.0246 6.55484 13.8932C6.38671 14.0862 6.2288 14.2879 6.08179 14.4975C5.93866 14.7062 5.80038 14.9246 5.67181 15.1551C5.40981 15.1697 5.14053 15.1746 4.8664 15.1551C4.59227 15.1357 4.3327 15.1163 4.05857 15.0823C2.67899 14.8888 1.35609 14.405 0.177092 13.6627C0.128574 13.3788 0.0873332 13.0948 0.0485185 12.8109C0.00970369 12.527 0.0169815 12.2649 0 11.9785C1.45864 13.2533 3.27327 14.0496 5.19875 14.2597C6.21389 12.9285 7.66253 11.9945 9.29371 11.6194Z" fill="#E41D2C"/>
<path d="M6.64671 6.66867C8.25887 7.11763 9.66249 8.1181 10.6131 9.49582C10.5654 9.52413 10.515 9.5477 10.4627 9.56619C10.4166 9.59288 10.3729 9.62929 10.322 9.65355C9.17672 8.43492 7.6414 7.65541 5.98201 7.45008C5.19696 5.67743 4.97182 3.70722 5.33672 1.80307C5.57931 1.65504 5.8219 1.50215 6.07662 1.36626C6.33134 1.23036 6.59092 1.12358 6.85049 0.990112C6.20179 2.81723 6.13065 4.79973 6.64671 6.66867Z" fill="#E41D2C"/>
<path d="M10.0554 9.85276C10.0165 9.89401 9.97287 9.92799 9.93163 9.96439C9.89039 10.0008 9.85886 10.0518 9.82004 10.0906C8.82882 9.51453 7.7102 9.1935 6.56445 9.15629C6.32186 9.15629 6.05016 9.15629 5.79786 9.15629C5.54556 9.15629 5.28842 9.20482 5.02642 9.24608C4.85175 9.05194 4.68194 8.84566 4.51697 8.62726C4.35444 8.40885 4.21131 8.18559 4.06818 7.94777C3.35789 6.75216 2.90816 5.4199 2.74847 4.0383C2.9377 3.82475 3.12934 3.61363 3.32584 3.40493C3.52234 3.19623 3.7431 3.01422 3.95416 2.82251C3.87783 4.75872 4.3941 6.6721 5.43397 8.30693C7.10752 8.2672 8.7423 8.81403 10.0554 9.85276Z" fill="#E41D2C"/>
<path d="M16.0909 3.26648V6.03781L15.3364 4.65214L16.0909 3.26648Z" fill="#E41D2C"/>
<path d="M9.21842 1.65251C9.06558 1.97041 8.93216 2.28831 8.81571 2.60136C8.70418 2.91973 8.60944 3.24375 8.53188 3.57206C8.38073 4.19117 8.29936 4.82526 8.28929 5.46248C8.79567 5.79523 9.26068 6.18707 9.67449 6.62974C9.87313 6.84148 10.0587 7.06515 10.23 7.29952C10.3974 7.53324 10.5513 7.77631 10.6909 8.02754C10.8075 8.23619 10.9112 8.45176 11.0015 8.67305C11.0941 8.8894 11.1751 9.11055 11.2441 9.33555L11.1228 9.35497C11.0828 9.35553 11.0432 9.36377 11.0063 9.37923L10.9166 9.39137C10.1907 7.88108 8.95286 6.67725 7.42323 5.99394C7.18888 4.07068 7.55225 2.12187 8.46395 0.412448L8.90305 0.300818C9.10832 0.247627 9.31649 0.206304 9.52651 0.177055L10.1548 0.0848389C9.97288 0.342073 9.80306 0.601733 9.64538 0.861394C9.48879 1.11714 9.34626 1.38124 9.21842 1.65251Z" fill="#E41D2C"/>
<path d="M13.2868 4.65205L15.8219 0H16.0912V1.38567L14.3105 4.65205L16.0912 7.91844V9.3041H15.8219L13.2868 4.65205Z" fill="#E41D2C"/>
<path d="M14.7981 9.3041H13.7719L11.2344 4.66661C12.0811 3.08681 12.9253 1.55796 13.7719 0H14.7981L12.2606 4.65205L14.7981 9.3041Z" fill="#E41D2C"/>
<path d="M10.7347 3.52847C10.5316 3.93162 10.3589 4.34937 10.218 4.77824C10.4873 5.11433 10.7306 5.47047 10.9457 5.84358C11.1517 6.20828 11.3301 6.58792 11.4794 6.97929C11.887 7.76555 12.3285 8.52997 12.7458 9.3041H11.722C11.6493 9.1682 11.5668 9.03231 11.5037 8.89641C11.4406 8.76051 11.443 8.6319 11.4018 8.49357C11.2492 7.94399 11.0283 7.4157 10.7444 6.92105C10.5995 6.66367 10.4374 6.41639 10.2592 6.18089C9.95322 5.76749 9.60616 5.38616 9.22333 5.04276C9.30853 4.5094 9.44668 3.98587 9.63574 3.47994C9.74613 3.16889 9.87743 2.86566 10.0287 2.57234C10.1807 2.26547 10.3483 1.96659 10.5309 1.67687C10.7201 1.39699 10.9296 1.11468 11.1592 0.829943C11.2708 0.689193 11.3848 0.548442 11.5037 0.407691C11.6226 0.266941 11.6444 0.135897 11.722 0H12.7458C12.3188 0.776555 11.9113 1.54826 11.4673 2.32724C11.1977 2.71159 10.953 3.11282 10.7347 3.52847Z" fill="#E41D2C"/>
<path d="M62.7706 13.0705C62.7667 13.3932 62.6361 13.7014 62.4068 13.9285C62.1775 14.1556 61.8681 14.2832 61.5455 14.2838H59.4665C59.1434 14.2839 58.8334 14.1565 58.6036 13.9293C58.3738 13.7022 58.2428 13.3936 58.2389 13.0705V7.68555H56.992V13.0705C56.9926 13.6798 57.2349 14.2639 57.6656 14.6948C58.0963 15.1256 58.6803 15.3679 59.2894 15.3686H61.7153C62.3246 15.3679 62.9088 15.1257 63.3399 14.6949C63.771 14.2642 64.0138 13.68 64.0151 13.0705V7.68555H62.7657L62.7706 13.0705Z" fill="#E41D2C"/>
<path d="M38.6692 13.0705V7.68555H37.4199V13.0705C37.4211 13.68 37.6639 14.2642 38.095 14.6949C38.5261 15.1257 39.1103 15.3679 39.7196 15.3686H43.1814V14.296H39.8943C39.5696 14.2953 39.2584 14.166 39.0287 13.9363C38.7991 13.7066 38.6699 13.3953 38.6692 13.0705Z" fill="#E41D2C"/>
<path d="M99.1428 13.0705V7.68555H97.8935V13.0705C97.8948 13.6796 98.1372 14.2634 98.5678 14.6941C98.9983 15.1248 99.5819 15.3673 100.191 15.3686H103.65V14.296H100.368C100.043 14.2953 99.732 14.166 99.5024 13.9363C99.2728 13.7066 99.1435 13.3953 99.1428 13.0705Z" fill="#E41D2C"/>
<path d="M108.715 14.296C108.393 14.2954 108.083 14.1677 107.854 13.9406C107.625 13.7136 107.494 13.4053 107.49 13.0826V7.68555H106.241V13.0705C106.242 13.68 106.485 14.2642 106.916 14.6949C107.347 15.1257 107.931 15.3679 108.541 15.3686H112V14.296H108.715Z" fill="#E41D2C"/>
<path d="M87.2848 7.47947C87.0118 7.46911 86.7424 7.54357 86.5135 7.69262C86.2845 7.84167 86.1074 8.05798 86.0063 8.31184V8.3264L85.1621 10.872L84.3882 13.2211C84.3834 13.2349 84.3741 13.2468 84.3618 13.2547C84.3495 13.2626 84.3349 13.2662 84.3203 13.2648C84.3061 13.266 84.2918 13.2624 84.2799 13.2544C84.268 13.2465 84.2592 13.2348 84.2548 13.2211L83.4785 10.872L82.6391 8.3264V8.31184C82.5385 8.05818 82.3618 7.84194 82.1333 7.69288C81.9048 7.54382 81.6357 7.46926 81.3631 7.47947C80.6717 7.47947 79.9294 7.89201 79.9294 8.80446V15.3688H81.1763V8.8166C81.1763 8.64915 81.2321 8.57392 81.3364 8.57392H81.3752H81.3995L81.414 8.58606C81.4209 8.59236 81.4266 8.59974 81.431 8.6079C81.4394 8.61937 81.4467 8.63155 81.4529 8.6443C81.4603 8.65674 81.4668 8.66972 81.4723 8.68313L81.4868 8.71225L81.5402 8.87727L83.2699 13.9952C83.3684 14.1884 83.5201 14.3493 83.7071 14.459C83.8941 14.5686 84.1086 14.6225 84.3252 14.6141C84.5421 14.6223 84.7568 14.5685 84.9442 14.4589C85.1315 14.3492 85.2837 14.1884 85.3829 13.9952L87.1126 8.87727L87.1659 8.71225C87.1669 8.70257 87.1669 8.69281 87.1659 8.68313L87.1853 8.6443C87.1915 8.63155 87.1988 8.61937 87.2072 8.6079L87.2241 8.58606L87.2387 8.57392H87.2654H87.3018C87.4085 8.57392 87.4619 8.65886 87.4619 8.8166V15.3688H88.7112V8.8166C88.7185 7.89201 87.9738 7.47947 87.2848 7.47947Z" fill="#E41D2C"/>
<path d="M93.9271 7.68555H92.6777V15.371H93.9271V7.68555Z" fill="#E41D2C"/>
<path d="M53.0938 10.2627V10.1463C53.1024 9.86969 53.0706 9.59335 52.9992 9.32602C52.8583 8.85135 52.5676 8.43504 52.1705 8.13935C51.7735 7.84365 51.2914 7.68446 50.7964 7.68555H48.1279C47.8142 7.68747 47.5042 7.75298 47.2165 7.8781C46.9288 8.00323 46.6694 8.18539 46.454 8.41357C45.8282 9.0785 45.8282 9.86961 45.8282 10.6462V12.9588C45.8097 13.4965 45.9773 14.024 46.3026 14.4524C46.6279 14.8808 47.0909 15.1839 47.6136 15.3103C47.8764 15.3613 48.1443 15.3809 48.4118 15.3686H50.0711H50.4083C50.9991 15.4092 51.5881 15.2659 52.0943 14.9585C52.3639 14.7709 52.5908 14.5285 52.7602 14.247C52.9295 13.9655 53.0374 13.6514 53.0768 13.3253C53.0943 13.1398 53.1 12.9534 53.0938 12.7671V10.2627ZM47.0775 11.1412C47.0775 10.7869 47.0775 10.3865 47.0775 9.9958C47.0819 9.66957 47.2134 9.35794 47.444 9.12724C47.6746 8.89654 47.9862 8.76499 48.3123 8.7606C48.5161 8.7606 48.7223 8.7606 48.9285 8.7606H49.5544H50.1803H50.321C50.5485 8.74486 50.7771 8.76617 50.9978 8.82369C51.1068 8.86081 51.2104 8.91222 51.3059 8.97658L47.0921 13.1918C47.0818 13.0732 47.0777 12.9541 47.0799 12.8351V11.7188C47.0824 11.5271 47.0799 11.3329 47.0775 11.1412ZM51.8566 12.3061C51.876 12.8763 51.8978 13.5194 51.5315 13.8883C51.1506 14.3033 50.6533 14.3008 50.0759 14.296H48.5476C48.3581 14.3074 48.1679 14.2927 47.9824 14.2523C47.8768 14.221 47.7757 14.1761 47.6816 14.1188L51.8469 9.94969V11.9299C51.8469 12.0512 51.8517 12.1774 51.8566 12.3061Z" fill="#E41D2C"/>
<path d="M31.5562 7.68762H29.0866C28.4775 7.68826 27.8935 7.93059 27.4628 8.36143C27.0321 8.79228 26.7899 9.37644 26.7892 9.98574V13.0701C26.7892 13.6801 27.0311 14.2651 27.4618 14.6968C27.8925 15.1286 28.4769 15.3718 29.0866 15.3731H33.8535V14.2956H29.2637C28.9406 14.2956 28.6306 14.1683 28.4008 13.9411C28.171 13.714 28.04 13.4054 28.0362 13.0822V9.98574C28.04 9.6626 28.171 9.354 28.4008 9.12686C28.6306 8.89972 28.9406 8.77235 29.2637 8.77237H31.3791C31.7021 8.77235 32.0122 8.89972 32.242 9.12686C32.4717 9.354 32.6028 9.6626 32.6066 9.98574V10.7623H33.8535V9.98574C33.8529 9.37644 33.6106 8.79228 33.1799 8.36143C32.7492 7.93059 32.1653 7.68826 31.5562 7.68762Z" fill="#E41D2C"/>
<path d="M75.308 9.9812C75.308 9.89627 75.308 9.81376 75.2959 9.73853C75.2946 9.72806 75.2946 9.71746 75.2959 9.70698C75.2867 9.63356 75.2738 9.56067 75.2571 9.48858C75.2585 9.48218 75.2585 9.47556 75.2571 9.46916C75.2412 9.39418 75.2201 9.32039 75.194 9.24833C75.194 9.24833 75.194 9.22649 75.194 9.21678L75.1455 9.08817L75.1334 9.05904L75.1115 9.01779V9.0008C75.0776 8.93043 75.0412 8.86491 75.0024 8.79938L74.9466 8.71687C74.9018 8.64785 74.8532 8.58142 74.801 8.51788L74.7622 8.4742C74.7268 8.43066 74.6887 8.38933 74.6482 8.35044L74.5778 8.28734L74.5269 8.24366C74.376 8.11401 74.2088 8.00469 74.0296 7.91848L73.9811 7.89664C73.796 7.81404 73.6012 7.75532 73.4013 7.72191H73.3455C73.2433 7.70852 73.1404 7.70122 73.0374 7.70007H67.2249V8.77269H68.1685V15.3686H73.0204C73.1235 15.3678 73.2265 15.3597 73.3285 15.3443H73.3843C73.5847 15.3133 73.7799 15.2545 73.9641 15.1696L74.0126 15.1477C74.1913 15.0615 74.3584 14.953 74.5099 14.825L74.5609 14.7789C74.5851 14.757 74.6094 14.74 74.6312 14.7182C74.653 14.6963 74.7088 14.6357 74.7452 14.5944C74.7816 14.5532 74.7719 14.5629 74.784 14.5483C74.8368 14.486 74.8854 14.4204 74.9296 14.3518L74.9854 14.2668C75.0242 14.2013 75.0606 14.1358 75.0946 14.0678V14.0484L75.1164 14.0072L75.1285 13.978C75.1455 13.9368 75.1601 13.8931 75.177 13.8518C75.194 13.8106 75.177 13.83 75.177 13.8203C75.2029 13.7481 75.2239 13.6744 75.2401 13.5995C75.2412 13.593 75.2412 13.5865 75.2401 13.58C75.2568 13.5071 75.2697 13.4334 75.2789 13.3592C75.2779 13.3487 75.2779 13.3382 75.2789 13.3277C75.2789 13.2452 75.2911 13.1627 75.2911 13.085V9.98363L75.308 9.9812ZM74.066 11.6047C74.066 11.9396 74.066 12.2842 74.066 12.5996V13.0704C74.0651 13.351 73.9684 13.6228 73.7919 13.8408C73.6154 14.0589 73.3697 14.21 73.0956 14.2692H73.0738C72.9993 14.2834 72.9239 14.2916 72.8482 14.2935H69.413V8.75813H72.8409C72.9166 8.75807 72.9922 8.76538 73.0665 8.77997H73.0883C73.3629 8.83835 73.6091 8.98928 73.7857 9.20749C73.9623 9.42571 74.0587 9.69799 74.0587 9.97878V10.4496C74.0587 10.7626 74.0587 11.1096 74.0587 11.4445L74.066 11.6047Z" fill="#E41D2C"/>
</g>
<defs>
<clipPath id="clip0">
<rect width="112" height="23.0588" fill="white"/>
</clipPath>
</defs>
</svg>
