<svg width="10" height="10" viewBox="0 0 10 10" fill="none" xmlns="http://www.w3.org/2000/svg">
<path d="M5.88439 5.0001L9.81676 1.06756C10.0611 0.823448 10.0611 0.427359 9.81676 0.183243C9.57245 -0.0610811 9.17679 -0.0610811 8.93248 0.183243L5.0001 4.11578L1.06752 0.183243C0.823206 -0.0610811 0.42755 -0.0610811 0.183236 0.183243C-0.0610786 0.427359 -0.0610786 0.823448 0.183236 1.06756L4.11582 5.0001L0.183236 8.93264C-0.0610786 9.17676 -0.0610786 9.57285 0.183236 9.81697C0.305393 9.93892 0.46549 10 0.625378 10C0.785266 10 0.945363 9.93892 1.06752 9.81676L5.0001 5.88422L8.93248 9.81676C9.05464 9.93892 9.21473 10 9.37462 10C9.53451 10 9.69461 9.93892 9.81676 9.81676C10.0611 9.57264 10.0611 9.17655 9.81676 8.93244L5.88439 5.0001Z" fill="#E41D2C"/>
</svg>
