<svg width="18" height="18" viewBox="0 0 18 18" fill="none" xmlns="http://www.w3.org/2000/svg">
<path d="M8.46929 13.2821C8.48687 13.2996 8.50445 13.3172 8.52554 13.3313C8.53257 13.3383 8.54312 13.3453 8.55366 13.3524C8.56421 13.3594 8.57476 13.37 8.5853 13.377C8.59585 13.384 8.6064 13.3911 8.61695 13.3981C8.62749 13.4051 8.63804 13.4086 8.64859 13.4157C8.65913 13.4227 8.66968 13.4262 8.68374 13.4332C8.69429 13.4368 8.70484 13.4438 8.71538 13.4473C8.72593 13.4508 8.73648 13.4543 8.75054 13.4614C8.76109 13.4649 8.77515 13.4719 8.7857 13.4754C8.79624 13.4789 8.80679 13.4825 8.82085 13.4825C8.83491 13.486 8.84546 13.4895 8.85952 13.493C8.87359 13.4965 8.88765 13.4965 8.8982 13.5C8.90874 13.5 8.91929 13.5036 8.92984 13.5036C8.97905 13.5071 9.02827 13.5071 9.07749 13.5036C9.08804 13.5036 9.09859 13.5 9.10913 13.5C9.1232 13.4965 9.13726 13.4965 9.14781 13.493C9.16187 13.4895 9.17241 13.486 9.18648 13.4825C9.19702 13.4789 9.20757 13.4754 9.22163 13.4754C9.23218 13.4719 9.24624 13.4684 9.25679 13.4614C9.26734 13.4578 9.27788 13.4543 9.29194 13.4473C9.30249 13.4438 9.31304 13.4368 9.32359 13.4332C9.33413 13.4262 9.3482 13.4227 9.35874 13.4157C9.36929 13.4086 9.37984 13.4051 9.39038 13.3981C9.40093 13.3911 9.41148 13.384 9.42202 13.377C9.43257 13.37 9.44312 13.3629 9.45366 13.3524C9.46421 13.3453 9.47124 13.3383 9.48179 13.3313C9.49937 13.3172 9.51695 13.2996 9.53452 13.2821L13.2857 9.5309C13.5775 9.2391 13.5775 8.76449 13.2857 8.46918C12.9939 8.17386 12.5193 8.17738 12.224 8.46918L9.75601 10.9371V4.00006C9.74898 3.58873 9.41499 3.25123 9.00015 3.25123C8.5853 3.25123 8.25132 3.58873 8.25132 4.00006V10.9371L5.78335 8.46918C5.49155 8.17738 5.01695 8.17738 4.72163 8.46918C4.42632 8.76097 4.42984 9.23558 4.72163 9.5309L8.46929 13.2821Z" fill="#262626"/>
<path d="M17.2512 12.7512C16.8363 12.7512 16.5023 13.0887 16.5023 13.5V16.4989H1.50117V13.5C1.50117 13.0852 1.16367 12.7512 0.752344 12.7512C0.3375 12.7512 0 13.0852 0 13.5V17.2512C0 17.6625 0.3375 18 0.748828 18H17.2477C17.6625 18 17.9965 17.6625 17.9965 17.2512V13.5C18 13.0852 17.6625 12.7512 17.2512 12.7512Z" fill="#262626"/>
</svg>
