<svg width="16" height="16" viewBox="0 0 16 16" fill="none" xmlns="http://www.w3.org/2000/svg">
<path d="M12.6667 13.3334C12.7277 13.3334 12.7857 13.3223 12.842 13.307C12.8557 13.3035 12.8687 13.2994 12.882 13.2947C12.9357 13.2764 12.987 13.2533 13.0334 13.2227C13.0347 13.2218 13.0363 13.2214 13.0376 13.2205C13.0853 13.1884 13.127 13.1484 13.1651 13.1054C13.1743 13.0951 13.183 13.0844 13.1918 13.0735C13.2277 13.0271 13.2593 12.9778 13.2821 12.9231C13.2821 12.9228 13.2824 12.9224 13.2827 12.9221C13.2834 12.9208 13.2834 12.919 13.2837 12.9174C13.3047 12.8658 13.3171 12.8101 13.3247 12.7527C13.3267 12.7377 13.3283 12.7227 13.3293 12.7078C13.3301 12.6941 13.3334 12.6807 13.3334 12.6667V10.6667C13.3334 10.2987 13.0347 10.0001 12.6667 10.0001C12.2987 10.0001 12 10.2987 12 10.6667V11.0574L8.94273 8.00008L12 4.94279V5.33341C12 5.70142 12.2987 6.00008 12.6667 6.00008C13.0347 6.00008 13.3334 5.70142 13.3334 5.33341V3.33341C13.3334 3.31942 13.3301 3.30607 13.3293 3.2924C13.3283 3.2771 13.3267 3.26245 13.3247 3.24748C13.3174 3.19002 13.3047 3.13468 13.2837 3.08276C13.2831 3.08146 13.2831 3.07967 13.2827 3.07804C13.2827 3.07772 13.2824 3.07739 13.2821 3.07707C13.259 3.02238 13.2274 2.97274 13.1918 2.92668C13.183 2.91577 13.1743 2.90503 13.1651 2.89478C13.127 2.85181 13.0856 2.81209 13.0376 2.7797C13.0363 2.77873 13.0347 2.7784 13.0334 2.77743C12.987 2.74683 12.9357 2.72371 12.882 2.70549C12.8687 2.70076 12.8557 2.6967 12.842 2.69312C12.7857 2.67782 12.7277 2.66675 12.6667 2.66675H10.6667C10.2987 2.66675 10 2.96541 10 3.33341C10 3.70142 10.2987 4.00008 10.6667 4.00008H11.057L8.00002 7.05737L4.94273 4.00008H5.33335C5.70135 4.00008 6.00002 3.70142 6.00002 3.33341C6.00002 2.96541 5.70135 2.66675 5.33335 2.66675H3.33335C3.31968 2.66675 3.30666 2.67 3.29331 2.67082C3.27769 2.67179 3.26239 2.67342 3.24677 2.67537C3.18931 2.68302 3.13397 2.69539 3.08205 2.71639C3.08075 2.71704 3.07928 2.71672 3.07831 2.71737C3.07798 2.71737 3.07766 2.71769 3.07766 2.71769C3.02264 2.7408 2.973 2.77238 2.92662 2.80868C2.91571 2.81714 2.90562 2.82576 2.89537 2.83472C2.85207 2.8728 2.81203 2.91447 2.77997 2.96248C2.77932 2.96346 2.77867 2.96476 2.77802 2.96606C2.74709 3.01278 2.72398 3.06437 2.70575 3.11841C2.70103 3.13175 2.69696 3.14445 2.69338 3.15812C2.67775 3.21444 2.66669 3.27238 2.66669 3.33341V5.33341C2.66669 5.70142 2.96535 6.00008 3.33335 6.00008C3.70135 6.00008 4.00002 5.70142 4.00002 5.33341V4.94279L7.05731 8.00008L4.00002 11.0574V10.6667C4.00002 10.2987 3.70135 10.0001 3.33335 10.0001C2.96535 10.0001 2.66669 10.2987 2.66669 10.6667V12.6667C2.66669 12.7278 2.67775 12.7857 2.69305 12.842C2.69663 12.8557 2.7007 12.8684 2.70542 12.8818C2.72365 12.9358 2.74677 12.9874 2.77769 13.0341C2.77834 13.0351 2.77899 13.0364 2.77964 13.0377C2.81203 13.0857 2.85175 13.1274 2.89504 13.1654C2.90529 13.1744 2.91571 13.1827 2.92629 13.1915C2.97268 13.2275 3.02232 13.2594 3.07733 13.2825C3.07766 13.2825 3.07798 13.2828 3.07798 13.2828C3.0884 13.287 3.09898 13.2885 3.10907 13.2921C3.13934 13.3031 3.16962 13.3137 3.20201 13.3201C3.24563 13.3287 3.28941 13.3334 3.33335 13.3334H5.33335C5.70135 13.3334 6.00002 13.0347 6.00002 12.6667C6.00002 12.2987 5.70135 12.0001 5.33335 12.0001H4.94273L8.00002 8.94279L11.057 12.0001H10.6667C10.2987 12.0001 10 12.2987 10 12.6667C10 13.0347 10.2987 13.3334 10.6667 13.3334H12.6667Z" fill="#E41D2C"/>
<path d="M15.3334 0H11.3334C10.9654 0 10.6667 0.298665 10.6667 0.666667C10.6667 1.03467 10.9654 1.33333 11.3334 1.33333H14.6667V4.66667C14.6667 5.03467 14.9654 5.33333 15.3334 5.33333C15.7014 5.33333 16 5.03467 16 4.66667V0.666667C16 0.298665 15.7014 0 15.3334 0Z" fill="#E41D2C"/>
<path d="M0.666667 5.33333C1.03467 5.33333 1.33333 5.03467 1.33333 4.66667V1.33333H4.66667C5.03467 1.33333 5.33333 1.03467 5.33333 0.666667C5.33333 0.298665 5.03467 0 4.66667 0H0.666667C0.298665 0 0 0.298665 0 0.666667V4.66667C0 5.03467 0.298665 5.33333 0.666667 5.33333Z" fill="#E41D2C"/>
<path d="M15.3334 10.6667C14.9654 10.6667 14.6667 10.9654 14.6667 11.3334V14.6667H11.3334C10.9654 14.6667 10.6667 14.9654 10.6667 15.3334C10.6667 15.7014 10.9654 16.0001 11.3334 16.0001H15.3334C15.7014 16.0001 16 15.7014 16 15.3334V11.3334C16 10.9654 15.7014 10.6667 15.3334 10.6667Z" fill="#E41D2C"/>
<path d="M4.66667 14.6667H1.33333V11.3334C1.33333 10.9654 1.03467 10.6667 0.666667 10.6667C0.298665 10.6667 0 10.9654 0 11.3334V15.3334C0 15.7014 0.298665 16.0001 0.666667 16.0001H4.66667C5.03467 16.0001 5.33333 15.7014 5.33333 15.3334C5.33333 14.9654 5.03467 14.6667 4.66667 14.6667Z" fill="#E41D2C"/>
</svg>
