<svg width="16" height="17" viewBox="0 0 16 17" fill="none" xmlns="http://www.w3.org/2000/svg">
<g clip-path="url(#clip0)">
<path d="M12.6665 13.5638C12.7275 13.5638 12.7855 13.5526 12.8418 13.5372C12.8555 13.5335 12.8685 13.5294 12.8818 13.5247C12.9355 13.5063 12.9868 13.4829 13.0332 13.452C13.0345 13.451 13.0361 13.4507 13.0374 13.4497C13.0851 13.4173 13.1268 13.3768 13.1649 13.3334C13.1742 13.3231 13.1828 13.3122 13.1916 13.3012C13.2275 13.2544 13.2591 13.2045 13.2819 13.1493C13.2819 13.149 13.2822 13.1486 13.2826 13.1483C13.2832 13.147 13.2832 13.1452 13.2835 13.1435C13.3045 13.0914 13.3169 13.0352 13.3245 12.9771C13.3265 12.962 13.3281 12.9469 13.3291 12.9317C13.3299 12.9179 13.3332 12.9045 13.3332 12.8903V10.8698C13.3332 10.4981 13.0345 10.1964 12.6665 10.1964C12.2985 10.1964 11.9998 10.4981 11.9998 10.8698V11.2645L8.94255 8.17588L11.9998 5.0873V5.48192C11.9998 5.85369 12.2985 6.15541 12.6665 6.15541C13.0345 6.15541 13.3332 5.85369 13.3332 5.48192V3.46145C13.3332 3.44731 13.3299 3.43383 13.3291 3.42002C13.3281 3.40456 13.3265 3.38976 13.3245 3.37464C13.3172 3.31659 13.3045 3.26069 13.2835 3.20824C13.2829 3.20692 13.2829 3.20511 13.2826 3.20347C13.2826 3.20314 13.2822 3.20281 13.2819 3.20248C13.2588 3.14724 13.2272 3.09709 13.1916 3.05055C13.1828 3.03954 13.1742 3.02868 13.1649 3.01833C13.1268 2.97492 13.0854 2.9348 13.0374 2.90208C13.0361 2.90109 13.0345 2.90076 13.0332 2.89977C12.9868 2.86886 12.9355 2.84551 12.8818 2.8271C12.8685 2.82233 12.8555 2.81822 12.8418 2.8146C12.7855 2.79914 12.7275 2.78796 12.6665 2.78796H10.6665C10.2985 2.78796 9.99984 3.08969 9.99984 3.46145C9.99984 3.83322 10.2985 4.13494 10.6665 4.13494H11.0568L7.99984 7.22353L4.94255 4.13494H5.33317C5.70117 4.13494 5.99984 3.83322 5.99984 3.46145C5.99984 3.08969 5.70117 2.78796 5.33317 2.78796H3.33317C3.3195 2.78796 3.30648 2.79125 3.29313 2.79207C3.27751 2.79306 3.26221 2.79471 3.24658 2.79668C3.18913 2.80441 3.13379 2.8169 3.08187 2.83811C3.08057 2.83877 3.0791 2.83844 3.07812 2.8391C3.0778 2.8391 3.07747 2.83943 3.07747 2.83943C3.02246 2.86278 2.97282 2.89468 2.92643 2.93134C2.91553 2.93989 2.90544 2.94861 2.89518 2.95765C2.85189 2.99613 2.81185 3.03822 2.77979 3.08673C2.77913 3.08771 2.77848 3.08903 2.77783 3.09034C2.74691 3.13753 2.7238 3.18966 2.70557 3.24425C2.70085 3.25773 2.69678 3.27055 2.6932 3.28437C2.67757 3.34126 2.6665 3.39979 2.6665 3.46145V5.48192C2.6665 5.85369 2.96517 6.15541 3.33317 6.15541C3.70117 6.15541 3.99984 5.85369 3.99984 5.48192V5.0873L7.05713 8.17588L3.99984 11.2645V10.8698C3.99984 10.4981 3.70117 10.1964 3.33317 10.1964C2.96517 10.1964 2.6665 10.4981 2.6665 10.8698V12.8903C2.6665 12.952 2.67757 13.0105 2.69287 13.0674C2.69645 13.0812 2.70052 13.094 2.70524 13.1075C2.72347 13.1621 2.74658 13.2142 2.77751 13.2614C2.77816 13.2624 2.77881 13.2637 2.77946 13.265C2.81185 13.3135 2.85156 13.3556 2.89486 13.3941C2.90511 13.4032 2.91553 13.4115 2.92611 13.4204C2.97249 13.4568 3.02214 13.489 3.07715 13.5123C3.07747 13.5123 3.0778 13.5127 3.0778 13.5127C3.08822 13.5169 3.0988 13.5184 3.10889 13.522C3.13916 13.5332 3.16943 13.5439 3.20182 13.5503C3.24544 13.559 3.28923 13.5638 3.33317 13.5638H5.33317C5.70117 13.5638 5.99984 13.2621 5.99984 12.8903C5.99984 12.5185 5.70117 12.2168 5.33317 12.2168H4.94255L7.99984 9.12824L11.0568 12.2168H10.6665C10.2985 12.2168 9.99984 12.5185 9.99984 12.8903C9.99984 13.2621 10.2985 13.5638 10.6665 13.5638H12.6665Z" fill="white"/>
<path d="M15.3332 0.0939941H11.3332C10.9652 0.0939941 10.6665 0.395716 10.6665 0.767484C10.6665 1.13925 10.9652 1.44097 11.3332 1.44097H14.6665V4.80842C14.6665 5.18019 14.9652 5.48191 15.3332 5.48191C15.7012 5.48191 15.9998 5.18019 15.9998 4.80842V0.767484C15.9998 0.395716 15.7012 0.0939941 15.3332 0.0939941Z" fill="white"/>
<path d="M0.666667 5.48191C1.03467 5.48191 1.33333 5.18019 1.33333 4.80842V1.44097H4.66667C5.03467 1.44097 5.33333 1.13925 5.33333 0.767484C5.33333 0.395716 5.03467 0.0939941 4.66667 0.0939941H0.666667C0.298665 0.0939941 0 0.395716 0 0.767484V4.80842C0 5.18019 0.298665 5.48191 0.666667 5.48191Z" fill="white"/>
<path d="M15.3332 10.8699C14.9652 10.8699 14.6665 11.1716 14.6665 11.5434V14.9108H11.3332C10.9652 14.9108 10.6665 15.2125 10.6665 15.5843C10.6665 15.9561 10.9652 16.2578 11.3332 16.2578H15.3332C15.7012 16.2578 15.9998 15.9561 15.9998 15.5843V11.5434C15.9998 11.1716 15.7012 10.8699 15.3332 10.8699Z" fill="white"/>
<path d="M4.66667 14.9108H1.33333V11.5434C1.33333 11.1716 1.03467 10.8699 0.666667 10.8699C0.298665 10.8699 0 11.1716 0 11.5434V15.5843C0 15.9561 0.298665 16.2578 0.666667 16.2578H4.66667C5.03467 16.2578 5.33333 15.9561 5.33333 15.5843C5.33333 15.2125 5.03467 14.9108 4.66667 14.9108Z" fill="white"/>
</g>
<defs>
<clipPath id="clip0">
<rect width="16" height="16.1638" fill="white" transform="translate(0 0.0939941)"/>
</clipPath>
</defs>
</svg>
