<svg width="17" height="10" viewBox="0 0 17 10" fill="none" xmlns="http://www.w3.org/2000/svg">
<path fill-rule="evenodd" clip-rule="evenodd" d="M12.5898 3.05599L12.6007 4.49022L6.14346 4.53968C5.8186 4.543 5.55452 4.80709 5.5512 5.13194C5.54804 5.44021 5.8036 5.69435 6.11039 5.68942L13.2163 5.63353C14.256 5.62298 15.0995 4.77957 15.11 3.73981C15.1201 2.74777 14.2402 1.89017 13.2681 1.89984L5.51495 1.95809C3.7602 1.97554 2.33731 3.39842 2.31986 5.15318C2.30291 6.85713 3.76594 8.29213 5.4435 8.27523L14.4881 8.20513L14.4992 9.63937L5.45628 9.70945C2.98321 9.73437 0.860655 7.65247 0.885657 5.13891C0.910878 2.60319 2.96496 0.549104 5.50243 0.523867L13.2556 0.465619C15.021 0.44805 16.5625 1.95048 16.5442 3.75437C16.5257 5.57487 15.0513 7.04925 13.2292 7.06775L6.1276 7.12358C5.0198 7.14146 4.10559 6.23232 4.117 5.11727C4.1283 4.01176 5.02328 3.11679 6.13063 3.10546L12.5898 3.05599Z" fill="#E41D2C"/>
</svg>
