<svg width="12" height="16" viewBox="0 0 12 16" fill="none" xmlns="http://www.w3.org/2000/svg">
<path d="M10.6666 6.66667C11.0346 6.66667 11.3333 6.368 11.3333 6V0.666667C11.3333 0.298665 11.0346 0 10.6666 0H1.33329C0.965291 0 0.666626 0.298665 0.666626 0.666667V15.3333C0.666626 15.603 0.828898 15.846 1.07792 15.9494C1.32727 16.0519 1.61357 15.9953 1.80465 15.8047L5.99996 11.6097L10.1953 15.8047C10.323 15.9323 10.493 16 10.6666 16C10.7526 16 10.8393 15.9834 10.922 15.9494C11.171 15.846 11.3333 15.603 11.3333 15.3333V5.33333C11.3333 4.96533 11.0346 4.66667 10.6666 4.66667C10.2986 4.66667 9.99996 4.96533 9.99996 5.33333V13.7236L6.47131 10.1953L5.13798 8.86198C4.87756 8.60173 4.45569 8.60173 4.19527 8.86198C3.93502 9.1224 3.93502 9.54427 4.19527 9.80469L5.05725 10.6667L1.99996 13.7236V1.33333H9.99996V6C9.99996 6.368 10.2986 6.66667 10.6666 6.66667Z" fill="#E41D2C"/>
</svg>
