<svg width="22" height="23" viewBox="0 0 22 23" fill="none" xmlns="http://www.w3.org/2000/svg">
<g clip-path="url(#clip0)">
<path fill-rule="evenodd" clip-rule="evenodd" d="M11.0002 1.83561C9.05524 1.83561 7.18998 2.60918 5.81471 3.98615C4.43945 5.36312 3.66683 7.23069 3.66683 9.17803C3.66683 12.0214 5.51459 14.7805 7.54062 16.9218C8.53489 17.9726 9.53228 18.8328 10.2821 19.4307C10.5612 19.6532 10.8049 19.8385 11.0002 19.9829C11.1954 19.8385 11.4391 19.6532 11.7182 19.4307C12.4681 18.8328 13.4654 17.9726 14.4597 16.9218C16.4857 14.7805 18.3335 12.0214 18.3335 9.17803C18.3335 7.23069 17.5609 5.36312 16.1856 3.98615C14.8103 2.60918 12.9451 1.83561 11.0002 1.83561ZM11.0002 21.1095C10.4917 21.8731 10.4915 21.873 10.4912 21.8728L10.4886 21.871L10.4825 21.8669L10.4615 21.8527C10.4436 21.8406 10.4181 21.8231 10.3856 21.8006C10.3205 21.7554 10.2269 21.6896 10.109 21.6043C9.87316 21.4338 9.53933 21.1849 9.14008 20.8666C8.34305 20.2312 7.27794 19.3132 6.20971 18.1842C4.11074 15.9659 1.8335 12.7592 1.8335 9.17803C1.8335 6.74386 2.79927 4.4094 4.51835 2.68818C6.23743 0.966968 8.56901 0 11.0002 0C13.4313 0 15.7629 0.966968 17.482 2.68818C19.2011 4.40939 20.1668 6.74386 20.1668 9.17803C20.1668 12.7592 17.8896 15.9659 15.7906 18.1842C14.7224 19.3132 13.6573 20.2312 12.8602 20.8666C12.461 21.1849 12.1272 21.4338 11.8914 21.6043C11.7734 21.6896 11.6798 21.7554 11.6147 21.8006C11.5822 21.8231 11.5567 21.8406 11.5389 21.8527L11.5179 21.8669L11.5118 21.871L11.5098 21.8723C11.5096 21.8725 11.5086 21.8731 11.0002 21.1095ZM11.0002 21.1095L11.5086 21.8731C11.2007 22.0786 10.7991 22.0783 10.4912 21.8728L11.0002 21.1095Z" fill="#E41D2C"/>
<path fill-rule="evenodd" clip-rule="evenodd" d="M11.0002 7.34244C9.98764 7.34244 9.16683 8.16427 9.16683 9.17805C9.16683 10.1918 9.98764 11.0137 11.0002 11.0137C12.0127 11.0137 12.8335 10.1918 12.8335 9.17805C12.8335 8.16427 12.0127 7.34244 11.0002 7.34244ZM7.3335 9.17805C7.3335 7.15049 8.97512 5.50684 11.0002 5.50684C13.0252 5.50684 14.6668 7.15049 14.6668 9.17805C14.6668 11.2056 13.0252 12.8493 11.0002 12.8493C8.97512 12.8493 7.3335 11.2056 7.3335 9.17805Z" fill="#E41D2C"/>
</g>
<defs>
<clipPath id="clip0">
<rect width="22" height="22.0273" fill="white"/>
</clipPath>
</defs>
</svg>
