<svg width="30" height="26" viewBox="0 0 30 26" fill="none" xmlns="http://www.w3.org/2000/svg">
<path d="M26.2499 7.78826H23.125H21.2501V4.41338C21.2501 3.65518 20.6333 3.03842 19.8751 3.03842H18.5527V1.16359C18.5527 0.818359 18.2728 0.538574 17.9276 0.538574H8.32248C7.9773 0.538574 7.69746 0.818418 7.69746 1.16359V3.03842H6.37494C5.6168 3.03842 4.99998 3.65523 4.99998 4.41338V7.78826H1.2501V5.9132C1.2501 5.56803 0.970254 5.28818 0.625078 5.28818C0.279902 5.28813 0 5.56803 0 5.9132V10.9132C0 11.2584 0.279902 11.5383 0.62502 11.5383C0.970254 11.5383 1.25004 11.2584 1.25004 10.9132V9.03836H2.50002V24.2883H0.62502C0.279902 24.2884 0 24.5683 0 24.9134C0 25.2586 0.279902 25.5385 0.62502 25.5385H5.62488C5.97012 25.5385 6.2499 25.2586 6.2499 24.9134C6.2499 24.5682 5.97006 24.2884 5.62488 24.2884H3.75018V21.7885H20.9612C20.7478 22.1566 20.6249 22.5833 20.6249 23.0384C20.6249 24.4169 21.7465 25.5385 23.125 25.5385C24.5036 25.5385 25.6251 24.4169 25.6251 23.0384C25.6251 22.5833 25.5022 22.1566 25.2888 21.7885H29.375C29.7202 21.7885 30.0001 21.5087 30.0001 21.1635V11.5383C30 9.47055 28.3177 7.78826 26.2499 7.78826ZM8.94744 1.78861H17.3024V3.03842H8.94744V1.78861ZM6.24996 7.00873H13.9109C14.256 7.00873 14.5359 6.72883 14.5359 6.38371C14.5359 6.03848 14.256 5.75869 13.9109 5.75869H6.24996V4.41344C6.24996 4.34576 6.30721 4.28857 6.37482 4.28857H8.32236H17.9275H19.875C19.9427 4.28857 19.9999 4.34576 19.9999 4.41344V10.5385H12.3391C11.9938 10.5385 11.7141 10.8184 11.7141 11.1635C11.7141 11.5087 11.9939 11.7885 12.3391 11.7885H19.6137L18.9887 13.0384H16.1596C15.8145 13.0384 15.5345 13.3183 15.5345 13.6635C15.5345 14.0087 15.8145 14.2885 16.1596 14.2885H18.3636L17.2387 16.5382H9.01131L6.24996 11.0158V7.00873ZM3.75018 20.5384V9.03836H4.99992V11.1635C4.99992 11.2606 5.02248 11.3563 5.06602 11.4431L8.06613 17.4429C8.17195 17.6547 8.3884 17.7884 8.62512 17.7884H17.6249C17.8618 17.7884 18.0781 17.6546 18.184 17.4429L21.1842 11.4431C21.186 11.4393 21.1873 11.4353 21.1891 11.4313C21.1961 11.4167 21.2026 11.4017 21.2085 11.3864C21.2109 11.3799 21.2133 11.3736 21.2156 11.3669C21.221 11.3516 21.2255 11.3358 21.2296 11.3199C21.2313 11.3134 21.2332 11.3071 21.2346 11.3006C21.2383 11.2838 21.2411 11.2669 21.2436 11.2497C21.2443 11.2439 21.2455 11.2383 21.2462 11.2325C21.2487 11.2098 21.2502 11.1869 21.2502 11.1635V9.03842H22.5001V20.5385H3.75018V20.5384ZM23.125 24.2884C22.4357 24.2884 21.875 23.7277 21.875 23.0385C21.875 22.3493 22.4357 21.7886 23.125 21.7886C23.8142 21.7886 24.3749 22.3492 24.3749 23.0385C24.3749 23.7277 23.8142 24.2884 23.125 24.2884ZM28.7499 20.5385H27.4998V15.4482C27.4998 15.103 27.2199 14.8232 26.8748 14.8232C26.5296 14.8232 26.2498 15.1031 26.2498 15.4482V20.5385H23.7501V9.03836H26.2501C27.6285 9.03836 28.75 10.1598 28.75 11.5383V20.5385H28.7499Z" fill="#E41D2C"/>
<path d="M10.4833 11.7886H10.5293C10.8744 11.7886 11.1543 11.5087 11.1543 11.1636C11.1543 10.8184 10.8744 10.5386 10.5293 10.5386H10.4833C10.1381 10.5386 9.85828 10.8185 9.85828 11.1636C9.85828 11.5087 10.1381 11.7886 10.4833 11.7886Z" fill="#E41D2C"/>
<path d="M26.8747 12.9675C26.5294 12.9675 26.2496 13.2474 26.2496 13.5926V13.6383C26.2496 13.9835 26.5295 14.2633 26.8747 14.2633C27.2198 14.2633 27.4997 13.9834 27.4997 13.6383V13.5926C27.4997 13.2474 27.2197 12.9675 26.8747 12.9675Z" fill="#E41D2C"/>
<path d="M15.7205 7.00864H15.7666C16.1117 7.00864 16.3916 6.72874 16.3916 6.38362C16.3916 6.03839 16.1117 5.75854 15.7666 5.75854H15.7205C15.3754 5.75854 15.0955 6.03833 15.0955 6.38362C15.0954 6.72874 15.3753 7.00864 15.7205 7.00864Z" fill="#E41D2C"/>
</svg>
