<svg width="18" height="18" viewBox="0 0 18 18" fill="none" xmlns="http://www.w3.org/2000/svg">
<path d="M0.0416667 0.722222V0.777778C0.0416667 0.833333 0.0416667 0.944444 0.0416667 1C-0.0138889 1.11111 -0.0138889 1.16667 0.0416667 1.22222C0.0416667 1.22222 0.0416667 1.22222 0.0416667 1.27778L5.31944 17.3333C5.43056 17.6667 5.70833 17.8889 6.04167 18C6.09722 18 6.20833 18 6.26389 18C6.54167 18 6.76389 17.8889 6.93056 17.7222L11.2083 13.4444L12.6528 14.0556C13.1528 14.2778 13.7083 14 13.9306 13.5C14.1528 13 13.875 12.4444 13.375 12.2222L11.3194 11.3889C10.9306 11.2222 10.5417 11.3333 10.2639 11.6111L6.65278 15.2222L2.76389 3.27778L13.4861 10.1111C13.5417 10.1667 13.5972 10.1667 13.7083 10.2222H13.7639C13.8194 10.2222 13.9306 10.2778 13.9861 10.2778C14.0417 10.2778 14.1528 10.2778 14.2083 10.2778H14.2639C14.3194 10.2778 14.375 10.2222 14.4306 10.2222C14.4306 10.2222 14.4861 10.2222 14.4861 10.1667C14.5417 10.1667 14.5972 10.1111 14.5972 10.0556C14.5972 10.0556 14.6528 10.0556 14.6528 10L17.6528 7C17.875 6.77778 17.9861 6.38889 17.9306 6.11111C17.875 5.77778 17.5972 5.5 17.2639 5.38889L1.26389 0.0555556C1.26389 0.0555556 1.26389 0.0555556 1.20833 0.0555556C1.15278 0 1.09722 0 1.04167 0H0.986111C0.875 0 0.819444 0 0.763889 0C0.652778 0.0555556 0.597222 0.0555556 0.541667 0.111111C0.541667 0.111111 0.486111 0.111111 0.486111 0.166667C0.375 0.166667 0.319444 0.222222 0.263889 0.277778C0.208333 0.333333 0.152778 0.388889 0.152778 0.444444C0.152778 0.444444 0.152778 0.444444 0.152778 0.5C0.152778 0.5 0.152778 0.555556 0.0972222 0.555556C0.0416667 0.611111 0.0416667 0.666667 0.0416667 0.722222ZM13.875 8L8.09722 4.33333L15.2083 6.66667L13.875 8Z" fill="#E41D2C"/>
</svg>
