<svg width="36" height="43" viewBox="0 0 36 43" fill="none" xmlns="http://www.w3.org/2000/svg">
<path d="M35.5 31V1H1V42.5H24" stroke="#E41D2C"/>
<path d="M24.5 31.5H34.7929L29.6464 36.6464L24.5 41.7929V31.5Z" stroke="#E41D2C"/>
<path d="M13.7568 9.70947C13.7568 10.4256 13.5223 10.995 13.0532 11.4175C12.5877 11.84 11.9539 12.0513 11.1519 12.0513H8.92822V15H7.90234V7.43213H11.0874C11.936 7.43213 12.5931 7.63086 13.0586 8.02832C13.5241 8.42578 13.7568 8.98617 13.7568 9.70947ZM12.7256 9.72021C12.7256 8.74268 12.1383 8.25391 10.9639 8.25391H8.92822V11.2402H11.0068C12.1527 11.2402 12.7256 10.7336 12.7256 9.72021Z" fill="#E41D2C"/>
<path d="M21.7544 11.1382C21.7544 11.9188 21.6022 12.6027 21.2979 13.1899C20.9935 13.7736 20.562 14.2212 20.0034 14.5327C19.4448 14.8442 18.8003 15 18.0698 15H15.2393V7.43213H17.7422C19.0241 7.43213 20.0124 7.75439 20.707 8.39893C21.4053 9.03988 21.7544 9.95296 21.7544 11.1382ZM20.7231 11.1382C20.7231 10.2 20.4653 9.48568 19.9497 8.99512C19.4377 8.50098 18.6947 8.25391 17.7207 8.25391H16.2651V14.1782H17.9517C18.5067 14.1782 18.9937 14.0565 19.4126 13.813C19.8351 13.5695 20.1592 13.2186 20.3848 12.7603C20.6104 12.3019 20.7231 11.7612 20.7231 11.1382Z" fill="#E41D2C"/>
<path d="M24.2144 8.27002V11.0845H28.436V11.9331H24.2144V15H23.1885V7.43213H28.5649V8.27002H24.2144Z" fill="#E41D2C"/>
</svg>
