<svg width="28" height="34" viewBox="0 0 28 34" fill="none" xmlns="http://www.w3.org/2000/svg">
<path d="M0.5 0.5H27.5V29.1009L23.0293 33.5H0.5V0.5Z" stroke="#E41D2C"/>
<path d="M10.7135 15.8893C10.7135 16.4618 10.523 16.9169 10.1419 17.2546C9.76377 17.5924 9.24889 17.7613 8.59729 17.7613H6.79086V20.1184H5.95746V14.0688H8.54493C9.23434 14.0688 9.76813 14.2277 10.1463 14.5454C10.5244 14.8631 10.7135 15.3111 10.7135 15.8893ZM9.87576 15.8979C9.87576 15.1165 9.3987 14.7258 8.44458 14.7258H6.79086V17.1129H8.47948C9.41033 17.1129 9.87576 16.7079 9.87576 15.8979Z" fill="#E41D2C"/>
<path d="M17.2106 17.0314C17.2106 17.6554 17.0869 18.2021 16.8397 18.6715C16.5924 19.138 16.2419 19.4958 15.7881 19.7449C15.3343 19.9939 14.8107 20.1184 14.2173 20.1184H11.9178V14.0688H13.9511C14.9925 14.0688 15.7954 14.3265 16.3597 14.8417C16.927 15.354 17.2106 16.0839 17.2106 17.0314ZM16.3728 17.0314C16.3728 16.2814 16.1634 15.7104 15.7445 15.3183C15.3285 14.9233 14.7249 14.7258 13.9337 14.7258H12.7512V19.4615H14.1213C14.5722 19.4615 14.9678 19.3642 15.3081 19.1695C15.6514 18.9749 15.9147 18.6944 16.0979 18.328C16.2812 17.9616 16.3728 17.5294 16.3728 17.0314Z" fill="#E41D2C"/>
<path d="M19.209 14.7386V16.9884H22.6386V17.6668H19.209V20.1184H18.3756V14.0688H22.7433V14.7386H19.209Z" fill="#E41D2C"/>
</svg>
