<svg width="64" height="57" viewBox="0 0 64 57" fill="none" xmlns="http://www.w3.org/2000/svg">
<path d="M16.5298 0V56.7947H49.7589L64 42.596V0H16.5298Z" fill="#EFEEEE"/>
<path d="M49.5894 42.3841V56.7947L64 42.3841H49.5894Z" fill="#ABABAB"/>
<path d="M6.30028 13.5629H45.351V30.9404H0L6.30028 13.5629Z" fill="#E41D2C"/>
<path d="M16.226 17.4321C16.7466 17.4321 17.1821 17.5197 17.5394 17.6948C17.8967 17.8699 18.1807 18.0995 18.3984 18.3834C18.6161 18.6674 18.7723 18.9916 18.867 19.356C18.9593 19.7181 19.009 20.092 19.009 20.4706C19.009 20.9913 18.9309 21.4456 18.7747 21.8337C18.6185 22.2218 18.4008 22.5389 18.1215 22.7827C17.8423 23.0288 17.5039 23.2157 17.1063 23.3364C16.7088 23.4571 16.2686 23.5234 15.7859 23.5234H14.6926V27.57H12.6479V17.4321H16.226ZM15.6013 22.023C16.0083 22.023 16.3396 21.8976 16.5881 21.6515C16.8389 21.4054 16.9643 21.022 16.9643 20.5014C16.9643 19.9903 16.8555 19.6022 16.6378 19.3371C16.4201 19.0744 16.0556 18.9396 15.5445 18.9396H14.6926V22.023H15.6013Z" fill="white"/>
<path d="M24.887 17.429C25.5993 17.429 26.1696 17.5473 26.6074 17.7792C27.0429 18.0111 27.3813 18.34 27.6226 18.7731C27.8664 19.2038 28.0273 19.7197 28.1125 20.3279C28.1977 20.9337 28.2403 21.6105 28.2403 22.3559C28.2403 23.2457 28.1882 24.0195 28.0794 24.6774C27.9705 25.3329 27.7835 25.8772 27.5185 26.3031C27.2535 26.7315 26.8985 27.0462 26.4536 27.2544C26.0087 27.4627 25.4455 27.5668 24.764 27.5668H21.5361V17.429H24.887ZM24.4895 26.0665C24.8492 26.0665 25.1379 26.005 25.3556 25.8819C25.5733 25.7588 25.746 25.5553 25.8738 25.2714C26.004 24.9874 26.0892 24.6135 26.1294 24.1473C26.172 23.6858 26.1933 23.1084 26.1933 22.4174C26.1933 21.84 26.172 21.3336 26.1365 20.8958C26.0986 20.4604 26.0205 20.0983 25.9022 19.8096C25.7815 19.5209 25.6088 19.3032 25.3745 19.1588C25.1426 19.0121 24.8326 18.9364 24.4445 18.9364H23.5807V26.0665H24.4895Z" fill="white"/>
<path d="M36.6721 17.4314V19.1068H33.0514V21.4922H36.4591V23.1677H33.0514V27.5692H31.0068V17.4314H36.6721Z" fill="white"/>
</svg>
