<svg width="16" height="17" viewBox="0 0 16 17" fill="none" xmlns="http://www.w3.org/2000/svg">
<path d="M12.6667 8.625H11.2596C12.1263 7.77734 12.6667 6.59701 12.6667 5.29167C12.6667 2.71826 10.5734 0.625 8 0.625C5.42659 0.625 3.33333 2.71826 3.33333 5.29167C3.33333 6.59701 3.8737 7.77734 4.7404 8.625H3.33333C1.49528 8.625 0 10.1203 0 11.9583V15.9583C0 16.3263 0.298665 16.625 0.666667 16.625C1.03467 16.625 1.33333 16.3263 1.33333 15.9583V11.9583C1.33333 10.8553 2.23031 9.95833 3.33333 9.95833H12.6667C13.7697 9.95833 14.6667 10.8553 14.6667 11.9583V15.9583C14.6667 16.3263 14.9653 16.625 15.3333 16.625C15.7013 16.625 16 16.3263 16 15.9583V11.9583C16 10.1203 14.5047 8.625 12.6667 8.625ZM4.66667 5.29167C4.66667 3.45361 6.16195 1.95833 8 1.95833C9.83805 1.95833 11.3333 3.45361 11.3333 5.29167C11.3333 7.12972 9.83805 8.625 8 8.625C6.16195 8.625 4.66667 7.12972 4.66667 5.29167Z" fill="#E41D2C"/>
</svg>
