<svg width="16" height="16" viewBox="0 0 16 16" fill="none" xmlns="http://www.w3.org/2000/svg">
<path d="M12.6667 8H11.2596C12.1263 7.15234 12.6667 5.97201 12.6667 4.66667C12.6667 2.09326 10.5734 0 8 0C5.42659 0 3.33333 2.09326 3.33333 4.66667C3.33333 5.97201 3.8737 7.15234 4.7404 8H3.33333C1.49528 8 0 9.49528 0 11.3333V15.3333C0 15.7013 0.298665 16 0.666667 16C1.03467 16 1.33333 15.7013 1.33333 15.3333V11.3333C1.33333 10.2303 2.23031 9.33333 3.33333 9.33333H12.6667C13.7697 9.33333 14.6667 10.2303 14.6667 11.3333V15.3333C14.6667 15.7013 14.9653 16 15.3333 16C15.7013 16 16 15.7013 16 15.3333V11.3333C16 9.49528 14.5047 8 12.6667 8ZM4.66667 4.66667C4.66667 2.82861 6.16195 1.33333 8 1.33333C9.83805 1.33333 11.3333 2.82861 11.3333 4.66667C11.3333 6.50472 9.83805 8 8 8C6.16195 8 4.66667 6.50472 4.66667 4.66667Z" fill="#262626"/>
</svg>
