<svg width="93" height="92" viewBox="0 0 93 92" fill="none" xmlns="http://www.w3.org/2000/svg">
<path d="M3.36297 35.6381C1.88032 37.2134 1 38.9277 1 40.8505C1 47.0128 9.66421 52.0167 20.3207 52.0167C26.1818 52.0167 31.4406 50.5109 34.985 48.1248" stroke="#262626" stroke-miterlimit="10" stroke-linecap="round" stroke-linejoin="round"/>
<path d="M39.6414 46.9201V48.1248C39.6414 54.287 30.9772 59.2909 20.3207 59.2909C9.66421 59.2909 1 54.287 1 48.1248V40.8505" stroke="#262626" stroke-miterlimit="10" stroke-linecap="round" stroke-linejoin="round"/>
<path d="M27.4328 48.843C25.2783 49.3758 22.8691 49.677 20.3439 49.677C11.1237 49.677 3.64099 45.7387 3.64099 40.8506C3.64099 39.5533 4.17382 38.3023 5.1468 37.1903" stroke="#262626" stroke-miterlimit="10" stroke-linecap="round" stroke-linejoin="round"/>
<path d="M39.6414 48.7039V55.9782C39.6414 62.1404 30.9772 67.1443 20.3207 67.1443C9.66421 67.1443 1 62.1404 1 55.9782V48.7039" stroke="#262626" stroke-miterlimit="10" stroke-linecap="round" stroke-linejoin="round"/>
<path d="M39.6414 56.5573V63.8315C39.6414 69.9938 30.9772 74.9977 20.3207 74.9977C9.66421 74.9977 1 69.9938 1 63.8315V56.5573" stroke="#262626" stroke-miterlimit="10" stroke-linecap="round" stroke-linejoin="round"/>
<path d="M39.6414 64.4338V71.7081C39.6414 77.8703 30.9772 82.8742 20.3207 82.8742C9.66421 82.8742 1 77.8703 1 71.7081V64.4338" stroke="#262626" stroke-miterlimit="10" stroke-linecap="round" stroke-linejoin="round"/>
<path d="M39.6414 72.2872V79.5615C39.6414 85.7237 30.9772 90.7276 20.3207 90.7276C9.66421 90.7276 1 85.7237 1 79.5615V72.2872" stroke="#262626" stroke-miterlimit="10" stroke-linecap="round" stroke-linejoin="round"/>
<path d="M24.1663 41.3139C25.6953 41.5456 26.5525 41.5687 28.1973 41.5687C38.8769 41.5687 47.518 36.5648 47.518 30.4026C47.518 26.7654 44.5064 23.5222 39.8499 21.4835" stroke="#262626" stroke-miterlimit="10" stroke-linecap="round" stroke-linejoin="round"/>
<path d="M34.985 48.1248C32.8768 48.5881 30.5834 48.8429 28.1972 48.8429C18.5369 48.8429 10.5213 44.7425 9.08502 39.3679" stroke="#262626" stroke-miterlimit="10" stroke-linecap="round" stroke-linejoin="round"/>
<path d="M47.5181 30.4026V37.6768C47.5181 42.4723 42.3057 46.5495 34.9851 48.148" stroke="#262626" stroke-miterlimit="10" stroke-linecap="round" stroke-linejoin="round"/>
<path d="M39.8963 24.1013C42.9775 25.6997 44.8771 27.9237 44.8771 30.3793C44.8771 34.5493 39.8268 38.0474 32.4368 38.974" stroke="#262626" stroke-miterlimit="10" stroke-linecap="round" stroke-linejoin="round"/>
<path d="M32.7937 38.9741C29.481 40.5262 25.2647 41.4529 20.6546 41.4529C9.9749 41.4529 1.33385 36.4489 1.33385 30.2867V23.0125" stroke="#262626" stroke-miterlimit="10" stroke-linecap="round" stroke-linejoin="round"/>
<path d="M39.9753 23.0125V30.2867C39.9753 33.808 37.1722 36.9354 32.7706 38.9741" stroke="#262626" stroke-miterlimit="10" stroke-linecap="round" stroke-linejoin="round"/>
<path d="M20.6546 26.3483C31.3251 26.3483 39.9753 21.3491 39.9753 15.1822C39.9753 9.01526 31.3251 4.01599 20.6546 4.01599C9.98405 4.01599 1.33386 9.01526 1.33386 15.1822C1.33386 21.3491 9.98405 26.3483 20.6546 26.3483Z" stroke="#262626" stroke-miterlimit="10" stroke-linecap="round" stroke-linejoin="round"/>
<path d="M39.9753 15.1822V22.4564C39.9753 28.6187 31.3111 33.6226 20.6546 33.6226C9.99807 33.6226 1.33386 28.6187 1.33386 22.4564V15.1822" stroke="#262626" stroke-miterlimit="10" stroke-linecap="round" stroke-linejoin="round"/>
<path d="M20.6546 24.0085C29.8794 24.0085 37.3575 20.0568 37.3575 15.1821C37.3575 10.3075 29.8794 6.35577 20.6546 6.35577C11.4298 6.35577 3.95166 10.3075 3.95166 15.1821C3.95166 20.0568 11.4298 24.0085 20.6546 24.0085Z" stroke="#262626" stroke-miterlimit="10" stroke-linecap="round" stroke-linejoin="round"/>
<path d="M90.0284 5.52962L81.8007 0.859829C71.1269 -1.58625 25.7632 25.7654 25.7632 35.1049L33.991 39.7747C37.0508 31.2073 52.4606 21.7043 60.4805 16.7585C61.2033 16.3127 61.8661 15.904 62.4544 15.5363C69.3479 11.756 83.5797 3.97302 90.0284 5.52962Z" fill="white"/>
<path d="M90.0284 5.52962L81.8007 0.859829C71.1269 -1.58625 25.7632 25.7654 25.7632 35.1049L33.991 39.7747C37.0508 31.2073 52.4606 21.7043 60.4805 16.7585C61.2033 16.3127 61.8661 15.904 62.4544 15.5363C69.3479 11.756 83.5797 3.97302 90.0284 5.52962Z" stroke="#E41D2C"/>
<path d="M26.4303 34.6602L33.5462 38.6629C37.7712 29.3233 55.3385 18.8719 62.232 14.8692C70.6821 10.1994 80.4664 5.08486 87.1375 4.41775L81.5783 1.30455C74.4624 -0.252042 50.4464 12.4231 36.437 23.5416C30.433 28.2114 26.875 32.2141 26.4303 34.6602ZM33.9909 40.4418H33.7685L25.3184 35.5497C25.3184 35.5497 25.0961 35.3273 25.0961 35.1049C25.0961 31.547 30.6553 26.4325 35.5475 22.6522C48.6674 12.2007 73.7953 -1.80864 82.023 0.1927H82.2454L90.4731 4.86249C90.6955 5.08486 90.9179 5.30723 90.6955 5.75197C90.4731 5.97434 90.2507 6.19671 89.806 6.19671C83.4813 4.67006 69.0285 12.7688 63.2302 16.0179C63.1165 16.0816 63.0061 16.1435 62.8991 16.2034C56.0056 20.2061 37.9936 30.8799 34.658 39.9971C34.658 40.2195 34.4356 40.4418 34.2133 40.4418H33.9909Z" fill="#E41D2C"/>
<path d="M26.4303 34.6602L33.5462 38.6629C37.7712 29.3233 55.3385 18.8719 62.232 14.8692C70.6821 10.1994 80.4664 5.08486 87.1375 4.41775L81.5783 1.30455C74.4624 -0.252042 50.4464 12.4231 36.437 23.5416C30.433 28.2114 26.875 32.2141 26.4303 34.6602ZM33.9909 40.4418H33.7685L25.3184 35.5497C25.3184 35.5497 25.0961 35.3273 25.0961 35.1049C25.0961 31.547 30.6553 26.4325 35.5475 22.6522C48.6674 12.2007 73.7953 -1.80864 82.023 0.1927H82.2454L90.4731 4.86249C90.6955 5.08486 90.9179 5.30723 90.6955 5.75197C90.4731 5.97434 90.2507 6.19671 89.806 6.19671C83.4813 4.67006 69.0285 12.7688 63.2302 16.0179C63.1165 16.0816 63.0061 16.1435 62.8991 16.2034C56.0056 20.2061 37.9936 30.8799 34.658 39.9971C34.658 40.2195 34.4356 40.4418 34.2133 40.4418H33.9909Z" stroke="#E41D2C"/>
<path d="M33.7686 40.8866C33.9304 46.0322 33.9509 50.8858 33.97 55.3925C34.0818 81.853 34.1431 96.3572 62.4544 87.8068C90.9819 63.4634 91.0448 49.0418 91.1609 22.4236C91.1805 17.9186 91.2017 13.0643 91.3626 7.75333C91.585 -4.03232 33.5462 29.5457 33.7686 40.8866Z" fill="white"/>
<path d="M33.7686 40.8866C33.9304 46.0322 33.9509 50.8858 33.97 55.3925C34.0818 81.853 34.1431 96.3572 62.4544 87.8068C90.9819 63.4634 91.0448 49.0418 91.1609 22.4236C91.1805 17.9186 91.2017 13.0643 91.3626 7.75333C91.585 -4.03232 33.5462 29.5457 33.7686 40.8866Z" stroke="#E41D2C"/>
<path d="M34.4357 40.8865C34.658 46.0011 34.658 50.8932 34.658 55.563C34.658 71.3513 34.658 82.9146 40.8844 87.5844C44.8871 90.6976 51.7806 90.4752 62.232 87.362C90.1282 63.451 90.2502 49.0185 90.4702 22.9958L90.4731 22.6521C90.4731 17.9823 90.4731 13.0902 90.6955 7.75328C90.6955 7.0014 90.3777 6.72619 90.1451 6.52473C90.1025 6.48786 90.0628 6.45346 90.0284 6.41906C87.1376 4.64009 74.9072 9.30988 61.3425 17.3152C45.5542 26.4324 34.4357 36.4391 34.4357 40.8865ZM48.8898 90.92C45.1095 90.92 42.2186 90.0305 39.9949 88.4739C33.3238 83.5817 33.3238 71.7961 33.3238 55.563C33.3238 50.8932 33.3238 46.2234 33.1014 40.8865C32.8791 34.8825 46.8884 24.2087 60.6754 15.981C71.794 9.30988 86.4704 2.63875 90.6955 5.08483C91.3626 5.52957 92.0297 6.19668 92.0297 7.75328C91.8073 13.0902 91.8073 17.9823 91.8073 22.6521C91.8073 49.3366 91.585 64.0131 62.8991 88.4739C62.8991 88.4739 62.6768 88.4739 62.6768 88.6963C57.1175 90.2529 52.6701 90.92 48.8898 90.92Z" fill="#E41D2C"/>
<path d="M34.4357 40.8865C34.658 46.0011 34.658 50.8932 34.658 55.563C34.658 71.3513 34.658 82.9146 40.8844 87.5844C44.8871 90.6976 51.7806 90.4752 62.232 87.362C90.1282 63.451 90.2502 49.0185 90.4702 22.9958L90.4731 22.6521C90.4731 17.9823 90.4731 13.0902 90.6955 7.75328C90.6955 7.0014 90.3777 6.72619 90.1451 6.52473C90.1025 6.48786 90.0628 6.45346 90.0284 6.41906C87.1376 4.64009 74.9072 9.30988 61.3425 17.3152C45.5542 26.4324 34.4357 36.4391 34.4357 40.8865ZM48.8898 90.92C45.1095 90.92 42.2186 90.0305 39.9949 88.4739C33.3238 83.5817 33.3238 71.7961 33.3238 55.563C33.3238 50.8932 33.3238 46.2234 33.1014 40.8865C32.8791 34.8825 46.8884 24.2087 60.6754 15.981C71.794 9.30988 86.4704 2.63875 90.6955 5.08483C91.3626 5.52957 92.0297 6.19668 92.0297 7.75328C91.8073 13.0902 91.8073 17.9823 91.8073 22.6521C91.8073 49.3366 91.585 64.0131 62.8991 88.4739C62.8991 88.4739 62.6768 88.4739 62.6768 88.6963C57.1175 90.2529 52.6701 90.92 48.8898 90.92Z" stroke="#E41D2C"/>
<path d="M62.4544 50.8932V87.8068C86.2481 67.3487 90.2508 54.0064 90.9179 34.4378L62.4544 50.8932Z" fill="white"/>
<path d="M62.4544 50.8932V87.8068C86.2481 67.3487 90.2508 54.0064 90.9179 34.4378L62.4544 50.8932Z" stroke="#E41D2C"/>
<path d="M63.1215 51.338V86.4726C84.6914 67.7935 89.3612 54.896 90.0283 35.7721L63.1215 51.338ZM62.4543 88.474C62.3598 88.474 62.3055 88.474 62.2572 88.4569C62.1918 88.4338 62.1375 88.3795 62.0096 88.2516C61.7872 88.0292 61.7872 87.8068 61.7872 87.5845V50.8933C61.7872 50.6709 62.0096 50.4485 62.232 50.2262L90.6954 33.7707C90.9178 33.5484 91.1402 33.5484 91.3626 33.7707C91.5849 33.9931 91.8073 34.2155 91.5849 34.4378C90.9178 54.896 86.4704 68.2382 62.8991 88.2516C62.8991 88.2516 62.6767 88.2516 62.6767 88.474H62.4543Z" fill="#E41D2C"/>
<path d="M63.1215 51.338V86.4726C84.6914 67.7935 89.3612 54.896 90.0283 35.7721L63.1215 51.338ZM62.4543 88.474C62.3598 88.474 62.3055 88.474 62.2572 88.4569C62.1918 88.4338 62.1375 88.3795 62.0096 88.2516C61.7872 88.0292 61.7872 87.8068 61.7872 87.5845V50.8933C61.7872 50.6709 62.0096 50.4485 62.232 50.2262L90.6954 33.7707C90.9178 33.5484 91.1402 33.5484 91.3626 33.7707C91.5849 33.9931 91.8073 34.2155 91.5849 34.4378C90.9178 54.896 86.4704 68.2382 62.8991 88.2516C62.8991 88.2516 62.6767 88.2516 62.6767 88.474H62.4543Z" stroke="#E41D2C"/>
<path d="M33.7686 40.8866C33.8564 44.8364 33.8748 48.613 33.8924 52.2027C33.9193 57.7073 33.9441 62.7724 34.2133 67.3487L62.6768 50.8933V15.7587C48.0003 23.9864 33.5462 35.1049 33.7686 40.8866Z" fill="white"/>
<path d="M33.7686 40.8866C33.8564 44.8364 33.8748 48.613 33.8924 52.2027C33.9193 57.7073 33.9441 62.7724 34.2133 67.3487L62.6768 50.8933V15.7587C48.0003 23.9864 33.5462 35.1049 33.7686 40.8866Z" stroke="#E41D2C"/>
<path d="M34.4357 40.8865C34.6581 46.001 34.6581 50.8932 34.6581 55.563C34.6581 59.3433 34.6581 62.9012 34.8805 66.2368L62.0097 50.6708V17.0928C45.7767 26.21 34.4357 36.2167 34.4357 40.8865ZM34.2134 67.7934H33.7686C33.6574 67.6822 33.6018 67.571 33.5463 67.4598C33.4907 67.3486 33.4351 67.2375 33.3239 67.1263C33.1015 63.5683 33.1015 59.5657 33.1015 55.3406C33.1015 50.6708 33.1015 46.001 32.8791 40.6641C32.6568 34.4377 47.3333 23.3192 62.0097 14.8691C62.2321 14.6467 62.4545 14.6467 62.6768 14.8691C62.8992 15.0915 63.1216 15.3139 63.1216 15.5362V50.6708C63.1216 50.782 63.066 50.8932 63.0104 51.0044C62.9548 51.1156 62.8992 51.2268 62.8992 51.3379L34.4357 67.7934H34.2134Z" fill="#E41D2C"/>
<path d="M34.4357 40.8865C34.6581 46.001 34.6581 50.8932 34.6581 55.563C34.6581 59.3433 34.6581 62.9012 34.8805 66.2368L62.0097 50.6708V17.0928C45.7767 26.21 34.4357 36.2167 34.4357 40.8865ZM34.2134 67.7934H33.7686C33.6574 67.6822 33.6018 67.571 33.5463 67.4598C33.4907 67.3486 33.4351 67.2375 33.3239 67.1263C33.1015 63.5683 33.1015 59.5657 33.1015 55.3406C33.1015 50.6708 33.1015 46.001 32.8791 40.6641C32.6568 34.4377 47.3333 23.3192 62.0097 14.8691C62.2321 14.6467 62.4545 14.6467 62.6768 14.8691C62.8992 15.0915 63.1216 15.3139 63.1216 15.5362V50.6708C63.1216 50.782 63.066 50.8932 63.0104 51.0044C62.9548 51.1156 62.8992 51.2268 62.8992 51.3379L34.4357 67.7934H34.2134Z" stroke="#E41D2C"/>
<path d="M25.7632 34.8826C25.8881 34.508 25.9429 34.2035 26.0063 33.851C26.0557 33.5757 26.1105 33.2712 26.208 32.8813C28.8764 27.322 41.5516 17.9824 54.2267 10.6442L59.1189 13.535L62.4544 15.5363C61.8661 15.904 61.2033 16.3127 60.4805 16.7585C52.4606 21.7043 37.0508 31.2073 33.991 39.7747L25.7632 34.8826Z" fill="white"/>
<path d="M25.7632 34.8826C25.8881 34.508 25.9429 34.2035 26.0063 33.851C26.0557 33.5757 26.1105 33.2712 26.208 32.8813C28.8764 27.322 41.5516 17.9824 54.2267 10.6442L59.1189 13.535L62.4544 15.5363C61.8661 15.904 61.2033 16.3127 60.4805 16.7585C52.4606 21.7043 37.0508 31.2073 33.991 39.7747L25.7632 34.8826Z" stroke="#E41D2C"/>
<path d="M26.6527 34.6602L33.7685 38.6629C37.5188 29.8388 53.5244 20.1394 60.9433 15.6435L61.1201 15.5363L54.2267 11.5337C40.4397 19.539 29.3211 28.4338 26.875 33.326C26.875 33.5484 26.8194 33.7707 26.7639 33.9931C26.7083 34.2155 26.6527 34.4379 26.6527 34.6602ZM33.9909 40.4419H33.7685L25.3184 35.5497C25.3184 35.5497 25.0961 35.3273 25.0961 34.8826V34.6602C25.2073 34.3267 25.2628 33.9931 25.3184 33.6596C25.374 33.326 25.4296 32.9924 25.5408 32.6589C28.654 26.6549 41.9963 17.0929 54.0043 10.1994C54.2266 9.97706 54.449 9.97706 54.6714 10.1994L62.8991 15.0916C63.1215 15.314 63.3439 15.5363 63.3439 15.7587C63.3439 15.8699 63.2883 15.9811 63.2327 16.0923C63.1771 16.2034 63.1215 16.3146 63.1215 16.4258C56.0056 20.2061 37.9936 30.8799 34.658 39.9971C34.658 40.2195 34.4356 40.4419 34.2133 40.4419H33.9909Z" fill="#E41D2C"/>
<path d="M26.6527 34.6602L33.7685 38.6629C37.5188 29.8388 53.5244 20.1394 60.9433 15.6435L61.1201 15.5363L54.2267 11.5337C40.4397 19.539 29.3211 28.4338 26.875 33.326C26.875 33.5484 26.8194 33.7707 26.7639 33.9931C26.7083 34.2155 26.6527 34.4379 26.6527 34.6602ZM33.9909 40.4419H33.7685L25.3184 35.5497C25.3184 35.5497 25.0961 35.3273 25.0961 34.8826V34.6602C25.2073 34.3267 25.2628 33.9931 25.3184 33.6596C25.374 33.326 25.4296 32.9924 25.5408 32.6589C28.654 26.6549 41.9963 17.0929 54.0043 10.1994C54.2266 9.97706 54.449 9.97706 54.6714 10.1994L62.8991 15.0916C63.1215 15.314 63.3439 15.5363 63.3439 15.7587C63.3439 15.8699 63.2883 15.9811 63.2327 16.0923C63.1771 16.2034 63.1215 16.3146 63.1215 16.4258C56.0056 20.2061 37.9936 30.8799 34.658 39.9971C34.658 40.2195 34.4356 40.4419 34.2133 40.4419H33.9909Z" stroke="#E41D2C"/>
<path d="M25.7632 35.105L26.4304 69.3501C26.6199 80.7223 30.0405 82.563 37.2429 86.4388C38.4905 87.1102 39.8517 87.8427 41.3292 88.6964C35.7699 84.9161 34.8804 78.4673 34.4357 72.0185L33.991 39.7748L25.7632 35.105Z" fill="white"/>
<path d="M25.7632 35.105L26.4304 69.3501C26.6199 80.7223 30.0405 82.563 37.2429 86.4388C38.4905 87.1102 39.8517 87.8427 41.3292 88.6964C35.7699 84.9161 34.8804 78.4673 34.4357 72.0185L33.991 39.7748L25.7632 35.105Z" stroke="#E41D2C"/>
<path d="M26.4303 36.2169L27.0974 69.1278C27.3198 80.024 30.433 81.803 37.3265 85.5833C34.658 81.803 33.9909 76.9108 33.5462 71.7963L33.3238 40.2196L26.4303 36.2169ZM41.3291 89.1412H41.1068C40.7819 88.9555 40.4764 88.7796 40.1842 88.6113C39.0764 87.9732 38.1598 87.4454 37.1041 86.9175L36.9908 86.8557C29.7269 82.8939 25.9844 80.8527 25.7632 69.1278L25.0961 35.1051C25.0961 34.9939 25.1517 34.8827 25.2073 34.7715C25.2628 34.6603 25.3184 34.5491 25.3184 34.438C25.5408 34.2156 25.7632 34.2156 25.9856 34.438L34.2133 39.1077C34.3245 39.2189 34.3801 39.3301 34.4356 39.4413C34.4912 39.5525 34.5468 39.6637 34.658 39.7749L35.1028 71.7963C35.5475 78.245 36.437 84.249 41.7739 88.0293C41.9963 88.2517 42.2186 88.6964 41.9963 88.9188C41.7739 89.1412 41.5515 89.1412 41.3291 89.1412Z" fill="#E41D2C"/>
<path d="M26.4303 36.2169L27.0974 69.1278C27.3198 80.024 30.433 81.803 37.3265 85.5833C34.658 81.803 33.9909 76.9108 33.5462 71.7963L33.3238 40.2196L26.4303 36.2169ZM41.3291 89.1412H41.1068C40.7819 88.9555 40.4764 88.7796 40.1842 88.6113C39.0764 87.9732 38.1598 87.4454 37.1041 86.9175L36.9908 86.8557C29.7269 82.8939 25.9844 80.8527 25.7632 69.1278L25.0961 35.1051C25.0961 34.9939 25.1517 34.8827 25.2073 34.7715C25.2628 34.6603 25.3184 34.5491 25.3184 34.438C25.5408 34.2156 25.7632 34.2156 25.9856 34.438L34.2133 39.1077C34.3245 39.2189 34.3801 39.3301 34.4356 39.4413C34.4912 39.5525 34.5468 39.6637 34.658 39.7749L35.1028 71.7963C35.5475 78.245 36.437 84.249 41.7739 88.0293C41.9963 88.2517 42.2186 88.6964 41.9963 88.9188C41.7739 89.1412 41.5515 89.1412 41.3291 89.1412Z" stroke="#E41D2C"/>
<path d="M26.208 62.679L33.991 67.3488V67.1264C33.991 66.4593 33.991 66.0145 34.2133 65.3474L33.991 39.7748L25.7632 35.105L26.208 62.679Z" fill="white"/>
<path d="M26.208 62.679L33.991 67.3488V67.1264C33.991 66.4593 33.991 66.0145 34.2133 65.3474L33.991 39.7748L25.7632 35.105L26.208 62.679Z" stroke="#E41D2C"/>
<path d="M26.875 62.2343L33.3238 66.0146C33.3238 65.7923 33.3238 65.3475 33.5462 65.1251L33.3238 40.2196L26.6527 36.2169L26.875 62.2343ZM34.2133 67.7936H33.9909L26.2079 63.1238C25.9856 62.9014 25.9856 62.6791 25.9856 62.4567L25.0961 35.1051C25.0961 34.9939 25.1517 34.8827 25.2073 34.7715C25.2628 34.6603 25.3184 34.5491 25.3184 34.438C25.5408 34.2156 25.7632 34.2156 25.9856 34.438L34.2133 39.1077C34.3245 39.2189 34.3801 39.3301 34.4356 39.4413C34.4912 39.5525 34.5468 39.6637 34.658 39.7749L35.1028 65.3475C34.8804 66.0146 34.8804 66.6817 34.8804 67.1265V67.3488C34.8804 67.5712 34.658 67.7936 34.4356 68.016C34.4356 67.7936 34.2133 67.7936 34.2133 67.7936Z" fill="#E41D2C"/>
<path d="M26.875 62.2343L33.3238 66.0146C33.3238 65.7923 33.3238 65.3475 33.5462 65.1251L33.3238 40.2196L26.6527 36.2169L26.875 62.2343ZM34.2133 67.7936H33.9909L26.2079 63.1238C25.9856 62.9014 25.9856 62.6791 25.9856 62.4567L25.0961 35.1051C25.0961 34.9939 25.1517 34.8827 25.2073 34.7715C25.2628 34.6603 25.3184 34.5491 25.3184 34.438C25.5408 34.2156 25.7632 34.2156 25.9856 34.438L34.2133 39.1077C34.3245 39.2189 34.3801 39.3301 34.4356 39.4413C34.4912 39.5525 34.5468 39.6637 34.658 39.7749L35.1028 65.3475C34.8804 66.0146 34.8804 66.6817 34.8804 67.1265V67.3488C34.8804 67.5712 34.658 67.7936 34.4356 68.016C34.4356 67.7936 34.2133 67.7936 34.2133 67.7936Z" stroke="#E41D2C"/>
</svg>
