<svg width="103" height="88" viewBox="0 0 103 88" fill="none" xmlns="http://www.w3.org/2000/svg">
<path fill-rule="evenodd" clip-rule="evenodd" d="M97.579 1.4157C97.1123 1.08985 96.5731 0.885934 96.0094 0.822183C95.4458 0.758431 94.8753 0.836826 94.3489 1.05036L63.9232 18.8148C65.8658 17.8329 68.1697 19.7053 69.3443 21.0981C70.21 22.0948 70.8585 23.2646 71.2477 24.5313C71.6368 25.798 71.7579 27.1333 71.6031 28.4505C71.5404 28.8227 71.404 29.1784 71.2022 29.4962C71.0004 29.814 70.7372 30.0873 70.4285 30.3L100.945 12.5812C101.478 12.1123 101.873 11.5046 102.088 10.8242C102.303 10.1438 102.33 9.41685 102.164 8.72239C101.954 7.24601 101.437 5.83141 100.647 4.57192C99.8564 3.31243 98.8108 2.2367 97.579 1.4157Z" fill="white"/>
<path fill-rule="evenodd" clip-rule="evenodd" d="M66.7015 18.1069C67.9829 18.6463 69.1204 19.4833 70.0219 20.5501C71.8307 22.6534 72.7405 25.396 72.5518 28.1765L100.561 11.8962C101.396 11.3711 101.532 9.90973 101.396 8.81372C101.203 7.45053 100.722 6.14537 99.9853 4.98699C99.2487 3.82861 98.2739 2.8442 97.1272 2.1007C96.7813 1.86109 96.3862 1.70375 95.9715 1.64048C95.5568 1.57721 95.1334 1.60965 94.7329 1.73536L66.7015 18.1069ZM70.4963 31.122C70.3657 31.1205 70.2376 31.0863 70.1233 31.0226C70.009 30.9588 69.9121 30.8675 69.8412 30.7566C69.7261 30.5895 69.6805 30.3834 69.7143 30.1827C69.7481 29.9819 69.8586 29.8027 70.0219 29.6835C70.4512 29.3501 70.7478 28.8721 70.8577 28.3363C70.9529 27.1243 70.8016 25.9055 70.4131 24.7549C70.0247 23.6043 69.4072 22.5463 68.5989 21.6461C67.6502 20.5044 65.6625 18.7234 64.0814 19.5226C63.9242 19.5656 63.7574 19.5555 63.6064 19.4936C63.4555 19.4318 63.3288 19.3216 63.2456 19.1801C63.1517 19.0027 63.1274 18.796 63.1777 18.6013C63.2279 18.4066 63.349 18.2382 63.5167 18.1298L93.9649 0.365358C94.6051 0.0809942 95.3067 -0.0326384 96.0027 0.0353211C96.6987 0.103281 97.3659 0.350561 97.9404 0.753526C99.2813 1.627 100.42 2.78318 101.277 4.14285C102.135 5.50253 102.692 7.03356 102.91 8.63106C103.077 9.46771 103.017 10.3348 102.734 11.1392C102.452 11.9437 101.958 12.6553 101.306 13.1977L70.9029 31.0078C70.7822 31.0872 70.6402 31.1271 70.4963 31.122Z" fill="#262626"/>
<path fill-rule="evenodd" clip-rule="evenodd" d="M70.4059 22.6964C69.633 21.258 68.5046 20.0466 67.1307 19.1801C66.6578 18.8374 66.1036 18.6274 65.5244 18.5713C64.9452 18.5151 64.3616 18.6149 63.8329 18.8604C63.3634 19.202 62.991 19.6624 62.7531 20.1954C62.5152 20.7285 62.4202 21.3154 62.4777 21.8973C62.5429 23.5104 63.009 25.0809 63.8329 26.4639C64.6205 27.9051 65.7547 29.1223 67.1307 30.0031C67.6021 30.3395 68.1521 30.5459 68.7264 30.6019C69.3007 30.658 69.8796 30.5618 70.4059 30.3228C70.8655 29.9972 71.234 29.5569 71.4754 29.0448C71.7168 28.5326 71.8231 27.9661 71.7838 27.4001C71.7378 25.7376 71.2628 24.1162 70.4059 22.6964Z" fill="white"/>
<path fill-rule="evenodd" clip-rule="evenodd" d="M65.0526 19.3171C64.7597 19.3227 64.4727 19.4012 64.2169 19.5455C63.8763 19.8112 63.6083 20.1603 63.4384 20.5598C63.2684 20.9594 63.2021 21.3961 63.2456 21.8288C63.2992 23.3308 63.7348 24.7935 64.5105 26.0758C65.2183 27.4006 66.2532 28.5176 67.5147 29.3182C67.867 29.5903 68.2824 29.7668 68.7213 29.8307C69.1601 29.8947 69.6079 29.844 70.0219 29.6835C70.3578 29.4136 70.6222 29.0638 70.7917 28.6653C70.9612 28.2669 71.0304 27.8322 70.9932 27.4002C70.93 25.9029 70.5034 24.4443 69.7509 23.1531C69.0347 21.8222 68.0024 20.6923 66.7467 19.8651C66.2394 19.5352 65.6551 19.3462 65.0526 19.3171ZM69.2088 31.4873C68.3363 31.4622 67.4864 31.2021 66.7467 30.7338C65.2796 29.7922 64.0745 28.4876 63.2456 26.9435C62.33 25.4179 61.8168 23.6805 61.7548 21.8973C61.7021 21.1957 61.8306 20.4923 62.1275 19.8559C62.4245 19.2195 62.8798 18.6719 63.4489 18.2668C64.0946 17.9496 64.8128 17.814 65.5283 17.8743C66.2437 17.9346 66.9298 18.1885 67.5147 18.6093C69.0119 19.5353 70.2425 20.8423 71.0835 22.3996C71.9903 23.9194 72.4958 25.6491 72.5517 27.423C72.62 28.1474 72.4946 28.877 72.1887 29.5358C71.8827 30.1945 71.4075 30.758 70.8125 31.1677C70.3135 31.4105 69.7615 31.5205 69.2088 31.4873Z" fill="#262626"/>
<path fill-rule="evenodd" clip-rule="evenodd" d="M68.3956 23.8838C67.9724 23.1011 67.3581 22.4408 66.6112 21.9658C66.3491 21.7851 66.0464 21.6736 65.7307 21.6417C65.415 21.6098 65.0965 21.6584 64.8042 21.7831C64.5591 21.9798 64.3667 22.2354 64.2444 22.5265C64.1221 22.8177 64.0738 23.1351 64.1039 23.45C64.1331 24.339 64.3768 25.2073 64.8138 25.9793C65.2507 26.7514 65.8678 27.4038 66.6112 27.8796C66.8672 28.0645 67.1664 28.1785 67.4794 28.2106C67.7924 28.2426 68.1082 28.1915 68.3956 28.0623C68.6574 27.8786 68.8649 27.6265 68.9962 27.333C69.1274 27.0395 69.1775 26.7155 69.141 26.3955C69.1148 25.5067 68.8577 24.6404 68.3956 23.8838Z" fill="white"/>
<path fill-rule="evenodd" clip-rule="evenodd" d="M65.5044 22.4224H65.2107C64.9849 22.5594 64.8719 22.9247 64.8719 23.4042C64.9012 24.1548 65.1189 24.8856 65.5044 25.5278C65.8623 26.1835 66.3742 26.7403 66.9952 27.1489C67.4243 27.4001 67.7857 27.4686 68.0116 27.3316C68.2375 27.1946 68.3504 26.8293 68.3504 26.3498C68.2921 25.5899 68.0572 24.8547 67.6647 24.204C67.2721 23.5533 66.7332 23.0054 66.0917 22.6051C65.8826 22.4672 65.6408 22.3884 65.3914 22.3767L65.5044 22.4224ZM67.7631 28.9984C67.2233 28.9859 66.6952 28.8367 66.2272 28.5646C65.3742 27.9772 64.67 27.195 64.1717 26.2813C63.6359 25.4295 63.3177 24.4566 63.2456 23.4499C63.2123 23.0017 63.2998 22.5527 63.4986 22.1507C63.6975 21.7487 64.0003 21.4086 64.375 21.1666C64.7775 20.9625 65.2269 20.8718 65.676 20.904C66.1251 20.9361 66.5574 21.0899 66.9274 21.3492C67.8095 21.909 68.5271 22.6974 69.0055 23.6326C69.5661 24.4539 69.9154 25.4034 70.0219 26.3954C70.0438 26.8396 69.9537 27.2822 69.7602 27.6816C69.5666 28.0809 69.2758 28.4241 68.9151 28.6788C68.5665 28.8879 68.1686 28.9983 67.7631 28.9984Z" fill="#262626"/>
<path fill-rule="evenodd" clip-rule="evenodd" d="M66.5886 21.9886C66.3345 21.8101 66.0407 21.6978 65.7332 21.662C65.4258 21.6261 65.1144 21.6677 64.8268 21.7831L32.9103 40.4152C33.9945 39.89 35.1691 40.8947 35.8693 41.6939C36.3399 42.2321 36.6952 42.8629 36.9129 43.5466C37.1305 44.2304 37.2059 44.9523 37.1342 45.6669C37.0615 46.0725 36.8345 46.4332 36.5018 46.6716L68.4182 28.0395C68.7049 27.7818 68.9173 27.4505 69.0326 27.0806C69.1479 26.7107 69.162 26.3161 69.0732 25.9388C68.9649 25.1527 68.6936 24.3986 68.2771 23.7258C67.8606 23.053 67.3083 22.4766 66.6564 22.0343L66.5886 21.9886Z" fill="white"/>
<path fill-rule="evenodd" clip-rule="evenodd" d="M35.1691 40.027C35.659 40.3405 36.0941 40.734 36.4566 41.1915C37.3387 42.2385 37.8687 43.5419 37.9699 44.9133L68.0342 27.4001C68.1697 27.2114 68.2639 26.9958 68.3107 26.7674C68.3574 26.5391 68.3556 26.3033 68.3053 26.0758C68.2138 25.4021 67.9836 24.7554 67.6295 24.1772C67.2755 23.5991 66.8055 23.1024 66.2498 22.7193L66.5886 22.0114L66.2046 22.6964C66.0613 22.5959 65.8994 22.5259 65.7285 22.4906C65.5577 22.4552 65.3815 22.4554 65.2107 22.4909L35.1691 40.0498V40.027ZM36.5017 47.4707C36.3336 47.4678 36.1708 47.4109 36.0369 47.3081C35.903 47.2053 35.805 47.062 35.7572 46.8991C35.7093 46.7361 35.7141 46.562 35.7708 46.402C35.8275 46.242 35.9332 46.1045 36.0726 46.0094C36.153 45.9505 36.2206 45.8755 36.2712 45.7891C36.3217 45.7027 36.354 45.6066 36.3662 45.507C36.4179 44.9096 36.3483 44.3079 36.1619 43.7386C35.9755 43.1693 35.6761 42.6444 35.282 42.1962C34.6947 41.4655 33.8138 40.8718 33.2491 41.123C33.0689 41.211 32.8619 41.2245 32.6721 41.1605C32.4822 41.0966 32.3246 40.9602 32.2327 40.7805C32.1857 40.6923 32.1566 40.5954 32.1471 40.4957C32.1376 40.396 32.1479 40.2953 32.1773 40.1996C32.2068 40.1039 32.2548 40.0152 32.3186 39.9385C32.3824 39.8618 32.4607 39.7987 32.5489 39.753L64.4653 21.0981C64.8607 20.908 65.2987 20.827 65.735 20.863C66.1713 20.8991 66.5905 21.0511 66.95 21.3036C67.7136 21.8171 68.359 22.4907 68.8422 23.2787C69.3255 24.0667 69.6354 24.9505 69.7509 25.8703C69.8801 26.3977 69.8526 26.952 69.6718 27.4637C69.491 27.9754 69.1649 28.4219 68.7344 28.7473L36.8632 47.3565C36.757 47.431 36.6309 47.4708 36.5017 47.4707Z" fill="#262626"/>
<path fill-rule="evenodd" clip-rule="evenodd" d="M17.5733 78.2045C1.51339 72.793 -3.99801 60.8054 5.26295 51.4209C14.5239 42.0363 35.1239 38.8168 51.1838 44.2283C67.2437 49.6399 72.7551 61.6502 63.4941 71.0348C54.2331 80.4193 33.6557 83.6388 17.5733 78.2045Z" fill="white"/>
<path fill-rule="evenodd" clip-rule="evenodd" d="M17.8217 77.4738C33.6331 82.794 53.9621 79.7572 62.9972 70.4868C64.631 69.0672 65.8637 67.2355 66.5699 65.178C67.2761 63.1206 67.4306 60.9107 67.0178 58.7733C65.6399 52.9736 59.8349 47.9502 51.0031 45.0732C35.1917 39.753 14.9757 42.7899 5.82763 52.0602C4.21096 53.4725 2.99042 55.2899 2.28863 57.33C1.58685 59.3701 1.42854 61.5609 1.82961 63.6824C3.18487 69.4821 9.0125 74.5055 17.8217 77.3825V77.4738ZM34.2882 81.6067C28.5302 81.6432 22.8035 80.749 17.3248 78.958C8.01864 75.807 1.80702 70.3726 0.316231 64.0478C-0.151257 61.6541 0.00935877 59.1785 0.782102 56.8671C1.55484 54.5557 2.91278 52.4891 4.72084 50.8729C14.1851 41.3057 35.1239 37.9948 51.4097 43.4977C60.761 46.6487 66.95 52.0831 68.4408 58.4079C68.9066 60.8116 68.7339 63.2972 67.9404 65.6115C67.1468 67.9258 65.7607 69.9861 63.9232 71.5828C57.689 78.0218 46.1241 81.6067 34.2882 81.6067Z" fill="#E41D2C"/>
<path fill-rule="evenodd" clip-rule="evenodd" d="M47.4342 55.5994C47.4342 56.6725 47.4342 62.4494 47.4342 63.0659C47.0502 66.2854 43.4588 68.3176 40.6579 69.1853C37.963 70.0531 35.1186 70.343 32.3066 70.0363C29.4945 69.7297 26.7768 68.8332 24.327 67.4043C23.4976 66.9063 22.7943 66.22 22.2728 65.3996C21.7514 64.5792 21.4261 63.6473 21.3228 62.6777V55.5537C21.404 56.8825 21.967 58.1345 22.904 59.0701C25.9307 62.2896 31.7132 63.2486 35.8919 62.9746C39.5059 62.7234 44.4075 61.3534 46.5307 58.1567C47.0595 57.4048 47.3722 56.5198 47.4342 55.5994Z" fill="white"/>
<path fill-rule="evenodd" clip-rule="evenodd" d="M22.0908 59.3669V62.7463C22.2316 63.576 22.5515 64.3642 23.0278 65.0549C23.5041 65.7455 24.125 66.3215 24.8465 66.7421C27.1833 68.1075 29.7747 68.9687 32.4571 69.2713C35.1396 69.5739 37.8549 69.3113 40.432 68.5003C43.2103 67.6098 46.3048 65.7146 46.6211 63.0431C46.6211 62.7691 46.6211 61.0338 46.6211 59.3669C43.74 62.1849 39.9217 63.8135 35.9145 63.9336C31.7132 64.2304 25.6145 63.3171 22.3619 59.7779L22.0908 59.3669ZM34.3333 70.9663C30.661 71.0642 27.0408 70.0719 23.9204 68.1121C22.987 67.5308 22.1982 66.7405 21.6147 65.8023C21.0312 64.864 20.6686 63.8029 20.5548 62.7006V55.5537C20.5605 55.3557 20.6409 55.1674 20.7795 55.0273C20.918 54.8872 21.1043 54.806 21.3002 54.8002C21.4 54.7941 21.4999 54.8082 21.5942 54.8419C21.6884 54.8756 21.7749 54.9281 21.8487 54.9962C21.9224 55.0644 21.9819 55.1468 22.0235 55.2387C22.0651 55.3306 22.088 55.4299 22.0908 55.5309C22.1717 56.6812 22.6801 57.7579 23.5138 58.5449C26.2469 61.4676 31.7132 62.4951 35.8693 62.1983C39.2801 61.9699 43.9557 60.6456 45.9208 57.7457C46.3806 57.0725 46.6393 56.28 46.6662 55.4624C46.6888 55.2748 46.7802 55.1026 46.9225 54.9799C47.0647 54.8573 47.2474 54.7931 47.4342 54.8002C47.634 54.8062 47.8236 54.8906 47.9627 55.0355C48.1019 55.1805 48.1797 55.3746 48.1796 55.5766V56.6497C48.1796 60.3488 48.1796 62.7234 48.1796 63.1573C47.6375 67.4499 42.4649 69.4136 40.9064 70.0073C38.7698 70.6255 36.5555 70.9255 34.3333 70.8978V70.9663Z" fill="#262626"/>
<path fill-rule="evenodd" clip-rule="evenodd" d="M47.4342 55.5994C47.4342 56.6726 47.4342 62.4495 47.4342 63.066C47.0954 65.8973 44.2945 67.7925 41.7647 68.7971V61.6503C43.69 60.9861 45.3739 59.7532 46.5985 58.1111C47.0954 57.3651 47.3842 56.4974 47.4342 55.5994Z" fill="white"/>
<path fill-rule="evenodd" clip-rule="evenodd" d="M42.4875 62.2211V67.6098C43.4827 67.23 44.3755 66.6187 45.0937 65.8253C45.8118 65.032 46.335 64.0788 46.6211 63.0431C46.6211 62.7691 46.6211 61.0338 46.6211 59.3669C45.4707 60.6549 44.0402 61.6554 42.4423 62.2896L42.4875 62.2211ZM41.7195 69.5963C41.5589 69.5967 41.4017 69.5491 41.2678 69.4593C41.1637 69.3837 41.0787 69.2843 41.0198 69.1693C40.961 69.0542 40.9298 68.9267 40.929 68.7971V61.6503C40.9298 61.489 40.9802 61.332 41.0733 61.2011C41.1664 61.0701 41.2975 60.9718 41.4485 60.9196C43.2431 60.3236 44.8177 59.1935 45.966 57.6772C46.4257 57.004 46.6845 56.2115 46.7114 55.3939C46.7473 55.2267 46.8384 55.0768 46.9698 54.9689C47.1012 54.861 47.265 54.8015 47.4342 54.8002C47.634 54.8062 47.8235 54.8906 47.9627 55.0355C48.1019 55.1805 48.1797 55.3746 48.1796 55.5766V56.6497C48.1796 60.3488 48.1796 62.7234 48.1796 63.1573C47.7053 66.8563 43.6621 68.8428 41.9906 69.5278L41.7195 69.5963Z" fill="#262626"/>
<path fill-rule="evenodd" clip-rule="evenodd" d="M27.8507 61.9928C21.5939 59.8921 19.4706 55.1427 23.0621 51.5807C26.6535 48.0187 34.6496 46.6944 40.929 48.7951C47.2084 50.8957 49.309 55.6451 45.695 59.2071C42.0809 62.7691 34.0849 64.0934 27.8507 61.9928Z" fill="white"/>
<path fill-rule="evenodd" clip-rule="evenodd" d="M34.3559 48.5439C30.4571 48.3563 26.6275 49.6332 23.6042 52.1287C23.0352 52.6305 22.6048 53.2731 22.3554 53.9936C22.1059 54.7141 22.0459 55.4877 22.1811 56.2387C22.6964 57.4947 23.5031 58.6068 24.5331 59.4811C25.5632 60.3555 26.7863 60.9663 28.0991 61.2621C34.0623 63.2714 41.6518 62.1069 45.1529 58.6591C45.729 58.1635 46.1629 57.5207 46.4092 56.7977C46.6555 56.0747 46.7053 55.2981 46.5533 54.549C46.0487 53.2926 45.2477 52.1801 44.2201 51.3085C43.1925 50.4369 41.9695 49.8326 40.6579 49.5485C38.6257 48.8677 36.4968 48.5283 34.3559 48.5439ZM34.3559 63.7966C32.056 63.8174 29.7677 63.4627 27.5796 62.7462C23.7849 61.4676 21.255 59.2299 20.6452 56.6041C20.4479 55.5847 20.524 54.5305 20.8656 53.5509C21.2072 52.5712 21.8018 51.7018 22.5877 51.0327C26.3599 47.1967 34.7173 45.8723 41.2226 48.0415C45.0173 49.3202 47.5246 51.5579 48.1344 54.1837C48.3498 55.1929 48.2936 56.242 47.9719 57.2218C47.6501 58.2016 47.0745 59.0764 46.3048 59.7551C42.9557 62.57 38.6837 64.0122 34.3333 63.7966H34.3559Z" fill="#262626"/>
<path fill-rule="evenodd" clip-rule="evenodd" d="M44.7463 46.0551V55.5994C44.7463 58.1339 41.9228 59.8236 39.7996 60.5771C37.6149 61.3551 35.2905 61.6497 32.9835 61.4409C30.6765 61.2321 28.4408 60.5249 26.4276 59.3669C25.7667 58.9675 25.2051 58.4202 24.7862 57.767C24.3672 57.1139 24.1019 56.3724 24.0107 55.5994V46.0322C24.0862 47.0827 24.545 48.0674 25.2982 48.7951C27.67 51.3752 32.2778 52.1287 35.5982 51.9004C38.4669 51.6949 42.3746 50.6217 44.046 48.0872C44.4538 47.4847 44.6955 46.7833 44.7463 46.0551Z" fill="white"/>
<path fill-rule="evenodd" clip-rule="evenodd" d="M24.8465 49.4115V55.5537C24.9379 56.1965 25.1725 56.8099 25.5324 57.3478C25.8924 57.8857 26.3684 58.334 26.9246 58.659C28.8272 59.7575 30.9403 60.4318 33.122 60.6366C35.3037 60.8414 37.5035 60.5719 39.5737 59.8464C41.6743 59.1157 43.9331 57.563 44.0912 55.5537V49.4115C41.7725 51.4456 38.8255 52.6001 35.7564 52.6767C33.814 52.9054 31.8459 52.734 29.9708 52.1728C28.0958 51.6116 26.3526 50.6723 24.8465 49.4115ZM34.3333 62.2667C31.4 62.3545 28.507 61.5598 26.0211 59.9834C25.2569 59.521 24.6112 58.8831 24.1364 58.1215C23.6615 57.3598 23.3709 56.4958 23.2879 55.5994V46.0322C23.2849 45.9302 23.3018 45.8286 23.3377 45.7333C23.3735 45.6379 23.4276 45.5506 23.4968 45.4764C23.566 45.4022 23.649 45.3425 23.7411 45.3007C23.8332 45.259 23.9325 45.2359 24.0333 45.233C24.2342 45.2317 24.4285 45.3057 24.5786 45.4406C24.7287 45.5755 24.8242 45.7618 24.8465 45.9637C24.8941 46.8304 25.2655 47.6465 25.8855 48.247C27.2325 49.349 28.783 50.1689 30.4467 50.659C32.1104 51.149 33.8539 51.2993 35.5757 51.1012C38.2636 50.9185 41.9454 49.891 43.4588 47.6305C43.7925 47.1366 43.9876 46.5606 44.0235 45.9637C44.0408 45.7617 44.1355 45.5746 44.2875 45.4424C44.4394 45.3101 44.6365 45.2431 44.8366 45.2558C45.0345 45.2672 45.221 45.3533 45.359 45.4971C45.4971 45.6409 45.5767 45.8319 45.582 46.0322V55.5765C45.4013 59.1385 41.3581 60.8511 40.1158 61.3077C38.2399 61.9544 36.2701 62.2785 34.2882 62.2667H34.3333Z" fill="#262626"/>
<path fill-rule="evenodd" clip-rule="evenodd" d="M44.7463 46.0551V55.5994C44.7463 58.1339 41.9228 59.8236 39.7996 60.5771C38.6677 60.9817 37.4925 61.25 36.2985 61.3763V51.8319C37.772 51.7635 39.217 51.3969 40.5478 50.7536C41.8787 50.1104 43.0682 49.2037 44.0461 48.0872C44.4539 47.4847 44.6955 46.7833 44.7463 46.0551Z" fill="white"/>
<path fill-rule="evenodd" clip-rule="evenodd" d="M37.089 52.5169V60.4629C37.9202 60.3385 38.7372 60.132 39.5285 59.8464C41.6292 59.1157 43.8879 57.5631 44.046 55.5537V49.4115C42.1448 51.1076 39.7846 52.1891 37.2697 52.5169H37.089ZM36.2985 62.1526C36.1055 62.1546 35.9193 62.081 35.7789 61.9471C35.7007 61.8745 35.6383 61.7862 35.5955 61.688C35.5527 61.5897 35.5306 61.4836 35.5305 61.3762V51.8319C35.5292 51.6409 35.5976 51.4561 35.7226 51.3128C35.8476 51.1696 36.0205 51.078 36.2081 51.0555C37.473 50.9185 41.6517 50.2564 43.4136 47.6534C43.7473 47.1595 43.9424 46.5835 43.9783 45.9865C43.9956 45.7846 44.0903 45.5975 44.2423 45.4652C44.3942 45.333 44.5913 45.266 44.7914 45.2787C44.9893 45.2901 45.1758 45.3762 45.3139 45.52C45.4519 45.6637 45.5315 45.8547 45.5368 46.055V55.5994C45.3561 59.1614 41.3129 60.8739 40.0706 61.3306C38.8746 61.732 37.6408 62.0075 36.3888 62.1526H36.2985Z" fill="#262626"/>
<path fill-rule="evenodd" clip-rule="evenodd" d="M47.4342 34.0447V46.0551C47.2987 49.2746 43.8654 51.3981 41.2 52.3571C38.441 53.3265 35.5077 53.6834 32.5999 53.4037C29.6922 53.1239 26.8782 52.214 24.3496 50.7359C23.5159 50.2406 22.8082 49.5554 22.2828 48.7348C21.7573 47.9143 21.4286 46.981 21.3228 46.0094V33.999C21.4223 35.3278 21.9916 36.576 22.9265 37.5154C25.9533 40.7349 31.7358 41.6939 35.9145 41.4199C39.5285 41.1459 44.4301 39.7987 46.5533 36.602C47.0772 35.8494 47.3824 34.9635 47.4342 34.0447Z" fill="white"/>
<path fill-rule="evenodd" clip-rule="evenodd" d="M22.0908 37.7436V46.0093C22.2191 46.8554 22.5332 47.6616 23.01 48.3689C23.4869 49.0762 24.1144 49.6665 24.8465 50.0965C29.364 53.2247 36.5018 53.2019 41.0193 51.6035C43.6847 50.6445 46.5985 48.6808 46.6888 46.0093V37.7436C43.8022 40.524 39.9911 42.1123 36.0048 42.1961C31.8035 42.4701 25.7048 41.5796 22.4522 38.0405L22.1812 37.7436H22.0908ZM34.2656 54.2522C30.6104 54.3584 27.0075 53.3564 23.9204 51.3752C22.988 50.815 22.198 50.0422 21.6137 49.1184C21.0293 48.1947 20.6667 47.1456 20.5548 46.055V33.9989C20.5548 33.7969 20.6326 33.6029 20.7717 33.4579C20.9109 33.313 21.1005 33.2286 21.3002 33.2226C21.4987 33.2219 21.6901 33.2966 21.8366 33.432C21.9831 33.5673 22.0738 33.7534 22.0908 33.9533C22.1717 35.1035 22.6801 36.1803 23.5138 36.9673C26.2469 39.89 31.7132 40.9175 35.8693 40.6206C39.2801 40.3923 43.9557 39.0908 45.9208 36.1681C46.3806 35.4949 46.6393 34.7024 46.6662 33.8848C46.672 33.7858 46.697 33.6889 46.7399 33.5997C46.7828 33.5105 46.8427 33.4307 46.9161 33.3649C46.9896 33.2992 47.0751 33.2487 47.1679 33.2164C47.2607 33.1842 47.3589 33.1708 47.4568 33.1769C47.6566 33.1829 47.8461 33.2673 47.9853 33.4122C48.1245 33.5572 48.2023 33.7513 48.2022 33.9533V45.9637C48.0215 50.3248 43.007 52.4483 41.4259 52.9963C39.123 53.8076 36.7042 54.2319 34.2656 54.2522Z" fill="#262626"/>
<path fill-rule="evenodd" clip-rule="evenodd" d="M47.4342 34.0446V46.055C47.2987 49.069 44.2945 51.124 41.7195 52.1515V40.1411C43.6536 39.4585 45.3385 38.201 46.5533 36.5335C47.0655 35.8003 47.3701 34.9398 47.4342 34.0446Z" fill="white"/>
<path fill-rule="evenodd" clip-rule="evenodd" d="M42.4875 40.6663V50.9413C44.1138 50.1422 46.5533 48.4753 46.6436 46.0093V37.7436C45.5129 39.0438 44.0866 40.0468 42.4875 40.6663ZM41.7195 52.9279C41.5623 52.9248 41.4079 52.8858 41.2678 52.8137C41.1637 52.7381 41.0787 52.6387 41.0198 52.5237C40.961 52.4086 40.9298 52.2811 40.929 52.1515V40.1411C40.9298 39.9799 40.9802 39.8229 41.0733 39.692C41.1664 39.561 41.2975 39.4626 41.4485 39.4105C43.2431 38.8145 44.8177 37.6843 45.966 36.1681C46.4257 35.4949 46.6844 34.7024 46.7114 33.8848C46.7172 33.7858 46.7422 33.6889 46.7851 33.5997C46.828 33.5105 46.8879 33.4307 46.9613 33.3649C47.0348 33.2992 47.1203 33.2487 47.2131 33.2164C47.3059 33.1842 47.4041 33.1708 47.502 33.1769C47.7017 33.1829 47.8913 33.2673 48.0305 33.4122C48.1697 33.5572 48.2475 33.7513 48.2474 33.9533V45.9637C48.0667 49.9595 43.8428 52.083 42.0358 52.8137C41.9442 52.8833 41.8339 52.9231 41.7195 52.9279Z" fill="#262626"/>
<path fill-rule="evenodd" clip-rule="evenodd" d="M27.8507 40.438C21.5939 38.3373 19.4706 33.588 23.0621 30.026C26.6535 26.464 34.6496 25.1396 40.929 27.2403C47.2084 29.341 49.309 34.0903 45.695 37.6523C42.0809 41.2144 34.0849 42.5387 27.8507 40.438Z" fill="white"/>
<path fill-rule="evenodd" clip-rule="evenodd" d="M34.3559 26.9891C30.4571 26.8016 26.6275 28.0784 23.6042 30.574C23.0352 31.0758 22.6048 31.7184 22.3554 32.4389C22.1059 33.1594 22.0459 33.933 22.1811 34.684C22.6964 35.9399 23.5031 37.052 24.5331 37.9264C25.5632 38.8007 26.7863 39.4116 28.0991 39.7073C34.0623 41.7167 41.6518 40.5522 45.1529 37.1043C45.729 36.6088 46.1629 35.9659 46.4092 35.2429C46.6555 34.52 46.7053 33.7434 46.5533 32.9943C46.0467 31.7368 45.2455 30.6226 44.2185 29.7476C43.1915 28.8725 41.9696 28.2628 40.6579 27.9709C38.6214 27.3106 36.4946 26.9792 34.3559 26.9891ZM34.3559 42.2418C32.056 42.2627 29.7677 41.908 27.5796 41.1915C23.7849 39.9128 21.255 37.6751 20.6452 35.0493C20.4479 34.0299 20.524 32.9757 20.8656 31.9961C21.2072 31.0165 21.8018 30.147 22.5877 29.478C26.3599 25.6419 34.7173 24.3176 41.2226 26.4868C45.0173 27.7654 47.5246 30.0031 48.1344 32.629C48.3498 33.6382 48.2936 34.6872 47.9719 35.6671C47.6501 36.6469 47.0745 37.5217 46.3048 38.2003C42.9557 41.0153 38.6837 42.4575 34.3333 42.2418H34.3559Z" fill="#262626"/>
<path fill-rule="evenodd" clip-rule="evenodd" d="M44.7463 24.5002V34.0446C44.7463 36.602 41.9228 38.2916 39.7996 39.0451C37.6102 39.8129 35.2831 40.096 32.9761 39.8754C30.669 39.6548 28.4358 38.9356 26.4276 37.7665C25.7667 37.367 25.2051 36.8197 24.7862 36.1666C24.3672 35.5134 24.1019 34.7719 24.0107 33.9989V24.4774C24.0911 25.5332 24.5488 26.5233 25.2982 27.2631C27.67 29.8204 32.2778 30.5968 35.5982 30.3456C38.4669 30.1629 42.3746 29.0898 44.046 26.5324C44.4568 25.9314 44.6988 25.2292 44.7463 24.5002Z" fill="white"/>
<path fill-rule="evenodd" clip-rule="evenodd" d="M24.8465 27.8568V33.999C24.9347 34.6459 25.1677 35.2638 25.5278 35.8059C25.8879 36.348 26.3656 36.7999 26.9246 37.1272C28.8289 38.2219 30.9428 38.8922 33.1245 39.0931C35.3061 39.2939 37.5051 39.0207 39.5737 38.2917C41.6743 37.561 43.9331 36.0084 44.0912 33.999V27.8797C41.7582 29.8896 38.82 31.0406 35.7564 31.1448C33.8126 31.3651 31.8449 31.1875 29.9706 30.6226C28.0962 30.0577 26.3535 29.1171 24.8465 27.8568ZM34.3333 40.712C31.4 40.7998 28.507 40.0051 26.0211 38.4287C25.2574 37.9714 24.6116 37.3378 24.1366 36.5798C23.6616 35.8218 23.3707 34.9609 23.2879 34.0675V24.4775C23.2849 24.3766 23.302 24.2762 23.3381 24.1821C23.3742 24.088 23.4286 24.0023 23.4981 23.9299C23.5676 23.8574 23.6508 23.7999 23.7428 23.7606C23.8347 23.7213 23.9335 23.7011 24.0333 23.7011C24.2308 23.6992 24.4222 23.77 24.5718 23.9002C24.7214 24.0305 24.8191 24.2113 24.8465 24.409C24.8941 25.2757 25.2655 26.0918 25.8855 26.6923C27.2185 27.8094 28.757 28.6489 30.4123 29.1622C32.0676 29.6756 33.8071 29.8528 35.5305 29.6835C38.2184 29.5008 41.9002 28.4733 43.4136 26.2128C43.7537 25.7222 43.9495 25.1443 43.9783 24.546C44.0097 24.3601 44.1052 24.1914 44.2478 24.0698C44.3904 23.9481 44.571 23.8814 44.7576 23.8814C44.9442 23.8814 45.1247 23.9481 45.2673 24.0698C45.41 24.1914 45.5054 24.3601 45.5368 24.546V34.0904C45.3561 37.6524 41.3129 39.3877 40.0706 39.8215C38.2052 40.4399 36.2511 40.7408 34.2882 40.712H34.3333Z" fill="#262626"/>
<path fill-rule="evenodd" clip-rule="evenodd" d="M44.7463 24.5003V34.0447C44.7463 36.602 41.9228 38.2917 39.7996 39.0452C38.6667 39.442 37.4916 39.7026 36.2985 39.8215V30.3C37.7744 30.2326 39.2217 29.8641 40.5531 29.2166C41.8846 28.5692 43.0727 27.6561 44.0461 26.5325C44.4568 25.9315 44.6988 25.2292 44.7463 24.5003Z" fill="white"/>
<path fill-rule="evenodd" clip-rule="evenodd" d="M37.089 30.985V38.931C37.921 38.7993 38.7381 38.5852 39.5285 38.2917C41.6292 37.561 43.8879 36.0083 44.046 33.999V27.8796C42.1388 29.5663 39.7816 30.6465 37.2697 30.985H37.089ZM36.2985 40.5978C36.1101 40.5962 35.9276 40.532 35.7789 40.4152C35.7001 40.3383 35.6374 40.246 35.5947 40.144C35.552 40.042 35.5302 39.9323 35.5305 39.8215V30.3C35.5239 30.1076 35.5905 29.9199 35.7165 29.7755C35.8425 29.6312 36.0184 29.541 36.2081 29.5236C37.473 29.3638 41.6517 28.7016 43.4136 26.0986C43.7537 25.608 43.9494 25.0301 43.9783 24.4318C44.0097 24.2459 44.1052 24.0772 44.2478 23.9555C44.3904 23.8339 44.571 23.7672 44.7576 23.7672C44.9441 23.7672 45.1247 23.8339 45.2673 23.9555C45.4099 24.0772 45.5054 24.2459 45.5368 24.4318V33.9762C45.3561 37.5382 41.3129 39.2735 40.0706 39.7073C38.8806 40.1303 37.6444 40.4063 36.3888 40.5293L36.2985 40.5978Z" fill="#262626"/>
<path fill-rule="evenodd" clip-rule="evenodd" d="M47.4342 17.0338C47.4342 18.1069 47.4342 23.8838 47.4342 24.5231C47.0502 27.7198 43.4588 29.752 40.6579 30.6197C37.963 31.4875 35.1186 31.7774 32.3066 31.4707C29.4945 31.1641 26.7768 30.2676 24.327 28.8386C23.4952 28.3435 22.7901 27.6578 22.2683 26.8369C21.7465 26.016 21.4227 25.0827 21.3228 24.1121V16.9881C21.3991 18.3361 21.9711 19.6066 22.9265 20.5501C25.9533 23.7696 31.7358 24.7515 35.9145 24.4546C39.5285 24.2035 44.4301 22.8563 46.5533 19.6368C47.0886 18.8729 47.3945 17.9691 47.4342 17.0338Z" fill="white"/>
<path fill-rule="evenodd" clip-rule="evenodd" d="M22.0908 20.7556V24.1121C22.2191 24.9581 22.5332 25.7644 23.01 26.4717C23.4869 27.1789 24.1144 27.7693 24.8465 28.1993C27.1961 29.5545 29.7974 30.4042 32.4872 30.6949C35.177 30.9857 37.8973 30.7113 40.4772 29.889C43.2555 28.9984 46.35 27.1033 46.6662 24.4318C46.6662 24.1349 46.6662 22.3996 46.6662 20.7327C43.7636 23.4934 39.9447 25.0571 35.9597 25.1168C31.7583 25.4136 25.6597 24.5003 22.407 20.9839L22.136 20.6871L22.0908 20.7556ZM34.3333 32.3321C30.6596 32.4422 27.036 31.449 23.9204 29.4779C22.9955 28.9035 22.2118 28.124 21.6288 27.1984C21.0457 26.2727 20.6785 25.2252 20.5548 24.1349V16.9881C20.5548 16.7861 20.6326 16.592 20.7717 16.447C20.9109 16.3021 21.1005 16.2177 21.3002 16.2117C21.4 16.2056 21.4999 16.2197 21.5942 16.2534C21.6884 16.2871 21.7749 16.3396 21.8487 16.4077C21.9224 16.4759 21.9819 16.5583 22.0235 16.6502C22.0651 16.7421 22.088 16.8414 22.0908 16.9424C22.1717 18.0927 22.6801 19.1694 23.5138 19.9564C26.2469 22.8334 31.6228 23.9294 35.8693 23.6326C39.2801 23.3814 43.9557 22.0799 45.9208 19.0659C46.3806 18.3927 46.6393 17.6001 46.6662 16.7826C46.7168 16.6202 46.8202 16.4799 46.9596 16.3846C47.0991 16.2892 47.2664 16.2444 47.4342 16.2574C47.634 16.2633 47.8236 16.3477 47.9627 16.4927C48.1019 16.6377 48.1797 16.8317 48.1796 17.0337V18.1297C48.1796 21.8059 48.1796 24.2034 48.1796 24.6144C47.6375 28.9071 42.4649 30.8708 40.9064 31.4645C38.771 32.0862 36.5551 32.3787 34.3333 32.3321Z" fill="#262626"/>
<path fill-rule="evenodd" clip-rule="evenodd" d="M47.4342 17.0338C47.4342 18.1069 47.4342 23.8838 47.4342 24.5231C47.0954 27.3316 44.2945 29.2268 41.7647 30.2543V23.1303C43.6939 22.4738 45.3799 21.2394 46.5985 19.5911C47.1097 18.8352 47.3993 17.9487 47.4342 17.0338Z" fill="white"/>
<path fill-rule="evenodd" clip-rule="evenodd" d="M42.4875 23.6782V29.0441C44.1138 28.2221 46.35 26.7608 46.6211 24.4774C46.6211 24.1806 46.6211 22.4452 46.6211 20.7784C45.477 22.0792 44.0453 23.0884 42.4423 23.7239L42.4875 23.6782ZM41.7195 31.0306C41.5589 31.0311 41.4017 30.9834 41.2678 30.8936C41.1654 30.8216 41.0814 30.7261 41.0225 30.615C40.9636 30.5039 40.9315 30.3803 40.929 30.2543V23.1302C40.933 22.9698 40.9847 22.8143 41.0773 22.684C41.17 22.5537 41.2993 22.4546 41.4485 22.3996C43.2431 21.8036 44.8177 20.6735 45.966 19.1572C46.4257 18.484 46.6845 17.6915 46.7114 16.8739C46.7428 16.7025 46.8319 16.5473 46.9637 16.4349C47.0955 16.3225 47.2618 16.2598 47.4342 16.2574C47.634 16.2633 47.8235 16.3477 47.9627 16.4927C48.1019 16.6376 48.1797 16.8317 48.1796 17.0337V18.1297C48.1796 21.8059 48.1796 24.2034 48.1796 24.6144C47.7053 28.3134 43.6621 30.2999 41.9906 30.9849L41.7195 31.0306Z" fill="#262626"/>
<path fill-rule="evenodd" clip-rule="evenodd" d="M27.8507 23.4271C21.5939 21.3264 19.4706 16.5771 23.0621 13.0151C26.6535 9.45305 34.6496 8.12871 40.929 10.2294C47.2084 12.3301 49.309 17.0794 45.695 20.6414C42.0809 24.2034 34.0849 25.5506 27.8507 23.4271Z" fill="white"/>
<path fill-rule="evenodd" clip-rule="evenodd" d="M28.0991 22.6964C34.0849 24.7058 41.6518 23.5413 45.1528 20.0934C45.729 19.5979 46.1628 18.955 46.4092 18.2321C46.6555 17.5091 46.7053 16.7325 46.5533 15.9834C46.0487 14.727 45.2477 13.6144 44.2201 12.7428C43.1925 11.8712 41.9695 11.267 40.6579 10.9829C34.6947 8.95071 27.1053 10.138 23.6042 13.5859C23.037 14.0842 22.6077 14.7229 22.3582 15.4393C22.1088 16.1558 22.0477 16.9256 22.1811 17.6731C22.6931 18.9311 23.4988 20.0452 24.5294 20.92C25.56 21.7947 26.7848 22.4043 28.0991 22.6964ZM34.3107 25.2309C32.0107 25.2522 29.7225 24.8975 27.5344 24.1806C23.83 22.8334 21.3002 20.6643 20.6903 18.0384C20.4902 17.0231 20.5604 15.9723 20.8938 14.9934C21.2272 14.0145 21.8117 13.1427 22.5877 12.4671C26.3599 8.63104 34.7173 7.30671 41.2226 9.49871C42.7947 9.84753 44.2536 10.594 45.4625 11.6683C46.6714 12.7426 47.5907 14.1095 48.1344 15.6409C48.3479 16.6466 48.2908 17.6918 47.969 18.6677C47.6472 19.6435 47.0726 20.5143 46.3048 21.1894C42.9543 24.0178 38.67 25.4615 34.3107 25.2309Z" fill="#262626"/>
<path fill-rule="evenodd" clip-rule="evenodd" d="M67.7632 61.8101C67.7632 63.3399 67.7632 67.9523 67.7632 69.1853C66.7015 77.4053 57.5309 82.5885 50.4836 84.849C37.7215 88.9362 19.7868 88.0229 8.67368 80.2823C4.69824 77.451 1.08421 73.2725 0.903503 68.135V61.6503C1.08789 65.1139 2.56511 68.3779 5.03706 70.7836C12.7846 79.0493 27.6248 81.5382 38.3088 80.7847C47.6149 80.1453 60.1059 76.6747 65.5947 68.4546C66.9103 66.4845 67.6608 64.1848 67.7632 61.8101Z" fill="white"/>
<path fill-rule="evenodd" clip-rule="evenodd" d="M1.67149 67.3814V68.1349C1.89737 73.7291 6.4375 77.725 9.12544 79.5516C20.4193 87.4977 38.4895 87.8173 50.2577 84.1183C57.7342 81.835 66.0691 76.5376 66.9952 69.1168C66.9952 68.7743 66.9952 68.1578 66.9952 67.4043C66.7503 67.8957 66.471 68.3688 66.1594 68.8199C60.6029 77.1313 48.0893 80.8075 38.2636 81.4925C27.8281 82.2003 12.6491 79.917 4.51755 71.2174C3.39021 70.0848 2.43153 68.7926 1.67149 67.3814ZM34.243 87.9315C25.0809 88.2259 16.0367 85.7794 8.24452 80.8988C5.30812 78.8666 0.361406 74.4826 0.135529 68.1578V61.6502C0.135442 61.4482 0.213246 61.2542 0.352422 61.1092C0.491597 60.9643 0.681182 60.8798 0.880923 60.8739C0.984474 60.8675 1.08821 60.883 1.18549 60.9194C1.28277 60.9559 1.37145 61.0125 1.44587 61.0855C1.52028 61.1586 1.57878 61.2466 1.61764 61.3438C1.65649 61.4411 1.67483 61.5454 1.67149 61.6502C1.87956 64.8754 3.27345 67.9053 5.57917 70.1443C12.9202 77.9533 27.2634 80.6933 38.2636 79.917C47.7279 79.2548 59.7219 75.7613 64.9397 67.9294C66.2337 66.0866 66.9784 63.9076 67.0855 61.6502C67.1028 61.4483 67.1976 61.2612 67.3495 61.1289C67.5015 60.9967 67.6986 60.9297 67.8987 60.9424C68.0966 60.9538 68.283 61.0399 68.4211 61.1837C68.5592 61.3275 68.6387 61.5184 68.6441 61.7187V62.9746C68.6441 65.0524 68.6441 68.1578 68.6441 69.2081C67.334 79.4603 54.6623 84.2782 50.845 85.5112C45.4659 87.1785 39.8692 88.0176 34.243 88V87.9315Z" fill="#E41D2C"/>
</svg>
