<svg width="90" height="89" viewBox="0 0 90 89" fill="none" xmlns="http://www.w3.org/2000/svg">
<path fill-rule="evenodd" clip-rule="evenodd" d="M7.02838 53.0941V53.3087L5.75049 54.1668C5.96347 53.9522 5.96347 53.9522 5.96347 53.7377C5.96347 52.8796 5.96347 52.2361 6.17645 51.5925C6.60242 50.3054 7.02838 49.2328 8.30627 48.5892L14.2698 44.9423V46.6585L8.94522 49.6618C7.88031 50.5199 7.24136 51.5925 7.02838 53.0941Z" fill="white"/>
<path fill-rule="evenodd" clip-rule="evenodd" d="M13.6308 46.2294L8.5192 49.0182C7.88026 49.4472 7.45429 49.8763 7.02833 50.7344C7.45429 50.0908 7.88026 49.6617 8.5192 49.2327L13.6308 46.2294ZM5.53745 54.8103C5.32447 54.8103 5.11149 54.8103 4.89851 54.5957C4.68552 54.3812 4.68552 53.9522 4.89851 53.7377C4.89851 52.8796 5.11149 52.236 5.11149 51.3779C5.53745 49.8763 6.1764 48.8037 7.45429 47.9456L13.6308 44.2987C13.8438 44.0842 14.0567 44.0842 14.2697 44.2987C14.9087 44.5132 15.1216 44.7278 15.1216 44.9423V46.6584C15.1216 46.873 14.9087 47.0875 14.6957 47.302L9.37113 50.5198C8.5192 50.9489 8.09324 52.0215 7.88026 53.0941V53.3086C7.88026 53.5231 7.66727 53.7377 7.45429 53.7377L6.1764 54.5957C5.96342 54.8103 5.75043 54.8103 5.53745 54.8103Z" fill="#262626"/>
<path fill-rule="evenodd" clip-rule="evenodd" d="M24.067 52.4505C22.5762 49.4472 17.8906 44.7277 14.2699 46.6584L8.94531 49.6617C12.992 47.5165 17.4646 52.665 19.1685 56.3119C20.6593 59.3152 21.9372 64.8928 18.7425 66.8235C19.8074 66.1799 24.067 63.8202 24.706 63.1766C27.4748 60.8169 25.7709 55.4538 24.067 52.4505Z" fill="white"/>
<path fill-rule="evenodd" clip-rule="evenodd" d="M12.1399 48.8037C12.3529 48.8037 12.5659 48.8037 12.5659 49.0182C15.5476 50.0908 18.5294 53.3087 19.8073 56.0974C20.8722 58.2427 21.9371 61.8895 21.0852 64.8928C22.3631 64.0347 23.8539 63.1767 24.0669 62.9621C26.4097 60.6024 24.9188 55.6684 23.215 52.8796C22.1501 50.9489 19.8073 48.1601 17.0385 47.302C15.9736 47.0875 15.1217 47.0875 14.2697 47.5166L12.1399 48.8037ZM18.7424 67.6816C18.5294 67.6816 18.3164 67.4671 18.1034 67.2526C17.8904 66.8235 18.1034 66.3945 18.3164 66.3945C21.0852 64.6783 20.0203 59.5298 18.5294 56.741C17.2515 54.1667 14.4827 51.1634 12.1399 50.3053C11.075 49.8763 10.2231 50.0908 9.15817 50.5199C8.7322 50.7344 8.30624 50.5199 8.30624 50.3053C8.09326 49.8763 8.30624 49.4473 8.51922 49.4473L13.8438 46.444C14.9087 45.8004 16.1866 45.8004 17.6775 46.2294C20.4462 47.0875 23.428 50.0908 24.7059 52.4506C26.1967 55.2393 28.3266 61.246 25.1318 64.2493C24.7059 64.6783 22.3631 65.9654 20.0203 67.4671L19.1683 67.6816C18.9553 67.6816 18.9553 67.6816 18.7424 67.6816Z" fill="#262626"/>
<path fill-rule="evenodd" clip-rule="evenodd" d="M18.7424 55.6684C17.4645 53.5232 15.7607 51.5925 13.8438 50.5198C11.927 49.2327 10.2231 49.2327 8.94525 49.8763C7.66736 50.5198 6.81543 52.236 6.81543 54.3812C6.81543 56.5265 7.66736 59.1007 8.94525 61.2459C10.2231 63.3912 11.927 65.3218 13.8438 66.3945C15.7607 67.4671 17.4645 67.6816 18.7424 66.8235C20.0203 66.1799 20.8722 64.4638 20.8722 62.3185C20.8722 60.1733 20.0203 57.8136 18.7424 55.6684Z" fill="white"/>
<path fill-rule="evenodd" clip-rule="evenodd" d="M10.8622 50.0908C10.2232 50.0908 9.79724 50.3053 9.37128 50.5199C8.30637 51.1634 7.66742 52.4505 7.66742 54.3812C7.66742 56.5265 8.30637 58.6717 9.58426 61.0314C10.8622 63.1766 12.566 64.8928 14.2699 65.9654C15.9737 66.8235 17.4646 67.038 18.5295 66.3945C19.5944 65.7509 20.2334 64.4638 20.2334 62.5331C20.2334 60.3879 19.5944 58.2426 18.3165 55.8829C17.0386 53.7377 15.3348 52.0215 13.6309 50.9489C12.566 50.3053 11.5011 50.0908 10.8622 50.0908ZM17.0386 68.3252C15.9737 68.3252 14.6958 67.8961 13.6309 67.2525C11.7141 66.1799 9.79724 64.2492 8.51935 61.675C7.24145 59.3152 6.38953 56.741 6.38953 54.3812C6.38953 52.0215 7.24145 50.0908 8.73233 49.2327C10.2232 48.3746 12.353 48.5892 14.2699 49.6618C16.1867 50.7344 18.1035 52.6651 19.3814 55.2393C20.6593 57.5991 21.5113 60.1733 21.5113 62.5331C21.5113 64.8928 20.6593 66.8235 19.1685 67.6816C18.5295 68.1106 17.6776 68.3252 17.0386 68.3252Z" fill="#262626"/>
<path fill-rule="evenodd" clip-rule="evenodd" d="M16.6126 56.9555C17.2515 58.2426 17.6775 59.5298 17.6775 60.8169C17.6775 62.104 17.2515 62.9621 16.6126 63.3912C15.9736 63.8202 14.9087 63.8202 13.8438 63.1766C12.7789 62.3185 11.927 61.2459 11.075 59.9588C10.4361 58.6717 10.0101 57.3845 10.0101 56.3119C10.0101 55.0248 10.4361 54.1667 11.075 53.7377C11.714 53.3086 12.7789 53.3086 13.8438 53.9522C14.9087 54.5958 15.9736 55.6684 16.6126 56.9555Z" fill="white"/>
<path fill-rule="evenodd" clip-rule="evenodd" d="M12.14 54.1668C11.927 54.1668 11.714 54.1668 11.501 54.3813C11.075 54.5958 10.6491 55.2394 10.6491 56.312C10.6491 57.3846 11.075 58.6717 11.714 59.7443C12.3529 61.0315 13.2049 61.8896 14.2698 62.5331C15.1217 62.9622 15.7606 63.1767 16.1866 62.7476C16.6126 62.3186 17.0385 61.675 17.0385 60.6024C17.0385 59.5298 16.6126 58.2427 15.9736 57.1701C15.3347 56.0975 14.4828 55.0249 13.4178 54.5958C12.9919 54.3813 12.5659 54.1668 12.14 54.1668ZM15.5477 64.2493C14.9087 64.2493 14.2698 64.0348 13.4178 63.6057C12.3529 62.9622 11.288 61.8896 10.4361 60.3879C9.58417 58.8863 9.1582 57.5991 9.1582 56.312C9.1582 54.8103 9.79715 53.7377 10.6491 53.3087C11.501 52.6651 12.7789 52.8796 14.0568 53.5232C15.1217 54.1668 16.1866 55.2394 17.0385 56.741C17.8905 58.0282 18.3164 59.5298 18.3164 60.8169C18.3164 62.3186 17.8905 63.3912 16.8256 63.8203C16.6126 64.0348 15.9736 64.2493 15.5477 64.2493Z" fill="#262626"/>
<path fill-rule="evenodd" clip-rule="evenodd" d="M41.3185 74.3318L42.5964 73.6882V73.9028L41.3185 74.7608C41.3185 74.7608 41.3185 74.5463 41.3185 74.3318Z" fill="white"/>
<path fill-rule="evenodd" clip-rule="evenodd" d="M41.1054 75.4044C40.8925 75.4044 40.6795 75.1898 40.4665 75.1898C40.2535 74.9753 40.2535 74.5463 40.4665 74.3318C40.4665 74.1172 40.6795 73.9027 40.8925 73.9027L42.1704 73.2592C42.3833 73.0446 42.5963 73.0446 42.8093 73.2592C43.0223 73.4737 43.2353 73.6882 43.0223 73.9027V74.1172C43.0223 74.3318 42.8093 74.5463 42.5963 74.5463L41.3184 75.4044H41.1054Z" fill="#262626"/>
<path fill-rule="evenodd" clip-rule="evenodd" d="M46.6432 74.3318L51.9677 71.3285L46.6432 74.3318Z" fill="white"/>
<path fill-rule="evenodd" clip-rule="evenodd" d="M46.6431 74.9753C46.4301 74.9753 46.2171 74.7608 46.0041 74.5463C45.7911 74.1172 46.0041 73.6882 46.2171 73.6882L51.5416 70.6849C51.7546 70.4703 52.1806 70.4703 52.3936 70.8994C52.3936 70.8994 52.3936 70.8994 52.3936 71.1139C52.6066 71.5429 52.3936 71.972 52.1806 71.972L46.856 74.9753H46.6431Z" fill="#262626"/>
<path fill-rule="evenodd" clip-rule="evenodd" d="M59.635 73.0446C58.1442 70.0413 53.4586 65.3219 49.8379 67.2526L44.5133 70.2559C48.347 68.1106 53.0326 73.4737 54.7365 76.906C56.2273 79.9093 57.5052 85.4869 54.3105 87.4176C55.3754 86.774 59.635 84.4143 60.274 83.7707C62.8298 81.411 61.3389 76.0479 59.635 73.0446Z" fill="white"/>
<path fill-rule="evenodd" clip-rule="evenodd" d="M47.495 69.3978C47.708 69.3978 47.708 69.3978 47.921 69.6123C50.9028 70.6849 53.8845 73.9028 55.1624 76.6915C56.2273 78.8368 57.5052 82.4836 56.4403 85.4869C57.7182 84.6289 59.2091 83.7708 59.422 83.5562C61.7648 81.1965 60.274 76.2625 58.5701 73.4737C57.7182 71.543 55.1624 68.7542 52.3936 67.8962C51.3287 67.6816 50.4768 67.6816 49.6249 68.1107L47.495 69.3978ZM54.3105 88.2757C54.0975 88.2757 53.8845 88.0612 53.6715 87.8467C53.4585 87.4176 53.6715 87.2031 53.8845 86.9886C56.6533 85.2724 55.5884 80.1239 54.0975 77.3351C52.8196 74.7608 50.0508 71.7575 47.708 70.8995C46.6431 70.4704 45.5782 70.6849 44.7263 71.114C44.3003 71.3285 43.8744 71.114 43.8744 70.8995C43.6614 70.4704 43.8744 70.0414 44.0873 70.0414L49.4119 67.0381C50.4768 66.3945 51.7547 66.3945 53.2456 66.8236C56.0143 67.6816 58.9961 70.6849 60.274 73.0447C61.7648 75.8335 63.8947 81.8401 60.6999 84.8434C60.061 85.2724 57.9312 86.5595 55.5884 88.0612L54.5235 88.7048C54.5235 88.2757 54.3105 88.2757 54.3105 88.2757Z" fill="#262626"/>
<path fill-rule="evenodd" clip-rule="evenodd" d="M54.3104 76.2624C53.0325 74.1172 51.3287 72.1865 49.4118 71.1139C47.495 70.0413 45.7911 69.8268 44.5132 70.6849C43.2354 71.3284 42.3834 73.0446 42.3834 75.1898C42.3834 77.335 43.2354 79.9093 44.5132 82.0545C45.7911 84.1997 47.495 86.1304 49.4118 87.2031C51.3287 88.2757 53.0325 88.4902 54.3104 87.6321C55.5883 86.9885 56.4402 85.2724 56.4402 83.1271C56.2273 80.9819 55.5883 78.4077 54.3104 76.2624Z" fill="white"/>
<path fill-rule="evenodd" clip-rule="evenodd" d="M46.217 70.6849C45.5781 70.6849 45.1521 70.8994 44.7261 71.1139C43.6612 71.7575 43.0223 73.0446 43.0223 74.9753C43.0223 77.1205 43.6612 79.2657 44.9391 81.6255C46.217 83.7707 47.9209 85.4869 49.6247 86.5595C51.3286 87.4176 52.8195 87.6321 53.8844 86.9885C54.9493 86.3449 55.5882 85.0578 55.5882 83.1271C55.5882 80.9819 54.9493 78.8367 53.6714 76.477L54.3103 76.0479L53.6714 76.477C52.3935 74.3317 50.6896 72.6156 48.9858 71.543C47.9209 70.8994 47.0689 70.6849 46.217 70.6849ZM52.3935 88.9192C51.3286 88.9192 50.0507 88.4902 48.9858 87.8466C47.0689 86.774 45.1521 84.8433 43.8742 82.269C42.5963 79.9093 41.7444 77.335 41.7444 74.9753C41.7444 72.6156 42.5963 70.6849 44.0872 69.8268C45.5781 68.9687 47.7079 69.1832 49.6247 70.2558C51.5416 71.3284 53.4584 73.2591 54.7363 75.8334C56.0142 78.1931 56.8661 80.7674 56.8661 83.1271C56.8661 85.4869 56.0142 87.4176 54.5233 88.2756C53.8844 88.7047 53.2454 88.9192 52.3935 88.9192Z" fill="#262626"/>
<path fill-rule="evenodd" clip-rule="evenodd" d="M51.9677 77.5497C52.6066 78.8368 53.0326 80.1239 53.0326 81.411C53.0326 82.6982 52.6066 83.5563 51.9677 83.9853C51.3287 84.4143 50.2638 84.4143 49.1989 83.7708C48.134 83.1272 47.2821 82.0546 46.4301 80.982C45.7912 79.6949 45.3652 78.4077 45.3652 77.3351C45.3652 76.048 45.7912 75.1899 46.4301 74.7609C47.0691 74.3318 48.134 74.3318 49.1989 74.9754C50.2638 75.1899 51.3287 76.2625 51.9677 77.5497Z" fill="white"/>
<path fill-rule="evenodd" clip-rule="evenodd" d="M47.4951 74.7608C47.2821 74.7608 47.0691 74.7608 46.8561 74.9754C46.4302 75.1899 46.0042 76.048 46.0042 76.9061C46.0042 77.9787 46.4302 79.0513 47.0691 80.3384C47.7081 81.6255 48.56 82.4836 49.6249 83.1272C50.4768 83.5562 51.1158 83.7707 51.5417 83.3417C51.9677 83.1272 52.3937 82.4836 52.3937 81.411C52.3937 80.3384 51.9677 79.0513 51.3288 77.9787C50.6898 76.9061 49.8379 75.8334 48.773 75.4044C48.56 74.9754 47.921 74.7608 47.4951 74.7608ZM51.1158 84.8433C50.4768 84.8433 49.8379 84.6288 48.986 84.1998C47.921 83.5562 46.8561 82.4836 46.0042 80.982C45.1523 79.4803 44.7263 78.1932 44.7263 76.9061C44.7263 75.4044 45.1523 74.3318 46.2172 73.9027C47.0691 73.2592 48.347 73.4737 49.6249 74.1173C50.6898 74.7608 51.7547 75.8334 52.6067 77.3351C53.4586 78.6222 53.8845 80.1239 53.8845 81.411C53.8845 82.9127 53.2456 83.9853 52.3937 84.4143C51.9677 84.6288 51.5417 84.8433 51.1158 84.8433Z" fill="#262626"/>
<path fill-rule="evenodd" clip-rule="evenodd" d="M43.6613 69.1832L49.1988 65.9654L49.8378 67.467L44.5132 70.4704C43.4483 71.1139 42.8094 72.1865 42.5964 73.6882L41.3185 74.3317C41.3185 72.8301 41.5315 71.7575 42.3834 70.4704C42.5964 69.8268 43.0223 69.6123 43.6613 69.1832Z" fill="white"/>
<path fill-rule="evenodd" clip-rule="evenodd" d="M44.0872 69.8268C43.6613 70.2559 43.2353 70.4704 42.8094 70.8994C42.8094 71.1139 42.5964 71.1139 42.5964 71.3285C43.0223 70.6849 43.4483 70.2559 44.0872 69.8268L48.9858 67.2526V67.038L44.0872 69.8268ZM41.3185 75.1899C41.1055 75.1899 41.1055 75.1899 40.8925 75.1899C40.6795 74.9753 40.4666 74.7608 40.4666 74.5463C40.4666 73.0446 40.6795 71.7575 41.5315 70.2559C41.9574 69.3978 42.3834 69.1832 43.2353 68.7542L48.7729 65.5364C48.9858 65.5364 49.1988 65.3219 49.4118 65.5364C49.6248 65.5364 49.8378 65.7509 49.8378 65.9654L50.4767 67.4671C50.6897 67.8961 50.4767 68.1106 50.2637 68.3252L44.7262 71.1139C43.8743 71.543 43.2353 72.6156 43.2353 73.9027C43.2353 74.1173 43.0223 74.3318 42.8094 74.3318L41.5315 74.9753L41.3185 75.1899Z" fill="#262626"/>
<path fill-rule="evenodd" clip-rule="evenodd" d="M60.4869 85.487L88.3876 69.3978V69.6123V69.8269L60.4869 85.916C60.4869 85.7015 60.4869 85.7015 60.4869 85.487Z" fill="white"/>
<path fill-rule="evenodd" clip-rule="evenodd" d="M60.2739 86.774C60.0609 86.774 59.8479 86.5595 59.635 86.5595C59.422 86.345 59.422 85.9159 59.635 85.7014C59.635 85.4869 59.8479 85.2724 60.0609 85.2724L87.9616 69.1832C88.1746 68.9687 88.3875 68.9687 88.6005 69.1832C88.8135 69.3978 89.0265 69.6123 89.0265 69.8268V70.0413C89.0265 70.0413 89.0265 70.2558 88.8135 70.2558L88.6005 70.4704C88.6005 70.4704 88.3875 70.4704 88.3875 70.6849L60.4869 86.774C60.4869 86.5595 60.4869 86.774 60.2739 86.774Z" fill="#262626"/>
<path fill-rule="evenodd" clip-rule="evenodd" d="M40.6796 74.7608L42.3834 73.6882L40.6796 74.7608Z" fill="white"/>
<path fill-rule="evenodd" clip-rule="evenodd" d="M40.6797 75.4044C40.4667 75.4044 40.2537 75.1899 40.0407 74.9754C39.8278 74.5463 40.0407 74.1173 40.2537 74.1173L41.9576 73.0447C42.3835 72.8301 42.8095 73.0447 42.8095 73.2592C43.0225 73.4737 43.0225 73.6882 42.8095 73.9028L42.5965 74.1173L40.8927 75.1899C40.8927 75.4044 40.6797 75.4044 40.6797 75.4044Z" fill="#262626"/>
<path fill-rule="evenodd" clip-rule="evenodd" d="M49.6249 45.3714L77.5255 29.2822C78.1645 30.1403 78.5904 31.2129 78.8034 32.2855L81.7852 46.873C81.9982 47.7311 82.4241 48.1601 83.0631 48.5892L86.2578 50.5199C87.9617 51.5925 88.3876 52.2361 88.3876 52.8796V69.6123L60.487 85.7014V68.9687C60.487 68.3252 60.487 67.8961 58.9961 67.038L55.1624 64.8928C54.5235 64.4638 54.0975 63.8202 53.8845 63.1767L50.9028 48.5892C50.6898 47.3021 50.2638 46.2294 49.6249 45.3714Z" fill="white"/>
<path fill-rule="evenodd" clip-rule="evenodd" d="M50.6897 45.5859C51.1157 46.444 51.5417 47.3021 51.7547 48.1602L54.7364 62.7476C54.9494 63.3912 55.1624 63.8202 55.5883 64.0348L59.422 66.18C60.9129 67.0381 61.1259 67.8962 61.1259 68.7542V84.4143L87.5356 68.9688V52.4506C87.5356 51.807 86.6837 51.1635 85.8318 50.7344L82.6371 48.8037C81.7851 48.3747 81.3592 47.5166 81.1462 46.6585L78.1644 32.071C77.9515 31.2129 77.7385 30.5694 77.3125 29.9258L50.6897 45.5859ZM60.4869 86.345C60.2739 86.345 60.2739 86.345 60.061 86.345C59.848 86.1305 59.635 85.916 59.635 85.7015V68.9688C59.635 68.5397 59.635 68.3252 58.5701 67.6816L54.7364 65.5364C53.8845 65.1074 53.4585 64.2493 53.2455 63.3912L50.2638 48.8037C50.0508 47.7311 49.6248 47.0875 48.9859 46.0149C48.9859 45.8004 48.7729 45.5859 48.9859 45.3714C48.9859 45.1569 49.1989 44.9423 49.4119 44.9423L77.3125 28.8532C77.5255 28.6387 77.9515 28.8532 78.1644 29.0677C78.8034 30.1403 79.2293 30.9984 79.6553 32.2855L82.6371 46.873C82.85 47.5166 83.063 47.9456 83.489 48.1602L86.6837 50.0909C88.3876 50.9489 89.0265 52.0215 89.0265 53.0942V69.8269C89.0265 70.0414 88.8135 70.2559 88.6006 70.4704L60.6999 86.5596C60.6999 86.345 60.6999 86.345 60.4869 86.345Z" fill="#262626"/>
<path fill-rule="evenodd" clip-rule="evenodd" d="M84.3409 65.1074C83.063 65.7509 82.2111 65.3219 82.2111 63.8202C82.2111 62.3186 83.276 60.6024 84.3409 59.9589C85.6188 59.3153 86.6837 59.7443 86.6837 61.246C86.6837 62.7476 85.6188 64.4638 84.3409 65.1074Z" fill="white"/>
<path fill-rule="evenodd" clip-rule="evenodd" d="M85.4058 60.3878C85.1928 60.3878 84.9799 60.3878 84.7669 60.6023C83.702 61.2459 82.85 62.7476 82.85 63.8202C82.85 64.2492 83.063 64.4637 83.063 64.6783C83.276 64.8928 83.702 64.6783 83.9149 64.4637C84.9799 63.8202 85.8318 62.3185 85.8318 61.2459C85.8318 60.8169 85.8318 60.6023 85.6188 60.3878C85.6188 60.3878 85.6188 60.3878 85.4058 60.3878ZM83.489 66.1799C83.063 66.1799 82.85 66.1799 82.6371 65.9654C81.9981 65.5363 81.5721 64.8928 81.5721 63.8202C81.5721 62.104 82.6371 60.1733 84.1279 59.3152C84.9799 58.8862 85.8318 58.8862 86.4707 59.1007C87.1097 59.5297 87.5356 60.1733 87.5356 61.2459C87.5356 62.9621 86.4707 64.8928 84.9799 65.7509C84.3409 65.9654 83.9149 66.1799 83.489 66.1799Z" fill="#262626"/>
<path fill-rule="evenodd" clip-rule="evenodd" d="M88.1746 69.6122V65.7509L60.4869 82.0545V85.9159L88.1746 69.6122Z" fill="white"/>
<path fill-rule="evenodd" clip-rule="evenodd" d="M61.1259 82.2691V84.6288L87.5357 69.1833V66.8235L61.1259 82.2691ZM60.4869 86.5595C60.274 86.5595 60.274 86.5595 60.061 86.5595C59.848 86.345 59.635 86.1305 59.635 85.916V82.0546C59.635 81.84 59.848 81.6255 60.061 81.411L87.9616 65.1074C88.1746 64.8928 88.3876 64.8928 88.6006 65.1074C88.8136 65.3219 89.0265 65.5364 89.0265 65.7509V69.6123C89.0265 69.8268 88.8136 70.0414 88.6006 70.2559L60.6999 86.5595H60.4869Z" fill="#262626"/>
<path fill-rule="evenodd" clip-rule="evenodd" d="M75.3957 27.137C76.2476 27.7806 76.8866 28.4241 77.5255 29.2822L49.6249 45.3714C48.9859 44.5133 48.347 43.8697 47.495 43.2261L2.12985 16.84H1.91687L29.1786 0.96536C29.6045 0.750838 29.6045 0.536316 30.2435 0.96536L75.3957 27.137Z" fill="white"/>
<path fill-rule="evenodd" clip-rule="evenodd" d="M3.19464 16.6254L47.9209 42.5826C48.5598 43.0116 49.4118 43.6552 49.8377 44.2987L76.4605 28.8532C76.0345 28.2096 75.6086 27.9951 74.9696 27.566L29.8174 1.39439L29.6044 1.60891L3.19464 16.6254ZM49.6247 46.0149C49.4118 46.0149 49.1988 45.8004 48.9858 45.8004C48.3468 44.9423 47.7079 44.2987 47.069 43.8697L1.70377 17.4835C1.49078 17.4835 1.06482 17.269 1.06482 16.84C1.06482 16.6254 1.06482 16.1964 1.49078 16.1964L28.9655 0.321783C29.6044 -0.107261 29.8174 -0.107261 30.4564 0.321783L75.6086 26.708C76.4605 27.3515 77.3124 27.9951 77.9514 29.0677C77.9514 29.2822 78.1643 29.4967 77.9514 29.7113C77.9514 29.9258 77.7384 30.1403 77.5254 30.1403L49.6247 46.2294C49.8377 46.0149 49.8377 46.0149 49.6247 46.0149Z" fill="#262626"/>
<path fill-rule="evenodd" clip-rule="evenodd" d="M0.638916 42.5826L1.70383 43.2261V46.2295L0.638916 45.8004V42.5826Z" fill="white"/>
<path fill-rule="evenodd" clip-rule="evenodd" d="M1.70386 47.0876C1.49087 47.0876 1.49087 47.0876 1.27789 47.0876L0.425964 46.6585C0.212982 46.2295 0 46.0149 0 45.8004V42.5826C0 42.3681 0.212982 42.1536 0.425964 41.939C0.638946 41.7245 0.851928 41.7245 1.06491 41.939L1.91684 42.3681C2.12982 42.5826 2.3428 42.7971 2.3428 43.0116V46.2295C2.3428 46.444 2.12982 46.6585 1.91684 46.873L1.70386 47.0876Z" fill="#262626"/>
<path fill-rule="evenodd" clip-rule="evenodd" d="M1.91684 43.0116L1.70386 43.2261V46.2294L1.91684 46.0149V43.0116Z" fill="white"/>
<path fill-rule="evenodd" clip-rule="evenodd" d="M1.70386 47.0875C1.49088 47.0875 1.49088 47.0875 1.27789 47.0875C1.06491 46.8729 0.851929 46.6584 0.851929 46.4439V43.2261C0.851929 43.0116 1.06491 42.797 1.27789 42.5825L1.70386 42.368C1.91684 42.1535 2.12982 42.1535 2.3428 42.368C2.55579 42.5825 2.76877 42.797 2.76877 43.0116V46.2294C2.76877 46.4439 2.55579 46.6584 2.3428 46.8729L1.91684 47.0875C1.91684 46.8729 1.70386 47.0875 1.70386 47.0875Z" fill="#262626"/>
<path fill-rule="evenodd" clip-rule="evenodd" d="M1.91681 43.0116L1.49084 42.5825V42.1535L0.638916 42.5825L1.70383 43.2261L1.91681 43.0116Z" fill="white"/>
<path fill-rule="evenodd" clip-rule="evenodd" d="M1.70386 43.8696C1.49087 43.8696 1.49087 43.8696 1.27789 43.8696L0.425964 43.2261C0.212982 43.0115 0 42.797 0 42.5825C0 42.368 0.212982 42.1535 0.425964 41.9389L1.06491 41.5099C1.27789 41.2954 1.49087 41.2954 1.70386 41.5099C1.91684 41.7244 2.12982 41.9389 2.12982 42.1535H2.3428C2.55578 42.368 2.76877 42.5825 2.76877 42.797C2.76877 43.0115 2.55578 43.2261 2.3428 43.4406L1.91684 43.6551C1.91684 43.8696 1.70386 43.8696 1.70386 43.8696Z" fill="#262626"/>
<path fill-rule="evenodd" clip-rule="evenodd" d="M1.49078 17.2689C1.49078 16.8399 1.70377 16.6254 2.12973 16.8399L47.7079 43.2261C48.5598 43.6551 49.1988 44.5132 49.8377 45.3713C50.4767 46.2294 50.9026 47.302 51.1156 48.3746L54.0974 62.9621C54.3103 63.6056 54.7363 64.2492 55.3753 64.6782L59.2089 66.8235C60.2738 67.467 60.4868 67.8961 60.4868 68.5396V85.4869C60.4868 85.9159 60.2738 86.1304 59.8479 85.9159L57.931 84.8433C57.7181 84.6288 57.2921 84.1997 57.2921 83.7707C57.2921 81.1964 56.4402 78.4076 54.9493 75.8334C53.4584 73.2591 51.5416 71.1139 49.1988 69.8268C47.069 68.5396 44.9391 68.3251 43.4483 69.1832C41.9574 70.0413 41.1055 71.7575 41.1055 74.3317C41.1055 74.7608 40.8925 74.9753 40.4665 74.7608C36.2069 72.1865 25.9837 66.1799 22.363 64.0347C21.9371 63.8202 21.7241 63.3911 21.7241 62.9621C21.7241 60.3878 20.8722 57.599 19.3813 55.0248C17.8904 52.4505 15.9736 50.3053 13.6308 49.0182C11.5009 47.731 9.37112 47.5165 7.88025 48.3746C6.38937 49.2327 5.53744 50.9489 5.53744 53.5231C5.53744 53.9522 5.32446 54.1667 4.8985 53.9522H4.68552C3.6206 53.3086 2.76868 52.4505 2.12973 51.1634C1.49078 50.0908 1.06482 48.8036 1.06482 47.5165C1.49078 37.434 1.49078 27.3515 1.49078 17.2689Z" fill="white"/>
<path fill-rule="evenodd" clip-rule="evenodd" d="M2.12979 17.269H1.49084H2.12979ZM45.7911 67.8961C47.069 67.8961 48.3469 68.3252 49.8378 69.1833C52.1806 70.4704 54.0974 72.6156 55.8013 75.4044C57.5051 78.1932 58.3571 81.1965 58.3571 83.7708C58.3571 83.9853 58.57 84.1998 58.57 84.1998L60.0609 85.0579V68.5397C60.0609 68.3252 60.0609 68.1107 58.996 67.4671L55.1623 65.1074C54.3104 64.6783 53.8844 63.8202 53.6715 62.9621L50.6897 48.3747C50.4767 47.5166 50.0508 46.444 49.4118 45.5859C48.7729 44.7278 48.1339 44.0842 47.495 43.6552L2.12979 17.6981V47.7311C2.12979 48.8037 2.55575 49.8763 2.98172 50.9489C3.62067 51.807 4.25961 52.6651 5.11154 53.3087C5.32452 50.7344 6.17645 49.0182 7.88031 47.9456C9.58416 46.873 11.927 47.0875 14.2698 48.5892C16.6126 49.8763 18.5294 52.0215 20.2333 54.8103C21.7241 57.5991 22.5761 60.3879 22.7891 63.1767C22.7891 63.3912 23.002 63.6057 23.002 63.6057C24.7059 64.6783 28.1136 66.609 31.5213 68.5397C34.929 70.4704 38.3368 72.6156 40.6796 73.9028C40.8925 71.3285 41.7445 69.6123 43.4483 68.5397C44.0873 68.1107 44.7262 67.8961 45.7911 67.8961ZM60.0609 86.7741C59.8479 86.7741 59.635 86.7741 59.422 86.5595L57.5051 85.4869C56.8662 85.0579 56.6532 84.4143 56.6532 83.7708C56.6532 81.411 55.8013 78.6222 54.3104 76.048C52.8195 73.4737 50.9027 71.3285 48.7729 70.2559C46.856 69.1833 45.1522 68.9688 43.6613 69.6123C42.3834 70.4704 41.5315 71.9721 41.5315 74.3318C41.5315 74.7608 41.3185 75.1899 41.1055 75.4044C40.6796 75.6189 40.4666 75.6189 40.0406 75.4044C37.6978 74.1173 33.8641 71.7575 30.2434 69.6123C26.8357 67.6816 23.641 65.7509 21.9371 64.6783C21.2982 64.4638 21.0852 63.6057 21.0852 62.9621C21.0852 60.6024 20.2333 57.8136 18.7424 55.4539C17.2515 52.8796 15.3347 50.9489 13.4178 49.6618C11.501 48.5892 9.79715 48.3747 8.51925 49.0182C7.24136 49.6618 6.60242 51.378 6.38943 53.5232C6.38943 53.9522 6.17645 54.3813 5.75049 54.5958C5.32452 54.8103 4.89856 54.8103 4.68558 54.5958H4.47259C3.40768 53.9522 2.34277 52.8796 1.70383 51.5925C1.06488 50.3054 0.638916 49.0182 0.638916 47.7311V17.269C0.638916 16.84 0.851898 16.4109 1.06488 16.1964C1.49084 15.9819 1.91681 15.9819 2.12979 16.1964L47.708 42.5826C48.5599 43.0116 49.4118 43.8697 50.0508 44.9423C50.6897 46.0149 51.1157 47.0875 51.5416 48.1602L54.5234 62.7476C54.7364 63.3912 54.9494 63.8202 55.3753 64.0348L59.209 66.18C60.6999 67.0381 60.9129 67.6816 60.9129 68.5397V85.4869C60.9129 85.916 60.6999 86.345 60.4869 86.5595C60.4869 86.5595 60.2739 86.7741 60.0609 86.7741Z" fill="#262626"/>
<path fill-rule="evenodd" clip-rule="evenodd" d="M64.5336 76.6915C63.2557 77.3351 62.1908 76.9061 62.1908 75.4044C62.1908 73.9028 63.2557 72.1866 64.5336 71.543C65.8115 70.8995 66.8764 71.3285 66.8764 72.8302C66.6634 74.1173 65.8115 76.048 64.5336 76.6915Z" fill="white"/>
<path fill-rule="evenodd" clip-rule="evenodd" d="M65.5985 71.7575C65.3856 71.7575 65.1726 71.7575 64.9596 71.972C63.8947 72.6156 63.0428 74.1172 63.0428 75.1898C63.0428 75.6189 63.2557 75.8334 63.2557 76.0479C63.4687 76.2624 63.8947 76.0479 64.1077 75.8334C65.1726 75.1898 66.0245 73.6882 66.0245 72.6156C66.0245 72.1865 65.8115 71.972 65.8115 71.7575C65.5985 71.972 65.5985 71.7575 65.5985 71.7575ZM63.4687 77.7641C63.0428 77.7641 62.8298 77.7641 62.6168 77.5496C61.9778 77.1205 61.5519 76.4769 61.5519 75.4043C61.5519 73.6882 62.6168 71.7575 64.1077 70.8994C64.9596 70.4703 65.8115 70.4703 66.4505 70.6849C67.0894 71.1139 67.5154 71.7575 67.5154 72.8301C67.5154 74.5463 66.4505 76.4769 64.9596 77.335C64.3207 77.5496 63.8947 77.7641 63.4687 77.7641Z" fill="#262626"/>
<path fill-rule="evenodd" clip-rule="evenodd" d="M52.8196 47.0875L76.6736 33.1436L79.6553 47.7311L55.8013 61.675L52.8196 47.0875Z" fill="white"/>
<path fill-rule="evenodd" clip-rule="evenodd" d="M53.6715 47.302L56.4403 60.3878L78.8034 47.5165L76.0347 34.4307L53.6715 47.302ZM55.8014 62.3185H55.5884C55.3754 62.3185 55.1624 62.104 55.1624 61.8895L52.1807 47.302C52.1807 47.0875 52.1807 46.6585 52.6066 46.4439L76.2476 32.7145C76.4606 32.5 76.6736 32.5 76.8866 32.7145C77.0996 32.7145 77.3125 32.9291 77.3125 33.1436L80.2943 47.7311C80.2943 47.9456 80.2943 48.3746 79.8683 48.5891L56.2273 62.104C56.2273 62.3185 56.0143 62.3185 55.8014 62.3185Z" fill="#E41D2C"/>
<path fill-rule="evenodd" clip-rule="evenodd" d="M55.1624 57.5991L67.0894 50.7344L69.2192 46.873L75.6086 43.2261L78.8034 44.0842L79.6553 47.7311L55.8013 61.675L55.1624 57.5991Z" fill="white"/>
<path fill-rule="evenodd" clip-rule="evenodd" d="M55.8013 58.0281L56.2273 60.6024L78.8034 47.5165L78.1644 44.7278L75.3957 44.0842L69.6451 47.302L67.5153 51.1634C67.5153 51.3779 67.3023 51.3779 67.3023 51.3779L55.8013 58.0281ZM55.8013 62.3185H55.5883C55.3753 62.3185 55.1624 62.104 55.1624 61.8895L54.3104 57.8136C54.3104 57.5991 54.3104 57.17 54.7364 56.9555L66.4504 50.3053L68.5802 46.4439C68.5802 46.2294 68.7932 46.2294 68.7932 46.2294L74.9697 42.7971C75.1827 42.7971 75.3957 42.5825 75.6086 42.7971L79.0163 43.6552C79.2293 43.6552 79.4423 43.8697 79.4423 44.2987L80.2942 47.9456C80.2942 48.1601 80.2942 48.5891 79.8683 48.8037L56.2273 62.104C56.2273 62.3185 56.0143 62.3185 55.8013 62.3185Z" fill="#E41D2C"/>
<path fill-rule="evenodd" clip-rule="evenodd" d="M35.568 40.2228L45.7912 46.2294C46.2171 46.444 46.6431 46.873 47.0691 47.5166C47.495 47.9456 47.708 48.5892 47.921 49.2327L50.6898 62.104C50.6898 62.5331 50.6898 62.7476 50.2638 62.7476H50.0508L35.568 54.3813C35.1421 54.1667 34.9291 53.7377 34.9291 53.3087V40.6519C35.1421 40.2228 35.355 40.0083 35.568 40.2228Z" fill="white"/>
<path fill-rule="evenodd" clip-rule="evenodd" d="M35.5679 40.2228L35.142 40.8664L35.5679 40.2228ZM35.7809 41.0809V53.0941C35.7809 53.3086 35.9939 53.5231 35.9939 53.5231L49.8377 61.675L47.2819 49.2327C47.2819 48.8037 47.069 48.1601 46.643 47.7311C46.43 47.302 46.004 46.873 45.5781 46.6584L35.7809 41.0809ZM50.4767 63.3911H50.2637C50.0507 63.3911 50.0507 63.3911 49.8377 63.1766L35.3549 54.8103C34.716 54.5957 34.29 53.7377 34.29 53.0941V40.6518C34.29 40.2228 34.503 39.7937 34.929 39.5792C35.3549 39.3647 35.7809 39.3647 35.9939 39.5792L46.217 45.5858C46.856 45.8004 47.2819 46.4439 47.7079 47.0875C48.1339 47.7311 48.3469 48.3746 48.5598 49.0182L51.3286 61.8895C51.3286 62.3185 51.3286 62.7476 51.1156 63.1766C50.9026 63.3911 50.6897 63.3911 50.4767 63.3911Z" fill="#E41D2C"/>
<path fill-rule="evenodd" clip-rule="evenodd" d="M50.9027 63.3911V56.741L48.1339 58.2426V64.8928L50.9027 63.3911Z" fill="white"/>
<path fill-rule="evenodd" clip-rule="evenodd" d="M48.986 58.6717V63.8203L50.2639 63.1767V57.8136L48.986 58.6717ZM48.134 65.5364C47.9211 65.5364 47.921 65.5364 47.7081 65.5364C47.4951 65.3219 47.2821 65.1074 47.2821 64.8929V58.2427C47.2821 58.0282 47.4951 57.8136 47.7081 57.5991L50.2639 56.0975C50.4768 55.883 50.6898 55.883 50.9028 56.0975C51.1158 56.312 51.3288 56.5265 51.3288 56.741V63.3912C51.3288 63.6057 51.1158 63.8203 50.9028 64.0348L48.347 65.5364C48.347 65.5364 48.347 65.5364 48.134 65.5364Z" fill="#E41D2C"/>
<path fill-rule="evenodd" clip-rule="evenodd" d="M50.9027 64.0347C50.6897 64.0347 50.4767 63.8202 50.2638 63.6057C50.0508 63.1767 50.2638 62.7476 50.4767 62.7476L51.7546 62.1041C52.1806 61.8895 52.6066 62.1041 52.8195 62.3186C53.0325 62.7476 52.8195 63.1767 52.6066 63.1767L51.1157 64.0347H50.9027Z" fill="#E41D2C"/>
<path fill-rule="evenodd" clip-rule="evenodd" d="M84.3409 43.6552V37.005L81.7852 38.5067V45.1568L84.3409 43.6552Z" fill="white"/>
<path fill-rule="evenodd" clip-rule="evenodd" d="M82.4241 38.9357V44.0842L83.702 43.4406V38.2921L82.4241 38.9357ZM81.7852 46.0149C81.5722 46.0149 81.5722 46.0149 81.3592 46.0149C81.1462 45.8003 80.9332 45.5858 80.9332 45.3713V38.5066C80.9332 38.2921 81.1462 38.0776 81.3592 37.863L83.915 36.3614C84.128 36.1469 84.3409 36.1469 84.5539 36.3614C84.7669 36.5759 84.9799 36.7904 84.9799 37.005V43.6551C84.9799 43.8696 84.7669 44.0842 84.5539 44.2987L81.9981 45.8003C81.9981 46.0149 81.9981 46.0149 81.7852 46.0149Z" fill="#262626"/>
<path fill-rule="evenodd" clip-rule="evenodd" d="M69.2193 74.3317C68.7933 74.3317 68.5803 74.1172 68.5803 73.6882V67.038C68.5803 66.6089 68.7933 66.3944 69.2193 66.3944C69.6452 66.3944 69.8582 66.6089 69.8582 67.038V73.6882C69.8582 74.1172 69.6452 74.3317 69.2193 74.3317Z" fill="#262626"/>
<path fill-rule="evenodd" clip-rule="evenodd" d="M71.7751 72.8301C71.3491 72.8301 71.1361 72.6155 71.1361 72.1865V65.5363C71.1361 65.1073 71.3491 64.8928 71.7751 64.8928C72.201 64.8928 72.414 65.1073 72.414 65.5363V72.1865C72.414 72.6155 72.201 72.8301 71.7751 72.8301Z" fill="#262626"/>
<path fill-rule="evenodd" clip-rule="evenodd" d="M74.5437 71.3284C74.1178 71.3284 73.9048 71.1139 73.9048 70.6848V64.0347C73.9048 63.6056 74.1178 63.3911 74.5437 63.3911C74.9697 63.3911 75.1827 63.6056 75.1827 64.0347V70.6848C75.1827 71.1139 74.7567 71.3284 74.5437 71.3284Z" fill="#262626"/>
<path fill-rule="evenodd" clip-rule="evenodd" d="M77.0995 69.8269C76.6736 69.8269 76.4606 69.6124 76.4606 69.1833V62.5332C76.4606 62.1041 76.6736 61.8896 77.0995 61.8896C77.5255 61.8896 77.7385 62.1041 77.7385 62.5332V69.1833C77.7385 69.6124 77.5255 69.8269 77.0995 69.8269Z" fill="#262626"/>
<path fill-rule="evenodd" clip-rule="evenodd" d="M79.6553 68.3251C79.2293 68.3251 79.0164 68.1106 79.0164 67.6816V61.0314C79.0164 60.6023 79.4423 60.3878 79.6553 60.3878C80.0813 60.3878 80.2943 60.6023 80.2943 61.0314V67.6816C80.5072 67.8961 80.0813 68.3251 79.6553 68.3251Z" fill="#262626"/>
<path fill-rule="evenodd" clip-rule="evenodd" d="M60.4869 85.916C60.2739 86.1305 60.2739 86.1305 60.0609 85.916L58.1441 84.8434C57.9311 84.6288 57.5052 84.1998 57.5052 83.7708C57.5052 82.4836 57.2922 81.1965 56.8662 79.9094L60.4869 82.0546V85.916Z" fill="white"/>
<path fill-rule="evenodd" clip-rule="evenodd" d="M57.9312 81.1964C58.1442 82.0545 58.1442 82.9126 58.1442 83.7707C58.1442 83.9852 58.3572 84.1997 58.3572 84.1997L59.6351 85.0578V82.4836L57.9312 81.1964ZM60.0611 86.774C59.8481 86.774 59.6351 86.774 59.4221 86.5595L57.5053 85.4869C56.8663 85.0578 56.6534 84.4143 56.6534 83.7707C56.6534 82.6981 56.4404 81.411 56.0144 80.1238C56.0144 79.9093 56.0144 79.4803 56.2274 79.2657C56.4404 79.0512 56.6534 79.0512 57.0793 79.2657L60.7 81.411C60.913 81.6255 61.126 81.84 61.126 82.0545V85.9159C61.126 86.1304 61.126 86.345 60.913 86.345C60.7 86.5595 60.487 86.774 60.0611 86.774Z" fill="#262626"/>
<path fill-rule="evenodd" clip-rule="evenodd" d="M38.5497 59.3152C38.3367 59.3152 38.3367 59.3152 38.1237 59.3152L34.503 57.17C34.0771 56.9555 34.0771 56.5264 34.29 56.3119C34.503 55.8829 34.929 55.8829 35.142 56.0974L38.7627 58.2426C39.1886 58.4571 39.1886 58.8862 38.9756 59.1007C39.1886 59.3152 38.9757 59.3152 38.5497 59.3152Z" fill="#E41D2C"/>
</svg>
