<svg width="53" height="90" viewBox="0 0 53 90" fill="none" xmlns="http://www.w3.org/2000/svg">
<path fill-rule="evenodd" clip-rule="evenodd" d="M2.6076 86.4376C3.47679 87.3157 4.34598 88.4133 5.43247 89.2914L47.3709 64.924C49.1093 63.8264 50.6303 61.4116 50.6303 59.4359V13.1159L39.1136 4.11538L38.2444 3.89586L25.6411 3.67633L4.12869 15.9698C3.47679 16.1893 3.0422 16.6284 2.6076 17.2869V86.4376Z" fill="white"/>
<path fill-rule="evenodd" clip-rule="evenodd" d="M3.25942 86.218C3.91132 87.0961 4.78051 87.7547 5.4324 88.4132L46.9362 64.2654C48.4573 63.3873 49.7611 61.192 49.7611 59.2163V13.3354L38.4616 4.55438L37.8097 4.33485H25.6411L4.56321 16.4088C3.91132 16.8478 3.47672 17.0674 3.25942 17.5064V86.218ZM5.4324 89.9499C5.2151 89.9499 5.2151 89.9499 4.9978 89.7304C3.69402 88.8523 2.60753 87.7546 1.95564 86.8765C1.95564 86.657 1.73834 86.657 1.73834 86.4375V17.2869C1.73834 17.0674 1.73834 17.0674 1.95564 16.8478C2.60753 16.1892 3.04213 15.7502 3.69402 15.3111L24.9892 3.0177C24.9892 3.0177 25.2065 3.0177 25.4238 3.0177L38.027 3.23723H39.1135C39.1135 3.23723 39.3308 3.23723 39.3308 3.45675L50.8476 12.4573C51.0649 12.6768 51.0649 12.8964 51.0649 12.8964V59.2163C51.0649 61.4116 49.5438 64.2654 47.5881 65.363L5.6497 89.7304C5.6497 89.9499 5.4324 89.9499 5.4324 89.9499Z" fill="#262626"/>
<path fill-rule="evenodd" clip-rule="evenodd" d="M43.2422 21.4579L49.1092 17.9455C51.9341 16.4088 53.6724 14.8721 50.6303 12.6768L38.2443 3.0177L43.2422 10.7011V21.4579Z" fill="white"/>
<path fill-rule="evenodd" clip-rule="evenodd" d="M41.0692 6.09112L43.6767 10.2621C43.6767 10.2621 43.894 10.4816 43.894 10.7012V20.3603L48.6746 17.5065C49.9784 16.8479 51.2822 15.9698 51.4995 15.0917C51.4995 14.4331 50.8476 13.7745 50.1957 13.3355L41.0692 6.09112ZM43.2422 22.1165C43.0249 22.1165 43.0249 22.1165 42.8076 22.1165C42.5903 21.897 42.373 21.6775 42.373 21.4579V10.9207L37.5924 3.45681C37.3751 3.23728 37.3751 2.79823 37.5924 2.57871C37.8097 2.35918 38.2443 2.35918 38.4616 2.57871L50.8476 12.2378C52.1513 13.3355 52.8032 14.2136 52.5859 15.0917C52.3686 16.4088 51.0649 17.5065 49.1092 18.6041L43.4595 21.897C43.4595 22.1165 43.2422 22.1165 43.2422 22.1165Z" fill="#262626"/>
<path fill-rule="evenodd" clip-rule="evenodd" d="M5.43245 89.2914L1.73839 87.0961C0.869202 86.4375 0.869202 85.9985 0.869202 84.9008V21.6774C0.869202 19.4822 2.17299 17.2869 4.12866 15.9698L27.1622 2.57869C30.639 0.602961 32.3773 -0.275142 36.506 1.70059C39.7654 3.23727 42.5903 6.53016 43.4595 10.7011V21.4579L39.1136 19.0431V13.3355V10.9207C39.1136 7.18873 34.9849 2.57869 29.3352 5.43253L7.60542 18.165C5.86704 19.4822 4.56326 21.6774 4.34596 23.8727V87.0961C4.56326 88.1937 4.56326 88.6328 5.43245 89.2914Z" fill="white"/>
<path fill-rule="evenodd" clip-rule="evenodd" d="M32.3773 1.26156C30.8562 1.26156 29.3352 1.92013 27.1622 3.23729L4.34595 16.6284C2.60757 17.726 1.52108 19.7017 1.30378 21.897V84.9009C1.30378 85.779 1.30378 85.9985 1.95568 86.4376L3.69406 87.5352C3.69406 87.3157 3.69406 87.3157 3.69406 87.0961V23.8727C3.69406 21.2384 5.21514 19.0431 7.17082 17.5065L28.9006 4.77397C31.5081 3.45681 34.1157 3.45681 36.2887 4.77397C38.4616 6.31065 39.9827 8.72543 39.7654 10.9207V18.6041L42.373 20.1408V10.4816C41.7211 7.18875 39.1135 3.89587 35.8541 2.13966C34.5503 1.70061 33.4638 1.26156 32.3773 1.26156ZM5.43244 89.95C5.21514 89.95 5.21514 89.95 4.99784 89.95L1.30378 87.7547C0.217297 86.6571 0 86.218 0 84.9009V21.6775C0 19.0431 1.52108 16.8479 3.47676 15.3112L26.7276 2.13966C30.4216 0.163928 32.3773 -0.933701 36.7233 1.04203C40.4173 2.79824 43.2422 6.53018 43.8941 10.4816V21.4579C43.8941 21.6775 43.6768 21.897 43.4595 22.1165C43.2422 22.336 43.0249 22.336 42.8076 22.1165L38.8962 19.7017C38.6789 19.4822 38.4616 19.2627 38.4616 19.0431V10.9207C38.4616 9.16449 37.3752 7.18875 35.6368 6.09112C34.333 5.21302 32.3773 4.77397 29.5525 6.09112L7.82271 18.8236C6.30163 19.9212 5.21514 21.897 4.99784 24.0922V87.3157C4.99784 88.1938 4.99784 88.4133 5.64973 88.8523C5.86703 89.0719 5.86703 89.5109 5.86703 89.7305C5.86703 89.7305 5.64973 89.95 5.43244 89.95Z" fill="#262626"/>
<path fill-rule="evenodd" clip-rule="evenodd" d="M5.43245 89.2914L1.73839 87.0962C0.869202 86.4376 0.869202 85.9986 0.869202 84.9009V21.6775C0.869202 21.0189 0.869202 20.5799 1.0865 20.1408L4.78056 22.3361C4.56326 22.9946 4.34596 23.4337 4.34596 23.8727V87.0962C4.56326 88.1938 4.56326 88.6329 5.43245 89.2914Z" fill="white"/>
<path fill-rule="evenodd" clip-rule="evenodd" d="M1.30378 21.2384C1.30378 21.458 1.30378 21.6775 1.30378 21.897V84.9009C1.30378 85.779 1.30378 85.9986 1.95568 86.4376L3.69406 87.5352C3.69406 87.3157 3.69406 87.3157 3.69406 87.0962V23.8728C3.69406 23.4337 3.69406 22.9947 3.91135 22.5556L1.30378 21.2384ZM5.43244 89.95C5.21514 89.95 5.21514 89.95 4.99784 89.95L1.30378 87.7548C0.217297 86.6571 0 86.2181 0 84.9009V21.6775C0 21.0189 0 20.5799 0.217297 19.9213C0.434595 19.7018 0.434595 19.7018 0.651892 19.4822C0.86919 19.4822 1.08649 19.4822 1.30378 19.4822L4.99784 21.6775C5.21514 21.897 5.43244 22.1165 5.21514 22.3361C4.99784 22.9947 4.99784 23.2142 4.99784 23.8728V87.0962C4.99784 87.9743 4.99784 88.1938 5.64973 88.6329C5.86703 88.8524 5.86703 89.2914 5.86703 89.511C5.86703 89.7305 5.64973 89.95 5.43244 89.95Z" fill="#262626"/>
<path fill-rule="evenodd" clip-rule="evenodd" d="M12.3859 57.0211C12.1686 57.0211 11.9513 56.8015 11.7341 56.582C11.5168 56.3625 11.7341 55.9234 11.9513 55.7039L33.8984 42.9714C34.1157 42.7519 34.5503 42.9714 34.7676 43.191C34.9849 43.4105 34.7676 43.8495 34.5503 44.0691L12.8205 56.8015C12.6032 56.8015 12.6032 57.0211 12.3859 57.0211Z" fill="#E41D2C"/>
<path fill-rule="evenodd" clip-rule="evenodd" d="M12.3859 49.9962C12.1686 49.9962 11.9513 49.7767 11.7341 49.5572C11.5168 49.3376 11.7341 48.8986 11.9513 48.679L39.9827 32.4341C40.2 32.2146 40.6346 32.4341 40.8519 32.6537C41.0692 32.8732 40.8519 33.3122 40.6346 33.5318L12.8205 49.9962C12.6032 49.9962 12.6032 49.9962 12.3859 49.9962Z" fill="#E41D2C"/>
<path fill-rule="evenodd" clip-rule="evenodd" d="M12.3859 43.63C12.1686 43.63 11.9513 43.4105 11.7341 43.1909C11.5168 42.9714 11.7341 42.5324 11.9513 42.3128L39.9827 26.0679C40.2 25.8484 40.6346 26.0679 40.8519 26.2874C41.0692 26.507 40.8519 26.946 40.6346 27.1655L12.8205 43.4105C12.6032 43.63 12.6032 43.63 12.3859 43.63Z" fill="#E41D2C"/>
<path fill-rule="evenodd" clip-rule="evenodd" d="M12.3859 69.9731C12.1686 69.9731 11.9513 69.7536 11.7341 69.5341C11.5168 69.3145 11.7341 68.8755 11.9513 68.656L19.1222 64.485C19.3395 64.2654 19.7741 64.485 19.9914 64.7045C20.2087 64.924 19.9914 65.3631 19.7741 65.5826L12.6032 69.7536C12.6032 69.9731 12.6032 69.9731 12.3859 69.9731Z" fill="#E41D2C"/>
<path fill-rule="evenodd" clip-rule="evenodd" d="M12.3859 27.1656C12.1686 27.1656 11.9513 26.9461 11.7341 26.7266C11.5168 26.5071 11.7341 26.068 11.9513 25.8485L24.9892 18.1651C25.2065 17.9456 25.6411 18.1651 25.8584 18.3846C26.0757 18.6041 25.8584 19.0432 25.6411 19.2627L12.6032 26.9461C12.6032 27.1656 12.6032 27.1656 12.3859 27.1656Z" fill="#E41D2C"/>
<path fill-rule="evenodd" clip-rule="evenodd" d="M39.7654 49.3377C37.1578 50.8744 34.9849 54.6064 34.9849 57.6797C34.9849 58.9969 35.4195 59.875 36.0714 60.314C36.7233 60.7531 37.8097 60.5336 38.8962 59.875C41.5038 58.3383 43.6768 54.6064 43.6768 51.533C43.6768 50.2158 43.2422 49.3377 42.5903 48.8987C41.9384 48.4596 40.8519 48.6792 39.7654 49.3377ZM37.1579 61.8507C36.506 61.8507 36.0714 61.6312 35.4195 61.4117C34.333 60.7531 33.6811 59.4359 33.6811 57.4602C33.6811 53.9478 36.0714 49.7768 39.1135 48.0206C40.6346 47.1425 42.1557 46.923 43.2422 47.5815C44.3287 48.2401 44.9806 49.5573 44.9806 51.533C44.9806 55.0454 42.5903 59.2164 39.5481 60.9726C38.8962 61.6312 38.027 61.8507 37.1579 61.8507Z" fill="#E41D2C"/>
</svg>
