<svg width="85" height="94" viewBox="0 0 85 94" fill="none" xmlns="http://www.w3.org/2000/svg">
<path fill-rule="evenodd" clip-rule="evenodd" d="M72.6179 27.5797C72.2715 27.5797 71.925 27.2325 71.925 26.8854V4.89955C71.925 4.55241 72.2715 4.20526 72.6179 4.20526C73.0798 4.20526 73.3108 4.55241 73.3108 4.89955V26.7697C73.3108 27.2325 73.0798 27.5797 72.6179 27.5797Z" fill="#E41D2C"/>
<path fill-rule="evenodd" clip-rule="evenodd" d="M84.0502 33.4811C84.8585 49.4498 62.1094 50.8384 61.1856 33.4811H84.0502Z" fill="white"/>
<path fill-rule="evenodd" clip-rule="evenodd" d="M61.9939 34.0597C62.6868 42.044 68.4607 45.5155 73.5417 45.1683C78.3918 44.9369 83.3573 41.3498 83.3573 34.0597H61.9939ZM72.9643 46.6726C67.1904 46.6726 61.0701 42.6226 60.6082 33.4811C60.6082 33.2497 60.7237 33.134 60.8392 32.9026C61.0701 32.7869 61.1856 32.6711 61.4166 32.6711H84.2811C84.6276 32.6711 84.974 33.0183 84.974 33.3654C85.4359 41.6969 79.662 46.3255 73.7727 46.6726C73.3108 46.6726 73.1953 46.6726 72.9643 46.6726Z" fill="#E41D2C"/>
<path fill-rule="evenodd" clip-rule="evenodd" d="M66.844 39.3826C61.4166 37.5311 59.5689 33.4811 62.6868 30.3568C65.8047 27.2325 72.9643 26.0754 78.3918 27.9268C83.9347 29.7782 85.7823 33.8283 82.549 36.9526C79.4311 40.0769 72.3869 41.234 66.844 39.3826Z" fill="white"/>
<path fill-rule="evenodd" clip-rule="evenodd" d="M67.075 38.6883C72.3869 40.424 79.0847 39.3826 81.9716 36.374C83.0109 35.3326 83.4728 34.0597 83.2418 32.7868C82.7799 31.0511 80.9323 29.4311 78.0453 28.3897C72.8489 26.6539 66.1511 27.6954 63.1487 30.704C62.1094 31.8611 61.6475 33.0183 61.994 34.2911C62.3404 36.1426 64.3035 37.7626 67.075 38.6883ZM72.5024 41.0026C70.5393 41.0026 68.4607 40.6554 66.6131 40.0769C63.2642 38.9197 61.0701 36.9526 60.4927 34.754C60.1463 33.0183 60.7237 31.2825 62.1094 29.894C65.4583 26.5382 72.7334 25.3811 78.5073 27.3482C81.8561 28.5054 84.0502 30.4725 84.6276 32.6711C84.974 34.4068 84.3966 36.1426 83.0109 37.5311C80.8168 39.7297 76.7751 41.0026 72.5024 41.0026Z" fill="#E41D2C"/>
<path fill-rule="evenodd" clip-rule="evenodd" d="M66.844 39.3826C65.8047 39.0355 64.8809 38.5726 64.188 38.1097C67.6524 35.9112 73.6572 35.2169 78.3918 36.8369C79.4311 37.184 80.3549 37.6469 81.1633 38.1097C77.468 40.424 71.6941 41.0026 66.844 39.3826Z" fill="white"/>
<path fill-rule="evenodd" clip-rule="evenodd" d="M67.075 38.6883C71.1167 40.0769 76.0822 39.7297 79.5466 38.1097C79.0847 37.8783 78.6228 37.6469 78.0454 37.5311C74.0036 36.1426 69.0381 36.4897 65.5738 38.1097C66.0357 38.3411 66.6131 38.5726 67.075 38.6883ZM72.6179 41.0026C70.5393 41.0026 68.4607 40.6554 66.6131 40.0769C65.5738 39.7297 64.5345 39.2669 63.7261 38.6883C63.6107 38.5726 63.4952 38.3411 63.4952 38.1097C63.4952 37.8783 63.6107 37.6469 63.8416 37.5311C67.6524 35.1011 73.7727 34.5225 78.6228 36.1426C79.6621 36.4897 80.5859 36.9526 81.5097 37.5311C81.7407 37.6469 81.8561 37.8783 81.8561 38.1097C81.8561 38.3411 81.7407 38.5726 81.5097 38.6883C79.0847 40.1926 75.8513 41.0026 72.6179 41.0026Z" fill="#E41D2C"/>
<path fill-rule="evenodd" clip-rule="evenodd" d="M82.7799 37.4154C82.4335 37.4154 82.2025 37.184 82.087 36.9526L72.2714 5.01527C72.156 4.66812 72.3869 4.20526 72.7333 4.08955C73.0798 3.97383 73.5417 4.20526 73.6572 4.55241L83.4728 36.374C83.5883 36.7212 83.3573 37.184 83.0109 37.2997C82.8954 37.4154 82.8954 37.4154 82.7799 37.4154Z" fill="#E41D2C"/>
<path fill-rule="evenodd" clip-rule="evenodd" d="M61.763 36.0269C61.6475 36.0269 61.6475 36.0269 61.5321 36.0269C61.0702 35.9112 60.9547 35.4483 61.0702 35.1011L71.5786 4.66813C71.6941 4.32099 72.156 4.08956 72.5024 4.20527C72.8489 4.32099 73.0798 4.78385 72.9644 5.13099L62.4559 35.564C62.3404 35.7954 61.994 36.0269 61.763 36.0269Z" fill="#E41D2C"/>
<path fill-rule="evenodd" clip-rule="evenodd" d="M71.5786 7.67668C73.3108 8.13954 75.1584 7.0981 75.6203 5.36238C76.0822 3.62665 75.0429 1.77522 73.3108 1.31236C71.5786 0.849496 69.731 1.89093 69.2691 3.62665C68.6917 5.36238 69.8464 7.0981 71.5786 7.67668Z" fill="white"/>
<path fill-rule="evenodd" clip-rule="evenodd" d="M71.8096 6.98243C73.1953 7.32958 74.581 6.51957 74.9275 5.13099C75.2739 3.74241 74.4656 2.35384 73.0798 1.89098C71.6941 1.54383 70.1929 2.35384 69.8464 3.74241C69.5 5.13099 70.4238 6.51957 71.8096 6.98243ZM72.387 8.48673C72.0405 8.48673 71.6941 8.48673 71.3477 8.37101C69.2691 7.79244 67.9988 5.59385 68.5762 3.39527C69.1536 1.19669 71.3477 -0.076178 73.4263 0.502397C75.5048 1.08097 76.7751 3.27955 76.3132 5.47814C75.8513 7.21386 74.2346 8.48673 72.387 8.48673Z" fill="#262626"/>
<path fill-rule="evenodd" clip-rule="evenodd" d="M12.1076 62.757C11.6457 62.757 11.4147 62.4099 11.4147 62.0628V40.0769C11.4147 39.7298 11.7611 39.3826 12.1076 39.3826C12.454 39.3826 12.8004 39.7298 12.8004 40.0769V61.947C12.9159 62.4099 12.5695 62.757 12.1076 62.757Z" fill="#E41D2C"/>
<path fill-rule="evenodd" clip-rule="evenodd" d="M23.5398 68.5428C24.3482 84.5115 1.59908 85.9 0.790741 68.5428H23.5398Z" fill="white"/>
<path fill-rule="evenodd" clip-rule="evenodd" d="M1.48363 69.237C2.1765 77.2214 7.95038 80.5771 13.0314 80.3457C17.8815 80.1142 22.9625 76.5271 22.847 69.237H1.48363ZM12.454 81.85C6.68013 81.85 0.559811 77.7999 0.0979004 68.6585C0.0979004 68.427 0.213378 68.3113 0.328856 68.0799C0.444334 67.9642 0.675289 67.8484 0.906244 67.8484H23.6554C24.1173 67.8484 24.3482 68.1956 24.3482 68.5427C24.8101 76.8742 19.0362 81.5028 13.1469 81.85C12.9159 81.85 12.685 81.85 12.454 81.85Z" fill="#E41D2C"/>
<path fill-rule="evenodd" clip-rule="evenodd" d="M6.44918 74.5599C1.02173 72.7085 -0.941391 68.6584 2.29198 65.5341C5.40988 62.4098 12.454 61.2527 17.997 63.1041C23.4244 64.9556 25.272 69.0056 22.1542 72.1299C18.9208 75.2542 11.8766 76.2956 6.44918 74.5599Z" fill="white"/>
<path fill-rule="evenodd" clip-rule="evenodd" d="M12.1076 62.8727C8.29681 62.8727 4.717 64.0298 2.6384 65.997C1.5991 67.1541 1.13719 68.3113 1.48363 69.5841C1.94554 71.3199 3.79318 72.9399 6.68012 73.9813C11.9921 75.717 18.6898 74.6756 21.5767 71.7827C22.616 70.6256 23.078 69.4684 22.7315 68.1956C22.3851 66.4598 20.422 64.8398 17.535 63.7984C15.9183 63.1041 14.0707 62.8727 12.1076 62.8727ZM12.1076 76.0642C10.1445 76.0642 8.06586 75.717 6.21821 75.1385C2.86936 73.9813 0.675283 72.0142 0.213372 69.8156C-0.248539 68.0799 0.444327 66.3441 1.83006 64.9555C5.17891 61.5998 12.454 60.4427 18.2279 62.4098C21.5767 63.567 23.7708 65.5341 24.2327 67.7327C24.6946 69.4684 24.0018 71.2042 22.616 72.5927C20.3065 74.7913 16.2648 76.0642 12.1076 76.0642Z" fill="#E41D2C"/>
<path fill-rule="evenodd" clip-rule="evenodd" d="M6.44917 74.5599C5.40987 74.2128 4.48605 73.7499 3.6777 73.2871C7.25751 71.0885 13.1469 70.3942 17.8815 72.0142C18.9208 72.3613 19.8446 72.8242 20.6529 73.2871C17.0731 75.4856 11.1838 76.0642 6.44917 74.5599Z" fill="white"/>
<path fill-rule="evenodd" clip-rule="evenodd" d="M5.17891 73.2871C5.64082 73.5185 6.10273 73.7499 6.68012 73.8657C10.7218 75.2542 15.6874 74.9071 19.1517 73.2871C18.6898 73.0556 18.2279 72.8242 17.6505 72.7085C13.7243 71.3199 8.64324 71.5513 5.17891 73.2871ZM12.1076 76.0642C10.1444 76.0642 8.06585 75.7171 6.10273 75.1385C5.06343 74.7914 4.13961 74.3285 3.21579 73.7499C2.98483 73.6342 2.86935 73.4028 2.86935 73.1714C2.86935 72.9399 2.98483 72.7085 3.21579 72.5928C7.02655 70.1628 13.1469 69.5842 17.9969 71.2042C19.0362 71.5513 19.9601 72.0142 20.8839 72.5928C21.1148 72.7085 21.2303 72.9399 21.2303 73.1714C21.2303 73.4028 20.9994 73.6342 20.8839 73.7499C18.5743 75.3699 15.4564 76.0642 12.1076 76.0642Z" fill="#E41D2C"/>
<path fill-rule="evenodd" clip-rule="evenodd" d="M22.2696 72.4771C21.9232 72.4771 21.6922 72.2457 21.5767 72.0142L11.7611 40.1926C11.6456 39.8455 11.8766 39.3826 12.223 39.2669C12.5695 39.1512 12.9159 39.3826 13.0314 39.7298L22.847 71.5514C22.9625 71.8985 22.7315 72.3614 22.3851 72.4771C22.5005 72.4771 22.5005 72.4771 22.2696 72.4771Z" fill="#E41D2C"/>
<path fill-rule="evenodd" clip-rule="evenodd" d="M1.25266 71.0885C1.13718 71.0885 1.13718 71.0885 1.0217 71.0885C0.675271 70.9728 0.444316 70.5099 0.559794 70.1628L11.1837 39.7298C11.2992 39.3826 11.7611 39.1512 12.1076 39.2669C12.454 39.3826 12.685 39.8455 12.5695 40.1926L1.94553 70.6257C1.83005 70.9728 1.59909 71.0885 1.25266 71.0885Z" fill="#E41D2C"/>
<path fill-rule="evenodd" clip-rule="evenodd" d="M71.4631 3.39527C71.1167 3.27956 70.8857 3.16384 70.5393 3.27956L40.7461 20.5211C41.3235 20.2896 41.9008 20.7525 42.2473 21.2154C42.7092 21.7939 43.0556 22.6039 42.9401 23.2982C42.9401 23.5297 42.8247 23.7611 42.5937 23.8768L72.5024 6.51958C72.8489 6.28815 72.8489 5.941 72.8489 5.59386C72.7334 4.78385 72.2715 3.85813 71.4631 3.39527Z" fill="white"/>
<path fill-rule="evenodd" clip-rule="evenodd" d="M42.4782 20.4053C42.5937 20.5211 42.8247 20.6368 42.8247 20.7525C43.1711 21.0996 43.5175 21.7939 43.633 22.3725L72.156 5.94098C72.156 5.94098 72.156 5.82527 72.156 5.59384C72.156 5.01526 71.6941 4.32097 71.2322 3.97383L71.5786 3.39525L71.2322 3.97383C71.0012 3.97383 70.8857 3.85811 70.8857 3.85811L42.4782 20.4053ZM42.7092 24.4554C42.4782 24.4554 42.2473 24.3397 42.1318 24.1082C41.9008 23.7611 42.0163 23.2982 42.3627 23.1825C42.4782 22.7196 42.2473 22.1411 41.9008 21.6782C41.5544 21.3311 41.3234 21.2153 41.208 21.2153C40.8615 21.4468 40.3996 21.2154 40.2841 20.8682C40.0532 20.5211 40.1687 20.0582 40.6306 19.9425L70.1929 2.70097C70.6548 2.46954 71.2322 2.46954 71.8096 2.81668H71.925C72.7334 3.39525 73.5417 4.5524 73.5417 5.59384C73.5417 6.28813 73.3108 6.8667 72.8489 7.21385L43.0556 24.4554C42.9401 24.4554 42.8247 24.4554 42.7092 24.4554Z" fill="#262626"/>
<path fill-rule="evenodd" clip-rule="evenodd" d="M43.7484 70.3942C37.8591 70.3942 32.2007 72.1299 29.0828 75.2542C27.3506 76.9899 26.6577 79.0728 27.1197 81.0399C27.8125 83.9328 30.8149 86.4785 35.3186 87.9828C43.5175 90.6443 53.9105 89.14 58.5296 84.3957C60.3772 82.66 60.9546 80.5771 60.4927 78.6099C59.7998 75.7171 56.7974 73.1713 52.4093 71.667C49.6378 70.7413 46.6354 70.3942 43.7484 70.3942ZM43.633 90.6443C40.6305 90.6443 37.5126 90.1814 34.7412 89.2557C29.7756 87.6357 26.4268 84.7428 25.6184 81.2714C25.0411 78.8414 25.9649 76.2956 28.0435 74.2128C33.009 69.237 44.0949 67.5013 52.7557 70.2785C57.7213 71.8985 61.0701 74.7913 61.8784 78.2628C62.4558 80.6928 61.6475 83.2385 59.5689 85.3214C56.1046 88.7929 49.9842 90.6443 43.633 90.6443Z" fill="#262626"/>
<path fill-rule="evenodd" clip-rule="evenodd" d="M27.1197 84.1642C27.5816 86.4785 29.5447 88.2143 30.6995 89.0243C36.5889 93.0743 45.8271 93.3057 51.9474 91.3386C55.6427 90.1814 59.6844 87.7514 60.3773 84.1642C57.2594 88.33 50.9081 90.1814 45.8271 90.5286C40.2841 90.8757 32.2007 89.7185 27.8125 85.0899C27.5816 84.8585 27.3506 84.5114 27.1197 84.1642ZM43.633 94C38.7829 94 33.7019 92.9586 29.8911 90.2971C28.2745 89.2557 25.6185 86.8257 25.503 83.4699V80.1142C25.503 79.7671 25.8494 79.4199 26.1959 79.4199C26.5423 79.4199 26.8887 79.6513 26.8887 80.1142C27.0042 81.7342 27.5816 83.0071 28.8518 84.2799C32.5471 88.2143 39.9377 89.6028 45.7116 89.2557C50.5617 88.9085 56.7975 87.1728 59.4534 83.1228C60.1463 82.1971 60.3773 81.2714 60.4927 80.1142C60.4927 79.7671 60.8392 79.4199 61.1856 79.4199C61.532 79.4199 61.8785 79.7671 61.8785 80.1142V80.8085C61.8785 82.1971 61.8785 83.5857 61.763 84.0485C61.0701 89.6028 54.3724 92.1486 52.2938 92.7271C49.8688 93.5371 46.8664 94 43.633 94Z" fill="#262626"/>
<path fill-rule="evenodd" clip-rule="evenodd" d="M43.7485 70.9728C39.9377 70.9728 36.2424 72.13 34.1638 74.0971C33.1245 75.2543 32.6626 76.4114 32.8936 77.6843C33.3555 79.5357 35.3186 81.1557 38.2055 82.0814C43.5175 83.8172 50.3307 82.7757 53.3331 79.7671C54.3724 78.61 54.9498 77.4528 54.6034 76.18C54.1415 74.3285 52.2938 72.7085 49.2914 71.7828C47.5592 71.32 45.5961 70.9728 43.7485 70.9728ZM43.633 84.3957C41.6699 84.3957 39.5913 84.0486 37.6281 83.47C34.2793 82.3129 31.9697 80.3457 31.5078 78.0314C31.0459 76.2957 31.6233 74.56 33.1245 73.0557C36.4734 69.6999 43.9794 68.5428 49.7533 70.3942C53.1022 71.5514 55.4117 73.5185 55.8736 75.8328C56.3355 77.5686 55.6427 79.3043 54.2569 80.8086C52.0629 83.1229 47.9057 84.3957 43.633 84.3957Z" fill="#262626"/>
<path fill-rule="evenodd" clip-rule="evenodd" d="M33.4709 81.1557C34.0483 81.9657 34.7412 82.66 35.3186 83.0071C39.1293 85.6686 45.1342 85.7843 49.1759 84.5114C51.0235 83.9329 53.1021 82.7757 54.026 81.1557C51.8319 83.2386 48.1366 84.28 45.1342 84.3957C41.5544 84.6271 36.4734 83.9329 33.4709 81.1557ZM43.7485 86.5943C40.3996 86.5943 37.0507 85.9 34.5102 84.0486C32.6626 82.7757 31.6233 81.04 31.5078 79.3043V77.1057C31.5078 76.7585 31.8542 76.4114 32.2007 76.4114C32.5471 76.4114 32.8935 76.6428 33.009 77.1057C33.1245 78.1471 33.4709 78.9571 34.1638 79.7671C36.5888 82.3128 41.4389 83.2386 45.1342 83.0071C48.2521 82.7757 52.2938 81.6186 54.026 79.0728C54.3724 78.4943 54.6034 77.9157 54.7188 77.1057C54.7188 76.7585 54.9498 76.4114 55.4117 76.4114C55.7581 76.4114 56.1046 76.7585 56.1046 77.1057V77.5685C56.1046 78.61 56.1046 79.42 56.1046 79.7671C55.6427 83.5857 51.0235 85.3214 49.6378 85.6686C47.9056 86.3629 45.8271 86.5943 43.7485 86.5943Z" fill="#262626"/>
<path fill-rule="evenodd" clip-rule="evenodd" d="M45.2497 78.0314C45.5961 77.8 45.8271 77.5685 45.8271 77.2214V23.6454C45.8271 24.3397 45.0187 24.6868 44.4414 24.8025C43.7485 25.034 42.5937 24.9183 42.0163 24.3397C41.7854 24.224 41.6699 23.9925 41.6699 23.6454V77.1057C41.6699 77.5685 42.1318 77.9157 42.4782 78.0314C43.2866 78.4943 44.4414 78.4943 45.2497 78.0314Z" fill="white"/>
<path fill-rule="evenodd" clip-rule="evenodd" d="M44.9033 77.3371L45.2497 77.9156L44.9033 77.3371C45.1342 77.2213 45.1342 77.1056 45.2497 77.1056V25.3811C45.0187 25.4968 44.9033 25.4968 44.6723 25.4968C43.9794 25.6125 43.0556 25.6125 42.3628 25.3811V77.2213C42.3628 77.2213 42.4782 77.4528 42.8247 77.5685C43.402 77.6842 44.3259 77.6842 44.9033 77.3371ZM43.7485 79.0728C43.1711 79.0728 42.7092 78.9571 42.2473 78.7256C41.4389 78.3785 40.8615 77.7999 40.8615 77.1056V23.6453C40.8615 23.2982 41.208 22.951 41.5544 22.951C41.9008 22.951 42.2473 23.2982 42.2473 23.6453L42.3628 23.7611C42.8247 24.1082 43.7485 24.2239 44.3259 24.1082C44.7878 23.9925 45.1342 23.7611 45.1342 23.6453C45.1342 23.2982 45.4806 22.951 45.8271 22.951H45.9426C46.289 22.951 46.6354 23.2982 46.6354 23.6453V77.1056C46.6354 77.6842 46.289 78.1471 45.7116 78.6099H45.5961C45.0187 78.9571 44.4414 79.0728 43.7485 79.0728Z" fill="#262626"/>
<path fill-rule="evenodd" clip-rule="evenodd" d="M42.1318 27.9268C45.5961 28.8526 49.2914 26.7697 50.2152 23.2982C51.139 19.8268 49.0604 16.1239 45.5961 15.1982C42.1318 14.2725 38.4365 16.3553 37.5127 19.8268C36.5888 23.414 38.6674 27.0011 42.1318 27.9268Z" fill="white"/>
<path fill-rule="evenodd" clip-rule="evenodd" d="M43.9794 15.7768C41.3234 15.7768 39.0139 17.5125 38.321 20.1739C37.8591 21.6782 38.09 23.2982 38.8984 24.6868C39.7067 26.0754 40.8615 27.0011 42.3627 27.464C43.9794 27.9268 45.4806 27.6954 46.8664 26.8854C48.2521 26.0754 49.1759 24.8025 49.6378 23.2982C50.0997 21.7939 49.8688 20.1739 49.0604 18.7853C48.2521 17.3968 46.9818 16.4711 45.4806 16.0082C44.9032 15.7768 44.4413 15.7768 43.9794 15.7768ZM43.9794 28.9683C43.2865 28.9683 42.7092 28.8525 42.0163 28.7368C40.1686 28.274 38.552 27.0011 37.6281 25.3811C36.7043 23.6454 36.4734 21.6782 36.9353 19.8268C37.9746 15.8925 41.9008 13.5782 45.9425 14.6196C47.7902 15.0825 49.4069 16.3553 50.3307 17.9753C51.2545 19.7111 51.4855 21.6782 51.0236 23.5297C50.5616 25.3811 49.2914 27.0011 47.6747 27.9268C46.4044 28.6211 45.2497 28.9683 43.9794 28.9683Z" fill="#262626"/>
<path fill-rule="evenodd" clip-rule="evenodd" d="M40.746 21.2153C40.3996 21.0996 40.1686 20.9839 39.8222 21.0996L10.029 38.3411C10.6063 38.1097 11.1837 38.5726 11.5302 39.0354C11.9921 39.614 12.3385 40.424 12.223 41.1183C12.223 41.3497 12.1076 41.5812 11.8766 41.6969L41.6699 24.4554C42.0163 24.2239 42.0163 23.8768 42.0163 23.5296C42.0163 22.6039 41.5544 21.5625 40.746 21.2153Z" fill="white"/>
<path fill-rule="evenodd" clip-rule="evenodd" d="M11.7611 38.1097C11.8766 38.2255 11.9921 38.3412 12.1076 38.4569C12.454 38.804 12.8004 39.4983 12.9159 40.0769L41.3234 23.6454C41.3234 23.6454 41.3234 23.5297 41.3234 23.2982C41.3234 22.7197 40.8615 22.0254 40.3996 21.6782L40.746 21.0997L40.3996 21.794C40.2841 21.6782 40.1686 21.6782 40.1686 21.6782L11.7611 38.1097ZM11.8766 42.2755C11.6456 42.2755 11.4147 42.1598 11.2992 41.9283C11.0683 41.5812 11.1837 41.1183 11.5302 41.0026C11.6456 40.5398 11.4147 39.9612 11.0683 39.4983C10.7218 39.0355 10.3754 38.9198 10.3754 38.9198C10.029 39.0355 9.56705 38.9198 9.45157 38.5726C9.22061 38.2255 9.33609 37.7626 9.798 37.6469L39.5913 20.4054C40.0532 20.1739 40.6306 20.1739 41.2079 20.5211H41.3234C42.1318 21.0997 42.9401 22.2568 42.9401 23.2982C42.9401 23.9925 42.7091 24.5711 42.2472 24.9183L12.223 42.1598C12.1076 42.2755 11.9921 42.2755 11.8766 42.2755Z" fill="#262626"/>
<path fill-rule="evenodd" clip-rule="evenodd" d="M11.0683 42.7384C12.8004 43.2012 14.6481 42.1598 15.11 40.4241C15.5719 38.6884 14.5326 36.8369 12.8004 36.3741C10.9528 35.9112 9.22064 36.9526 8.75872 38.6884C8.29681 40.4241 9.33611 42.2755 11.0683 42.7384Z" fill="white"/>
<path fill-rule="evenodd" clip-rule="evenodd" d="M11.2992 42.044C12.685 42.3912 14.1862 41.5812 14.5326 40.1926C14.879 38.804 14.0707 37.4154 12.685 36.9526C11.2992 36.6054 9.9135 37.4154 9.56707 38.804C9.10516 40.3083 9.9135 41.6969 11.2992 42.044ZM11.8766 43.5483C11.5302 43.5483 11.1838 43.5483 10.8373 43.4326C8.75872 42.854 7.48847 40.6554 7.95038 38.4569C8.52777 36.2583 10.7218 34.9854 12.9159 35.564C14.9945 36.1426 16.2648 38.3411 15.6874 40.5397C15.341 42.3912 13.7243 43.5483 11.8766 43.5483Z" fill="#E41D2C"/>
</svg>
