<svg width="111" height="93" viewBox="0 0 111 93" fill="none" xmlns="http://www.w3.org/2000/svg">
<path d="M1 22.7606V65.3933L38.2212 86.5449V44.8063L1 22.7606Z" stroke="#262626" stroke-miterlimit="10" stroke-linecap="round" stroke-linejoin="round"/>
<path d="M38.2213 44.8063L74.8778 22.7606V65.3933L38.2213 86.5449V44.8063Z" stroke="#262626" stroke-miterlimit="10" stroke-linecap="round" stroke-linejoin="round"/>
<path d="M74.8778 22.7607L38.2212 1.2561L1 22.7607L38.2212 44.8063L74.8778 22.7607Z" stroke="#262626" stroke-miterlimit="10" stroke-linecap="round" stroke-linejoin="round"/>
<path d="M5.72913 52.1V59.2054L21.0223 68.1696V60.97L5.72913 52.1Z" stroke="#E41D2C" stroke-miterlimit="10" stroke-linecap="round" stroke-linejoin="round"/>
<path d="M16.8343 14.0553L51.8204 36.4304V43.4417L54.7849 40.5949L56.9495 41.2066L58.9493 38.7597L61.3492 38.0303L61.1845 30.8543L26.4102 8.62036" stroke="#E41D2C" stroke-miterlimit="10" stroke-linecap="round" stroke-linejoin="round"/>
<path d="M62.7667 51.4229L82.1444 39.9173L89.4111 59.2951L62.7667 79.2784V51.4229Z" fill="white"/>
<path d="M62.7667 51.2438V78.5007L86.5638 92.0239V65.3386L62.7667 51.2438Z" stroke="#262626" stroke-miterlimit="10" stroke-linecap="round" stroke-linejoin="round"/>
<path d="M86.5638 65.3386L110 51.2438V78.5007L86.5638 92.0239V65.3386Z" stroke="#262626" stroke-miterlimit="10" stroke-linecap="round" stroke-linejoin="round"/>
<path d="M110 51.2438L86.5638 37.495L62.7667 51.2438L86.5638 65.3386L110 51.2438Z" stroke="#262626" stroke-miterlimit="10" stroke-linecap="round" stroke-linejoin="round"/>
<path d="M65.7902 70.0018V74.5446L75.5678 80.2758V75.6728L65.7902 70.0018Z" stroke="#E41D2C" stroke-miterlimit="10" stroke-linecap="round" stroke-linejoin="round"/>
<path d="M72.8903 45.6781L95.2584 59.9835V64.4662L97.1537 62.646L98.5377 63.0371L99.8163 61.4727L101.351 61.0064L101.245 56.4184L79.0125 42.2033" stroke="#E41D2C" stroke-miterlimit="10" stroke-linecap="round" stroke-linejoin="round"/>
</svg>
