<svg width="17" height="16" viewBox="0 0 17 16" fill="none" xmlns="http://www.w3.org/2000/svg">
<path d="M8.45068 12.6094C8.88216 12.6094 9.23193 12.2596 9.23193 11.8281C9.23193 11.3967 8.88216 11.0469 8.45068 11.0469C8.01921 11.0469 7.66943 11.3967 7.66943 11.8281C7.66943 12.2596 8.01921 12.6094 8.45068 12.6094Z" fill="#E41D2C"/>
<path d="M8.45068 0C4.02881 0 0.450684 3.57812 0.450684 8C0.450684 12.4219 4.02881 16 8.45068 16C12.8726 16 16.4507 12.4219 16.4507 8C16.4507 3.57812 12.8726 0 8.45068 0ZM8.45068 14.75C4.71943 14.75 1.70068 11.7312 1.70068 8C1.70068 4.26875 4.71943 1.25 8.45068 1.25C12.1819 1.25 15.2007 4.26875 15.2007 8C15.2007 11.7312 12.1819 14.75 8.45068 14.75Z" fill="#E41D2C"/>
<path d="M8.45068 4.01562C7.07256 4.01562 5.95068 5.1375 5.95068 6.51562C5.95068 6.85938 6.23193 7.14062 6.57568 7.14062C6.91943 7.14062 7.20068 6.85938 7.20068 6.51562C7.20068 5.825 7.76006 5.26562 8.45068 5.26562C9.14131 5.26562 9.70068 5.825 9.70068 6.51562C9.70068 7.20625 9.14131 7.76562 8.45068 7.76562C8.10693 7.76562 7.82568 8.04688 7.82568 8.39062V9.95312C7.82568 10.2969 8.10693 10.5781 8.45068 10.5781C8.79443 10.5781 9.07568 10.2969 9.07568 9.95312V8.9375C10.1538 8.65938 10.9507 7.67812 10.9507 6.51562C10.9507 5.1375 9.82881 4.01562 8.45068 4.01562Z" fill="#E41D2C"/>
</svg>
