<svg width="22" height="22" viewBox="0 0 22 22" fill="none" xmlns="http://www.w3.org/2000/svg">
<path d="M10.6622 14.7478C10.0332 14.7478 9.52393 15.272 9.52393 15.9011C9.52393 16.5152 10.0182 17.0544 10.6622 17.0544C11.3062 17.0544 11.8155 16.5152 11.8155 15.9011C11.8155 15.272 11.2913 14.7478 10.6622 14.7478Z" fill="#E41D2C"/>
<path d="M10.6622 14.7478C10.0332 14.7478 9.52393 15.272 9.52393 15.9011C9.52393 16.5152 10.0182 17.0544 10.6622 17.0544C11.3062 17.0544 11.8155 16.5152 11.8155 15.9011C11.8155 15.272 11.2913 14.7478 10.6622 14.7478Z" stroke="#E41D2C"/>
<path d="M10.8573 6.01562C8.83534 6.01562 7.90674 7.21381 7.90674 8.02261C7.90674 8.60677 8.40096 8.87635 8.80539 8.87635C9.146 8.87635 9.28472 8.67179 9.44532 8.43497C9.66603 8.10949 9.92807 7.72307 10.8124 7.72307C11.5613 7.72307 12.1604 8.0526 12.1604 8.74156C12.1604 9.4034 11.5988 9.83454 11.1239 10.1991C11.0184 10.2801 10.9172 10.3578 10.8274 10.4341C10.393 10.8085 9.82388 11.4226 9.82388 12.7107C9.82388 13.4895 10.0335 13.7142 10.6476 13.7142C11.3815 13.7142 11.5313 13.3847 11.5313 13.1001C11.5313 12.3212 11.5463 11.8719 12.3701 11.2279C12.7745 10.9134 14.0476 9.89489 14.0476 8.48697C14.0476 7.07906 12.7745 6.01562 10.8573 6.01562Z" fill="#E41D2C"/>
<path d="M10.8573 6.01562C8.83534 6.01562 7.90674 7.21381 7.90674 8.02261C7.90674 8.60677 8.40096 8.87635 8.80539 8.87635C9.146 8.87635 9.28472 8.67179 9.44532 8.43497C9.66603 8.10949 9.92807 7.72307 10.8124 7.72307C11.5613 7.72307 12.1604 8.0526 12.1604 8.74156C12.1604 9.4034 11.5988 9.83454 11.1239 10.1991C11.0184 10.2801 10.9172 10.3578 10.8274 10.4341C10.393 10.8085 9.82388 11.4226 9.82388 12.7107C9.82388 13.4895 10.0335 13.7142 10.6476 13.7142C11.3815 13.7142 11.5313 13.3847 11.5313 13.1001C11.5313 12.3212 11.5463 11.8719 12.3701 11.2279C12.7745 10.9134 14.0476 9.89489 14.0476 8.48697C14.0476 7.07906 12.7745 6.01562 10.8573 6.01562Z" stroke="#E41D2C"/>
<path d="M10.9999 0C17.0793 0 21.9999 4.91979 21.9999 11L22 22H10.9999C4.9206 22 -5.34058e-05 17.0802 -5.34058e-05 11C-5.34058e-05 4.92061 4.91973 0 10.9999 0ZM10.9999 20.2812H20.2812V11C20.2812 5.87052 16.1301 1.71875 10.9999 1.71875C5.87046 1.71875 1.7187 5.86983 1.7187 11C1.7187 16.1295 5.86978 20.2812 10.9999 20.2812Z" fill="#E41D2C"/>
<path d="M10.9999 0C17.0793 0 21.9999 4.91979 21.9999 11L22 22H10.9999C4.9206 22 -5.34058e-05 17.0802 -5.34058e-05 11C-5.34058e-05 4.92061 4.91973 0 10.9999 0ZM10.9999 20.2812H20.2812V11C20.2812 5.87052 16.1301 1.71875 10.9999 1.71875C5.87046 1.71875 1.7187 5.86983 1.7187 11C1.7187 16.1295 5.86978 20.2812 10.9999 20.2812Z" stroke="#E41D2C"/>
</svg>
