<svg width="24" height="25" viewBox="0 0 24 25" fill="none" xmlns="http://www.w3.org/2000/svg">
<g clip-path="url(#clip0)">
<path d="M0 4.75587L0 23.0285C0 23.5812 0.447998 24.0297 1 24.0297H5C5.552 24.0297 6 23.5812 6 23.0285L6 4.75587C6 4.20318 5.552 3.75463 5 3.75463H1C0.447998 3.75463 0 4.20318 0 4.75587ZM4 5.75711L4 22.0272H2L2 5.75711H4Z" fill="#E41D2C"/>
<path d="M9 10.0124V23.0285C9 23.5812 9.448 24.0297 10 24.0297H14C14.552 24.0297 15 23.5812 15 23.0285V10.0124C15 9.45969 14.552 9.01114 14 9.01114H10C9.448 9.01114 9 9.45969 9 10.0124ZM13 11.0136V22.0272H11V11.0136H13Z" fill="#E41D2C"/>
<path d="M18 14.518V23.0285C18 23.5812 18.448 24.0297 19 24.0297H23C23.552 24.0297 24 23.5812 24 23.0285V14.518C24 13.9653 23.552 13.5167 23 13.5167H19C18.448 13.5167 18 13.9653 18 14.518ZM22 15.5192V22.0272H20V15.5192H22Z" fill="#E41D2C"/>
</g>
<defs>
<clipPath id="clip0">
<rect width="24.0297" height="24" fill="white" transform="translate(0 24.0297) rotate(-90)"/>
</clipPath>
</defs>
</svg>
