<svg width="21" height="20" viewBox="0 0 21 20" fill="none" xmlns="http://www.w3.org/2000/svg">
<path d="M18.5123 0.685645H2.68748C1.69957 0.685645 0.9 1.50771 0.9 2.51337V14.0315C0.9 15.0372 1.69957 15.8593 2.68748 15.8593H4.31247V18.6388C4.31247 18.9108 4.47256 19.1578 4.72068 19.263C4.96923 19.3683 5.25493 19.3097 5.44426 19.1159L8.62503 15.8593H18.5123C19.5002 15.8593 20.2998 15.0372 20.2998 14.0315V2.51337C20.2998 1.50771 19.5002 0.685645 18.5123 0.685645ZM18.9748 14.0315C18.9748 14.2961 18.7651 14.5075 18.5123 14.5075H8.34993C8.17345 14.5075 8.00471 14.5793 7.88067 14.7063L5.63746 17.0029V15.1834C5.63746 14.8123 5.34305 14.5075 4.97496 14.5075H2.68748C2.43476 14.5075 2.22499 14.2961 2.22499 14.0315V2.51337C2.22499 2.24881 2.43476 2.03746 2.68748 2.03746H18.5123C18.7651 2.03746 18.9748 2.24881 18.9748 2.51337V14.0315Z" fill="#E41D2C" stroke="#E41D2C" stroke-width="0.2"/>
</svg>
