<svg width="18" height="18" viewBox="0 0 18 18" fill="none" xmlns="http://www.w3.org/2000/svg">
<path fill-rule="evenodd" clip-rule="evenodd" d="M1.80002 8.10011C1.80002 4.62067 4.62067 1.80002 8.10011 1.80002C11.5795 1.80002 14.4002 4.62067 14.4002 8.10011C14.4002 9.79711 13.7292 11.3374 12.6381 12.4702C12.6071 12.494 12.5772 12.5201 12.5488 12.5485C12.5204 12.577 12.4943 12.6068 12.4704 12.6379C11.3376 13.7291 9.79724 14.4002 8.10011 14.4002C4.62067 14.4002 1.80002 11.5795 1.80002 8.10011ZM13.1563 14.4288C11.7705 15.5373 10.0127 16.2002 8.10011 16.2002C3.62654 16.2002 0 12.5737 0 8.10011C0 3.62654 3.62654 0 8.10011 0C12.5737 0 16.2002 3.62654 16.2002 8.10011C16.2002 10.0126 15.5374 11.7702 14.429 13.1559L17.7367 16.4636C18.0882 16.8151 18.0882 17.3849 17.7367 17.7364C17.3852 18.0879 16.8154 18.0879 16.4639 17.7364L13.1563 14.4288Z" fill="#E41D2C"/>
</svg>
