<svg width="20" height="20" viewBox="0 0 20 20" fill="none" xmlns="http://www.w3.org/2000/svg">
<path d="M18.9392 7.79065L18.9395 7.79068C18.9427 7.79098 18.9496 7.79222 18.9598 7.80078C18.9704 7.80958 18.9842 7.82631 18.993 7.85437L19.9477 7.55686L18.9928 7.85375C19.0126 7.91756 18.9889 7.97391 18.9625 7.99824C18.9624 7.9983 18.9624 7.99836 18.9623 7.99842L14.5983 11.9915L14.1739 12.3798L14.2962 12.9419L15.5828 18.855C15.5977 18.9238 15.5671 18.9734 15.5446 18.9904L15.5438 18.991C15.5378 18.9955 15.5333 18.9975 15.5307 18.9985C15.5297 18.9988 15.5289 18.9991 15.5281 18.9993C15.5264 18.9997 15.525 18.9999 15.5238 18.9999C15.522 19 15.52 18.9999 15.5178 18.9993C15.5157 18.9987 15.512 18.9975 15.5066 18.9941L10.5294 15.8881L10.0001 15.5577L9.47066 15.888L4.49225 18.9943L4.49197 18.9945C4.48717 18.9975 4.4838 18.9987 4.48188 18.9992C4.47986 18.9998 4.47814 19 4.47655 19C4.47422 19 4.47206 18.9997 4.46977 18.9989C4.46769 18.9982 4.46353 18.9965 4.45741 18.9919L4.45542 18.9904C4.43293 18.9734 4.40237 18.9239 4.41716 18.8552C4.41718 18.8551 4.41719 18.855 4.41721 18.855L5.70378 12.9419L5.82608 12.3798L5.40171 11.9915L1.03754 7.99826C1.02542 7.98717 1.01238 7.96852 1.00511 7.94085C0.997899 7.91341 0.998202 7.88353 1.00675 7.8554C1.0158 7.82726 1.02985 7.81025 1.04071 7.80119C1.05116 7.79248 1.05841 7.79092 1.06215 7.79053C1.06223 7.79052 1.0623 7.79051 1.06238 7.79051L6.83514 7.2437L7.43721 7.18667L7.66631 6.62697L9.94799 1.05267L9.94818 1.05221C9.95883 1.02616 9.97271 1.01282 9.98161 1.00668C9.99016 1.00079 9.9958 1 10 1C10.0041 1 10.0099 1.00074 10.0187 1.00683C10.0279 1.01317 10.0423 1.02698 10.0534 1.05386C10.0535 1.054 10.0535 1.05414 10.0536 1.05427L12.3346 6.62697L12.5637 7.18666L13.1658 7.2437L18.9392 7.79065Z" stroke="#E6CD73" stroke-width="2"/>
</svg>
