<svg width="19" height="15" viewBox="0 0 19 15" fill="none" xmlns="http://www.w3.org/2000/svg">
<path d="M17.0851 3.74396C17.0851 3.91304 17.0851 4.08213 17.0851 4.22705C17.0851 9.22705 13.1558 15 5.99346 15C3.7801 15 1.74084 14.372 0 13.3092C0.298429 13.3333 0.621728 13.3575 0.920157 13.3575C2.7356 13.3575 4.4267 12.7536 5.76963 11.7391C4.05366 11.715 2.61126 10.6039 2.13874 9.10628C2.38743 9.15459 2.61126 9.17874 2.88482 9.17874C3.23298 9.17874 3.58115 9.13043 3.90445 9.03382C2.11387 8.69565 0.770942 7.17391 0.770942 5.33816C0.770942 5.31401 0.770942 5.31401 0.770942 5.28986C1.29319 5.57971 1.89005 5.74879 2.53665 5.77295C1.49215 5.09662 0.795812 3.9372 0.795812 2.6087C0.795812 1.90821 0.994764 1.25604 1.31806 0.700483C3.23298 2.99517 6.1178 4.49275 9.35079 4.66184C9.27618 4.39614 9.25131 4.08213 9.25131 3.79227C9.25131 1.69082 10.9921 0 13.1558 0C14.2749 0 15.2945 0.458937 15.9908 1.18357C16.8861 1.01449 17.7068 0.700483 18.4777 0.2657C18.1793 1.15942 17.5576 1.88406 16.7618 2.36715C17.5576 2.27053 18.3037 2.07729 19 1.76329C18.5026 2.53623 17.856 3.21256 17.0851 3.74396Z" fill="#262626"/>
</svg>
