<svg width="22" height="12" viewBox="0 0 22 12" fill="none" xmlns="http://www.w3.org/2000/svg">
<path d="M10.78 11.665H11.99C11.99 11.665 12.375 11.61 12.54 11.445C12.705 11.28 12.705 10.895 12.705 10.895C12.705 10.895 12.705 9.30003 13.42 9.08003C14.135 8.86003 15.125 10.62 16.115 11.335C16.885 11.83 17.435 11.72 17.435 11.72L20.13 11.665C20.13 11.665 21.505 11.555 20.845 10.455C20.79 10.345 20.46 9.63003 18.865 8.14503C17.215 6.60503 17.435 6.82503 19.415 4.13003C20.625 2.48003 21.12 1.49003 20.955 1.05003C20.79 0.665029 19.91 0.775029 19.91 0.775029H16.885C16.885 0.775029 16.665 0.720029 16.5 0.830029C16.335 0.94003 16.225 1.16003 16.225 1.16003C16.225 1.16003 15.73 2.42503 15.125 3.52503C13.805 5.78003 13.255 5.94503 13.035 5.78003C12.54 5.50503 12.65 4.51503 12.65 3.80003C12.65 1.60003 12.98 0.665029 11.99 0.445029C11.66 0.390029 11.44 0.335029 10.56 0.280029C9.46001 0.280029 8.58001 0.280029 8.08501 0.555029C7.75501 0.720029 7.48001 1.10503 7.64501 1.10503C7.86501 1.10503 8.30501 1.21503 8.52501 1.54503C8.85501 1.98503 8.80001 2.92003 8.80001 2.92003C8.80001 2.92003 8.96501 5.50503 8.36001 5.83503C7.97501 6.05503 7.42501 5.61503 6.21501 3.52503C5.61001 2.48003 5.11501 1.32503 5.11501 1.32503C5.11501 1.32503 5.11501 1.10503 4.95001 0.995029C4.73001 0.830029 4.51001 0.830029 4.51001 0.830029H1.65001C1.65001 0.830029 1.21001 0.830029 1.04501 1.05003C0.880013 1.21503 1.04501 1.54503 1.04501 1.54503C1.04501 1.54503 3.30001 6.77003 5.83001 9.41003C8.14001 11.83 10.78 11.665 10.78 11.665Z" fill="#262626"/>
</svg>
