<svg width="709" height="601" viewBox="0 0 709 601" fill="none" xmlns="http://www.w3.org/2000/svg">
<path d="M515.188 305.733L616.371 85.2543L536.448 38.7963L601.41 1L681.334 47.458V180.533L708.5 196.281V244.708L682.121 260.062V309.67L640.388 333.686L597.08 308.714L519.125 353.766L515.188 305.733Z" fill="white"/>
<path d="M536.448 38.7963L616.371 85.2543M536.448 38.7963L601.41 1L681.334 47.458M536.448 38.7963L466.367 191.163M515.188 305.733L616.371 85.2543M515.188 305.733L519.125 353.766M515.188 305.733L497.864 295.496M616.371 85.2543L681.334 47.458M681.334 47.458V180.533M708.5 196.281L681.334 212.423V180.533M708.5 196.281V244.708L682.121 260.062V309.67L640.388 333.686M708.5 196.281L681.334 180.533M640.388 333.686V283.685L597.08 308.714M640.388 333.686L597.08 308.714M519.125 353.766L597.08 308.714M519.125 353.766L493.533 338.805" stroke="#E41D2C"/>
<path d="M639.6 236.046V115.57L595.913 210.455M639.6 236.046L564.008 279.748L595.913 210.455M639.6 236.046L595.913 210.455" stroke="#262626"/>
<path d="M591.779 220.569L629.092 242.574" stroke="#262626"/>
<path d="M604.217 192.345L639.616 212.915" stroke="#262626"/>
<path d="M608.044 184.213L639.616 202.391" stroke="#262626"/>
<path d="M611.871 175.603L639.616 191.867" stroke="#262626"/>
<path d="M615.697 167.47L639.616 181.343" stroke="#262626"/>
<path d="M619.524 159.338L639.616 170.819" stroke="#262626"/>
<path d="M623.351 151.206L639.616 160.295" stroke="#262626"/>
<path d="M627.657 142.117L639.616 148.814" stroke="#262626"/>
<path d="M631.483 133.029L639.616 137.334" stroke="#262626"/>
<path d="M587.474 229.179L618.568 248.314" stroke="#262626"/>
<path d="M583.169 238.747L608.522 254.054" stroke="#262626"/>
<path d="M578.863 248.314L598.476 259.795" stroke="#262626"/>
<path d="M573.601 258.36L586.517 266.492" stroke="#262626"/>
<path d="M568.339 271.275L573.123 274.146" stroke="#262626"/>
<path d="M547.291 32.572L627.215 79.03" stroke="#E41D2C"/>
<path d="M558.772 25.8748L638.696 72.3327" stroke="#E41D2C"/>
<path d="M569.296 19.178L649.22 65.636" stroke="#E41D2C"/>
<path d="M580.777 13.4375L660.7 59.8955" stroke="#E41D2C"/>
<path d="M591.301 6.74048L671.224 53.1985" stroke="#E41D2C"/>
<path d="M1 504.951L102.184 284.472L167.146 246.676L247.07 293.134V426.209L274.236 441.957V490.384L247.857 505.738V555.346L206.124 579.362L162.816 554.39L84.8606 599.442L4.93712 552.59L1 504.951Z" fill="white"/>
<path d="M102.184 284.472L1 504.951M102.184 284.472L182.107 330.93M102.184 284.472L167.146 246.676L247.07 293.134M1 504.951L80.9235 551.409M1 504.951L4.93712 552.59L84.8606 599.442M80.9235 551.409L182.107 330.93M80.9235 551.409L84.8606 599.442M182.107 330.93L247.07 293.134M247.07 293.134V426.209M274.236 441.957L247.07 458.099V426.209M274.236 441.957V490.384L247.857 505.738V555.346L206.124 579.362M274.236 441.957L247.07 426.209M206.124 579.362V529.361L162.816 554.39M206.124 579.362L162.816 554.39M84.8606 599.442L162.816 554.39" stroke="#E41D2C"/>
<path d="M205.336 481.722V361.246L161.649 456.131M205.336 481.722L129.744 525.424L161.649 456.131M205.336 481.722L161.649 456.131" stroke="#262626"/>
<path d="M157.425 465.491L194.737 487.496" stroke="#262626"/>
<path d="M169.862 437.268L205.74 458.316" stroke="#262626"/>
<path d="M173.689 429.135L205.74 447.792" stroke="#262626"/>
<path d="M177.516 420.525L205.74 437.268" stroke="#262626"/>
<path d="M181.343 412.393L205.74 426.744" stroke="#262626"/>
<path d="M185.17 404.261L205.74 416.22" stroke="#262626"/>
<path d="M188.997 396.129L205.74 405.696" stroke="#262626"/>
<path d="M193.302 387.04L205.74 394.215" stroke="#262626"/>
<path d="M197.129 377.951L205.74 382.734" stroke="#262626"/>
<path d="M153.12 474.102L185.648 493.715" stroke="#262626"/>
<path d="M148.814 483.669L175.124 499.455" stroke="#262626"/>
<path d="M144.509 493.236L164.6 505.195" stroke="#262626"/>
<path d="M139.247 503.282L153.12 511.893" stroke="#262626"/>
<path d="M133.985 516.198L139.725 519.546" stroke="#262626"/>
<path d="M374.151 266.362C389.862 249.231 410.954 236.201 431.72 240.377C451.868 244.428 454.556 276.204 454.556 276.204C454.556 276.204 455.737 317.544 453.375 338.017C451.013 358.49 444.319 379.357 422.271 408.491C410.507 424.037 393.531 431.327 380.932 434.476C371.876 435.264 366.758 434.476 363.609 433.295C353.191 429.883 343.022 420.931 341.561 405.342C340.063 389.37 339.673 377.194 340.19 364.002M374.151 266.362C367.988 273.081 362.653 280.431 358.49 287.622C349.829 302.583 344.001 317.363 341.954 339.198C341.089 348.424 340.488 356.382 340.19 364.002M374.151 266.362C374.151 266.362 377.388 298.252 366.365 322.662C355.341 347.073 340.19 364.002 340.19 364.002" stroke="#262626"/>
<path d="M374.124 266.97L454.489 313.85" stroke="#262626"/>
<path d="M379.864 260.273L454.489 303.326" stroke="#262626"/>
<path d="M387.996 253.098L454.489 291.845" stroke="#262626"/>
<path d="M397.564 247.357L454.489 280.365" stroke="#262626"/>
<path d="M407.609 242.574L453.532 269.362" stroke="#262626"/>
<path d="M421.482 239.703L448.748 255.489" stroke="#262626"/>
<path d="M374.124 277.494L454.489 324.374" stroke="#262626"/>
<path d="M374.124 287.062L454.01 333.463" stroke="#262626"/>
<path d="M373.167 296.629L453.054 343.03" stroke="#262626"/>
<path d="M371.254 307.153L451.14 353.554" stroke="#262626"/>
<path d="M367.427 319.59L447.313 365.991" stroke="#262626"/>
<path d="M360.73 332.985L440.616 379.386" stroke="#262626"/>
<path d="M353.076 347.335L432.962 393.737" stroke="#262626"/>
<path d="M340.638 363.6L420.525 410.001" stroke="#262626"/>
<path d="M339.682 379.864L410.001 421.004" stroke="#262626"/>
<path d="M340.638 394.215L398.52 428.179" stroke="#262626"/>
<path d="M341.595 404.739L388.953 432.006" stroke="#262626"/>
<path d="M344.465 416.698L375.559 434.876" stroke="#262626"/>
<path d="M225.022 280.142C225.022 280.142 232.039 257.824 238.408 244.314C247.958 224.058 254.636 212.968 269.118 195.887C283.411 179.029 298.646 166.753 311.245 158.091C322.298 150.492 326.993 147.855 341.167 143.13C351.797 139.586 359.649 138.42 370.695 139.98C377.053 140.878 386.444 144.705 386.444 144.705C386.444 144.705 435.264 171.871 467.942 191.95M467.942 191.95C471.689 194.252 473.768 195.659 476.997 198.643C485.849 206.823 488.302 214.064 492.352 225.416C497.248 239.139 497.077 262.425 497.077 262.425C497.077 262.425 498.804 292.019 497.077 310.851C495.421 328.901 494.168 339.207 488.809 356.522C484.004 372.047 480.062 380.448 472.273 394.712C461.145 415.091 453.562 426.238 437.233 442.745C419.822 460.344 407.704 469.911 386.05 480.147C381.326 482.381 367.96 487.63 355.734 488.022C348.945 488.239 344.986 488.155 338.411 486.447C331.551 484.665 321.875 478.966 321.875 478.966M467.942 191.95C467.942 191.95 459.974 188.401 454.556 187.226C445.39 185.237 439.805 185.768 430.539 187.226C417.65 189.253 410.902 193.202 399.436 199.431C386.304 206.565 379.863 212.299 368.727 222.266C356.319 233.371 349.938 240.413 339.986 253.763C330.42 266.596 325.651 274.373 318.725 288.803C310.562 305.812 306.875 316.015 302.977 334.474C300.542 346.006 300.057 352.654 299.04 364.396C297.063 387.22 299.04 423.059 299.04 423.059C299.04 423.059 299.912 432.469 301.008 438.414C302.361 445.748 302.747 450.084 305.733 456.918C308.023 462.162 309.77 464.947 313.213 469.517C316.226 473.515 321.875 478.966 321.875 478.966M321.875 478.966L274.236 451.013" stroke="#E41D2C"/>
<path d="M112.937 278.451L192.861 324.909" stroke="#E41D2C"/>
<path d="M124.418 271.754L204.341 318.212" stroke="#E41D2C"/>
<path d="M134.942 265.057L214.865 311.515" stroke="#E41D2C"/>
<path d="M146.423 259.316L226.346 305.774" stroke="#E41D2C"/>
<path d="M156.947 252.619L236.87 299.077" stroke="#E41D2C"/>
</svg>
