<svg width="17" height="10" viewBox="0 0 17 10" fill="none" xmlns="http://www.w3.org/2000/svg">
<path fill-rule="evenodd" clip-rule="evenodd" d="M12.5895 3.05599L12.6004 4.49022L6.14315 4.53968C5.8183 4.543 5.55421 4.80709 5.55089 5.13194C5.54774 5.44021 5.8033 5.69435 6.11008 5.68942L13.216 5.63353C14.2557 5.62298 15.0991 4.77957 15.1097 3.73981C15.1198 2.74777 14.2399 1.89017 13.2678 1.89984L5.51465 1.95809C3.75989 1.97554 2.33701 3.39842 2.31956 5.15318C2.30261 6.85713 3.76563 8.29213 5.44319 8.27523L14.4878 8.20513L14.4989 9.63937L5.45598 9.70945C2.98291 9.73437 0.86035 7.65247 0.885352 5.13891C0.910573 2.60319 2.96466 0.549104 5.50213 0.523867L13.2553 0.465619C15.0207 0.44805 16.5622 1.95048 16.5439 3.75437C16.5254 5.57487 15.051 7.04925 13.2289 7.06775L6.12729 7.12358C5.0195 7.14146 4.10528 6.23232 4.11669 5.11727C4.128 4.01176 5.02297 3.11679 6.13032 3.10546L12.5895 3.05599Z" fill="#E41D2C"/>
</svg>
