<svg width="81" height="93" viewBox="0 0 81 93" fill="none" xmlns="http://www.w3.org/2000/svg">
<path fill-rule="evenodd" clip-rule="evenodd" d="M71.7585 50.0369V89.3812C71.7585 90.499 71.535 91.3931 70.6408 92.0638L78.2414 87.8164C79.1356 87.1457 79.3591 86.2516 79.3591 85.1338V45.7896L71.7585 50.0369Z" fill="white"/>
<path fill-rule="evenodd" clip-rule="evenodd" d="M78.6886 46.9072V85.1337C78.6886 86.2515 78.465 86.6986 77.7944 87.1457L72.4293 90.2753C72.4293 90.0518 72.4293 89.6047 72.4293 89.3811V50.484L78.6886 46.9072ZM70.8644 92.7343C70.8644 92.7343 71.088 92.7343 71.3115 92.7343L78.9121 88.487C80.2534 87.5928 80.2534 86.2515 80.2534 85.3573V45.7895C80.2534 45.5659 80.0299 45.3424 79.8063 45.1188C79.5828 44.8953 79.3592 44.8953 79.1357 45.1188L71.5351 49.3662C71.3115 49.5898 71.088 49.8133 71.088 50.0369V89.3811C71.088 90.4989 70.8644 90.946 70.1938 91.3931C69.9703 91.6166 69.7467 92.0637 69.9703 92.2873C70.4173 92.7343 70.6409 92.7343 70.8644 92.7343Z" fill="#262626"/>
<path fill-rule="evenodd" clip-rule="evenodd" d="M22.1311 20.7524V60.0967C22.1311 61.438 22.5782 63.0028 23.4724 64.3441C24.143 65.6854 25.2608 66.8031 26.3785 67.4738L68.1818 91.6169C70.4173 92.9581 72.4292 91.8404 72.4292 89.1578V49.8136L22.1311 20.7524Z" fill="white"/>
<path fill-rule="evenodd" clip-rule="evenodd" d="M25.2609 31.4365L65.9464 55.0157V82.933L25.2609 59.8162V31.4365ZM26.6021 33.7641V45.6248L35.0969 50.4996V38.6872L26.6021 33.7641ZM36.4382 39.4646V51.2693L44.933 56.1442V44.3877L36.4382 39.4646ZM46.2743 45.165V56.9139L54.7691 61.7887V50.0881L46.2743 45.165ZM56.1103 50.8655V62.5585L64.6051 67.4333V55.7886L56.1103 50.8655ZM64.6051 68.9798L56.1103 64.1049V75.8017L64.6051 80.6283V68.9798ZM54.7691 75.0396V63.3352L46.2743 58.4603V70.213L54.7691 75.0396ZM44.933 69.4509V57.6906L36.4382 52.8158V64.6243L44.933 69.4509ZM35.0969 63.8623V52.0461L26.6021 47.1712V59.0357L35.0969 63.8623Z" fill="#E41D2C"/>
<path fill-rule="evenodd" clip-rule="evenodd" d="M71.5351 50.0371V89.1578C71.5351 90.2756 71.3115 90.9462 70.6409 91.3933C70.1938 91.6168 69.2996 91.6168 68.4054 90.9462L26.6021 66.8031C25.4844 66.1325 24.5902 65.2383 23.9195 63.897C23.2489 62.5557 22.8018 61.2144 22.8018 60.0967V21.8702L71.5351 50.0371ZM69.9702 92.9581C70.4173 92.9581 71.088 92.7346 71.3115 92.511C72.4292 91.8404 72.8763 90.7226 72.8763 89.1578V49.8135C72.8763 49.59 72.6528 49.3664 72.4292 49.1429L22.3547 20.0818C22.1312 20.0818 21.9076 20.0818 21.6841 20.0818C21.4605 20.3053 21.237 20.5289 21.237 20.7524V60.0967C21.237 61.438 21.6841 63.2264 22.5783 64.5676C23.4725 66.1325 24.5902 67.2502 25.9315 67.9208L67.7348 92.2875C68.4054 92.7346 69.2996 92.9581 69.9702 92.9581Z" fill="#262626"/>
<path fill-rule="evenodd" clip-rule="evenodd" d="M67.5112 29.9177C47.1684 18.0697 31.9672 9.3514 25.7079 5.77465C24.5901 5.104 23.4724 5.10401 22.8018 5.5511C22.1311 5.99819 21.4605 6.89238 21.4605 8.23366V20.9758L71.7585 50.0369V37.2948C71.7585 35.9535 71.3115 34.3887 70.4173 33.0474C69.7466 31.7061 68.8524 30.5884 67.5112 29.9177Z" fill="white"/>
<path fill-rule="evenodd" clip-rule="evenodd" d="M67.2877 30.5884C68.1819 31.0354 69.2996 32.1532 69.9703 33.4945C70.6409 34.8357 71.088 36.177 71.088 37.2948V48.9192L22.3548 20.5287V8.23365C22.3548 7.11592 22.5783 6.44527 23.2489 5.99818C23.9196 5.77463 24.5902 5.77463 25.4844 6.22173L67.2877 30.5884ZM71.7586 50.7076C71.9822 50.7076 71.9822 50.7076 72.2057 50.7076C72.4293 50.484 72.6528 50.2605 72.6528 50.0369V37.2948C72.6528 35.9535 72.2057 34.1651 71.3116 32.8238C70.4174 31.259 69.2996 30.1413 67.9583 29.2471L26.1551 5.10399C24.8138 4.43335 23.4725 4.43335 22.5783 4.88044C21.4606 5.55109 21.0135 6.66882 21.0135 8.23365V20.9758C21.0135 21.1994 21.237 21.4229 21.4606 21.6465L71.5351 50.7076H71.7586Z" fill="#262626"/>
<path fill-rule="evenodd" clip-rule="evenodd" d="M75.5589 25.447C61.699 17.3993 47.6155 9.35161 33.7556 1.30392C32.8614 0.856823 31.9672 0.409729 30.8495 0.856823L22.8018 5.32776C23.9195 4.88067 24.8137 5.10422 25.7079 5.77486L26.3785 6.22195L27.0492 6.66905C40.462 14.4932 54.0984 22.3173 67.5112 30.1415C69.9702 31.4828 71.7586 34.6124 71.7586 37.5185V50.2607L79.8063 45.7898V33.0476C79.8063 29.9179 78.0179 26.7883 75.5589 25.447Z" fill="white"/>
<path fill-rule="evenodd" clip-rule="evenodd" d="M79.1356 45.1181L72.6528 48.9184V37.294C72.6528 34.3879 70.6409 31.0347 68.1818 29.4699L26.155 5.10323C25.9315 4.87968 25.7079 4.87968 25.4844 4.65613L31.2966 1.52647C31.9672 1.30293 32.4143 1.30293 33.5321 1.97357L75.1118 25.8931C77.3473 27.2344 78.9121 30.1405 78.9121 32.5995V45.1181H79.1356ZM71.7586 50.7068C71.9821 50.7068 71.9821 50.7068 72.2057 50.7068L80.2534 46.2359C80.2534 46.0123 80.4769 45.7888 80.4769 45.3417V32.5995C80.4769 29.6934 78.465 26.3402 76.006 24.7754L34.2027 0.632286C33.3085 0.185192 32.1908 -0.261902 30.8495 0.185192L22.8018 4.87968C22.3547 5.10323 22.1312 5.32677 22.3547 5.77387C22.5783 5.99742 22.8018 6.22096 23.2489 5.99742C23.9195 5.77387 24.5902 5.77387 25.4844 6.44451L67.2877 30.5876C69.5231 31.9289 71.088 34.835 71.088 37.294V50.0362C71.088 50.2597 71.3115 50.4833 71.535 50.7068H71.7586Z" fill="#262626"/>
<path fill-rule="evenodd" clip-rule="evenodd" d="M70.1938 32.6001L78.0179 28.1292C78.9121 29.4704 79.5828 31.2588 79.5828 32.8236V45.5658L71.5351 50.0368V37.2946C71.7586 35.5062 71.088 33.9414 70.1938 32.6001Z" fill="white"/>
<path fill-rule="evenodd" clip-rule="evenodd" d="M79.1356 45.1187L72.6528 48.919V37.2945C72.6528 35.7297 72.2057 34.1649 71.3115 32.8236L78.0179 29.0233C78.6886 30.3646 79.1356 31.7059 79.1356 32.8236V45.1187ZM71.7586 50.7074C71.9821 50.7074 71.9821 50.7074 72.2057 50.7074L80.2534 46.2364C80.2534 46.0129 80.4769 45.7893 80.4769 45.3422V32.6001C80.4769 30.8117 79.8063 29.0233 78.6886 27.4585C78.465 27.2349 78.0179 27.0114 77.7944 27.2349L69.7467 31.7059C69.5231 31.7059 69.5231 31.9294 69.5231 32.153C69.5231 32.3765 69.5231 32.6001 69.5231 32.6001C70.4173 33.9413 71.088 35.5062 71.088 37.071V49.8132C71.088 50.0367 71.3115 50.2603 71.535 50.4838C71.535 50.7074 71.7586 50.7074 71.7586 50.7074Z" fill="#262626"/>
<path fill-rule="evenodd" clip-rule="evenodd" d="M28.8376 79.7688L33.7556 76.8627C27.9434 80.2159 20.7899 74.6273 16.9896 70.3799C11.848 64.5677 7.37706 54.508 9.16544 46.6839C9.83608 44.4484 10.9538 42.4365 12.9657 41.0952L7.82416 44.0013C2.68257 47.3545 3.35321 55.6258 5.14159 60.7674C7.60061 68.368 14.0835 77.5334 21.9076 79.9924C24.1431 80.8866 26.6021 81.1101 28.8376 79.7688Z" fill="white"/>
<path fill-rule="evenodd" clip-rule="evenodd" d="M28.3904 79.0982C26.6021 80.2159 24.3666 80.2159 22.1311 79.5453C14.5305 77.3098 8.2712 68.3679 5.81218 60.7673C4.02381 55.1787 3.57672 47.5781 8.27121 44.672L9.61249 44.0013C9.16539 44.672 8.94185 45.5661 8.7183 46.4603C6.70638 54.7316 11.4009 64.7912 16.5424 70.827C19.8956 74.6273 24.8137 78.204 29.5082 78.4276L28.3904 79.0982ZM25.0372 81.5572C26.6021 81.5572 27.9433 81.1101 29.2846 80.4395L34.2027 77.5334C34.4262 77.3098 34.6497 76.8627 34.4262 76.6392C34.2027 76.4156 33.7556 76.1921 33.532 76.4156C27.9433 79.5453 21.0134 73.9566 17.6602 70.1563C12.5186 64.3441 8.2712 54.508 10.0596 47.131C10.7302 44.672 11.848 43.1071 13.6363 41.9894C13.8599 41.7658 14.0834 41.3187 13.8599 41.0952C13.6363 40.8716 13.1892 40.6481 12.9657 40.8716L7.82411 43.7778C2.45898 47.131 2.90607 55.4022 4.69445 61.438C7.15347 69.4857 13.8599 78.6511 21.9076 81.1101C22.8018 81.3337 23.9195 81.5572 25.0372 81.5572Z" fill="#262626"/>
<path fill-rule="evenodd" clip-rule="evenodd" d="M19.8956 44.4481C27.9433 49.1426 34.2026 60.0964 34.2026 69.4854C34.2026 78.6508 27.7198 82.4511 19.8956 77.7566C11.8479 73.0622 5.58862 62.1084 5.58862 52.9429C5.58862 43.554 12.0715 39.7537 19.8956 44.4481Z" fill="white"/>
<path fill-rule="evenodd" clip-rule="evenodd" d="M13.6363 43.1072C15.4247 43.1072 17.6602 43.7778 19.6721 44.8955C27.4962 49.3665 33.7556 60.3203 33.7556 69.2622C33.7556 73.5096 32.4143 76.6392 29.9553 77.9805C27.4962 79.3218 24.143 79.0982 20.5663 77.0863C12.7421 72.6154 6.48283 61.6616 6.48283 52.7197C6.48283 48.4723 7.82411 45.3426 10.2831 44.0013C11.1773 43.5543 12.295 43.1072 13.6363 43.1072ZM26.3785 80.4395C27.9433 80.4395 29.2846 79.9924 30.4024 79.3218C33.3085 77.5334 34.8733 74.1802 34.8733 69.4857C34.8733 60.0967 28.1669 48.6958 20.1192 44.0013C16.0953 41.5423 12.295 41.3188 9.16539 42.8836C6.25928 44.672 4.69444 48.0252 4.69444 52.7197C4.69444 62.1087 11.4009 73.5096 19.4486 78.204C22.1311 79.5453 24.3666 80.4395 26.3785 80.4395Z" fill="#262626"/>
<path fill-rule="evenodd" clip-rule="evenodd" d="M23.4723 38.6362C19.8955 36.6243 15.201 35.0594 11.1772 37.2949L6.25916 40.201C13.6362 36.6243 22.131 43.3307 26.6019 48.4722C32.6377 55.4022 37.7793 67.0267 35.9909 76.4156C35.3203 79.5453 33.979 82.0043 31.52 83.7927C32.6377 83.122 36.2145 81.1101 37.1087 80.4395C42.6973 76.1921 41.8031 66.5796 40.0148 60.7673C37.1087 52.049 31.2964 43.1071 23.4723 38.6362Z" fill="white"/>
<path fill-rule="evenodd" clip-rule="evenodd" d="M23.0257 39.0831C30.1792 43.3305 36.4385 51.6018 39.1211 60.7672C41.133 67.2501 41.5801 75.9684 36.4385 79.7687C36.2149 79.9922 35.5443 80.2158 34.8737 80.6629C35.5443 79.3216 36.2149 77.9803 36.4385 76.1919C38.4504 66.5794 32.8617 54.7314 27.0495 47.8015C22.8021 42.8834 16.5428 38.1889 10.507 38.1889L11.4012 37.7418C15.2015 35.7299 19.896 37.2948 23.0257 39.0831ZM31.2969 84.2396C31.5205 84.2396 31.5205 84.2396 31.744 84.2396L32.8617 83.569C34.4266 82.6748 36.662 81.5571 37.3327 80.8864C42.9214 76.639 42.6978 67.4736 40.4623 60.3201C37.5562 50.9311 31.2969 42.2128 23.6963 37.9654C20.1196 35.9535 15.2015 34.1651 10.7306 36.6241L5.81255 39.5302C5.58901 39.7538 5.36546 40.2009 5.58901 40.4244C5.81256 40.648 6.25965 40.8715 6.4832 40.648C12.9661 37.5183 21.0138 43.107 26.1553 48.9192C31.744 55.6256 37.1091 67.0265 35.3208 76.1919C34.6501 79.3216 33.3088 81.7806 31.0734 83.1219C30.8498 83.3454 30.6263 83.7925 30.8498 84.0161C30.8498 84.2396 31.0734 84.2396 31.2969 84.2396Z" fill="#262626"/>
<path fill-rule="evenodd" clip-rule="evenodd" d="M29.0611 79.5451L33.9791 76.8625L28.8375 79.7687L29.0611 79.5451Z" fill="white"/>
<path fill-rule="evenodd" clip-rule="evenodd" d="M28.8375 80.4392C29.061 80.4392 29.061 80.4392 29.2846 80.4392L34.4262 77.5331C34.6497 77.3095 34.8733 76.8624 34.6497 76.6389C34.4262 76.4153 33.9791 76.1918 33.7555 76.4154L28.8375 79.3215L28.6139 79.545C28.3904 79.7686 28.1669 80.2156 28.3904 80.4392C28.1669 80.4392 28.3904 80.4392 28.8375 80.4392Z" fill="#262626"/>
<path fill-rule="evenodd" clip-rule="evenodd" d="M8.04767 44.0012C9.38895 43.3305 10.9538 42.8834 12.7422 43.107C14.5305 43.3305 16.3189 44.0012 18.3308 45.1189C20.3428 46.2366 22.1311 47.8015 23.9195 49.5898C25.7079 51.3782 27.2727 53.6137 28.614 56.0727C29.9553 58.3082 31.073 60.9907 31.7437 63.4497C32.4143 65.9088 32.8614 68.1442 32.8614 70.6032C32.8614 72.8387 32.4143 74.8506 31.7437 76.4155C31.073 77.9803 29.9553 79.3216 28.614 79.9922C27.2727 80.6629 25.7079 81.11 23.9195 80.8864C22.1311 80.6629 20.3428 79.9922 18.3308 78.8745C16.3189 77.7568 14.5305 76.1919 12.7422 74.4035C10.9538 72.6152 9.38895 70.3797 8.04767 67.9207C6.70639 65.6852 5.58866 63.0027 4.91801 60.5436C4.24737 58.0846 3.80028 55.8491 3.80028 53.3901C3.80028 51.1547 4.24737 49.1427 4.91801 47.5779C5.8122 46.0131 6.70639 44.8953 8.04767 44.0012ZM31.073 54.7314C27.9434 49.1427 23.4724 44.2247 18.5544 41.5421C13.6363 38.636 9.16541 38.4125 6.03575 40.2009C2.90609 41.9892 0.894169 46.0131 0.894169 51.8253C0.894169 57.414 2.90609 63.8968 6.03575 69.4855C9.16541 75.0742 13.6363 79.9922 18.5544 82.6748C23.4724 85.5809 27.9434 85.8044 31.073 84.0161C34.2027 82.2277 36.2146 78.2038 36.2146 72.3916C36.2146 66.5794 34.2027 60.3201 31.073 54.7314Z" fill="white"/>
<path fill-rule="evenodd" clip-rule="evenodd" d="M11.848 43.7776C12.0715 43.7776 12.5186 43.7776 12.7422 43.7776C14.307 44.0011 16.0954 44.6717 18.1073 45.5659C19.8957 46.6837 21.9076 48.0249 23.4724 50.0369C25.2608 51.8252 26.8256 54.0607 28.1669 56.2962C29.5082 58.5317 30.6259 60.9907 31.2966 63.4497C31.9672 65.9087 32.4143 68.1442 32.4143 70.3796C32.4143 72.6151 31.9672 74.4035 31.2966 75.9683C30.6259 77.5332 29.7318 78.6509 28.3905 79.3215C27.0492 79.9922 25.7079 80.2157 24.1431 80.2157C22.5782 79.9922 20.7899 79.3215 18.7779 78.4273C16.9896 77.3096 14.9776 75.9683 13.4128 73.9564C11.6244 72.168 10.0596 69.9326 8.71833 67.6971C7.37705 65.4616 6.25931 63.0026 5.58867 60.5436C4.91803 58.0846 4.47094 55.6255 4.47094 53.6136C4.47094 51.3781 4.91803 49.5898 5.58867 48.0249C6.25931 46.4601 7.1535 45.3424 8.49478 44.6717C9.38897 44.2246 10.7303 43.7776 11.848 43.7776ZM25.0373 81.557C26.6021 81.557 27.9434 81.1099 29.0611 80.4393C30.6259 79.5451 31.7437 78.2038 32.4143 76.4154C33.085 74.627 33.532 72.6151 33.532 70.3796C33.532 68.1442 33.085 65.6852 32.4143 63.0026C31.7437 60.5436 30.6259 58.0846 29.2847 55.6255C27.9434 53.1665 26.3785 50.9311 24.3666 49.1427C22.5782 47.1308 20.5663 45.7895 18.5544 44.4482C16.5425 43.3305 14.5306 42.6598 12.7422 42.4363C10.7303 42.2127 9.16543 42.6598 7.6006 43.554C6.03577 44.4482 4.91804 45.7895 4.24739 47.5778C3.57675 49.3662 3.12966 51.3781 3.12966 53.6136C3.12966 55.8491 3.57675 58.3081 4.24739 60.9907C4.91804 63.4497 6.03576 65.9087 7.37705 68.3677C8.71833 70.8267 10.5067 73.0622 12.2951 74.8506C14.0835 76.8625 16.0954 78.2038 18.1073 79.5451C20.1192 80.6628 22.1312 81.3335 23.9195 81.557C24.3666 81.557 24.5902 81.557 25.0373 81.557ZM10.5067 39.7537C8.94188 39.7537 7.37705 40.2008 6.25931 40.8714C3.12965 42.6598 1.34128 46.4601 1.34128 51.8252C1.34128 57.1904 3.12966 63.2261 6.48286 69.0384C9.83607 74.8506 14.0835 79.3215 18.7779 82.0041C23.2489 84.6867 27.4963 85.1338 30.6259 83.3454C33.7556 81.557 35.544 77.7567 35.544 72.3916C35.544 67.0264 33.7556 60.9907 30.4024 55.1785C27.0492 49.3662 22.8018 44.8953 18.1073 42.2127C15.4247 40.4243 12.7422 39.7537 10.5067 39.7537ZM26.3785 85.5808C28.1669 85.5808 29.9553 85.1338 31.2966 84.2396C34.8733 82.2276 36.8853 77.7567 36.8853 72.168C36.8853 66.5793 35.0969 60.0965 31.5201 54.2843C28.1669 48.2485 23.4724 43.554 18.7779 40.6479C13.8599 37.7418 9.16542 37.2947 5.58867 39.3066C2.01192 41.3185 -3.8147e-06 45.7895 -3.8147e-06 51.3781C-3.8147e-06 56.9668 1.78838 63.4497 5.36513 69.2619C8.71833 75.2977 13.4128 79.9922 18.1073 82.8983C21.0134 84.9102 23.9195 85.5808 26.3785 85.5808Z" fill="#262626"/>
<path fill-rule="evenodd" clip-rule="evenodd" d="M16.9896 61.4379L18.3309 64.1205L27.4963 61.6615L26.1551 58.7554L16.9896 61.4379Z" fill="white"/>
<path fill-rule="evenodd" clip-rule="evenodd" d="M26.3785 61.2143L18.5543 63.4498L17.8837 61.8849L25.7079 59.6495L26.3785 61.2143ZM18.3308 64.791L27.7198 62.1085C27.9433 62.1085 28.1669 61.8849 28.1669 61.6614C28.1669 61.4378 28.1669 61.2143 28.1669 60.9907L26.8256 58.3082C26.602 58.0846 26.3785 57.8611 25.9314 57.8611L16.766 60.5437C16.5424 60.5437 16.3189 60.7672 16.3189 60.9907C16.3189 61.2143 16.3189 61.4378 16.3189 61.6614L17.6602 64.344C17.6602 64.791 18.1073 64.791 18.3308 64.791Z" fill="#E41D2C"/>
<path fill-rule="evenodd" clip-rule="evenodd" d="M20.3427 66.5795C20.5663 66.5795 20.5663 66.5795 20.7898 66.5795C21.0134 66.356 21.2369 65.9089 21.0134 65.6853L10.2831 47.3545C10.0596 47.1309 9.61246 46.9074 9.38892 47.1309C9.16537 47.3545 8.94182 47.8016 9.16537 48.0251L19.8956 66.356C19.8956 66.5795 20.1192 66.5795 20.3427 66.5795Z" fill="#E41D2C"/>
<path fill-rule="evenodd" clip-rule="evenodd" d="M74.5299 90.7225C74.7535 90.7225 74.7765 90.7235 75 90.5C76.1177 89.6058 76.5591 88.487 76.5591 87.5928V48.2485C76.5591 47.8014 76.3355 47.5779 75.8884 47.5779C75.4413 47.5779 75.2178 47.8014 75.2178 48.2485V87.5928C75.2178 88.7105 74.9943 89.1576 74.3236 89.6047C74.1001 89.8283 73.8765 90.2754 74.1001 90.4989C74.3236 90.946 74.3064 90.7225 74.5299 90.7225Z" fill="#262626"/>
</svg>
