<svg width="18" height="18" viewBox="0 0 18 18" fill="none" xmlns="http://www.w3.org/2000/svg">
<path d="M8.46914 13.282C8.48671 13.2996 8.50429 13.3172 8.52539 13.3312C8.53242 13.3383 8.54296 13.3453 8.55351 13.3523C8.56406 13.3594 8.57461 13.3699 8.58515 13.3769C8.5957 13.384 8.60625 13.391 8.61679 13.398C8.62734 13.4051 8.63789 13.4086 8.64843 13.4156C8.65898 13.4226 8.66953 13.4261 8.68359 13.4332C8.69414 13.4367 8.70468 13.4437 8.71523 13.4472C8.72578 13.4508 8.73632 13.4543 8.75039 13.4613C8.76093 13.4648 8.775 13.4719 8.78554 13.4754C8.79609 13.4789 8.80664 13.4824 8.8207 13.4824C8.83476 13.4859 8.84531 13.4894 8.85937 13.4929C8.87343 13.4965 8.8875 13.4965 8.89804 13.5C8.90859 13.5 8.91914 13.5035 8.92968 13.5035C8.9789 13.507 9.02812 13.507 9.07734 13.5035C9.08789 13.5035 9.09843 13.5 9.10898 13.5C9.12304 13.4965 9.13711 13.4965 9.14765 13.4929C9.16172 13.4894 9.17226 13.4859 9.18632 13.4824C9.19687 13.4789 9.20742 13.4754 9.22148 13.4754C9.23203 13.4719 9.24609 13.4683 9.25664 13.4613C9.26718 13.4578 9.27773 13.4543 9.29179 13.4472C9.30234 13.4437 9.31289 13.4367 9.32343 13.4332C9.33398 13.4261 9.34804 13.4226 9.35859 13.4156C9.36914 13.4086 9.37968 13.4051 9.39023 13.398C9.40078 13.391 9.41132 13.384 9.42187 13.3769C9.43242 13.3699 9.44296 13.3629 9.45351 13.3523C9.46406 13.3453 9.47109 13.3383 9.48164 13.3312C9.49922 13.3172 9.51679 13.2996 9.53437 13.282L13.2855 9.53084C13.5773 9.23904 13.5773 8.76443 13.2855 8.46912C12.9937 8.1738 12.5191 8.17732 12.2238 8.46912L9.75586 10.9371V4C9.74882 3.58867 9.41484 3.25117 9 3.25117C8.58515 3.25117 8.25117 3.58867 8.25117 4V10.9371L5.7832 8.46912C5.4914 8.17732 5.01679 8.17732 4.72148 8.46912C4.42617 8.76091 4.42968 9.23552 4.72148 9.53084L8.46914 13.282Z" fill="#6C6C6C"/>
<path d="M17.2512 12.7512C16.8363 12.7512 16.5023 13.0887 16.5023 13.5V16.4988H1.50117V13.5C1.50117 13.0851 1.16367 12.7512 0.752344 12.7512C0.3375 12.7512 0 13.0851 0 13.5V17.2512C0 17.6625 0.3375 18 0.748828 18H17.2477C17.6625 18 17.9965 17.6625 17.9965 17.2512V13.5C18 13.0851 17.6625 12.7512 17.2512 12.7512Z" fill="#6C6C6C"/>
</svg>
