<svg width="18" height="15" viewBox="0 0 18 15" fill="none" xmlns="http://www.w3.org/2000/svg">
<path d="M8.46929 10.2821C8.48687 10.2996 8.50445 10.3172 8.52554 10.3313C8.53257 10.3383 8.54312 10.3453 8.55366 10.3524C8.56421 10.3594 8.57476 10.37 8.5853 10.377C8.59585 10.384 8.6064 10.3911 8.61695 10.3981C8.62749 10.4051 8.63804 10.4086 8.64859 10.4157C8.65913 10.4227 8.66968 10.4262 8.68374 10.4332C8.69429 10.4368 8.70484 10.4438 8.71538 10.4473C8.72593 10.4508 8.73648 10.4543 8.75054 10.4614C8.76109 10.4649 8.77515 10.4719 8.7857 10.4754C8.79624 10.4789 8.80679 10.4825 8.82085 10.4825C8.83491 10.486 8.84546 10.4895 8.85952 10.493C8.87359 10.4965 8.88765 10.4965 8.8982 10.5C8.90874 10.5 8.91929 10.5036 8.92984 10.5036C8.97905 10.5071 9.02827 10.5071 9.07749 10.5036C9.08804 10.5036 9.09859 10.5 9.10913 10.5C9.1232 10.4965 9.13726 10.4965 9.14781 10.493C9.16187 10.4895 9.17241 10.486 9.18648 10.4825C9.19702 10.4789 9.20757 10.4754 9.22163 10.4754C9.23218 10.4719 9.24624 10.4684 9.25679 10.4614C9.26734 10.4578 9.27788 10.4543 9.29194 10.4473C9.30249 10.4438 9.31304 10.4368 9.32359 10.4332C9.33413 10.4262 9.3482 10.4227 9.35874 10.4157C9.36929 10.4086 9.37984 10.4051 9.39038 10.3981C9.40093 10.3911 9.41148 10.384 9.42202 10.377C9.43257 10.37 9.44312 10.3629 9.45366 10.3524C9.46421 10.3453 9.47124 10.3383 9.48179 10.3313C9.49937 10.3172 9.51695 10.2996 9.53452 10.2821L13.2857 6.5309C13.5775 6.2391 13.5775 5.76449 13.2857 5.46918C12.9939 5.17386 12.5193 5.17738 12.224 5.46918L9.75601 7.93715V1.00006C9.74898 0.588733 9.41499 0.251233 9.00015 0.251233C8.5853 0.251233 8.25132 0.588733 8.25132 1.00006V7.93715L5.78335 5.46918C5.49155 5.17738 5.01695 5.17738 4.72163 5.46918C4.42632 5.76097 4.42984 6.23558 4.72163 6.5309L8.46929 10.2821Z" fill="#E41D2C"/>
<path d="M17.2512 9.75122C16.8363 9.75122 16.5023 10.0887 16.5023 10.5V13.4989H1.50117V10.5C1.50117 10.0852 1.16367 9.75122 0.752344 9.75122C0.3375 9.75122 0 10.0852 0 10.5V14.2512C0 14.6625 0.3375 15 0.748828 15H17.2477C17.6625 15 17.9965 14.6625 17.9965 14.2512V10.5C18 10.0852 17.6625 9.75122 17.2512 9.75122Z" fill="#E41D2C"/>
</svg>
