<svg width="101" height="92" viewBox="0 0 101 92" fill="none" xmlns="http://www.w3.org/2000/svg">
<path fill-rule="evenodd" clip-rule="evenodd" d="M90.2706 72.9129C92.8497 72.9129 95.0162 70.8496 95.0162 68.2704C95.0162 65.6913 92.9529 63.6279 90.2706 63.6279C87.5882 63.6279 85.5249 65.6913 85.5249 68.2704C85.5249 70.7464 87.6914 72.9129 90.2706 72.9129Z" fill="white"/>
<path fill-rule="evenodd" clip-rule="evenodd" d="M90.2704 64.1439C88.1039 64.1439 86.2469 66.0009 86.2469 68.1674C86.2469 70.4371 88.1039 72.1909 90.2704 72.1909C92.4369 72.1909 94.2939 70.3339 94.2939 68.1674C94.2939 66.0009 92.5401 64.1439 90.2704 64.1439ZM90.2704 73.5321C87.3818 73.5321 84.9058 71.1592 84.9058 68.1674C84.9058 65.2787 87.3818 62.8027 90.2704 62.8027C93.1591 62.8027 95.5319 65.1756 95.5319 68.1674C95.5319 71.1592 93.1591 73.5321 90.2704 73.5321Z" fill="#262626"/>
<path fill-rule="evenodd" clip-rule="evenodd" d="M95.119 76.1111C95.0159 73.532 92.9525 71.3655 90.2702 71.3655C87.5879 71.3655 85.4214 73.4288 85.4214 76.1111V88.1816C85.5246 88.8006 85.5245 89.2133 86.8657 90.0386C88.2069 90.864 92.3335 90.864 93.6747 90.0386C95.119 89.2133 95.0159 88.9038 95.119 88.1816V76.1111Z" fill="white"/>
<path fill-rule="evenodd" clip-rule="evenodd" d="M86.0409 76.2141V88.1814C86.144 88.6972 86.144 88.9035 87.0725 89.4194C88.3105 90.1415 92.1277 90.1415 93.2625 89.4194C94.2942 88.8004 94.2942 88.6972 94.2942 88.1814L94.3974 76.2141C94.3974 76.2141 94.3974 76.2141 94.3974 76.1109C94.2942 73.8412 92.4372 71.9842 90.1675 71.9842C88.001 72.0874 86.144 73.8412 86.0409 76.2141ZM90.2707 91.1732C88.8264 91.1732 87.2789 90.9669 86.5567 90.451C85.0092 89.6257 84.906 89.0067 84.8029 88.1814L84.6997 76.0077L84.8029 75.9046C84.906 73.0159 87.382 70.6431 90.2707 70.6431C93.1594 70.6431 95.6354 73.0159 95.7385 75.9046V76.0077V88.0782C95.6354 89.0067 95.5322 89.6257 93.9847 90.451C93.1594 90.9669 91.715 91.1732 90.2707 91.1732Z" fill="#E41D2C"/>
<path fill-rule="evenodd" clip-rule="evenodd" d="M90.2706 72.9129C92.8497 72.9129 95.0162 70.8496 95.0162 68.2704C95.0162 65.6913 92.9529 63.6279 90.2706 63.6279C87.5882 63.6279 85.5249 65.6913 85.5249 68.2704C85.5249 70.7464 87.6914 72.9129 90.2706 72.9129Z" fill="white"/>
<path fill-rule="evenodd" clip-rule="evenodd" d="M90.2704 64.1439C88.1039 64.1439 86.2469 66.0009 86.2469 68.1674C86.2469 70.4371 88.1039 72.1909 90.2704 72.1909C92.4369 72.1909 94.2939 70.3339 94.2939 68.1674C94.2939 66.0009 92.5401 64.1439 90.2704 64.1439ZM90.2704 73.5321C87.3818 73.5321 84.9058 71.1592 84.9058 68.1674C84.9058 65.2787 87.3818 62.8027 90.2704 62.8027C93.1591 62.8027 95.5319 65.1756 95.5319 68.1674C95.5319 71.1592 93.1591 73.5321 90.2704 73.5321Z" fill="#E41D2C"/>
<path fill-rule="evenodd" clip-rule="evenodd" d="M22.1805 30.8213V55.1686L22.3869 55.9939C22.7995 57.6446 23.728 59.1921 24.7597 60.5332C27.0294 63.3187 30.4339 65.4852 33.7352 66.8264C44.2582 71.2626 59.3205 71.0562 69.534 65.7947C72.3195 64.3504 75.0018 62.3902 76.8588 59.8111C77.581 58.6762 78.3031 57.3351 78.6126 55.9939L78.819 55.1686V30.8213C78.7158 31.3371 78.6126 31.853 78.4063 32.3688C77.7873 34.0195 76.8588 35.5669 75.6208 36.9081C72.3195 40.5189 67.1611 42.8918 62.4155 44.1298C53.1305 46.6058 41.3695 46.0899 32.4972 41.9633C29.0927 40.4158 25.585 37.9398 23.6249 34.6384C23.109 33.7099 22.5932 32.5751 22.2837 31.5435L22.1805 30.8213Z" fill="white"/>
<path fill-rule="evenodd" clip-rule="evenodd" d="M22.7994 34.432V55.0653L23.0057 55.6843C23.4184 57.1286 24.1406 58.6761 25.1722 60.0173C27.0292 62.3901 30.2274 64.5566 33.9414 66.1041C44.5675 70.6434 59.4235 70.2307 69.2243 65.0724C71.3908 63.9376 74.3826 61.9774 76.3428 59.2951C77.1681 58.1603 77.7871 56.9223 77.9935 55.6843L78.1998 54.9621V34.432C77.684 35.3605 76.9618 36.3921 76.2396 37.2175C72.2162 41.6536 66.0262 43.717 62.7248 44.6455C52.6145 47.431 40.7504 46.5025 32.2907 42.479C29.4021 41.1378 25.3786 38.6618 23.1089 34.9478C23.0057 34.8446 22.9026 34.6383 22.7994 34.432ZM50.448 70.5403C44.4644 70.5403 38.4807 69.5086 33.4256 67.3421C30.6401 66.2073 26.8229 64.0408 24.2437 60.8426C23.0057 59.3983 22.1804 57.6444 21.7677 56.0969L21.5614 55.2716V30.8211C21.5614 30.5116 21.7677 30.2021 22.0772 30.2021C22.3867 30.2021 22.6962 30.4085 22.7994 30.718L23.0057 31.5433C23.2121 32.4718 23.7279 33.5035 24.2437 34.432C25.8944 37.1143 28.8862 39.5903 32.8065 41.4473C41.0599 45.3676 52.6145 46.193 62.3122 43.6138C65.5103 42.7885 71.494 40.7251 75.208 36.5985C76.446 35.2573 77.2713 33.813 77.7871 32.3686C77.9935 31.8528 78.0966 31.4401 78.1998 30.9243C78.303 30.6148 78.5093 30.4085 78.922 30.4085C79.2315 30.4085 79.541 30.718 79.541 31.0275V55.3748L79.3346 56.3033C79.0251 57.6444 78.4061 59.0888 77.4776 60.3268C75.4143 63.3186 72.2162 65.3819 69.9465 66.5168C64.3755 69.1991 57.3602 70.5403 50.448 70.5403Z" fill="#262626"/>
<path fill-rule="evenodd" clip-rule="evenodd" d="M100.381 29.3767V31.5432L50.4485 60.3267V58.1602L100.381 29.3767Z" fill="white"/>
<path fill-rule="evenodd" clip-rule="evenodd" d="M51.0673 58.5725V59.1915L99.6588 31.1302V30.5112L51.0673 58.5725ZM50.4483 60.9454C50.3452 60.9454 50.242 60.9454 50.1388 60.8422C49.9325 60.739 49.8293 60.5327 49.8293 60.3264V58.1599C49.8293 57.9535 49.9325 57.7472 50.1388 57.644L99.9683 28.8606C100.175 28.7574 100.381 28.7574 100.587 28.8606C100.794 28.9637 100.897 29.1701 100.897 29.3764V31.5429C100.897 31.7492 100.69 31.9556 100.587 32.0587L50.7578 60.8422C50.7578 60.9454 50.5515 60.9454 50.4483 60.9454Z" fill="#262626"/>
<path fill-rule="evenodd" clip-rule="evenodd" d="M50.4486 58.1602V60.3267L0.619141 31.5432V29.3767L50.4486 58.1602Z" fill="white"/>
<path fill-rule="evenodd" clip-rule="evenodd" d="M1.238 31.1302L49.8294 59.1915V58.5725L1.238 30.5112V31.1302ZM50.4484 60.9454C50.3453 60.9454 50.2421 60.9454 50.1389 60.8422L0.3095 32.0587C0.103167 31.9556 0 31.7492 0 31.5429V29.3764C0 29.1701 0.103167 28.9637 0.3095 28.8606C0.515832 28.7574 0.722165 28.7574 0.928498 28.8606L50.7579 57.644C50.9642 57.7472 51.0674 57.9535 51.0674 58.1599V60.3264C51.0674 60.5327 50.9642 60.739 50.7579 60.8422C50.7579 60.9454 50.5516 60.9454 50.4484 60.9454Z" fill="#262626"/>
<path fill-rule="evenodd" clip-rule="evenodd" d="M50.4486 0.593262L100.381 29.3767L50.4486 58.1602L0.619141 29.3767L50.4486 0.593262Z" fill="white"/>
<path fill-rule="evenodd" clip-rule="evenodd" d="M1.857 29.3767L50.4484 57.4379L99.0398 29.3767L50.4484 1.31537L1.857 29.3767ZM50.4484 58.7791C50.3453 58.7791 50.2421 58.7791 50.1389 58.6759L0.3095 29.9957C0.103167 29.7893 0 29.583 0 29.3767C0 29.1703 0.103167 28.964 0.3095 28.8608L50.1389 0.0773749C50.3452 -0.0257916 50.5516 -0.0257916 50.7579 0.0773749L100.69 28.8608C100.897 28.964 101 29.1703 101 29.3767C101 29.583 100.794 29.7893 100.69 29.8925L50.7579 58.7791C50.7579 58.7791 50.5516 58.7791 50.4484 58.7791Z" fill="#262626"/>
<path fill-rule="evenodd" clip-rule="evenodd" d="M90.2707 64.7628C89.9612 64.7628 89.6517 64.4533 89.6517 64.1438V46.915C89.6517 39.8997 84.6997 34.1224 77.7875 33.0907L50.3452 28.964C49.9326 28.8609 49.7262 28.5514 49.8294 28.2419C49.9326 27.9324 50.2421 27.6229 50.5516 27.726L78.097 31.8527C85.6282 32.9875 91.096 39.3839 91.096 46.915V64.0407C90.8897 64.4533 90.6833 64.7628 90.2707 64.7628Z" fill="#E41D2C"/>
<path fill-rule="evenodd" clip-rule="evenodd" d="M54.7815 25.7659C52.4087 24.4247 48.5915 24.4247 46.2187 25.7659C43.8459 27.107 43.8459 29.3767 46.2187 30.7179C48.5915 32.059 52.4087 32.059 54.7815 30.7179C57.1544 29.3767 57.1544 27.2102 54.7815 25.7659Z" fill="white"/>
<path fill-rule="evenodd" clip-rule="evenodd" d="M50.4485 25.3533C49.0042 25.3533 47.5598 25.6628 46.425 26.2818C45.4965 26.7976 44.9807 27.5198 44.9807 28.2419C44.9807 28.9641 45.4965 29.5831 46.425 30.2021C48.5915 31.4401 52.2023 31.4401 54.472 30.2021C55.4005 29.6863 55.9163 28.9641 55.9163 28.2419C55.9163 27.5198 55.4005 26.9008 54.472 26.2818C53.3372 25.7659 51.8928 25.3533 50.4485 25.3533ZM50.4485 32.4718C48.7978 32.4718 47.1472 32.0591 45.806 31.3369C44.4648 30.5116 43.7427 29.4799 43.7427 28.3451C43.7427 27.2103 44.4648 26.0754 45.806 25.3533C48.3852 23.9089 52.4087 23.9089 55.091 25.3533C56.4322 26.1786 57.1543 27.2103 57.1543 28.3451C57.1543 29.4799 56.4322 30.6148 55.091 31.3369C53.853 32.0591 52.2023 32.4718 50.4485 32.4718Z" fill="#E41D2C"/>
</svg>
