<svg width="820" height="696" viewBox="0 0 820 696" fill="none" xmlns="http://www.w3.org/2000/svg">
<path fill-rule="evenodd" clip-rule="evenodd" d="M779.219 256.611C846.446 337.175 826.281 416.949 747.185 486.851C696.961 531.082 631.711 555.173 578.326 594.665C504.77 649.559 399.184 713.931 303.485 691.025C244.562 676.808 181.684 662.592 125.531 641.265C76.8888 622.704 26.2707 594.665 7.28997 542.93C0.567269 524.763 -1.41022 505.806 0.963118 486.851C5.70829 445.383 53.9531 385.75 83.2172 347.838C84.0074 344.677 85.1948 341.914 85.9849 338.754C92.3118 319.797 98.6402 300.842 104.175 281.491C129.485 194.213 167.449 122.731 244.166 69.4161C279.362 45.3257 313.767 32.6883 354.893 21.6303L356.08 21.2354H356.871C369.92 17.2862 380.202 11.3624 394.439 8.5979C490.535 -9.56859 573.185 -2.06503 650.298 61.5176C671.257 78.8943 698.938 95.0862 717.525 114.042C740.462 137.343 751.138 166.172 760.629 196.581C766.955 216.328 773.672 236.469 779.219 256.611Z" fill="white" fill-opacity="0.5"/>
<path fill-rule="evenodd" clip-rule="evenodd" d="M138.976 419.711C138.976 419.711 127.112 429.978 123.553 431.953C118.808 434.717 103.385 458.413 97.4535 465.127C91.9167 471.446 82.0306 491.192 74.912 500.67C72.5387 503.435 70.1669 519.231 74.1204 522.786C85.9841 532.658 115.248 527.919 127.508 521.205C130.671 519.627 142.535 490.401 143.721 485.268C145.698 474.999 150.839 458.413 147.676 448.54C144.907 441.037 148.072 434.717 141.743 424.845C140.162 422.474 140.162 419.315 138.976 419.711Z" fill="#F9F9F9"/>
<path d="M95.0812 529.107C86.7768 529.107 78.8667 527.528 73.7257 523.183C69.3763 519.63 72.144 503.438 74.5173 500.277C78.0766 495.538 82.4259 488.43 86.381 481.322C90.3346 474.608 94.2896 467.895 97.0572 464.734C99.0348 462.365 102.594 457.232 106.549 452.097C112.876 443.409 119.995 433.14 123.158 431.561C125.926 429.981 133.44 423.663 136.999 420.899C138.581 419.318 138.581 419.318 138.581 419.318C138.975 419.318 139.371 419.318 139.371 419.318C140.163 419.713 140.163 420.503 140.558 421.689C140.953 422.477 141.349 423.663 141.744 424.848C145.698 431.166 145.698 435.905 146.094 440.25C146.094 443.014 146.49 445.779 147.281 448.542C150.049 456.442 147.281 468.683 144.908 478.557C144.512 480.926 143.722 483.296 143.326 485.271C142.534 490.01 130.276 519.63 127.113 521.604C120.785 525.553 107.339 529.107 95.0812 529.107ZM138.975 420.108C138.975 420.108 138.185 420.899 137.393 421.293C134.23 424.058 126.321 430.771 123.554 432.351C120.785 433.93 113.272 443.804 107.339 452.887C103.386 458.02 99.8264 463.155 97.8489 465.524C95.0812 468.683 91.1262 475.003 87.1711 482.111C83.2176 489.22 78.8667 496.328 75.3074 501.067C73.3299 503.832 70.5622 519.234 74.5173 522.789C86.7753 532.661 116.039 527.528 127.507 521.208C130.276 519.63 142.14 491.195 143.326 485.665C143.722 483.691 144.116 481.322 144.908 478.952C147.281 469.079 150.049 457.232 147.281 449.332C146.094 446.173 146.094 443.804 145.698 441.04C145.304 436.695 144.908 431.956 141.349 426.032C140.558 424.848 140.558 424.058 140.163 422.873C139.767 421.293 139.371 420.108 138.975 420.108Z" fill="black"/>
<path fill-rule="evenodd" clip-rule="evenodd" d="M142.93 403.123C142.536 435.901 142.14 464.336 171.799 475.393C163.099 386.931 207.39 236.07 285.691 169.329C303.089 154.716 355.685 120.753 374.271 127.466C363.99 131.416 342.636 144.843 333.144 151.162C290.83 179.992 259.986 217.904 238.63 264.505C207.39 332.431 196.712 417.34 186.036 487.242C230.326 507.778 278.968 529.893 335.913 528.314C335.913 406.678 358.849 213.165 484.998 149.977C492.117 146.423 498.444 143.658 509.517 148.397C353.708 253.052 369.526 384.956 352.918 524.364L367.153 529.499C359.64 500.274 363.99 466.311 367.153 436.297C375.853 458.413 371.108 477.368 388.507 500.274C406.699 524.76 424.89 516.862 444.662 528.709C493.303 527.524 588.608 484.478 628.944 461.572C675.211 435.111 745.998 388.905 721.48 317.029C680.352 158.665 670.071 192.629 613.917 143.263C550.248 87.5791 476.298 84.0248 395.626 102.586C219.254 142.079 188.803 247.523 142.93 403.123ZM465.226 482.107C359.244 324.929 604.821 99.4269 662.558 196.578C591.771 204.872 534.826 212.77 492.513 274.378C437.544 354.152 462.853 399.964 465.226 482.107Z" fill="#F4F4F4"/>
<path d="M367.944 529.5L352.521 523.971V523.576C355.289 501.855 356.871 480.134 358.848 459.202C368.734 344.281 377.83 236.071 508.725 147.608C498.047 143.264 491.72 146.423 485.394 149.583C429.634 177.622 388.507 233.701 363.593 316.636C341.053 391.277 336.307 472.63 336.307 527.525V527.92H335.912C278.571 529.5 229.139 506.988 186.035 486.847H185.64V486.453C186.825 479.739 187.617 473.026 188.803 466.312C198.689 400.359 209.761 325.324 238.235 263.716C260.379 215.93 291.225 178.807 333.143 149.977C342.239 143.659 362.803 131.021 373.085 126.677C354.103 121.938 303.881 153.532 286.084 168.934C210.157 233.307 163.494 383.377 172.194 474.604V475.394L171.402 475C141.348 463.941 141.744 435.508 142.14 402.334L142.534 401.544C165.076 324.928 184.452 258.977 220.043 208.032C238.63 181.177 261.171 159.85 288.062 142.869C317.326 124.308 352.521 110.485 395.625 100.612C439.916 90.3442 477.879 87.9747 511.493 93.1087C550.643 99.0326 584.257 114.829 614.311 141.289C627.362 152.742 638.038 159.85 647.53 165.775C677.188 185.126 690.634 194.209 722.27 315.451C732.948 347.045 726.225 377.453 702.497 405.493C682.329 429.189 653.065 447.355 629.734 460.783C589.793 483.688 494.49 526.735 445.453 527.92C437.939 523.575 430.82 521.6 424.098 520.021C412.234 517.257 400.766 514.492 389.298 499.09C378.225 484.478 376.249 471.841 373.875 458.808C372.689 451.7 371.503 444.196 368.338 436.692C364.781 465.916 361.221 499.09 368.338 527.92L367.944 529.5ZM353.707 523.576L366.757 528.314C359.638 499.485 363.593 466.706 366.757 437.482L367.152 434.322L367.944 435.902C371.108 444.196 372.689 452.094 373.875 459.992C376.249 473.026 378.225 485.663 389.298 499.88C400.37 514.886 411.84 517.651 423.307 520.416C430.426 521.996 437.543 523.971 445.057 528.314C494.094 527.129 589.002 484.083 628.944 461.177C683.911 429.584 744.415 384.957 721.48 317.03C690.238 196.183 676.793 187.495 647.134 168.144C637.644 162.22 627.362 155.112 613.917 143.264C558.157 94.2934 488.953 81.261 396.021 102.587C220.043 142.869 189.593 246.34 143.722 402.729V403.518C143.326 435.902 142.534 463.941 171.798 475C167.843 430.373 176.939 370.74 196.316 314.265C218.067 251.473 250.097 200.132 286.084 169.328C304.275 153.926 356.871 120.753 375.061 127.467L376.249 127.862L375.061 128.257C364.779 132.206 343.425 145.633 333.935 151.952C292.017 179.991 261.171 216.72 239.025 264.506C210.553 326.114 199.481 400.753 189.593 466.706C188.407 473.42 187.617 480.134 186.43 486.453C229.535 506.198 278.176 528.71 335.121 527.129C335.121 471.841 340.262 390.881 362.407 316.24C387.321 232.912 428.448 176.832 484.602 148.793C491.325 145.239 498.047 142.079 509.517 147.213L510.307 147.608L509.517 148.003C378.225 236.466 369.13 344.675 359.244 459.598C358.056 480.529 356.08 502.249 353.707 523.576ZM466.015 483.688L465.225 482.504C418.562 412.996 444.266 338.751 464.039 300.444C481.438 266.481 507.143 234.491 536.408 210.401C565.276 186.705 594.539 173.278 618.266 172.489C638.038 172.093 653.461 179.991 662.953 196.183L663.347 196.579H662.557C594.538 204.477 536.012 211.585 492.512 273.983C450.594 334.406 455.339 375.479 460.875 427.608C462.852 444.59 464.83 461.967 465.225 481.714L466.015 483.688ZM620.243 173.673C619.452 173.673 619.058 173.673 618.266 173.673C594.539 174.463 565.67 187.891 536.802 211.191C507.539 235.281 481.834 266.875 464.434 300.838C445.057 338.751 419.352 411.812 464.83 480.924C464.04 461.573 462.458 444.986 460.48 428.398C454.548 376.269 450.198 334.802 492.116 274.379C511.889 245.944 535.616 227.383 566.858 215.534C594.143 205.267 624.989 200.922 661.766 196.579C653.065 181.177 638.434 173.673 620.243 173.673Z" fill="#F4F4F4"/>
<path fill-rule="evenodd" clip-rule="evenodd" d="M136.206 425.244L137.392 461.181C72.1426 493.961 105.756 496.724 80.4471 507.388C80.8429 479.348 112.479 453.679 136.206 425.244ZM142.929 403.128L89.9389 474.214C75.7019 492.381 67.7933 508.177 65.0242 522C52.7662 583.214 138.58 607.304 199.084 628.234C405.906 698.926 417.374 648.375 558.946 563.861C592.956 543.72 628.941 526.344 663.346 505.808C726.618 468.685 808.47 378.642 721.477 316.64C745.996 388.911 674.814 435.116 628.941 461.181C588.605 484.087 493.301 527.134 444.66 528.318L367.151 528.714L352.914 523.579C369.523 384.171 354.102 252.268 509.514 147.612C498.442 142.873 492.115 145.638 484.997 149.192C358.847 212.38 335.91 405.893 335.91 527.53C278.965 529.108 230.324 506.993 186.033 486.457C196.711 416.556 206.993 331.646 238.628 263.72C259.984 217.119 291.224 179.207 333.142 150.378C342.632 144.058 363.988 130.631 374.27 126.682C355.684 119.968 303.088 153.536 285.687 168.543C207.388 235.285 163.097 386.146 171.797 474.609C142.139 464.342 142.533 435.907 142.929 403.128ZM334.724 608.883C338.283 566.626 320.488 569.786 306.251 540.167L431.611 548.855C416.978 557.543 384.156 565.441 382.969 585.977C419.747 600.985 456.524 578.475 492.905 574.13L474.715 596.245C416.188 645.216 317.719 662.198 263.147 629.42C296.761 623.89 308.229 632.579 334.724 608.883Z" fill="#F4F4F4"/>
<path d="M352.518 662.199C314.158 662.199 266.309 651.536 199.082 628.631C195.127 627.05 190.778 625.866 186.427 624.287C127.108 604.146 53.1585 579.266 64.6279 522.001C67.3955 507.39 75.7 491.197 89.5412 473.821L143.323 401.55V402.735C142.927 435.119 142.137 463.158 171.4 474.215C167.444 429.59 176.541 369.956 195.919 313.482C217.668 250.688 249.7 199.349 285.685 168.545C303.878 153.143 356.472 119.969 374.662 126.683L375.85 127.078L374.662 127.473C364.382 131.422 343.026 144.849 333.536 151.169C292.014 179.998 261.168 216.726 239.022 264.512C210.55 326.119 199.476 400.76 189.59 466.711C188.404 473.425 187.614 480.139 186.427 486.458C229.532 506.205 278.173 528.715 335.118 527.135C335.118 471.846 340.259 390.886 362.404 316.247C387.318 232.918 428.445 176.838 484.599 148.799C491.322 145.244 498.044 142.085 509.512 147.219L510.304 147.614L509.512 148.009C378.222 236.472 369.127 344.68 359.241 459.603C357.659 480.535 355.682 501.86 352.912 523.582L366.754 528.321L444.263 527.925C493.299 526.741 588.209 483.694 628.149 460.788C683.117 429.194 743.622 384.568 720.685 316.641L720.289 315.457L721.477 316.247C747.576 334.808 760.628 357.713 759.444 383.384C758.649 405.499 747.18 429.59 726.618 453.68C709.613 473.425 686.676 492.778 663.344 506.205C646.735 516.078 629.335 525.16 612.726 534.244C594.931 543.723 576.741 553.595 558.944 563.864C534.427 578.476 513.863 591.903 495.672 604.146C451.777 632.975 420.141 653.905 378.617 659.83C370.709 661.409 361.613 662.199 352.518 662.199ZM142.531 404.314L90.3313 474.215C76.8859 491.592 68.5815 507.39 65.8138 522.001C54.346 578.87 127.9 603.75 186.822 623.497C191.172 625.076 195.127 626.262 199.478 627.84C370.709 686.289 407.09 662.199 495.672 603.75C513.863 591.903 534.427 578.08 558.944 563.468C576.345 553.201 594.931 543.327 612.726 533.849C629.335 524.766 646.735 515.682 663.344 505.809C708.031 479.35 757.06 429.984 759.039 383.778C760.224 358.503 747.972 336.782 722.663 318.221C732.945 349.419 725.826 379.433 702.495 406.684C682.326 430.38 653.062 448.545 629.731 461.972C589.79 484.878 494.485 527.925 445.45 529.109L367.941 529.505L353.308 524.37V523.976C356.077 502.255 357.659 480.535 359.635 459.603C369.523 344.68 378.617 236.472 509.512 148.009C498.836 143.665 492.509 146.824 486.181 149.983C430.421 178.023 389.295 234.102 364.382 317.035C341.84 391.676 337.095 473.031 337.095 527.925V528.321H336.699C279.359 529.899 229.926 507.389 186.822 487.248H186.427V486.853C187.614 480.139 188.404 473.425 189.59 466.711C199.476 400.76 210.55 325.725 239.022 264.116C261.168 216.331 292.014 179.208 333.932 150.379C343.026 144.059 363.59 131.422 373.872 127.078C354.89 122.339 304.668 153.933 286.873 169.335C210.946 233.708 164.281 383.778 172.981 475.005V475.796L172.191 475.4C141.741 464.737 141.741 436.698 142.531 404.314ZM332.744 647.191C305.459 647.191 281.732 641.268 263.146 630.211L262.354 629.815H263.541C273.427 628.236 281.336 627.84 288.059 627.05C304.668 625.866 315.741 625.472 334.326 608.885C336.699 581.635 329.977 573.736 320.881 562.678C316.136 557.15 310.995 550.831 305.854 540.562L305.459 539.774H306.249L433.191 548.462L432.003 549.25C428.445 551.225 423.699 553.595 418.558 555.57C403.531 562.284 384.55 570.578 383.758 585.584C408.277 595.458 432.795 588.348 456.918 581.635C468.782 578.476 481.04 574.921 492.903 573.736H494.091L475.109 596.642C446.636 620.338 407.486 637.319 367.545 644.032C355.682 646.007 344.214 647.191 332.744 647.191ZM264.727 630.211C317.717 661.409 415.394 645.613 474.713 596.246L492.113 574.921C480.645 576.501 468.782 579.66 457.314 582.819C433.191 589.533 407.882 596.642 383.363 586.374H382.968V585.979C383.758 570.182 403.136 561.889 418.558 554.78C422.909 552.805 427.258 550.831 430.421 549.25L307.041 540.562C311.786 550.436 316.927 556.36 321.672 561.889C330.373 572.552 337.491 580.844 335.118 608.885C316.531 625.472 305.063 626.262 288.059 627.446C281.336 628.236 273.822 628.631 264.727 630.211ZM80.0493 508.18V507.389C80.4451 485.668 99.0315 465.527 119.2 443.807C124.736 437.488 130.668 431.168 136.204 424.85L136.996 424.06L138.182 461.184H137.786C97.8456 481.325 95.0765 489.617 93.1005 495.937C91.913 499.886 90.7271 503.045 80.8409 507.389L80.0493 508.18ZM135.808 426.429C130.668 432.749 124.736 438.672 119.595 444.596C100.217 465.527 81.631 485.668 80.8409 506.599C89.937 502.65 90.7271 499.886 92.3088 495.937C94.2863 489.617 97.4498 480.535 136.996 460.788L135.808 426.429Z" fill="#F4F4F4"/>
<path fill-rule="evenodd" clip-rule="evenodd" d="M465.224 482.114C462.456 399.575 437.147 353.764 492.51 274.383C534.824 212.776 591.769 204.878 662.556 196.584C605.215 99.4325 359.638 324.934 465.224 482.114ZM377.433 114.834C412.628 114.045 450.987 98.2476 483.81 117.204C464.432 149.193 372.688 176.442 377.433 227.387C407.883 224.623 398.787 196.584 454.942 155.907C494.488 127.077 533.637 133.001 555.782 117.599C485.788 80.871 428.051 102.987 377.433 114.834ZM367.547 529.11L445.056 528.714C425.678 516.471 407.091 524.371 388.901 500.279C371.5 476.979 376.247 458.418 367.547 436.303C363.988 465.922 360.032 499.491 367.547 529.11ZM334.723 608.884C308.228 632.185 296.76 623.891 263.543 629.814C317.719 662.594 416.583 645.218 475.11 596.641L493.301 574.526C456.919 578.475 420.143 601.381 383.364 586.373C384.551 565.838 416.978 557.939 432.006 549.251L306.647 540.561C320.488 570.181 338.283 566.628 334.723 608.884Z" fill="#F4F4F4"/>
<path d="M332.747 647.187C305.46 647.187 281.733 641.264 263.147 630.207L262.357 629.811H263.543C273.429 628.232 281.337 627.836 288.06 627.046C304.669 625.862 315.742 625.467 334.329 608.88C336.701 581.63 329.978 573.732 320.883 562.674C316.138 557.144 310.997 550.827 305.856 540.558L305.46 539.768H306.252L433.192 548.456L432.006 549.246C428.447 551.221 423.701 553.591 418.56 555.566C403.533 562.279 384.551 570.572 383.761 585.58C408.279 595.452 432.796 588.344 456.919 581.63C468.783 578.471 481.042 574.917 492.906 573.732H494.092L475.11 596.638C446.637 620.332 407.487 637.315 367.547 644.028C355.683 646.003 344.215 647.187 332.747 647.187ZM264.728 630.207C317.72 661.405 415.397 645.609 474.715 596.242L492.114 574.917C480.647 576.497 468.783 579.656 457.315 582.815C433.192 589.529 407.883 596.638 383.365 586.37H382.969V585.974C383.761 570.178 403.138 561.884 418.56 554.776C422.91 552.801 427.261 550.827 430.424 549.246L307.042 540.558C311.787 550.431 316.928 556.356 321.674 561.884C330.374 572.548 337.492 580.84 335.119 608.88C316.533 625.467 305.065 626.256 288.06 627.442C281.337 628.232 273.824 628.626 264.728 630.207ZM367.151 529.501C359.638 500.276 363.591 466.707 367.151 437.484L367.547 434.323L368.338 435.903C371.502 444.197 373.083 452.095 374.269 459.994C376.643 473.027 378.62 485.664 389.692 499.882C400.764 514.888 412.234 517.652 423.701 520.417C430.82 521.997 437.937 523.972 445.451 528.315L446.637 529.105L367.151 529.501ZM367.942 437.484C364.383 466.707 360.824 499.882 367.942 528.315L443.474 527.921C436.751 523.972 429.633 522.391 423.306 520.813C411.442 518.048 399.974 515.283 388.506 499.882C377.433 485.27 375.455 472.631 373.083 459.599C371.897 452.49 370.71 445.382 367.942 437.484ZM466.015 483.689L465.224 482.505C418.561 412.998 444.265 338.753 464.038 300.445C481.438 266.482 507.142 234.492 536.406 210.402C565.274 186.706 594.537 173.279 618.264 172.49C638.038 172.094 653.461 179.992 662.951 196.184L663.347 196.58H662.555C594.537 204.478 536.01 211.586 492.51 273.984C450.592 334.408 455.337 375.48 460.874 427.611C462.852 444.592 464.828 461.968 465.224 481.715L466.015 483.689ZM620.242 173.675C619.451 173.675 619.056 173.675 618.264 173.675C594.537 174.465 565.67 187.892 536.802 211.192C507.537 235.282 481.832 266.876 464.433 300.839C445.055 338.753 419.351 411.813 464.828 480.925C464.038 461.574 462.456 444.987 460.478 428.4C454.547 376.27 450.197 334.803 492.114 274.38C511.887 245.945 535.614 227.384 566.856 215.535C594.142 205.269 624.987 200.924 661.765 196.58C653.065 181.178 638.432 173.675 620.242 173.675ZM377.433 227.778V227.384C374.269 195.394 409.464 172.49 440.706 152.349C458.897 140.501 476.297 129.048 483.81 117.595C461.27 104.958 435.565 108.512 410.652 112.066C399.974 113.646 388.506 115.226 377.828 115.621H373.873L377.828 114.831C383.761 113.251 390.088 111.671 396.415 110.092C442.288 98.2439 494.488 84.8165 556.574 117.2L557.364 117.595L556.97 117.99C547.478 124.309 535.22 127.073 521.379 130.233C501.606 134.577 479.065 139.711 456.129 156.298C428.447 176.439 416.583 193.816 407.883 206.059C399.183 218.696 394.041 226.594 378.62 227.778H377.433ZM445.451 107.722C458.897 107.722 471.946 110.092 484.206 116.805L484.602 117.2L484.206 117.595C476.691 129.443 459.293 140.896 440.706 153.138C409.86 173.279 375.061 195.79 377.828 226.988C392.46 225.41 397.601 217.906 406.301 205.663C415.001 193.026 426.469 176.043 454.547 155.508C477.483 138.526 500.025 133.787 520.193 129.443C534.032 126.283 545.896 123.914 554.992 117.595C493.696 86.0012 441.892 99.0338 396.019 110.881C390.878 112.066 386.133 113.251 381.388 114.436C390.878 114.041 400.37 112.461 409.86 111.276C422.12 109.302 433.983 107.722 445.451 107.722Z" fill="#F4F4F4"/>
<path fill-rule="evenodd" clip-rule="evenodd" d="M135.019 390.492C135.019 390.492 123.157 400.761 119.598 402.735C114.851 405.5 99.0336 429.59 93.101 436.304C87.1699 443.017 77.6781 462.763 70.1652 472.241C67.7919 475.006 65.0243 491.198 69.3736 494.753C81.6331 505.02 110.897 499.886 123.551 493.172C126.714 491.592 138.578 461.974 139.766 456.839C141.742 446.571 146.883 429.59 143.719 419.717C140.952 411.818 144.115 405.894 137.788 395.626C136.206 393.257 136.206 389.702 135.019 390.492Z" fill="#F9F9F9"/>
<path fill-rule="evenodd" clip-rule="evenodd" d="M371.105 79.2853C380.201 77.3106 397.206 69.0173 405.905 67.4375C496.069 50.4558 556.178 61.1187 612.333 107.72C672.045 157.48 681.537 143.658 703.683 213.954C717.128 256.605 740.855 320.189 727.41 347.833C629.337 553.193 148.86 569.781 136.601 399.964C133.042 391.67 137.392 376.268 143.719 357.311C148.465 343.095 155.187 324.138 162.702 298.074C179.31 240.413 206.201 169.327 278.965 118.778C305.46 100.216 329.978 90.738 371.105 79.2853Z" fill="#F4F4F4"/>
<path fill-rule="evenodd" clip-rule="evenodd" d="M456.921 434.327C413.817 296.498 467.599 205.271 590.189 147.612C630.921 128.261 656.23 149.192 664.139 164.989C514.262 177.626 428.053 258.19 461.271 432.747C463.248 442.225 457.713 437.486 456.921 434.327Z" fill="white" fill-opacity="0.5"/>
<path fill-rule="evenodd" clip-rule="evenodd" d="M138.975 373.505C135.021 391.278 136.997 407.47 144.116 421.687C161.912 455.65 165.866 430.77 169.821 404.705C172.192 388.907 174.962 373.111 177.729 358.104C197.897 253.055 237.048 153.929 346.193 97.4544C354.497 92.7154 362.801 101.009 356.475 104.168C229.139 168.145 202.248 286.623 186.429 420.107C182.08 456.835 184.452 463.944 206.993 474.211C227.161 483.295 251.679 488.824 276.988 494.748C319.698 504.621 324.839 508.175 329.188 458.415C330.375 445.382 331.561 432.744 333.143 420.107C348.566 287.017 386.529 182.363 483.02 132.208C495.675 126.284 502.792 136.157 495.675 138.921C407.489 186.708 376.247 274.774 362.407 391.278C359.638 413.393 356.475 434.719 356.079 459.205C355.684 483.689 347.774 505.411 394.833 501.856C421.33 499.882 447.825 497.513 473.53 492.378C589.397 469.472 683.119 412.209 715.151 350.6C726.225 329.274 727.015 306.368 724.643 285.833C776.836 340.727 769.729 386.539 707.243 441.828C665.721 478.556 594.934 507.385 542.338 546.483C459.293 608.091 379.412 647.583 317.72 632.575C159.143 594.268 52.3712 567.809 60.6756 493.562C63.8391 467.893 124.739 392.858 138.975 373.505Z" fill="white" fill-opacity="0.5"/>
<path fill-rule="evenodd" clip-rule="evenodd" d="M76.8884 478.165C91.9156 447.756 109.71 424.851 127.901 400.365C125.133 413.792 125.133 422.876 133.834 436.304C114.851 437.094 95.8691 456.445 76.8884 478.165Z" fill="#F4F4F4"/>
<path fill-rule="evenodd" clip-rule="evenodd" d="M282.92 609.668C349.753 588.343 345.402 539.768 307.835 521.996C352.125 529.894 388.903 525.155 421.329 513.308C340.261 543.321 361.617 597.821 481.835 568.598C427.658 598.611 354.894 632.18 282.92 609.668Z" fill="#F4F4F4"/>
<path fill-rule="evenodd" clip-rule="evenodd" d="M388.505 87.9766C385.342 91.9258 437.146 78.4984 469.573 84.0273C481.437 86.0019 490.136 90.346 482.227 96.2699C456.522 116.806 421.723 127.469 397.6 159.853C386.528 174.859 387.318 186.312 397.205 176.44C450.987 121.94 501.999 110.092 532.055 96.6648C542.336 91.9258 540.754 87.5816 527.704 82.4476C472.737 61.1217 397.6 82.4476 388.505 87.9766Z" fill="white" fill-opacity="0.5"/>
</svg>
