<svg width="202" height="217" viewBox="0 0 202 217" fill="none" xmlns="http://www.w3.org/2000/svg">
<path fill-rule="evenodd" clip-rule="evenodd" d="M100.638 20.8908C100.959 13.9341 104.228 10.6603 109.806 10.2511L155.262 5.74963C161.673 5.81784 164.558 7.18191 164.494 13.3202V147.272C164.494 152.319 163.404 155.047 158.468 156.343L100.638 171.757V20.8908Z" fill="white" stroke="black" stroke-width="0.9997" stroke-miterlimit="22.9256"/>
<path fill-rule="evenodd" clip-rule="evenodd" d="M164.43 135.473V147.272C164.43 152.319 163.34 155.048 158.404 156.343L100.574 171.757V150.683L164.43 135.473Z" fill="white" stroke="black" stroke-width="0.9999" stroke-miterlimit="22.9256"/>
<path d="M100.638 20.8908C100.959 13.934 104.228 10.6603 109.806 10.2511L155.262 5.74963C161.673 5.81784 164.558 7.18191 164.494 13.3202" stroke="black" stroke-width="0.9999" stroke-miterlimit="22.9256"/>
<path fill-rule="evenodd" clip-rule="evenodd" d="M100.638 23.9602V171.757L72.4924 164.664C67.107 162.823 65.0554 161.8 65.5042 145.158V17.9583C65.5042 6.63652 69.0945 6.09089 76.2751 5.40886L120.961 1.24844C124.359 0.702813 127.693 1.11203 132.63 1.93048L156.416 5.68167L109.806 10.3195C98.9068 11.138 100.958 21.8459 100.638 23.9602Z" fill="white" stroke="black" stroke-width="0.9999" stroke-miterlimit="22.9256"/>
<line y1="-0.5" x2="35.1068" y2="-0.5" transform="matrix(0.986155 0.165827 -0.146975 0.98914 65.6289 31.326)" stroke="#E41D2C"/>
<line y1="-0.5" x2="64.2913" y2="-0.5" transform="matrix(0.993168 -0.116693 0.10327 0.994653 100.891 37.1477)" stroke="#E41D2C"/>
<path fill-rule="evenodd" clip-rule="evenodd" d="M100.638 150.682V171.757L72.4924 164.664C67.107 162.823 65.0554 161.8 65.5042 145.158V142.498L100.638 150.682Z" fill="white" stroke="black" stroke-width="0.9999" stroke-miterlimit="22.9256"/>
<path d="M100.638 23.9602C100.958 21.8459 98.9065 11.1379 109.806 10.3195L156.415 5.68166L132.63 1.93047C127.693 1.11203 124.359 0.702814 120.961 1.24844L76.2748 5.40885C69.0942 6.09088 65.5039 6.63651 65.5039 17.9583V36.1004" stroke="black" stroke-width="0.9999" stroke-miterlimit="22.9256"/>
<path fill-rule="evenodd" clip-rule="evenodd" d="M124.872 2.3396L79.4805 6.49992L98.7783 9.43262L144.426 5.4087L124.872 2.3396Z" fill="white" stroke="#E41D2C" stroke-width="0.9998" stroke-miterlimit="22.9256"/>
<path fill-rule="evenodd" clip-rule="evenodd" d="M77.3013 49.1274L85.5718 50.4915V136.837L77.3013 135.473V49.1274Z" fill="white" stroke="black" stroke-width="0.9999" stroke-miterlimit="22.9256"/>
<path fill-rule="evenodd" clip-rule="evenodd" d="M116.411 71.6344L119.104 68.2924L129.939 66.4509C130.067 63.9274 131.221 60.9946 133.401 60.0398C136.35 58.7439 140.581 60.3808 141.03 64.6094L150.711 62.9725L153.083 65.3596V75.2492L151.031 78.6594L119.039 85.0705L116.347 82.4106V71.6344H116.411Z" fill="white" stroke="#E41D2C" stroke-width="0.9999" stroke-miterlimit="22.9256"/>
<path fill-rule="evenodd" clip-rule="evenodd" d="M166.226 164.528C164.495 164.187 159.174 161.868 157.955 161.254C153.788 159.072 152.955 156.002 152.634 149.659C152.249 143.385 152.826 134.382 153.147 129.949C153.788 121.15 157.25 109.897 158.212 100.757C158.917 93.8006 158.661 88.6172 159.238 81.9332C159.302 81.865 159.302 81.865 159.43 81.865C159.43 88.0715 160.392 93.937 161.61 99.8025C163.149 107.237 165.2 114.535 165.969 120.673C167.636 134.245 167.701 146.522 167.316 161.936C167.188 162.755 166.867 164.391 166.226 164.528Z" fill="white" stroke="black" stroke-width="0.9997" stroke-miterlimit="22.9256"/>
<path fill-rule="evenodd" clip-rule="evenodd" d="M155.711 114.739C156.801 110.169 157.763 105.122 158.211 100.689C158.917 93.7323 158.66 88.5489 159.237 81.865C159.301 81.7968 159.301 81.7968 159.429 81.7968C159.429 88.0033 160.391 93.8688 161.609 99.7342C162.763 105.191 164.11 110.579 165.071 115.489L155.711 114.739Z" fill="white" stroke="black" stroke-width="0.9997" stroke-miterlimit="22.9256"/>
<path fill-rule="evenodd" clip-rule="evenodd" d="M158.468 97.5517C158.852 92.0954 158.724 87.5258 159.173 81.865C159.237 81.7968 159.237 81.7968 159.365 81.7968C159.365 87.1848 160.071 92.4364 161.096 97.4835L158.468 97.5517Z" fill="white" stroke="black" stroke-width="0.9997" stroke-miterlimit="22.9256"/>
<path fill-rule="evenodd" clip-rule="evenodd" d="M159.365 81.8649L194.562 76.8179C193.216 94.8918 199.691 103.826 200.781 119.309C202.128 138.133 200.525 156.48 197.448 156.889L174.688 162.686C173.021 163.095 167.763 165.21 165.968 164.596C166.738 164.664 167.058 162.823 167.122 161.936C167.507 146.454 167.443 134.245 165.776 120.673C165.007 114.534 162.955 107.237 161.416 99.8025C160.326 93.937 159.365 88.0033 159.365 81.8649Z" fill="white" stroke="black" stroke-width="0.9998" stroke-miterlimit="22.9256"/>
<path fill-rule="evenodd" clip-rule="evenodd" d="M159.365 81.8649L194.562 76.8179C193.537 90.4585 196.999 98.8475 199.243 108.805L165.071 115.626C164.109 110.715 162.699 105.327 161.545 99.8024C160.326 93.9369 159.365 88.0032 159.365 81.8649Z" fill="white" stroke="black" stroke-width="0.9997" stroke-miterlimit="22.9256"/>
<path fill-rule="evenodd" clip-rule="evenodd" d="M159.365 81.8649L194.562 76.8179C194.114 82.6834 194.498 87.594 195.268 92.0272C184.625 97.7563 173.085 98.984 161.032 97.4835C160.07 92.3683 159.365 87.1848 159.365 81.8649Z" fill="white" stroke="black" stroke-width="0.9997" stroke-miterlimit="22.9256"/>
<path fill-rule="evenodd" clip-rule="evenodd" d="M173.919 85.3433C174.945 85.2069 175.778 86.2299 175.778 87.594C175.778 88.9581 174.945 90.1858 173.919 90.254C172.893 90.3904 172.06 89.3674 172.06 88.0033C172.06 86.7074 172.893 85.4797 173.919 85.3433Z" fill="white" stroke="black" stroke-width="0.9997" stroke-miterlimit="22.9256"/>
<path fill-rule="evenodd" clip-rule="evenodd" d="M178.407 84.7294C179.368 84.593 180.138 85.5479 180.138 86.8438C180.138 88.1398 179.368 89.2311 178.407 89.3675C177.445 89.5039 176.676 88.549 176.676 87.2531C176.676 85.9571 177.445 84.8658 178.407 84.7294Z" fill="white" stroke="black" stroke-width="0.9997" stroke-miterlimit="22.9256"/>
<path fill-rule="evenodd" clip-rule="evenodd" d="M182.893 84.1156C183.855 83.9792 184.624 84.9341 184.624 86.23C184.624 87.5259 183.855 88.6854 182.893 88.7536C181.932 88.89 181.162 87.9351 181.162 86.6392C181.098 85.4115 181.868 84.252 182.893 84.1156Z" fill="white" stroke="black" stroke-width="0.9997" stroke-miterlimit="22.9256"/>
<path d="M176.227 127.357L177.509 125.788L182.51 124.97C182.574 123.81 183.087 122.446 184.112 121.969C185.459 121.355 187.446 122.105 187.639 124.083L192.126 123.333L193.216 124.424V128.994L192.255 130.562L177.445 133.495L176.227 132.268V127.357Z" stroke="#E41D2C" stroke-width="0.9998" stroke-miterlimit="22.9256"/>
<path d="M199.243 108.737L165.007 115.49L155.711 114.739" stroke="#E41D2C" stroke-width="0.9998" stroke-miterlimit="22.9256"/>
<path fill-rule="evenodd" clip-rule="evenodd" d="M21.7801 117.603L37.8082 125.447L34.4744 139.906L27.8708 144.135L9.08589 132.267C6.97018 130.971 7.22663 130.835 6.71373 128.175C5.4956 121.355 7.61131 116.717 17.3564 116.785C19.3439 116.785 19.985 116.717 21.7801 117.603Z" fill="white" stroke="black" stroke-width="0.9997" stroke-miterlimit="22.9256"/>
<path fill-rule="evenodd" clip-rule="evenodd" d="M29.2174 124.22C30.692 122.514 37.1674 120.878 39.5395 121.491L44.0274 114.125C46.2713 110.442 51.5927 111.943 54.4777 117.195C57.2346 122.173 59.1579 129.608 59.3503 135.746C59.4144 136.701 60.3761 136.701 61.2095 137.246C61.8507 137.656 62.4918 138.542 62.3636 139.156C61.7865 141.748 57.2987 144.34 55.5676 145.022C52.939 146.113 48.5153 142.907 46.7201 143.112C38.2573 143.862 39.6036 153.82 30.4356 150.001L20.6905 158.526C20.6905 158.526 17.9336 160.367 15.2409 161.254C13.8304 161.732 13.8946 163.164 12.2276 163.709C8.12443 165.005 2.8031 164.801 1.07206 161.05C0.751502 160.367 4.98292 158.253 4.14946 155.116C1.45674 145.022 5.8805 130.903 7.54742 126.607C8.82967 123.333 11.9712 119.309 16.459 120.605L29.2174 124.22ZM43.1298 122.583C45.7584 116.785 48.1947 113.716 51.4003 123.06C52.939 127.63 54.0289 133.222 54.0289 135.541C53.8366 143.044 46.7842 138.201 46.4637 135.269C46.2072 133.427 43.9633 124.902 43.1298 122.583ZM18.0619 127.562C12.8046 124.083 10.753 144.203 10.3043 147.409C9.40668 153.411 10.4966 160.026 17.1002 155.661C19.7929 153.888 26.3324 148.364 25.0501 145.84C21.011 138.406 23.5114 130.972 23.5114 129.949C22.9985 129.13 19.6647 128.312 18.0619 127.562Z" fill="white" stroke="black" stroke-width="0.9997" stroke-miterlimit="22.9256"/>
<path fill-rule="evenodd" clip-rule="evenodd" d="M26.3315 121.628C27.8061 119.923 34.2814 118.286 36.6536 118.9L40.1157 113.239C42.3596 109.556 50.0531 109.488 52.9382 114.739C53.0023 114.944 53.1305 115.08 53.1946 115.285C50.2454 111.738 46.014 111.056 44.0906 114.194L39.6028 121.56C37.2947 120.946 30.8194 122.583 29.2807 124.288L16.4582 120.605C11.9703 119.309 8.82877 123.333 7.54653 126.607C5.8796 130.903 1.45584 145.022 4.21268 155.184C4.98203 157.98 1.64818 160.026 1.19939 160.845C1.07117 160.504 0.94294 160.026 0.878828 159.549C0.750603 158.799 3.89211 157.366 3.05865 154.229C0.301815 144.067 4.46913 130.835 6.13605 126.538C7.4183 123.265 9.34167 117.467 13.8295 118.627L26.3315 121.628ZM59.4135 135.746C59.4776 135.951 59.5417 136.087 59.5417 136.292C59.4776 136.155 59.4135 135.951 59.4135 135.746Z" fill="white" stroke="black" stroke-width="0.9997" stroke-miterlimit="22.9256"/>
<path fill-rule="evenodd" clip-rule="evenodd" d="M45.3091 118.763C47.1683 116.171 49.1558 116.376 51.4639 123.196C53.0026 127.766 54.0925 133.359 54.0925 135.678C54.0284 138.269 53.1949 139.361 52.0409 139.633C52.2973 139.02 52.4897 138.201 52.4897 137.11C52.5538 134.791 51.4639 129.198 49.8611 124.629C48.1941 119.65 46.7196 118.218 45.3091 118.763Z" fill="white" stroke="black" stroke-width="0.9997" stroke-miterlimit="22.9256"/>
<path fill-rule="evenodd" clip-rule="evenodd" d="M10.303 153.547C10.2389 153.615 10.2389 153.683 10.303 153.82C11.0082 156.821 12.9957 158.389 17.163 155.661C19.8557 153.888 26.3952 148.363 25.1129 145.84C21.0739 138.406 23.5742 130.971 23.5742 129.948C23.0613 129.13 19.7275 128.311 18.1247 127.493C19.7275 128.243 21.138 128.789 21.6509 129.676C21.6509 130.699 18.7017 137.724 22.7408 145.158C24.0871 147.613 19.7916 150.478 17.2912 152.524C12.8675 156.275 10.9441 155.866 10.303 153.547Z" fill="white" stroke="black" stroke-width="0.9997" stroke-miterlimit="22.9256"/>
<path fill-rule="evenodd" clip-rule="evenodd" d="M42.3604 151.705L32.9358 148.568C30.9484 147.613 29.8584 146.113 29.7943 143.657C29.602 135.268 28.8326 129.812 33.8975 128.107C37.039 127.084 41.014 126.811 43.7709 128.516L50.6309 133.154L42.3604 151.705Z" fill="white" stroke="black" stroke-width="0.9999" stroke-miterlimit="22.9256"/>
<path fill-rule="evenodd" clip-rule="evenodd" d="M41.0763 140.861C41.1404 136.428 44.4102 132.813 48.1928 132.813C51.9754 132.813 54.2194 136.223 54.6682 140.316C54.9246 142.566 54.7964 144.271 54.7964 146.59C54.7323 147.682 54.3476 148.227 53.0653 148.636L43.769 151.501C41.0122 152.319 41.0763 150 41.0763 148.841C41.0763 146.181 41.0763 143.521 41.0763 140.861Z" fill="white" stroke="black" stroke-width="0.9999" stroke-miterlimit="22.9256"/>
<path fill-rule="evenodd" clip-rule="evenodd" d="M50.2447 138.133C52.4886 138.133 54.2838 140.247 54.2838 142.839C54.2838 145.43 52.4886 147.545 50.2447 147.545C48.0007 147.545 46.2056 145.43 46.2056 142.839C46.2056 140.247 48.0007 138.133 50.2447 138.133Z" fill="white" stroke="black" stroke-width="0.9997" stroke-miterlimit="22.9256"/>
<path fill-rule="evenodd" clip-rule="evenodd" d="M51.3356 139.634C53.1308 139.634 54.6053 141.407 54.6053 143.521C54.6053 145.704 53.1308 147.409 51.3356 147.409C49.5405 147.409 48.0659 145.635 48.0659 143.521C48.0659 141.339 49.5405 139.634 51.3356 139.634Z" fill="white" stroke="black" stroke-width="0.9998" stroke-miterlimit="22.9256"/>
<path fill-rule="evenodd" clip-rule="evenodd" d="M123.46 172.917C124.357 172.303 125.704 173.053 125.64 174.417L107.56 192.491C106.278 193.446 104.611 191.809 105.893 190.581L123.46 172.917Z" fill="white" stroke="#E41D2C" stroke-width="0.9997" stroke-miterlimit="22.9256"/>
<path fill-rule="evenodd" clip-rule="evenodd" d="M123.334 176.873L125.642 174.486C127.373 179.192 128.078 183.898 127.245 188.604L125.963 188.672C126.219 184.58 125.834 180.624 123.334 176.873Z" fill="white" stroke="#E41D2C" stroke-width="0.9997" stroke-miterlimit="22.9256"/>
<path fill-rule="evenodd" clip-rule="evenodd" d="M127.18 175.645C136.283 175.645 140.515 183.625 140.515 194.537C140.515 196.651 140.258 198.766 139.681 200.676C139.489 201.358 138.527 200.539 138.271 201.153C141.605 189.217 135.065 179.396 128.398 178.918C119.23 178.305 110.254 186.148 109.1 192.286L106.664 192.559C106.92 191.332 107.305 190.104 107.882 188.876C111.087 181.715 120.127 175.645 127.18 175.645Z" fill="white" stroke="#E41D2C" stroke-width="0.9997" stroke-miterlimit="22.9256"/>
<path fill-rule="evenodd" clip-rule="evenodd" d="M52.426 142.498L142.183 197.811L140.516 199.584L51.2719 144.544C50.3102 143.657 51.4643 141.952 52.426 142.498Z" fill="white" stroke="#E41D2C" stroke-width="0.9997" stroke-miterlimit="22.9256"/>
<path fill-rule="evenodd" clip-rule="evenodd" d="M149.812 191.468C150.133 190.377 152.569 191.4 152.056 190.172C149.684 184.852 143.978 181.988 137.182 183.625C129.553 185.466 121.09 192.218 119.231 200.539C118.782 202.517 120.321 202.653 122.244 201.017C123.206 200.13 124.103 198.902 124.809 197.47C125.322 196.447 125.963 194.264 126.219 193.105L124.745 194.81C123.911 197.47 121.859 199.994 121.411 199.925C121.154 199.925 121.475 198.766 123.078 196.311C124.36 194.401 126.283 192.287 127.758 191.127C141.478 180.487 147.953 189.627 149.812 191.468Z" fill="white" stroke="#E41D2C" stroke-width="0.9997" stroke-miterlimit="22.9256"/>
<path fill-rule="evenodd" clip-rule="evenodd" d="M132.246 210.497L153.147 193.105L152.25 187.24L132.118 206.814L132.246 210.497Z" fill="white" stroke="#E41D2C" stroke-width="0.9997" stroke-miterlimit="22.9256"/>
<path fill-rule="evenodd" clip-rule="evenodd" d="M150.966 183.966C155.71 186.967 155.71 196.242 150.966 204.7C146.221 213.157 138.592 217.658 133.848 214.657C129.103 211.656 129.103 202.381 133.848 193.923C138.528 185.466 146.221 180.965 150.966 183.966ZM149.94 185.944C153.787 188.399 152.633 197.265 148.85 203.881C145.067 210.497 138.913 215.407 135.066 212.952C131.219 210.497 132.181 202.381 136.028 195.424C139.938 188.467 146.093 183.488 149.94 185.944Z" fill="white" stroke="#E41D2C" stroke-width="0.9997" stroke-miterlimit="22.9256"/>
<path fill-rule="evenodd" clip-rule="evenodd" d="M143.081 198.766C143.337 198.971 143.337 199.516 143.017 200.062C142.696 200.539 142.247 200.812 141.927 200.608C141.67 200.403 141.67 199.857 141.991 199.312C142.311 198.834 142.76 198.562 143.081 198.766Z" fill="white" stroke="#E41D2C" stroke-width="0.9997" stroke-miterlimit="22.9256"/>
</svg>
