<svg width="268" height="188" viewBox="0 0 268 188" fill="none" xmlns="http://www.w3.org/2000/svg">
<g clip-path="url(#clip0)">
<path d="M70.4 139.569C109.169 139.569 140.574 148.683 140.574 159.981C140.574 171.203 109.169 180.393 70.4 180.393C31.6312 180.393 0.225586 171.279 0.225586 159.981C0.225586 148.683 31.6312 139.569 70.4 139.569Z" stroke="black" stroke-width="0.5674" stroke-miterlimit="22.9256"/>
<path fill-rule="evenodd" clip-rule="evenodd" d="M77.4623 137.912C77.4623 147.779 103.383 157.269 135.315 157.269C167.246 157.269 193.167 147.779 193.167 137.912L203.911 34.3461H135.24H66.7183L77.4623 137.912Z" fill="white" stroke="black" stroke-width="0.9999" stroke-miterlimit="22.9256"/>
<path fill-rule="evenodd" clip-rule="evenodd" d="M135.766 0.376587C94.818 0.376587 59.8059 13.859 61.0832 20.3365C61.534 22.7468 62.0599 26.6634 62.7361 28.9231C66.4177 40.3718 97.5228 48.4311 135.39 48.4311C174.459 48.4311 206.391 39.7692 208.269 27.7933L209.621 20.1859C210.748 13.7083 176.713 0.376587 135.766 0.376587Z" fill="white" stroke="#E41D2C" stroke-width="0.9999" stroke-miterlimit="22.9256"/>
<path fill-rule="evenodd" clip-rule="evenodd" d="M135.39 0.376587C94.4427 0.376587 61.2339 8.96313 61.2339 19.5833C61.2339 30.2035 94.4427 38.79 135.39 38.79C176.338 38.79 209.547 30.2035 209.547 19.5833C209.547 8.96313 176.338 0.376587 135.39 0.376587Z" fill="white" stroke="#E41D2C" stroke-width="0.9998" stroke-miterlimit="22.9256"/>
<path d="M178.667 67.3365C194.069 64.5497 218.863 56.1138 206.541 31.6346" stroke="black" stroke-width="0.9999" stroke-miterlimit="22.9256"/>
<path fill-rule="evenodd" clip-rule="evenodd" d="M198.802 56.4904L177.69 63.4198L179.193 70.6506L199.704 63.8718C202.86 62.5913 202.334 57.1682 198.802 56.4904Z" fill="white" stroke="black" stroke-width="0.9999" stroke-miterlimit="22.9256"/>
<path fill-rule="evenodd" clip-rule="evenodd" d="M178.216 63.3445C176.488 63.3445 175.061 65.0016 175.061 67.1106C175.061 69.1442 176.488 70.8766 178.216 70.8766C179.944 70.8766 181.372 69.2195 181.372 67.1106C181.372 65.0769 179.944 63.3445 178.216 63.3445Z" fill="white" stroke="black" stroke-width="0.9997" stroke-miterlimit="22.9256"/>
<path d="M67.9209 27.6426C67.9209 28.3205 67.9209 28.9984 67.9209 29.6763C67.9209 31.484 68.0712 33.141 69.7241 34.1202C71.7527 35.4007 74.2321 36.3798 77.0871 37.5096C79.5665 38.4888 80.2427 36.6058 80.3179 34.3462L80.393 32.4632C75.3591 31.1074 71.1516 29.4503 67.9209 27.6426Z" stroke="#E41D2C" stroke-width="0.9999" stroke-miterlimit="22.9256"/>
<path d="M73.3301 32.6891C98.65 65.0769 154.098 71.4038 177.239 67.5625C177.615 67.4872 177.915 67.4118 178.291 67.4118" stroke="black" stroke-width="0.9999" stroke-miterlimit="22.9256"/>
<path fill-rule="evenodd" clip-rule="evenodd" d="M135.39 4.21796C174.084 4.21796 205.414 11.3734 205.414 20.1859C205.414 28.9984 174.084 36.1539 135.39 36.1539C96.6967 36.1539 65.3662 28.9984 65.3662 20.1859C65.3662 11.2981 96.6967 4.21796 135.39 4.21796Z" fill="white" stroke="#E41D2C" stroke-width="0.9997" stroke-miterlimit="22.9256"/>
<path fill-rule="evenodd" clip-rule="evenodd" d="M135.39 4.21796C174.084 4.21796 205.414 11.3734 205.414 20.1859C205.414 20.7885 205.264 21.391 204.964 21.9183C199.704 14.3109 170.778 8.4359 135.766 8.4359C99.7021 8.4359 70.0245 14.6122 66.1927 22.5962C65.6667 21.843 65.3662 21.0144 65.3662 20.1106C65.3662 11.2981 96.6967 4.21796 135.39 4.21796Z" fill="white" stroke="#E41D2C" stroke-width="0.9993" stroke-miterlimit="22.9256"/>
<path fill-rule="evenodd" clip-rule="evenodd" d="M95.5698 62.8926C99.1762 63.1939 101.881 65.9807 101.656 69.0689C101.355 72.157 98.1994 74.4166 94.593 74.04C90.9867 73.7388 88.2819 70.9519 88.5073 67.8637C88.8078 64.7756 91.9634 62.516 95.5698 62.8926Z" fill="white" stroke="black" stroke-width="0.9997" stroke-miterlimit="22.9256"/>
<path fill-rule="evenodd" clip-rule="evenodd" d="M88.9576 66.8846C92.8646 63.7211 100.678 66.4327 101.355 69.6715C101.129 81.5721 98.199 92.7948 94.2921 103.49L79.6411 100.327C80.9935 88.0497 83.7734 76.6009 88.9576 66.8846Z" fill="white" stroke="black" stroke-width="0.9997" stroke-miterlimit="22.9256"/>
<path fill-rule="evenodd" clip-rule="evenodd" d="M94.2924 103.49L92.4892 110.57C90.2352 112.077 86.5537 110.345 83.9992 109.817C81.8203 109.365 78.3642 110.043 77.688 107.859L79.5663 100.327C81.4446 97.0881 92.7898 98.2179 94.2924 103.49Z" fill="white" stroke="black" stroke-width="0.9997" stroke-miterlimit="22.9256"/>
<path fill-rule="evenodd" clip-rule="evenodd" d="M86.2534 105.976C90.3106 106.88 93.0905 108.913 92.4894 110.571C91.8883 112.228 88.0566 112.83 83.9994 112.002C79.9422 111.098 77.1623 109.064 77.7633 107.407C78.4395 105.75 82.1962 105.147 86.2534 105.976Z" fill="white" stroke="black" stroke-width="0.9997" stroke-miterlimit="22.9256"/>
<path fill-rule="evenodd" clip-rule="evenodd" d="M54.1714 118.329L109.094 126.99L102.858 166.609L46.8834 154.784C40.3469 153.503 36.3648 143.486 37.9426 133.845C39.4453 124.204 46.9586 117.425 53.4952 118.178C53.7206 118.253 53.946 118.253 54.1714 118.329Z" fill="white" stroke="#E41D2C" stroke-width="0.9997" stroke-miterlimit="22.9256"/>
<path fill-rule="evenodd" clip-rule="evenodd" d="M109.169 126.84C115.405 127.819 119.086 137.535 117.433 148.457C115.705 159.453 109.244 167.513 102.933 166.534C96.6967 165.554 93.0152 155.838 94.6681 144.917C96.3962 133.92 102.858 125.861 109.169 126.84Z" fill="white" stroke="#E41D2C" stroke-width="0.9993" stroke-miterlimit="22.9256"/>
<path fill-rule="evenodd" clip-rule="evenodd" d="M84.0743 108.01C85.2013 107.633 86.4034 108.236 86.8542 108.763C87.4553 109.441 86.6288 110.947 86.3283 112.454C86.0278 113.734 86.1029 115.014 88.2818 115.542L116.607 121.567C124.346 123.902 125.022 127.894 122.017 134.07L117.509 143.184C115.33 147.402 112.55 149.812 108.718 149.737V149.587C108.643 149.587 108.493 149.587 108.417 149.587C107.29 149.436 106.539 148.155 106.765 146.8C106.99 145.444 107.967 144.917 109.094 145.143C110.747 144.691 112.324 143.486 113.677 141.226L117.584 133.167C119.161 129.476 119.838 126.84 115.255 125.559L87.4553 119.684C82.5717 118.328 80.9939 116.445 82.1209 111.098C82.3463 109.968 82.8722 108.462 84.0743 108.01Z" fill="white" stroke="black" stroke-width="0.9999" stroke-miterlimit="22.9256"/>
<path fill-rule="evenodd" clip-rule="evenodd" d="M181.522 183.782C177.39 180.845 172.356 175.196 169.275 172.635C165.068 169.245 163.039 164.5 162.964 155.537L162.739 75.8477C162.739 65.5288 166.871 58.3734 170.928 56.4904L185.279 50.6154L231.335 41.4263C246.212 40.7484 259.661 49.0336 264.469 59.6538C265.596 62.1394 266.423 64.7003 266.498 67.3365L266.122 75.2452L266.197 145.821C266.047 154.708 266.122 169.772 255.153 171.806L206.692 187.021C200.606 188.377 186.932 187.699 181.522 183.782Z" fill="white" stroke="black" stroke-width="0.9999" stroke-miterlimit="22.9256"/>
<path fill-rule="evenodd" clip-rule="evenodd" d="M183.851 57.4695C192.116 57.4695 198.727 59.2772 198.727 61.5368C198.727 63.7965 192.04 65.6041 183.851 65.6041C175.586 65.6041 168.975 63.7965 168.975 61.5368C168.975 59.2772 175.661 57.4695 183.851 57.4695Z" fill="white" stroke="black" stroke-width="0.9997" stroke-miterlimit="22.9256"/>
<path fill-rule="evenodd" clip-rule="evenodd" d="M200.08 50.54L200.155 61.2356C200.155 61.3109 200.23 60.8589 200.23 61.3862C200.23 61.9134 193.393 64.2484 185.279 64.2484C177.089 64.2484 170.628 62.4407 170.477 61.4615L170.402 50.4647C170.402 51.4439 177.089 52.2724 185.279 52.2724C193.093 52.1971 199.479 51.4439 200.08 50.54Z" fill="white" stroke="black" stroke-width="0.9998" stroke-miterlimit="22.9256"/>
<path fill-rule="evenodd" clip-rule="evenodd" d="M181.522 183.782C175.887 179.715 177.314 167.889 177.389 161.412L178.592 81.2708C178.817 66.282 188.735 63.1186 204.437 59.4279L242.455 53.0256C257.256 50.0881 267.324 51.5945 267.549 67.0352C267.624 72.5336 266.497 70.5 266.573 75.4711L267.249 147.929C267.098 156.817 269.352 171.58 258.383 173.614L206.616 187.096C200.606 188.377 186.931 187.699 181.522 183.782Z" fill="white" stroke="black" stroke-width="0.9999" stroke-miterlimit="22.9256"/>
<path d="M201.056 64.625L201.132 70.0481C201.357 84.2837 194.294 84.4343 194.294 94.9038V166.458C194.219 177.304 194.67 186.418 198.201 187.548" stroke="black" stroke-width="0.9999" stroke-miterlimit="22.9256"/>
<path d="M189.035 85.1875V166.609C188.96 177.154 190.613 186.268 193.243 187.247" stroke="black" stroke-width="0.9997" stroke-miterlimit="22.9256"/>
<path d="M183.701 81.4214V169.471C183.625 179.715 185.804 185.59 188.359 186.494" stroke="black" stroke-width="0.9997" stroke-miterlimit="22.9256"/>
<path d="M167.472 64.7756C168.825 66.4327 172.356 67.7131 179.644 67.8638" stroke="black" stroke-width="0.9997" stroke-miterlimit="22.9256"/>
<path d="M201.507 85.3381L262.29 73.8141" stroke="black" stroke-width="0.9997" stroke-miterlimit="22.9256"/>
<path d="M200.155 55.2099L239.826 48.2051C244.033 48.0545 252.598 48.1298 257.256 52.1971" stroke="black" stroke-width="0.9999" stroke-miterlimit="22.9256"/>
<path fill-rule="evenodd" clip-rule="evenodd" d="M205.039 54.5321C206.166 48.5817 206.541 43.5353 215.106 42.8574L234.491 39.9952C241.854 38.9407 244.408 46.1715 244.859 48.7324C245.16 50.4648 237.722 50.5401 237.496 49.5609C237.196 48.1298 236.595 45.7949 232.462 46.3974L217.886 48.6571C215.182 49.109 214.581 52.1218 214.28 53.8542C213.754 55.8878 204.738 56.4904 205.039 54.5321Z" fill="white" stroke="black" stroke-width="0.9998" stroke-miterlimit="22.9256"/>
<path fill-rule="evenodd" clip-rule="evenodd" d="M185.278 47.226C193.543 47.226 200.155 48.7324 200.155 50.6154C200.155 52.4984 193.468 54.0048 185.278 54.0048C177.014 54.0048 170.402 52.4984 170.402 50.6154C170.327 48.7324 177.014 47.226 185.278 47.226Z" fill="white" stroke="black" stroke-width="0.9997" stroke-miterlimit="22.9256"/>
<path d="M216.459 104.62L218.938 101.758L228.781 100.176C228.931 98.0673 229.908 95.5064 231.936 94.6779C234.566 93.6234 238.473 94.9791 238.849 98.5945L247.639 97.1634L249.818 99.1971V107.708L247.94 110.646L218.863 116.069L216.384 113.734V104.62H216.459Z" stroke="#E41D2C" stroke-width="0.9997" stroke-miterlimit="22.9256"/>
</g>
<defs>
<clipPath id="clip0">
<rect width="268" height="188" fill="white"/>
</clipPath>
</defs>
</svg>
