<svg width="276" height="180" viewBox="0 0 276 180" fill="none" xmlns="http://www.w3.org/2000/svg">
<g clip-path="url(#clip0)">
<path d="M162.028 115.405C224.838 115.405 275.742 129.798 275.742 147.572C275.742 165.347 224.838 179.74 162.028 179.74C99.2188 179.74 48.3154 165.347 48.3154 147.572C48.3154 129.798 99.2188 115.405 162.028 115.405Z" stroke="black" stroke-width="0.5669" stroke-miterlimit="22.9256"/>
<path fill-rule="evenodd" clip-rule="evenodd" d="M234.76 128.671C234.76 140.896 202.837 150.78 163.409 150.78C123.98 150.78 92.0578 140.896 92.0578 128.671L78.8574 42.3989H163.409H247.96L234.76 128.671Z" fill="white" stroke="black" stroke-width="0.9998" stroke-miterlimit="22.9256"/>
<path fill-rule="evenodd" clip-rule="evenodd" d="M162.977 0.433533C213.449 0.433533 256.588 17.0809 255.035 25.1445C254.431 28.1792 253.913 32.948 252.964 35.7225C248.478 49.8555 210.085 59.8266 163.495 59.8266C115.353 59.8266 76.0965 49.1619 73.6808 34.422L72.0415 24.9711C70.6611 16.9075 112.505 0.433533 162.977 0.433533Z" fill="white" stroke="#E41D2C" stroke-width="0.9998" stroke-miterlimit="22.9256"/>
<path fill-rule="evenodd" clip-rule="evenodd" d="M163.495 0.433533C213.967 0.433533 254.863 11.0983 254.863 24.1908C254.863 37.2832 213.967 47.948 163.495 47.948C113.023 47.948 72.1279 37.2832 72.1279 24.1908C72.1279 11.0983 113.023 0.433533 163.495 0.433533Z" fill="white" stroke="#E41D2C" stroke-width="0.9997" stroke-miterlimit="22.9256"/>
<path fill-rule="evenodd" clip-rule="evenodd" d="M163.754 4.24854C212.414 4.24854 251.843 13.4393 251.843 24.711C251.843 35.9826 212.414 45.1734 163.754 45.1734C115.094 45.1734 75.665 35.9826 75.665 24.711C75.665 13.4393 115.094 4.24854 163.754 4.24854Z" fill="white" stroke="#E41D2C" stroke-width="0.9999" stroke-miterlimit="22.9256"/>
<path fill-rule="evenodd" clip-rule="evenodd" d="M163.754 4.24854C212.414 4.24854 251.842 13.4393 251.842 24.711C251.842 25.4913 251.67 26.2717 251.325 26.9653C244.768 17.1676 208.273 9.71096 164.358 9.71096C119.062 9.71096 81.7043 17.6878 76.8728 27.9191C76.1826 26.8786 75.8375 25.8381 75.8375 24.711C75.6649 13.4393 115.093 4.24854 163.754 4.24854Z" fill="white" stroke="#E41D2C" stroke-width="0.9998" stroke-miterlimit="22.9256"/>
<path d="M110.176 83.1503C91.1949 79.6821 60.6528 69.2775 75.8376 39.1041" stroke="black" stroke-width="0.9998" stroke-miterlimit="22.9256"/>
<path fill-rule="evenodd" clip-rule="evenodd" d="M85.3283 69.711L111.298 78.2948L109.4 87.2254L84.1204 78.815C80.238 77.2543 81.0145 70.5781 85.3283 69.711Z" fill="white" stroke="black" stroke-width="0.9998" stroke-miterlimit="22.9256"/>
<path fill-rule="evenodd" clip-rule="evenodd" d="M110.694 78.2948C112.85 78.2948 114.576 80.3757 114.576 82.8902C114.576 85.4046 112.85 87.4855 110.694 87.4855C108.537 87.4855 106.811 85.4046 106.811 82.8902C106.811 80.289 108.537 78.2948 110.694 78.2948Z" fill="white" stroke="black" stroke-width="0.9998" stroke-miterlimit="22.9256"/>
<path d="M246.494 34.0751C246.494 34.9422 246.494 35.8092 246.494 36.5896C246.494 38.7572 246.321 40.8381 244.337 42.052C241.835 43.6127 238.729 44.9133 235.278 46.2139C232.172 47.4277 231.395 45.0867 231.309 42.3121L231.223 39.9711C237.435 38.3237 242.611 36.3295 246.494 34.0751Z" stroke="#E41D2C" stroke-width="0.9998" stroke-miterlimit="22.9256"/>
<path d="M239.937 40.4047C208.791 80.3758 140.373 88.1792 111.902 83.4104C111.47 83.3237 111.039 83.237 110.607 83.1503" stroke="black" stroke-width="0.9998" stroke-miterlimit="22.9256"/>
<path fill-rule="evenodd" clip-rule="evenodd" d="M5.09062 99.711L36.4092 111.069L33.8208 121.908L3.36508 110.723C-1.29388 108.555 -0.172279 100.491 5.09062 99.711Z" fill="white" stroke="black" stroke-width="0.9999" stroke-miterlimit="22.9256"/>
<path fill-rule="evenodd" clip-rule="evenodd" d="M35.6328 110.983C38.2211 111.069 40.2917 113.671 40.2055 116.705C40.1192 119.827 37.876 122.254 35.2877 122.168C32.6994 122.081 30.6287 119.48 30.715 116.445C30.8013 113.324 33.0445 110.896 35.6328 110.983Z" fill="white" stroke="black" stroke-width="0.9998" stroke-miterlimit="22.9256"/>
<path fill-rule="evenodd" clip-rule="evenodd" d="M133.988 167.428L36.2366 159.191C16.5655 157.283 70.4886 128.931 84.8968 137.341L134.937 164.306C138.043 165.867 136.922 167.688 133.988 167.428Z" fill="white" stroke="#E41D2C" stroke-width="0.9998" stroke-miterlimit="22.9256"/>
<path fill-rule="evenodd" clip-rule="evenodd" d="M36.2368 115.751C34.9426 115.318 34.5975 117.225 35.374 117.659L45.7273 121.387L56.1668 144.624L86.1049 152.688L57.5472 142.977L47.0214 119.653L36.2368 115.751Z" fill="white" stroke="black" stroke-width="0.9998" stroke-miterlimit="22.9256"/>
<path fill-rule="evenodd" clip-rule="evenodd" d="M216.038 134.566L258.831 120.173L259.78 146.012L219.661 161.098H218.798L216.038 134.566Z" fill="white" stroke="#E41D2C" stroke-width="0.9997" stroke-miterlimit="22.9256"/>
<path fill-rule="evenodd" clip-rule="evenodd" d="M217.504 134.48L258.831 120.173L259.78 146.012L219.661 161.098L217.504 134.48Z" fill="white" stroke="#E41D2C" stroke-width="0.9997" stroke-miterlimit="22.9256"/>
<path fill-rule="evenodd" clip-rule="evenodd" d="M258.055 118.439L237.779 125.723L217.763 133.092L215.434 132.832C215.434 129.364 215.347 125.809 215.52 122.428C215.606 119.74 216.9 118.092 218.971 116.965C220.869 115.925 230.446 112.023 231.395 109.422C231.999 107.861 231.913 105.78 231.74 104.306C230.014 90.5202 221.818 62.6011 232.344 58.7861C242.87 54.9711 239.505 87.1387 240.023 101.358C240.109 102.832 240.368 104.827 241.144 105.954C242.438 107.775 250.548 105.607 252.446 105.26C254.603 104.827 255.725 105.867 256.243 108.295C257.019 111.329 257.537 115.231 258.055 118.439ZM232.948 65.289C234.242 64.8555 235.45 67.0231 235.709 70.2312C235.968 73.4393 235.191 76.3873 233.897 76.8208C232.603 77.2543 231.395 75.0867 231.136 71.8786C230.877 68.6705 231.74 65.7225 232.948 65.289Z" fill="white" stroke="black" stroke-width="0.9998" stroke-miterlimit="22.9256"/>
<path fill-rule="evenodd" clip-rule="evenodd" d="M259.608 118.092L239.332 125.376L217.677 132.746C217.677 129.277 217.332 125.549 217.418 122.168C217.504 119.48 218.453 117.746 220.524 116.618C222.422 115.578 231.999 111.676 232.948 109.075C233.552 107.514 233.466 105.434 233.293 103.96C231.568 90.1734 223.371 62.2543 233.897 58.4393C244.423 54.6243 241.058 86.7919 241.576 101.012C241.662 102.486 241.921 104.48 242.697 105.607C243.991 107.428 252.101 105.26 254 104.913C256.156 104.48 257.278 105.52 257.796 107.948C258.572 110.983 259.09 114.884 259.608 118.092ZM234.501 65.0289C235.795 64.5954 237.003 66.763 237.262 69.9711C237.521 73.1792 236.744 76.1272 235.45 76.5607C234.156 76.9942 232.948 74.8266 232.689 71.6185C232.43 68.4104 233.293 65.4624 234.501 65.0289Z" fill="white" stroke="black" stroke-width="0.9998" stroke-miterlimit="22.9256"/>
<path fill-rule="evenodd" clip-rule="evenodd" d="M217.763 133.006L259.607 118.353L258.831 120.173L217.504 134.566L215.865 134.48L215.692 133.006H217.763Z" fill="white" stroke="black" stroke-width="0.9997" stroke-miterlimit="22.9256"/>
<path d="M142.099 96.5896L144.946 93.5549C149.777 93.9017 154.523 94.3353 159.527 93.9884C159.699 91.5607 161.252 88.6127 163.582 87.9191C168.154 86.6185 171.26 89.133 171.519 93.9884C176.523 94.2486 181.527 93.9884 186.618 93.5549L189.465 96.5896V107.081L186.618 110.029C172.382 111.763 158.491 111.763 144.946 110.029L142.099 107.081V96.5896Z" stroke="#E41D2C" stroke-width="0.9998" stroke-miterlimit="22.9256"/>
</g>
<defs>
<clipPath id="clip0">
<rect width="276" height="180" fill="white"/>
</clipPath>
</defs>
</svg>
