<svg width="208" height="184" viewBox="0 0 208 184" fill="none" xmlns="http://www.w3.org/2000/svg">
<path fill-rule="evenodd" clip-rule="evenodd" d="M40.5346 21.8435C40.9051 14.5061 44.5368 11.0968 50.7625 10.6521L101.532 5.90869C108.721 5.98281 111.908 7.46512 111.834 13.9132V154.584C111.834 159.921 110.648 162.811 105.089 164.071L40.4604 180.302V21.8435H40.5346Z" fill="white" stroke="black" stroke-width="0.9666" stroke-miterlimit="22.9256"/>
<path fill-rule="evenodd" clip-rule="evenodd" d="M111.907 142.207V154.584C111.907 159.921 110.722 162.811 105.163 164.071L40.5342 180.302V158.216L111.907 142.207Z" fill="white" stroke="black" stroke-width="0.9666" stroke-miterlimit="22.9256"/>
<path fill-rule="evenodd" clip-rule="evenodd" d="M40.5342 21.8435C40.9048 14.5061 44.5364 11.0968 50.7621 10.6521L101.531 5.90869C108.72 5.98281 111.907 7.46512 111.833 13.9132V35.4066L40.5342 44.3746V21.8435Z" fill="white" stroke="black" stroke-width="0.9666" stroke-miterlimit="22.9256"/>
<path fill-rule="evenodd" clip-rule="evenodd" d="M40.534 25.0305V180.302L9.10904 172.891C3.10569 170.964 0.808107 169.852 1.2528 152.361V18.7307C1.32692 6.87221 5.32915 6.3534 13.4077 5.61224L63.2874 1.23943C67.1414 0.720624 70.8472 1.0912 76.3318 1.90647L102.939 5.83459L50.836 10.7262C38.607 11.6156 40.9787 22.8811 40.534 25.0305Z" fill="white" stroke="black" stroke-width="0.9666" stroke-miterlimit="22.9256"/>
<path fill-rule="evenodd" clip-rule="evenodd" d="M40.534 158.216V180.302L9.10904 172.891C3.10569 170.964 0.808107 169.852 1.2528 152.361V149.544L40.534 158.216Z" fill="white" stroke="black" stroke-width="0.9666" stroke-miterlimit="22.9256"/>
<path fill-rule="evenodd" clip-rule="evenodd" d="M40.5341 25.0305V44.3746L1.25293 37.7784V18.7307C1.32705 6.87221 5.32928 6.3534 13.4079 5.61224L63.2876 1.23943C67.1416 0.720624 70.8474 1.0912 76.3319 1.90647L102.939 5.83459L50.8362 10.7262C38.6071 11.6156 40.9788 22.8811 40.5341 25.0305Z" fill="white" stroke="black" stroke-width="0.9666" stroke-miterlimit="22.9256"/>
<path fill-rule="evenodd" clip-rule="evenodd" d="M71.0696 1.6842L16.9653 6.72406L38.4588 9.83691L92.5631 5.09352L71.0696 1.6842Z" fill="white" stroke="#E41D2C" stroke-width="0.9666" stroke-miterlimit="22.9256"/>
<path fill-rule="evenodd" clip-rule="evenodd" d="M14.52 51.5638L23.7845 52.972V143.615L14.52 142.207V51.5638Z" fill="white" stroke="black" stroke-width="0.97" stroke-miterlimit="22.9256"/>
<path fill-rule="evenodd" clip-rule="evenodd" d="M58.2479 75.1324L61.2867 71.5749L73.4416 69.6479C73.5898 67.0539 74.8498 63.8669 77.2956 62.9034C80.5567 61.5693 85.3001 63.274 85.8189 67.7209L96.6398 66.0162L99.3079 68.4621V78.9123L97.0103 82.4699L61.2126 89.1403L58.1738 86.3239V75.1324H58.2479Z" fill="white" stroke="#E41D2C" stroke-width="0.9666" stroke-miterlimit="22.9256"/>
<path d="M111.907 35.4067L40.5342 44.3747L1.32715 37.7784" stroke="#E41D2C" stroke-width="0.9663" stroke-miterlimit="22.9256"/>
<path d="M1.32715 149.545L40.5342 158.216L108.72 142.948" stroke="#E41D2C" stroke-width="0.9663" stroke-miterlimit="22.9256"/>
<path fill-rule="evenodd" clip-rule="evenodd" d="M66.2516 105.223C66.2516 103 65.5846 101.147 64.3246 99.8871C63.0647 98.6272 61.2118 98.0342 58.9142 98.4048C56.0237 98.9236 53.1332 99.3683 50.2427 99.8871C50.2427 104.334 50.2427 108.707 50.2427 113.154C50.2427 117.601 50.2427 121.974 50.2427 126.42C51.725 126.124 53.1332 125.828 54.6155 125.531C54.6155 123.901 54.6155 122.196 54.6155 120.565C54.6155 118.935 54.6155 117.23 54.6155 115.6C56.0237 115.303 57.506 115.081 58.9142 114.784C61.2118 114.34 63.0647 113.08 64.3246 111.375C65.5846 109.596 66.2516 107.447 66.2516 105.223ZM61.8788 106.039C61.8788 108.188 60.6188 109.819 58.6177 110.189C57.2836 110.412 55.8755 110.708 54.5414 110.93C54.5414 109.744 54.5414 108.559 54.5414 107.299C54.5414 106.113 54.5414 104.927 54.5414 103.667C55.8755 103.445 57.2836 103.222 58.6177 102.926C60.6188 102.629 61.8788 103.889 61.8788 106.039ZM86.8557 118.787C86.0404 117.156 85.2252 115.525 84.4099 113.895C83.5946 112.264 82.7794 110.56 81.9641 108.929C83.0758 108.262 84.1134 107.299 84.8546 106.039C85.5958 104.779 86.1146 103.296 86.1146 101.518C86.1146 99.4424 85.4475 97.5896 84.1876 96.4037C82.9276 95.2179 81.1488 94.6249 78.8512 94.9955C75.8866 95.5143 72.9961 95.959 70.0315 96.4778C70.0315 100.777 70.0315 105.075 70.0315 109.374C70.0315 113.673 70.0315 117.971 70.0315 122.27C71.5138 121.974 72.922 121.677 74.4043 121.381C74.4043 119.676 74.4043 117.971 74.4043 116.267C74.4043 114.562 74.4043 112.857 74.4043 111.153C75.4419 110.93 76.4796 110.782 77.5913 110.56C78.3324 112.116 78.9995 113.673 79.7406 115.229C80.4818 116.785 81.2229 118.342 81.89 119.824C83.4464 119.454 85.1511 119.157 86.8557 118.787ZM81.5935 102.333C81.5935 104.26 80.3336 105.89 78.4066 106.261C76.9984 106.483 75.6643 106.78 74.2561 107.002C74.2561 105.89 74.2561 104.779 74.2561 103.593C74.2561 102.481 74.2561 101.369 74.2561 100.184C75.6643 99.9612 76.9984 99.7389 78.4066 99.4424C80.4077 99.2201 81.6676 100.332 81.5935 102.333ZM105.459 102.555C105.459 100.48 105.459 98.6272 105.236 97.0707C104.94 95.5143 104.421 94.2544 103.309 93.2167C101.753 91.7344 99.8259 91.1415 97.306 91.5862C94.7861 92.0309 92.785 93.365 91.2285 95.3661C90.1168 96.8484 89.5239 98.3307 89.2274 100.035C88.9309 101.74 88.9309 103.593 88.9309 105.742C88.9309 107.892 88.9309 109.744 89.1533 111.375C89.3756 112.931 89.9686 114.266 91.0803 115.303C92.6367 116.711 94.5637 117.304 97.1578 116.785C99.6777 116.267 101.605 114.933 103.235 112.857C104.347 111.375 104.94 109.893 105.236 108.262C105.459 106.483 105.459 104.705 105.459 102.555ZM101.086 103.371C101.086 105.742 101.012 107.225 100.789 108.262C100.641 109.3 100.345 109.893 99.9 110.486C99.233 111.375 98.2695 112.116 97.0837 112.339C95.8978 112.561 94.8602 112.264 94.2673 111.597C93.8226 111.153 93.6002 110.634 93.452 109.67C93.3038 108.707 93.2296 107.225 93.2296 104.853C93.2296 102.481 93.3038 100.999 93.452 99.9613C93.6002 98.9236 93.8967 98.3307 94.3414 97.7378C95.0084 96.8484 95.9719 96.1072 97.1578 95.8849C98.3436 95.6626 99.3071 96.0331 99.9741 96.7002C100.419 97.1449 100.641 97.6637 100.789 98.6272C101.012 99.5907 101.086 101.073 101.086 103.371Z" stroke="black" stroke-width="0.97" stroke-miterlimit="22.9256"/>
<path fill-rule="evenodd" clip-rule="evenodd" d="M135.624 24.1411C135.995 16.8037 139.626 13.3944 145.852 12.9497L196.621 8.2063C203.81 8.28041 206.997 9.76272 206.923 16.2108V156.882C206.923 162.218 205.737 165.109 200.178 166.369L135.55 182.6V24.1411H135.624Z" fill="white" stroke="black" stroke-width="0.9663" stroke-miterlimit="22.9256"/>
<path fill-rule="evenodd" clip-rule="evenodd" d="M206.997 144.505V156.882C206.997 162.218 205.811 165.109 200.252 166.369L135.624 182.6V160.514L206.997 144.505Z" fill="white" stroke="black" stroke-width="0.9666" stroke-miterlimit="22.9256"/>
<path fill-rule="evenodd" clip-rule="evenodd" d="M135.624 24.1411C135.995 16.8037 139.626 13.3944 145.852 12.9497L196.621 8.2063C203.81 8.28041 206.997 9.76272 206.923 16.2108V37.7043L135.55 46.6722V24.1411H135.624Z" fill="white" stroke="black" stroke-width="0.9666" stroke-miterlimit="22.9256"/>
<path fill-rule="evenodd" clip-rule="evenodd" d="M135.624 27.3281V182.6L104.199 175.188C98.1955 173.261 95.898 172.15 96.3426 154.658V21.0283C96.3426 9.16983 100.345 8.57691 108.423 7.83576L158.303 3.46294C162.157 2.94413 165.863 3.31471 171.347 4.12998L197.955 8.0581L145.852 12.9497C133.697 13.8391 135.994 25.1788 135.624 27.3281Z" fill="white" stroke="black" stroke-width="0.9666" stroke-miterlimit="22.9256"/>
<path fill-rule="evenodd" clip-rule="evenodd" d="M135.623 160.439V182.526L104.198 175.114C98.195 173.187 95.8975 172.076 96.3422 154.584V151.768L135.623 160.439Z" fill="white" stroke="black" stroke-width="0.9666" stroke-miterlimit="22.9256"/>
<path fill-rule="evenodd" clip-rule="evenodd" d="M135.624 27.3281V46.6723L96.3428 40.076V21.0283C96.3428 9.16983 100.345 8.57691 108.424 7.83576L158.303 3.46294C162.157 2.94413 165.863 3.31471 171.348 4.12998L197.955 8.0581L145.852 12.9497C133.697 13.8391 135.995 25.1788 135.624 27.3281Z" fill="white" stroke="black" stroke-width="0.9666" stroke-miterlimit="22.9256"/>
<path fill-rule="evenodd" clip-rule="evenodd" d="M166.159 3.98169L112.055 8.94743L133.548 12.0603L187.652 7.31689L166.159 3.98169Z" fill="white" stroke="#E41D2C" stroke-width="0.9663" stroke-miterlimit="22.9256"/>
<path fill-rule="evenodd" clip-rule="evenodd" d="M109.609 53.7874L118.874 55.1955V145.913L109.609 144.505V53.7874Z" fill="white" stroke="black" stroke-width="0.97" stroke-miterlimit="22.9256"/>
<path fill-rule="evenodd" clip-rule="evenodd" d="M153.338 77.4302L156.377 73.8726L168.531 71.9456C168.68 69.3516 169.94 66.1646 172.385 65.2011C175.647 63.867 180.39 65.5717 180.909 70.0186L191.73 68.314L194.398 70.7598V81.2101L192.1 84.7676L156.302 91.438L153.264 88.6216V77.4302H153.338Z" fill="white" stroke="#E41D2C" stroke-width="0.9666" stroke-miterlimit="22.9256"/>
<path d="M206.997 37.7042L135.624 46.6722L96.4165 40.0759" stroke="#E41D2C" stroke-width="0.9666" stroke-miterlimit="22.9256"/>
<path d="M96.4165 151.768L135.624 160.44L203.81 145.172" stroke="#E41D2C" stroke-width="0.9666" stroke-miterlimit="22.9256"/>
<path fill-rule="evenodd" clip-rule="evenodd" d="M161.341 107.521C161.341 105.297 160.674 103.445 159.414 102.185C158.154 100.925 156.301 100.332 154.004 100.702C151.113 101.221 148.223 101.666 145.332 102.185C145.332 106.632 145.332 111.004 145.332 115.451C145.332 119.898 145.332 124.271 145.332 128.718C146.814 128.421 148.223 128.125 149.705 127.829C149.705 126.198 149.705 124.493 149.705 122.863C149.705 121.232 149.705 119.528 149.705 117.897C151.113 117.601 152.595 117.378 154.004 117.082C156.301 116.637 158.154 115.377 159.414 113.673C160.6 111.82 161.341 109.67 161.341 107.521ZM156.968 108.262C156.968 110.411 155.708 112.042 153.707 112.413C152.373 112.635 150.965 112.931 149.631 113.154C149.631 111.968 149.631 110.782 149.631 109.522C149.631 108.336 149.631 107.15 149.631 105.89C150.965 105.668 152.373 105.446 153.707 105.149C155.708 104.927 156.968 106.113 156.968 108.262ZM181.945 121.01C181.13 119.379 180.315 117.749 179.499 116.118C178.684 114.488 177.869 112.783 177.053 111.153C178.165 110.486 179.129 109.522 179.944 108.262C180.685 107.002 181.204 105.52 181.204 103.741C181.204 101.666 180.537 99.8129 179.277 98.6271C178.017 97.4412 176.238 96.8483 173.941 97.2189C170.976 97.7377 168.085 98.1824 165.121 98.7012C165.121 103 165.121 107.299 165.121 111.597C165.121 115.896 165.121 120.195 165.121 124.493C166.603 124.197 168.011 123.9 169.494 123.604C169.494 121.899 169.494 120.195 169.494 118.49C169.494 116.785 169.494 115.081 169.494 113.376C170.531 113.154 171.569 113.005 172.681 112.783C173.422 114.34 174.089 115.896 174.83 117.452C175.571 119.009 176.312 120.565 176.979 122.048C178.536 121.751 180.24 121.381 181.945 121.01ZM176.683 104.556C176.683 106.483 175.423 108.114 173.496 108.484C172.088 108.707 170.754 109.003 169.345 109.226C169.345 108.114 169.345 107.002 169.345 105.816C169.345 104.705 169.345 103.593 169.345 102.407C170.754 102.185 172.088 101.962 173.496 101.666C175.497 101.443 176.683 102.629 176.683 104.556ZM200.548 104.853C200.548 102.778 200.548 100.925 200.326 99.3682C200.029 97.8118 199.51 96.5518 198.399 95.5142C196.842 94.0319 194.915 93.439 192.395 93.8837C189.875 94.3284 187.874 95.6625 186.318 97.6636C185.206 99.1459 184.613 100.628 184.317 102.333C184.02 104.038 184.02 105.89 184.02 108.04C184.02 110.189 184.02 112.042 184.243 113.673C184.465 115.229 185.058 116.563 186.17 117.601C187.726 119.009 189.653 119.602 192.247 119.083C194.767 118.564 196.694 117.23 198.325 115.155C199.436 113.673 200.029 112.19 200.326 110.56C200.548 108.781 200.548 106.928 200.548 104.853ZM196.175 105.668C196.175 108.04 196.101 109.522 195.879 110.56C195.731 111.597 195.434 112.19 194.989 112.783C194.322 113.673 193.359 114.414 192.173 114.636C190.987 114.858 189.95 114.562 189.357 113.895C188.912 113.45 188.69 112.931 188.541 111.968C188.393 111.004 188.319 109.522 188.319 107.15C188.319 104.779 188.393 103.296 188.541 102.259C188.69 101.221 188.986 100.628 189.431 100.035C190.098 99.1459 191.061 98.4047 192.247 98.1824C193.433 97.96 194.396 98.3306 195.064 98.9977C195.508 99.4423 195.731 99.9611 195.879 100.925C196.101 101.814 196.175 103.296 196.175 105.668Z" stroke="black" stroke-width="0.97" stroke-miterlimit="22.9256"/>
</svg>
