<svg width="157" height="218" viewBox="0 0 157 218" fill="none" xmlns="http://www.w3.org/2000/svg">
<g clip-path="url(#clip0)">
<path fill-rule="evenodd" clip-rule="evenodd" d="M7.55566 189.265L17.6083 186.775L22.6666 188.052L12.614 190.543L7.55566 189.265Z" fill="white" stroke="black" stroke-width="0.5669" stroke-miterlimit="22.9256"/>
<path fill-rule="evenodd" clip-rule="evenodd" d="M11.9094 190.862C14.5346 190.862 16.4555 193.288 16.2634 196.289C16.0713 199.291 16.5835 202.547 14.0224 202.547C13.5742 202.547 10.3727 201.653 9.98852 201.526C8.00361 200.887 6.72302 198.78 6.85108 196.289C7.04317 193.288 9.2842 190.862 11.9094 190.862Z" fill="white" stroke="black" stroke-width="0.5669" stroke-miterlimit="22.9256"/>
<path fill-rule="evenodd" clip-rule="evenodd" d="M14.7904 191.564C17.4156 191.564 19.3365 193.991 19.1444 196.992C18.9523 199.993 16.6473 202.419 14.0861 202.419C11.5249 202.419 9.54 199.993 9.73209 196.992C9.92418 193.991 12.2292 191.564 14.7904 191.564Z" fill="white" stroke="black" stroke-width="0.5669" stroke-miterlimit="22.9256"/>
<path fill-rule="evenodd" clip-rule="evenodd" d="M14.5987 194.629C15.7512 194.629 16.5836 195.715 16.4555 196.992C16.3915 198.269 15.367 199.354 14.2785 199.354C13.126 199.354 12.2936 198.269 12.4217 196.992C12.4857 195.715 13.4462 194.629 14.5987 194.629Z" fill="white" stroke="#E41D2C" stroke-width="0.5669" stroke-miterlimit="22.9256"/>
<path fill-rule="evenodd" clip-rule="evenodd" d="M12.6138 190.543L22.6023 188.052V200.568L20.3613 201.206L20.2973 193.288C20.1692 192.011 19.4009 191.309 17.6081 191.692L12.6138 192.969V190.543Z" fill="white" stroke="black" stroke-width="0.5669" stroke-miterlimit="22.9256"/>
<path fill-rule="evenodd" clip-rule="evenodd" d="M7.55566 189.265L12.55 190.606V192.905L7.55566 191.692V189.265Z" fill="white" stroke="black" stroke-width="0.5669" stroke-miterlimit="22.9256"/>
<path fill-rule="evenodd" clip-rule="evenodd" d="M142.529 186.392L151.685 184.157L156.232 185.306L147.075 187.541L142.529 186.392Z" fill="white" stroke="black" stroke-width="0.5669" stroke-miterlimit="22.9256"/>
<path fill-rule="evenodd" clip-rule="evenodd" d="M146.435 187.861C148.804 187.861 150.597 190.095 150.405 192.841C150.213 195.587 150.725 198.524 148.356 198.524C147.972 198.524 145.027 197.694 144.642 197.566C142.85 196.992 141.633 195.076 141.825 192.777C142.017 190.032 144.066 187.861 146.435 187.861Z" fill="white" stroke="black" stroke-width="0.5669" stroke-miterlimit="22.9256"/>
<path fill-rule="evenodd" clip-rule="evenodd" d="M149.06 188.499C151.429 188.499 153.222 190.734 153.03 193.48C152.838 196.225 150.789 198.46 148.42 198.46C146.051 198.46 144.258 196.225 144.45 193.48C144.642 190.734 146.691 188.499 149.06 188.499Z" fill="white" stroke="black" stroke-width="0.5669" stroke-miterlimit="22.9256"/>
<path fill-rule="evenodd" clip-rule="evenodd" d="M148.869 191.309C149.893 191.309 150.661 192.267 150.597 193.48C150.533 194.693 149.637 195.651 148.612 195.651C147.588 195.651 146.82 194.693 146.884 193.48C146.948 192.267 147.844 191.309 148.869 191.309Z" fill="white" stroke="#E41D2C" stroke-width="0.5669" stroke-miterlimit="22.9256"/>
<path fill-rule="evenodd" clip-rule="evenodd" d="M147.075 187.541L156.167 185.242V196.672L154.118 197.247L154.054 190.032C153.926 188.882 153.222 188.244 151.621 188.563L147.075 189.712V187.541Z" fill="white" stroke="black" stroke-width="0.5669" stroke-miterlimit="22.9256"/>
<path fill-rule="evenodd" clip-rule="evenodd" d="M142.529 186.392L147.011 187.605V189.712L142.529 188.627V186.392Z" fill="white" stroke="black" stroke-width="0.5669" stroke-miterlimit="22.9256"/>
<path fill-rule="evenodd" clip-rule="evenodd" d="M69.9844 204.207L80.2291 201.717L85.3514 202.93L75.1067 205.548L69.9844 204.207Z" fill="white" stroke="black" stroke-width="0.5669" stroke-miterlimit="22.9256"/>
<path fill-rule="evenodd" clip-rule="evenodd" d="M74.3384 205.868C77.0277 205.868 79.0126 208.358 78.7564 211.423C78.5644 214.488 79.0766 217.808 76.4514 217.808C76.0032 217.808 72.7377 216.914 72.2895 216.787C70.3046 216.148 68.96 213.977 69.088 211.423C69.4082 208.358 71.7132 205.868 74.3384 205.868Z" fill="white" stroke="black" stroke-width="0.5669" stroke-miterlimit="22.9256"/>
<path fill-rule="evenodd" clip-rule="evenodd" d="M77.3478 206.57C80.037 206.57 82.0219 209.06 81.7658 212.125C81.5737 215.19 79.2046 217.681 76.5794 217.681C73.8902 217.681 71.9053 215.19 72.1614 212.125C72.3535 209.06 74.6586 206.57 77.3478 206.57Z" fill="white" stroke="black" stroke-width="0.5669" stroke-miterlimit="22.9256"/>
<path fill-rule="evenodd" clip-rule="evenodd" d="M77.1556 209.699C78.3081 209.699 79.1405 210.784 79.0765 212.125C79.0125 213.466 77.988 214.552 76.8355 214.552C75.6829 214.552 74.8506 213.466 74.9146 212.125C74.9786 210.784 76.0031 209.699 77.1556 209.699Z" fill="white" stroke="#E41D2C" stroke-width="0.5669" stroke-miterlimit="22.9256"/>
<path fill-rule="evenodd" clip-rule="evenodd" d="M75.1069 205.548L85.3516 202.994V215.765L83.0466 216.404L82.9825 208.294C82.8545 206.953 82.0861 206.315 80.2293 206.698L75.1069 208.039V205.548Z" fill="white" stroke="black" stroke-width="0.5669" stroke-miterlimit="22.9256"/>
<path fill-rule="evenodd" clip-rule="evenodd" d="M69.9844 204.207L75.0427 205.548V207.975L69.9844 206.698V204.207Z" fill="white" stroke="black" stroke-width="0.5669" stroke-miterlimit="22.9256"/>
<path fill-rule="evenodd" clip-rule="evenodd" d="M56.7303 180.262H54.4253V182.944C54.4253 184.029 53.849 184.604 52.8246 184.859L46.6777 186.647V188.946L54.6814 186.647C56.2181 186.2 56.7303 185.243 56.7303 183.263V180.262Z" fill="white" stroke="#E41D2C" stroke-width="0.5669" stroke-miterlimit="22.9256"/>
<path fill-rule="evenodd" clip-rule="evenodd" d="M19.3369 87.8002L87.5922 84.1605V166.022V173.94L84.0065 174.834V166.852L16.1354 179.815V187.733C16.3275 189.712 12.9339 189.84 12.5498 188.499C12.5498 156.955 12.5498 126.432 12.5498 95.0158C12.5498 94.1219 12.0375 88.1195 19.3369 87.8002ZM84.0065 163.66C84.0065 135.5 84.0065 115.513 84.0065 87.3533L19.8491 90.993C16.8397 91.1207 16.1354 92.4616 16.1354 94.952V176.111L84.0065 163.66Z" fill="white" stroke="black" stroke-width="0.5669" stroke-miterlimit="22.9256"/>
<path fill-rule="evenodd" clip-rule="evenodd" d="M93.4831 81.9895L33.8717 79.1799L33.7437 101.21L93.4831 106.446V81.9895Z" fill="white" stroke="black" stroke-width="0.5669" stroke-miterlimit="22.9256"/>
<path fill-rule="evenodd" clip-rule="evenodd" d="M153.286 78.9244L153.35 64.2378L121.144 65.0041L117.43 74.3907L104.56 74.8377L104.624 81.4147L153.286 78.9244Z" fill="white" stroke="black" stroke-width="0.5669" stroke-miterlimit="22.9256" stroke-linejoin="round"/>
<path fill-rule="evenodd" clip-rule="evenodd" d="M104.624 81.4148L45.0771 78.669L34 79.1798L93.4833 81.9894L104.624 81.4148Z" fill="white" stroke="black" stroke-width="0.5669" stroke-miterlimit="22.9256" stroke-linejoin="round"/>
<path fill-rule="evenodd" clip-rule="evenodd" d="M117.43 74.3908L59.0993 72.3474L45.333 72.7305L106.289 74.9016L117.43 74.3908Z" fill="white" stroke="black" stroke-width="0.5669" stroke-miterlimit="22.9256" stroke-linejoin="round"/>
<path fill-rule="evenodd" clip-rule="evenodd" d="M153.351 64.2379L95.7242 63.2162L63.1333 63.8547L121.272 65.0041L153.351 64.2379Z" fill="white" stroke="black" stroke-width="0.5669" stroke-miterlimit="22.9256" stroke-linejoin="round"/>
<path fill-rule="evenodd" clip-rule="evenodd" d="M104.624 81.4148L45.269 78.669V72.7305L104.624 74.8377V81.4148Z" fill="white" stroke="black" stroke-width="0.5669" stroke-miterlimit="22.9256" stroke-linejoin="round"/>
<path fill-rule="evenodd" clip-rule="evenodd" d="M117.43 74.3908L59.0996 72.3474L63.1335 63.8547L121.144 65.0041L117.43 74.3908Z" fill="white" stroke="black" stroke-width="0.5669" stroke-miterlimit="22.9256" stroke-linejoin="round"/>
<path fill-rule="evenodd" clip-rule="evenodd" d="M123.449 1.34094C124.985 -0.19157 138.432 -0.19157 138.752 1.34094L138.816 64.0463C137.023 64.9402 125.69 64.7487 123.513 64.0463L123.449 1.34094Z" fill="white" stroke="#E41D2C" stroke-width="0.5669" stroke-miterlimit="22.9256"/>
<path fill-rule="evenodd" clip-rule="evenodd" d="M123.513 61.3005C124.986 61.8114 138.048 62.0029 138.816 61.2367V63.9824C137.023 64.8764 125.69 64.7487 123.513 63.9824V61.3005Z" fill="white" stroke="#E41D2C" stroke-width="0.5669" stroke-miterlimit="22.9256"/>
<path fill-rule="evenodd" clip-rule="evenodd" d="M101.551 3.51202C102.959 2.04336 115.637 2.04336 115.957 3.51202L116.021 63.5993C114.357 64.4294 103.664 64.3017 101.615 63.5993L101.551 3.51202Z" fill="white" stroke="#E41D2C" stroke-width="0.5669" stroke-miterlimit="22.9256"/>
<path fill-rule="evenodd" clip-rule="evenodd" d="M101.615 61.1728C102.959 61.6836 115.189 61.8114 115.893 61.1089V63.727C114.229 64.5571 103.664 64.4294 101.615 63.727V61.1728Z" fill="white" stroke="#E41D2C" stroke-width="0.5669" stroke-miterlimit="22.9256"/>
<path fill-rule="evenodd" clip-rule="evenodd" d="M81.3818 5.36381C82.7265 3.95901 94.5719 3.95901 94.828 5.36381L94.892 63.28C93.3553 64.1101 83.3667 63.9824 81.4459 63.28L81.3818 5.36381Z" fill="white" stroke="#E41D2C" stroke-width="0.5669" stroke-miterlimit="22.9256"/>
<path fill-rule="evenodd" clip-rule="evenodd" d="M81.5098 60.9812C82.7904 61.4282 94.2516 61.5559 94.9559 60.9174V63.3439C93.4192 64.174 83.4306 63.9824 81.5098 63.3439V60.9812Z" fill="white" stroke="#E41D2C" stroke-width="0.5669" stroke-miterlimit="22.9256"/>
<path fill-rule="evenodd" clip-rule="evenodd" d="M130.236 143.035L93.4831 106.446L33.7437 101.21L65.8864 134.223L130.236 143.035Z" fill="white" stroke="black" stroke-width="0.5669" stroke-miterlimit="22.9256"/>
<path d="M93.4829 82.9473L153.286 79.9461" stroke="black" stroke-width="0.5669" stroke-miterlimit="22.9256"/>
<path fill-rule="evenodd" clip-rule="evenodd" d="M24.2676 118.067L43.4124 120.302V176.622L24.2676 172.599V118.067Z" fill="white" stroke="black" stroke-width="0.5669" stroke-miterlimit="22.9256"/>
<path fill-rule="evenodd" clip-rule="evenodd" d="M43.4121 120.302L69.9203 117.493L90.1535 137.607V167.874L43.4121 176.622V120.302Z" fill="white" stroke="black" stroke-width="0.5669" stroke-miterlimit="22.9256"/>
<path fill-rule="evenodd" clip-rule="evenodd" d="M0.192383 103.955L20.6818 105.935V129.689L0.192383 126.752V103.955Z" fill="white" stroke="black" stroke-width="0.5669" stroke-miterlimit="22.9256"/>
<path fill-rule="evenodd" clip-rule="evenodd" d="M7.42773 112.065L13.5746 112.384V119.472L7.42773 118.834V112.065Z" fill="white" stroke="#E41D2C" stroke-width="0.5669" stroke-miterlimit="22.9256"/>
<path fill-rule="evenodd" clip-rule="evenodd" d="M20.6818 129.689L75.8111 123.24L55.5138 103.125L20.4897 105.871L20.6818 129.689Z" fill="white" stroke="black" stroke-width="0.5669" stroke-miterlimit="22.9256"/>
<path fill-rule="evenodd" clip-rule="evenodd" d="M20.49 105.871L55.2579 103.125L33.7441 101.21L0.384766 103.892L20.49 105.871Z" fill="white" stroke="black" stroke-width="0.5669" stroke-miterlimit="22.9256" stroke-linejoin="round"/>
<path fill-rule="evenodd" clip-rule="evenodd" d="M122.361 185.626L51.9282 171.322V162.063L122.361 175.217V185.626Z" fill="white" stroke="black" stroke-width="0.5669" stroke-miterlimit="22.9256"/>
<path fill-rule="evenodd" clip-rule="evenodd" d="M155.144 168.066L85.9278 156.189L52.3765 161.999L122.361 175.217L155.144 168.066Z" fill="white" stroke="black" stroke-width="0.5669" stroke-miterlimit="22.9256"/>
<path fill-rule="evenodd" clip-rule="evenodd" d="M122.36 175.217L155.143 168.066L155.079 177.899L122.36 185.626V175.217Z" fill="white" stroke="black" stroke-width="0.5669" stroke-miterlimit="22.9256"/>
<path fill-rule="evenodd" clip-rule="evenodd" d="M140.801 152.74L90.8577 145.333C90.2815 145.142 89.7052 145.078 89.0649 145.078C85.2231 145.078 81.8296 148.59 81.8296 152.485C81.8296 155.997 84.3267 158.934 87.5922 159.509H87.6563H87.7203L140.737 168.385V152.74H140.801Z" fill="white" stroke="black" stroke-width="0.5669" stroke-miterlimit="22.9256"/>
<path fill-rule="evenodd" clip-rule="evenodd" d="M127.355 158.807L79.2685 151.016C78.8203 150.889 78.3081 150.825 77.7958 150.825C74.6584 150.825 72.5454 153.762 72.5454 156.827C72.5454 159.828 73.9541 162.127 76.5793 162.574H76.6433H76.7073L127.291 171.578V158.807H127.355Z" fill="white" stroke="black" stroke-width="0.5669" stroke-miterlimit="22.9256"/>
<path fill-rule="evenodd" clip-rule="evenodd" d="M140.801 152.74C145.027 152.74 148.485 156.252 148.485 160.595C148.485 164.937 145.027 168.449 140.801 168.449C136.575 168.449 133.118 164.937 133.118 160.595C133.118 156.252 136.575 152.74 140.801 152.74Z" fill="white" stroke="black" stroke-width="0.5669" stroke-miterlimit="22.9256"/>
<path fill-rule="evenodd" clip-rule="evenodd" d="M127.354 158.807C130.812 158.807 133.565 161.68 133.565 165.192C133.565 168.704 130.812 171.578 127.354 171.578C123.897 171.578 121.144 168.704 121.144 165.192C121.144 161.68 123.961 158.807 127.354 158.807Z" fill="white" stroke="black" stroke-width="0.5669" stroke-miterlimit="22.9256"/>
<path fill-rule="evenodd" clip-rule="evenodd" d="M101.807 126.369L76.8356 123.559L68.896 150.697L94.3797 154.848L101.807 126.369Z" fill="white" stroke="black" stroke-width="0.5669" stroke-miterlimit="22.9256"/>
<path fill-rule="evenodd" clip-rule="evenodd" d="M101.807 126.368L116.662 141.183L94.3799 154.848L101.807 126.368Z" fill="white" stroke="black" stroke-width="0.5669" stroke-miterlimit="22.9256"/>
<path fill-rule="evenodd" clip-rule="evenodd" d="M85.0953 91.7592C87.4004 91.6315 87.2723 95.0158 85.5435 94.8881L80.9334 95.2074C79.5247 95.3989 78.8204 96.2929 78.8845 97.9531V190.351L119.095 181.347C119.799 181.22 120.504 182.05 120.568 182.944C120.632 183.71 120.055 184.476 119.479 184.604L78.8204 194.118V202.803C78.7564 203.952 75.2348 204.399 75.2348 202.866V165.256V99.2941C74.9146 93.4833 77.86 91.8869 81.5737 91.8231L85.0953 91.7592ZM150.277 178.985V185.115C150.213 186.328 147.332 186.456 146.884 185.626V179.751L150.277 178.985ZM146.692 167.81V154.401V112.895L150.277 106.254V167.938C150.277 168.449 146.692 168.896 146.692 167.81Z" fill="white" stroke="black" stroke-width="0.5669" stroke-miterlimit="22.9256" stroke-linejoin="round"/>
<path fill-rule="evenodd" clip-rule="evenodd" d="M135.358 130.647L137.151 130.327L138.304 151.016L103.088 157.338L99.6941 143.865C99.502 142.779 101.167 142.588 101.615 143.035L104.56 155.103L136.255 149.484L135.358 130.647Z" fill="white" stroke="black" stroke-width="0.5669" stroke-miterlimit="22.9256"/>
<path fill-rule="evenodd" clip-rule="evenodd" d="M153.286 78.9244L93.4829 81.9894V106.446L130.236 143.035L153.286 100.635V78.9244Z" fill="white" stroke="black" stroke-width="0.5669" stroke-miterlimit="22.9256"/>
<path fill-rule="evenodd" clip-rule="evenodd" d="M53.273 176.303H57.9472V179.879V179.943C57.9472 180.453 56.9227 180.9 55.5781 180.9C54.2975 180.9 53.209 180.453 53.209 179.943C53.209 179.879 53.209 179.815 53.273 179.751V176.303Z" fill="white" stroke="#E41D2C" stroke-width="0.5669" stroke-miterlimit="22.9256" stroke-linejoin="round"/>
<path fill-rule="evenodd" clip-rule="evenodd" d="M55.642 177.452C56.9226 177.452 58.0111 177.005 58.0111 176.494C58.0111 175.984 56.9867 175.537 55.642 175.537C54.3615 175.537 53.2729 175.984 53.2729 176.494C53.2729 177.005 54.2974 177.452 55.642 177.452Z" fill="white" stroke="#E41D2C" stroke-width="0.5669" stroke-miterlimit="22.9256" stroke-linejoin="round"/>
<path d="M54.1055 177.197V180.581" stroke="#E41D2C" stroke-width="0.5669" stroke-miterlimit="22.9256"/>
<path d="M55.0659 177.516V180.9" stroke="#E41D2C" stroke-width="0.5669" stroke-miterlimit="22.9256"/>
<path d="M56.1543 177.388V180.9" stroke="#E41D2C" stroke-width="0.5669" stroke-miterlimit="22.9256"/>
<path d="M57.1787 177.261V180.581" stroke="#E41D2C" stroke-width="0.5669" stroke-miterlimit="22.9256"/>
<path fill-rule="evenodd" clip-rule="evenodd" d="M54.4253 168.768H56.8584V176.239C56.8584 176.367 56.2821 176.494 55.6419 176.494C54.9375 176.494 54.4253 176.367 54.4253 176.239V168.768Z" fill="white" stroke="#E41D2C" stroke-width="0.5669" stroke-miterlimit="22.9256" stroke-linejoin="round"/>
<path fill-rule="evenodd" clip-rule="evenodd" d="M51.2877 167.491H59.8036V171.45V171.578H59.7395C59.4834 172.152 57.6906 172.599 55.5136 172.599C53.1445 172.599 51.2236 172.089 51.2236 171.45C51.2236 171.386 51.2236 171.322 51.2877 171.258V167.491Z" fill="white" stroke="#E41D2C" stroke-width="0.5669" stroke-miterlimit="22.9256" stroke-linejoin="round"/>
<path fill-rule="evenodd" clip-rule="evenodd" d="M55.5136 168.513C57.8827 168.513 59.8036 168.002 59.8036 167.363C59.8036 166.725 57.8827 166.214 55.5136 166.214C53.1445 166.214 51.2236 166.725 51.2236 167.363C51.2236 168.002 53.1445 168.513 55.5136 168.513Z" fill="white" stroke="#E41D2C" stroke-width="0.5669" stroke-miterlimit="22.9256" stroke-linejoin="round"/>
<path d="M52.312 168.13V172.216" stroke="#E41D2C" stroke-width="0.5669" stroke-miterlimit="22.9256"/>
<path d="M53.5928 168.449V172.536" stroke="#E41D2C" stroke-width="0.5669" stroke-miterlimit="22.9256"/>
<path d="M54.9375 168.64V172.727" stroke="#E41D2C" stroke-width="0.5669" stroke-miterlimit="22.9256"/>
<path d="M56.6021 168.576V172.599" stroke="#E41D2C" stroke-width="0.5669" stroke-miterlimit="22.9256"/>
<path d="M57.6909 168.385V172.408" stroke="#E41D2C" stroke-width="0.5669" stroke-miterlimit="22.9256"/>
<path d="M58.8428 168.193V172.28" stroke="#E41D2C" stroke-width="0.5669" stroke-miterlimit="22.9256"/>
<path fill-rule="evenodd" clip-rule="evenodd" d="M53.2725 142.077H58.0106V166.98C58.0106 167.299 56.9862 167.491 55.6416 167.491C54.361 167.491 53.2725 167.236 53.2725 166.98V142.077Z" fill="white" stroke="#E41D2C" stroke-width="0.5669" stroke-miterlimit="22.9256" stroke-linejoin="round"/>
<path fill-rule="evenodd" clip-rule="evenodd" d="M50.4556 128.603H60.8283V142.843C60.8283 143.482 58.5233 143.992 55.6419 143.992C52.7606 143.992 50.4556 143.482 50.4556 142.843V128.603Z" fill="white" stroke="#E41D2C" stroke-width="0.5669" stroke-miterlimit="22.9256" stroke-linejoin="round"/>
<path fill-rule="evenodd" clip-rule="evenodd" d="M55.6419 129.817C58.4592 129.817 60.8283 129.306 60.8283 128.667C60.8283 128.029 58.5233 127.518 55.6419 127.518C52.7606 127.518 50.4556 128.029 50.4556 128.667C50.4556 129.306 52.7606 129.817 55.6419 129.817Z" fill="white" stroke="#E41D2C" stroke-width="0.5669" stroke-miterlimit="22.9256" stroke-linejoin="round"/>
<path d="M51.48 129.434V143.545" stroke="#E41D2C" stroke-width="0.5669" stroke-miterlimit="22.9256"/>
<path d="M52.4404 129.561V143.545" stroke="#E41D2C" stroke-width="0.5669" stroke-miterlimit="22.9256"/>
<path d="M53.5288 129.753V143.737" stroke="#E41D2C" stroke-width="0.5669" stroke-miterlimit="22.9256"/>
<path d="M54.8735 129.88V143.929" stroke="#E41D2C" stroke-width="0.5669" stroke-miterlimit="22.9256"/>
<path d="M56.2183 129.817V143.865" stroke="#E41D2C" stroke-width="0.5669" stroke-miterlimit="22.9256"/>
<path d="M57.627 129.753V143.801" stroke="#E41D2C" stroke-width="0.5669" stroke-miterlimit="22.9256"/>
<path d="M58.9717 129.689V143.737" stroke="#E41D2C" stroke-width="0.5669" stroke-miterlimit="22.9256"/>
<path d="M59.9321 129.497V143.609" stroke="#E41D2C" stroke-width="0.5669" stroke-miterlimit="22.9256"/>
<path fill-rule="evenodd" clip-rule="evenodd" d="M42.1958 107.34H68.832L58.7154 117.94C56.6024 118.77 54.5535 118.706 52.5686 117.94L42.1958 107.34Z" fill="white" stroke="#E41D2C" stroke-width="0.5669" stroke-miterlimit="22.9256"/>
<path fill-rule="evenodd" clip-rule="evenodd" d="M42.1958 76.9449H68.832V107.084C68.768 108.17 62.8133 109 55.5139 109C48.2146 109 42.3239 108.17 42.1958 107.084V76.9449Z" fill="white" stroke="#E41D2C" stroke-width="0.5669" stroke-miterlimit="22.9256" stroke-linejoin="round"/>
<path fill-rule="evenodd" clip-rule="evenodd" d="M68.5759 76.5618C68.704 76.6256 68.768 76.7533 68.832 76.8172V76.8811C68.832 77.775 62.8773 78.5413 55.5139 78.5413C48.1505 78.5413 42.1958 77.775 42.1958 76.8811V76.8172C42.1958 76.7533 42.3239 76.6256 42.4519 76.5618L52.5686 66.2173C54.5535 65.4511 56.6024 65.3872 58.7154 66.2173L68.5759 76.5618Z" fill="white" stroke="#E41D2C" stroke-width="0.5669" stroke-miterlimit="22.9256" stroke-linejoin="round"/>
<path fill-rule="evenodd" clip-rule="evenodd" d="M42.2598 59.8318H68.832V67.1113V67.3667C68.832 67.7498 62.8773 68.133 55.5139 68.133C48.1505 68.133 42.1958 67.8137 42.1958 67.3667V67.1113V59.8318H42.2598Z" fill="white" stroke="#E41D2C" stroke-width="0.5669" stroke-miterlimit="22.9256" stroke-linejoin="round"/>
<path fill-rule="evenodd" clip-rule="evenodd" d="M55.5139 60.3427C62.8133 60.3427 68.832 60.0873 68.832 59.768C68.832 59.4487 62.8773 59.1933 55.5139 59.1933C48.2146 59.1933 42.1958 59.4487 42.1958 59.768C42.1958 60.0873 48.2146 60.3427 55.5139 60.3427Z" fill="white" stroke="#E41D2C" stroke-width="0.5669" stroke-miterlimit="22.9256" stroke-linejoin="round"/>
<path fill-rule="evenodd" clip-rule="evenodd" d="M48.4702 55.9367H62.8128V59.1295C62.8128 59.5126 59.6754 59.5764 55.7055 59.5764C51.7357 59.5764 48.4702 59.5126 48.4702 59.1295V55.9367Z" fill="white" stroke="#E41D2C" stroke-width="0.5669" stroke-miterlimit="22.9256" stroke-linejoin="round"/>
<path d="M64.8622 50.5091H46.0376V57.4054H64.8622V50.5091Z" fill="white" stroke="#E41D2C" stroke-width="0.5669" stroke-miterlimit="22.9256" stroke-linejoin="round"/>
<path fill-rule="evenodd" clip-rule="evenodd" d="M58.523 118.451V128.412C58.1388 128.859 53.7848 129.114 52.6963 128.412V118.451V118.067C53.0805 118.578 58.7791 118.514 58.523 118.067V118.451Z" fill="white" stroke="#E41D2C" stroke-width="0.5669" stroke-miterlimit="22.9256" stroke-linejoin="round"/>
<path fill-rule="evenodd" clip-rule="evenodd" d="M46.678 185.115C47.8946 184.987 48.9191 186.392 48.9191 187.797C48.9191 188.755 48.5349 189.393 48.2788 189.776C47.8306 190.415 47.1903 190.351 45.9097 190.542C44.6931 190.734 44.437 189.01 44.437 187.541C44.437 186.456 44.437 185.37 45.3334 185.243L46.678 185.115Z" fill="white" stroke="#E41D2C" stroke-width="0.5669" stroke-miterlimit="22.9256"/>
<path fill-rule="evenodd" clip-rule="evenodd" d="M45.7811 185.243C46.9976 185.306 48.0221 186.52 48.0221 187.988C48.0221 189.457 46.9976 190.606 45.7811 190.479C44.5645 190.415 43.54 189.202 43.54 187.733C43.54 186.264 44.5645 185.179 45.7811 185.243Z" fill="white" stroke="#E41D2C" stroke-width="0.5669" stroke-miterlimit="22.9256"/>
<path fill-rule="evenodd" clip-rule="evenodd" d="M45.9092 186.711C46.4214 186.711 46.8696 187.286 46.8696 187.861C46.8696 188.499 46.4214 188.946 45.9092 188.946C45.3969 188.946 44.9487 188.371 44.9487 187.797C44.9487 187.158 45.3969 186.647 45.9092 186.711Z" fill="white" stroke="#E41D2C" stroke-width="0.5669" stroke-miterlimit="22.9256"/>
</g>
<defs>
<clipPath id="clip0">
<rect width="157" height="218" fill="white"/>
</clipPath>
</defs>
</svg>
