<svg width="126" height="64" viewBox="0 0 126 64" fill="none" xmlns="http://www.w3.org/2000/svg">
<path d="M8.86944 20.6205H41.5638L43.1632 18.4413C46.5074 6.68154 50.2671 4.60509 56.0208 2.11746C58.7626 0.925041 63.8724 0.0821238 66.4896 0.411067C68.9614 0.678333 71.1009 1.58293 72.181 2.4464C72.7418 2.73423 73.6558 3.53603 74.5697 4.29671C75.9822 5.24242 77.1246 5.92086 77.4985 6.51707C78.2878 7.48334 79.3887 9.78595 80.4896 14.4528C81.7151 15.4191 83.73 16.961 82.5045 20.6205H114.576C117.899 23.9099 119.145 25.1229 122.677 28.6385V56.208C118.834 59.7236 116.944 61.4506 114.202 63.9793H8.10089C5.27596 61.7178 4.09199 60.1965 0 55.9613V28.6385C3.61424 25.4313 5.25519 23.9305 8.86944 20.6205Z" fill="black"/>
<path fill-rule="evenodd" clip-rule="evenodd" d="M80.3028 13.3632C83.834 17.5573 82.7746 21.7102 78.6203 25.3491C75.9823 27.6517 72.555 28.9058 69.7509 30.9617C65.8874 33.8194 60.3414 37.1705 55.3147 35.9781C52.2197 35.238 48.9171 34.4978 45.9675 33.3877C43.4126 32.4214 40.7538 30.9617 39.7568 28.2685C39.4037 27.3228 39.2998 26.3359 39.4245 25.3491C39.6737 23.1904 42.2079 20.086 43.7449 18.1124C43.7865 17.9479 43.8488 17.804 43.8903 17.6395C44.2227 16.6527 44.555 15.6658 44.8458 14.6585C46.1752 10.1149 48.1693 6.39376 52.199 3.61831C54.0476 2.36421 55.8547 1.70632 58.015 1.13067L58.0773 1.11011H58.1188C58.8043 0.904525 59.3444 0.596141 60.0921 0.452228C65.1396 -0.493483 69.4809 -0.102863 73.5313 3.20713C74.6322 4.11172 76.0862 4.95464 77.0625 5.94147C78.2672 7.15444 78.828 8.65525 79.3266 10.2383C79.6589 11.2662 80.012 12.3147 80.3028 13.3632Z" fill="black"/>
<path d="M95.1753 41.0563V35.0942L97.6055 32.6888H102.383L104.813 35.0942V39.1032H100.825V35.8755H99.1842V40.2956H102.508L104.834 42.6393V49.4238L102.404 51.8292H97.6263L95.196 49.4238V44.613H99.1842V48.6426H100.825V43.4617H97.6055L95.1753 41.0563ZM85.5165 32.6888H92.7242V35.8755H89.5046V39.905H92.3711V43.0916H89.5046V48.6631H92.7242V51.8498H85.5165V32.6888ZM83.4394 51.8292H76.2316V32.6888H80.2198V48.6426H83.4394V51.8292ZM69.3355 32.6477H73.3236V49.3827L70.8934 51.7881H66.1159L63.6856 49.3827V32.6477H67.6738V48.6014H69.3147V32.6477H69.3355ZM55.6263 51.8292H51.6382V32.6888H55.6263V39.905L57.7034 32.6888H62.0655L59.469 42.6393L62.0655 51.8292H57.7034L55.6263 44.613V51.8292ZM44.9705 51.8292V43.8523H43.3296V51.8292H39.3414V32.6888H46.5492L48.9794 35.0942V40.8918L47.4216 42.2898L48.9794 43.6879V51.8498H44.9705V51.8292ZM43.3296 40.6657H44.9705V35.8549H43.3296V40.6657ZM29.6827 32.6888H36.8904V35.8755H33.6708V39.905H36.5373V43.0916H33.6708V48.6631H36.8904V51.8498H29.6827V32.6888ZM22.1011 42.2487H26.9201V49.4238L24.5106 51.8292H19.7331L17.3029 49.4238V35.0942L19.7331 32.6888H24.5106L26.9408 35.0942V40.6657H22.9527V35.8549H21.3118V48.6426H22.9527V45.4354H22.1218V42.2487H22.1011Z" fill="white"/>
<path d="M102.507 52.1376H97.4807L94.8635 49.5472V44.3252H99.454V48.3548H100.493V43.7701H97.4599L94.8635 41.1591V34.9503L97.4599 32.3805H102.487L105.083 34.9503V39.3705H100.493V36.1428H99.454V39.9667H102.611L105.104 42.4955V49.5472L102.507 52.1376ZM97.7299 51.5414H102.258L104.501 49.321V42.7833L102.362 40.6041H98.8724V35.5671H101.116V38.7949H104.501V35.2176L102.258 32.9972H97.7299L95.4866 35.2176V40.9124L97.7299 43.1739H101.116V48.951H98.8724V44.9214H95.4866V49.3005L97.7299 51.5414ZM93.0148 52.1376H85.2047V32.401H93.0148V36.1839H89.7952V39.6172H92.6617V43.3795H89.7952V48.3548H93.0148V52.1376ZM85.8279 51.5414H92.4124V48.9715H89.1928V42.7833H92.0593V40.2134H89.1928V35.5671H92.4124V32.9972H85.8279V51.5414ZM83.7507 52.1376H75.9406V32.401H80.5311V48.3548H83.7507V52.1376ZM76.543 51.5414H83.1276V48.9715H79.908V33.0178H76.5222V51.5414H76.543ZM62.4807 52.1376H57.4747L55.9377 46.7923V52.1376H51.3471V32.401H55.9377V37.7464L57.4747 32.401H62.4599L59.8012 42.6599L62.4807 52.1376ZM57.9317 51.5414H61.6706L59.1572 42.6599L61.6706 32.9972H57.9317L55.3145 42.0637V32.9972H51.9288V51.5414H55.3145V42.4749L57.9317 51.5414ZM49.27 52.1376H44.6795V44.1607H43.6409V52.1376H39.0504V32.401H46.6736L49.27 34.9709V41.0152L47.8575 42.2693L49.27 43.5234V52.1376ZM45.2819 51.5414H48.6676V43.7907L46.9436 42.2693L48.6676 40.748V35.2176L46.4243 32.9972H39.6528V51.5414H43.0385V43.5645H45.2819V51.5414ZM37.2017 52.1376H29.3917V32.401H37.2017V36.1839H33.9822V39.6172H36.8486V43.3795H33.9822V48.3548H37.2017V52.1376ZM29.994 51.5414H36.5786V48.9715H33.359V42.7833H36.2255V40.2134H33.359V35.5671H36.5786V32.9972H29.994V51.5414ZM24.635 52.1376H19.6083L17.0118 49.5472V34.9709L19.6083 32.401H24.635L27.2314 34.9709V40.9741H22.6409V36.1633H21.6023V48.3548H22.6409V45.7232H21.8101V41.9404H27.2522V49.5472L24.635 52.1376ZM19.8575 51.5414H24.3857L26.629 49.321V42.5571H22.4124V45.127H23.2433V48.951H20.9792V35.5671H23.2433V40.3779H26.629V35.2176L24.3857 32.9972H19.8575L17.6142 35.2176V49.3005L19.8575 51.5414ZM71.0178 52.0759H65.9911L63.3946 49.5061V32.3394H67.9851V48.2931H69.0237V32.3394H73.6142V49.5061L71.0178 52.0759ZM66.2611 51.4797H70.7893L73.0326 49.2594V32.9561H69.6468V48.9099H67.3828V32.9561H63.997V49.2594L66.2611 51.4797ZM45.2819 40.9741H43.0178V35.5671H45.2819V40.9741ZM43.6409 40.3779H44.6795V36.1839H43.6409V40.3779Z" fill="black"/>
<path fill-rule="evenodd" clip-rule="evenodd" d="M46.6736 21.854C46.6736 21.854 46.0505 22.3886 45.8635 22.4914C45.6143 22.6353 44.8042 23.8688 44.4926 24.2183C44.2018 24.5473 43.6825 25.5752 43.3086 26.0686C43.184 26.2126 43.0594 27.0349 43.2671 27.2199C43.8902 27.7339 45.4273 27.4872 46.0713 27.1377C46.2374 27.0555 46.8606 25.5341 46.9229 25.2668C47.0268 24.7323 47.2968 23.8688 47.1306 23.3549C46.9852 22.9642 47.1514 22.6353 46.819 22.1213C46.7359 21.998 46.7359 21.8335 46.6736 21.854Z" fill="black"/>
<path d="M44.3681 27.5489C43.9319 27.5489 43.5164 27.4666 43.2464 27.2405C43.0179 27.0555 43.1633 26.2126 43.2879 26.0481C43.4749 25.8014 43.7034 25.4313 43.9111 25.0613C44.1188 24.7118 44.3265 24.3622 44.4719 24.1978C44.5758 24.0744 44.7627 23.8072 44.9704 23.5399C45.3028 23.0876 45.6767 22.5531 45.8428 22.4708C45.9882 22.3886 46.3829 22.0596 46.5698 21.9157C46.6529 21.8335 46.6529 21.8335 46.6529 21.8335C46.6737 21.8335 46.6945 21.8335 46.6945 21.8335C46.736 21.8541 46.736 21.8952 46.7568 21.9569C46.7775 21.998 46.7983 22.0596 46.8191 22.1213C47.0268 22.4503 47.0268 22.697 47.0476 22.9231C47.0476 23.067 47.0683 23.2109 47.1099 23.3549C47.2553 23.766 47.1099 24.4034 46.9853 24.9173C46.9645 25.0407 46.9229 25.164 46.9022 25.2668C46.8606 25.5135 46.2167 27.0555 46.0505 27.1583C45.7182 27.3639 45.012 27.5489 44.3681 27.5489ZM46.6737 21.8746C46.6737 21.8746 46.6321 21.9157 46.5906 21.9363C46.4244 22.0802 46.009 22.4297 45.8636 22.5119C45.7182 22.5942 45.3235 23.1082 45.012 23.581C44.8043 23.8483 44.6173 24.1155 44.5135 24.2389C44.3681 24.4034 44.1603 24.7323 43.9526 25.1024C43.7449 25.4724 43.5164 25.8425 43.3295 26.0892C43.2256 26.2331 43.0802 27.0349 43.2879 27.2199C43.9318 27.7339 45.4689 27.4666 46.0713 27.1377C46.2167 27.0555 46.8399 25.5752 46.9022 25.2874C46.9229 25.1846 46.9437 25.0613 46.9853 24.9379C47.1099 24.4239 47.2553 23.8072 47.1099 23.396C47.0476 23.2315 47.0476 23.1082 47.0268 22.9642C47.006 22.7381 46.9853 22.4914 46.7983 22.183C46.7568 22.1213 46.7568 22.0802 46.736 22.0185C46.7152 21.9363 46.6945 21.8746 46.6737 21.8746Z" fill="black"/>
<path fill-rule="evenodd" clip-rule="evenodd" d="M46.8814 20.9906C46.8606 22.697 46.8398 24.1772 48.3977 24.7529C47.9407 20.1477 50.2671 12.2942 54.3799 8.81969C55.2938 8.05901 58.0564 6.29094 59.0327 6.64044C58.4926 6.84603 57.371 7.54504 56.8724 7.87398C54.6499 9.37478 53.0297 11.3484 51.9081 13.7744C50.2671 17.3105 49.7063 21.7307 49.1454 25.3696C51.4719 26.4387 54.0268 27.59 57.0178 27.5078C57.0178 21.1756 58.2226 11.1017 64.8487 7.8123C65.2226 7.62727 65.5549 7.48336 66.1365 7.73007C57.9526 13.1782 58.7834 20.0449 57.911 27.3022L58.6588 27.5695C58.2641 26.0481 58.4926 24.28 58.6588 22.7175C59.1158 23.8688 58.8665 24.8557 59.7805 26.0481C60.7359 27.3227 61.6914 26.9116 62.73 27.5283C65.2849 27.4667 70.2908 25.2257 72.4095 24.0333C74.8398 22.6559 78.5579 20.2505 77.2701 16.5087C75.1098 8.2646 74.5698 10.0327 71.6202 7.4628C68.276 4.56399 64.3917 4.37896 60.1543 5.34523C50.8903 7.40112 49.2908 12.8904 46.8814 20.9906ZM63.8101 25.1024C58.2434 16.9199 71.1425 5.18076 74.1751 10.2383C70.457 10.67 67.4659 11.0812 65.2434 14.2884C62.3561 18.4413 63.6855 20.8261 63.8101 25.1024Z" fill="black"/>
<path d="M58.7004 27.5696L57.8903 27.2817V27.2612C58.0357 26.1304 58.1188 24.9997 58.2226 23.9101C58.7419 17.9274 59.2196 12.2943 66.095 7.68905C65.5342 7.4629 65.2018 7.62737 64.8695 7.79184C61.9407 9.25153 59.7805 12.1709 58.4719 16.4883C57.2879 20.3739 57.0386 24.6091 57.0386 27.4668V27.4873H57.0179C54.006 27.5696 51.4096 26.3977 49.1455 25.3492H49.1247V25.3286C49.187 24.9791 49.2285 24.6296 49.2909 24.2801C49.8101 20.8468 50.3917 16.9406 51.8873 13.7334C53.0505 11.2457 54.6707 9.31321 56.8725 7.8124C57.3502 7.48346 58.4303 6.82557 58.9704 6.59942C57.9734 6.35272 55.3354 7.99743 54.4007 8.79923C50.4125 12.1503 47.9615 19.9627 48.4185 24.7119V24.753L48.3769 24.7324C46.7983 24.1568 46.819 22.6765 46.8398 20.9496L46.8606 20.9085C48.0446 16.92 49.0624 13.4867 50.9318 10.8346C51.9081 9.43656 53.092 8.32638 54.5045 7.44234C56.0416 6.47607 57.8903 5.75651 60.1544 5.24253C62.4808 4.708 64.4748 4.58465 66.2404 4.85191C68.2968 5.1603 70.0624 5.98266 71.641 7.36011C72.3265 7.95632 72.8873 8.32638 73.3858 8.63476C74.9437 9.64215 75.6499 10.115 77.3116 16.4266C77.8725 18.0713 77.5194 19.6544 76.2731 21.114C75.2137 22.3476 73.6766 23.2933 72.4511 23.9923C70.3532 25.1847 65.3472 27.4256 62.7716 27.4873C62.3769 27.2612 62.003 27.1584 61.6499 27.0761C61.0268 26.9322 60.4244 26.7883 59.822 25.9865C59.2404 25.2258 59.1366 24.5679 59.0119 23.8895C58.9496 23.5194 58.8873 23.1288 58.7211 22.7382C58.5342 24.2596 58.3472 25.9865 58.7211 27.4873L58.7004 27.5696ZM57.9526 27.2612L58.638 27.5079C58.2642 26.0071 58.4719 24.3007 58.638 22.7793L58.6588 22.6148L58.7004 22.6971C58.8665 23.1288 58.9496 23.54 59.0119 23.9512C59.1366 24.6296 59.2404 25.2875 59.822 26.0276C60.4036 26.8089 61.006 26.9528 61.6084 27.0967C61.9823 27.1789 62.3561 27.2817 62.7508 27.5079C65.3265 27.4462 70.3116 25.2053 72.4096 24.0129C75.2968 22.3681 78.4748 20.045 77.2701 16.5088C75.6292 10.2178 74.9229 9.7655 73.3651 8.75811C72.8665 8.44973 72.3265 8.07967 71.6202 7.4629C68.6915 4.91359 65.0564 4.23515 60.1751 5.34533C50.9318 7.44234 49.3324 12.8288 46.9229 20.9701V21.0112C46.9021 22.6971 46.8606 24.1568 48.3977 24.7324C48.19 22.4093 48.6677 19.3049 49.6855 16.3649C50.8279 13.0961 52.5104 10.4234 54.4007 8.81979C55.3561 8.01799 58.1188 6.29104 59.0742 6.64054L59.1366 6.6611L59.0742 6.68166C58.5342 6.88725 57.4125 7.58625 56.914 7.9152C54.7122 9.37488 53.092 11.2869 51.9288 13.7745C50.4333 16.9817 49.8517 20.8673 49.3324 24.3007C49.2701 24.6502 49.2285 24.9997 49.1662 25.3286C51.4303 26.3566 53.9852 27.5284 56.9763 27.4462C56.9763 24.5679 57.2464 20.3534 58.4096 16.4677C59.7182 12.1298 61.8784 9.21041 64.828 7.75073C65.1811 7.5657 65.5342 7.40122 66.1366 7.66849L66.1781 7.68905L66.1366 7.70961C59.2404 12.3148 58.7627 17.948 58.2434 23.9306C58.1811 25.0202 58.0772 26.151 57.9526 27.2612ZM63.8517 25.1847L63.8102 25.123C61.3591 21.5047 62.7093 17.6396 63.7478 15.6454C64.6618 13.8773 66.0119 12.212 67.549 10.9579C69.0653 9.72438 70.6024 9.02538 71.8487 8.98426C72.8873 8.9637 73.6974 9.37488 74.1959 10.2178L74.2167 10.2384H74.1751C70.6024 10.6495 67.5283 11.0196 65.2434 14.2679C63.0416 17.4134 63.2909 19.5516 63.5817 22.2653C63.6855 23.1494 63.7894 24.054 63.8102 25.0819L63.8517 25.1847ZM71.9526 9.04594C71.911 9.04594 71.8903 9.04594 71.8487 9.04594C70.6024 9.08706 69.0861 9.78606 67.5698 10.999C66.0327 12.2531 64.6826 13.8979 63.7686 15.6659C62.7508 17.6396 61.4007 21.443 63.7894 25.0408C63.7478 24.0334 63.6648 23.1699 63.5609 22.3065C63.2493 19.5927 63.0208 17.434 65.2226 14.2885C66.2612 12.8082 67.5075 11.842 69.1484 11.2252C70.5817 10.6907 72.2018 10.4645 74.1336 10.2384C73.6766 9.43656 72.9081 9.04594 71.9526 9.04594Z" fill="black"/>
<path fill-rule="evenodd" clip-rule="evenodd" d="M46.5282 22.1419L46.5905 24.0128C43.1632 25.7192 44.9288 25.8631 43.5994 26.4182C43.6202 24.9585 45.2819 23.6222 46.5282 22.1419ZM46.8813 20.9906L44.098 24.6912C43.3502 25.6369 42.9347 26.4593 42.7893 27.1789C42.1454 30.3655 46.6528 31.6196 49.8309 32.7092C60.6944 36.3893 61.2968 33.7577 68.733 29.3581C70.5193 28.3096 72.4095 27.405 74.2166 26.3359C77.5401 24.4034 81.8398 19.716 77.27 16.4882C78.5579 20.2505 74.819 22.6559 72.4095 24.0128C70.2908 25.2052 65.2849 27.4461 62.73 27.5078L58.6588 27.5284L57.911 27.2611C58.7834 20.0038 57.9733 13.1371 66.1365 7.68898C65.5549 7.44227 65.2226 7.58619 64.8487 7.77122C58.2226 11.0606 57.0178 21.1345 57.0178 27.4667C54.0267 27.5489 51.4718 26.3976 49.1454 25.3286C49.7063 21.6896 50.2463 17.2695 51.908 13.7333C53.0297 11.3074 54.6706 9.3337 56.8724 7.83289C57.3709 7.50395 58.4926 6.80495 59.0327 6.59936C58.0564 6.24985 55.2938 7.99737 54.3798 8.77861C50.2671 12.2531 47.9407 20.1066 48.3977 24.7118C46.8398 24.1773 46.8606 22.697 46.8813 20.9906ZM56.9555 31.7018C57.1425 29.502 56.2077 29.6665 55.46 28.1246L62.0445 28.5769C61.276 29.0292 59.552 29.4403 59.4896 30.5094C61.4214 31.2907 63.3531 30.1188 65.2641 29.8926L64.3086 31.0439C61.2344 33.5933 56.0623 34.4773 53.1959 32.7709C54.9614 32.4831 55.5638 32.9354 56.9555 31.7018Z" fill="black"/>
<path d="M57.8903 34.4773C55.8755 34.4773 53.3621 33.9222 49.831 32.7297C49.6232 32.6475 49.3948 32.5858 49.1663 32.5036C46.0505 31.4551 42.1663 30.1599 42.7686 27.1788C42.914 26.4181 43.3502 25.5752 44.0773 24.6706L46.9022 20.9083V20.97C46.8814 22.6559 46.8399 24.1155 48.377 24.6912C48.1692 22.368 48.647 19.2636 49.6648 16.3237C50.8072 13.0548 52.4897 10.3822 54.3799 8.77857C55.3354 7.97677 58.098 6.24982 59.0535 6.59932L59.1158 6.61988L59.0535 6.64044C58.5135 6.84603 57.3918 7.54503 56.8933 7.87397C54.7123 9.37478 53.0921 11.2868 51.9289 13.7744C50.4333 16.9816 49.8517 20.8672 49.3324 24.3006C49.2701 24.6501 49.2286 24.9996 49.1663 25.3285C51.4304 26.3565 53.9853 27.5283 56.9764 27.4461C56.9764 24.5678 57.2464 20.3533 58.4096 16.4676C59.7182 12.1297 61.8784 9.21031 64.828 7.75062C65.1811 7.56559 65.5342 7.40112 66.1366 7.66838L66.1782 7.68894L66.1366 7.7095C59.2405 12.3147 58.7627 17.9479 58.2434 23.9305C58.1603 25.0201 58.0565 26.1303 57.9111 27.2611L58.6381 27.5078L62.7093 27.4872C65.285 27.4255 70.2701 25.1846 72.3681 23.9922C75.2553 22.3475 78.4333 20.0243 77.2286 16.4882L77.2078 16.4265L77.2701 16.4676C78.6411 17.4339 79.3265 18.6263 79.2642 19.9626C79.2227 21.1139 78.6203 22.368 77.5402 23.6221C76.647 24.6501 75.4422 25.6575 74.2167 26.3565C73.3443 26.8704 72.4304 27.3433 71.558 27.8162C70.6233 28.3096 69.6678 28.8235 68.733 29.3581C67.4452 30.1188 66.3651 30.8178 65.4096 31.4551C63.104 32.9559 61.4422 34.0455 59.2612 34.3539C58.8458 34.4361 58.3681 34.4773 57.8903 34.4773ZM46.8606 21.0523L44.1188 24.6912C43.4126 25.5958 42.9764 26.4181 42.831 27.1788C42.2286 30.1393 46.0921 31.4345 49.187 32.4625C49.4155 32.5447 49.6232 32.6064 49.8517 32.6886C58.8458 35.7313 60.7568 34.4772 65.4096 31.4345C66.3651 30.8178 67.4452 30.0982 68.733 29.3375C69.647 28.803 70.6233 28.289 71.558 27.7956C72.4304 27.3227 73.3443 26.8499 74.2167 26.3359C76.5639 24.9585 79.1396 22.3886 79.2434 19.9832C79.3058 18.6674 78.6618 17.5367 77.3325 16.5704C77.8725 18.1946 77.4986 19.757 76.2731 21.1756C75.2138 22.4091 73.6767 23.3549 72.4511 24.0539C70.3532 25.2463 65.3473 27.4872 62.7716 27.5489L58.7004 27.5694L57.9319 27.3022V27.2816C58.0773 26.1509 58.1603 25.0201 58.2642 23.9305C58.7835 17.9479 59.2612 12.3147 66.1366 7.7095C65.5758 7.48335 65.2434 7.64783 64.9111 7.8123C61.9823 9.27198 59.8221 12.1914 58.5135 16.5087C57.3295 20.3944 57.0802 24.6295 57.0802 27.4872V27.5078H57.0595C54.0476 27.59 51.4511 26.4181 49.187 25.3696H49.1663V25.3491C49.2286 24.9996 49.2701 24.6501 49.3324 24.3006C49.8517 20.8672 50.4333 16.961 51.9289 13.7538C53.0921 11.2662 54.7123 9.33366 56.9141 7.83286C57.3918 7.50391 58.4719 6.84603 59.012 6.61988C58.0149 6.37317 55.377 8.01789 54.4422 8.81969C50.4541 12.1708 48.0031 19.9832 48.46 24.7323V24.7734L48.4185 24.7529C46.8191 24.1978 46.8191 22.7381 46.8606 21.0523ZM56.8517 33.696C55.4185 33.696 54.1722 33.3876 53.196 32.812L53.1544 32.7914H53.2167C53.736 32.7092 54.1514 32.6886 54.5046 32.6475C55.377 32.5858 55.9586 32.5653 56.9348 31.7018C57.0595 30.2832 56.7063 29.872 56.2286 29.2964C55.9793 29.0086 55.7093 28.6796 55.4393 28.1451L55.4185 28.104H55.46L62.1277 28.5563L62.0654 28.5974C61.8784 28.7002 61.6292 28.8235 61.3592 28.9263C60.5698 29.2758 59.5728 29.7076 59.5313 30.4888C60.8191 31.0028 62.1069 30.6327 63.374 30.2832C63.9971 30.1188 64.6411 29.9337 65.2642 29.872H65.3265L64.3295 31.0645C62.8339 32.298 60.7776 33.182 58.6796 33.5315C58.0565 33.6343 57.4541 33.696 56.8517 33.696ZM53.279 32.812C56.0624 34.4361 61.193 33.6138 64.3087 31.0439L65.2227 29.9337C64.6203 30.016 63.9971 30.1804 63.3948 30.3449C62.1277 30.6944 60.7983 31.0645 59.5105 30.5299H59.4897V30.5094C59.5313 29.687 60.5491 29.2553 61.3592 28.8852C61.5876 28.7824 61.8161 28.6796 61.9823 28.5974L55.5016 28.1451C55.7509 28.6591 56.0209 28.9675 56.2701 29.2553C56.7271 29.8104 57.101 30.2421 56.9764 31.7018C56.0001 32.5653 55.3977 32.6064 54.5046 32.6681C54.1514 32.7092 53.7568 32.7297 53.279 32.812ZM43.5787 26.4593V26.4181C43.5995 25.2874 44.5758 24.2389 45.6351 23.1082C45.9259 22.7792 46.2375 22.4503 46.5283 22.1213L46.5698 22.0802L46.6322 24.0127H46.6114C44.5135 25.0613 44.3681 25.493 44.2642 25.8219C44.2019 26.0275 44.1396 26.192 43.6203 26.4181L43.5787 26.4593ZM46.5075 22.2036C46.2375 22.5325 45.9259 22.8409 45.6559 23.1493C44.6381 24.2389 43.6618 25.2874 43.6203 26.377C44.098 26.1714 44.1396 26.0275 44.2227 25.8219C44.3265 25.493 44.4927 25.0201 46.5698 23.9922L46.5075 22.2036Z" fill="black"/>
<path fill-rule="evenodd" clip-rule="evenodd" d="M63.8103 25.1026C63.6649 20.8058 62.3355 18.4209 65.2435 14.2886C67.4661 11.0814 70.4571 10.6702 74.1752 10.2385C71.1634 5.18097 58.2643 16.9201 63.8103 25.1026ZM59.199 5.98277C61.0477 5.94165 63.0625 5.11929 64.7865 6.10612C63.7687 7.77139 58.9497 9.18996 59.199 11.8421C60.7984 11.6982 60.3207 10.2385 63.2702 8.1209C65.3474 6.62009 67.4037 6.92848 68.5669 6.12668C64.8904 4.2147 61.8577 5.366 59.199 5.98277ZM58.6797 27.5491L62.7509 27.5285C61.7331 26.8912 60.7569 27.3024 59.8014 26.0483C58.8874 24.8353 59.1367 23.869 58.6797 22.7177C58.4928 24.2597 58.285 26.0072 58.6797 27.5491ZM56.9557 31.702C55.564 32.915 54.9616 32.4832 53.2168 32.7916C56.0625 34.498 61.2554 33.5934 64.3296 31.0647L65.285 29.9134C63.3741 30.119 61.4423 31.3114 59.5106 30.5301C59.5729 29.4611 61.2761 29.0499 62.0655 28.5976L55.4809 28.1453C56.2079 29.6872 57.1426 29.5022 56.9557 31.702Z" fill="black"/>
<path d="M56.8518 33.6961C55.4185 33.6961 54.1722 33.3877 53.196 32.8121L53.1544 32.7915H53.2167C53.736 32.7093 54.1515 32.6887 54.5046 32.6476C55.377 32.5859 55.9586 32.5654 56.9348 31.7019C57.0595 30.2833 56.7064 29.8722 56.2286 29.2965C55.9793 29.0087 55.7093 28.6797 55.4393 28.1452L55.4185 28.1041H55.4601L62.1277 28.5564L62.0654 28.5975C61.8785 28.7003 61.6292 28.8237 61.3592 28.9265C60.5698 29.276 59.5728 29.7077 59.5313 30.4889C60.8191 31.0029 62.1069 30.6328 63.374 30.2833C63.9972 30.1189 64.6411 29.9338 65.2642 29.8722H65.3265L64.3295 31.0646C62.8339 32.2981 60.7776 33.1822 58.6796 33.5317C58.0565 33.6345 57.4541 33.6961 56.8518 33.6961ZM53.279 32.8121C56.0624 34.4363 61.193 33.6139 64.3087 31.044L65.2227 29.9338C64.6203 30.0161 63.9972 30.1806 63.3948 30.345C62.1277 30.6945 60.7983 31.0646 59.5105 30.5301H59.4897V30.5095C59.5313 29.6871 60.5491 29.2554 61.3592 28.8853C61.5877 28.7825 61.8161 28.6797 61.9823 28.5975L55.5016 28.1452C55.7509 28.6592 56.0209 28.9676 56.2701 29.2554C56.7271 29.8105 57.101 30.2422 56.9764 31.7019C56.0001 32.5654 55.3977 32.6065 54.5046 32.6682C54.1515 32.7093 53.7568 32.7299 53.279 32.8121ZM58.6589 27.5696C58.2642 26.0482 58.4719 24.3007 58.6589 22.7793L58.6796 22.6149L58.7212 22.6971C58.8874 23.1288 58.9704 23.54 59.0328 23.9512C59.1574 24.6296 59.2612 25.2875 59.8428 26.0276C60.4245 26.8089 61.0268 26.9528 61.6292 27.0967C62.0031 27.1789 62.377 27.2817 62.7716 27.5079L62.8339 27.549L58.6589 27.5696ZM58.7004 22.7793C58.5135 24.3007 58.3265 26.0276 58.7004 27.5079L62.6678 27.4873C62.3147 27.2817 61.9408 27.1995 61.6084 27.1173C60.9853 26.9734 60.3829 26.8294 59.7805 26.0276C59.1989 25.267 59.0951 24.6091 58.9704 23.9306C58.9081 23.5606 58.8458 23.1905 58.7004 22.7793ZM63.8517 25.1847L63.8102 25.1231C61.3592 21.5047 62.7093 17.6396 63.7479 15.6454C64.6618 13.8773 66.012 12.212 67.5491 10.9579C69.0654 9.7244 70.6025 9.0254 71.8488 8.98428C72.8874 8.96372 73.6975 9.3749 74.196 10.2178L74.2167 10.2384H74.1752C70.6025 10.6496 67.5283 11.0196 65.2434 14.2679C63.0417 17.4134 63.2909 19.5516 63.5817 22.2654C63.6856 23.1494 63.7894 24.054 63.8102 25.0819L63.8517 25.1847ZM71.9526 9.04596C71.9111 9.04596 71.8903 9.04596 71.8488 9.04596C70.6025 9.08707 69.0862 9.78608 67.5698 10.9991C66.0328 12.2532 64.6826 13.8979 63.7687 15.6659C62.7509 17.6396 61.4007 21.443 63.7894 25.0408C63.7479 24.0334 63.6648 23.17 63.5609 22.3065C63.2494 19.5927 63.0209 17.434 65.2227 14.2885C66.2612 12.8082 67.5075 11.842 69.1485 11.2252C70.5817 10.6907 72.2019 10.4645 74.1336 10.2384C73.6767 9.43658 72.9081 9.04596 71.9526 9.04596ZM59.1989 11.8625V11.842C59.0328 10.1767 60.8814 8.98428 62.5224 7.93577C63.4779 7.31901 64.3918 6.7228 64.7865 6.12659C63.6025 5.4687 62.2523 5.65373 60.9437 5.83876C60.3829 5.921 59.7805 6.00323 59.2197 6.02379H59.012L59.2197 5.98267C59.5313 5.90044 59.8636 5.8182 60.196 5.73597C62.6055 5.1192 65.3473 4.42019 68.6084 6.10603L68.65 6.12659L68.6292 6.14715C68.1307 6.47609 67.4868 6.62 66.7598 6.78447C65.7212 7.01062 64.5372 7.27789 63.3325 8.14136C61.8785 9.18987 61.2553 10.0945 60.7983 10.7318C60.3414 11.3897 60.0713 11.8009 59.2612 11.8625H59.1989ZM62.7716 5.61261C63.4779 5.61261 64.1633 5.73597 64.8072 6.08547L64.828 6.10603L64.8072 6.12659C64.4126 6.74335 63.4986 7.33956 62.5224 7.97689C60.9022 9.0254 59.0743 10.1973 59.2197 11.8214C59.9882 11.7392 60.2583 11.3486 60.7152 10.7112C61.1722 10.0533 61.7746 9.16931 63.2494 8.10025C64.4541 7.21621 65.6381 6.9695 66.6974 6.74335C67.4245 6.57888 68.0476 6.45553 68.5253 6.12659C65.3058 4.48187 62.5847 5.16032 60.1752 5.77708C59.9052 5.83876 59.6559 5.90044 59.4066 5.96212C59.9052 5.94156 60.4037 5.85932 60.9022 5.79764C61.5461 5.69485 62.1693 5.61261 62.7716 5.61261Z" fill="black"/>
<path d="M10.4897 60.8957L4.21668 54.8102L3.69739 29.9544L10.6974 23.54L39.8191 23.6428V24.8353L11.1751 24.753L4.94368 30.4684L5.42142 54.2757L10.9882 59.6827L111.481 59.5799L117.671 53.9056L117.775 31.0029L111.502 24.8969L78.7033 24.8353V23.6428L112 23.7045L118.979 30.5095V30.7562L118.896 54.4196L111.959 60.7929H111.73L10.4897 60.8957Z" fill="white"/>
<path fill-rule="evenodd" clip-rule="evenodd" d="M46.4659 20.3327C46.4659 20.3327 45.8428 20.8673 45.6559 20.9701C45.4066 21.114 44.5757 22.3681 44.2642 22.7176C43.9526 23.0671 43.4541 24.095 43.0594 24.5885C42.9348 24.7324 42.7894 25.5753 43.0179 25.7603C43.6618 26.2948 45.1989 26.0276 45.8636 25.6781C46.0297 25.5958 46.6529 24.0539 46.7152 23.7867C46.8191 23.2521 47.0891 22.3681 46.9229 21.8541C46.7775 21.4429 46.9437 21.1345 46.6113 20.6C46.5283 20.4767 46.5283 20.2916 46.4659 20.3327Z" fill="white"/>
<path fill-rule="evenodd" clip-rule="evenodd" d="M58.8665 4.13246C59.3442 4.02966 60.2374 3.59792 60.6944 3.51569C65.4303 2.63165 68.5876 3.18674 71.5371 5.6127C74.6736 8.20313 75.1721 7.48357 76.3354 11.1431C77.0416 13.3634 78.2879 16.6734 77.5816 18.1125C72.4303 28.8032 47.1929 29.6667 46.549 20.8263C46.3621 20.3946 46.5905 19.5928 46.9229 18.606C47.1721 17.8658 47.5253 16.879 47.9199 15.5221C48.7923 12.5205 50.2048 8.8199 54.0267 6.18835C55.4184 5.22208 56.7063 4.72867 58.8665 4.13246Z" fill="#E41D2C"/>
<path fill-rule="evenodd" clip-rule="evenodd" d="M63.3739 22.6148C61.1098 15.4397 63.9347 10.6906 70.3739 7.689C72.5133 6.68161 73.8427 7.77124 74.2581 8.5936C66.3857 9.25148 61.8575 13.4455 63.6023 22.5326C63.7062 23.026 63.4154 22.7793 63.3739 22.6148Z" fill="black"/>
<path fill-rule="evenodd" clip-rule="evenodd" d="M46.6736 19.4488C46.4659 20.374 46.5698 21.2169 46.9437 21.957C47.8784 23.7251 48.0861 22.4299 48.2938 21.073C48.4184 20.2506 48.5638 19.4282 48.7092 18.647C49.7686 13.1783 51.825 8.01804 57.5579 5.07811C57.9941 4.8314 58.4303 5.26314 58.098 5.42761C51.4096 8.75816 49.9971 14.9258 49.1662 21.8748C48.9377 23.7867 49.0624 24.1568 50.2463 24.6913C51.3057 25.1642 52.5935 25.452 53.9229 25.7604C56.1662 26.2744 56.4363 26.4594 56.6647 23.869C56.7271 23.1905 56.7894 22.5326 56.8725 21.8748C57.6825 14.9464 59.6766 9.49828 64.7449 6.88729C65.4096 6.57891 65.7834 7.09288 65.4096 7.2368C60.7775 9.72443 59.1366 14.3091 58.4096 20.374C58.2642 21.5253 58.098 22.6354 58.0772 23.9101C58.0564 25.1848 57.641 26.3155 60.1128 26.1305C61.5045 26.0277 62.8962 25.9043 64.2463 25.6371C70.3324 24.4446 75.2553 21.4636 76.9378 18.2564C77.5194 17.1462 77.5609 15.9538 77.4363 14.8847C80.1781 17.7424 79.8042 20.1273 76.5223 23.0055C74.3413 24.9175 70.6232 26.4183 67.8606 28.4536C63.4986 31.6608 59.3027 33.7167 56.0624 32.9355C47.733 30.9413 42.1247 29.5638 42.5609 25.6987C42.727 24.3624 45.9259 20.4562 46.6736 19.4488Z" fill="white"/>
<path fill-rule="evenodd" clip-rule="evenodd" d="M43.4124 24.8968C44.2017 23.3138 45.1364 22.1213 46.0919 20.8467C45.9465 21.5457 45.9465 22.0185 46.4035 22.7175C45.4064 22.7587 44.4094 23.766 43.4124 24.8968Z" fill="black"/>
<path fill-rule="evenodd" clip-rule="evenodd" d="M54.2345 31.7429C57.7449 30.6328 57.5164 28.104 55.5431 27.1789C57.8695 27.59 59.8013 27.3433 61.5045 26.7266C57.2464 28.289 58.368 31.1262 64.6826 29.6048C61.8369 31.1673 58.0149 32.9148 54.2345 31.7429Z" fill="black"/>
<path fill-rule="evenodd" clip-rule="evenodd" d="M59.7805 4.58469C59.6143 4.79027 62.3354 4.09127 64.0386 4.3791C64.6618 4.48189 65.1187 4.70804 64.7033 5.01642C63.3532 6.08549 61.5253 6.64058 60.2582 8.32641C59.6766 9.10765 59.7182 9.70386 60.2374 9.18989C63.0624 6.35275 65.7419 5.73599 67.3205 5.03698C67.8606 4.79027 67.7775 4.56413 67.092 4.29686C64.2048 3.18668 60.2582 4.29686 59.7805 4.58469Z" fill="black"/>
<path fill-rule="evenodd" clip-rule="evenodd" d="M121.389 23.1906V19.0377H122.947L123.466 19.5722V20.8263L123.134 21.1347L123.466 21.4225V23.1906H122.614V21.4636H122.261V23.1906H121.389ZM122.261 20.7852H122.614V19.7161H122.261V20.7852ZM125.044 21.1347C125.044 21.957 124.774 22.6355 124.276 23.1495C123.757 23.6634 123.154 23.9307 122.427 23.9307C121.68 23.9307 121.056 23.6634 120.558 23.1495C120.059 22.6355 119.81 21.957 119.81 21.1347C119.81 20.3123 120.059 19.6339 120.558 19.1405C121.077 18.6265 121.68 18.3592 122.427 18.3592C123.154 18.3592 123.777 18.6265 124.276 19.1405C124.795 19.675 125.044 20.3329 125.044 21.1347ZM126 21.1347C126 20.0245 125.647 19.1405 124.941 18.4826C124.255 17.8452 123.424 17.5369 122.427 17.5369C121.409 17.5369 120.558 17.8452 119.872 18.4826C119.125 19.1816 118.751 20.0451 118.751 21.1347C118.751 22.2449 119.125 23.1289 119.872 23.8073C120.579 24.4447 121.43 24.7736 122.427 24.7736C123.445 24.7736 124.276 24.4447 124.941 23.8073C125.647 23.1495 126 22.2449 126 21.1347Z" fill="black"/>
</svg>
