<svg width="173" height="103" viewBox="0 0 173 103" fill="none" xmlns="http://www.w3.org/2000/svg">
<g clip-path="url(#clip0)">
<path fill-rule="evenodd" clip-rule="evenodd" d="M7.99414 103V73.1842C24.3659 60.7932 40.7377 48.5958 57.1095 36.2048L82.1487 54.9849L94.283 45.8853L135.309 76.6691V103H132.612V78.0244L94.4756 49.3702L82.3413 58.4699L57.3021 39.6898L10.8833 74.5394V103H7.99414Z" fill="white"/>
<path fill-rule="evenodd" clip-rule="evenodd" d="M0.482422 66.4077L4.52721 71.4415L57.1095 32.7197L82.7265 51.887L94.4757 42.981L138.776 76.2818L142.435 72.0224L94.4757 35.6239L83.6896 43.7554L57.1095 23.8137L0.482422 66.4077Z" fill="white"/>
<path fill-rule="evenodd" clip-rule="evenodd" d="M27.64 37.9475H16.0835V51.6938L27.64 42.9813V37.9475Z" fill="white"/>
<path fill-rule="evenodd" clip-rule="evenodd" d="M15.3136 77.0564H31.4928V93.5132H13.9653V77.0564H15.3136ZM28.7962 79.7669H16.8545V90.8026H28.7962V79.7669Z" fill="white"/>
<path fill-rule="evenodd" clip-rule="evenodd" d="M35.537 77.0564H51.5235V103.194H33.9961V77.0564H35.537ZM48.827 79.7669H36.8852V100.289H48.827V79.7669Z" fill="white"/>
<path fill-rule="evenodd" clip-rule="evenodd" d="M120.093 79.7669H83.497V100.289H120.093V79.7669ZM82.1488 77.0564H122.982V103.194H80.6079V77.0564H82.1488Z" fill="white"/>
<path fill-rule="evenodd" clip-rule="evenodd" d="M69.0511 79.7669H57.1094V90.8026H69.0511V79.7669ZM55.7611 77.0564H71.7477V93.5132H54.2202V77.0564H55.7611Z" fill="white"/>
<path fill-rule="evenodd" clip-rule="evenodd" d="M163.429 40.658L146.672 103H143.783L159.962 42.9813L163.429 40.658Z" fill="white"/>
<path fill-rule="evenodd" clip-rule="evenodd" d="M172.482 33.8816L154.955 103H152.066L169.016 36.3985L172.482 33.8816Z" fill="white"/>
<path fill-rule="evenodd" clip-rule="evenodd" d="M25.1369 6.38916L159.963 42.9813L156.882 45.111L22.0552 8.51886L25.1369 6.38916Z" fill="white"/>
<path fill-rule="evenodd" clip-rule="evenodd" d="M34.1887 0L169.015 36.5921L165.933 38.5282L31.1069 2.1297L34.1887 0Z" fill="white"/>
</g>
<defs>
<clipPath id="clip0">
<rect width="172" height="103" fill="white" transform="translate(0.482422)"/>
</clipPath>
</defs>
</svg>
