<svg width="37" height="40" viewBox="0 0 37 40" fill="none" xmlns="http://www.w3.org/2000/svg">
<path fill-rule="evenodd" clip-rule="evenodd" d="M0 29.1099C0.897586 30.0457 1.62407 30.8206 2.25124 31.4896L2.25125 31.4896C3.96219 33.3145 4.93407 34.3512 6.62449 35.7143H13.5714L17.8571 40L22.1428 35.7143H29.5036C31.1941 34.3512 32.1659 33.3145 33.8769 31.4896C34.504 30.8206 35.2305 30.0457 36.1281 29.1099V6.60435C33.1726 3.96261 31.8307 2.72641 28.8752 0H18.271H17.8572H7.25297C4.29743 2.72641 2.95554 3.96261 0 6.60435V29.1099Z" fill="#E41D2C"/>
<path d="M22.837 17.2757H18.2141V20.3677H19.0146V23.4795H17.4337V11.072H19.0146V15.7398H22.857V10.3339L20.5156 8H15.9127L13.5713 10.3339V24.2375L15.9127 26.5714H20.5156L22.837 24.2375V17.2757Z" fill="white" stroke="#E41D2C"/>
</svg>
