<svg width="70" height="78" viewBox="0 0 70 78" fill="none" xmlns="http://www.w3.org/2000/svg">
<path fill-rule="evenodd" clip-rule="evenodd" d="M10.4893 55.8101L10.4895 55.8103L10.4896 55.8103C13.1416 58.6391 14.648 60.246 17.2683 62.3588H28.0363L34.6793 69.0018L41.3223 62.3588H52.7317C55.3519 60.246 56.8584 58.6391 59.5104 55.8103L59.5104 55.8103C60.4826 54.7734 61.6087 53.5722 63 52.1218V17.2371C58.4188 13.1422 56.3388 11.2261 51.7575 7H35.3209H34.6791H18.2424C13.6612 11.2261 11.5812 13.1422 7 17.2371V52.1218C8.39119 53.5721 9.51721 54.7732 10.4893 55.8101Z" fill="#E11D2B"/>
<path d="M42.8924 33.928H35.5281V38.6776H36.8033V43.4579H34.2847V24.3982H36.8033V31.5685H42.9243V23.2644L39.1943 19.6792H31.8618L28.1318 23.2644V44.6223L31.8618 48.2075H39.1943L42.8924 44.6223V33.928Z" fill="white" stroke="#E41D2C"/>
<mask id="path-3-inside-1" fill="white">
<path fill-rule="evenodd" clip-rule="evenodd" d="M0 56.412C1.73916 58.2254 3.14678 59.727 4.36198 61.0235C7.67704 64.5601 9.56013 66.569 12.8354 69.2105H25.9193L34.1045 77.3957L42.2897 69.2105H57.1646C60.4398 66.569 62.3229 64.5601 65.6379 61.0235L65.638 61.0235C66.8532 59.7271 68.2608 58.2254 70 56.412V12.7985C64.2734 7.67912 61.6734 5.28349 55.9468 0H35.4014H34.5986H14.0532C8.32658 5.28349 5.72658 7.67912 0 12.7985V56.412Z"/>
</mask>
<path d="M4.36198 61.0235L5.82116 59.6557H5.82116L4.36198 61.0235ZM0 56.412H-2V57.216L-1.44345 57.7963L0 56.412ZM12.8354 69.2105L11.5799 70.7673L12.1294 71.2105H12.8354V69.2105ZM25.9193 69.2105L27.3335 67.7963L26.7477 67.2105H25.9193V69.2105ZM34.1045 77.3957L32.6903 78.81L34.1045 80.2242L35.5187 78.81L34.1045 77.3957ZM42.2897 69.2105V67.2105H41.4613L40.8755 67.7963L42.2897 69.2105ZM57.1646 69.2105V71.2105H57.8706L58.4201 70.7673L57.1646 69.2105ZM65.6379 61.0235L64.2237 59.6093L64.2009 59.6322L64.1788 59.6558L65.6379 61.0235ZM65.638 61.0235L67.0522 62.4377L67.0751 62.4148L67.0972 62.3912L65.638 61.0235ZM70 56.412L71.4434 57.7963L72 57.216V56.412H70ZM70 12.7985H72V11.9038L71.333 11.3075L70 12.7985ZM55.9468 0L57.303 -1.46994L56.7285 -2H55.9468V0ZM14.0532 0V-2H13.2715L12.697 -1.46994L14.0532 0ZM0 12.7985L-1.33296 11.3075L-2 11.9038V12.7985H0ZM5.82116 59.6557C4.60578 58.3591 3.19127 56.85 1.44345 55.0276L-1.44345 57.7963C0.287045 59.6007 1.68778 61.095 2.90281 62.3912L5.82116 59.6557ZM14.091 67.6537C10.9361 65.1093 9.13784 63.194 5.82116 59.6557L2.9028 62.3912C6.21624 65.9261 8.18417 68.0287 11.5799 70.7673L14.091 67.6537ZM25.9193 67.2105H12.8354V71.2105H25.9193V67.2105ZM35.5187 75.9815L27.3335 67.7963L24.5051 70.6247L32.6903 78.81L35.5187 75.9815ZM40.8755 67.7963L32.6903 75.9815L35.5187 78.81L43.704 70.6247L40.8755 67.7963ZM57.1646 67.2105H42.2897V71.2105H57.1646V67.2105ZM64.1788 59.6558C60.8621 63.194 59.0639 65.1093 55.909 67.6537L58.4201 70.7673C61.8158 68.0287 63.7837 65.9261 67.0971 62.3913L64.1788 59.6558ZM64.2238 59.6093L64.2237 59.6093L67.0522 62.4378L67.0522 62.4377L64.2238 59.6093ZM68.5566 55.0276C66.8087 56.85 65.3942 58.3591 64.1788 59.6557L67.0972 62.3912C68.3122 61.095 69.713 59.6007 71.4434 57.7963L68.5566 55.0276ZM68 12.7985V56.412H72V12.7985H68ZM54.5906 1.46994C60.3198 6.75578 62.9288 9.15971 68.667 14.2896L71.333 11.3075C65.6181 6.19852 63.0271 3.81121 57.303 -1.46994L54.5906 1.46994ZM35.4014 2H55.9468V-2H35.4014V2ZM34.5986 2H35.4014V-2H34.5986V2ZM14.0532 2H34.5986V-2H14.0532V2ZM1.33296 14.2896C7.07123 9.15971 9.68024 6.75578 15.4094 1.46994L12.697 -1.46994C6.97292 3.81121 4.38193 6.19852 -1.33296 11.3075L1.33296 14.2896ZM2 56.412V12.7985H-2V56.412H2Z" fill="#E11D2B" mask="url(#path-3-inside-1)"/>
</svg>
