<svg width="51" height="50" viewBox="0 0 51 50" fill="none" xmlns="http://www.w3.org/2000/svg">
<path fill-rule="evenodd" clip-rule="evenodd" d="M7.52141 40.2683C6.81897 39.519 6.0053 38.6511 5 37.6031V12.3969C8.31021 9.43811 9.81312 8.05356 13.1233 4.99998H25H25.4635H37.3402C40.6504 8.05356 42.1533 9.43811 45.4635 12.3969V37.6031C44.4582 38.6511 43.6446 39.519 42.9421 40.2683C41.0259 42.3123 39.9374 43.4733 38.0441 45H25.4635H25H12.4194C10.5262 43.4733 9.43765 42.3123 7.52141 40.2683Z" fill="#E41D2C"/>
<mask id="path-2-inside-1" fill="white">
<path fill-rule="evenodd" clip-rule="evenodd" d="M3.15174 44.0854C2.2737 43.1488 1.25662 42.0639 0 40.7539V9.24609C4.13776 5.54765 6.0164 3.81697 10.1542 0H25H25.5794H40.4253C44.563 3.81697 46.4417 5.54765 50.5794 9.24609V40.7539C49.3228 42.0639 48.3057 43.1488 47.4277 44.0854C45.0323 46.6403 43.6717 48.0917 41.3051 50H25.5794H25H9.27429C6.90769 48.0917 5.54706 46.6403 3.15174 44.0854Z"/>
</mask>
<path d="M0 40.7539H-2V41.5581L-1.44333 42.1384L0 40.7539ZM3.15174 44.0854L4.6108 42.7175L4.6108 42.7175L3.15174 44.0854ZM0 9.24609L-1.33284 7.75493L-2 8.35126V9.24609H0ZM10.1542 0V-2H9.37256L8.79807 -1.47005L10.1542 0ZM40.4253 0L41.7813 -1.47005L41.2068 -2H40.4253V0ZM50.5794 9.24609H52.5794V8.35126L51.9122 7.75493L50.5794 9.24609ZM50.5794 40.7539L52.0227 42.1384L52.5794 41.5581V40.7539H50.5794ZM47.4277 44.0854L48.8867 45.4533L48.8867 45.4533L47.4277 44.0854ZM41.3051 50V52H42.011L42.5605 51.5569L41.3051 50ZM9.27429 50L8.01886 51.5569L8.56838 52H9.27429V50ZM-1.44333 42.1384C-0.195377 43.4394 0.814808 44.5169 1.69268 45.4533L4.6108 42.7175C3.73259 41.7807 2.70862 40.6885 1.44333 39.3694L-1.44333 42.1384ZM-2 9.24609V40.7539H2V9.24609H-2ZM8.79807 -1.47005C4.66286 2.34458 2.79323 4.06695 -1.33284 7.75493L1.33284 10.7372C5.48229 7.02836 7.36993 5.28937 11.5102 1.47005L8.79807 -1.47005ZM25 -2H10.1542V2H25V-2ZM25 2H25.5794V-2H25V2ZM25.5794 2H40.4253V-2H25.5794V2ZM39.0692 1.47005C43.2095 5.28937 45.0971 7.02836 49.2466 10.7372L51.9122 7.75493C47.7862 4.06695 45.9165 2.34458 41.7813 -1.47005L39.0692 1.47005ZM48.5794 9.24609V40.7539H52.5794V9.24609H48.5794ZM49.1361 39.3694C47.8708 40.6885 46.8468 41.7807 45.9686 42.7175L48.8867 45.4533C49.7646 44.5169 50.7748 43.4394 52.0227 42.1384L49.1361 39.3694ZM45.9686 42.7175C43.5717 45.2742 42.2959 46.6319 40.0497 48.4431L42.5605 51.5569C45.0475 49.5515 46.493 48.0065 48.8867 45.4533L45.9686 42.7175ZM41.3051 48H25.5794V52H41.3051V48ZM25.5794 48H25V52H25.5794V48ZM9.27429 52H25V48H9.27429V52ZM1.69268 45.4533C4.08637 48.0065 5.53186 49.5515 8.01886 51.5569L10.5297 48.4431C8.28352 46.6319 7.00774 45.2742 4.6108 42.7175L1.69268 45.4533Z" fill="#E41D2C" mask="url(#path-2-inside-1)"/>
</svg>
