<svg width="97" height="86" viewBox="0 0 97 86" fill="none" xmlns="http://www.w3.org/2000/svg">
<g clip-path="url(#clip0)">
<path d="M35.7065 86C34.4724 86 33.2383 85.7531 32.3333 85.2594L1.64546 69.623C0.246819 68.9646 0 68.1417 0 67.6479V67.5656V65.0144C0 64.8498 0.0822731 64.6852 0.164546 64.6029C0.246819 64.5206 0.411366 64.4383 0.575912 64.4383C0.905004 64.4383 1.15182 64.6852 1.15182 65.0144C1.15182 65.3436 1.48092 65.7551 2.1391 66.0842L32.827 81.7206C33.5674 82.1321 34.637 82.2967 35.7065 82.2967C36.7761 82.2967 37.8456 82.0498 38.5038 81.7206L94.8609 53.4929C95.4368 53.1637 95.8482 52.8345 95.8482 52.423C95.8482 52.0938 96.095 51.8469 96.4241 51.8469C96.7532 51.8469 97 52.0938 97 52.423V54.8919C97 55.3857 96.8355 56.2909 95.4368 57.0316L39.0797 85.2594C38.1747 85.7531 36.9406 86 35.7065 86ZM1.15182 67.4833C1.15182 67.5656 1.15182 67.5656 1.15182 67.4833C1.15182 67.8948 1.48092 68.3063 2.1391 68.6354L32.827 84.2718C33.5674 84.6833 34.637 84.8479 35.7065 84.8479C36.7761 84.8479 37.8456 84.601 38.5038 84.2718L94.8609 55.9618C95.4368 55.6326 95.8482 55.2211 95.8482 54.8919V54.2335C95.6836 54.3158 95.6014 54.3981 95.4368 54.4804L39.0797 82.7082C38.1747 83.2019 37.0229 83.4488 35.7065 83.4488C34.4724 83.4488 33.2383 83.2019 32.3333 82.7082L1.64546 67.0718C1.48092 66.9895 1.31637 66.9072 1.2341 66.8249V67.4833H1.15182Z" fill="#262626"/>
<path d="M35.7065 83.4488C34.4724 83.4488 33.2383 83.2019 32.3333 82.7082L1.64546 67.0718C0.164546 66.4134 0 65.5082 0 65.0144C0 64.1914 0.575912 63.533 1.56319 62.957L34.1433 46.8268C34.3902 46.6622 34.8015 46.8268 34.8838 47.0737C35.0483 47.3206 34.8838 47.7321 34.637 47.8144L2.1391 64.0268C1.56319 64.356 1.15182 64.6852 1.15182 65.0967C1.15182 65.4259 1.48092 65.8373 2.1391 66.1665L32.827 81.8029C34.3902 82.6259 36.9406 82.6259 38.5038 81.8029L94.8609 53.4928C95.4368 53.1637 95.8482 52.8345 95.8482 52.423C95.8482 52.0938 95.5191 51.6823 94.8609 51.3531L70.4258 39.0909C70.179 38.9263 70.0144 38.5971 70.179 38.3503C70.3435 38.1034 70.6726 37.9388 70.9194 38.1034L95.3545 50.3656C96.7532 51.1062 97 52.0115 96.9177 52.5053C96.9177 53.3282 96.3418 53.9866 95.3545 54.5627L38.9975 82.7905C38.0924 83.2019 36.8584 83.4488 35.7065 83.4488ZM41.6302 77.5235C41.5479 77.5235 41.4656 77.5235 41.3834 77.4412L12.2587 62.6278C12.0119 62.4632 11.8473 62.134 12.0119 61.8871C12.1764 61.6402 12.5055 61.4756 12.7523 61.6402L41.5479 76.289L88.1145 52.9168C88.3613 52.7522 88.7727 52.9168 88.855 53.1637C89.0195 53.4105 88.855 53.822 88.6081 53.9043L41.877 77.4412C41.7947 77.4412 41.7125 77.5235 41.6302 77.5235ZM22.0492 73.4909C21.6378 73.4909 21.3087 73.4086 20.9796 73.244L18.676 72.0919C18.1824 71.845 18.1001 71.5158 18.1001 71.3512C18.1001 71.1866 18.1824 70.8574 18.676 70.6105L20.9796 69.4584C21.5556 69.1292 22.5428 69.1292 23.1187 69.4584L25.4224 70.6105C25.916 70.8574 25.9983 71.1866 25.9983 71.3512C25.9983 71.5158 25.916 71.845 25.4224 72.0919L23.1187 73.244C22.8719 73.4086 22.4606 73.4909 22.0492 73.4909ZM19.7455 71.3512L21.5556 72.2565C21.8024 72.4211 22.4606 72.4211 22.7074 72.2565L24.4351 71.3512L22.7074 70.4459C22.6251 70.3637 22.3783 70.3637 22.1315 70.3637C21.8846 70.3637 21.6378 70.4459 21.5556 70.4459L19.7455 71.3512Z" fill="#262626"/>
<path d="M45.6616 60.9818C45.5793 60.9818 45.4148 60.9818 45.3325 60.8995C45.0857 60.8172 44.8389 60.6526 44.6743 60.1588C44.5921 59.8296 44.6743 59.5004 45.0034 59.4181C45.3325 59.3358 45.6616 59.4181 45.7439 59.7473L48.5412 58.5129C48.5412 58.5129 48.6234 58.5129 48.6234 58.4306C48.6234 58.4306 48.6234 58.4306 48.7057 58.3483L52.2435 53.0813C52.408 52.8344 52.7371 52.7521 52.9839 52.9167L62.8567 57.8545C63.1858 58.0191 63.5971 58.1014 63.844 58.0191C63.9262 58.0191 63.9262 58.0191 63.9262 57.9368C63.9262 57.9368 63.9262 57.9368 64.0085 57.9368L66.8881 56.2908C66.8881 56.2908 66.9703 56.2908 66.9703 56.2086C67.2172 56.044 67.3817 55.7148 67.3817 55.221C67.3817 54.8918 67.6285 54.6449 67.9576 54.6449C68.2867 54.6449 68.5335 54.8918 68.5335 55.221C68.5335 56.1263 68.2044 56.7846 67.5462 57.1961C67.5462 57.1961 67.464 57.1961 67.464 57.2784L64.5021 58.9243C64.4199 59.0066 64.3376 59.0066 64.2553 59.0066H64.173C64.0908 59.0066 64.0085 59.0889 63.9262 59.0889C63.5149 59.1712 62.939 59.2535 62.1985 58.842L52.7371 54.1511L49.4462 59.0066C49.2816 59.2535 49.1171 59.4181 48.9525 59.5004H48.8703L46.073 60.8995H45.9907C45.8262 60.9818 45.7439 60.9818 45.6616 60.9818Z" fill="#262626"/>
<path d="M41.6302 77.5236C41.5479 77.5236 41.4656 77.5236 41.3833 77.4413L12.2587 62.6279C12.0941 62.5456 11.9296 62.2987 11.9296 62.1341C11.9296 61.8872 12.0941 61.7226 12.2587 61.6403L37.8456 48.8843C38.0924 48.7197 38.5038 48.8843 38.5861 49.1312C38.7506 49.3781 38.5861 49.7896 38.3392 49.8719L13.8218 62.1341L41.6302 76.2891L87.1272 53.493L70.7548 45.2633C70.508 45.0987 70.3435 44.7695 70.508 44.5226C70.6726 44.2757 71.0017 44.1111 71.2485 44.2757L88.6081 52.9992C88.7726 53.0815 88.9372 53.3284 88.9372 53.493C88.9372 53.6575 88.8549 53.9044 88.6081 53.9867L41.877 77.4413C41.7947 77.4413 41.7124 77.5236 41.6302 77.5236Z" fill="#262626"/>
<path d="M22.0492 73.4908C21.8024 73.4908 21.391 73.4908 20.9797 73.244L18.676 72.0918C18.1824 71.8449 18.1001 71.5157 18.1001 71.3511C18.1001 71.1865 18.1824 70.8574 18.676 70.6105L20.9797 69.4583C21.5556 69.1291 22.5428 69.1291 23.1188 69.4583L25.4224 70.6105C25.916 70.8574 25.9983 71.1865 25.9983 71.3511C25.9983 71.5157 25.916 71.8449 25.4224 72.0918L23.1188 73.244C22.7897 73.4085 22.296 73.4908 22.0492 73.4908ZM19.7456 71.3511L21.5556 72.2564C21.6378 72.3387 21.8847 72.3387 22.1315 72.3387C22.3783 72.3387 22.6251 72.2564 22.7074 72.2564L24.4351 71.3511L22.7074 70.4459C22.6251 70.3636 22.3783 70.3636 22.1315 70.3636C21.8847 70.3636 21.6378 70.4459 21.5556 70.4459L19.7456 71.3511Z" fill="#E41D2C"/>
<path d="M64.0907 59.1713C64.0085 59.1713 63.9262 59.1713 63.8439 59.089C63.6794 59.0067 63.5971 58.8421 63.5148 58.6775C63.4325 58.4306 63.5971 58.1014 63.8439 58.0191C63.8439 58.0191 63.8439 58.0191 63.9262 58.0191C64.173 57.8545 64.5844 58.0191 64.6666 58.266C64.8312 58.5129 64.7489 58.9244 64.4198 59.0067L64.3375 59.089C64.2553 59.1713 64.173 59.1713 64.0907 59.1713Z" fill="#262626"/>
<path d="M45.8261 60.982C45.6616 60.982 45.497 60.8997 45.4148 60.8174C45.2502 60.5705 45.2502 60.3236 45.3325 60.0767C45.4148 59.9944 45.497 59.9121 45.5793 59.8298C45.5793 59.8298 45.5793 59.8298 45.6616 59.7475L50.6802 52.3408C50.8448 52.0939 51.1739 52.0116 51.4207 52.1762L53.0662 52.9992C53.2307 53.0815 53.313 53.2461 53.3953 53.3284C53.4775 53.493 53.3953 53.6575 53.313 53.8221L49.7752 59.0891C49.6107 59.336 49.4461 59.5006 49.2816 59.5829H49.1993L46.0729 60.8997C45.9907 60.8997 45.9084 60.982 45.8261 60.982ZM51.3384 53.4107L47.5539 58.9245L48.5411 58.5131C48.5411 58.5131 48.6234 58.5131 48.6234 58.4308C48.6234 58.4308 48.6234 58.4308 48.7057 58.3485L51.9143 53.6575L51.3384 53.4107Z" fill="#262626"/>
<path d="M64.3376 59.0067C64.173 59.0067 63.9262 58.9244 63.8439 58.7599C63.6794 58.513 63.7617 58.1838 64.0085 58.0192C64.2553 57.8546 64.4198 57.5254 64.4198 57.0316V23.3723C64.4198 22.1378 63.5148 20.6565 62.4453 20.1627L28.2197 3.04502C27.8083 2.79813 27.3969 2.79813 27.1501 2.96272C26.9856 3.04502 26.7388 3.04502 26.5742 2.96272C26.4097 2.88043 26.3274 2.63354 26.3274 2.46894C26.3274 2.30435 26.4097 2.05746 26.6565 1.97516L29.6183 0.246935C29.6183 0.246935 29.7006 0.246935 29.7006 0.164638C30.3588 -0.164548 31.017 -0.0822518 31.7574 0.246935L65.9008 17.3646C67.3817 18.1053 68.5335 19.9981 68.5335 21.6441V55.3034C68.5335 56.2087 68.2044 56.867 67.5462 57.2785C67.5462 57.2785 67.4639 57.2785 67.4639 57.3608L64.5021 59.0067C64.5021 59.0067 64.4198 59.0067 64.3376 59.0067ZM28.7956 2.05746L62.9389 19.0929C64.4198 19.8335 65.5717 21.7264 65.5717 23.3723V57.0316V57.1139L66.9703 56.3732C66.9703 56.3732 67.0526 56.3732 67.0526 56.291C67.2994 56.1264 67.4639 55.7972 67.4639 55.3034V21.6441C67.4639 20.4096 66.5589 18.9283 65.4894 18.4345L31.2638 1.31679C30.8524 1.1522 30.5233 1.0699 30.1942 1.23449L28.7956 2.05746Z" fill="#262626"/>
<path d="M45.6616 60.982C45.2502 60.982 44.8388 60.6528 44.6743 60.159L39.4911 47.5676L28.2197 41.8891C26.7387 41.1485 25.5869 39.2556 25.5869 37.6097V3.95037C25.5869 3.04511 25.916 2.30444 26.5742 1.97525C27.1501 1.64607 27.9728 1.64607 28.7133 2.05755L62.8566 19.1753C64.3376 19.9159 65.4894 21.8087 65.4894 23.4547V57.114C65.4894 57.937 65.1603 58.6776 64.5844 59.0068C64.5021 59.0891 64.4198 59.0891 64.3376 59.1714C64.2553 59.1714 64.2553 59.2537 64.173 59.2537C63.5971 59.5006 62.9389 59.4183 62.2807 59.0891L51.2561 53.5753L46.5666 60.5705C46.402 60.8174 46.2375 60.8997 46.0729 61.0642C45.9906 60.9819 45.8261 60.982 45.6616 60.982ZM27.5615 2.88052C27.3969 2.88052 27.3146 2.88052 27.1501 2.96281C26.9033 3.12741 26.7387 3.45659 26.7387 3.95037V37.6097C26.7387 38.8442 27.6437 40.3255 28.7133 40.8193L40.2315 46.58C40.3961 46.6623 40.4783 46.7446 40.4783 46.9092L45.6616 59.7475L50.5979 52.4231C50.7625 52.1762 51.0916 52.0939 51.3384 52.2585L62.8566 58.0193C63.1857 58.1839 63.5971 58.2662 63.8439 58.1839C63.8439 58.1839 63.8439 58.1839 63.9262 58.1839C63.9262 58.1839 64.0085 58.1839 64.0085 58.1016C64.2553 57.937 64.4198 57.6078 64.4198 57.114V23.3724C64.4198 22.1379 63.5148 20.6566 62.4453 20.1628L28.2197 3.04511C27.9728 2.96281 27.726 2.88052 27.5615 2.88052ZM52.1611 45.3456C52.1611 45.3456 52.0789 45.3456 52.1611 45.3456L49.2816 45.181C49.1993 45.181 47.3893 45.0164 45.3325 42.7944C44.2629 41.6422 42.5352 39.5025 40.8074 36.2107C39.8202 34.3178 38.9152 32.3427 38.1747 30.203L38.0924 29.8738C37.0229 26.9111 36.3647 24.1954 36.1179 21.891C35.9533 20.1628 36.0356 18.5992 36.3647 17.447C36.9406 15.225 38.8329 15.225 38.9974 15.225L41.7947 15.3896C42.6997 15.4719 43.2756 16.4595 43.3579 16.7064C43.3579 16.7064 43.3579 16.7064 43.3579 16.7887L45.497 22.714C45.6616 23.2078 45.8261 23.8662 45.497 24.3599C45.3325 24.6068 45.0856 24.6891 44.7566 24.6891C44.7566 24.6891 44.7566 24.6891 44.6743 24.6891L42.6997 24.5245C42.4529 24.5245 42.2061 24.5245 41.9593 24.5245C41.5479 24.5245 41.4656 24.6068 41.3834 24.6068C41.3834 24.6068 41.3011 24.6891 41.3834 24.8537C41.3834 25.1006 41.4656 25.4298 41.6302 25.8413L42.0415 26.9111C42.4529 28.1456 42.9465 29.4623 43.4402 30.6968L43.5225 30.8614C43.7693 31.602 44.0984 32.425 44.4275 33.1657C44.5097 33.248 44.5097 33.4126 44.592 33.5772C44.8388 34.2355 45.497 35.7992 46.0729 35.8815C46.0729 35.8815 46.402 35.8815 49.3638 36.1284C49.5284 36.1284 50.4334 36.2107 50.927 37.8566L53.0661 43.782V43.8643C53.0661 44.0288 53.2307 44.6872 52.9016 45.0987C52.737 45.181 52.4902 45.3456 52.1611 45.3456ZM38.9974 16.2126C38.8329 16.2126 37.8456 16.2949 37.4342 17.6116C37.2697 18.3523 37.0229 19.5867 37.2697 21.6442C37.5165 23.8662 38.0924 26.4997 39.162 29.38L39.2443 29.7092C39.9847 31.8489 40.8897 33.8241 41.7947 35.6346C43.5225 38.8442 45.0856 40.8193 46.1552 41.9714C47.8829 43.782 49.3638 44.0288 49.3638 44.0288L51.9966 44.1934C51.9966 44.1111 51.9966 44.1111 51.9966 44.0288L49.8575 38.1035C49.6107 37.4451 49.3638 37.1982 49.2816 37.1159C49.1993 37.1159 48.7879 37.1159 47.6361 37.0336L45.9907 36.9513C44.592 36.869 43.9338 35.0585 43.5225 33.9064C43.4402 33.7418 43.4402 33.6595 43.3579 33.4949C43.0288 32.6719 42.6997 31.9312 42.4529 31.1083L42.3706 30.9437C41.877 29.7092 41.4656 28.3925 40.972 27.158L40.5606 26.0882C40.3961 25.5944 40.3138 25.1006 40.2315 24.7714C40.2315 24.2776 40.3138 23.9485 40.5606 23.7016C40.972 23.2901 41.4656 23.2901 41.9593 23.2901C42.2061 23.2901 42.4529 23.2901 42.782 23.2901L44.5097 23.3724C44.5097 23.2901 44.4275 23.1255 44.3452 22.8786L42.2061 16.9532C42.2061 16.7887 41.9593 16.4595 41.7947 16.4595L38.9974 16.2126Z" fill="#262626"/>
<path d="M52.1612 45.3454C52.1612 45.3454 52.0789 45.3454 52.1612 45.3454L49.2816 45.1808C49.1994 45.1808 47.3893 45.0162 45.3325 42.7942C44.263 41.6421 42.5352 39.5024 40.8075 36.2105C39.8202 34.3177 38.9152 32.3426 38.1747 30.2028L38.0925 29.8737C37.0229 26.911 36.3647 24.1952 36.1179 21.8909C35.9534 20.1627 36.0356 18.599 36.3647 17.4469C36.9406 15.2249 38.8329 15.2249 38.9975 15.2249C38.9975 15.2249 38.9975 15.2249 39.0798 15.2249L41.877 15.3894C42.782 15.4717 43.358 16.4593 43.4402 16.7062C43.4402 16.7062 43.4402 16.7062 43.4402 16.7885L45.5793 22.7138C45.7439 23.2076 45.9084 23.866 45.5793 24.3598C45.4148 24.6067 45.168 24.689 44.8389 24.689C44.8389 24.689 44.8389 24.689 44.7566 24.689L42.782 24.5244C42.5352 24.5244 42.2884 24.5244 42.0416 24.5244C41.6302 24.5244 41.5479 24.6067 41.4657 24.6067C41.4657 24.6067 41.3834 24.689 41.4657 24.8536C41.4657 25.1005 41.5479 25.4296 41.7125 25.8411L42.1239 26.911C42.5352 28.1454 43.0289 29.4622 43.5225 30.6966L43.6048 30.8612C43.8516 31.6019 44.1807 32.4249 44.5098 33.1655C44.5921 33.2478 44.5921 33.4124 44.6743 33.577C44.9211 34.2354 45.5793 35.799 46.1552 35.8813C46.1552 35.8813 46.4021 35.8813 49.4462 36.1282C49.6107 36.1282 50.5157 36.2105 51.0094 37.8564L53.1485 43.7818V43.8641C53.1485 44.0287 53.313 44.6871 52.9839 45.0985C52.7371 45.1808 52.4903 45.3454 52.1612 45.3454ZM52.1612 44.1933V44.7694V44.1933ZM38.9975 16.2124C38.9152 16.2124 37.8457 16.2124 37.4343 17.6115C37.2697 18.3521 37.0229 19.5866 37.2697 21.644C37.5166 23.866 38.0925 26.4995 39.162 29.3799L39.2443 29.7091C39.9848 31.8488 40.8898 33.8239 41.7948 35.6344C43.5225 38.844 45.0857 40.8191 46.1552 41.9713C47.883 43.7818 49.3639 44.0287 49.3639 44.0287L51.9966 44.1933C51.9966 44.111 51.9966 44.111 51.9966 44.0287L49.8575 38.1033C49.6107 37.4449 49.3639 37.1981 49.2816 37.1158C49.1994 37.1158 48.788 37.1158 47.6362 37.0335L45.9907 36.9512C44.5921 36.8689 43.9339 35.0583 43.5225 33.9062C43.4402 33.7416 43.4402 33.6593 43.358 33.4947C43.0289 32.6717 42.6998 31.9311 42.4529 31.1081L42.3707 30.9435C41.877 29.7091 41.4657 28.3923 40.972 27.1579L40.5607 26.088C40.3961 25.5942 40.3138 25.1005 40.2316 24.7713C40.2316 24.2775 40.3138 23.9483 40.5607 23.7014C40.972 23.2899 41.4657 23.2899 41.9593 23.2899C42.2061 23.2899 42.453 23.2899 42.782 23.2899L44.5098 23.3722C44.5098 23.2899 44.4275 23.1253 44.3452 22.8784L42.2061 16.9531C42.2061 16.7885 41.9593 16.4593 41.7948 16.4593L38.9975 16.2124Z" fill="#E41D2C"/>
</g>
<defs>
<clipPath id="clip0">
<rect width="97" height="86" fill="white"/>
</clipPath>
</defs>
</svg>
