<svg width="12" height="18" viewBox="0 0 12 18" fill="none" xmlns="http://www.w3.org/2000/svg">
<path d="M1.78882 18H10.0062C10.9565 18 11.795 17.2174 11.795 16.2112V1.78882C11.7391 0.782609 10.9565 0 10.0062 0H1.78882C0.782609 0 0 0.782609 0 1.78882V16.2671C0 17.2174 0.782609 18 1.78882 18ZM1.78882 1.78882H10.0062V16.2671H1.78882V1.78882ZM6.54037 12.8571C6.70807 13.0248 6.81987 13.3043 6.81987 13.528C6.81987 13.8075 6.70807 14.0311 6.54037 14.1988C6.37267 14.3665 6.09317 14.4783 5.86956 14.4783C5.59006 14.4783 5.36646 14.3665 5.19876 14.1988C5.03106 14.0311 4.91925 13.7516 4.91925 13.528C4.91925 13.2484 5.03106 13.0248 5.19876 12.8571C5.53416 12.4658 6.20497 12.4658 6.54037 12.8571Z" fill="#E41D2C"/>
</svg>
