<svg width="16" height="16" viewBox="0 0 16 16" fill="none" xmlns="http://www.w3.org/2000/svg">
<path d="M8 0C3.57812 0 0 3.57812 0 8C0 12.4219 3.57812 16 8 16C12.4219 16 16 12.4219 16 8C16 3.57812 12.4219 0 8 0Z" fill="#E41D2C"/>
<path d="M8 12.6094C8.43147 12.6094 8.78125 12.2596 8.78125 11.8281C8.78125 11.3967 8.43147 11.0469 8 11.0469C7.56853 11.0469 7.21875 11.3967 7.21875 11.8281C7.21875 12.2596 7.56853 12.6094 8 12.6094Z" fill="white"/>
<path d="M8 4.01562C6.62188 4.01562 5.5 5.1375 5.5 6.51562C5.5 6.85938 5.78125 7.14062 6.125 7.14062C6.46875 7.14062 6.75 6.85938 6.75 6.51562C6.75 5.825 7.30938 5.26562 8 5.26562C8.69062 5.26562 9.25 5.825 9.25 6.51562C9.25 7.20625 8.69062 7.76562 8 7.76562C7.65625 7.76562 7.375 8.04688 7.375 8.39062V9.95312C7.375 10.2969 7.65625 10.5781 8 10.5781C8.34375 10.5781 8.625 10.2969 8.625 9.95312V8.9375C9.70312 8.65938 10.5 7.67812 10.5 6.51562C10.5 5.1375 9.37812 4.01562 8 4.01562Z" fill="white"/>
</svg>
