<svg width="64" height="92" viewBox="0 0 64 92" fill="none" xmlns="http://www.w3.org/2000/svg">
<path fill-rule="evenodd" clip-rule="evenodd" d="M0.599998 64.6708V55.7708C0.599998 48.6708 9.4 46.0708 15.4 45.5708C15.9 46.5708 16.4 47.6708 17 48.6708L17.2 48.9708C15.6 52.7708 21.2 58.2708 27 60.3708C31.2 61.9708 35.8 61.3708 39.9 59.7708C44.3 58.0708 47 55.6708 46.5 53.4708C49.5 57.3708 53.7 60.3708 57.1 63.9708C60.1 67.3708 62.5 70.4708 63 75.0708V75.8708C63 78.2708 63 80.6708 63 83.0708C63 85.7708 62.7 86.4708 59.8 88.1708C37.2 101.171 0.599998 69.8708 0.599998 64.6708Z" fill="white"/>
<path fill-rule="evenodd" clip-rule="evenodd" d="M46.9 55.0709C48.5 56.8709 50.3 58.5708 52.1 60.1708C53.6 61.5708 55.2 62.9709 56.6 64.4709C59.3 67.5709 61.8 70.6708 62.3 75.2708V76.0709V83.2708C62.3 85.6708 62.1 86.1708 59.4 87.7708C46.9 94.9708 30.5 87.6708 21.9 82.6708C9.8 75.6708 1.2 66.7708 1.2 64.6708V55.7709C1.2 48.1709 11.9 46.5709 15 46.2709C15.5 47.1709 15.9 48.0709 16.4 48.9709V49.0709C16 50.1709 16.1 51.3709 16.7 52.7709C18.1 55.9709 22.2 59.4708 26.6 61.0709C30.6 62.5709 35.1 62.3709 40 60.4709C43.8 58.8709 46.2 56.9708 46.9 55.0709ZM47.4 91.9709C51.7 91.9709 56 91.0708 60 88.7708C62.9 87.0708 63.5 86.1708 63.5 83.1708V75.0709C63 70.0709 60.4 66.7709 57.5 63.5709C56.1 61.9708 54.5 60.5708 52.9 59.1708C50.8 57.2708 48.6 55.2709 46.9 53.0709C46.7 52.8709 46.4 52.7708 46.2 52.8708C45.9 52.9708 45.8 53.2709 45.9 53.5709C46.2 55.3709 43.8 57.5708 39.7 59.1708C35.1 60.9708 30.9 61.1709 27.2 59.7709C23.1 58.2709 19.3 55.0709 18 52.0709C17.5 50.9709 17.5 49.9709 17.8 49.0709C17.9 48.8709 17.9 48.6709 17.8 48.5709L17.6 48.2709C17.1 47.2709 16.5 46.2708 16 45.1708C15.9 44.9708 15.6 44.8708 15.4 44.8708C8 45.4708 0 48.6708 0 55.6708V64.5709C0 67.6709 9.5 76.8708 21.3 83.6708C27.4 87.2708 37.4 91.9709 47.4 91.9709Z" fill="#262626"/>
<path fill-rule="evenodd" clip-rule="evenodd" d="M0.599899 64.6707V55.7708C0.599899 49.3708 7.7999 46.6708 13.5999 45.7708C11.4999 48.3708 12.0999 52.5708 13.5999 55.3708C17.1999 61.9708 25.6999 66.3708 33.1999 66.0708C38.7999 65.7708 47.3999 62.8708 50.1999 57.6707C52.4999 59.7708 54.8999 61.7708 56.9999 64.0708C60.1999 67.6708 62.6999 71.0708 62.8999 76.0708C62.8999 78.4708 62.8999 80.8707 62.8999 83.2707C62.8999 85.9707 62.5999 86.6708 59.6999 88.3708C37.1999 101.171 0.599899 69.8708 0.599899 64.6707Z" fill="white"/>
<path fill-rule="evenodd" clip-rule="evenodd" d="M50.3 58.5706C50.9 59.0706 51.5 59.6706 52 60.1706C53.5 61.5706 55.1 62.9706 56.5 64.4706C59.4 67.7706 62.1 71.0706 62.3 76.0706V83.2706C62.3 85.6706 62.1 86.1706 59.4 87.7706C46.9 94.9706 30.5 87.6706 21.9 82.6706C9.8 75.6706 1.2 66.7706 1.2 64.6706V55.7706C1.2 49.6706 8.2 47.4706 12.3 46.6706C11 49.3706 11.6 53.0706 13 55.6706C16.6 62.2706 25.3 67.0706 33.2 66.6706C38.4 66.3706 47 63.6706 50.3 58.5706ZM47.4 91.9706C51.7 91.9706 56 91.0706 60 88.7706C62.9 87.0706 63.5 86.1706 63.5 83.1706V75.9706C63.3 70.5706 60.5 67.0706 57.5 63.5706C56.1 61.9706 54.5 60.5706 52.9 59.1706C52.1 58.4706 51.4 57.7706 50.6 57.0706C50.5 56.9706 50.3 56.8706 50.1 56.8706C49.9 56.8706 49.7 56.9706 49.6 57.1706C46.8 62.2706 38.1 64.9706 33.1 65.2706C25.7 65.6706 17.5 61.2706 14.1 55.0706C12.7 52.4706 12.2 48.4706 14 46.1706C14.2 45.9706 14.2 45.6706 14.1 45.4706C14 45.2706 13.7 45.0706 13.5 45.1706C9.4 45.7706 0 47.9706 0 55.7706V64.6706C0 67.7706 9.5 76.9706 21.3 83.7706C27.4 87.2706 37.4 91.9706 47.4 91.9706Z" fill="#262626"/>
<path fill-rule="evenodd" clip-rule="evenodd" d="M46.4001 53.4708C45.9001 52.8708 44.6001 51.4708 44.2001 50.8708C43.5001 49.6708 43.5001 49.1708 43.3001 47.7708C37.1001 54.8708 22.6001 59.0708 17.0001 48.9708C15.4001 52.7708 21.0001 58.2708 26.8001 60.3708C31.0001 61.9708 35.6001 61.3708 39.7001 59.7708C44.2001 58.0708 46.8001 55.6708 46.4001 53.4708Z" fill="white"/>
<path fill-rule="evenodd" clip-rule="evenodd" d="M45.8001 53.7707C46.0001 55.5707 43.6001 57.6707 39.5001 59.1707C34.9001 60.9707 30.7001 61.1707 27.0001 59.7707C22.9001 58.2707 19.1001 55.0707 17.8001 52.0707C17.6001 51.5707 17.4001 51.0707 17.4001 50.5707C19.4001 53.3707 22.4001 55.0707 26.0001 55.4707C31.7001 56.0707 38.5001 53.3707 42.8001 49.0707C42.9001 49.6707 43.1001 50.2707 43.6001 51.0707C43.8001 51.4707 44.4001 52.1707 45.0001 52.8707C45.4001 53.2707 45.6001 53.5707 45.8001 53.7707ZM32.1001 61.9707C34.6001 61.9707 37.2001 61.4707 40.0001 60.3707C44.9001 58.4707 47.5001 55.8707 47.0001 53.3707C47.0001 53.2707 46.9001 53.1707 46.9001 53.0707C46.7001 52.8707 46.4001 52.4707 46.1001 52.1707C45.6001 51.5707 45.0001 50.8707 44.8001 50.5707C44.2001 49.5707 44.2001 49.1707 44.1001 48.1707V47.7707C44.1001 47.5707 43.9001 47.2707 43.7001 47.2707C43.5001 47.1707 43.2001 47.2707 43.0001 47.4707C39.0001 52.0707 32.0001 54.9707 26.3001 54.4707C22.5001 54.0707 19.5001 52.0707 17.7001 48.7707C17.6001 48.5707 17.3001 48.3707 17.0001 48.4707C16.8001 48.5707 16.6001 48.6707 16.6001 48.8707C16.1001 50.0707 16.2001 51.3707 16.8001 52.7707C18.2001 55.9707 22.3001 59.3707 26.7001 61.0707C28.4001 61.6707 30.2001 61.9707 32.1001 61.9707Z" fill="#262626"/>
<path fill-rule="evenodd" clip-rule="evenodd" d="M20.4999 53.8708C18.1999 51.6708 16.2999 47.5708 14.3999 43.7708C11.8999 38.6708 11.9999 32.8708 11.9999 28.1708L12.8999 25.3708C13.1999 24.1708 13.1999 22.9708 13.1999 21.8708C13.1999 20.3708 13.2999 18.9708 13.9999 18.1708C15.2999 17.0708 17.1999 18.7708 19.5999 20.8708C21.1999 22.2708 22.8999 23.7708 24.7999 24.8708C26.6999 25.9708 28.3999 26.4708 29.9999 26.8708C31.4999 27.2708 32.8999 27.6708 33.9999 28.5708C35.6999 30.0708 35.6999 31.2708 35.5999 33.3708C35.5999 35.3708 35.4999 37.3708 36.6999 41.5708C36.7999 40.5708 37.0999 39.6708 37.3999 38.7708C37.9999 37.1708 39.2999 35.2708 41.1999 35.2708C44.2999 35.2708 45.1999 39.1708 44.6999 41.5708C44.3999 42.9708 43.5999 44.6708 42.8999 45.8708C42.6999 46.2708 42.9999 47.3708 43.0999 47.8708C38.5999 52.9708 32.1999 56.3708 26.9999 56.3708C24.8999 56.3708 22.1999 55.4708 20.4999 53.8708Z" fill="white"/>
<path fill-rule="evenodd" clip-rule="evenodd" d="M42.6001 47.6707C38.2001 52.4707 32.1001 55.6707 27.2001 55.6707C24.9001 55.6707 22.4001 54.6707 20.9001 53.2707C18.8001 51.2707 17.0001 47.5707 15.3001 44.0707L14.9001 43.3707C12.6001 38.6707 12.6001 33.2707 12.6001 28.8707V28.1707L13.5001 25.5707C13.8001 24.2707 13.9001 22.9707 13.9001 21.8707C13.9001 20.4707 14.0001 19.1707 14.5001 18.6707C15.4001 17.8707 17.2001 19.5707 19.2001 21.3707C20.8001 22.7707 22.6001 24.3707 24.5001 25.4707C26.4001 26.5707 28.2001 27.0707 29.8001 27.4707C29.8001 27.4707 29.8001 27.4707 29.9001 27.4707C31.4001 27.8707 32.7001 28.1707 33.7001 29.0707C35.2001 30.2707 35.2001 31.1707 35.1001 33.1707V33.6707C35.1001 35.5707 35.1001 37.6707 36.2001 41.7707C36.3001 42.0707 36.5001 42.2707 36.8001 42.1707C37.1001 42.1707 37.3001 41.9707 37.4001 41.6707C37.5001 40.6707 37.7001 39.7707 38.0001 38.9707C38.3001 38.2707 39.3001 35.7707 41.3001 35.7707C42.1001 35.7707 42.8001 36.0707 43.3001 36.7707C44.3001 37.9707 44.4001 40.0707 44.1001 41.3707C43.9001 42.4707 43.3001 43.8707 42.4001 45.4707C42.5001 45.6707 42.2001 46.1707 42.6001 47.6707ZM27.2001 56.9707C32.5001 56.9707 39.1001 53.4707 43.7001 48.2707C43.8001 48.0707 43.9001 47.8707 43.8001 47.6707C43.5001 46.7707 43.5001 46.2707 43.5001 46.0707C44.4001 44.2707 45.0001 42.8707 45.3001 41.6707C45.7001 40.0707 45.5001 37.5707 44.2001 35.9707C43.5001 35.0707 42.5001 34.5707 41.2001 34.5707C38.5001 34.5707 37.2001 37.3707 36.8001 38.5707C36.7001 38.6707 36.7001 38.8707 36.7001 38.9707C36.2001 36.5707 36.2001 35.1707 36.2001 33.7707V33.2707C36.2001 31.2707 36.3001 29.8707 34.3001 28.1707C33.1001 27.1707 31.6001 26.7707 30.1001 26.3707C28.5001 25.9707 26.9001 25.4707 25.1001 24.4707C23.3001 23.3707 21.5001 21.8707 20.0001 20.5707C17.5001 18.3707 15.3001 16.3707 13.6001 17.8707C12.6001 18.7707 12.6001 20.3707 12.6001 21.9707C12.6001 23.0707 12.6001 24.2707 12.3001 25.3707L11.4001 28.1707C11.4001 28.2707 11.4001 28.2707 11.4001 28.3707V29.1707C11.4001 33.6707 11.5001 39.2707 13.9001 44.1707L14.3001 44.8707C16.0001 48.4707 17.9001 52.1707 20.1001 54.3707C21.8001 55.9707 24.6001 56.9707 27.2001 56.9707Z" fill="#262626"/>
<path fill-rule="evenodd" clip-rule="evenodd" d="M48.9999 15.4707C53.0999 23.0707 50.4999 43.6707 43.3999 48.1707C43.2999 47.7707 42.7999 46.2707 42.9999 45.7707C43.5999 44.5707 44.3999 42.8707 44.7999 41.4707C46.2999 34.6707 38.1999 31.4707 36.7999 41.4707C35.5999 37.2707 35.6999 35.2707 35.6999 33.2707C35.6999 31.1707 35.7999 29.9707 34.0999 28.4707C32.9999 27.5707 31.5999 27.1707 30.0999 26.7707C28.4999 26.3707 26.7999 25.8707 24.8999 24.7707C22.9999 23.6707 21.2999 22.1707 19.6999 20.7707C17.3999 18.6707 15.3999 16.9707 14.0999 18.0707C13.2999 18.7707 13.2999 20.1707 13.2999 21.7707C13.2999 22.9707 13.2999 24.1707 12.9999 25.2707L12.0999 28.0707C11.8999 24.3707 11.8999 20.1707 12.3999 16.6707C13.3999 9.97066 16.3999 9.67066 24.6999 5.27066C25.9999 4.57066 27.6999 3.37066 30.2999 3.37066C36.5999 3.27066 45.8999 10.4707 48.9999 15.4707Z" fill="white"/>
<path fill-rule="evenodd" clip-rule="evenodd" d="M48.5001 15.7708C52.3001 22.8708 50.1001 41.9708 43.8001 47.1708C43.7001 46.6708 43.6001 46.2708 43.7001 46.0708C44.6001 44.2708 45.2001 42.8708 45.5001 41.6708C46.1001 39.1708 45.5001 36.8708 44.0001 35.5708C42.9001 34.6708 41.5001 34.3708 40.3001 34.8708C39.4001 35.1708 37.9001 36.1708 37.0001 38.9708C36.5001 36.6708 36.5001 35.1708 36.5001 33.7708V33.2708C36.5001 31.2708 36.6001 29.8708 34.6001 28.1708C33.4001 27.1708 31.9001 26.7708 30.4001 26.3708C28.8001 25.9708 27.2001 25.4708 25.4001 24.4708C23.6001 23.3708 21.8001 21.8708 20.3001 20.5708C17.8 18.3708 15.6001 16.3708 13.9001 17.8708C12.9001 18.7708 12.9001 20.3708 12.9001 21.9708C12.9001 22.6708 12.9001 23.3708 12.8001 24.0708C12.8001 21.5708 13.0001 19.0708 13.3001 16.9708C14.1001 11.6708 16.1001 10.6708 21.6 7.97078C22.7001 7.37078 23.9001 6.77078 25.3001 6.07078L25.9001 5.77078C27.1001 5.07078 28.6001 4.27078 30.7001 4.17078C36.4001 3.77078 45.5001 11.0708 48.5001 15.7708ZM43.4001 48.7708C43.5001 48.7708 43.6001 48.7708 43.7001 48.6708C51.1001 44.0708 53.8001 23.0708 49.6001 15.1708C46.4001 10.0708 36.9001 2.67078 30.4001 2.77078C28.0001 2.87078 26.3001 3.77078 25.1 4.47078L24.5001 4.77078C23.1001 5.47078 21.9001 6.17078 20.8001 6.67078C15.3 9.47078 12.8001 10.6708 11.9001 16.6708C11.4001 19.9708 11.3001 24.1708 11.6001 28.1708C11.6001 28.4708 11.8001 28.6708 12.1001 28.7708C12.4001 28.7708 12.7001 28.5708 12.8001 28.3708L13.5001 25.5708C13.8001 24.2708 13.9001 22.9708 13.9001 21.8708C13.9001 20.4708 14.0001 19.1708 14.5001 18.6708C15.4001 17.8708 17.2001 19.5708 19.2001 21.3708C20.8001 22.7708 22.6001 24.3708 24.5001 25.4708C26.4001 26.5708 28.2001 27.0708 29.8001 27.4708C29.8001 27.4708 29.8001 27.4708 29.9001 27.4708C31.4001 27.8708 32.7001 28.1708 33.7001 29.0708C35.2001 30.2708 35.2001 31.1708 35.1001 33.1708V33.6708C35.1001 35.5708 35.1001 37.6708 36.2001 41.7708C36.3001 42.0708 36.5001 42.2708 36.8001 42.1708C37.1001 42.1708 37.3001 41.9708 37.4001 41.6708C37.8001 38.6708 39.0001 36.5708 40.5001 35.9708C41.3001 35.6708 42.3001 35.8708 43.0001 36.4708C43.9001 37.2708 44.7001 38.9708 44.2001 41.3708C44.0001 42.4708 43.4001 43.8708 42.5001 45.4708C42.0001 46.2708 42.8001 48.2708 42.8001 48.3708C42.9001 48.5708 43.0001 48.6708 43.2001 48.7708C43.3001 48.7708 43.4001 48.7708 43.4001 48.7708Z" fill="#262626"/>
<path fill-rule="evenodd" clip-rule="evenodd" d="M31.9001 35.3709C28.5001 31.0709 28.8001 29.2709 23.6001 26.2709C17.8001 22.9709 13.3001 20.8709 10.2001 21.7709C10.0001 12.0709 13.5001 5.07091 22.1001 2.17091C30.7001 -0.829092 39.1001 0.670908 46.3001 6.17091C52.0001 10.4709 56.1001 23.6709 52.1001 31.3709C49.1001 34.1709 42.7001 37.1709 38.5001 37.0709C35.4001 36.8709 32.7001 36.1709 31.9001 35.3709Z" fill="white"/>
<path fill-rule="evenodd" clip-rule="evenodd" d="M51.6001 30.8707C48.7001 33.5707 42.5001 36.5707 38.5001 36.3707C35.4001 36.2707 33.0001 35.5707 32.4001 34.9707C31.4001 33.6707 30.7001 32.5707 30.1001 31.6707C28.7001 29.4707 27.7001 27.8707 24.0001 25.7707C18.3001 22.4707 14.0001 20.5707 10.9001 21.0707C10.9001 11.3707 14.7001 5.47072 22.4001 2.77072C30.7001 -0.129282 38.9001 1.27072 46.0001 6.67072C51.6001 10.8707 55.4001 23.6707 51.6001 30.8707ZM38.8001 37.5707C43.3001 37.5707 49.6001 34.5707 52.5001 31.6707C52.6001 31.6707 52.6001 31.5707 52.6001 31.4707C56.8001 23.5707 52.8001 10.1707 46.7001 5.57072C39.2001 -0.0292821 30.7001 -1.42928 21.9001 1.47072C13.5001 4.37072 9.4001 11.1707 9.5001 21.6707C9.5001 21.8707 9.6001 22.0707 9.8001 22.1707C10.0001 22.2707 10.2001 22.2707 10.3001 22.2707C13.1001 21.3707 17.5001 23.3707 23.2001 26.6707C26.6001 28.5707 27.5001 30.0707 28.9001 32.1707C29.5001 33.1707 30.2001 34.2707 31.3001 35.6707C31.3001 35.6707 31.3001 35.6707 31.3001 35.7707C32.4001 36.8707 35.6001 37.4707 38.3001 37.5707C38.5001 37.5707 38.7001 37.5707 38.8001 37.5707Z" fill="#E41D2C"/>
<path fill-rule="evenodd" clip-rule="evenodd" d="M52.1 31.2709C49.2 33.9709 43.1 36.9709 38.8 36.9709C33.4 28.6709 42.6 15.6709 52.6 16.3709C54 21.0709 54.4 26.8709 52.1 31.2709Z" fill="white"/>
<path fill-rule="evenodd" clip-rule="evenodd" d="M51.6001 30.8707C48.9001 33.3707 43.3001 36.1707 39.1001 36.2707C37.1001 32.9707 37.4001 28.6707 39.8001 24.5707C42.6001 19.8707 47.5001 16.7707 52.1001 16.9707C53.6001 22.2707 53.4001 27.4707 51.6001 30.8707ZM38.8001 37.5707C43.3001 37.5707 49.5001 34.4707 52.5001 31.6707C52.6001 31.6707 52.6001 31.5707 52.6001 31.4707C55.6001 25.8707 54.0001 18.8707 53.2001 16.1707C53.1001 15.9707 52.9001 15.7707 52.6001 15.7707C47.5001 15.3707 41.9001 18.6707 38.7001 23.9707C36.0001 28.5707 35.8001 33.5707 38.2001 37.3707C38.4001 37.4707 38.6001 37.5707 38.8001 37.5707Z" fill="#E41D2C"/>
<path fill-rule="evenodd" clip-rule="evenodd" d="M9.59995 46.6708C10.7999 46.3708 11.8999 46.0708 13.0999 45.8708C12.7999 46.2708 12.5 46.7708 12.2 47.1708C11.5 48.1708 11 50.1708 10.7 52.1708C10.1 56.3708 10.2999 61.2709 10.2999 65.9709C10.2999 66.3709 10.5999 66.9708 11 67.1708L36.2999 81.7708C36.6999 81.9708 37 81.8709 37 81.3709C39.8 67.7709 43.6 65.7709 52 59.2709C52.9 60.0709 53.8 60.8708 54.7 61.6708C44.8 72.9708 44.3 70.1708 44.6 91.2708C28.3 89.8708 10.3999 76.7708 3.59995 69.2708C4.49995 61.1708 5.99995 51.4709 9.59995 46.7709V46.6708Z" fill="white"/>
<path fill-rule="evenodd" clip-rule="evenodd" d="M36.5 81.2708L37 81.5708L36.4 81.3708C36.3 81.3708 36.4 81.3708 36.5 81.2708ZM53.8 61.6708C53.2 61.1708 52.6 60.5708 52 60.0708L51.9 59.9708L50.6 60.9708C43.4 66.4708 40.1 68.9708 37.5 81.2708C37.5 81.6708 37.3 82.0708 37 82.2708C36.7 82.4708 36.3 82.4708 35.9 82.1708L10.6 67.5708C10 67.2708 9.6 66.4708 9.6 65.8708C9.6 64.8708 9.6 63.9708 9.6 62.9708C9.6 59.2708 9.5 55.3708 10.1 51.9708C10.4 50.1708 10.9 47.8708 11.7 46.6708L11.8 46.5708C11.2 46.6708 10.6 46.8708 10 47.0708C6.4 51.7708 4.9 61.7708 4.2 68.8708C11.7 76.9708 28.7 88.8708 44 90.4708C43.8 72.7708 44.2 72.1708 50.7 65.1708C51.6 64.2708 52.6 63.0708 53.8 61.6708ZM44.5 91.8708C44.7 91.8708 44.8 91.7708 44.9 91.6708C45 91.5708 45.1 91.3708 45.1 91.1708C44.9 73.2708 45.1 72.9708 51.5 65.9708C52.5 64.8708 53.7 63.5708 55.1 61.9708C55.3 61.7708 55.3 61.3708 55.1 61.0708C54.4 60.3708 53.6 59.6708 52.9 59.0708L52.4 58.6708C52.2 58.4708 51.8 58.4708 51.6 58.6708L49.9 59.9708C42.7 65.4708 39.1 68.2708 36.4 81.0708L11.3 66.5708C11.1 66.4708 10.9 66.0708 10.9 65.8708C10.9 64.8708 10.9 63.9708 10.9 62.9708C10.9 59.2708 10.8 55.4708 11.3 52.1708C11.7 49.8708 12.2 48.1708 12.7 47.3708C13 46.8708 13.3 46.4708 13.6 46.0708C13.7 45.8708 13.7 45.5708 13.6 45.3708C13.5 45.1708 13.2 45.0708 13 45.0708C11.7 45.2708 10.5 45.5708 9.4 45.8708C9.3 45.8708 9.2 45.9708 9.1 46.0708L9 46.1708C5.1 51.1708 3.6 61.5708 2.9 68.9708C2.9 69.1708 2.9 69.3708 3.1 69.4708C10.7 78.0708 28.6 90.4708 44.5 91.8708Z" fill="#262626"/>
<path fill-rule="evenodd" clip-rule="evenodd" d="M9.59995 46.6708C10.7999 46.3708 11.8999 46.0708 13.0999 45.8708C12.7999 46.2708 12.5 46.7708 12.2 47.1708C11.5 48.1708 11 50.1708 10.7 52.1708C10.1 56.3708 10.2999 61.2709 10.2999 65.9709C10.2999 66.3709 10.5999 66.9708 11 67.1708L36.2999 81.7708C36.6999 81.9708 37 81.8709 37 81.3709C39.8 67.7709 43.6 65.7709 52 59.2709C52.9 60.0709 53.8 60.8708 54.7 61.6708C44.8 72.9708 44.3 70.1708 44.6 91.2708C28.3 89.8708 10.3999 76.7708 3.59995 69.2708C4.49995 61.1708 5.99995 51.4709 9.59995 46.7709V46.6708Z" fill="white"/>
<path fill-rule="evenodd" clip-rule="evenodd" d="M36.5 81.2708L37 81.5708L36.4 81.3708C36.3 81.3708 36.4 81.3708 36.5 81.2708ZM53.8 61.6708C53.2 61.1708 52.6 60.5708 52.1 60.0708L52 59.9708L50.7 60.9708C43.5 66.4708 40.2 68.9708 37.6 81.2708C37.6 81.6708 37.4 82.0708 37.1 82.2708C36.8 82.4708 36.4 82.4708 36 82.1708L10.7 67.5708C10.1 67.2708 9.7 66.4708 9.7 65.8708C9.7 64.8708 9.7 63.9708 9.7 62.9708C9.7 59.2708 9.6 55.3708 10.2 51.9708C10.5 50.1708 11 47.8708 11.8 46.6708L11.9 46.5708C11.3 46.6708 10.7 46.8708 10.1 47.0708C6.5 51.7708 5 61.7708 4.3 68.8708C11.8 76.9708 28.8 88.8708 44.1 90.4708C43.9 72.7708 44.3 72.1708 50.8 65.1708C51.6 64.2708 52.6 63.0708 53.8 61.6708ZM44.5 91.8708C44.7 91.8708 44.8 91.7708 44.9 91.6708C45 91.5708 45.1 91.3708 45.1 91.1708C44.9 73.2708 45.1 72.9708 51.5 65.9708C52.5 64.8708 53.7 63.5708 55.1 61.9708C55.3 61.7708 55.3 61.3708 55.1 61.0708C54.4 60.3708 53.6 59.6708 52.9 59.0708L52.4 58.6708C52.2 58.4708 51.8 58.4708 51.6 58.6708L49.9 59.9708C42.7 65.4708 39.1 68.2708 36.4 81.0708L11.3 66.5708C11.1 66.4708 10.9 66.0708 10.9 65.8708C10.9 64.8708 10.9 63.9708 10.9 62.9708C10.9 59.2708 10.8 55.4708 11.3 52.1708C11.7 49.8708 12.2 48.1708 12.7 47.3708C13 46.8708 13.3 46.4708 13.6 46.0708C13.7 45.8708 13.7 45.5708 13.6 45.3708C13.5 45.1708 13.2 45.0708 13 45.0708C11.7 45.2708 10.5 45.5708 9.4 45.8708C9.3 45.8708 9.2 45.9708 9.1 46.0708L9 46.1708C5.1 51.1708 3.6 61.5708 2.9 68.9708C2.9 69.1708 2.9 69.3708 3.1 69.4708C10.7 78.0708 28.6 90.4708 44.5 91.8708Z" fill="#262626"/>
<path fill-rule="evenodd" clip-rule="evenodd" d="M15.3 23.3706C14.5 23.3706 13.8 23.3706 13.2 23.5706C13.1 13.7706 17.5 6.57064 25.6 3.57064C32.4 1.07064 39 1.77064 45 5.37064C39.6 2.77064 33.7 2.57064 27.7 4.77064C20 7.57064 15.6 14.2706 15.3 23.3706Z" fill="white"/>
<path fill-rule="evenodd" clip-rule="evenodd" d="M14.7 22.7708C14.4 22.7708 14.1 22.7708 13.8 22.8708C13.9 13.7708 18.2 6.97084 25.7 4.17084C28.4 3.17084 31 2.67084 33.6 2.67084H33.7C31.6 2.87084 29.5 3.37084 27.4 4.17084C19.8 6.97084 15.2 13.7708 14.7 22.7708ZM13.2 24.1708C13.2999 24.1708 13.3 24.1708 13.4 24.1708C13.9 23.9708 14.5 23.9708 15.3 23.9708C15.5 23.9708 15.6 23.8708 15.7 23.7708C15.8 23.6708 15.9 23.4708 15.9 23.3708C16.2 14.4708 20.4 8.07084 27.8 5.27084C33.6 3.17084 39.3 3.37084 44.7 5.87084C45 6.07084 45.4 5.87084 45.5 5.57084C45.7 5.27084 45.6 4.97084 45.3 4.77084C39.1 1.07084 32.2 0.470837 25.3 2.97084C17.1 5.97084 12.3999 13.4708 12.5999 23.5708C12.5999 23.7708 12.7 23.9708 12.9 24.0708C12.9 24.1708 13.1 24.1708 13.2 24.1708Z" fill="#E41D2C"/>
<path fill-rule="evenodd" clip-rule="evenodd" d="M24.6 26.8708C24.7 17.8708 28.9 11.1708 36.4 8.37081C40.3 7.07081 44 6.67081 47.6 7.27081C47.9 7.57081 48.2 7.87081 48.5 8.17081C45.3 7.77081 41.9 8.27081 38.5 9.47081C31.1 12.1708 26.9 19.4708 26.7 28.1708C26.6 28.1708 24.9 27.0708 24.6 26.8708Z" fill="white"/>
<path fill-rule="evenodd" clip-rule="evenodd" d="M43.7 7.57078C41.9 7.77078 40.1 8.27078 38.2 8.87078C31.1 11.4708 26.6 18.1708 26 26.9708C25.7 26.7708 25.4 26.5708 25.1 26.4708C25.4 17.8708 29.5 11.6708 36.7 8.97078C39 8.17078 41.4 7.67078 43.7 7.57078ZM26.6 28.7708C26.8 28.7708 26.9 28.6708 27 28.5708C27.1 28.4708 27.2 28.2708 27.2 28.1708C27.5 19.3708 31.8 12.6708 38.7 10.0708C42 8.87078 45.2 8.37078 48.4 8.77078C48.6 8.77078 48.9 8.67078 49 8.47078C49.1 8.27078 49.1 7.97078 48.9 7.77078C48.6 7.37078 48.3 7.07078 48 6.77078C47.9 6.67078 47.8 6.57078 47.7 6.57078C43.9 5.97078 40.1 6.37078 36.2 7.77078C28.5 10.5708 24.1 17.5708 24 26.7708C24 26.9708 24.1 27.1708 24.3 27.2708L24.6 26.7708L24.4 27.3708C26.4 28.7708 26.4 28.7708 26.6 28.7708Z" fill="#E41D2C"/>
<path fill-rule="evenodd" clip-rule="evenodd" d="M5.20005 26.1707C5.50005 26.1707 5.80005 26.1707 6.20005 26.1707C6.60005 26.1707 7.00005 26.2707 7.40005 26.2707C8.80005 26.4707 10.4001 26.9707 12.2001 27.6707C14 28.3707 16 29.3707 18 30.4707C20.1 31.6707 22.2001 33.0707 24.2001 34.5707C25.6001 35.6707 26.9 36.7707 28.1 37.8707L30.3 36.5707C28.9 35.1707 27.3001 33.8707 25.7001 32.5707C23.6001 30.9707 21.4001 29.5707 19.2001 28.2707C17.1 27.0707 15.1 26.0707 13.1 25.2707C11.2 24.4707 9.40005 23.9707 7.80005 23.6707C7.30005 23.5707 6.80005 23.5707 6.30005 23.4707C5.80005 23.4707 5.40005 23.4707 4.90005 23.4707L5.20005 26.1707Z" fill="white"/>
<path fill-rule="evenodd" clip-rule="evenodd" d="M29.2999 36.4708L28.1999 37.0708C27.0999 36.0708 25.8999 34.9708 24.5999 34.0708C22.5999 32.5708 20.4999 31.1708 18.2999 29.8708C16.2999 28.6708 14.2999 27.7708 12.4999 26.9708C10.6999 26.2708 8.9999 25.7708 7.5999 25.5708C7.0999 25.4708 6.6999 25.4708 6.2999 25.4708C6.0999 25.4708 5.9999 25.4708 5.7999 25.4708L5.6999 24.2708C5.8999 24.2708 6.0999 24.2708 6.3999 24.2708C6.8999 24.2708 7.2999 24.3708 7.7999 24.3708C9.2999 24.5708 11.0999 25.1708 12.9999 25.8708C14.8999 26.6708 16.8999 27.6708 18.9999 28.7708C21.1999 30.0708 23.3999 31.4708 25.3999 32.9708C26.6999 34.2708 28.0999 35.3708 29.2999 36.4708ZM28.0999 38.4708C28.1999 38.4708 28.2999 38.4708 28.3999 38.3708L30.5999 37.1708C30.7999 37.0708 30.8999 36.8708 30.8999 36.6708C30.8999 36.4708 30.7999 36.2708 30.6999 36.1708C29.2999 34.7708 27.6999 33.4708 25.9999 32.1708C23.8999 30.5708 21.6999 29.1708 19.4999 27.8708C17.3999 26.6708 15.2999 25.6708 13.3999 24.8708C11.3999 24.0708 9.5999 23.5708 7.9999 23.2708C7.3999 23.1708 6.8999 23.1708 6.3999 23.0708C5.8999 23.0708 5.3999 23.0708 4.8999 23.0708C4.6999 23.0708 4.5999 23.1708 4.4999 23.2708C4.3999 23.3708 4.3999 23.5708 4.3999 23.7708L4.6999 26.1708C4.7999 26.4708 5.0999 26.7708 5.3999 26.7708C5.6999 26.7708 5.9999 26.6708 6.2999 26.7708C6.6999 26.7708 6.9999 26.8708 7.4999 26.8708C8.7999 27.0708 10.3999 27.5708 12.1999 28.2708C13.9999 28.9708 15.8999 29.9708 17.7999 31.0708C19.8999 32.2708 21.9999 33.6708 23.8999 35.0708C25.2999 36.1708 26.5999 37.2708 27.6999 38.3708C27.7999 38.4708 27.8999 38.4708 28.0999 38.4708Z" fill="#E41D2C"/>
<path fill-rule="evenodd" clip-rule="evenodd" d="M35.3999 33.6708C30.0999 28.4708 17.5999 20.0708 10.1999 20.7708L4.8999 23.7708C12.6999 22.9708 25.5999 32.1708 30.1999 36.6708L35.3999 33.6708Z" fill="white"/>
<path fill-rule="evenodd" clip-rule="evenodd" d="M34.4 33.5708L30.4 35.8708C25.7 31.4708 15 23.9708 7.3 23.1708L10.5 21.3708C17.1 20.7708 28.5 28.0708 34.4 33.5708ZM30.3 37.2708C30.4 37.2708 30.5 37.2708 30.6 37.1708L35.7 34.1708C35.9 34.0708 36 33.8708 36 33.6708C36 33.4708 35.9 33.2708 35.8 33.1708C30.9 28.3708 18 19.3708 10.2 20.0708C10.1 20.0708 10 20.0708 10 20.1708L4.7 23.1708C4.4 23.2708 4.3 23.5708 4.4 23.8708C4.5 24.1708 4.7 24.3708 5.1 24.2708C12.5 23.4708 25.1 32.2708 29.9 36.9708C30 37.1708 30.1 37.2708 30.3 37.2708Z" fill="#E41D2C"/>
<path fill-rule="evenodd" clip-rule="evenodd" d="M28.6001 50.3709C27.0001 49.4709 22.4001 47.2709 21.1001 44.8709C19.8001 45.6709 15.2001 42.5709 13.6001 41.6709C14.6001 39.1709 19.8001 39.9709 21.1001 42.2709C22.4001 41.5709 27.6001 46.7709 28.6001 50.3709Z" fill="white"/>
<path fill-rule="evenodd" clip-rule="evenodd" d="M21.5 42.8707C22.4 42.8707 25.8 46.0707 27.4 49.0707C25.4 47.9707 22.6 46.3707 21.6 44.6707C21.5 44.5707 21.4 44.4707 21.2 44.3707C21 44.2707 20.9 44.3707 20.7 44.4707C19.9 44.9707 16 42.5707 14.8 41.8707C14.7 41.7707 14.5 41.6707 14.4 41.5707C14.9 41.0707 15.7 40.9707 16.2 40.8707C18 40.7707 19.9 41.5707 20.5 42.6707C20.6 42.7707 20.7 42.8707 20.9 42.9707C21.1 42.9707 21.3 42.9707 21.5 42.8707ZM28.6 50.9707C28.7 50.9707 28.9 50.8707 29 50.8707C29.2 50.7707 29.3 50.4707 29.2 50.2707C28.3 47.1707 24.4 42.7707 22.2 41.8707C21.9 41.7707 21.6 41.6707 21.3 41.6707C20.2 40.1707 17.9 39.4707 16.1 39.6707C14.6 39.7707 13.4 40.4707 13 41.5707C12.9 41.8707 13 42.1707 13.3 42.3707C13.5 42.4707 13.9 42.6707 14.2 42.9707C16.8 44.5707 19.3 45.9707 20.8 45.7707C22.2 47.7707 25.4 49.4707 27.3 50.4707C27.7 50.6707 28 50.8707 28.2 50.9707C28.4 50.9707 28.5 50.9707 28.6 50.9707Z" fill="#262626"/>
<path fill-rule="evenodd" clip-rule="evenodd" d="M37.0001 39.9709C40.0001 52.1709 29.9001 60.2709 21.9001 56.2709C16.4001 53.4709 12.5001 42.0708 12.5001 36.8708C13.2001 42.6708 18.4001 50.4709 20.2001 48.4709C20.8001 50.1709 31.1001 55.9709 37.0001 39.9709Z" fill="white"/>
<path fill-rule="evenodd" clip-rule="evenodd" d="M36.7999 42.1708C37.5999 47.9708 35.0999 52.2708 32.3999 54.4708C29.2999 56.8708 25.5999 57.3708 22.2999 55.6708C19.1999 54.0708 16.6999 49.6708 15.0999 45.2708C16.3999 47.3708 17.7999 48.9708 18.9999 49.3708C19.3999 49.4708 19.7999 49.4708 20.0999 49.3708C21.0999 50.3708 23.2999 51.4708 25.8999 51.4708C28.9999 51.4708 33.3999 49.7708 36.7999 42.1708ZM26.1999 57.8708C28.5999 57.8708 30.9999 57.0708 32.9999 55.3708C36.3999 52.6708 39.2999 47.1708 37.4999 39.7708C37.3999 39.4708 37.1999 39.2708 36.8999 39.2708C36.5999 39.1708 36.3999 39.3708 36.2999 39.6708C33.0999 48.2708 28.7999 50.1708 25.7999 50.1708C25.6999 50.1708 25.6999 50.1708 25.6999 50.1708C22.7999 50.1708 20.7999 48.5708 20.6999 48.1708C20.5999 47.9708 20.3999 47.8708 20.1999 47.7708C19.9999 47.7708 19.7999 47.7708 19.5999 47.9708C19.4999 48.0708 19.3999 48.1708 19.0999 48.0708C17.1999 47.4708 13.4999 41.6708 12.8999 36.6708C12.8999 36.3708 12.5999 36.0708 12.2999 36.0708C11.9999 36.0708 11.6999 36.3708 11.6999 36.6708C11.6999 41.8708 15.6999 53.6708 21.4999 56.5708C23.0999 57.4708 24.6999 57.8708 26.1999 57.8708Z" fill="#262626"/>
</svg>
