<svg width="77" height="91" fill="none" xmlns="http://www.w3.org/2000/svg"><path d="M0 1.1L77 0l-3.1 87.1L4 90.6 0 1.1z" fill="#D7F9DF"/><path d="M6.8 7.3l63.8-.5L68 80.3 9.9 83.4 6.8 7.3z" stroke="#4BCC6A" stroke-miterlimit="10"/><path d="M3.3 3.7l71.3-1-3.5 81.7-64.7 3.2L3.3 3.7z" stroke="#4BCC6A" stroke-miterlimit="10"/><path d="M16.5 14.5l46-1m-37 5l28-1m-24 20l21-1m-33 5l44-2M49.9 78.2c8.781 0 15.9-7.118 15.9-15.9 0-8.78-7.119-15.9-15.9-15.9S34 53.52 34 62.3c0 8.782 7.119 15.9 15.9 15.9z" stroke="#EE7754" stroke-miterlimit="10"/><path d="M49.9 75.2c7.125 0 12.9-5.775 12.9-12.9 0-7.124-5.775-12.9-12.9-12.9-7.124 0-12.9 5.776-12.9 12.9 0 7.125 5.776 12.9 12.9 12.9z" stroke="#EE7754" stroke-miterlimit="10"/><path d="M41.2 66.5v-8.6h1.1v8.6h-1.1zm2.7-2.8l1.1-.1c.1.4.2.8.4 1.1.2.3.5.5.9.7.4.2.8.3 1.3.3.4 0 .8-.1 1.1-.2.3-.1.6-.3.7-.5.1-.2.2-.5.2-.7 0-.3-.1-.5-.2-.7-.1-.2-.4-.6-.7-.7-.2-.1-.7-.2-1.5-.4s-1.3-.4-1.7-.5c-.4-.2-.7-.5-.9-.8-.2-.3-.3-.7-.3-1.1 0-.4.1-.8.4-1.2.3-.4.6-.7 1.1-.9.5-.2 1-.3 1.6-.3.6 0 1.2.1 1.7.3.5.2.9.5 1.1.9.2.4.4.8.4 1.4l-1.1.1c-.1-.5-.3-1-.6-1.2-.3-.2-.8-.4-1.5-.4s-1.2.1-1.5.4c-.3.3-.5.6-.5.9 0 .3.1.6.3.8.2.2.8.4 1.7.6.9.2 1.6.4 1.9.5.5.2.9.5 1.1.9.2.4.4.8.4 1.2 0 .5-.1.9-.4 1.3-.3.4-.6.7-1.1.9-.5.2-1 .3-1.7.3-.8 0-1.4-.1-2-.3-.6-.2-.9-.6-1.2-1-.3-.4-.5-1-.5-1.6zm8.1-1.4c0-1.4.4-2.5 1.1-3.3.7-.8 1.8-1.2 3-1.2.8 0 1.5.2 2.1.6.6.4 1.1.9 1.5 1.6.4.7.5 1.4.5 2.3 0 .9-.2 1.7-.5 2.3-.3.6-.8 1.2-1.5 1.6-.7.4-1.3.5-2.1.5s-1.5-.2-2.2-.6c-.7-.4-1.1-.9-1.4-1.6-.3-.7-.5-1.5-.5-2.2zm1.1 0c0 1 .3 1.9.8 2.4s1.3.9 2.1.9c.9 0 1.6-.3 2.1-.9.5-.6.8-1.5.8-2.6 0-.7-.1-1.3-.4-1.8-.3-.5-.6-.9-1-1.2-.4-.3-1-.4-1.5-.4-.8 0-1.5.3-2.1.8-.6.5-.8 1.5-.8 2.8z" fill="#EE7754"/><defs><clipPath id="clip0"><path fill="#fff" d="M0 0h77v90.6H0z"/></clipPath></defs></svg>