<svg width="16" height="16" fill="none" xmlns="http://www.w3.org/2000/svg"><path d="M12.667 13.333a.665.665 0 00.215-.038.66.66 0 00.151-.072l.005-.003a.68.68 0 00.154-.147.665.665 0 00.09-.15l.002-.006a.67.67 0 00.045-.21c.001-.013.004-.026.004-.04v-2a.667.667 0 00-1.333 0v.39L8.943 8 12 4.943v.39a.667.667 0 001.333 0v-2c0-.014-.003-.027-.004-.04a.66.66 0 00-.046-.21v-.005a.68.68 0 00-.118-.183.681.681 0 00-.127-.115l-.005-.003a.657.657 0 00-.191-.084.665.665 0 00-.175-.026h-2a.667.667 0 000 1.333h.39L8 7.057 4.943 4h.39a.667.667 0 000-1.333h-2c-.013 0-.026.003-.04.004a.747.747 0 00-.21.045l-.005.001a.66.66 0 00-.183.118.662.662 0 00-.115.127l-.002.004a.651.651 0 00-.085.192.651.651 0 00-.026.175v2a.667.667 0 001.333 0v-.39L7.057 8 4 11.057v-.39a.667.667 0 00-1.333 0v2a.664.664 0 00.038.215.652.652 0 00.073.152l.002.004a.67.67 0 00.115.127l.031.027a.672.672 0 00.152.09c.01.005.021.007.031.01a.627.627 0 00.224.041h2a.667.667 0 000-1.333h-.39L8 8.943 11.057 12h-.39a.667.667 0 000 1.333h2z" fill="#E41D2C"/><path d="M15.333 0h-4a.667.667 0 000 1.333h3.334v3.334a.667.667 0 001.333 0v-4A.667.667 0 0015.333 0zM.667 5.333a.667.667 0 00.666-.666V1.333h3.334a.667.667 0 000-1.333h-4A.667.667 0 000 .667v4c0 .368.299.666.667.666zm14.666 5.334a.667.667 0 00-.666.666v3.334h-3.334a.667.667 0 000 1.333h4a.667.667 0 00.667-.667v-4a.667.667 0 00-.667-.666zm-10.666 4H1.333v-3.334a.667.667 0 00-1.333 0v4c0 .368.299.667.667.667h4a.667.667 0 000-1.333z" fill="#E41D2C"/></svg>