<svg width="16" height="17" fill="none" xmlns="http://www.w3.org/2000/svg"><g clip-path="url(#clip0)" fill="#fff"><path d="M12.666 13.564a.66.66 0 00.216-.04.654.654 0 00.151-.072l.004-.002a.683.683 0 00.128-.117.672.672 0 00.118-.185v-.005a.68.68 0 00.046-.211c0-.014.004-.027.004-.042v-2.02a.67.67 0 00-.667-.674.67.67 0 00-.666.674v.395l-3.057-3.09L12 5.088v.395a.67.67 0 00.666.673.67.67 0 00.667-.673v-2.02c0-.015-.003-.028-.004-.042a.671.671 0 00-.046-.212v-.005h-.001a.688.688 0 00-.09-.152l-.027-.033a.684.684 0 00-.128-.116l-.004-.002a.654.654 0 00-.191-.085.658.658 0 00-.176-.027h-2a.67.67 0 00-.666.673.67.67 0 00.666.674h.39L8 7.224l-3.057-3.09h.39A.67.67 0 006 3.462a.67.67 0 00-.667-.673h-2c-.014 0-.027.003-.04.004a.749.749 0 00-.211.046l-.004.001a.66.66 0 00-.183.119.666.666 0 00-.115.129l-.002.003a.661.661 0 00-.085.194.664.664 0 00-.026.177v2.02a.67.67 0 00.666.674A.67.67 0 004 5.482v-.395l3.057 3.089L4 11.264v-.394a.67.67 0 00-.667-.674.67.67 0 00-.667.674v2.02a.678.678 0 00.04.217.66.66 0 00.073.158c.033.048.073.09.116.13l.031.025a.668.668 0 00.152.093l.03.009a.605.605 0 00.225.042h2A.67.67 0 006 12.89a.67.67 0 00-.667-.673h-.39L8 9.128l3.057 3.089h-.39a.67.67 0 00-.667.673.67.67 0 00.666.674h2z"/><path d="M15.333.094h-4a.67.67 0 00-.667.673.67.67 0 00.667.674h3.333v3.367a.67.67 0 00.667.674.67.67 0 00.667-.674V.768a.67.67 0 00-.667-.674zM.667 5.482a.67.67 0 00.666-.674V1.441h3.334a.67.67 0 00.666-.674.67.67 0 00-.666-.673h-4A.67.67 0 000 .767v4.041a.67.67 0 00.667.674zm14.666 5.388a.67.67 0 00-.667.673v3.368h-3.333a.67.67 0 00-.667.673.67.67 0 00.667.674h4a.67.67 0 00.667-.674v-4.04a.67.67 0 00-.667-.674zM4.667 14.91H1.333v-3.367a.67.67 0 00-.666-.673.67.67 0 00-.667.673v4.041a.67.67 0 00.667.674h4a.67.67 0 00.666-.674.67.67 0 00-.666-.673z"/></g><defs><clipPath id="clip0"><path fill="#fff" transform="translate(0 .094)" d="M0 0h16v16.164H0z"/></clipPath></defs></svg>