<svg width="17" height="10" fill="none" xmlns="http://www.w3.org/2000/svg"><path fill-rule="evenodd" clip-rule="evenodd" d="M12.59 3.056l.01 1.434-6.457.05a.6.6 0 00-.592.592.554.554 0 00.56.557l7.105-.055A1.915 1.915 0 0015.11 3.74c.01-.992-.87-1.85-1.842-1.84l-7.753.058A3.23 3.23 0 002.32 5.153c-.017 1.704 1.446 3.14 3.124 3.122l9.044-.07.011 1.434-9.043.07C2.983 9.734.861 7.652.886 5.14A4.665 4.665 0 015.502.524l7.754-.058c1.765-.018 3.306 1.484 3.288 3.288a3.35 3.35 0 01-3.315 3.314l-7.101.056a1.987 1.987 0 01-2.011-2.007c.011-1.105.906-2 2.014-2.012l6.459-.049z" fill="#E41D2C"/></svg>