<svg width="151" height="96" fill="none" xmlns="http://www.w3.org/2000/svg"><path d="M82.427 35.562c16.205 0 30.117 2.741 39.897 6.788-1.006-11.756-6.542-22.688-15.474-30.559C97.918 3.921 86.266-.292 74.28.016c-11.986.307-23.4 5.112-31.902 13.43-8.503 8.317-13.452 19.518-13.834 31.31a154.795 154.795 0 0153.883-9.194z" fill="#03BBEF"/><path d="M82.427 35.562a115 115 0 0135.083 5.035C106.138 22.993 87.185 9.324 87.185 9.324a26.33 26.33 0 015.08 14.807c-2.41.048-4.77.689-6.862 1.864a29.76 29.76 0 013.374-4.53c-4.814 1.211-12.244 5.78-16.793 9.827a11.648 11.648 0 012.9-5.483s-3.79.802-14.063 7.814c0 0 2.123-2.182 5.23-5.24a60.375 60.375 0 00-10.992-5.334 12.619 12.619 0 012.236 6.564 32.59 32.59 0 00-7.297 3.954s1.08-2.163 1.782-3.394a49.477 49.477 0 00-9.116 4.065l-9.95 9.026a157.997 157.997 0 0149.713-7.702z" fill="#0069B4"/><path d="M42.664 34.238a48.203 48.203 0 019.116-4.047c-.701 1.213-1.782 3.376-1.782 3.376a32.585 32.585 0 017.316-4.01 12.618 12.618 0 00-2.236-6.564L42.664 34.182v.056zm18.176-.671S80.91 13.203 87.185 9.324a26.33 26.33 0 015.08 14.807c-2.41.048-4.77.689-6.862 1.864a28.786 28.786 0 013.374-4.53c-4.814 1.211-12.244 5.78-16.793 9.827a11.353 11.353 0 012.9-5.464s-3.79.783-14.063 7.795l.019-.056z" fill="#fff"/><path d="M96.832 41.026c7.069-.15 21.682 2.965 35.689 7.105-8.397-7.012-26.914-12.625-50.094-12.625-26.894 0-49.183 6.322-61.73 12.625a281.098 281.098 0 0150.112-4.868 194.712 194.712 0 0138.968 3.73c-3.791-4.047-12.945-5.967-12.945-5.967z" fill="#61B55A"/><path d="M9.894 60.345c-3.298.448-6.596.933-9.894 1.436a4.35 4.35 0 011.005 2.182c.89 5.594 1.762 11.077 2.653 16.615a4.463 4.463 0 01-.246 2.368l4.719-.727a4.146 4.146 0 01-.986-2.182c-.834-5.445-1.649-10.871-2.483-16.317l3.014-.428a4.327 4.327 0 012.672.354l-.454-3.3zm25.094.54c.985 3.432 1.895 6.863 2.88 10.295l-3.79.317c.303-3.543.613-7.08.928-10.611h-.018zm109.776-.875a4.034 4.034 0 01-1.649-.408 3.97 3.97 0 01-1.325-1.048 3.88 3.88 0 01-.816-3.17l3.222.448c-.72 1.1-.303 1.977.834 2.145 1.137.168 1.781-.56 1.421-1.865l3.222.466a3.872 3.872 0 01-.529 1.587 3.953 3.953 0 01-1.153 1.226 4.021 4.021 0 01-3.264.581l.037.038zm-90.293-3.618c-3.335.149-6.652.317-9.969.522a4.41 4.41 0 01.796 2.256c.36 5.595.701 11.19 1.08 16.784a4.396 4.396 0 01-.473 2.368l4.757-.28a4.078 4.078 0 01-.777-2.256c-.322-5.483-.626-10.984-.929-16.467l3.033-.149a4.34 4.34 0 012.615.578c0-1.1 0-2.219-.133-3.319v-.037zm45.602 17.175c-.3.494-.72.906-1.224 1.199a3.549 3.549 0 01-1.657.479c-2.786-.13-3.64-4.233-3.487-8.224.151-4.364 1.516-8.112 4.093-7.981.62.071 1.214.293 1.726.644a3.74 3.74 0 011.212 1.37l.398-3.73a5.873 5.873 0 00-3.279-1.212c-4.643-.205-7.733 4.27-7.922 11.002-.19 6.154 1.895 10.667 6.33 10.853a5.752 5.752 0 003.791-1.118v-3.282h.019zm8.188-14.229a4.255 4.255 0 01.834-2.238c-1.649-.13-3.317-.223-4.966-.317.378.718.548 1.525.493 2.331l-1.024 16.784a4.42 4.42 0 01-.758 2.256l4.738.298a4.253 4.253 0 01-.474-2.33l.512-7.46h.739c1.422.13 2.009.783 2.332 2.331.322 1.548.454 3.6.701 5.11.153.911.42 1.8.796 2.648l4.037.335a7.497 7.497 0 01-1.099-2.629c-.285-1.305-.55-3.972-.948-6.098a4.346 4.346 0 00-.986-2.323 4.455 4.455 0 00-2.122-1.407 321.714 321.714 0 014.7-6.694 7.743 7.743 0 012.066-2.126c-1.725-.15-3.45-.298-5.193-.41 0 0 .815.727-.171 2.275a468.319 468.319 0 00-4.037 6.452h-.625l.455-6.695v-.093zM39.328 76.457a3.399 3.399 0 010 2.294l4.814-.43a4.343 4.343 0 01-1.213-2.2 1035.72 1035.72 0 00-4.587-16.783 2.865 2.865 0 010-2.088c-2.085.149-4.15.317-6.235.503a2.78 2.78 0 01.379 2.07c-.55 5.184-1.062 10.35-1.535 15.534a10.8 10.8 0 01-.986 4.102l4.132-.373a9.857 9.857 0 01-.247-3.953v-1.119l4.72-.391.758 2.834zm47.857-18.07c.016-.816.266-1.61.72-2.294h-4.966a4.62 4.62 0 01.588 2.313l-.133 6.583h-5.212v-6.677c0-.841.251-1.664.72-2.368h-4.985c.432.69.661 1.484.664 2.294V75.02a4.312 4.312 0 01-.664 2.331h4.758a4.125 4.125 0 01-.626-2.312v-7.46h5.193c0 2.5 0 5.017-.132 7.46a4.312 4.312 0 01-.645 2.293l4.757.094a4.106 4.106 0 01-.587-2.313c.133-5.594.265-11.188.417-16.783l.133.056zm-67.777 9.53a61.745 61.745 0 00-1.611 6.526c0-2.406-.493-6.695-.853-9.53l-.398-3.095a4.136 4.136 0 01.36-2.35l-4.965.616a4 4 0 01.985 2.2c.74 5.595 1.497 11.19 2.236 16.672a4.47 4.47 0 01-.34 2.35l3.221-.41a18.55 18.55 0 001.29-3.32c.568-1.865 1.118-3.86 1.686-5.781a65 65 0 001.554-6.527h.17c0 2.406.437 6.695.759 9.548.114 1.026.246 2.051.36 3.096a4.34 4.34 0 01-.417 2.275l4.738-.504a4.194 4.194 0 01-.89-2.219c-.594-5.57-1.188-11.164-1.782-16.783a4.431 4.431 0 01.436-2.368l-3.374.354a18.598 18.598 0 00-1.44 3.394 213.38 213.38 0 00-1.725 5.725v.13zm43.8-3.134a60.277 60.277 0 00-2.198 6.36c.19-2.406.114-6.714 0-9.567l-.113-3.114a4.202 4.202 0 01.568-2.313c-1.649 0-3.317.094-4.966.168.476.668.74 1.46.759 2.275.227 5.595.435 11.189.663 16.783a4.49 4.49 0 01-.569 2.313l3.298-.093a21.004 21.004 0 001.611-3.19c.72-1.864 1.46-3.729 2.218-5.594a76.658 76.658 0 002.236-6.377h.114c-.227 2.405-.209 6.713-.152 9.585v3.095a4.202 4.202 0 01-.568 2.313h4.757a4.221 4.221 0 01-.74-2.35c0-5.594-.132-11.189-.208-16.783a4.348 4.348 0 01.683-2.35h-3.393a16.322 16.322 0 00-1.744 3.245l-2.255 5.594zm79.187 4.513a55.42 55.42 0 00-3.26 5.912c.569-2.331 1.251-6.602 1.649-9.436.133-1.026.285-2.052.436-3.077a4.104 4.104 0 01.948-2.182l-4.947-.671c.368.733.5 1.559.379 2.368l-2.217 16.671a4.418 4.418 0 01-.929 2.2l3.222.43a21.494 21.494 0 002.123-2.89 469.8 469.8 0 013.146-5.166 65.455 65.455 0 003.279-5.912h.114c-.626 2.331-1.346 6.583-1.782 9.324-.152 1.026-.303 2.052-.474 3.077a4.285 4.285 0 01-.948 2.182c1.517.205 3.033.448 4.549.69a5.515 5.515 0 01-.114-2.35c.898-5.532 1.782-11.07 2.654-16.615a5.8 5.8 0 01.853-2.2l-3.241-.355a15.697 15.697 0 00-2.275 2.928 207.558 207.558 0 00-3.165 5.072zm-17.058-2.07a59.8 59.8 0 00-3.051 6.005c.493-2.368 1.004-6.639 1.308-9.492 0-1.044.208-2.07.303-3.095a4.283 4.283 0 01.872-2.22l-4.966-.484c.397.717.562 1.537.474 2.35l-1.592 16.782a4.503 4.503 0 01-.872 2.238l3.241.299a19.904 19.904 0 002.009-2.965c.967-1.753 1.895-3.506 2.957-5.26 1.061-1.752 2.198-4.102 3.07-6.041h.095c-.531 2.35-1.099 6.638-1.422 9.473a182.844 182.844 0 01-.36 3.096 4.147 4.147 0 01-.891 2.275c1.593.186 3.166.354 4.739.56a4.228 4.228 0 01-.36-2.425l2.047-16.783a4.27 4.27 0 01.947-2.2l-3.373-.392c-.835.909-1.56 1.91-2.161 2.983-1.005 1.734-1.895 3.469-2.976 5.203l-.038.093zM36.03 86.415h1.592l3.09 3.804 2.938-3.804h1.497v8.13h-1.573v-5.874l-2.862 3.6h-.228l-2.862-3.562v5.837H36.03v-8.131zm16.262 6.919a2.962 2.962 0 01-1.142-.19 2.924 2.924 0 01-.977-.611 2.87 2.87 0 01-.658-.937 2.832 2.832 0 01-.237-1.115c0-.787.318-1.541.883-2.097a3.04 3.04 0 012.13-.868c.8 0 1.567.312 2.132.868a2.94 2.94 0 01.882 2.097 2.72 2.72 0 01-.202 1.135 2.76 2.76 0 01-.656.954 2.847 2.847 0 01-2.155.763zm0-7.03a4.35 4.35 0 00-1.784.168 4.302 4.302 0 00-1.558.871c-.451.395-.812.88-1.06 1.422a4.157 4.157 0 000 3.45 4.218 4.218 0 001.06 1.422c.45.395.982.692 1.558.871a4.35 4.35 0 001.784.168 4.445 4.445 0 001.748-.222 4.396 4.396 0 001.517-.883c.44-.393.793-.869 1.04-1.4a4.25 4.25 0 00.395-1.69 4.194 4.194 0 00-.384-1.695 4.255 4.255 0 00-1.04-1.403 4.336 4.336 0 00-1.524-.876 4.386 4.386 0 00-1.752-.204zm12.148 1.454h-2.577l-.19 1.529c-.53 4.718-1.705 5.482-3.468 5.258v-1.417c.682 0 1.611-.186 2.01-5.072l.132-1.622h5.686v8.112H64.44v-6.788zm4.114 5.482l.872-.95a3.263 3.263 0 002.141.988c.872 0 1.668-.373 1.668-1.194 0-.82-.55-1.082-1.592-1.082h-.948V89.68h.891a1.21 1.21 0 00.88-.264 1.18 1.18 0 00.428-.8c0-.708-.588-1.044-1.327-1.044a2.25 2.25 0 00-1.06.204 2.21 2.21 0 00-.835.673l-.853-.802a3.787 3.787 0 011.32-.94 3.844 3.844 0 011.599-.31c1.592 0 2.71.784 2.71 2.22 0 .392-.114.776-.329 1.107-.215.33-.522.593-.884.757.445.076.848.305 1.137.647.288.342.443.774.436 1.218 0 1.492-1.516 2.406-3.165 2.406a3.842 3.842 0 01-1.73-.39 3.777 3.777 0 01-1.36-1.12zm11.049-2.107l1.327-2.89 1.327 2.89h-2.654zm1.895-4.736h-1.383l-3.79 8.149h1.61l.929-2.07h3.79l.948 2.07h1.687l-3.79-8.15zm8.51 6.843h-1.042v-2.18h1.118c.986 0 1.573.335 1.573 1.025s-.587 1.175-1.648 1.175v-.019zm-1.042-5.5h.986c.853 0 1.421.354 1.421 1.006 0 .653-.606 1.082-1.346 1.082h-1.06v-2.089zm2.691 2.498c.393-.13.731-.382.964-.719a1.84 1.84 0 00.325-1.146c0-1.119-.815-1.995-2.975-1.995h-2.597v8.075h2.52c1.896 0 3.337-.765 3.337-2.425a1.846 1.846 0 00-.437-1.218 1.902 1.902 0 00-1.137-.647v.075zm8.321 3.095a2.962 2.962 0 01-2.119-.8 2.87 2.87 0 01-.658-.938 2.832 2.832 0 01-.237-1.115c.06-.748.405-1.447.965-1.956a3.06 3.06 0 012.058-.792 3.06 3.06 0 012.058.792c.56.51.905 1.208.965 1.956a2.766 2.766 0 01-.871 2.09 2.836 2.836 0 01-.998.608 2.87 2.87 0 01-1.163.155zm0-7.03a4.322 4.322 0 00-2.26.904 4.215 4.215 0 00-1.391 1.97 4.15 4.15 0 00-.073 2.399c.212.79.654 1.501 1.27 2.049.616.547 1.38.907 2.2 1.035.82.128 1.66.018 2.418-.315a4.262 4.262 0 001.851-1.562 4.155 4.155 0 00.685-2.303 4.214 4.214 0 00-.389-1.691 4.283 4.283 0 00-1.041-1.4 4.358 4.358 0 00-1.521-.876 4.404 4.404 0 00-1.75-.21zm12.206 6.937h-3.791a8.613 8.613 0 001.118-4.028l.152-1.417h2.483v5.445h.038zm1.535 0v-6.806h-5.686v1.622a9.672 9.672 0 01-1.346 5.184h-.966v2.797h1.478v-1.492h6.293V96h1.497v-2.76h-1.27z" fill="#0069B4"/><defs><clipPath id="clip0"><path fill="#fff" d="M0 0h151v96H0z"/></clipPath></defs></svg>