<svg width="16" height="16" fill="none" xmlns="http://www.w3.org/2000/svg"><path fill-rule="evenodd" clip-rule="evenodd" d="M8 1.333a5.333 5.333 0 00-5.333 5.334c0 2.065 1.344 4.07 2.817 5.624A19.622 19.622 0 008 14.515a19.624 19.624 0 002.516-2.224c1.473-1.555 2.817-3.559 2.817-5.624A5.333 5.333 0 008 1.333zm0 14l-.37.555-.002-.002-.004-.002-.016-.01a7.106 7.106 0 01-.256-.181 20.935 20.935 0 01-2.836-2.484C2.99 11.597 1.333 9.268 1.333 6.667a6.667 6.667 0 1113.334 0c0 2.601-1.656 4.93-3.183 6.542a20.935 20.935 0 01-3.037 2.626l-.055.038-.015.01-.005.004h-.001s-.001.001-.371-.554zm0 0l.37.555a.667.667 0 01-.74 0l.37-.555z" fill="#E41D2C"/><path fill-rule="evenodd" clip-rule="evenodd" d="M8 5.333A1.333 1.333 0 108 8a1.333 1.333 0 000-2.667zM5.333 6.667a2.667 2.667 0 115.334 0 2.667 2.667 0 01-5.334 0z" fill="#E41D2C"/></svg>