<svg width="30" height="26" fill="none" xmlns="http://www.w3.org/2000/svg"><path d="M26.25 7.788h-5V4.413c0-.758-.617-1.375-1.375-1.375h-1.322V1.164a.625.625 0 00-.625-.625H8.322a.625.625 0 00-.625.625v1.874H6.375C5.617 3.038 5 3.655 5 4.413v3.375H1.25V5.913a.625.625 0 00-1.25 0v5a.625.625 0 001.25 0V9.038H2.5v15.25H.625a.625.625 0 000 1.25h5a.625.625 0 000-1.25H3.75v-2.5h17.211a2.484 2.484 0 00-.336 1.25c0 1.379 1.122 2.5 2.5 2.5a2.502 2.502 0 002.164-3.75h4.086c.345 0 .625-.28.625-.625v-9.625a3.754 3.754 0 00-3.75-3.75zm-17.303-6h8.355v1.25H8.947v-1.25zM6.25 7.009h7.66a.625.625 0 000-1.25H6.25V4.414c0-.067.057-.124.125-.124h13.5c.068 0 .125.057.125.124v6.126h-7.66a.625.625 0 100 1.25h7.274l-.625 1.25h-2.83a.625.625 0 000 1.25h2.205l-1.125 2.25H9.01l-2.76-5.525V7.009zm-2.5 13.53v-11.5H5v2.126c0 .097.022.192.066.28l3 5.999a.625.625 0 00.56.345h8.999a.625.625 0 00.559-.345l3-6 .005-.012a.62.62 0 00.02-.045l.007-.02a.566.566 0 00.014-.046l.005-.02a.712.712 0 00.009-.05l.002-.018a.628.628 0 00.004-.068V9.038h1.25v11.5H3.75zm19.375 3.75a1.25 1.25 0 110-2.5 1.25 1.25 0 010 2.5zm5.625-3.75H27.5v-5.09a.625.625 0 00-1.25 0v5.09h-2.5v-11.5h2.5c1.378 0 2.5 1.122 2.5 2.5v9z" fill="#E41D2C"/><path d="M10.483 11.789h.046a.625.625 0 000-1.25h-.046a.625.625 0 000 1.25zm16.392 1.178a.625.625 0 00-.625.626v.045a.625.625 0 001.25 0v-.045a.625.625 0 00-.625-.626zM15.72 7.009h.047a.625.625 0 000-1.25h-.046a.625.625 0 000 1.25z" fill="#E41D2C"/></svg>