<svg width="403" height="242" fill="none" xmlns="http://www.w3.org/2000/svg"><path d="M364.586 37.204L182.868 6.566 59.921 84.084l17.482 46.879 201.845 53.1 50.605-66.346 34.733-80.513z" fill="#BAAA9B"/><path d="M105.58 4.147L0 88.23l60.611-4.722L184.133 7.257l-78.553-3.11z" fill="#D8D0CA"/><path d="M148.595 18.084c2.53-4.607 7.015-7.833 12.076-8.984l12.421-2.88a84.94 84.94 0 0141.289.806l10.351 2.995a22.287 22.287 0 0113.917 11.633c3.335 6.796 7.245 15.205 7.59 17.278l.92 5.874c1.266 7.833-.69 19.351-5.635 25.456-5.176 6.335-12.651 9.79-19.667 11.173l-5.521 1.036c-18.056 3.456-36.688 1.958-53.825-4.377-10.466-3.916-18.172-13.015-20.127-23.958-2.07-12.324.115-25.11 6.211-36.052z" fill="#EFBF73"/><path d="M223.007 4.031c-3.565 2.074-7.246 2.88-11.271 3.456-2.53.346-5.981.346-8.166 1.958-.69.46-.92 1.152-1.495 1.613-2.76 2.534-4.256 2.764-7.821 2.303-3.105-.345-5.865-.345-8.856.807-2.3.921-4.255 2.303-5.98 4.031-3.566 3.455-6.326 5.76-10.811 7.948-3.106 1.497-6.786 4.607-4.601 8.408 2.53 4.492 8.741.806 10.926 4.262 1.15 1.728.345 3.225 2.53 4.837 2.071 1.498 4.601 1.498 6.901 1.383 2.07-.115 4.371-.576 6.441.115 1.84.576 2.99 2.073 4.715 2.88 1.725.806 3.106.806 4.831.115 1.265-.461 2.185-1.498 3.335-2.189 2.415-1.382 4.371-1.036 7.016.115.92.346 1.035 1.267 2.415 1.152 1.15 0 1.725-.806 2.645-1.382.46-.23.575-.806.92-1.037 2.761-1.727 3.796-1.267 6.556-.23 1.725.691 3.22 1.497 5.176.806.92-.345 1.265-1.152 2.07-1.612 3.22-1.728 5.405-.576 8.626-.116 3.795.576 7.475.116 11.271-.806 1.035-.23.575-1.958-.46-1.612-3.796.921-7.476 1.382-11.271.69-1.726-.345-4.026-1.612-5.751-1.381-1.725.23-2.185 1.267-3.565 2.073-4.141 2.534-5.981-1.152-9.776-1.152-2.186 0-2.416 1.267-4.026 2.188-4.83 2.765-2.875 0-6.095-1.151-1.61-.576-3.451 0-4.946.69-2.875 1.498-2.875 2.535-6.44 2.535-3.451 0-2.761-.46-5.291-1.728-3.105-1.497-5.981-.46-9.201-.691-2.99.346-5.29-1.497-6.671-5.529.115-.46.115-.921 0-1.382-.115-.115 0-.46-.23-.576-1.955-1.382-2.3.346-4.37-.46-1.495-2.304-2.875-4.608-4.37-6.912 1.38-.69 2.76-1.267 4.255-1.843 1.035-.575 2.07-1.036 2.99-1.727 3.221-2.304 5.176-5.99 8.626-8.063 6.441-3.916 13.111.806 18.977-3.34 1.495-1.152 2.76-2.995 5.06-3.686 1.956-.576 4.026-.576 6.096-.922 3.565-.576 6.786-1.497 9.891-3.34 1.035-.576.23-2.073-.805-1.498z" fill="#F5F2EB"/><path d="M193.909.346c-4.945 7.256-15.756 7.602-22.887 11.979-3.221 1.958-5.866 4.492-8.741 7.026-2.99 2.65-6.556 3.686-9.891 5.644-3.565 2.073-7.131 6.565-4.6 10.712.575 1.036 1.61 1.382 2.185 2.188 1.725 1.267 2.645 3.225 2.76 5.76 0 .575 0 1.267.115 1.842 1.035 1.613 1.035 1.959 2.645 2.765 3.451 1.843 7.591 2.88 11.271 4.146 3.911 1.383 7.821 2.88 11.962 3.11 1.495.116 2.76 0 4.255-.115 4.025-.345 4.715.806 7.821 2.765 2.185 1.382 3.91 2.073 6.555 1.727 3.681-.345 7.016-2.419 10.812-2.419 3.91 0 7.245 2.074 11.156 1.383 4.945-.807 9.546-2.074 14.606-2.42 4.946-.23 10.006-.575 14.952-.805 1.15-.116 1.15-1.843 0-1.728-7.706.46-15.757.115-23.348 1.497-1.725.346-3.335.922-5.06 1.382-3.106.807-5.291.116-8.281-.46-2.76-.461-4.946-.807-7.706-.116-5.52 1.267-8.741 3.571-13.686-.806-1.38-1.152-2.185-1.958-4.026-2.188-4.485-.461-8.165.806-12.766-.346-3.91-.921-7.591-2.534-11.271-3.916-1.495-.576-3.105-.922-4.485-1.613-2.071-.345-3.336-1.612-3.796-3.8 0-.577 0-1.152.115-1.728-.69-1.959-.575-2.88-2.185-4.493-1.955-1.958-4.255-1.958-3.565-6.104.46-2.88 3.565-4.608 5.865-5.875 2.53-1.267 5.176-2.303 7.591-4.146 3.335-2.65 5.981-5.644 9.661-7.833 3.565-2.188 7.476-3.57 11.386-4.837 4.831-1.613 9.201-3.456 12.191-7.718.46-.46-1.035-1.382-1.61-.46z" fill="#F5F2EB"/><path d="M143.419 33.288c-.23 5.76-2.875 11.058-.46 16.702 1.955 4.492 4.831 9.214 8.971 12.094 6.326 4.262 14.031 7.372 21.047 10.251 1.495.691 3.335 1.613 4.946 1.613 1.38 0 2.415-.807 3.68-.922 4.6-.23 3.22.806 5.981 1.382 2.07.461 3.22.346 5.29-.115 2.645-.576 4.716-1.497 7.476-.921 1.61.345 3.105 1.036 4.715 1.612 2.185.807 4.256 1.383 6.556 1.498 1.84 0 3.335-.576 5.29-.576 2.761 0 4.486 1.497 6.786 2.303 3.335 1.152 4.831-.69 7.476-2.534 5.06-3.57 7.821-1.151 12.651-1.267 2.53 0 4.946-.69 7.246-1.727 1.035-.461.115-1.958-.92-1.498-4.486 1.958-8.051 1.152-12.536.461-1.611-.23-2.991-.23-4.601.46-1.15.577-2.07 1.498-3.105 2.304-3.681 2.995-5.521 1.498-9.201.23-4.371-1.497-9.086.577-13.687-.806-4.255-1.266-7.82-3.225-12.306-2.073-5.06 1.382-9.431-1.036-14.491-.23-6.211 1.152-13.687-3.916-19.207-6.68-6.096-3.11-11.041-5.76-14.492-11.98-2.3-4.031-3.335-7.256-2.53-11.979.46-2.65 1.035-5.068 1.15-7.717 0-.922-1.725-.922-1.725.115zm81.658-17.738c-9.661-.576-19.552 4.146-28.638 7.026-2.76.921-13.111 1.958-10.006 7.026 3.336 5.414 16.217 4.032 21.162 3.57 10.006-.92 19.897-3.34 29.903-.92 1.036.23 1.496-1.383.461-1.613-12.652-2.995-25.073 1.612-37.839 1.267-2.07 0-4.141-.23-6.211-.691-.92-.116-1.84-.346-2.645-.691-.23-1.383-.345-2.765-.575-4.147.92-1.497 8.626-2.764 10.466-3.34 7.706-2.42 15.756-6.105 23.922-5.644 1.035-.116 1.035-1.843 0-1.843z" fill="#F5F2EB"/><path d="M227.147 19.927c-4.37 1.267-8.625 2.88-12.651 4.838-.575.23-.575 1.267 0 1.497 4.026 1.728 8.051 1.152 12.191.345 1.036-.23.575-1.842-.46-1.612-3.565.69-7.36 1.382-10.926-.115v1.497c3.911-1.958 8.051-3.455 12.306-4.607 1.151-.461.691-2.074-.46-1.843z" fill="#F5F2EB"/><path d="M246.585 33.749c2.53-4.608 7.015-7.833 12.076-8.985l12.421-2.88a84.94 84.94 0 0141.289.807l10.351 2.995a22.287 22.287 0 0113.917 11.633c3.335 6.796 7.245 15.205 7.59 17.278l.92 5.874c1.265 7.833-.69 19.351-5.635 25.456-5.176 6.335-12.651 9.79-19.667 11.172l-5.521 1.037c-18.056 3.456-36.688 1.958-53.825-4.377-10.466-3.916-18.172-13.016-20.127-23.958a54.025 54.025 0 016.211-36.052z" fill="#EFBF73"/><path d="M320.997 19.696c-3.565 2.074-7.246 2.88-11.271 3.456-2.53.345-5.981.345-8.166 1.958-.69.46-.92 1.152-1.495 1.613-2.76 2.534-4.255 2.764-7.821 2.303-3.105-.345-5.865-.345-8.856.806-2.3.922-4.255 2.304-5.98 4.032-3.566 3.455-6.326 5.76-10.811 7.948-3.106 1.497-6.786 4.607-4.601 8.408 2.53 4.492 8.741.806 10.926 4.262 1.15 1.727.345 3.225 2.53 4.837 2.071 1.498 4.601 1.498 6.901 1.383 2.07-.115 4.371-.576 6.441.115 1.84.576 2.99 2.073 4.715 2.88 1.725.806 3.106.806 4.831.115 1.265-.461 2.185-1.498 3.335-2.189 2.415-1.382 4.371-1.037 7.016.115.92.346 1.035 1.267 2.415 1.152 1.15 0 1.725-.806 2.645-1.382.46-.23.575-.806.92-1.037 2.761-1.727 3.796-1.267 6.556-.23 1.725.691 3.22 1.497 5.176.806.92-.345 1.265-1.152 2.07-1.612 3.22-1.728 5.405-.576 8.626-.116 3.795.576 7.475.116 11.271-.806 1.035-.23.575-1.958-.46-1.612-3.796.921-7.476 1.382-11.271.69-1.726-.345-4.026-1.612-5.751-1.382-1.725.23-2.185 1.267-3.565 2.074-4.141 2.534-5.981-1.152-9.776-1.152-2.186 0-2.416 1.267-4.026 2.188-4.83 2.765-2.875 0-6.095-1.151-1.611-.576-3.451 0-4.946.69-2.875 1.498-2.875 2.535-6.44 2.535-3.451 0-2.761-.461-5.291-1.728-3.105-1.497-5.981-.46-9.201-.691-2.99.345-5.29-1.497-6.671-5.529.115-.46.115-.921 0-1.382-.115-.115 0-.46-.23-.576-1.955-1.382-2.3.346-4.37-.46-1.495-2.304-2.875-4.608-4.37-6.912 1.38-.69 2.76-1.267 4.255-1.843 1.035-.576 2.07-1.036 2.99-1.727 3.221-2.304 5.176-5.99 8.626-8.063 6.441-3.916 13.111.806 18.977-3.34 1.495-1.152 2.76-2.995 5.06-3.686 1.956-.576 4.026-.576 6.096-.922 3.565-.576 6.786-1.497 9.891-3.34 1.035-.576.115-2.073-.805-1.498z" fill="#F5F2EB"/><path d="M291.784 16.01c-4.945 7.257-15.756 7.603-22.887 11.98-3.22 1.958-5.866 4.492-8.741 7.026-2.99 2.649-6.556 3.686-9.891 5.644-3.565 2.073-7.131 6.565-4.6 10.712.575 1.036 1.61 1.382 2.185 2.188 1.725 1.267 2.645 3.225 2.76 5.76 0 .575 0 1.267.115 1.842 1.035 1.613 1.035 1.959 2.645 2.765 3.451 1.843 7.591 2.88 11.272 4.146 3.91 1.383 7.82 2.88 11.961 3.11 1.495.115 2.76 0 4.255-.115 4.026-.345 4.716.806 7.821 2.764 2.185 1.383 3.91 2.074 6.556 1.728 3.68-.345 7.015-2.419 10.811-2.419 3.91 0 7.245 2.074 11.156 1.383 4.945-.807 9.546-2.074 14.606-2.42 4.946-.23 10.006-.575 14.952-.805 1.15-.116 1.15-1.843 0-1.728-7.706.46-15.757.115-23.348 1.497-1.725.346-3.335.922-5.06 1.382-3.105.807-5.291.115-8.281-.46-2.76-.461-4.945-.807-7.706-.116-5.52 1.267-8.741 3.571-13.686-.806-1.38-1.152-2.185-1.958-4.026-2.188-4.485-.461-8.165.806-12.766-.346-3.91-.921-7.591-2.534-11.271-3.916-1.495-.576-3.105-.922-4.485-1.613-2.071-.345-3.336-1.612-3.796-3.8 0-.577 0-1.153.115-1.728-.69-1.959-.575-2.88-2.185-4.493-1.955-1.958-4.255-1.958-3.565-6.104.46-2.88 3.565-4.608 5.865-5.875 2.531-1.267 5.176-2.303 7.591-4.146 3.335-2.65 5.981-5.644 9.661-7.833 3.565-2.188 7.476-3.57 11.386-4.837 4.831-1.613 9.201-3.456 12.191-7.718.575-.46-.92-1.382-1.61-.46z" fill="#F5F2EB"/><path d="M322.952 31.215c-9.661-.576-19.552 4.146-28.638 7.026-2.76.921-13.111 1.958-10.006 7.026 3.336 5.414 16.217 4.031 21.163 3.57 10.006-.92 19.897-3.34 29.903-.92 1.035.23 1.495-1.383.46-1.613-12.652-2.995-25.073 1.612-37.839 1.267-2.07 0-4.141-.23-6.211-.691-.92-.116-1.84-.346-2.645-.692-.23-1.382-.345-2.764-.575-4.146.92-1.497 8.626-2.764 10.466-3.34 7.706-2.42 15.756-6.105 23.922-5.644 1.15-.115 1.15-1.843 0-1.843z" fill="#F5F2EB"/><path d="M325.138 35.592c-4.371 1.267-8.626 2.88-12.652 4.837-.575.23-.575 1.267 0 1.498 4.026 1.727 8.051 1.152 12.191.345 1.036-.23.576-1.843-.46-1.612-3.565.69-7.36 1.382-10.926-.115v1.497c3.911-1.958 8.051-3.456 12.307-4.607 1.035-.461.575-2.074-.46-1.843z" fill="#F5F2EB"/><path d="M99.715 61.278c2.53-4.608 7.016-7.833 12.076-8.985l12.421-2.88a84.94 84.94 0 0141.289.807l10.351 2.995a22.284 22.284 0 0113.917 11.633c3.335 6.796 7.246 15.204 7.591 17.278l.92 5.874c1.265 7.832-.69 19.351-5.636 25.456-5.175 6.335-12.651 9.79-19.667 11.172l-5.52 1.037c-18.057 3.455-36.689 1.958-53.826-4.377-10.466-3.916-18.171-13.016-20.127-23.958-2.07-12.21 0-24.995 6.21-36.052z" fill="#EAC892"/><path d="M174.127 47.34c-3.565 2.074-7.246 2.88-11.271 3.456-2.53.345-5.981.345-8.166 1.958-.69.46-.92 1.152-1.495 1.613-2.76 2.534-4.255 2.764-7.821 2.303-3.105-.345-5.865-.345-8.856.806-2.3.922-4.255 2.304-5.98 4.032-3.565 3.455-6.326 5.76-10.811 7.948-3.106 1.497-6.786 4.607-4.601 8.408 2.531 4.492 8.741.806 10.926 4.262 1.151 1.727.345 3.225 2.531 4.837 2.07 1.498 4.6 1.498 6.9 1.383 2.071-.116 4.371-.576 6.441.115 1.84.576 2.99 2.073 4.715 2.88 1.726.806 3.106.806 4.831.115 1.265-.461 2.185-1.498 3.335-2.189 2.416-1.382 4.371-1.037 7.016.115.92.346 1.035 1.267 2.415 1.152 1.15 0 1.725-.806 2.645-1.382.461-.23.576-.806.921-1.037 2.76-1.727 3.795-1.267 6.555-.23 1.725.691 3.221 1.497 5.176.806.92-.345 1.265-1.152 2.07-1.612 3.22-1.728 5.405-.576 8.626-.116 3.795.576 7.476.116 11.271-.806 1.035-.23.575-1.958-.46-1.612-3.796.921-7.476 1.382-11.271.69-1.725-.345-4.026-1.612-5.751-1.382-1.725.23-2.185 1.268-3.565 2.074-4.141 2.534-5.981-1.152-9.776-1.152-2.185 0-2.415 1.267-4.026 2.188-4.83 2.765-2.875 0-6.095-1.151-1.61-.576-3.451 0-4.946.69-2.875 1.498-2.875 2.535-6.44 2.535-3.451 0-2.761-.461-5.291-1.728-3.105-1.497-5.98-.46-9.201-.691-2.99.345-5.29-1.497-6.67-5.529.115-.46.115-.921 0-1.382-.115-.115 0-.46-.23-.576-1.956-1.382-2.301.346-4.371-.46-1.495-2.304-2.875-4.608-4.37-6.912 1.38-.69 2.76-1.267 4.255-1.843 1.035-.576 2.07-1.036 2.99-1.727 3.221-2.304 5.176-5.99 8.626-8.063 6.441-3.916 13.112.806 18.977-3.34 1.495-1.152 2.76-2.995 5.061-3.687 1.955-.575 4.025-.575 6.095-.92 3.566-.577 6.786-1.498 9.891-3.341 1.035-.576.115-2.074-.805-1.498z" fill="#F5F2EB"/><path d="M145.029 43.654c-4.945 7.257-15.756 7.603-22.887 11.98-3.22 1.958-5.866 4.492-8.741 7.026-2.99 2.649-6.555 3.686-9.891 5.644-3.565 2.073-7.13 6.565-4.6 10.712.575 1.036 1.61 1.382 2.185 2.188 1.725 1.267 2.645 3.225 2.76 5.76 0 .575 0 1.266.115 1.842 1.035 1.613 1.035 1.959 2.645 2.765 3.451 1.843 7.591 2.88 11.272 4.146 3.91 1.383 7.82 2.88 11.961 3.11 1.495.115 2.76 0 4.255-.115 4.026-.346 4.716.806 7.821 2.764 2.185 1.383 3.91 2.074 6.556 1.728 3.68-.345 7.015-2.419 10.811-2.419 3.91 0 7.245 2.074 11.156 1.383 4.945-.807 9.546-2.074 14.606-2.42 4.946-.23 10.006-.575 14.952-.806 1.15-.115 1.15-1.842 0-1.727-7.706.46-15.757.115-23.348 1.497-1.725.346-3.335.922-5.06 1.382-3.105.807-5.291.115-8.281-.46-2.76-.461-4.945-.807-7.706-.116-5.52 1.267-8.741 3.571-13.686-.806-1.38-1.152-2.185-1.958-4.025-2.188-4.486-.461-8.166.806-12.767-.346-3.91-.921-7.59-2.534-11.271-3.916-1.495-.576-3.105-.922-4.485-1.613-2.07-.345-3.336-1.612-3.796-3.8 0-.577 0-1.153.115-1.728-.69-1.959-.575-2.88-2.185-4.493-1.955-1.958-4.255-1.958-3.565-6.104.46-2.88 3.565-4.608 5.865-5.875 2.531-1.267 5.176-2.303 7.591-4.146 3.335-2.65 5.981-5.644 9.661-7.833 3.565-2.188 7.476-3.57 11.386-4.837 4.831-1.613 9.201-3.456 12.191-7.718.461-.576-1.035-1.382-1.61-.46z" fill="#F5F2EB"/><path d="M94.77 77.173c.23 5.99 1.38 11.173 3.68 16.701 1.61 3.801 1.265 8.639 4.6 11.519 5.521 4.607 14.262 7.487 20.932 10.251 1.495.691 3.336 1.613 4.946 1.613 1.38 0 2.415-.807 3.68-.922 4.601-.23 3.221.806 5.981 1.382 2.07.461 3.22.346 5.29-.115 2.646-.576 4.716-1.497 7.476-.921 1.61.345 3.105 1.036 4.716 1.612 2.185.807 4.255 1.382 6.555 1.498 1.84 0 3.335-.576 5.291-.576 2.76 0 4.485 1.497 6.785 2.303 3.336 1.152 4.831-.691 7.476-2.534 5.061-3.57 7.821-1.151 12.651-1.267 2.531 0 4.946-.691 7.246-1.727 1.035-.461.115-1.959-.92-1.498-4.485 1.958-8.051 1.152-12.536.461-1.61-.23-2.991-.23-4.601.461-1.15.576-2.07 1.497-3.105 2.303-3.68 2.995-5.521 1.498-9.201.231-4.37-1.498-9.086.576-13.686-.807-4.256-1.267-7.821-3.225-12.307-2.073-5.06 1.382-9.43-1.037-14.491-.23-6.211 1.152-13.686-3.916-19.207-6.681-3.22-1.612-8.166-3.34-9.776-6.911-.805-1.728-.69-3.916-1.265-5.759-2.185-6.566-4.255-11.173-4.485-18.314 0-1.152-1.726-1.152-1.726 0zm81.427-18.43c-9.66-.575-19.551 4.147-28.637 7.027-2.761.921-13.112 1.958-10.006 7.026 3.335 5.413 16.216 4.031 21.162 3.57 10.006-.92 19.897-3.34 29.903-.92 1.035.23 1.495-1.383.46-1.614-12.651-2.994-25.073 1.613-37.839 1.268-2.07 0-4.14-.23-6.211-.692-.92-.115-1.84-.345-2.645-.69-.23-1.383-.345-2.765-.575-4.147.92-1.498 8.626-2.765 10.466-3.34 7.706-2.42 15.757-6.105 23.922-5.645 1.036 0 1.036-1.727 0-1.843z" fill="#F5F2EB"/><path d="M178.268 63.236c-4.371 1.267-8.626 2.88-12.651 4.837-.576.23-.576 1.267 0 1.498 4.025 1.728 8.05 1.152 12.191.345 1.035-.23.575-1.843-.46-1.612-3.566.69-7.361 1.382-10.926-.115v1.497c3.91-1.958 8.05-3.456 12.306-4.607 1.035-.461.575-2.189-.46-1.843z" fill="#F5F2EB"/><path d="M198.05 88.806c2.53-4.607 7.015-7.832 12.076-8.984l12.421-2.88a84.94 84.94 0 0141.289.807l10.351 2.995a22.287 22.287 0 0113.917 11.633c3.335 6.796 7.245 15.204 7.59 17.278l.92 5.874c1.266 7.832-.69 19.351-5.635 25.455-5.176 6.335-12.651 9.791-19.667 11.173l-5.521 1.037c-18.056 3.455-36.688 1.958-53.825-4.377-10.466-3.916-18.172-13.016-20.127-23.958-2.07-12.325 0-25.11 6.211-36.053z" fill="#EAC892"/><path d="M272.462 74.754c-3.565 2.073-7.246 2.88-11.271 3.456-2.53.345-5.981.345-8.166 1.958-.69.46-.92 1.151-1.495 1.612-2.76 2.534-4.256 2.765-7.821 2.304-3.105-.346-5.866-.346-8.856.806-2.3.922-4.255 2.304-5.98 4.031-3.566 3.456-6.326 5.76-10.812 7.948-3.105 1.498-6.785 4.608-4.6 8.409 2.53 4.492 8.741.806 10.926 4.261 1.15 1.728.345 3.225 2.53 4.838 2.071 1.497 4.601 1.497 6.901 1.382 2.07-.115 4.37-.576 6.441.115 1.84.576 2.99 2.074 4.715 2.88 1.725.806 3.105.806 4.831.115 1.265-.461 2.185-1.497 3.335-2.188 2.415-1.383 4.37-1.037 7.016.115.92.345 1.035 1.267 2.415 1.152 1.15 0 1.725-.807 2.645-1.382.46-.231.575-.807.92-1.037 2.761-1.728 3.796-1.267 6.556-.231 1.725.692 3.22 1.498 5.175.807.921-.346 1.266-1.152 2.071-1.613 3.22-1.728 5.405-.576 8.625-.115 3.796.576 7.476.115 11.272-.806 1.035-.231.575-1.958-.46-1.613-3.796.922-7.476 1.382-11.272.691-1.725-.345-4.025-1.612-5.75-1.382-1.725.23-2.185 1.267-3.565 2.073-4.141 2.534-5.981-1.151-9.776-1.151-2.186 0-2.416 1.267-4.026 2.188-4.83 2.764-2.875 0-6.095-1.152-1.611-.576-3.451 0-4.946.691-2.875 1.498-2.875 2.534-6.441 2.534-3.45 0-2.76-.46-5.29-1.727-3.105-1.498-5.981-.461-9.201-.692-2.99.346-5.291-1.497-6.671-5.528a2.815 2.815 0 000-1.383c-.115-.115 0-.46-.23-.575-1.955-1.383-2.3.345-4.37-.461-1.495-2.304-2.875-4.608-4.371-6.911 1.381-.691 2.761-1.267 4.256-1.843 1.035-.576 2.07-1.037 2.99-1.728 3.22-2.303 5.176-5.99 8.626-8.063 6.441-3.916 13.111.807 18.977-3.34 1.495-1.152 2.76-2.995 5.06-3.686 1.956-.576 4.026-.576 6.096-.921 3.565-.576 6.786-1.498 9.891-3.34 1.035-.576.115-2.074-.805-1.498z" fill="#F5F2EB"/><path d="M243.364 71.068c-4.945 7.257-15.757 7.602-22.887 11.98-3.221 1.957-5.866 4.491-8.741 7.025-2.99 2.65-6.556 3.686-9.891 5.644-3.565 2.074-7.131 6.566-4.601 10.712.576 1.037 1.611 1.383 2.186 2.189 1.725 1.267 2.645 3.225 2.76 5.759 0 .576 0 1.267.115 1.843 1.035 1.613 1.035 1.958 2.645 2.764 3.451 1.843 7.591 2.88 11.271 4.147 3.911 1.382 7.821 2.88 11.962 3.11 1.495.115 2.76 0 4.255-.115 4.025-.346 4.715.806 7.821 2.764 2.185 1.382 3.91 2.073 6.555 1.728 3.681-.346 7.016-2.419 10.811-2.419 3.911 0 7.246 2.073 11.157 1.382 4.945-.806 9.545-2.073 14.606-2.419 4.945-.23 10.006-.576 14.951-.806 1.151-.115 1.151-1.843 0-1.728-7.705.461-15.756.116-23.347 1.498-1.725.345-3.335.921-5.06 1.382-3.106.806-5.291.115-8.281-.461-2.76-.461-4.946-.806-7.706-.115-5.52 1.267-8.741 3.571-13.686-.806-1.38-1.152-2.185-1.958-4.026-2.189-4.485-.46-8.165.807-12.766-.345-3.91-.922-7.591-2.534-11.271-3.917-1.495-.575-3.105-.921-4.485-1.612-2.071-.346-3.336-1.613-3.796-3.801 0-.576 0-1.152.115-1.728-.69-1.958-.575-2.879-2.185-4.492-1.955-1.958-4.256-1.958-3.565-6.105.46-2.88 3.565-4.607 5.865-5.874 2.53-1.267 5.176-2.304 7.591-4.147 3.335-2.649 5.98-5.644 9.661-7.832 3.565-2.189 7.476-3.57 11.386-4.838 4.83-1.612 9.201-3.455 12.191-7.717.46-.46-1.035-1.267-1.61-.46z" fill="#F5F2EB"/><path d="M193.104 104.817c-.345 5.644-4.025 10.827-1.725 16.471 1.61 4.031 5.06 8.063 8.511 10.597 6.095 4.377 13.571 7.372 20.472 10.366 2.07.922 4.6 2.419 6.9 2.419 1.036 0 1.956-.461 2.876-.576 2.53-.345 4.485.691 6.67 1.037 2.186.345 3.106.461 5.406 0 4.6-.922 6.901-1.267 11.386.346 2.415.921 4.831 1.727 7.361 1.842 1.725.116 3.565-.575 5.29-.575 2.416 0 4.141 1.267 6.211 1.958 3.795 1.382 5.06 0 8.166-2.189 4.945-3.571 7.821-1.152 12.651-1.267 2.53 0 4.945-.691 7.246-1.728 1.035-.46.115-1.958-.92-1.497-4.486 1.958-8.051 1.152-12.537.461-1.61-.231-2.99-.231-4.6.46-1.38.576-2.415 1.843-3.68 2.765-3.221 2.649-5.521.806-8.856-.346-1.841-.691-3.566-.345-5.521-.23-3.335.345-5.75.23-8.856-.806-4.6-1.613-7.59-2.419-12.306-1.498-3.565.691-6.326-.345-9.776-.921-1.725-.346-3.105.576-4.83.806-5.866.806-14.147-4.838-19.322-7.487-6.096-3.11-11.616-6.22-15.182-12.324-3.68-6.335.23-11.519.575-18.084.23-1.152-1.495-1.152-1.61 0zm81.428-18.545c-9.661-.576-19.552 4.147-28.638 7.026-2.76.922-13.111 1.959-10.006 7.027 3.336 5.413 16.217 4.031 21.162 3.57 10.006-.921 19.897-3.34 29.903-.921 1.035.23 1.495-1.382.46-1.613-12.651-2.995-25.072 1.613-37.838 1.267a28.49 28.49 0 01-6.211-.691c-.92-.115-1.84-.345-2.645-.691-.23-1.382-.345-2.764-.575-4.146.92-1.498 8.626-2.765 10.466-3.34 7.705-2.42 15.756-6.106 23.922-5.645 1.035-.115 1.035-1.843 0-1.843z" fill="#F5F2EB"/><path d="M276.602 90.65c-4.37 1.266-8.625 2.879-12.651 4.837-.575.23-.575 1.267 0 1.497 4.026 1.728 8.051 1.152 12.191.346 1.035-.23.575-1.843-.46-1.613-3.565.691-7.36 1.383-10.926-.115V97.1c3.911-1.959 8.051-3.456 12.306-4.608 1.035-.46.69-2.073-.46-1.843z" fill="#F5F2EB"/><path d="M60.61 83.508l203.226 46.188L267.516 242l-203.34-42.618-3.565-115.874z" fill="#AA9B8C"/><path d="M263.836 129.696l103.166-87.654 1.84 100.325L267.517 242" fill="#B7A89A"/><path d="M364.586 37.204l-100.06 93.068 47.27 31.906L403 66.691l-38.414-29.487z" fill="#D8D0CA"/><path d="M130.768 129.12l-.575 49.875 58.771 9.56-.69-48.031-57.506-11.404z" fill="#F4E4D3"/><defs><clipPath id="clip0"><path fill="#fff" d="M0 0h403v242H0z"/></clipPath></defs></svg>