<svg width="28" height="34" fill="none" xmlns="http://www.w3.org/2000/svg"><path d="M.5.5h27v28.6l-4.47 4.4H.5V.5z" stroke="#E41D2C"/><path d="M10.713 15.89c0 .572-.19 1.027-.571 1.365-.378.337-.893.506-1.545.506H6.791v2.357h-.834v-6.05h2.588c.69 0 1.223.16 1.601.477.378.318.567.766.567 1.344zm-.837.008c0-.781-.477-1.172-1.431-1.172H6.79v2.387h1.688c.931 0 1.397-.405 1.397-1.215zm7.334 1.133c0 .624-.123 1.171-.37 1.64a2.568 2.568 0 01-1.052 1.074c-.454.249-.977.373-1.57.373h-2.3v-6.05h2.033c1.041 0 1.844.258 2.409.774.567.512.85 1.242.85 2.19zm-.837 0c0-.75-.21-1.32-.629-1.713-.415-.395-1.02-.592-1.81-.592H12.75v4.736h1.37c.451 0 .847-.098 1.187-.293.343-.194.607-.475.79-.841.183-.366.275-.799.275-1.297zm2.836-2.292v2.25h3.43v.678h-3.43v2.451h-.833v-6.05h4.367v.67H19.21z" fill="#E41D2C"/></svg>