<svg width="28" height="34" fill="none" xmlns="http://www.w3.org/2000/svg"><path d="M.5.5h27v28.6l-4.47 4.4H.5V.5z" stroke="#E41D2C"/><path d="M10.714 15.89c0 .572-.19 1.027-.572 1.365-.378.338-.893.506-1.545.506H6.791v2.358h-.833v-6.05h2.587c.69 0 1.223.159 1.601.476.378.318.568.766.568 1.344zm-.838.008c0-.781-.477-1.172-1.431-1.172H6.79v2.387h1.69c.93 0 1.396-.405 1.396-1.215zm7.334 1.134c0 .623-.123 1.17-.37 1.64a2.567 2.567 0 01-1.052 1.073c-.454.249-.977.373-1.57.373h-2.3V14.07h2.033c1.042 0 1.845.258 2.409.773.567.512.85 1.242.85 2.19zm-.837 0c0-.75-.21-1.322-.629-1.714-.415-.395-1.019-.592-1.81-.592H12.75v4.736h1.37c.451 0 .847-.098 1.187-.292a1.94 1.94 0 00.79-.842c.183-.366.275-.799.275-1.296zm2.837-2.293v2.25h3.429v.678h-3.43v2.451h-.833V14.07h4.367v.67H19.21z" fill="#E41D2C"/></svg>