<svg width="16" height="17" fill="none" xmlns="http://www.w3.org/2000/svg"><path d="M12.667 8.625H11.26a4.65 4.65 0 001.407-3.333A4.672 4.672 0 008 .625a4.672 4.672 0 00-4.667 4.667A4.65 4.65 0 004.74 8.625H3.333A3.337 3.337 0 000 11.958v4a.667.667 0 001.333 0v-4c0-1.103.897-2 2-2h9.334c1.103 0 2 .897 2 2v4a.667.667 0 001.333 0v-4a3.337 3.337 0 00-3.333-3.333zm-8-3.333A3.337 3.337 0 018 1.958a3.337 3.337 0 013.333 3.334A3.337 3.337 0 018 8.625a3.337 3.337 0 01-3.333-3.333z" fill="#E41D2C"/></svg>