<svg width="242" height="243" fill="none" xmlns="http://www.w3.org/2000/svg"><path fill-rule="evenodd" clip-rule="evenodd" d="M156.492 41.757a87.457 87.457 0 00-50.4-6.384A87.49 87.49 0 0060.64 58.082a87.569 87.569 0 00-25.183 44.147 87.598 87.598 0 003.574 50.705 87.54 87.54 0 0031.126 40.171 87.468 87.468 0 0048.187 16.097 87.468 87.468 0 0049.005-13.404 87.537 87.537 0 0033.305-38.385 87.703 87.703 0 001.816-66.964 87.635 87.635 0 00-45.978-48.692zM85.845 199.874a85.61 85.61 0 01-37.536-32.595 85.686 85.686 0 012.63-95.141 85.617 85.617 0 0139.28-30.474 85.56 85.56 0 0149.579-3.501 85.586 85.586 0 0143.166 24.65 85.662 85.662 0 0122.2 44.493 85.697 85.697 0 01-6.248 49.336 85.708 85.708 0 01-47.601 45.011 85.634 85.634 0 01-65.47-1.779z" fill="#BB9753"/><path fill-rule="evenodd" clip-rule="evenodd" d="M151.431 153.558s-4.129.798-6.751-.831a4.72 4.72 0 01-2.266-5.016 4.725 4.725 0 01.765-1.788 6.024 6.024 0 014.014-2.487 18.231 18.231 0 0014.694 3.783 18.298 18.298 0 00-9.906-11.498 5.985 5.985 0 01.508-4.684 4.725 4.725 0 014.955-2.392 4.72 4.72 0 011.806.72c2.622 1.629 3.73 5.699 3.73 5.699a3.38 3.38 0 003.554-2.155 7.54 7.54 0 00-3.552-8.915c-7.042-4.375-14.597 2.385-14.806 9.981-7.269-2.134-14.214-5.757-18.182-12.713 9.928 3.677 24.421 2.573 30.191-6.55a17.357 17.357 0 00-.351-18.67c-2.124-3.137-4.576-4.806-7.137-4.924-2.561-.119-3.32 1.573-1.736 3.557 3.249 4.164 6.135 10.61 2.088 17.131a12.937 12.937 0 01-3.339 3.823 12.927 12.927 0 01-14.413.893 6.897 6.897 0 01-3.373-4.327 6.917 6.917 0 01.848-5.423 5.101 5.101 0 013.269-2.535 5.104 5.104 0 014.074.716c3.094 1.922 1.792 6.422 1.792 6.422 2.098 1.303 4.346.082 5.616-1.965 3.794-6.115-3.529-13.373-9.411-12.064a21.083 21.083 0 006.422-6.19c2.654-4.278 2.322-11.502 2.322-11.502s-6.605 2.915-9.259 7.192a21.089 21.089 0 00-2.697 8.505c-1.436-5.855-11.186-9.203-14.98-3.089-1.254 2.02-1.368 4.605.73 5.908 0 0 3.453-3.163 6.548-1.241a5.137 5.137 0 012.441 3.337 5.135 5.135 0 01-.814 4.054 6.899 6.899 0 01-9.854 2.06 12.937 12.937 0 01-5.591-8.244 12.93 12.93 0 011.929-9.774c4.071-6.56 11.166-6.752 16.35-5.677 2.496.514 3.682-.84 2.417-3.135-1.265-2.294-3.858-3.65-7.577-4.215A17.296 17.296 0 00109.62 83.3c-5.7 9.184-.239 22.666 7.567 30.024-7.991-.474-14.317-5.094-19.453-10.666 6.713-3.556 9.403-13.338 2.375-17.704a7.546 7.546 0 00-9.64.72 3.415 3.415 0 00-.341 4.15s4.071-.851 6.76.819a4.723 4.723 0 012.14 4.965 4.728 4.728 0 01-.75 1.752 5.99 5.99 0 01-4 2.496 18.318 18.318 0 00-14.695-3.784 18.224 18.224 0 009.907 11.499 6.043 6.043 0 01-.47 4.708 4.727 4.727 0 01-3.012 2.324 4.712 4.712 0 01-3.748-.652c-2.623-1.629-3.673-5.645-3.673-5.645a3.413 3.413 0 00-3.567 2.147 7.541 7.541 0 003.639 8.951c7.028 4.366 14.597-2.385 14.797-9.969 7.269 2.134 14.214 5.758 18.183 12.713-10.002-3.704-24.5-2.621-30.2 6.564a17.29 17.29 0 00.347 18.649c2.123 3.136 4.576 4.805 7.137 4.924 2.56.118 3.32-1.574 1.727-3.545-3.262-4.171-6.126-10.622-2.166-17.179a12.918 12.918 0 0117.764-4.708 6.896 6.896 0 013.525 7.13 6.903 6.903 0 01-.986 2.628 5.104 5.104 0 01-3.269 2.535 5.104 5.104 0 01-4.074-.716c-3.094-1.922-1.797-6.443-1.797-6.443-2.085-1.295-4.341-.061-5.603 1.973-3.794 6.115 3.521 13.386 9.403 12.077a20.844 20.844 0 00-6.414 6.177c-2.654 4.278-2.335 11.493-2.335 11.493s6.618-2.906 9.272-7.183a21.09 21.09 0 002.697-8.505c1.436 5.855 11.194 9.19 14.989 3.075 1.254-2.02 1.367-4.604-.731-5.907 0 0-3.461 3.176-6.556 1.254a5.107 5.107 0 01-2.446-3.328 5.125 5.125 0 01.811-4.051 6.908 6.908 0 014.481-3.165 6.9 6.9 0 015.373 1.106 12.894 12.894 0 015.593 8.24 12.906 12.906 0 01-1.944 9.77c-4.071 6.561-11.153 6.76-16.271 5.726-2.489-.528-3.682.84-2.409 3.121 1.273 2.282 3.857 3.651 7.576 4.216 3.278.431 6.611-.09 9.602-1.5a17.269 17.269 0 007.27-6.453c5.699-9.185.247-22.679-7.568-30.024 7.991.473 14.317 5.094 19.453 10.666-6.704 3.543-9.408 13.316-2.366 17.691a7.517 7.517 0 009.553-.756 3.385 3.385 0 00.354-4.143zm-33.96-26.549a21.766 21.766 0 00-3.57-9.617c3.431.472 6.926.111 10.19-1.051a21.743 21.743 0 003.649 9.666 21.926 21.926 0 00-10.211 1.055" fill="#BB9753"/><path d="M57.092 122.84l.081-4.348-7.109-.108.007-.977 8.022.13-.095 6.302-8.023-.13.02-.969 7.097.1zm-6.808 5.103l7.89-1.005c.05.448.201 1.578.314 2.012.275 2.279-.88 3.088-2.122 3.244a2.564 2.564 0 01-2-.639 2.544 2.544 0 01-.84-1.926 15.269 15.269 0 01-.104-1.209l-3.05.377-.088-.854zm7.182.136l-3.076.361c.013.389.047.774.094 1.167a1.541 1.541 0 001.113 1.649c.233.066.477.077.714.031.939-.108 1.483-.751 1.27-2.046-.04-.316-.104-.828-.167-1.195m2.789 9.63a3.97 3.97 0 01-2.956 4.999 4.089 4.089 0 01-5.087-3.748 4.098 4.098 0 012.311-3.908 4.089 4.089 0 015.732 2.657zm-7.097 1.863a3.213 3.213 0 004.453 2.265 3.214 3.214 0 00-.23-5.956 3.209 3.209 0 00-1.878-.088 3.084 3.084 0 00-2.403 2.547c-.064.411-.044.829.058 1.232zm1.524 7.625l7.348-3.234.39.896-5.875 2.586 7.827 1.88.35.782-7.34 3.221-.397-.883 5.875-2.586-7.827-1.881-.35-.781zm5.298 8.602l.843.106a2.89 2.89 0 00.214 2.26 1.54 1.54 0 001.625.975c.226-.027.443-.104.636-.225.676-.416.814-1.167.29-2.02l-.489-.794.786-.475.452.735a1.335 1.335 0 00.836.598 1.338 1.338 0 001.011-.178 1.293 1.293 0 00.593-1.438 1.302 1.302 0 00-.248-.493 2.218 2.218 0 00-1.719-1.067l.243-.831a3.166 3.166 0 012.307 1.524 2.086 2.086 0 01-.598 3.101c-.33.191-.705.29-1.086.287a2.137 2.137 0 01-1.082-.307 1.793 1.793 0 01-.83 2.247 2.497 2.497 0 01-2.844-.308 2.5 2.5 0 01-.611-.801 3.202 3.202 0 01-.295-2.892m10.223 3.243c.28.338.93 1.105 1.396 1.703 1.192 1.505.922 2.555.054 3.252a1.885 1.885 0 01-2.316.07 1.793 1.793 0 01-.463 2.476c-1.274 1.027-2.594.461-3.626-.835-.442-.547-1.002-1.313-1.298-1.715l6.253-4.951zm-2.81 3.472l-2.138 1.69.74 1.005c.727.906 1.55 1.162 2.313.546.764-.616.608-1.331-.106-2.23l-.808-1.011zm2.694-2.144l-2.02 1.617.794 1.003a1.384 1.384 0 00.92.631 1.375 1.375 0 001.085-.259c.664-.514.653-1.23-.004-2.074l-.748-.902m5.114 4.651l3.223 3.183-.656.647-2.523-2.494-1.821 1.85 2.288 2.258-.656.647-2.275-2.249-1.888 1.9 2.62 2.572-.643.656-3.306-3.254 5.638-5.716zm.238 10.111l.734.456a11.198 11.198 0 004.36-3.6l.998-1.198 3.715 2.798-4.275 5.689.869.649-1.488 1.93-.774-.481.932-1.239-4.953-3.731-.919 1.247-.787-.489 1.588-2.031zm1.542 1.176l3.262 2.444 3.729-4.955-2.257-1.693-.946 1.085a10.519 10.519 0 01-3.754 3.122m11.062-.895l3.95 2.217-.442.799-3.098-1.743-1.276 2.262 2.801 1.577-.454.79-2.802-1.577-1.312 2.349 3.199 1.787-.45.812-4.04-2.274 3.924-6.999zm9.812 9.529l-4.092-1.633-1.365 3.37-.903-.361 2.989-7.451.903.36-1.288 3.218 4.084 1.646 1.296-3.23.903.36-2.976 7.46-.902-.361 1.351-3.378zm8.839-2.113a4.123 4.123 0 11-4.739 5.492 4.126 4.126 0 01-.163-2.393 3.951 3.951 0 014.902-3.099zm-1.636 7.145a3.205 3.205 0 003.413-1.137 3.218 3.218 0 00.216-3.592 3.221 3.221 0 00-1.39-1.268 3.212 3.212 0 00-4.5 2.175 3.085 3.085 0 001.145 3.304c.334.246.713.422 1.116.518zm11.595-5.531a64.5 64.5 0 012.198.002c1.908.058 2.562.937 2.542 2.052a1.886 1.886 0 01-1.436 1.816 1.792 1.792 0 011.609 1.945c-.046 1.626-1.313 2.293-2.96 2.252-.711-.024-1.751-.106-2.153-.102l.2-7.965zm.955.921l-.066 2.595 1.287.035a1.37 1.37 0 001.568-1.298c.029-.837-.518-1.303-1.589-1.333l-1.2.001zm-.089 3.453l-.079 2.732c.275.026.778.065 1.241.08 1.183.026 1.892-.443 1.92-1.425.028-.982-.634-1.321-1.796-1.352l-1.286-.035zm12.842-5.14l.823-.125 4.711 7.398-1.035.175-1.409-2.238-3.604.596-.611 2.566-.972.16 2.097-8.532zm-.28 4.843l2.851-.465-1.983-3.159-.868 3.624zm7.587 1.086l.814-.258a11.007 11.007 0 00-.377-5.688l-.397-1.556 4.512-1.414 2.121 6.771 1.034-.321.734 2.274-.865.28-.444-1.421-5.962 1.878.452 1.408-.864.281-.758-2.234zm1.836-.587l3.884-1.223-1.809-5.868-2.663.836.328 1.403c.485 1.581.592 3.255.312 4.885m7.95-7.254c.374-.222.703-.4.921-.518 1.809-.895 3.1-.456 3.765.902s.041 2.861-1.681 3.791l-1.653.791-3.584-7.225.865-.427 1.367 2.686zm.408.835l1.382 2.84.882-.397c1.163-.587 1.573-1.423 1.056-2.434-.516-1.012-1.333-1.102-2.488-.528-.3.147-.591.313-.871.495l.039.024zm3.005-5.895l.877-.419 3.553 7.188-.873.439-3.557-7.208zm3.52-2.133l3.71-2.495.512.755-2.904 1.958 3.977 5.888-.8.558-4.495-6.664zm5.367-3.82l3.451-2.927.587.693-2.7 2.302 1.683 1.973 2.437-2.085.601.701-2.451 2.076 1.745 2.047 2.784-2.378.601.7-3.543 3.016-5.195-6.118zm5.482-4.911l3.079-3.322.671.617-2.417 2.606 1.903 1.764 2.172-2.359.684.625-2.185 2.35 1.973 1.826 2.487-2.69.671.617-3.149 3.405-5.889-5.439zM60.495 85.887a3.985 3.985 0 014.13-2.004 3.982 3.982 0 011.512.583A4.029 4.029 0 0167.6 90.1a3.969 3.969 0 01-5.594 1.433 3.999 3.999 0 01-1.472-5.623l-.04-.024zm6.35 3.763a3.09 3.09 0 00-1.2-4.273 3.087 3.087 0 00-4.569 3.42 3.09 3.09 0 001.416 1.894 3.086 3.086 0 004.251-.995m4.467-5.291l-6.232-5.034c.236-.38.959-1.223 1.296-1.65 1.44-1.794 2.784-1.559 3.791-.752a2.562 2.562 0 01.146 3.835c-.163.262-.507.612-.784.912l2.427 1.944-.644.745zm-4.91-5.231l2.418 1.956c.204-.328.53-.56.773-.864.75-.916.72-1.862-.068-2.496-.787-.635-1.506-.5-2.37.454-.171.275-.506.667-.74.958m9.877-.693l-5.454-5.879.706-.67 4.363 4.71-.787-8.014.637-.586 5.454 5.879-.72.661-4.362-4.71.791 8.036-.628.573zm2.947-13.123l3.647-2.57.534.75-2.868 2.017 4.094 5.816-.8.557-4.607-6.57zm10.142 2.799l-3.691-7.11.859-.447 2.955 5.69 1.37-7.948.772-.393 3.683 7.123-.86.448-2.955-5.69-1.362 7.934-.771.393zm12.917-9.493l-4.183 1.383 1.144 3.455-.915.304L95.7 56.2l.928-.296 1.091 3.277 4.183-1.382-1.096-3.299.923-.317 2.543 7.615-.924.317-1.152-3.443zm6.218-5.963l.83-.138 4.819 7.283-1.022.184-1.438-2.221-3.634.615-.576 2.568-.98.174 2.001-8.465zm-.225 4.841l2.841-.507-2.032-3.08-.809 3.587zm12.711-5.093l-2.873.033-.105 1.516c-.319 5.111-1.38 5.797-2.628 5.64l-.063-.894c.571.046 1.529-.268 1.741-5.5l.072-1.609 4.803-.125.225 8.011-.967.036-.205-7.108zm5.985 2.348c.428.012.857.024 1.124.062 2.059.225 2.851 1.262 2.737 2.791-.113 1.53-1.53 2.467-3.516 2.27-.687-.063-1.406-.164-1.866-.214l.868-7.986.968.11-.315 2.967zm-.099.92l-.347 3.166.998.147c1.311.142 2.144-.322 2.278-1.475.134-1.153-.589-1.656-1.887-1.79a8.633 8.633 0 00-1.042-.048zm12.402 2.807l-4.272-1.109-.901 3.531-.942-.24 1.993-7.779.941.24-.858 3.375 4.267 1.088.872-3.367.933.252-1.984 7.766-.942-.24.893-3.517zm8.506-1.665l.769.314.009 8.768-.947-.406-.012-2.644-3.331-1.397-1.89 1.844-.907-.381 6.309-6.098zm-2.802 3.93l2.662 1.128-.037-3.66-2.625 2.533zm10.332 5.617l-1.312-.815-3.334 1.565-.944-.587 3.53-1.588a2.376 2.376 0 01-.213-2.733c.766-1.233 2.17-1.797 4.065-.693l1.587.986-4.077 6.922-.813-.505 1.511-2.552zm.48-.775l1.694-2.73-.997-.618a1.692 1.692 0 00-2.016-.06 1.709 1.709 0 00-.488.522 1.656 1.656 0 00.393 2.062l1.414.824zm13.146 6.165l-3.226-2.913-4.769 5.254-.724-.649 5.394-5.94 4.665 4.226-5.381 5.947-.723-.65 4.764-5.275zm-1.773 8.37l6.152-5.141 1.371 1.597c1.453 1.757.944 3.077-.024 3.875a2.567 2.567 0 01-3.05.211 2.563 2.563 0 01-.768-.764c-.192-.247-.504-.623-.738-.95l-2.352 1.976-.591-.804zm6.018-3.843l-2.381 1.993c.233.327.448.624.711.933.762.91 1.692 1.051 2.451.414.759-.638.871-1.404.007-2.414l-.788-.926zm7.468 8.442a3.972 3.972 0 01-1.359 5.645 4.091 4.091 0 01-4.9-6.503 4.087 4.087 0 016.259.858zm-6.254 3.84a3.084 3.084 0 003.23 1.382 3.076 3.076 0 001.138-.486 3.082 3.082 0 001.593-1.932 3.1 3.1 0 00-1.255-3.396 3.084 3.084 0 00-3.616.129 3.092 3.092 0 00-1.137 4.292m2.846 4.647l.343.795a11.42 11.42 0 005.577-.935l1.507-.555 1.845 4.346-6.549 2.766.426 1.011-2.214.933-.353-.837 1.365-.589-2.431-5.745-1.364.588-.366-.845 2.214-.933zm.726 1.76l1.581 3.745 5.7-2.422-1.14-2.525-1.351.45c-1.522.645-3.175.92-4.823.804m4.886 10.816c-1.326-.205-2.054-.584-2.295-1.425a1.78 1.78 0 01.018-1.025l.89.117a.988.988 0 00-.038.648 1.15 1.15 0 001.039.755l.327.058 4.831-5.033.283 1.067-4.074 4.194 5.486.791.245.951-6.712-1.098zm7.258 4.391l.125.969-7.907 1.032-.126-.969 7.908-1.032zm-3.502 2.715l-3.742 4.274-.156-1.242 3.715-4.054 4.257 3.007.149 1.165-4.223-3.15zm4.433 6.78l-.02.969-7.107-.143-.071 4.301 7.094.135-.02.969-7.094-.135-.024 1.094-2.409-.042.022-.914 1.495.02.114-6.419 8.02.165zm-8.462 9.551l7.889 1.428-.179.962-6.307-1.137 5.443 5.926-.148.853-7.889-1.429.166-.969 6.321 1.145-5.457-5.934.161-.845zm-.467 14.299l.472-1.434-2.15-2.917.339-1.043 2.284 3.109a2.426 2.426 0 012.597-.731c1.364.466 2.216 1.758 1.52 3.816-.172.511-.475 1.322-.628 1.772l-7.603-2.56.333-.975 2.836.963zm.874.288l3.013 1c.139-.223.265-.69.378-1.02.117-.217.184-.458.198-.704a1.683 1.683 0 00-.526-1.329 1.712 1.712 0 00-.628-.378 1.646 1.646 0 00-1.926.821l-.509 1.61z" fill="#BB9753"/><path fill-rule="evenodd" clip-rule="evenodd" d="M58.232 103.898a1.557 1.557 0 11-2.843-1.275 1.55 1.55 0 01.867-.819 1.554 1.554 0 012.01.902 1.554 1.554 0 01-.034 1.192zm120.413 53.806a1.54 1.54 0 01-2.301.622 1.542 1.542 0 01-.611-1.601 1.551 1.551 0 011.242-1.179 1.545 1.545 0 011.67 2.158z" fill="#BB9753"/></svg>