<svg width="85" height="94" fill="none" xmlns="http://www.w3.org/2000/svg"><path fill-rule="evenodd" clip-rule="evenodd" d="M72.618 27.58c-.346 0-.693-.347-.693-.695V4.9c0-.348.347-.695.693-.695.462 0 .693.347.693.695v21.87c0 .463-.231.81-.693.81z" fill="#E41D2C"/><path fill-rule="evenodd" clip-rule="evenodd" d="M84.05 33.481c.809 15.969-21.94 17.357-22.864 0H84.05z" fill="#fff"/><path fill-rule="evenodd" clip-rule="evenodd" d="M61.994 34.06c.693 7.984 6.467 11.456 11.548 11.108 4.85-.231 9.815-3.818 9.815-11.108H61.994zm10.97 12.613c-5.774 0-11.894-4.05-12.356-13.192 0-.231.116-.347.231-.578.231-.116.347-.232.578-.232H84.28c.347 0 .693.347.693.694.462 8.332-5.312 12.96-11.201 13.308h-.809z" fill="#E41D2C"/><path fill-rule="evenodd" clip-rule="evenodd" d="M66.844 39.383c-5.427-1.852-7.275-5.902-4.157-9.026 3.118-3.124 10.277-4.282 15.705-2.43 5.543 1.851 7.39 5.901 4.157 9.026-3.118 3.124-10.162 4.281-15.705 2.43z" fill="#fff"/><path fill-rule="evenodd" clip-rule="evenodd" d="M67.075 38.688c5.312 1.736 12.01.695 14.897-2.314 1.039-1.041 1.5-2.314 1.27-3.587-.462-1.736-2.31-3.356-5.197-4.397-5.196-1.736-11.894-.695-14.896 2.314-1.04 1.157-1.502 2.314-1.155 3.587.346 1.852 2.31 3.472 5.081 4.397zm5.427 2.315c-1.963 0-4.041-.348-5.889-.926-3.349-1.157-5.543-3.124-6.12-5.323-.347-1.736.23-3.471 1.616-4.86 3.35-3.356 10.624-4.513 16.398-2.546 3.35 1.157 5.543 3.125 6.12 5.323.347 1.736-.23 3.472-1.616 4.86-2.194 2.199-6.236 3.472-10.509 3.472z" fill="#E41D2C"/><path fill-rule="evenodd" clip-rule="evenodd" d="M66.844 39.383c-1.04-.348-1.963-.81-2.656-1.273 3.464-2.199 9.47-2.893 14.204-1.273 1.04.347 1.963.81 2.771 1.273-3.695 2.314-9.469 2.893-14.319 1.273z" fill="#fff"/><path fill-rule="evenodd" clip-rule="evenodd" d="M67.075 38.688c4.042 1.389 9.007 1.042 12.472-.578-.462-.232-.924-.463-1.502-.579-4.041-1.388-9.007-1.041-12.471.579a8.01 8.01 0 001.501.578zm5.543 2.315a20.4 20.4 0 01-6.005-.926c-1.04-.347-2.079-.81-2.887-1.389a.885.885 0 01-.23-.578c0-.232.115-.463.346-.579 3.81-2.43 9.93-3.008 14.78-1.388 1.04.347 1.964.81 2.888 1.388a.637.637 0 01.346.579.636.636 0 01-.346.578c-2.425 1.505-5.659 2.315-8.892 2.315zm10.162-3.588c-.347 0-.578-.231-.693-.462L72.271 5.015c-.115-.347.116-.81.462-.925.347-.116.809.115.924.462l9.816 31.822c.115.347-.116.81-.462.926-.116.115-.116.115-.231.115z" fill="#E41D2C"/><path fill-rule="evenodd" clip-rule="evenodd" d="M61.763 36.027h-.23c-.463-.116-.578-.579-.463-.926L71.58 4.668c.115-.347.577-.578.923-.463.347.116.578.579.462.926L62.456 35.564c-.116.231-.462.463-.693.463z" fill="#E41D2C"/><path fill-rule="evenodd" clip-rule="evenodd" d="M71.579 7.677c1.732.463 3.58-.579 4.041-2.315.462-1.735-.577-3.587-2.31-4.05-1.731-.463-3.579.579-4.04 2.315-.578 1.735.576 3.471 2.309 4.05z" fill="#fff"/><path fill-rule="evenodd" clip-rule="evenodd" d="M71.81 6.982c1.385.348 2.771-.462 3.117-1.851.347-1.389-.461-2.777-1.847-3.24-1.386-.347-2.887.463-3.234 1.851-.346 1.389.578 2.778 1.964 3.24zm.577 1.505c-.347 0-.693 0-1.04-.116-2.078-.579-3.348-2.777-2.77-4.976.577-2.198 2.77-3.471 4.85-2.893 2.078.579 3.348 2.778 2.886 4.976a4.089 4.089 0 01-3.926 3.009z" fill="#262626"/><path fill-rule="evenodd" clip-rule="evenodd" d="M12.108 62.757c-.462 0-.693-.347-.693-.694V40.077c0-.347.346-.694.693-.694.346 0 .692.347.692.694v21.87c.116.463-.23.81-.692.81z" fill="#E41D2C"/><path fill-rule="evenodd" clip-rule="evenodd" d="M23.54 68.543C24.348 84.51 1.6 85.9.79 68.543h22.75z" fill="#fff"/><path fill-rule="evenodd" clip-rule="evenodd" d="M1.484 69.237c.692 7.984 6.466 11.34 11.547 11.109 4.85-.232 9.931-3.819 9.816-11.109H1.484zm10.97 12.613C6.68 81.85.56 77.8.098 68.659c0-.232.115-.348.23-.58a.881.881 0 01.578-.23h22.75c.461 0 .692.347.692.694.462 8.331-5.312 12.96-11.201 13.307h-.693z" fill="#E41D2C"/><path fill-rule="evenodd" clip-rule="evenodd" d="M6.45 74.56c-5.428-1.852-7.391-5.902-4.158-9.026 3.118-3.124 10.162-4.281 15.705-2.43 5.427 1.852 7.275 5.902 4.157 9.026-3.233 3.124-10.277 4.166-15.705 2.43z" fill="#fff"/><path fill-rule="evenodd" clip-rule="evenodd" d="M12.108 62.873c-3.811 0-7.391 1.157-9.47 3.124-1.039 1.157-1.5 2.314-1.154 3.587.462 1.736 2.31 3.356 5.196 4.397 5.312 1.736 12.01.695 14.897-2.198 1.039-1.157 1.501-2.315 1.154-3.587-.346-1.736-2.309-3.356-5.196-4.398-1.617-.694-3.464-.925-5.427-.925zm0 13.191c-1.963 0-4.042-.347-5.89-.925C2.87 73.98.675 72.013.213 69.815c-.462-1.736.231-3.472 1.617-4.86 3.35-3.355 10.624-4.512 16.398-2.545 3.349 1.157 5.543 3.124 6.005 5.323.462 1.735-.231 3.471-1.617 4.86-2.31 2.198-6.351 3.471-10.508 3.471z" fill="#E41D2C"/><path fill-rule="evenodd" clip-rule="evenodd" d="M6.45 74.56c-1.04-.347-1.964-.81-2.772-1.273 3.58-2.199 9.469-2.893 14.204-1.273 1.039.347 1.963.81 2.77 1.273-3.579 2.199-9.468 2.777-14.203 1.273z" fill="#fff"/><path fill-rule="evenodd" clip-rule="evenodd" d="M5.179 73.287c.462.231.924.463 1.501.579 4.042 1.388 9.007 1.041 12.472-.579-.462-.231-.924-.463-1.502-.579-3.926-1.388-9.007-1.157-12.471.58zm6.929 2.777c-1.964 0-4.042-.347-6.005-.925-1.04-.348-1.963-.81-2.887-1.39a.636.636 0 01-.347-.578c0-.231.116-.463.347-.578 3.81-2.43 9.93-3.009 14.78-1.389 1.04.347 1.964.81 2.888 1.389.23.115.346.347.346.578 0 .232-.23.463-.346.579-2.31 1.62-5.428 2.314-8.776 2.314zm10.162-3.587c-.347 0-.578-.231-.693-.463L11.76 40.193c-.115-.347.116-.81.462-.926.346-.116.693.116.808.463l9.816 31.821c.115.347-.116.81-.462.926h-.115z" fill="#E41D2C"/><path fill-rule="evenodd" clip-rule="evenodd" d="M1.253 71.088h-.231c-.347-.115-.578-.578-.462-.925L11.184 39.73c.115-.347.577-.579.924-.463.346.116.577.578.461.926L1.947 70.626c-.116.347-.347.462-.693.462z" fill="#E41D2C"/><path fill-rule="evenodd" clip-rule="evenodd" d="M71.463 3.395c-.346-.115-.577-.231-.924-.115L40.746 20.52c.578-.231 1.155.232 1.501.694.462.579.809 1.389.693 2.083a.636.636 0 01-.346.579L72.502 6.52c.347-.232.347-.579.347-.926-.116-.81-.578-1.736-1.386-2.199z" fill="#fff"/><path fill-rule="evenodd" clip-rule="evenodd" d="M42.478 20.405c.116.116.347.232.347.348.346.347.692 1.04.808 1.62L72.156 5.94v-.347c0-.579-.462-1.273-.924-1.62l.347-.579-.347.579c-.23 0-.346-.116-.346-.116L42.478 20.405zm.231 4.05a.635.635 0 01-.577-.347c-.231-.347-.116-.81.23-.925.116-.463-.115-1.042-.461-1.505-.347-.347-.578-.463-.693-.463-.346.232-.808 0-.924-.347-.23-.347-.115-.81.347-.925L70.193 2.7c.462-.231 1.04-.231 1.617.116h.115c.808.578 1.617 1.735 1.617 2.777 0 .694-.231 1.273-.693 1.62L43.056 24.455h-.347zm1.039 45.939c-5.889 0-11.547 1.736-14.665 4.86-1.732 1.736-2.425 3.819-1.963 5.786.692 2.893 3.695 5.438 8.199 6.943 8.198 2.661 18.591 1.157 23.21-3.587 1.848-1.736 2.426-3.819 1.964-5.786-.693-2.893-3.696-5.439-8.084-6.943-2.771-.926-5.774-1.273-8.66-1.273zm-.115 20.25c-3.003 0-6.12-.463-8.892-1.388-4.965-1.62-8.314-4.513-9.123-7.985-.577-2.43.347-4.975 2.426-7.058 4.965-4.976 16.05-6.712 24.712-3.934 4.965 1.62 8.314 4.512 9.122 7.984.578 2.43-.23 4.975-2.31 7.058-3.463 3.472-9.584 5.323-15.935 5.323z" fill="#262626"/><path fill-rule="evenodd" clip-rule="evenodd" d="M27.12 84.164c.462 2.314 2.425 4.05 3.58 4.86 5.889 4.05 15.127 4.282 21.247 2.315 3.696-1.158 7.737-3.588 8.43-7.175-3.118 4.166-9.469 6.017-14.55 6.365-5.543.347-13.626-.81-18.014-5.44-.231-.23-.462-.578-.693-.925zM43.633 94c-4.85 0-9.931-1.041-13.742-3.703-1.616-1.041-4.272-3.471-4.388-6.827v-3.356c0-.347.346-.694.693-.694.346 0 .693.231.693.694.115 1.62.693 2.893 1.963 4.166 3.695 3.934 11.086 5.323 16.86 4.976 4.85-.347 11.085-2.083 13.741-6.133.693-.926.924-1.852 1.04-3.009 0-.347.346-.694.693-.694.346 0 .693.347.693.694v.694c0 1.39 0 2.778-.116 3.24-.693 5.555-7.39 8.1-9.47 8.68-2.424.81-5.427 1.272-8.66 1.272z" fill="#262626"/><path fill-rule="evenodd" clip-rule="evenodd" d="M43.748 70.973c-3.81 0-7.506 1.157-9.584 3.124-1.04 1.157-1.501 2.314-1.27 3.587.462 1.852 2.425 3.472 5.312 4.397 5.311 1.736 12.125.695 15.127-2.314 1.04-1.157 1.617-2.314 1.27-3.587-.462-1.852-2.31-3.472-5.312-4.397-1.732-.463-3.695-.81-5.542-.81zm-.115 13.423c-1.963 0-4.042-.347-6.005-.926-3.349-1.157-5.658-3.124-6.12-5.439-.462-1.735.115-3.471 1.616-4.975 3.35-3.356 10.855-4.513 16.63-2.662 3.348 1.157 5.658 3.124 6.12 5.439.462 1.736-.231 3.471-1.617 4.976-2.194 2.314-6.351 3.587-10.624 3.587z" fill="#262626"/><path fill-rule="evenodd" clip-rule="evenodd" d="M33.47 81.156c.578.81 1.271 1.504 1.849 1.851 3.81 2.662 9.815 2.777 13.857 1.504 1.847-.578 3.926-1.735 4.85-3.355-2.194 2.083-5.89 3.124-8.892 3.24-3.58.231-8.66-.463-11.663-3.24zm10.279 5.438c-3.35 0-6.698-.694-9.239-2.545-1.847-1.273-2.887-3.009-3.002-4.745v-2.198c0-.347.346-.695.693-.695.346 0 .693.232.808.695.115 1.041.462 1.851 1.155 2.661 2.425 2.546 7.275 3.472 10.97 3.24 3.118-.231 7.16-1.388 8.892-3.934a4.961 4.961 0 00.693-1.967c0-.347.23-.695.693-.695.346 0 .693.347.693.695v2.661c-.462 3.819-5.081 5.554-6.467 5.902-1.732.694-3.81.925-5.89.925z" fill="#262626"/><path fill-rule="evenodd" clip-rule="evenodd" d="M45.25 78.031c.346-.231.577-.463.577-.81V23.645c0 .695-.808 1.042-1.386 1.157-.693.232-1.847.116-2.425-.462-.23-.116-.346-.348-.346-.695v53.46c0 .463.462.81.808.926.809.463 1.963.463 2.772 0z" fill="#fff"/><path fill-rule="evenodd" clip-rule="evenodd" d="M44.903 77.337l.347.579-.347-.579c.231-.116.231-.231.347-.231V25.38c-.231.116-.347.116-.578.116-.693.116-1.616.116-2.31-.116v51.84s.116.232.463.347c.577.116 1.5.116 2.078-.23zm-1.154 1.736a3.19 3.19 0 01-1.502-.347c-.808-.347-1.386-.926-1.386-1.62v-53.46c0-.348.347-.695.693-.695.347 0 .693.347.693.694l.116.116c.462.347 1.386.463 1.963.347.462-.116.808-.347.808-.463 0-.347.347-.694.693-.694h.116c.346 0 .692.347.692.694v53.46c0 .58-.346 1.042-.923 1.505h-.116c-.577.347-1.155.463-1.847.463z" fill="#262626"/><path fill-rule="evenodd" clip-rule="evenodd" d="M42.132 27.927c3.464.926 7.16-1.157 8.083-4.629.924-3.471-1.155-7.174-4.619-8.1-3.464-.925-7.16 1.157-8.083 4.629-.924 3.587 1.154 7.174 4.619 8.1z" fill="#fff"/><path fill-rule="evenodd" clip-rule="evenodd" d="M43.98 15.777c-2.657 0-4.966 1.736-5.659 4.397-.462 1.504-.231 3.124.577 4.513.809 1.388 1.963 2.314 3.465 2.777 1.616.463 3.118.231 4.503-.579 1.386-.81 2.31-2.083 2.772-3.587.462-1.504.23-3.124-.578-4.513-.808-1.388-2.078-2.314-3.58-2.777-.577-.231-1.039-.231-1.5-.231zm0 13.191c-.694 0-1.27-.116-1.964-.231-1.847-.463-3.464-1.736-4.388-3.356a7.777 7.777 0 01-.693-5.554c1.04-3.935 4.966-6.249 9.008-5.207 1.847.463 3.464 1.735 4.388 3.355a7.777 7.777 0 01.693 5.555c-.462 1.851-1.733 3.471-3.35 4.397-1.27.694-2.424 1.041-3.695 1.041z" fill="#262626"/><path fill-rule="evenodd" clip-rule="evenodd" d="M40.746 21.215c-.346-.115-.577-.231-.924-.115L10.03 38.34c.577-.231 1.155.232 1.501.694.462.579.809 1.389.693 2.083a.636.636 0 01-.346.579L41.67 24.455c.346-.231.346-.578.346-.925 0-.926-.462-1.968-1.27-2.315z" fill="#fff"/><path fill-rule="evenodd" clip-rule="evenodd" d="M11.761 38.11l.347.347c.346.347.692 1.041.808 1.62l28.407-16.432v-.347c0-.578-.462-1.273-.923-1.62l.346-.578-.346.694c-.116-.116-.231-.116-.231-.116L11.76 38.11zm.116 4.166a.635.635 0 01-.578-.348c-.23-.347-.115-.81.231-.925.116-.463-.115-1.042-.462-1.505-.346-.462-.693-.578-.693-.578-.346.115-.808 0-.923-.347-.231-.348-.116-.81.346-.926l29.793-17.242c.462-.231 1.04-.231 1.617.116h.115c.809.579 1.617 1.736 1.617 2.777 0 .695-.23 1.273-.693 1.62L12.223 42.16c-.115.116-.23.116-.346.116z" fill="#262626"/><path fill-rule="evenodd" clip-rule="evenodd" d="M11.068 42.738c1.732.463 3.58-.578 4.042-2.314.462-1.736-.577-3.587-2.31-4.05-1.847-.463-3.58.579-4.041 2.314-.462 1.736.577 3.587 2.31 4.05z" fill="#fff"/><path fill-rule="evenodd" clip-rule="evenodd" d="M11.3 42.044c1.385.347 2.886-.463 3.233-1.851.346-1.389-.462-2.778-1.848-3.24-1.386-.348-2.771.462-3.118 1.851-.462 1.504.347 2.893 1.732 3.24zm.577 1.504c-.347 0-.693 0-1.04-.115-2.078-.579-3.349-2.778-2.887-4.976a4.028 4.028 0 014.966-2.893c2.079.579 3.349 2.777 2.771 4.976-.346 1.851-1.963 3.008-3.81 3.008z" fill="#E41D2C"/></svg>