<svg width="90" height="89" fill="none" xmlns="http://www.w3.org/2000/svg"><path fill-rule="evenodd" clip-rule="evenodd" d="M7.028 53.094v.215l-1.278.858c.213-.215.213-.215.213-.43 0-.857 0-1.5.213-2.145.426-1.287.852-2.36 2.13-3.003l5.964-3.647v1.716l-5.325 3.004c-1.065.858-1.704 1.93-1.917 3.432z" fill="#fff"/><path fill-rule="evenodd" clip-rule="evenodd" d="M13.63 46.23l-5.11 2.788c-.64.43-1.066.858-1.492 1.716a4.994 4.994 0 011.491-1.501l5.112-3.004zm-8.093 8.58c-.213 0-.426 0-.638-.214-.213-.215-.213-.644 0-.858 0-.858.212-1.502.212-2.36.426-1.502 1.065-2.574 2.343-3.432l6.177-3.647c.213-.215.426-.215.639 0 .639.214.852.429.852.643v1.716c0 .215-.213.43-.426.644L9.37 50.52c-.852.429-1.278 1.502-1.49 2.574v.215c0 .214-.214.429-.427.429l-1.278.858c-.213.214-.426.214-.639.214z" fill="#262626"/><path fill-rule="evenodd" clip-rule="evenodd" d="M24.067 52.45c-1.49-3.003-6.176-7.722-9.797-5.792l-5.325 3.004c4.047-2.145 8.52 3.003 10.224 6.65 1.49 3.003 2.768 8.58-.427 10.511 1.065-.643 5.325-3.003 5.964-3.646 2.769-2.36 1.065-7.723-.639-10.727z" fill="#fff"/><path fill-rule="evenodd" clip-rule="evenodd" d="M12.14 48.804c.213 0 .426 0 .426.214 2.982 1.073 5.963 4.29 7.241 7.08 1.065 2.145 2.13 5.791 1.278 8.795 1.278-.858 2.769-1.716 2.982-1.93 2.343-2.36.852-7.295-.852-10.083-1.065-1.931-3.408-4.72-6.177-5.578-1.064-.215-1.916-.215-2.768.215l-2.13 1.287zm6.602 18.878c-.213 0-.426-.215-.639-.43-.213-.428 0-.858.213-.858 2.77-1.716 1.704-6.864.213-9.653-1.277-2.574-4.046-5.578-6.39-6.436-1.064-.429-1.916-.214-2.98.215-.427.214-.853 0-.853-.215-.213-.429 0-.858.213-.858l5.325-3.003c1.065-.644 2.343-.644 3.833-.215 2.77.858 5.751 3.862 7.029 6.222 1.49 2.788 3.62 8.795.426 11.798-.426.43-2.769 1.716-5.112 3.218l-.852.215h-.426z" fill="#262626"/><path fill-rule="evenodd" clip-rule="evenodd" d="M18.742 55.668c-1.277-2.145-2.981-4.075-4.898-5.148-1.917-1.287-3.62-1.287-4.899-.644-1.278.644-2.13 2.36-2.13 4.505s.852 4.72 2.13 6.865c1.278 2.145 2.982 4.076 4.899 5.148 1.917 1.073 3.62 1.288 4.898.43 1.278-.644 2.13-2.36 2.13-4.505 0-2.146-.852-4.505-2.13-6.65z" fill="#fff"/><path fill-rule="evenodd" clip-rule="evenodd" d="M10.862 50.09c-.639 0-1.065.215-1.49.43-1.066.643-1.705 1.93-1.705 3.861 0 2.145.64 4.29 1.917 6.65 1.278 2.146 2.982 3.862 4.686 4.934 1.704.858 3.195 1.073 4.26.43 1.064-.644 1.703-1.931 1.703-3.862 0-2.145-.639-4.29-1.916-6.65-1.278-2.145-2.982-3.861-4.686-4.934-1.065-.644-2.13-.858-2.769-.858zm6.177 18.235c-1.065 0-2.343-.429-3.408-1.073-1.917-1.072-3.834-3.003-5.112-5.577-1.278-2.36-2.13-4.934-2.13-7.294 0-2.36.852-4.29 2.343-5.148 1.491-.858 3.621-.644 5.538.429 1.917 1.072 3.834 3.003 5.111 5.577 1.278 2.36 2.13 4.934 2.13 7.294 0 2.36-.852 4.29-2.342 5.149-.64.429-1.491.643-2.13.643z" fill="#262626"/><path fill-rule="evenodd" clip-rule="evenodd" d="M16.613 56.956c.639 1.287 1.064 2.574 1.064 3.86 0 1.288-.425 2.146-1.064 2.575-.64.43-1.704.43-2.77-.214-1.064-.858-1.916-1.931-2.768-3.218-.639-1.287-1.065-2.575-1.065-3.647 0-1.287.426-2.145 1.065-2.574.639-.43 1.704-.43 2.769.214a7.555 7.555 0 012.769 3.004z" fill="#fff"/><path fill-rule="evenodd" clip-rule="evenodd" d="M12.14 54.167c-.213 0-.426 0-.639.214-.426.215-.852.858-.852 1.931s.426 2.36 1.065 3.432c.639 1.288 1.49 2.146 2.556 2.79.852.428 1.49.643 1.917.214.426-.43.851-1.073.851-2.146 0-1.072-.425-2.36-1.064-3.432-.64-1.073-1.491-2.145-2.556-2.574-.426-.215-.852-.43-1.278-.43zm3.408 10.082c-.64 0-1.278-.214-2.13-.643-1.065-.644-2.13-1.716-2.982-3.218-.852-1.502-1.278-2.789-1.278-4.076 0-1.502.64-2.574 1.491-3.003.852-.644 2.13-.43 3.408.214 1.065.644 2.13 1.716 2.981 3.218.852 1.287 1.278 2.789 1.278 4.076 0 1.502-.425 2.574-1.49 3.003-.213.215-.852.43-1.278.43z" fill="#262626"/><path fill-rule="evenodd" clip-rule="evenodd" d="M41.319 74.332l1.277-.644v.215l-1.277.858v-.43z" fill="#fff"/><path fill-rule="evenodd" clip-rule="evenodd" d="M41.105 75.404c-.212 0-.425-.214-.638-.214-.213-.215-.213-.644 0-.858 0-.215.212-.43.425-.43l1.278-.643c.213-.214.426-.214.64 0 .212.215.425.43.212.644v.214c0 .215-.213.43-.426.43l-1.278.857h-.213z" fill="#262626"/><path fill-rule="evenodd" clip-rule="evenodd" d="M46.643 74.332l5.325-3.003-5.325 3.003z" fill="#fff"/><path fill-rule="evenodd" clip-rule="evenodd" d="M46.643 74.975c-.213 0-.426-.214-.639-.429-.213-.429 0-.858.213-.858l5.325-3.003c.213-.215.639-.215.852.214v.215c.213.429 0 .858-.213.858l-5.325 3.003h-.213z" fill="#262626"/><path fill-rule="evenodd" clip-rule="evenodd" d="M59.635 73.045c-1.49-3.004-6.176-7.723-9.797-5.792l-5.325 3.003c3.834-2.145 8.52 3.218 10.224 6.65 1.49 3.003 2.768 8.58-.427 10.512 1.065-.644 5.325-3.004 5.964-3.647 2.556-2.36 1.065-7.723-.639-10.726z" fill="#fff"/><path fill-rule="evenodd" clip-rule="evenodd" d="M47.495 69.398c.213 0 .213 0 .426.214 2.982 1.073 5.964 4.29 7.241 7.08 1.065 2.145 2.343 5.792 1.278 8.795 1.278-.858 2.77-1.716 2.982-1.93 2.343-2.36.852-7.294-.852-10.083-.852-1.931-3.408-4.72-6.176-5.578-1.065-.214-1.917-.214-2.77.215l-2.129 1.287zm6.816 18.878c-.214 0-.426-.215-.64-.43-.212-.428 0-.643.214-.857 2.768-1.717 1.703-6.865.212-9.654-1.277-2.574-4.046-5.578-6.389-6.435-1.065-.43-2.13-.215-2.982.214-.426.215-.852 0-.852-.215-.213-.429 0-.858.213-.858l5.325-3.003c1.065-.644 2.343-.644 3.834-.214 2.768.858 5.75 3.86 7.028 6.22 1.49 2.79 3.62 8.796.426 11.8-.639.428-2.769 1.716-5.112 3.217l-1.065.644c0-.43-.213-.43-.213-.43z" fill="#262626"/><path fill-rule="evenodd" clip-rule="evenodd" d="M54.31 76.262c-1.278-2.145-2.981-4.076-4.898-5.148-1.917-1.073-3.62-1.287-4.899-.43-1.278.644-2.13 2.36-2.13 4.506 0 2.145.852 4.72 2.13 6.865 1.278 2.145 2.982 4.075 4.899 5.148 1.917 1.073 3.62 1.287 4.898.43 1.278-.644 2.13-2.36 2.13-4.506-.213-2.145-.852-4.72-2.13-6.865z" fill="#fff"/><path fill-rule="evenodd" clip-rule="evenodd" d="M46.217 70.685c-.639 0-1.065.214-1.49.429-1.066.643-1.705 1.93-1.705 3.861 0 2.146.64 4.29 1.917 6.65 1.278 2.146 2.982 3.862 4.686 4.934 1.704.859 3.194 1.073 4.26.43 1.064-.644 1.703-1.931 1.703-3.862 0-2.145-.639-4.29-1.917-6.65l.64-.43-.64.43c-1.277-2.145-2.981-3.861-4.685-4.934-1.065-.644-1.917-.858-2.769-.858zm6.177 18.234c-1.065 0-2.343-.429-3.408-1.072-1.917-1.073-3.834-3.004-5.112-5.578-1.278-2.36-2.13-4.934-2.13-7.294 0-2.36.852-4.29 2.343-5.148 1.491-.858 3.62-.644 5.538.429 1.917 1.072 3.833 3.003 5.111 5.577 1.278 2.36 2.13 4.934 2.13 7.294 0 2.36-.852 4.29-2.343 5.149-.639.429-1.278.643-2.13.643z" fill="#262626"/><path fill-rule="evenodd" clip-rule="evenodd" d="M51.968 77.55c.639 1.287 1.065 2.574 1.065 3.861 0 1.287-.426 2.145-1.065 2.574-.64.43-1.704.43-2.77-.214-1.064-.644-1.916-1.716-2.768-2.789-.639-1.287-1.065-2.574-1.065-3.647 0-1.287.426-2.145 1.065-2.574.64-.43 1.704-.43 2.769.214 1.065.215 2.13 1.288 2.769 2.575z" fill="#fff"/><path fill-rule="evenodd" clip-rule="evenodd" d="M47.495 74.76c-.213 0-.426 0-.639.215-.426.215-.852 1.073-.852 1.931 0 1.073.426 2.145 1.065 3.432.64 1.288 1.491 2.146 2.556 2.79.852.428 1.49.643 1.917.214.426-.215.852-.858.852-1.931s-.426-2.36-1.065-3.432c-.64-1.073-1.491-2.146-2.556-2.575-.213-.429-.852-.643-1.278-.643zm3.62 10.083c-.638 0-1.277-.214-2.129-.643-1.065-.644-2.13-1.716-2.982-3.218-.852-1.502-1.278-2.789-1.278-4.076 0-1.502.426-2.574 1.491-3.003.852-.644 2.13-.43 3.408.214 1.065.644 2.13 1.716 2.982 3.218.852 1.287 1.278 2.789 1.278 4.076 0 1.502-.64 2.574-1.491 3.003-.426.215-.852.43-1.278.43z" fill="#262626"/><path fill-rule="evenodd" clip-rule="evenodd" d="M43.661 69.183l5.538-3.218.639 1.502-5.325 3.003c-1.065.644-1.704 1.716-1.917 3.218l-1.277.644c0-1.502.212-2.575 1.064-3.862.213-.643.64-.858 1.278-1.287z" fill="#fff"/><path fill-rule="evenodd" clip-rule="evenodd" d="M44.087 69.827c-.426.429-.852.643-1.278 1.072 0 .215-.213.215-.213.43a4.994 4.994 0 011.491-1.502l4.899-2.574v-.215l-4.899 2.789zm-2.769 5.363h-.425c-.214-.215-.426-.43-.426-.644 0-1.501.212-2.789 1.065-4.29.425-.858.851-1.073 1.703-1.502l5.538-3.218c.213 0 .426-.214.639 0 .213 0 .426.215.426.43l.639 1.501c.213.43 0 .644-.213.858l-5.538 2.789c-.852.429-1.49 1.502-1.49 2.789 0 .214-.214.429-.427.429l-1.277.643-.213.215z" fill="#262626"/><path fill-rule="evenodd" clip-rule="evenodd" d="M60.487 85.487l27.9-16.09v.43l-27.9 16.089v-.429z" fill="#fff"/><path fill-rule="evenodd" clip-rule="evenodd" d="M60.274 86.774c-.213 0-.426-.215-.639-.215-.213-.214-.213-.643 0-.858 0-.214.213-.429.426-.429l27.9-16.089c.214-.214.427-.214.64 0 .213.215.425.43.425.644v.214s0 .215-.212.215l-.213.214s-.213 0-.213.215L60.487 86.774c0-.215 0 0-.213 0z" fill="#262626"/><path fill-rule="evenodd" clip-rule="evenodd" d="M40.68 74.76l1.703-1.072-1.703 1.073z" fill="#fff"/><path fill-rule="evenodd" clip-rule="evenodd" d="M40.68 75.404c-.213 0-.426-.214-.64-.429-.212-.429 0-.858.214-.858l1.704-1.072c.425-.215.852 0 .852.214.212.215.212.43 0 .644l-.214.214-1.703 1.073c0 .214-.213.214-.213.214z" fill="#262626"/><path fill-rule="evenodd" clip-rule="evenodd" d="M49.625 45.371l27.9-16.089c.64.858 1.065 1.93 1.278 3.003l2.982 14.588c.213.858.64 1.287 1.278 1.716l3.195 1.93c1.704 1.074 2.13 1.717 2.13 2.36v16.733l-27.901 16.09V68.968c0-.644 0-1.073-1.49-1.931l-3.835-2.145a3.332 3.332 0 01-1.277-1.716l-2.982-14.588c-.213-1.287-.64-2.36-1.278-3.218z" fill="#fff"/><path fill-rule="evenodd" clip-rule="evenodd" d="M50.69 45.586c.426.858.852 1.716 1.065 2.574l2.981 14.588c.213.643.426 1.072.852 1.287l3.834 2.145c1.49.858 1.704 1.716 1.704 2.574v15.66l26.41-15.445V52.45c0-.644-.852-1.288-1.704-1.717l-3.195-1.93c-.852-.43-1.278-1.287-1.49-2.146L78.164 32.07c-.213-.858-.425-1.502-.852-2.145L50.69 45.586zm9.797 40.759h-.426c-.213-.215-.426-.429-.426-.644V68.97c0-.43 0-.644-1.065-1.287l-3.834-2.146c-.851-.429-1.277-1.287-1.49-2.145l-2.982-14.587c-.213-1.073-.64-1.717-1.278-2.79 0-.214-.213-.428 0-.643 0-.214.213-.429.426-.429l27.9-16.089c.213-.214.64 0 .852.215.64 1.072 1.065 1.93 1.491 3.217l2.982 14.588c.213.644.426 1.073.852 1.287l3.195 1.93c1.704.859 2.343 1.931 2.343 3.004v16.733c0 .214-.213.429-.426.643L60.7 86.56c0-.215 0-.215-.213-.215z" fill="#262626"/><path fill-rule="evenodd" clip-rule="evenodd" d="M84.34 65.107c-1.277.644-2.129.215-2.129-1.287 0-1.501 1.065-3.218 2.13-3.861 1.278-.644 2.343-.215 2.343 1.287s-1.065 3.218-2.343 3.861z" fill="#fff"/><path fill-rule="evenodd" clip-rule="evenodd" d="M85.406 60.388c-.213 0-.426 0-.64.214-1.064.644-1.916 2.146-1.916 3.218 0 .43.213.644.213.858.213.215.639 0 .852-.214 1.065-.644 1.917-2.145 1.917-3.218 0-.43 0-.644-.213-.858h-.213zm-1.917 5.792c-.426 0-.639 0-.852-.215-.639-.429-1.065-1.072-1.065-2.145 0-1.716 1.065-3.647 2.556-4.505.852-.429 1.704-.429 2.343-.214.639.429 1.065 1.072 1.065 2.145 0 1.716-1.065 3.647-2.556 4.505-.64.214-1.065.429-1.491.429z" fill="#262626"/><path fill-rule="evenodd" clip-rule="evenodd" d="M88.175 69.612v-3.861L60.487 82.054v3.862l27.688-16.304z" fill="#fff"/><path fill-rule="evenodd" clip-rule="evenodd" d="M61.126 82.27v2.359l26.41-15.446v-2.36L61.126 82.27zm-.64 4.29h-.425c-.213-.215-.426-.43-.426-.644v-3.861c0-.215.213-.43.426-.644l27.9-16.304c.214-.214.427-.214.64 0 .213.215.425.43.425.644v3.861c0 .215-.212.43-.425.644L60.7 86.559h-.213z" fill="#262626"/><path fill-rule="evenodd" clip-rule="evenodd" d="M75.396 27.137c.852.644 1.49 1.287 2.13 2.145l-27.901 16.09a10.134 10.134 0 00-2.13-2.146L2.13 16.84h-.213L29.179.965c.426-.214.426-.429 1.065 0l45.152 26.172z" fill="#fff"/><path fill-rule="evenodd" clip-rule="evenodd" d="M3.195 16.625L47.92 42.583c.639.429 1.49 1.072 1.917 1.716L76.46 28.853c-.425-.643-.851-.858-1.49-1.287L29.817 1.394l-.213.215-26.41 15.016zm46.43 29.39c-.213 0-.426-.215-.64-.215-.638-.858-1.277-1.501-1.916-1.93L1.704 17.484c-.213 0-.64-.215-.64-.644 0-.215 0-.644.427-.644L28.965.322c.64-.43.852-.43 1.491 0L75.61 26.708c.852.644 1.703 1.287 2.342 2.36 0 .214.213.429 0 .643 0 .215-.213.43-.426.43l-27.9 16.088c.213-.214.213-.214 0-.214z" fill="#262626"/><path fill-rule="evenodd" clip-rule="evenodd" d="M.639 42.583l1.065.643v3.004L.639 45.8v-3.217z" fill="#fff"/><path fill-rule="evenodd" clip-rule="evenodd" d="M1.704 47.088h-.426l-.852-.43C.213 46.23 0 46.015 0 45.8v-3.217c0-.215.213-.43.426-.644.213-.215.426-.215.639 0l.852.43c.213.214.426.428.426.643v3.218c0 .214-.213.428-.426.643l-.213.215z" fill="#262626"/><path fill-rule="evenodd" clip-rule="evenodd" d="M1.917 43.012l-.213.214v3.003l.213-.214v-3.003z" fill="#fff"/><path fill-rule="evenodd" clip-rule="evenodd" d="M1.704 47.087h-.426c-.213-.214-.426-.429-.426-.643v-3.218c0-.214.213-.429.426-.643l.426-.215c.213-.215.426-.215.639 0 .213.215.426.429.426.644v3.217c0 .215-.213.43-.426.644l-.426.215c0-.215-.213 0-.213 0z" fill="#262626"/><path fill-rule="evenodd" clip-rule="evenodd" d="M1.917 43.012l-.426-.43v-.428l-.852.428 1.065.644.213-.214z" fill="#fff"/><path fill-rule="evenodd" clip-rule="evenodd" d="M1.704 43.87h-.426l-.852-.644C.213 43.011 0 42.797 0 42.583c0-.215.213-.43.426-.644l.639-.43c.213-.214.426-.214.639 0 .213.215.426.43.426.645h.213c.213.214.426.428.426.643 0 .215-.213.43-.426.644l-.426.214c0 .215-.213.215-.213.215z" fill="#262626"/><path fill-rule="evenodd" clip-rule="evenodd" d="M1.49 17.269c0-.43.214-.644.64-.43l45.578 26.387c.852.43 1.49 1.287 2.13 2.145.639.858 1.065 1.931 1.278 3.004l2.981 14.587c.213.644.64 1.287 1.278 1.716l3.834 2.145c1.065.644 1.278 1.073 1.278 1.717v16.947c0 .429-.213.643-.64.429l-1.916-1.073c-.213-.214-.639-.643-.639-1.072 0-2.575-.852-5.363-2.343-7.938-1.49-2.574-3.407-4.72-5.75-6.006-2.13-1.287-4.26-1.502-5.75-.644-1.492.858-2.343 2.574-2.343 5.149 0 .429-.214.643-.64.429-4.26-2.575-14.482-8.581-18.103-10.726-.426-.215-.639-.644-.639-1.073 0-2.574-.852-5.363-2.343-7.937-1.49-2.575-3.407-4.72-5.75-6.007-2.13-1.287-4.26-1.502-5.75-.643-1.492.858-2.344 2.574-2.344 5.148 0 .43-.213.644-.638.43h-.213c-1.065-.644-1.917-1.503-2.556-2.79-.64-1.072-1.065-2.36-1.065-3.646.426-10.083.426-20.166.426-30.248z" fill="#fff"/><path fill-rule="evenodd" clip-rule="evenodd" d="M2.13 17.269h-.64.64zm43.66 50.627c1.278 0 2.556.43 4.047 1.287 2.343 1.287 4.26 3.433 5.963 6.221 1.704 2.79 2.556 5.793 2.556 8.367 0 .214.213.429.213.429l1.49.858V68.54c0-.215 0-.43-1.064-1.073l-3.834-2.36c-.852-.429-1.278-1.287-1.49-2.145L50.69 48.375c-.213-.858-.64-1.931-1.278-2.79-.64-.857-1.278-1.5-1.917-1.93L2.13 17.698v30.033c0 1.073.426 2.145.852 3.218.639.858 1.278 1.716 2.13 2.36.213-2.575 1.064-4.29 2.768-5.363 1.704-1.073 4.047-.858 6.39.643 2.343 1.287 4.26 3.433 5.963 6.221 1.491 2.79 2.343 5.578 2.556 8.367 0 .214.213.429.213.429 1.704 1.072 5.112 3.003 8.52 4.934 3.407 1.93 6.815 4.076 9.158 5.363.212-2.575 1.065-4.29 2.768-5.363.64-.43 1.278-.644 2.343-.644zm14.27 18.878c-.213 0-.426 0-.639-.215l-1.917-1.072c-.639-.43-.852-1.073-.852-1.716 0-2.36-.852-5.149-2.343-7.723-1.49-2.574-3.407-4.72-5.537-5.792-1.917-1.073-3.62-1.287-5.112-.644-1.278.858-2.13 2.36-2.13 4.72 0 .429-.212.858-.425 1.072-.426.215-.64.215-1.065 0-2.343-1.287-6.177-3.647-9.798-5.792a229.93 229.93 0 01-8.306-4.934c-.639-.214-.852-1.072-.852-1.716 0-2.36-.852-5.148-2.343-7.508-1.49-2.574-3.407-4.505-5.324-5.792-1.917-1.073-3.62-1.287-4.899-.644-1.278.644-1.917 2.36-2.13 4.505 0 .43-.213.858-.639 1.073-.425.214-.851.214-1.064 0h-.213a7.555 7.555 0 01-2.77-3.003C1.066 50.305.64 49.017.64 47.73V17.27c0-.429.213-.858.426-1.073.426-.214.852-.214 1.065 0l45.578 26.387c.852.429 1.704 1.287 2.343 2.36.639 1.072 1.065 2.145 1.49 3.217l2.982 14.588c.213.643.426 1.072.852 1.287l3.834 2.145c1.49.858 1.704 1.502 1.704 2.36v16.947c0 .429-.213.858-.426 1.073 0 0-.213.214-.426.214z" fill="#262626"/><path fill-rule="evenodd" clip-rule="evenodd" d="M64.534 76.692c-1.278.643-2.343.214-2.343-1.288 0-1.501 1.065-3.217 2.343-3.861 1.277-.644 2.342-.215 2.342 1.287-.213 1.287-1.065 3.218-2.342 3.862z" fill="#fff"/><path fill-rule="evenodd" clip-rule="evenodd" d="M65.599 71.757c-.213 0-.426 0-.64.215-1.064.644-1.916 2.145-1.916 3.218 0 .429.213.643.213.858.213.214.639 0 .852-.215 1.065-.643 1.916-2.145 1.916-3.217 0-.43-.213-.644-.213-.859-.213.215-.213 0-.213 0zm-2.13 6.007c-.426 0-.64 0-.852-.214-.64-.43-1.065-1.073-1.065-2.146 0-1.716 1.065-3.647 2.556-4.505.852-.429 1.703-.429 2.343-.214.638.429 1.064 1.072 1.064 2.145 0 1.716-1.064 3.647-2.555 4.505-.64.215-1.065.43-1.491.43z" fill="#262626"/><path fill-rule="evenodd" clip-rule="evenodd" d="M52.82 47.087l23.854-13.943 2.981 14.587-23.854 13.944-2.981-14.587z" fill="#fff"/><path fill-rule="evenodd" clip-rule="evenodd" d="M53.672 47.302l2.768 13.086 22.363-12.871-2.768-13.086-22.363 12.871zm2.13 15.017h-.214c-.213 0-.426-.215-.426-.43l-2.981-14.587c0-.215 0-.644.426-.858l23.64-13.73c.214-.214.427-.214.64 0 .213 0 .425.215.425.43l2.982 14.587c0 .215 0 .644-.426.858l-23.64 13.515c0 .215-.214.215-.427.215z" fill="#E41D2C"/><path fill-rule="evenodd" clip-rule="evenodd" d="M55.162 57.6l11.927-6.866 2.13-3.861 6.39-3.647 3.194.858.852 3.647-23.854 13.944-.639-4.076z" fill="#fff"/><path fill-rule="evenodd" clip-rule="evenodd" d="M55.801 58.028l.426 2.574 22.576-13.085-.639-2.79-2.768-.643-5.75 3.218-2.13 3.861c0 .215-.214.215-.214.215l-11.5 6.65zm0 4.29h-.213c-.213 0-.426-.214-.426-.428l-.852-4.076c0-.215 0-.644.426-.858l11.714-6.65 2.13-3.862c0-.215.213-.215.213-.215l6.177-3.432c.213 0 .426-.214.639 0l3.407.858c.213 0 .426.215.426.644l.852 3.647c0 .214 0 .643-.426.858l-23.64 13.3c0 .215-.214.215-.427.215z" fill="#E41D2C"/><path fill-rule="evenodd" clip-rule="evenodd" d="M35.568 40.223l10.223 6.006c.426.215.852.644 1.278 1.288.426.429.639 1.072.852 1.716l2.769 12.871c0 .43 0 .644-.426.644h-.213L35.568 54.38c-.426-.214-.639-.643-.639-1.072V40.652c.213-.43.426-.644.639-.43z" fill="#fff"/><path fill-rule="evenodd" clip-rule="evenodd" d="M35.568 40.223l-.426.643.426-.643zm.213.858v12.013c0 .215.213.43.213.43l13.844 8.151-2.556-12.442c0-.43-.213-1.073-.639-1.502a2.577 2.577 0 00-1.065-1.073l-9.797-5.577zm14.696 22.31h-.213c-.213 0-.213 0-.426-.214L35.355 54.81c-.639-.214-1.065-1.072-1.065-1.716V40.652c0-.43.213-.858.639-1.073.426-.214.852-.214 1.065 0l10.223 6.007c.639.214 1.065.858 1.49 1.502.427.643.64 1.287.853 1.93l2.769 12.871c0 .43 0 .859-.213 1.288-.213.214-.426.214-.64.214z" fill="#E41D2C"/><path fill-rule="evenodd" clip-rule="evenodd" d="M50.903 63.391v-6.65l-2.77 1.502v6.65l2.77-1.502z" fill="#fff"/><path fill-rule="evenodd" clip-rule="evenodd" d="M48.986 58.672v5.148l1.278-.643v-5.363l-1.278.858zm-.852 6.864h-.426c-.213-.214-.426-.429-.426-.643v-6.65c0-.215.213-.43.426-.644l2.556-1.502c.213-.214.426-.214.639 0 .213.215.426.43.426.644v6.65c0 .215-.213.43-.426.644l-2.556 1.501h-.213z" fill="#E41D2C"/><path fill-rule="evenodd" clip-rule="evenodd" d="M50.903 64.035c-.213 0-.426-.215-.64-.43-.212-.428 0-.857.214-.857l1.278-.644c.426-.215.852 0 1.064.215.213.429 0 .858-.212.858l-1.491.858h-.213z" fill="#E41D2C"/><path fill-rule="evenodd" clip-rule="evenodd" d="M84.34 43.655v-6.65l-2.555 1.502v6.65l2.556-1.502z" fill="#fff"/><path fill-rule="evenodd" clip-rule="evenodd" d="M82.424 38.936v5.148l1.278-.643v-5.149l-1.278.644zm-.639 7.079h-.426c-.213-.215-.426-.43-.426-.644v-6.864c0-.215.213-.43.426-.644l2.556-1.502c.213-.214.426-.214.639 0 .213.215.426.43.426.644v6.65c0 .215-.213.43-.426.644L81.998 45.8c0 .215 0 .215-.213.215zM69.22 74.332c-.427 0-.64-.215-.64-.644v-6.65c0-.43.213-.644.64-.644.425 0 .638.215.638.644v6.65c0 .43-.213.644-.639.644zm2.555-1.502c-.426 0-.639-.215-.639-.644v-6.65c0-.429.213-.643.64-.643.425 0 .638.214.638.643v6.65c0 .43-.213.644-.639.644zm2.769-1.502c-.426 0-.64-.214-.64-.643v-6.65c0-.43.214-.644.64-.644.426 0 .639.215.639.644v6.65c0 .429-.426.643-.64.643zm2.556-1.501c-.426 0-.64-.215-.64-.644v-6.65c0-.429.214-.643.64-.643.425 0 .639.214.639.643v6.65c0 .43-.214.644-.64.644zm2.555-1.502c-.426 0-.639-.214-.639-.643v-6.65c0-.43.426-.644.64-.644.425 0 .638.214.638.643v6.65c.213.215-.213.644-.639.644z" fill="#262626"/><path fill-rule="evenodd" clip-rule="evenodd" d="M60.487 85.916c-.213.215-.213.215-.426 0l-1.917-1.073c-.213-.214-.639-.643-.639-1.072a12.23 12.23 0 00-.639-3.862l3.62 2.146v3.861z" fill="#fff"/><path fill-rule="evenodd" clip-rule="evenodd" d="M57.931 81.196c.213.859.213 1.717.213 2.575 0 .214.213.429.213.429l1.278.858v-2.574l-1.704-1.288zm2.13 5.578c-.213 0-.426 0-.639-.215l-1.917-1.072c-.639-.43-.852-1.073-.852-1.716 0-1.073-.213-2.36-.639-3.647 0-.215 0-.644.213-.858.213-.215.426-.215.852 0L60.7 81.41c.213.215.426.429.426.644v3.86c0 .215 0 .43-.213.43-.213.215-.426.429-.852.429z" fill="#262626"/><path fill-rule="evenodd" clip-rule="evenodd" d="M38.55 59.315h-.426l-3.621-2.145c-.426-.215-.426-.644-.213-.858.213-.43.639-.43.852-.215l3.62 2.146c.427.214.427.643.214.858.213.214 0 .214-.426.214z" fill="#E41D2C"/></svg>