<svg width="103" height="88" fill="none" xmlns="http://www.w3.org/2000/svg"><path fill-rule="evenodd" clip-rule="evenodd" d="M97.579 1.416a3.411 3.411 0 00-3.23-.366L63.923 18.815c1.943-.982 4.247.89 5.421 2.283a9.482 9.482 0 011.904 3.433 9.554 9.554 0 01.355 3.92A2.827 2.827 0 0170.43 30.3l30.516-17.719a3.939 3.939 0 001.219-3.859 10.628 10.628 0 00-1.517-4.15 10.5 10.5 0 00-3.068-3.156z" fill="#fff"/><path fill-rule="evenodd" clip-rule="evenodd" d="M66.701 18.107a8.838 8.838 0 013.32 2.443 10.6 10.6 0 012.53 7.627l28.01-16.28c.835-.526.971-1.987.835-3.083a9.653 9.653 0 00-1.41-3.827 9.538 9.538 0 00-2.859-2.886 2.76 2.76 0 00-2.394-.366L66.7 18.107zm3.795 13.015a.785.785 0 01-.655-.365.783.783 0 01.18-1.074c.43-.333.727-.81.837-1.347a8.995 8.995 0 00-.445-3.581 8.926 8.926 0 00-1.814-3.109c-.949-1.142-2.937-2.923-4.518-2.123a.738.738 0 01-.835-.343.807.807 0 01.27-1.05L93.966.365a4.05 4.05 0 013.975.389c1.341.873 2.48 2.03 3.337 3.389a11.265 11.265 0 011.633 4.488 4.755 4.755 0 01-.176 2.508 4.7 4.7 0 01-1.428 2.059l-30.403 17.81a.695.695 0 01-.407.114z" fill="#262626"/><path fill-rule="evenodd" clip-rule="evenodd" d="M70.406 22.696a9.434 9.434 0 00-3.275-3.516 3.275 3.275 0 00-3.298-.32c-.47.342-.842.802-1.08 1.335a3.365 3.365 0 00-.275 1.702 9.689 9.689 0 001.355 4.567 9.753 9.753 0 003.298 3.54 3.298 3.298 0 003.275.319c.46-.326.828-.766 1.07-1.278a3.32 3.32 0 00.308-1.645 9.62 9.62 0 00-1.378-4.704z" fill="#fff"/><path fill-rule="evenodd" clip-rule="evenodd" d="M65.053 19.317a1.77 1.77 0 00-.836.229c-.34.265-.609.614-.779 1.014-.17.4-.236.836-.192 1.269a8.814 8.814 0 001.264 4.247 8.685 8.685 0 003.005 3.242 2.583 2.583 0 002.507.365 2.63 2.63 0 00.971-2.283 9.207 9.207 0 00-1.242-4.247 9.097 9.097 0 00-3.004-3.288 3.409 3.409 0 00-1.694-.548zm4.156 12.17a4.863 4.863 0 01-2.462-.753 10.277 10.277 0 01-3.501-3.79 10.518 10.518 0 01-1.491-5.047 4.103 4.103 0 01.372-2.041 4.054 4.054 0 011.322-1.59 3.96 3.96 0 014.066.343 10.093 10.093 0 013.569 3.79 10.448 10.448 0 011.468 5.024 4.104 4.104 0 01-.363 2.113 4.054 4.054 0 01-1.376 1.632 3.223 3.223 0 01-1.604.32z" fill="#262626"/><path fill-rule="evenodd" clip-rule="evenodd" d="M68.396 23.884a5.206 5.206 0 00-1.785-1.918 1.885 1.885 0 00-1.807-.183 1.915 1.915 0 00-.7 1.667c.03.889.273 1.757.71 2.53a5.43 5.43 0 001.797 1.9 1.795 1.795 0 001.785.182c.261-.183.469-.436.6-.729s.181-.617.145-.938a5.109 5.109 0 00-.745-2.511z" fill="#fff"/><path fill-rule="evenodd" clip-rule="evenodd" d="M65.504 22.422h-.293c-.226.137-.34.503-.34.982.03.75.248 1.482.633 2.124.358.655.87 1.212 1.491 1.62.43.252.79.32 1.017.184.225-.137.338-.503.338-.982a4.877 4.877 0 00-.685-2.146 4.816 4.816 0 00-1.573-1.599 1.39 1.39 0 00-.7-.228l.112.045zm2.26 6.576a3.203 3.203 0 01-1.537-.433 6.619 6.619 0 01-2.055-2.284 6.143 6.143 0 01-.926-2.831 2.512 2.512 0 01.253-1.3 2.48 2.48 0 01.876-.983 2.483 2.483 0 012.552.182c.882.56 1.6 1.348 2.078 2.284.561.82.91 1.77 1.017 2.762.022.445-.068.887-.262 1.287a2.615 2.615 0 01-.845.997 2.24 2.24 0 01-1.152.32z" fill="#262626"/><path fill-rule="evenodd" clip-rule="evenodd" d="M66.589 21.989a1.863 1.863 0 00-1.762-.206L32.91 40.415c1.085-.525 2.26.48 2.96 1.279a5.22 5.22 0 011.043 1.853c.218.683.293 1.405.221 2.12a1.58 1.58 0 01-.632 1.005L68.418 28.04a2.169 2.169 0 00.655-2.1 5.677 5.677 0 00-.796-2.214 5.614 5.614 0 00-1.62-1.692l-.068-.045z" fill="#fff"/><path fill-rule="evenodd" clip-rule="evenodd" d="M35.17 40.027c.489.313.924.707 1.287 1.164a6.522 6.522 0 011.513 3.722L68.034 27.4a1.654 1.654 0 00.271-1.324 4.897 4.897 0 00-.676-1.899 4.84 4.84 0 00-1.38-1.458l.34-.708-.384.685a1.28 1.28 0 00-.994-.205L35.169 40.05v-.023zm1.332 7.444a.785.785 0 01-.465-.163.8.8 0 01-.266-.906.797.797 0 01.302-.393.73.73 0 00.293-.502 4.45 4.45 0 00-1.084-3.31c-.587-.732-1.468-1.325-2.033-1.074a.76.76 0 01-1.016-.342.759.759 0 01.316-1.028l31.916-18.655a2.462 2.462 0 012.485.206 6.43 6.43 0 011.892 1.975c.484.788.793 1.672.909 2.591a2.776 2.776 0 01-1.017 2.877l-31.87 18.61a.628.628 0 01-.362.114z" fill="#262626"/><path fill-rule="evenodd" clip-rule="evenodd" d="M17.573 78.204C1.513 72.793-3.998 60.805 5.263 51.421c9.26-9.385 29.86-12.604 45.92-7.193 16.06 5.412 21.572 17.422 12.311 26.807-9.26 9.384-29.838 12.604-45.92 7.17z" fill="#fff"/><path fill-rule="evenodd" clip-rule="evenodd" d="M17.822 77.474c15.811 5.32 36.14 2.283 45.175-6.987a12.336 12.336 0 003.573-5.309 12.47 12.47 0 00.448-6.405c-1.378-5.8-7.183-10.823-16.015-13.7-15.811-5.32-36.027-2.283-45.175 6.987a12.314 12.314 0 00-3.54 5.27 12.43 12.43 0 00-.458 6.352c1.355 5.8 7.182 10.823 15.992 13.7v.092zm16.466 4.133a53.496 53.496 0 01-16.963-2.649C8.019 75.807 1.807 70.373.316 64.048a14.12 14.12 0 01.466-7.18 13.985 13.985 0 013.939-5.995c9.464-9.567 30.403-12.878 46.689-7.375 9.351 3.15 15.54 8.585 17.03 14.91.467 2.404.294 4.89-.5 7.204a13.867 13.867 0 01-4.017 5.97c-6.234 6.44-17.799 10.025-29.635 10.025z" fill="#E41D2C"/><path fill-rule="evenodd" clip-rule="evenodd" d="M47.434 55.6v7.466c-.384 3.22-3.975 5.252-6.776 6.12a20.122 20.122 0 01-8.351.85 20.177 20.177 0 01-7.98-2.632 6.244 6.244 0 01-2.054-2.004 6.324 6.324 0 01-.95-2.722v-7.124a5.438 5.438 0 001.581 3.516c3.027 3.22 8.81 4.179 12.988 3.905 3.614-.252 8.515-1.622 10.639-4.818a5.034 5.034 0 00.903-2.558z" fill="#fff"/><path fill-rule="evenodd" clip-rule="evenodd" d="M22.09 59.367v3.38c.142.829.462 1.617.938 2.308a5.693 5.693 0 001.819 1.687A19.34 19.34 0 0040.432 68.5c2.777-.89 5.872-2.785 6.188-5.457v-3.676a15.997 15.997 0 01-10.707 4.567c-4.2.296-10.3-.617-13.552-4.156l-.271-.411zm12.243 11.6a18.64 18.64 0 01-10.413-2.855 7.198 7.198 0 01-2.305-2.31 7.29 7.29 0 01-1.06-3.101v-7.147a.78.78 0 01.224-.527.764.764 0 01.521-.227.74.74 0 01.723.439.76.76 0 01.068.292c.08 1.15.59 2.227 1.423 3.014 2.733 2.923 8.2 3.95 12.355 3.653 3.411-.228 8.087-1.552 10.052-4.452a4.3 4.3 0 00.745-2.284.756.756 0 01.257-.482.74.74 0 01.511-.18c.2.006.39.09.529.236a.78.78 0 01.217.54v7.582c-.542 4.293-5.715 6.257-7.274 6.85-2.136.618-4.35.918-6.573.89v.07z" fill="#262626"/><path fill-rule="evenodd" clip-rule="evenodd" d="M47.434 55.6v7.466c-.339 2.831-3.14 4.727-5.67 5.731V61.65a10.17 10.17 0 004.834-3.539 5.037 5.037 0 00.836-2.512z" fill="#fff"/><path fill-rule="evenodd" clip-rule="evenodd" d="M42.487 62.221v5.389a6.774 6.774 0 002.607-1.785 6.872 6.872 0 001.527-2.782v-3.676a11.09 11.09 0 01-4.179 2.923l.045-.069zm-.768 7.375a.807.807 0 01-.451-.137.82.82 0 01-.339-.662V61.65a.782.782 0 01.52-.73 9.377 9.377 0 004.517-3.243 4.3 4.3 0 00.745-2.283.755.755 0 01.259-.425.74.74 0 01.464-.169c.2.006.39.09.529.236a.78.78 0 01.217.54v7.582c-.475 3.7-4.518 5.686-6.19 6.37l-.27.07z" fill="#262626"/><path fill-rule="evenodd" clip-rule="evenodd" d="M27.85 61.993c-6.256-2.1-8.38-6.85-4.788-10.412 3.591-3.562 11.588-4.887 17.867-2.786 6.28 2.1 8.38 6.85 4.766 10.412-3.614 3.562-11.61 4.886-17.844 2.786z" fill="#fff"/><path fill-rule="evenodd" clip-rule="evenodd" d="M34.356 48.544a15.7 15.7 0 00-10.752 3.585 4.437 4.437 0 00-1.423 4.11 8.467 8.467 0 002.352 3.242 8.345 8.345 0 003.566 1.781c5.963 2.01 13.553.845 17.054-2.603a4.272 4.272 0 001.256-1.861c.247-.723.296-1.5.144-2.249a8.308 8.308 0 00-2.333-3.24 8.187 8.187 0 00-3.562-1.76 19.392 19.392 0 00-6.302-1.005zm0 15.253c-2.3.02-4.588-.334-6.776-1.05-3.795-1.28-6.325-3.517-6.935-6.143a5.882 5.882 0 01.22-3.053 5.82 5.82 0 011.723-2.518c3.772-3.836 12.13-5.16 18.635-2.992 3.794 1.28 6.302 3.517 6.911 6.143a5.837 5.837 0 01-.162 3.038 5.782 5.782 0 01-1.667 2.533 17.273 17.273 0 01-11.972 4.042h.023z" fill="#262626"/><path fill-rule="evenodd" clip-rule="evenodd" d="M44.746 46.055V55.6c0 2.535-2.823 4.225-4.946 4.978a16.011 16.011 0 01-13.372-1.21 5.06 5.06 0 01-1.642-1.6 5.127 5.127 0 01-.775-2.168v-9.567a4.267 4.267 0 001.287 2.763c2.372 2.58 6.98 3.334 10.3 3.105 2.869-.205 6.777-1.278 8.448-3.813a4.14 4.14 0 00.7-2.032z" fill="#fff"/><path fill-rule="evenodd" clip-rule="evenodd" d="M24.846 49.411v6.143a4.32 4.32 0 00.686 1.794c.36.538.836.986 1.393 1.311a15.206 15.206 0 0012.65 1.187c2.1-.73 4.358-2.283 4.516-4.292V49.41a13.134 13.134 0 01-8.335 3.266 14.33 14.33 0 01-5.785-.504 14.43 14.43 0 01-5.125-2.762zm9.487 12.856a14.696 14.696 0 01-8.312-2.284 5.699 5.699 0 01-1.885-1.861 5.774 5.774 0 01-.848-2.523v-9.567a.783.783 0 01.453-.731.762.762 0 01.292-.068.813.813 0 01.813.731 3.441 3.441 0 001.04 2.283 13.01 13.01 0 004.56 2.412c1.664.49 3.408.64 5.13.442 2.688-.182 6.37-1.21 7.883-3.47.333-.494.529-1.07.564-1.667a.779.779 0 01.264-.522.762.762 0 01.55-.186.787.787 0 01.522.241.803.803 0 01.223.535v9.545c-.18 3.562-4.224 5.274-5.466 5.73a17.573 17.573 0 01-5.828.96h.045z" fill="#262626"/><path fill-rule="evenodd" clip-rule="evenodd" d="M44.746 46.055V55.6c0 2.535-2.823 4.225-4.946 4.978a15.13 15.13 0 01-3.502.8v-9.545a10.927 10.927 0 004.25-1.078 11.05 11.05 0 003.498-2.667 4.14 4.14 0 00.7-2.032z" fill="#fff"/><path fill-rule="evenodd" clip-rule="evenodd" d="M37.089 52.517v7.946a12.74 12.74 0 002.44-.617c2.1-.73 4.359-2.283 4.517-4.292V49.41a12.632 12.632 0 01-6.776 3.106h-.181zm-.79 9.636a.777.777 0 01-.768-.776v-9.545a.782.782 0 01.192-.52.766.766 0 01.485-.256c1.265-.137 5.444-.8 7.206-3.403a3.34 3.34 0 00.564-1.666.78.78 0 01.264-.522.763.763 0 01.55-.186.787.787 0 01.522.241.803.803 0 01.223.535v9.544c-.18 3.562-4.224 5.275-5.466 5.732-1.196.401-2.43.676-3.682.822h-.09z" fill="#262626"/><path fill-rule="evenodd" clip-rule="evenodd" d="M47.434 34.045v12.01c-.135 3.22-3.569 5.343-6.234 6.302a20.125 20.125 0 01-16.85-1.621 6.24 6.24 0 01-2.067-2.001 6.323 6.323 0 01-.96-2.726V34a5.575 5.575 0 001.604 3.516c3.026 3.22 8.809 4.179 12.987 3.905 3.614-.274 8.516-1.621 10.64-4.818a4.975 4.975 0 00.88-2.557z" fill="#fff"/><path fill-rule="evenodd" clip-rule="evenodd" d="M22.09 37.744v8.265c.13.846.443 1.653.92 2.36a5.694 5.694 0 001.836 1.727c4.518 3.129 11.656 3.106 16.173 1.508 2.666-.96 5.58-2.923 5.67-5.595v-8.265a15.881 15.881 0 01-10.684 4.452c-4.202.274-10.3-.616-13.553-4.155l-.27-.297h-.091zm12.176 16.508a18.172 18.172 0 01-10.346-2.877 6.991 6.991 0 01-2.306-2.257 7.082 7.082 0 01-1.06-3.063V33.999c0-.202.079-.396.218-.541a.765.765 0 01.528-.235.787.787 0 01.537.209.802.802 0 01.254.521c.08 1.15.59 2.227 1.423 3.014 2.733 2.923 8.2 3.95 12.355 3.654 3.411-.229 8.087-1.53 10.052-4.453a4.3 4.3 0 00.745-2.283.76.76 0 01.25-.52.746.746 0 01.54-.188c.2.006.39.09.53.235a.78.78 0 01.216.541v12.01c-.18 4.362-5.195 6.485-6.776 7.033a22.1 22.1 0 01-7.16 1.256z" fill="#262626"/><path fill-rule="evenodd" clip-rule="evenodd" d="M47.434 34.045v12.01c-.135 3.014-3.14 5.069-5.715 6.096v-12.01a10.172 10.172 0 004.834-3.608 4.966 4.966 0 00.881-2.488z" fill="#fff"/><path fill-rule="evenodd" clip-rule="evenodd" d="M42.487 40.666v10.275c1.627-.799 4.066-2.466 4.157-4.932v-8.265a10.57 10.57 0 01-4.157 2.922zm-.768 12.262a1.031 1.031 0 01-.451-.114.82.82 0 01-.339-.663v-12.01a.782.782 0 01.52-.73 9.377 9.377 0 004.517-3.243c.46-.673.718-1.466.745-2.283a.76.76 0 01.25-.52.746.746 0 01.541-.188c.2.006.39.09.529.235a.78.78 0 01.216.541v12.01c-.18 3.996-4.404 6.12-6.211 6.85a.562.562 0 01-.317.115z" fill="#262626"/><path fill-rule="evenodd" clip-rule="evenodd" d="M27.85 40.438c-6.256-2.1-8.38-6.85-4.788-10.412 3.591-3.562 11.588-4.886 17.867-2.786 6.28 2.101 8.38 6.85 4.766 10.412-3.614 3.562-11.61 4.887-17.844 2.786z" fill="#fff"/><path fill-rule="evenodd" clip-rule="evenodd" d="M34.356 26.99a15.7 15.7 0 00-10.752 3.584 4.437 4.437 0 00-1.423 4.11 8.469 8.469 0 002.352 3.242 8.345 8.345 0 003.566 1.781c5.963 2.01 13.553.845 17.054-2.603a4.271 4.271 0 001.256-1.861c.247-.723.296-1.5.144-2.249a8.375 8.375 0 00-2.334-3.246 8.255 8.255 0 00-3.561-1.777 20.128 20.128 0 00-6.302-.982zm0 15.252c-2.3.02-4.588-.334-6.776-1.05-3.795-1.28-6.325-3.517-6.935-6.143a5.882 5.882 0 01.22-3.053 5.826 5.826 0 011.723-2.518c3.772-3.836 12.13-5.16 18.635-2.991 3.794 1.278 6.302 3.516 6.911 6.142a5.837 5.837 0 01-.162 3.038 5.78 5.78 0 01-1.667 2.533 17.272 17.272 0 01-11.972 4.042h.023z" fill="#262626"/><path fill-rule="evenodd" clip-rule="evenodd" d="M44.746 24.5v9.545c0 2.557-2.823 4.247-4.946 5a16.01 16.01 0 01-13.372-1.279 5.062 5.062 0 01-1.642-1.6A5.128 5.128 0 0124.011 34v-9.522a4.382 4.382 0 001.287 2.786c2.372 2.557 6.98 3.334 10.3 3.083 2.869-.183 6.777-1.256 8.448-3.814a4.07 4.07 0 00.7-2.032z" fill="#fff"/><path fill-rule="evenodd" clip-rule="evenodd" d="M24.846 27.857v6.142a4.32 4.32 0 00.682 1.807c.36.542.838.994 1.397 1.321a15.206 15.206 0 0012.65 1.164c2.1-.73 4.358-2.283 4.516-4.292v-6.12a13.47 13.47 0 01-8.335 3.266 14.42 14.42 0 01-5.785-.522 14.518 14.518 0 01-5.125-2.766zm9.487 12.855a14.696 14.696 0 01-8.312-2.283 5.652 5.652 0 01-1.884-1.85 5.727 5.727 0 01-.85-2.511v-9.59a.762.762 0 01.211-.548.743.743 0 01.535-.229.808.808 0 01.539.2c.15.13.247.31.274.508a3.441 3.441 0 001.04 2.283 13.08 13.08 0 004.526 2.47c1.656.514 3.395.69 5.119.521 2.687-.182 6.37-1.21 7.883-3.47.34-.49.535-1.069.564-1.667a.801.801 0 01.27-.476.785.785 0 011.02 0 .8.8 0 01.269.476v9.544c-.18 3.562-4.224 5.298-5.466 5.731a17.54 17.54 0 01-5.783.891h.045z" fill="#262626"/><path fill-rule="evenodd" clip-rule="evenodd" d="M44.746 24.5v9.545c0 2.557-2.823 4.247-4.946 5a15.13 15.13 0 01-3.502.776V30.3a10.86 10.86 0 004.255-1.083 10.969 10.969 0 003.493-2.684 4.08 4.08 0 00.7-2.033z" fill="#fff"/><path fill-rule="evenodd" clip-rule="evenodd" d="M37.089 30.985v7.946c.832-.132 1.65-.346 2.44-.64 2.1-.73 4.359-2.283 4.517-4.292v-6.12a12.812 12.812 0 01-6.776 3.106h-.181zm-.79 9.613a.853.853 0 01-.52-.183.823.823 0 01-.248-.593V30.3a.758.758 0 01.186-.524.743.743 0 01.491-.252c1.265-.16 5.444-.822 7.206-3.425a3.2 3.2 0 00.564-1.667.802.802 0 01.27-.476.786.786 0 011.289.476v9.544c-.18 3.562-4.224 5.297-5.466 5.731-1.19.423-2.427.7-3.682.822l-.09.069z" fill="#262626"/><path fill-rule="evenodd" clip-rule="evenodd" d="M47.434 17.034v7.49c-.384 3.196-3.975 5.228-6.776 6.096a20.122 20.122 0 01-16.331-1.781 6.196 6.196 0 01-2.059-2.002 6.278 6.278 0 01-.945-2.725v-7.124a5.438 5.438 0 001.604 3.562c3.026 3.22 8.809 4.201 12.987 3.905 3.614-.252 8.516-1.599 10.64-4.818a4.899 4.899 0 00.88-2.603z" fill="#fff"/><path fill-rule="evenodd" clip-rule="evenodd" d="M22.09 20.756v3.356a5.77 5.77 0 00.92 2.36 5.695 5.695 0 001.836 1.727 19.429 19.429 0 0015.63 1.69c2.78-.89 5.874-2.786 6.19-5.457v-3.7a15.88 15.88 0 01-10.706 4.385c-4.202.297-10.3-.617-13.553-4.133l-.271-.297-.045.069zm12.243 11.576a18.438 18.438 0 01-10.413-2.854 7.197 7.197 0 01-2.291-2.28 7.29 7.29 0 01-1.074-3.063v-7.147c0-.202.078-.396.217-.541a.765.765 0 01.528-.235.74.74 0 01.723.438.76.76 0 01.068.292c.08 1.15.59 2.227 1.423 3.014 2.733 2.877 8.109 3.973 12.355 3.677 3.411-.252 8.087-1.553 10.052-4.567a4.3 4.3 0 00.745-2.283.753.753 0 01.294-.398.74.74 0 01.474-.128c.2.006.39.09.529.236a.78.78 0 01.217.54v7.582c-.542 4.293-5.715 6.257-7.274 6.85a21.87 21.87 0 01-6.573.868z" fill="#262626"/><path fill-rule="evenodd" clip-rule="evenodd" d="M47.434 17.034v7.49c-.339 2.808-3.14 4.703-5.67 5.73V23.13a10.035 10.035 0 004.834-3.539 4.9 4.9 0 00.836-2.557z" fill="#fff"/><path fill-rule="evenodd" clip-rule="evenodd" d="M42.487 23.678v5.366c1.627-.822 3.863-2.283 4.134-4.567v-3.699a10.932 10.932 0 01-4.179 2.946l.045-.046zm-.768 7.353a.806.806 0 01-.451-.137.796.796 0 01-.339-.64V23.13a.805.805 0 01.52-.73 9.377 9.377 0 004.517-3.243 4.3 4.3 0 00.745-2.283.756.756 0 01.253-.44.74.74 0 01.47-.177c.2.006.39.09.529.236a.78.78 0 01.217.54v7.582c-.475 3.7-4.518 5.686-6.19 6.37l-.27.047z" fill="#262626"/><path fill-rule="evenodd" clip-rule="evenodd" d="M27.85 23.427c-6.256-2.1-8.38-6.85-4.788-10.412C26.653 9.453 34.65 8.13 40.93 10.23c6.28 2.101 8.38 6.85 4.766 10.412-3.614 3.562-11.61 4.91-17.844 2.786z" fill="#fff"/><path fill-rule="evenodd" clip-rule="evenodd" d="M28.1 22.696c5.985 2.01 13.552.845 17.053-2.603a4.272 4.272 0 001.256-1.86c.247-.724.296-1.5.144-2.25a8.308 8.308 0 00-2.333-3.24 8.187 8.187 0 00-3.562-1.76c-5.963-2.032-13.553-.845-17.054 2.603a4.387 4.387 0 00-1.246 1.853 4.43 4.43 0 00-.177 2.234 8.422 8.422 0 002.348 3.247 8.3 8.3 0 003.57 1.776zm6.21 2.535c-2.3.021-4.588-.334-6.776-1.05-3.704-1.348-6.234-3.517-6.844-6.143a5.906 5.906 0 01.204-3.045 5.848 5.848 0 011.694-2.526c3.772-3.836 12.13-5.16 18.635-2.968a9.472 9.472 0 014.24 2.17 9.618 9.618 0 012.671 3.972 5.814 5.814 0 01-.165 3.027 5.758 5.758 0 01-1.664 2.521 17.182 17.182 0 01-11.994 4.042z" fill="#262626"/><path fill-rule="evenodd" clip-rule="evenodd" d="M67.763 61.81v7.375c-1.062 8.22-10.232 13.403-17.28 15.664-12.761 4.087-30.696 3.174-41.81-4.567-3.975-2.831-7.589-7.01-7.77-12.147V61.65a13.765 13.765 0 004.134 9.134c7.748 8.265 22.588 10.754 33.272 10 9.306-.639 21.797-4.11 27.286-12.33a12.973 12.973 0 002.168-6.644z" fill="#fff"/><path fill-rule="evenodd" clip-rule="evenodd" d="M1.671 67.381v.754c.226 5.594 4.766 9.59 7.454 11.417 11.294 7.946 29.364 8.265 41.133 4.566 7.476-2.283 15.811-7.58 16.737-15.001v-1.713a11.49 11.49 0 01-.836 1.416c-5.556 8.311-18.07 11.988-27.895 12.673-10.436.707-25.615-1.576-33.746-10.276a16.584 16.584 0 01-2.847-3.836zm32.572 20.55A46.172 46.172 0 018.245 80.9C5.308 78.867.36 74.483.135 68.158V61.65a.78.78 0 01.217-.54.764.764 0 01.529-.236.739.739 0 01.737.47.76.76 0 01.053.306 13.007 13.007 0 003.908 8.494c7.341 7.81 21.684 10.55 32.685 9.773 9.464-.662 21.458-4.156 26.676-11.988a11.91 11.91 0 002.145-6.279.78.78 0 01.265-.521.761.761 0 01.549-.187.787.787 0 01.522.242.804.804 0 01.223.535v7.489c-1.31 10.252-13.982 15.07-17.799 16.303A55.484 55.484 0 0134.243 88v-.069z" fill="#E41D2C"/></svg>