<svg width="53" height="90" fill="none" xmlns="http://www.w3.org/2000/svg"><path fill-rule="evenodd" clip-rule="evenodd" d="M2.608 86.438c.869.878 1.738 1.975 2.824 2.853l41.939-24.367c1.738-1.098 3.26-3.512 3.26-5.488v-46.32l-11.517-9-.87-.22-12.603-.22L4.13 15.97c-.652.22-1.087.658-1.521 1.317v69.15z" fill="#fff"/><path fill-rule="evenodd" clip-rule="evenodd" d="M3.26 86.218c.651.878 1.52 1.537 2.172 2.195l41.504-24.148c1.521-.878 2.825-3.073 2.825-5.049v-45.88l-11.3-8.782-.651-.22H25.64L4.563 16.41c-.652.439-1.086.658-1.304 1.097v68.712zm2.172 3.732c-.217 0-.217 0-.434-.22-1.304-.878-2.39-1.975-3.042-2.854 0-.219-.218-.219-.218-.439v-69.15c0-.22 0-.22.218-.44.652-.658 1.086-1.097 1.738-1.536L24.989 3.018h.435l12.603.22h1.087s.217 0 .217.219l11.517 9c.217.22.217.44.217.44v46.32c0 2.195-1.521 5.048-3.477 6.146L5.65 89.73c0 .22-.218.22-.218.22z" fill="#262626"/><path fill-rule="evenodd" clip-rule="evenodd" d="M43.242 21.458l5.867-3.512c2.825-1.537 4.563-3.074 1.521-5.27L38.244 3.019l4.998 7.683v10.757z" fill="#fff"/><path fill-rule="evenodd" clip-rule="evenodd" d="M41.07 6.091l2.607 4.171s.217.22.217.44v9.658l4.78-2.854c1.304-.658 2.608-1.536 2.825-2.414 0-.659-.651-1.318-1.303-1.757l-9.127-7.244zm2.172 16.025h-.434c-.218-.219-.435-.439-.435-.658V10.92l-4.78-7.464c-.218-.22-.218-.659 0-.878.217-.22.651-.22.869 0l12.386 9.659c1.303 1.098 1.955 1.976 1.738 2.854-.217 1.317-1.521 2.414-3.477 3.512l-5.65 3.293c0 .22-.217.22-.217.22z" fill="#262626"/><path fill-rule="evenodd" clip-rule="evenodd" d="M5.432 89.291l-3.694-2.195C.87 86.437.87 86 .87 84.901V21.677c0-2.195 1.304-4.39 3.26-5.707L27.162 2.579C30.64.603 32.377-.275 36.506 1.7c3.26 1.536 6.084 4.83 6.953 9v10.757l-4.345-2.415V10.92c0-3.732-4.13-8.342-9.779-5.488L7.605 18.165c-1.738 1.317-3.042 3.512-3.259 5.708v63.223c.217 1.098.217 1.537 1.086 2.195z" fill="#fff"/><path fill-rule="evenodd" clip-rule="evenodd" d="M32.377 1.262c-1.52 0-3.042.658-5.215 1.975L4.346 16.628c-1.738 1.098-2.825 3.074-3.042 5.269v63.004c0 .878 0 1.098.652 1.537l1.738 1.097V23.873c0-2.635 1.521-4.83 3.477-6.367L28.9 4.774c2.607-1.317 5.215-1.317 7.388 0 2.173 1.537 3.694 3.951 3.476 6.147v7.683l2.608 1.537v-9.66c-.652-3.292-3.26-6.585-6.519-8.341-1.304-.44-2.39-.878-3.477-.878zM5.432 89.95h-.434l-3.694-2.195C.217 86.657 0 86.218 0 84.9V21.677c0-2.634 1.521-4.83 3.477-6.366L26.727 2.14c3.695-1.976 5.65-3.074 9.996-1.098 3.694 1.756 6.52 5.488 7.171 9.44v10.976c0 .22-.217.439-.434.659-.218.219-.435.219-.652 0l-3.912-2.415c-.217-.22-.434-.44-.434-.659v-8.122c0-1.757-1.087-3.732-2.825-4.83-1.304-.878-3.26-1.317-6.085 0L7.822 18.824c-1.52 1.097-2.607 3.073-2.824 5.268v63.224c0 .878 0 1.097.652 1.536.217.22.217.659.217.879 0 0-.217.219-.435.219z" fill="#262626"/><path fill-rule="evenodd" clip-rule="evenodd" d="M5.432 89.291l-3.694-2.195C.87 86.438.87 86 .87 84.901V21.677c0-.658 0-1.097.218-1.536l3.694 2.195c-.218.659-.435 1.098-.435 1.537v63.223c.217 1.098.217 1.537 1.086 2.195z" fill="#fff"/><path fill-rule="evenodd" clip-rule="evenodd" d="M1.304 21.238v63.663c0 .878 0 1.098.652 1.537l1.738 1.097V23.873c0-.44 0-.878.217-1.317l-2.607-1.318zM5.432 89.95h-.434l-3.694-2.195C.217 86.657 0 86.218 0 84.9V21.677c0-.658 0-1.097.217-1.756l.435-.439h.652l3.694 2.195c.217.22.434.44.217.66-.217.658-.217.877-.217 1.536v63.223c0 .878 0 1.098.652 1.537.217.22.217.658.217.878 0 .22-.217.439-.435.439z" fill="#262626"/><path fill-rule="evenodd" clip-rule="evenodd" d="M12.386 57.021c-.217 0-.435-.22-.652-.439-.217-.22 0-.659.217-.878L33.898 42.97c.218-.22.652 0 .87.22.217.22 0 .658-.218.878L12.82 56.801c-.217 0-.217.22-.434.22zm0-7.025c-.217 0-.435-.22-.652-.439-.217-.22 0-.658.217-.878l28.032-16.245c.217-.22.652 0 .869.22.217.22 0 .658-.217.878L12.82 49.996h-.435zm0-6.366c-.217 0-.435-.22-.652-.44-.217-.219 0-.658.217-.877l28.032-16.245c.217-.22.652 0 .869.22.217.219 0 .658-.217.878L12.82 43.41c-.218.22-.218.22-.435.22zm0 26.343c-.217 0-.435-.22-.652-.439-.217-.22 0-.659.217-.878l7.171-4.171c.218-.22.652 0 .87.22.217.219 0 .658-.218.878l-7.17 4.17c0 .22 0 .22-.218.22zm0-42.807c-.217 0-.435-.22-.652-.44-.217-.219 0-.658.217-.877l13.038-7.684c.217-.22.652 0 .87.22.217.22 0 .658-.218.878l-13.038 7.683c0 .22 0 .22-.217.22zm27.379 22.172c-2.607 1.536-4.78 5.268-4.78 8.342 0 1.317.434 2.195 1.086 2.634.652.44 1.739.22 2.825-.439 2.608-1.537 4.78-5.269 4.78-8.342 0-1.317-.434-2.195-1.086-2.634-.652-.44-1.738-.22-2.825.439zM37.158 61.85c-.652 0-1.087-.22-1.739-.44-1.086-.658-1.738-1.975-1.738-3.95 0-3.513 2.39-7.684 5.433-9.44 1.52-.879 3.042-1.098 4.128-.44 1.087.66 1.739 1.976 1.739 3.952 0 3.512-2.39 7.683-5.433 9.44-.652.658-1.521.878-2.39.878z" fill="#E41D2C"/></svg>