<svg width="111" height="93" fill="none" xmlns="http://www.w3.org/2000/svg"><path d="M1 22.76v42.633l37.221 21.152V44.806L1 22.761z" stroke="#262626" stroke-miterlimit="10" stroke-linecap="round" stroke-linejoin="round"/><path d="M38.221 44.806l36.657-22.045v42.632L38.22 86.545V44.806z" stroke="#262626" stroke-miterlimit="10" stroke-linecap="round" stroke-linejoin="round"/><path d="M74.878 22.76L38.22 1.257 1 22.761l37.221 22.045 36.657-22.045z" stroke="#262626" stroke-miterlimit="10" stroke-linecap="round" stroke-linejoin="round"/><path d="M5.73 52.1v7.105l15.292 8.965v-7.2L5.73 52.1zm11.104-38.045L51.82 36.43v7.012l2.965-2.847 2.165.612 2-2.447 2.4-.73-.166-7.176L26.41 8.62" stroke="#E41D2C" stroke-miterlimit="10" stroke-linecap="round" stroke-linejoin="round"/><path d="M62.767 51.423l19.377-11.506 7.267 19.378-26.644 19.983V51.423z" fill="#fff"/><path d="M62.767 51.244V78.5l23.797 13.523V65.339L62.767 51.244z" stroke="#262626" stroke-miterlimit="10" stroke-linecap="round" stroke-linejoin="round"/><path d="M86.564 65.339L110 51.244V78.5L86.564 92.024V65.339z" stroke="#262626" stroke-miterlimit="10" stroke-linecap="round" stroke-linejoin="round"/><path d="M110 51.244L86.564 37.495 62.767 51.244l23.797 14.095L110 51.244z" stroke="#262626" stroke-miterlimit="10" stroke-linecap="round" stroke-linejoin="round"/><path d="M65.79 70.002v4.543l9.778 5.73v-4.602l-9.778-5.671zm7.1-24.324l22.368 14.306v4.482l1.896-1.82 1.384.391 1.278-1.564 1.535-.467-.106-4.588-22.233-14.215" stroke="#E41D2C" stroke-miterlimit="10" stroke-linecap="round" stroke-linejoin="round"/></svg>