<svg width="93" height="92" fill="none" xmlns="http://www.w3.org/2000/svg"><path d="M3.363 35.638C1.88 37.213 1 38.928 1 40.85c0 6.163 8.664 11.167 19.32 11.167 5.862 0 11.12-1.506 14.665-3.892" stroke="#262626" stroke-miterlimit="10" stroke-linecap="round" stroke-linejoin="round"/><path d="M39.641 46.92v1.205c0 6.162-8.664 11.166-19.32 11.166C9.664 59.29 1 54.287 1 48.125V40.85" stroke="#262626" stroke-miterlimit="10" stroke-linecap="round" stroke-linejoin="round"/><path d="M27.433 48.843c-2.155.533-4.564.834-7.09.834-9.22 0-16.702-3.938-16.702-8.826 0-1.298.533-2.549 1.506-3.66" stroke="#262626" stroke-miterlimit="10" stroke-linecap="round" stroke-linejoin="round"/><path d="M39.641 48.704v7.274c0 6.162-8.664 11.166-19.32 11.166C9.664 67.144 1 62.14 1 55.978v-7.274" stroke="#262626" stroke-miterlimit="10" stroke-linecap="round" stroke-linejoin="round"/><path d="M39.641 56.557v7.274c0 6.163-8.664 11.167-19.32 11.167C9.664 74.998 1 69.994 1 63.83v-7.274" stroke="#262626" stroke-miterlimit="10" stroke-linecap="round" stroke-linejoin="round"/><path d="M39.641 64.434v7.274c0 6.162-8.664 11.166-19.32 11.166C9.664 82.874 1 77.87 1 71.708v-7.274" stroke="#262626" stroke-miterlimit="10" stroke-linecap="round" stroke-linejoin="round"/><path d="M39.641 72.287v7.274c0 6.163-8.664 11.167-19.32 11.167C9.664 90.728 1 85.724 1 79.562v-7.275m23.166-30.973c1.53.232 2.386.255 4.031.255 10.68 0 19.321-5.004 19.321-11.166 0-3.638-3.012-6.88-7.668-8.92m-4.865 26.642a31.767 31.767 0 01-6.788.718c-9.66 0-17.676-4.1-19.112-9.475" stroke="#262626" stroke-miterlimit="10" stroke-linecap="round" stroke-linejoin="round"/><path d="M47.518 30.403v7.274c0 4.795-5.212 8.873-12.533 10.471m4.911-24.047c3.081 1.599 4.981 3.823 4.981 6.278 0 4.17-5.05 7.668-12.44 8.595" stroke="#262626" stroke-miterlimit="10" stroke-linecap="round" stroke-linejoin="round"/><path d="M32.794 38.974c-3.313 1.552-7.53 2.479-12.14 2.479-10.68 0-19.32-5.004-19.32-11.166v-7.274" stroke="#262626" stroke-miterlimit="10" stroke-linecap="round" stroke-linejoin="round"/><path d="M39.975 23.012v7.275c0 3.521-2.803 6.648-7.204 8.687M20.655 26.348c10.67 0 19.32-4.999 19.32-11.166 0-6.167-8.65-11.166-19.32-11.166-10.671 0-19.321 5-19.321 11.166 0 6.167 8.65 11.166 19.32 11.166z" stroke="#262626" stroke-miterlimit="10" stroke-linecap="round" stroke-linejoin="round"/><path d="M39.975 15.182v7.274c0 6.163-8.664 11.167-19.32 11.167-10.657 0-19.321-5.004-19.321-11.167v-7.274" stroke="#262626" stroke-miterlimit="10" stroke-linecap="round" stroke-linejoin="round"/><path d="M20.655 24.009c9.224 0 16.703-3.952 16.703-8.827s-7.479-8.826-16.703-8.826c-9.225 0-16.703 3.951-16.703 8.826s7.478 8.827 16.703 8.827z" stroke="#262626" stroke-miterlimit="10" stroke-linecap="round" stroke-linejoin="round"/><path d="M90.028 5.53L81.801.86C71.127-1.586 25.763 25.765 25.763 35.105l8.228 4.67c3.06-8.568 18.47-18.07 26.49-23.016.722-.446 1.385-.855 1.973-1.223C69.348 11.756 83.58 3.973 90.028 5.53z" fill="#fff"/><path d="M90.028 5.53L81.801.86C71.127-1.586 25.763 25.765 25.763 35.105l8.228 4.67c3.06-8.568 18.47-18.07 26.49-23.016.722-.446 1.385-.855 1.973-1.223C69.348 11.756 83.58 3.973 90.028 5.53z" stroke="#E41D2C"/><path d="M26.43 34.66l7.116 4.003c4.225-9.34 21.793-19.791 28.686-23.794 8.45-4.67 18.234-9.784 24.906-10.451l-5.56-3.113C74.462-.252 50.446 12.423 36.437 23.542c-6.004 4.67-9.562 8.672-10.007 11.118zm7.56 5.782h-.221l-8.45-4.892s-.223-.223-.223-.445c0-3.558 5.56-8.672 10.451-12.453C48.667 12.201 73.796-1.808 82.023.192h.222l8.228 4.67c.222.223.445.445.222.89-.222.222-.444.445-.889.445-6.325-1.527-20.778 6.572-26.576 9.82-.113.065-.224.127-.33.186-6.894 4.003-24.906 14.677-28.242 23.794a.478.478 0 01-.445.445h-.222z" fill="#E41D2C"/><path d="M26.43 34.66l7.116 4.003c4.225-9.34 21.793-19.791 28.686-23.794 8.45-4.67 18.234-9.784 24.906-10.451l-5.56-3.113C74.462-.252 50.446 12.423 36.437 23.542c-6.004 4.67-9.562 8.672-10.007 11.118zm7.56 5.782h-.221l-8.45-4.892s-.223-.223-.223-.445c0-3.558 5.56-8.672 10.451-12.453C48.667 12.201 73.796-1.808 82.023.192h.222l8.228 4.67c.222.223.445.445.222.89-.222.222-.444.445-.889.445-6.325-1.527-20.778 6.572-26.576 9.82-.113.065-.224.127-.33.186-6.894 4.003-24.906 14.677-28.242 23.794a.478.478 0 01-.445.445h-.222z" stroke="#E41D2C"/><path d="M33.769 40.887c.161 5.145.182 9.999.201 14.505.112 26.461.173 40.965 28.484 32.415 28.528-24.344 28.59-38.765 28.707-65.383.02-4.505.04-9.36.202-14.67.222-11.786-57.817 21.792-57.594 33.133z" fill="#fff"/><path d="M33.769 40.887c.161 5.145.182 9.999.201 14.505.112 26.461.173 40.965 28.484 32.415 28.528-24.344 28.59-38.765 28.707-65.383.02-4.505.04-9.36.202-14.67.222-11.786-57.817 21.792-57.594 33.133z" stroke="#E41D2C"/><path d="M34.436 40.886c.222 5.115.222 10.007.222 14.677 0 15.788 0 27.352 6.226 32.021 4.003 3.114 10.897 2.891 21.348-.222C90.128 63.451 90.25 49.019 90.47 22.996l.003-.344c0-4.67 0-9.562.222-14.899 0-.752-.317-1.027-.55-1.228a2.247 2.247 0 01-.117-.106c-2.89-1.779-15.12 2.89-28.686 10.896-15.788 9.117-26.906 19.124-26.906 23.571zM48.89 90.92c-3.78 0-6.671-.89-8.895-2.446-6.671-4.892-6.671-16.678-6.671-32.911 0-4.67 0-9.34-.223-14.677-.222-6.004 13.787-16.677 27.574-24.905C71.794 9.31 86.47 2.639 90.695 5.085c.668.445 1.335 1.112 1.335 2.668-.223 5.337-.223 10.23-.223 14.9 0 26.684-.222 41.36-28.908 65.82 0 0-.222 0-.222.223-5.56 1.557-10.007 2.224-13.787 2.224z" fill="#E41D2C"/><path d="M34.436 40.886c.222 5.115.222 10.007.222 14.677 0 15.788 0 27.352 6.226 32.021 4.003 3.114 10.897 2.891 21.348-.222C90.128 63.451 90.25 49.019 90.47 22.996l.003-.344c0-4.67 0-9.562.222-14.899 0-.752-.317-1.027-.55-1.228a2.247 2.247 0 01-.117-.106c-2.89-1.779-15.12 2.89-28.686 10.896-15.788 9.117-26.906 19.124-26.906 23.571zM48.89 90.92c-3.78 0-6.671-.89-8.895-2.446-6.671-4.892-6.671-16.678-6.671-32.911 0-4.67 0-9.34-.223-14.677-.222-6.004 13.787-16.677 27.574-24.905C71.794 9.31 86.47 2.639 90.695 5.085c.668.445 1.335 1.112 1.335 2.668-.223 5.337-.223 10.23-.223 14.9 0 26.684-.222 41.36-28.908 65.82 0 0-.222 0-.222.223-5.56 1.557-10.007 2.224-13.787 2.224z" stroke="#E41D2C"/><path d="M62.454 50.893v36.914c23.794-20.458 27.797-33.8 28.464-53.37L62.454 50.894z" fill="#fff"/><path d="M62.454 50.893v36.914c23.794-20.458 27.797-33.8 28.464-53.37L62.454 50.894z" stroke="#E41D2C"/><path d="M63.121 51.338v35.135c21.57-18.68 26.24-31.577 26.907-50.7L63.121 51.337zm-.667 37.136c-.094 0-.148 0-.197-.017-.065-.023-.12-.078-.247-.205-.223-.223-.223-.445-.223-.667V50.893c0-.222.223-.444.445-.667l28.463-16.455c.223-.223.445-.223.668 0 .222.222.444.444.222.667-.667 20.458-5.115 33.8-28.686 53.814 0 0-.222 0-.222.222h-.223z" fill="#E41D2C"/><path d="M63.121 51.338v35.135c21.57-18.68 26.24-31.577 26.907-50.7L63.121 51.337zm-.667 37.136c-.094 0-.148 0-.197-.017-.065-.023-.12-.078-.247-.205-.223-.223-.223-.445-.223-.667V50.893c0-.222.223-.444.445-.667l28.463-16.455c.223-.223.445-.223.668 0 .222.222.444.444.222.667-.667 20.458-5.115 33.8-28.686 53.814 0 0-.222 0-.222.222h-.223z" stroke="#E41D2C"/><path d="M33.769 40.887c.087 3.95.106 7.726.123 11.316.027 5.504.052 10.57.321 15.146l28.464-16.456V15.76C48 23.986 33.547 35.105 33.769 40.887z" fill="#fff"/><path d="M33.769 40.887c.087 3.95.106 7.726.123 11.316.027 5.504.052 10.57.321 15.146l28.464-16.456V15.76C48 23.986 33.547 35.105 33.769 40.887z" stroke="#E41D2C"/><path d="M34.436 40.886c.222 5.115.222 10.007.222 14.677 0 3.78 0 7.338.222 10.674L62.01 50.67V17.093C45.777 26.21 34.436 36.217 34.436 40.886zm-.223 26.907h-.444a1.16 1.16 0 01-.223-.333 1.163 1.163 0 00-.222-.334c-.222-3.558-.222-7.56-.222-11.785 0-4.67 0-9.34-.223-14.677-.222-6.226 14.454-17.345 29.13-25.795.223-.222.446-.222.668 0 .222.223.445.445.445.667v35.135c0 .111-.056.222-.112.333-.055.112-.11.223-.11.334L34.435 67.793h-.223z" fill="#E41D2C"/><path d="M34.436 40.886c.222 5.115.222 10.007.222 14.677 0 3.78 0 7.338.222 10.674L62.01 50.67V17.093C45.777 26.21 34.436 36.217 34.436 40.886zm-.223 26.907h-.444a1.16 1.16 0 01-.223-.333 1.163 1.163 0 00-.222-.334c-.222-3.558-.222-7.56-.222-11.785 0-4.67 0-9.34-.223-14.677-.222-6.226 14.454-17.345 29.13-25.795.223-.222.446-.222.668 0 .222.223.445.445.445.667v35.135c0 .111-.056.222-.112.333-.055.112-.11.223-.11.334L34.435 67.793h-.223z" stroke="#E41D2C"/><path d="M25.763 34.883c.125-.375.18-.68.243-1.032.05-.275.104-.58.202-.97 2.668-5.559 15.344-14.899 28.019-22.237l4.892 2.891 3.335 2.001c-.588.368-1.25.777-1.974 1.223-8.02 4.945-23.43 14.448-26.489 23.016l-8.228-4.892z" fill="#fff"/><path d="M25.763 34.883c.125-.375.18-.68.243-1.032.05-.275.104-.58.202-.97 2.668-5.559 15.344-14.899 28.019-22.237l4.892 2.891 3.335 2.001c-.588.368-1.25.777-1.974 1.223-8.02 4.945-23.43 14.448-26.489 23.016l-8.228-4.892z" stroke="#E41D2C"/><path d="M26.653 34.66l7.116 4.003c3.75-8.824 19.755-18.524 27.174-23.02l.177-.107-6.893-4.002c-13.787 8.005-24.906 16.9-27.352 21.792 0 .222-.056.445-.111.667-.056.222-.111.445-.111.667zm7.338 5.782h-.222l-8.45-4.892s-.223-.223-.223-.667v-.223c.111-.333.167-.667.222-1 .056-.334.112-.668.223-1.001 3.113-6.004 16.455-15.566 28.463-22.46.223-.222.445-.222.667 0l8.228 4.893c.222.222.445.444.445.667 0 .11-.056.222-.111.333-.056.111-.111.223-.111.334-7.116 3.78-25.128 14.454-28.464 23.571a.478.478 0 01-.445.445h-.222z" fill="#E41D2C"/><path d="M26.653 34.66l7.116 4.003c3.75-8.824 19.755-18.524 27.174-23.02l.177-.107-6.893-4.002c-13.787 8.005-24.906 16.9-27.352 21.792 0 .222-.056.445-.111.667-.056.222-.111.445-.111.667zm7.338 5.782h-.222l-8.45-4.892s-.223-.223-.223-.667v-.223c.111-.333.167-.667.222-1 .056-.334.112-.668.223-1.001 3.113-6.004 16.455-15.566 28.463-22.46.223-.222.445-.222.667 0l8.228 4.893c.222.222.445.444.445.667 0 .11-.056.222-.111.333-.056.111-.111.223-.111.334-7.116 3.78-25.128 14.454-28.464 23.571a.478.478 0 01-.445.445h-.222z" stroke="#E41D2C"/><path d="M25.763 35.105l.667 34.245c.19 11.372 3.61 13.213 10.813 17.089 1.247.671 2.609 1.404 4.086 2.257-5.56-3.78-6.449-10.229-6.893-16.677l-.445-32.244-8.228-4.67z" fill="#fff"/><path d="M25.763 35.105l.667 34.245c.19 11.372 3.61 13.213 10.813 17.089 1.247.671 2.609 1.404 4.086 2.257-5.56-3.78-6.449-10.229-6.893-16.677l-.445-32.244-8.228-4.67z" stroke="#E41D2C"/><path d="M26.43 36.217l.667 32.91c.223 10.897 3.336 12.676 10.23 16.456-2.669-3.78-3.336-8.672-3.78-13.787l-.223-31.576-6.894-4.003zm14.9 52.924h-.223l-.923-.53c-1.108-.638-2.024-1.166-3.08-1.694l-.113-.061c-7.264-3.962-11.007-6.003-11.228-17.728l-.667-34.023c0-.111.056-.222.111-.333.056-.112.111-.223.111-.334.223-.222.445-.222.668 0l8.227 4.67c.111.11.167.222.223.333.055.111.11.223.222.334l.445 32.021c.444 6.449 1.334 12.453 6.67 16.233.223.223.446.667.223.89-.222.222-.445.222-.667.222z" fill="#E41D2C"/><path d="M26.43 36.217l.667 32.91c.223 10.897 3.336 12.676 10.23 16.456-2.669-3.78-3.336-8.672-3.78-13.787l-.223-31.576-6.894-4.003zm14.9 52.924h-.223l-.923-.53c-1.108-.638-2.024-1.166-3.08-1.694l-.113-.061c-7.264-3.962-11.007-6.003-11.228-17.728l-.667-34.023c0-.111.056-.222.111-.333.056-.112.111-.223.111-.334.223-.222.445-.222.668 0l8.227 4.67c.111.11.167.222.223.333.055.111.11.223.222.334l.445 32.021c.444 6.449 1.334 12.453 6.67 16.233.223.223.446.667.223.89-.222.222-.445.222-.667.222z" stroke="#E41D2C"/><path d="M26.208 62.679l7.783 4.67v-.223c0-.667 0-1.112.222-1.779l-.222-25.572-8.228-4.67.445 27.574z" fill="#fff"/><path d="M26.208 62.679l7.783 4.67v-.223c0-.667 0-1.112.222-1.779l-.222-25.572-8.228-4.67.445 27.574z" stroke="#E41D2C"/><path d="M26.875 62.234l6.449 3.78c0-.222 0-.666.222-.889l-.222-24.905-6.671-4.003.222 26.017zm7.338 5.56h-.222l-7.783-4.67c-.222-.223-.222-.445-.222-.667l-.89-27.352c0-.111.056-.222.111-.333.056-.112.111-.223.111-.334.223-.222.445-.222.668 0l8.227 4.67c.111.11.167.222.223.333.055.111.11.223.222.334l.445 25.572c-.223.668-.223 1.335-.223 1.78v.222c0 .222-.222.445-.444.667 0-.222-.223-.222-.223-.222z" fill="#E41D2C"/><path d="M26.875 62.234l6.449 3.78c0-.222 0-.666.222-.889l-.222-24.905-6.671-4.003.222 26.017zm7.338 5.56h-.222l-7.783-4.67c-.222-.223-.222-.445-.222-.667l-.89-27.352c0-.111.056-.222.111-.333.056-.112.111-.223.111-.334.223-.222.445-.222.668 0l8.227 4.67c.111.11.167.222.223.333.055.111.11.223.222.334l.445 25.572c-.223.668-.223 1.335-.223 1.78v.222c0 .222-.222.445-.444.667 0-.222-.223-.222-.223-.222z" stroke="#E41D2C"/></svg>