<svg width="22" height="22" fill="none" xmlns="http://www.w3.org/2000/svg"><path d="M10.662 14.748A1.15 1.15 0 009.524 15.9c0 .614.494 1.153 1.138 1.153.644 0 1.153-.539 1.153-1.153 0-.629-.524-1.153-1.153-1.153z" fill="#E41D2C"/><path d="M10.662 14.748A1.15 1.15 0 009.524 15.9c0 .614.494 1.153 1.138 1.153.644 0 1.153-.539 1.153-1.153 0-.629-.524-1.153-1.153-1.153z" stroke="#E41D2C"/><path d="M10.857 6.016c-2.022 0-2.95 1.198-2.95 2.007 0 .584.494.853.898.853.341 0 .48-.204.64-.441.221-.326.483-.712 1.367-.712.75 0 1.348.33 1.348 1.019 0 .661-.561 1.093-1.036 1.457a7.856 7.856 0 00-.297.235c-.434.375-1.003.989-1.003 2.277 0 .778.21 1.003.824 1.003.734 0 .883-.33.883-.614 0-.779.015-1.228.84-1.872.403-.315 1.677-1.333 1.677-2.741 0-1.408-1.274-2.471-3.19-2.471z" fill="#E41D2C"/><path d="M10.857 6.016c-2.022 0-2.95 1.198-2.95 2.007 0 .584.494.853.898.853.341 0 .48-.204.64-.441.221-.326.483-.712 1.367-.712.75 0 1.348.33 1.348 1.019 0 .661-.561 1.093-1.036 1.457a7.856 7.856 0 00-.297.235c-.434.375-1.003.989-1.003 2.277 0 .778.21 1.003.824 1.003.734 0 .883-.33.883-.614 0-.779.015-1.228.84-1.872.403-.315 1.677-1.333 1.677-2.741 0-1.408-1.274-2.471-3.19-2.471z" stroke="#E41D2C"/><path d="M11 0c6.08 0 11 4.92 11 11v11H11C4.92 22 0 17.08 0 11S4.92 0 11 0zm0 20.281h9.281V11A9.276 9.276 0 0011 1.719 9.276 9.276 0 001.719 11a9.276 9.276 0 009.28 9.281z" fill="#E41D2C"/><path d="M11 0c6.08 0 11 4.92 11 11v11H11C4.92 22 0 17.08 0 11S4.92 0 11 0zm0 20.281h9.281V11A9.276 9.276 0 0011 1.719 9.276 9.276 0 001.719 11a9.276 9.276 0 009.28 9.281z" stroke="#E41D2C"/></svg>