<svg width="17" height="16" fill="none" xmlns="http://www.w3.org/2000/svg"><path d="M8.45 12.61a.781.781 0 100-1.563.781.781 0 000 1.562z" fill="#E41D2C"/><path d="M8.45 0c-4.421 0-8 3.578-8 8 0 4.422 3.579 8 8 8 4.423 0 8-3.578 8-8 0-4.422-3.577-8-8-8zm0 14.75A6.746 6.746 0 011.7 8a6.746 6.746 0 016.75-6.75A6.746 6.746 0 0115.2 8a6.746 6.746 0 01-6.75 6.75z" fill="#E41D2C"/><path d="M8.45 4.016a2.503 2.503 0 00-2.5 2.5c0 .343.282.625.626.625a.627.627 0 00.625-.625 1.25 1.25 0 111.25 1.25.627.627 0 00-.625.625v1.562c0 .344.28.625.625.625a.627.627 0 00.625-.625V8.938a2.505 2.505 0 001.875-2.422c0-1.378-1.122-2.5-2.5-2.5z" fill="#E41D2C"/></svg>