<svg width="21" height="20" fill="none" xmlns="http://www.w3.org/2000/svg"><path d="M18.512.686H2.687C1.7.686.9 1.508.9 2.513v11.518c0 1.006.8 1.828 1.787 1.828h1.625v2.78c0 .272.16.519.409.624a.653.653 0 00.723-.147l3.181-3.257h9.887c.988 0 1.788-.822 1.788-1.828V2.513c0-1.005-.8-1.827-1.788-1.827zm.463 13.345a.47.47 0 01-.463.476H8.35a.656.656 0 00-.47.2l-2.243 2.296v-1.82a.67.67 0 00-.662-.675H2.687a.47.47 0 01-.462-.476V2.512a.47.47 0 01.462-.476h15.825a.47.47 0 01.463.476V14.03z" fill="#E41D2C" stroke="#E41D2C" stroke-width=".2"/></svg>