<svg width="20" height="20" fill="none" xmlns="http://www.w3.org/2000/svg"><path d="M18.94 7.79h0c.003.001.01.002.02.01.01.01.024.026.033.054l.955-.297-.955.297a.144.144 0 01-.03.144s0 0 0 0l-4.365 3.994-.424.388.122.562 1.287 5.913c.015.069-.016.118-.038.135l-.001.001a.054.054 0 01-.013.008h-.003a.02.02 0 01-.004 0h-.006a.042.042 0 01-.011-.005l-4.978-3.106-.529-.33-.53.33-4.978 3.106h0a.037.037 0 01-.01.005L4.477 19a.02.02 0 01-.007-.001.044.044 0 01-.013-.007l-.002-.002c-.022-.017-.053-.066-.038-.135 0 0 0 0 0 0l1.287-5.913.122-.562-.424-.389-4.364-3.993a.117.117 0 01-.033-.057.158.158 0 01.002-.086.116.116 0 01.034-.054c.01-.009.017-.01.021-.01 0 0 0 0 0 0l5.773-.547.602-.057.23-.56 2.281-5.574h0a.1.1 0 01.034-.046A.03.03 0 0110 1c.004 0 .01 0 .019.007.009.006.023.02.034.047 0 0 0 0 0 0l2.282 5.573.229.56.602.057 5.773.547z" stroke="#E6CD73" stroke-width="2"/></svg>