<svg width="103" height="70" fill="none" xmlns="http://www.w3.org/2000/svg"><path d="M0 0l2.6 69.7 99.1-5.6L103 .9 0 0z" fill="#FFF3D6"/><path d="M6.4 43.8l13.2-33.1L35 52l20.5-22.3 20.7 11.9 19.3-10.7" stroke="#BB9753" stroke-miterlimit="10"/><path d="M6.7 54.8L29.6 38l42.8-6.5 25.2 4.2" stroke="#BB9753" stroke-miterlimit="10"/><path d="M5.8 26.3l5.3 4.3 8.3 1.9 6.6-4 8.2-2.5 11-16.9L79.6 23l18.7-8.3" stroke="#EE7754" stroke-miterlimit="10"/><path d="M11.6 31.6c1.4 0 1.5-2.2 0-2.2-1.5-.1-1.5 2.2 0 2.2zM26 29.5c1.4 0 1.5-2.2 0-2.2-1.4-.1-1.4 2.2 0 2.2zm3.8 9.6c1.4 0 1.5-2.2 0-2.2-1.5-.1-1.5 2.2 0 2.2zm20.7-3.3c1.4 0 1.5-2.2 0-2.2s-1.5 2.2 0 2.2zm10.9-1.4c1.4 0 1.5-2.2 0-2.2-1.5-.1-1.5 2.2 0 2.2zm28.1.8c1.4 0 1.5-2.2 0-2.2s-1.5 2.2 0 2.2z" fill="#4BCC6A"/><path d="M95.1 61l1.4-1.8" stroke="#2A2893" stroke-miterlimit="10"/><path d="M7.3 7.3L5.2 5.5 7 62.2l89.3-3-1.5-2.3" stroke="#BB9753" stroke-miterlimit="10"/><path d="M3.2 6.6L5 4.8" stroke="#2A2893" stroke-miterlimit="10"/><defs><clipPath id="clip0"><path fill="#fff" d="M0 0h103v69.7H0z"/></clipPath></defs></svg>