<svg width="18" height="18" fill="none" xmlns="http://www.w3.org/2000/svg"><path d="M.042.722V1c-.056.111-.056.167 0 .222v.056l5.277 16.055c.112.334.39.556.723.667h.222a.92.92 0 00.667-.278l4.277-4.278 1.445.612c.5.222 1.055-.056 1.278-.556.222-.5-.056-1.056-.556-1.278l-2.056-.833c-.388-.167-.777-.056-1.055.222l-3.611 3.611-3.89-11.944 10.723 6.833c.056.056.111.056.222.111h.056c.055 0 .167.056.222.056h.278c.055 0 .111-.056.167-.056 0 0 .055 0 .055-.055a.12.12 0 00.111-.111s.056 0 .056-.056l3-3c.222-.222.333-.611.278-.889-.056-.333-.334-.611-.667-.722l-16-5.333h-.056C1.153 0 1.098 0 1.042 0H.764C.653.056.597.056.542.111c0 0-.056 0-.056.056-.111 0-.167.055-.222.11C.208.334.153.39.153.445V.5s0 .056-.056.056C.042.61.042.666.042.722zM13.875 8L8.097 4.333l7.111 2.334L13.875 8z" fill="#E41D2C"/></svg>