<svg width="22" height="12" fill="none" xmlns="http://www.w3.org/2000/svg"><path d="M10.78 11.665h1.21s.385-.055.55-.22c.165-.165.165-.55.165-.55s0-1.595.715-1.815c.715-.22 1.705 1.54 2.695 2.255.77.495 1.32.385 1.32.385l2.695-.055s1.375-.11.715-1.21c-.055-.11-.385-.825-1.98-2.31-1.65-1.54-1.43-1.32.55-4.015 1.21-1.65 1.705-2.64 1.54-3.08C20.79.665 19.91.775 19.91.775h-3.025S16.665.72 16.5.83s-.275.33-.275.33-.495 1.265-1.1 2.365c-1.32 2.255-1.87 2.42-2.09 2.255-.495-.275-.385-1.265-.385-1.98 0-2.2.33-3.135-.66-3.355-.33-.055-.55-.11-1.43-.165-1.1 0-1.98 0-2.475.275-.33.165-.605.55-.44.55.22 0 .66.11.88.44.33.44.275 1.375.275 1.375s.165 2.585-.44 2.915c-.385.22-.935-.22-2.145-2.31-.605-1.045-1.1-2.2-1.1-2.2s0-.22-.165-.33C4.73.83 4.51.83 4.51.83H1.65s-.44 0-.605.22c-.165.165 0 .495 0 .495S3.3 6.77 5.83 9.41c2.31 2.42 4.95 2.255 4.95 2.255z" fill="#262626"/></svg>