<svg width="121" height="110" fill="none" xmlns="http://www.w3.org/2000/svg"><path d="M34.748 65.211s6.408 20.567 13.075 29.594c6.63 8.921-9.73 10.45-9.73 10.45L27.37 65.049l7.379.162z" fill="#C5D5D8"/><path d="M67.796 12.928s16.643 36.15 21.85 37.89" stroke="#fff" stroke-miterlimit="10"/><path d="M42.856 83.183l1.817 4.566-3.278.426-1.804-3.508 3.265-1.484z" fill="#EA5959"/><path d="M71.618 7.592l23.366 47.046L36.8 65.682l-7.588-21.93 42.406-36.16z" fill="#C5D5D8"/><path d="M32.462 37.787l14.292 31.061s-18.549 10.905-26.145 7.04c-5.29-2.655-11.123-16.102-13.714-23.587-1.058-3.058.987-6.363 4.927-7.608l20.64-6.906z" fill="#EE7754"/><path d="M68.441 10.698l20.855 46.617" stroke="#fff" stroke-miterlimit="10"/><path d="M80.703 12.004s18.194 17.079 17.712 30.704M82.514 6.655s24.33 19.796 22.741 32.27" stroke="#EA5959" stroke-miterlimit="10"/><defs><clipPath id="clip0"><path transform="scale(-1 1) rotate(19.088 -46.779 -278.229)" fill="#fff" d="M0 0h99v82H0z"/></clipPath></defs></svg>