<svg width="18" height="15" fill="none" xmlns="http://www.w3.org/2000/svg"><path d="M8.47 10.282a.338.338 0 00.056.05l.028.02c.01.007.02.018.031.025l.032.021c.01.007.021.01.032.018.01.007.02.01.035.017l.031.014c.01.004.021.007.036.014l.035.014c.01.004.02.008.035.008l.039.01c.014.003.028.003.038.007.01 0 .021.004.032.004.05.003.098.003.147 0 .011 0 .022-.004.032-.004.014-.004.028-.004.039-.007l.038-.01a.102.102 0 01.036-.008c.01-.003.024-.007.035-.014l.035-.014c.01-.003.021-.01.032-.014.01-.007.024-.01.035-.017.01-.007.02-.01.031-.018l.032-.021a.194.194 0 00.032-.025c.01-.007.017-.014.028-.02l.053-.05 3.75-3.751a.75.75 0 10-1.062-1.062L9.757 7.937V1A.76.76 0 009 .251a.75.75 0 00-.749.75v6.936L5.783 5.47a.75.75 0 10-1.062 1.062l3.748 3.751z" fill="#E41D2C"/><path d="M17.251 9.751a.75.75 0 00-.749.749v2.999h-15V10.5A.75.75 0 000 10.5v3.751c0 .412.338.749.749.749h16.499a.75.75 0 00.748-.749V10.5a.744.744 0 00-.745-.749z" fill="#E41D2C"/></svg>