<svg width="18" height="18" fill="none" xmlns="http://www.w3.org/2000/svg"><path d="M8.47 13.282a.37.37 0 00.055.05.188.188 0 00.029.02c.01.007.02.018.031.025l.032.021c.01.007.02.01.031.018.011.007.022.01.036.017l.031.014c.01.004.021.007.035.014l.036.014c.01.004.02.007.035.007l.038.01c.014.004.028.004.039.008.01 0 .021.004.032.004.049.003.098.003.147 0 .01 0 .021-.004.032-.004.014-.004.028-.004.039-.007l.038-.01a.104.104 0 01.035-.008.134.134 0 00.036-.014l.035-.014c.01-.003.02-.01.031-.014.011-.007.025-.01.036-.017.01-.007.02-.01.031-.018l.032-.021a.189.189 0 00.032-.025c.01-.007.017-.014.028-.02a.802.802 0 00.052-.05l3.752-3.751a.75.75 0 10-1.062-1.062l-2.468 2.468V4A.76.76 0 009 3.251.75.75 0 008.251 4v6.937L5.783 8.47a.75.75 0 10-1.062 1.062l3.748 3.751z" fill="#6C6C6C"/><path d="M17.251 12.751a.75.75 0 00-.749.749v2.999h-15V13.5A.75.75 0 000 13.5v3.751c0 .412.338.749.749.749h16.499a.75.75 0 00.748-.749V13.5a.744.744 0 00-.745-.749z" fill="#6C6C6C"/></svg>