<svg width="820" height="696" fill="none" xmlns="http://www.w3.org/2000/svg"><path fill-rule="evenodd" clip-rule="evenodd" d="M779.219 256.611c67.227 80.564 47.062 160.338-32.034 230.24-50.224 44.231-115.474 68.322-168.859 107.814-73.556 54.894-179.142 119.266-274.841 96.36-58.923-14.217-121.801-28.433-177.954-49.76-48.642-18.561-99.26-46.6-118.241-98.335-6.723-18.167-8.7-37.124-6.327-56.079 4.745-41.468 52.99-101.101 82.254-139.013.79-3.161 1.978-5.924 2.768-9.084 6.327-18.957 12.655-37.912 18.19-57.263 25.31-87.278 63.274-158.76 139.991-212.075 35.196-24.09 69.601-36.728 110.727-47.786l1.187-.395h.791c13.049-3.949 23.331-9.873 37.568-12.637C490.535-9.57 573.185-2.065 650.298 61.518c20.959 17.376 48.64 33.568 67.227 52.524 22.937 23.301 33.613 52.13 43.104 82.539 6.326 19.747 13.043 39.888 18.59 60.03z" fill="#fff" fill-opacity=".5"/><path fill-rule="evenodd" clip-rule="evenodd" d="M138.976 419.711s-11.864 10.267-15.423 12.242c-4.745 2.764-20.168 26.46-26.1 33.174-5.536 6.319-15.422 26.065-22.541 35.543-2.373 2.765-4.745 18.561-.792 22.116 11.864 9.872 41.128 5.133 53.388-1.581 3.163-1.578 15.027-30.804 16.213-35.937 1.977-10.269 7.118-26.855 3.955-36.728-2.769-7.503.396-13.823-5.933-23.695-1.581-2.371-1.581-5.53-2.767-5.134z" fill="#F9F9F9"/><path d="M95.081 529.107c-8.304 0-16.214-1.579-21.355-5.924-4.35-3.553-1.582-19.745.791-22.906 3.56-4.739 7.909-11.847 11.864-18.955 3.954-6.714 7.909-13.427 10.676-16.588 1.978-2.369 5.537-7.502 9.492-12.637 6.327-8.688 13.446-18.957 16.609-20.536 2.768-1.58 10.282-7.898 13.841-10.662l1.582-1.581h.79c.792.395.792 1.185 1.187 2.371.395.788.791 1.974 1.186 3.159 3.954 6.318 3.954 11.057 4.35 15.402 0 2.764.396 5.529 1.187 8.292 2.768 7.9 0 20.141-2.373 30.015-.396 2.369-1.186 4.739-1.582 6.714-.792 4.739-13.05 34.359-16.213 36.333-6.328 3.949-19.774 7.503-32.032 7.503zm43.894-108.999s-.79.791-1.582 1.185c-3.163 2.765-11.072 9.478-13.839 11.058-2.769 1.579-10.282 11.453-16.215 20.536-3.953 5.133-7.513 10.268-9.49 12.637-2.768 3.159-6.723 9.479-10.678 16.587-3.953 7.109-8.304 14.217-11.864 18.956-1.977 2.765-4.745 18.167-.79 21.722 12.258 9.872 41.522 4.739 52.99-1.581 2.769-1.578 14.633-30.013 15.819-35.543.396-1.974.79-4.343 1.582-6.713 2.373-9.873 5.141-21.72 2.373-29.62-1.187-3.159-1.187-5.528-1.583-8.292-.394-4.345-.79-9.084-4.349-15.008-.791-1.184-.791-1.974-1.186-3.159-.396-1.58-.792-2.765-1.188-2.765z" fill="#000"/><path fill-rule="evenodd" clip-rule="evenodd" d="M142.93 403.123c-.394 32.778-.79 61.213 28.869 72.27-8.7-88.462 35.591-239.323 113.892-306.064 17.398-14.613 69.994-48.576 88.58-41.863-10.281 3.95-31.635 17.377-41.127 23.696-42.314 28.83-73.158 66.742-94.514 113.343-31.24 67.926-41.918 152.835-52.594 222.737 44.29 20.536 92.932 42.651 149.877 41.072 0-121.636 22.936-315.149 149.085-378.337 7.119-3.554 13.446-6.319 24.519-1.58-155.809 104.655-139.991 236.559-156.599 375.967l14.235 5.135c-7.513-29.225-3.163-63.188 0-93.202 8.7 22.116 3.955 41.071 21.354 63.977 18.192 24.486 36.383 16.588 56.155 28.435 48.641-1.185 143.946-44.231 184.282-67.137 46.267-26.461 117.054-72.667 92.536-144.543-41.128-158.364-51.409-124.4-107.563-173.766-63.669-55.684-137.619-59.238-218.291-40.677-176.372 39.493-206.823 144.937-252.696 300.537zm322.296 78.984C359.244 324.929 604.821 99.427 662.558 196.578c-70.787 8.294-127.732 16.192-170.045 77.8-54.969 79.774-29.66 125.586-27.287 207.729z" fill="#F4F4F4"/><path d="M367.944 529.5l-15.423-5.529v-.395c2.768-21.721 4.35-43.442 6.327-64.374 9.886-114.921 18.982-223.131 149.877-311.594-10.678-4.344-17.005-1.185-23.331 1.975-55.76 28.039-96.887 84.118-121.801 167.053-22.54 74.641-27.286 155.994-27.286 210.889v.395h-.395c-57.341 1.58-106.773-20.932-149.877-41.073h-.395v-.394c1.185-6.714 1.977-13.427 3.163-20.141 9.886-65.953 20.958-140.988 49.432-202.596 22.144-47.786 52.99-84.909 94.908-113.739 9.096-6.318 29.66-18.956 39.942-23.3-18.982-4.739-69.204 26.855-87.001 42.257-75.927 64.373-122.59 214.443-113.89 305.67v.79l-.792-.394c-30.054-11.059-29.658-39.492-29.262-72.666l.394-.79c22.542-76.616 41.918-142.567 77.509-193.512 18.587-26.855 41.128-48.182 68.019-65.163 29.264-18.561 64.459-32.384 107.563-42.257 44.291-10.268 82.254-12.637 115.868-7.503 39.15 5.924 72.764 21.72 102.818 48.18 13.051 11.453 23.727 18.561 33.219 24.486 29.658 19.351 43.104 28.434 74.74 149.676 10.678 31.594 3.955 62.002-19.773 90.042-20.168 23.696-49.432 41.862-72.763 55.29-39.941 22.905-135.244 65.952-184.281 67.137-7.514-4.345-14.633-6.32-21.355-7.899-11.864-2.764-23.332-5.529-34.8-20.931-11.073-14.612-13.049-27.249-15.423-40.282-1.186-7.108-2.372-14.612-5.537-22.116-3.557 29.224-7.117 62.398 0 91.228l-.394 1.58zm-14.237-5.924l13.05 4.738c-7.119-28.829-3.164-61.608 0-90.832l.395-3.16.792 1.58c3.164 8.294 4.745 16.192 5.931 24.09 2.374 13.034 4.35 25.671 15.423 39.888 11.072 15.006 22.542 17.771 34.009 20.536 7.119 1.58 14.236 3.555 21.75 7.898 49.037-1.185 143.945-44.231 183.887-67.137 54.967-31.593 115.471-76.22 92.536-144.147-31.242-120.847-44.687-129.535-74.346-148.886-9.49-5.924-19.772-13.032-33.217-24.88-55.76-48.97-124.964-62.003-217.896-40.677-175.978 40.282-206.428 143.753-252.299 300.142v.789c-.396 32.384-1.188 60.423 28.076 71.482-3.955-44.627 5.141-104.26 24.518-160.735 21.751-62.792 53.781-114.133 89.768-144.937 18.191-15.402 70.787-48.575 88.977-41.861l1.188.395-1.188.395c-10.282 3.949-31.636 17.376-41.126 23.695-41.918 28.039-72.764 64.768-94.91 112.554-28.472 61.608-39.544 136.247-49.432 202.2-1.186 6.714-1.976 13.428-3.163 19.747 43.105 19.745 91.746 42.257 148.691 40.676 0-55.288 5.141-136.248 27.286-210.889 24.914-83.328 66.041-139.408 122.195-167.447 6.723-3.554 13.445-6.714 24.915-1.58l.79.395-.79.395C378.225 236.466 369.13 344.675 359.244 459.598c-1.188 20.931-3.164 42.651-5.537 63.978zm112.308-39.888l-.79-1.184c-46.663-69.508-20.959-143.753-1.186-182.06 17.399-33.963 43.104-65.953 72.369-90.043 28.868-23.696 58.131-37.123 81.858-37.912 19.772-.396 35.195 7.502 44.687 23.694l.394.396h-.79c-68.019 7.898-126.545 15.006-170.045 77.404-41.918 60.423-37.173 101.496-31.637 153.625 1.977 16.982 3.955 34.359 4.35 54.106l.79 1.974zm154.228-310.015h-1.977c-23.727.79-52.596 14.218-81.464 37.518-29.263 24.09-54.968 55.684-72.368 89.647-19.377 37.913-45.082 110.974.396 180.086-.79-19.351-2.372-35.938-4.35-52.526-5.932-52.129-10.282-93.596 31.636-154.019 19.773-28.435 43.5-46.996 74.742-58.845 27.285-10.267 58.131-14.612 94.908-18.955-8.701-15.402-23.332-22.906-41.523-22.906z" fill="#F4F4F4"/><path fill-rule="evenodd" clip-rule="evenodd" d="M136.206 425.244l1.186 35.937c-65.25 32.78-31.636 35.543-56.945 46.207.396-28.04 32.032-53.709 55.759-82.144zm6.723-22.116l-52.99 71.086C75.702 492.381 67.793 508.177 65.024 522c-12.258 61.214 73.556 85.304 134.06 106.234 206.822 70.692 218.29 20.141 359.862-64.373 34.01-20.141 69.995-37.517 104.4-58.053 63.272-37.123 145.124-127.166 58.131-189.168 24.519 72.271-46.663 118.476-92.536 144.541-40.336 22.906-135.64 65.953-184.281 67.137l-77.509.396-14.237-5.135c16.609-139.408 1.188-271.311 156.6-375.967-11.072-4.739-17.399-1.974-24.517 1.58C358.847 212.38 335.91 405.893 335.91 527.53c-56.945 1.578-105.586-20.537-149.877-41.073 10.678-69.901 20.96-154.811 52.595-222.737 21.356-46.601 52.596-84.513 94.514-113.342 9.49-6.32 30.846-19.747 41.128-23.696-18.586-6.714-71.182 26.854-88.583 41.861-78.299 66.742-122.59 217.603-113.89 306.066-29.658-10.267-29.264-38.702-28.868-71.481zm191.795 205.755c3.559-42.257-14.236-39.097-28.473-68.716l125.36 8.688c-14.633 8.688-47.455 16.586-48.642 37.122 36.778 15.008 73.555-7.502 109.936-11.847l-18.19 22.115c-58.527 48.971-156.996 65.953-211.568 33.175 33.614-5.53 45.082 3.159 71.577-20.537z" fill="#F4F4F4"/><path d="M352.518 662.199c-38.36 0-86.209-10.663-153.436-33.568-3.955-1.581-8.304-2.765-12.655-4.344-59.319-20.141-133.268-45.021-121.8-102.286 2.769-14.611 11.073-30.804 24.914-48.18l53.782-72.271v1.185c-.396 32.384-1.186 60.423 28.077 71.48-3.956-44.625 5.141-104.259 24.519-160.733 21.749-62.794 53.781-114.133 89.766-144.937 18.193-15.402 70.787-48.576 88.977-41.862l1.188.395-1.188.395c-10.28 3.949-31.636 17.376-41.126 23.696-41.522 28.829-72.368 65.557-94.514 113.343-28.472 61.607-39.546 136.248-49.432 202.199-1.186 6.714-1.976 13.428-3.163 19.747 43.105 19.747 91.746 42.257 148.691 40.677 0-55.289 5.141-136.249 27.286-210.888 24.914-83.329 66.041-139.409 122.195-167.448 6.723-3.555 13.445-6.714 24.913-1.58l.792.395-.792.395c-131.29 88.463-140.385 196.671-150.271 311.594-1.582 20.932-3.559 42.257-6.329 63.979l13.842 4.739 77.509-.396c49.036-1.184 143.946-44.231 183.886-67.137 54.968-31.594 115.473-76.22 92.536-144.147l-.396-1.184 1.188.79c26.099 18.561 39.151 41.466 37.967 67.137-.795 22.115-12.264 46.206-32.826 70.296-17.005 19.745-39.942 39.098-63.274 52.525-16.609 9.873-34.009 18.955-50.618 28.039-17.795 9.479-35.985 19.351-53.782 29.62-24.517 14.612-45.081 28.039-63.272 40.282-43.895 28.829-75.531 49.759-117.055 55.684-7.908 1.579-17.004 2.369-26.099 2.369zM142.531 404.314l-52.2 69.901c-13.445 17.377-21.75 33.175-24.517 47.786C54.346 578.87 127.9 603.75 186.822 623.497c4.35 1.579 8.305 2.765 12.656 4.343 171.231 58.449 207.612 34.359 296.194-24.09 18.191-11.847 38.755-25.67 63.272-40.282 17.401-10.267 35.987-20.141 53.782-29.619 16.609-9.083 34.009-18.167 50.618-28.04 44.687-26.459 93.716-75.825 95.695-122.031 1.185-25.275-11.067-46.996-36.376-65.557 10.282 31.198 3.163 61.212-20.168 88.463-20.169 23.696-49.433 41.861-72.764 55.288-39.941 22.906-135.246 65.953-184.281 67.137l-77.509.396-14.633-5.135v-.394c2.769-21.721 4.351-43.441 6.327-64.373 9.888-114.923 18.982-223.131 149.877-311.594-10.676-4.344-17.003-1.185-23.331 1.974-55.76 28.04-96.886 84.119-121.799 167.052-22.542 74.641-27.287 155.996-27.287 210.89v.396h-.396c-57.34 1.578-106.773-20.932-149.877-41.073h-.395v-.395c1.187-6.714 1.977-13.428 3.163-20.142 9.886-65.951 20.96-140.986 49.432-202.595 22.146-47.785 52.992-84.908 94.91-113.737 9.094-6.32 29.658-18.957 39.94-23.301-18.982-4.739-69.204 26.855-86.999 42.257-75.927 64.373-122.592 214.443-113.892 305.67v.791l-.79-.396c-30.45-10.663-30.45-38.702-29.66-71.086zm190.213 242.877c-27.285 0-51.012-5.923-69.598-16.98l-.792-.396h1.187c9.886-1.579 17.795-1.975 24.518-2.765 16.609-1.184 27.682-1.578 46.267-18.165 2.373-27.25-4.349-35.149-13.445-46.207-4.745-5.528-9.886-11.847-15.027-22.116l-.395-.788h.79l126.942 8.688-1.188.788c-3.558 1.975-8.304 4.345-13.445 6.32-15.027 6.714-34.008 15.008-34.8 30.014 24.519 9.874 49.037 2.764 73.16-3.949 11.864-3.159 24.122-6.714 35.985-7.899h1.188l-18.982 22.906c-28.473 23.696-67.623 40.677-107.564 47.39-11.863 1.975-23.331 3.159-34.801 3.159zm-68.017-16.98c52.99 31.198 150.667 15.402 209.986-33.965l17.4-21.325c-11.468 1.58-23.331 4.739-34.799 7.898-24.123 6.714-49.432 13.823-73.951 3.555h-.395v-.395c.79-15.797 20.168-24.09 35.59-31.199 4.351-1.975 8.7-3.949 11.863-5.53l-123.38-8.688c4.745 9.874 9.886 15.798 14.631 21.327 8.701 10.663 15.819 18.955 13.446 46.996-18.587 16.587-30.055 17.377-47.059 18.561-6.723.79-14.237 1.185-23.332 2.765zM80.049 508.18v-.791c.396-21.721 18.982-41.862 39.151-63.582 5.536-6.319 11.468-12.639 17.004-18.957l.792-.79 1.186 37.124h-.396c-39.94 20.141-42.71 28.433-44.686 34.753-1.187 3.949-2.373 7.108-12.26 11.452l-.79.791zm55.759-81.751c-5.14 6.32-11.072 12.243-16.213 18.167-19.378 20.931-37.964 41.072-38.754 62.003 9.096-3.949 9.886-6.713 11.468-10.662 1.977-6.32 5.14-15.402 44.687-35.149l-1.188-34.359z" fill="#F4F4F4"/><path fill-rule="evenodd" clip-rule="evenodd" d="M465.224 482.114c-2.768-82.539-28.077-128.35 27.286-207.731 42.314-61.607 99.259-69.505 170.046-77.799-57.341-97.151-302.918 128.35-197.332 285.53zm-87.791-367.28c35.195-.789 73.554-16.586 106.377 2.37-19.378 31.989-111.122 59.238-106.377 110.183 30.45-2.764 21.354-30.803 77.509-71.48 39.546-28.83 78.695-22.906 100.84-38.308-69.994-36.728-127.731-14.612-178.349-2.765zm-9.886 414.276l77.509-.396c-19.378-12.243-37.965-4.343-56.155-28.435-17.401-23.3-12.654-41.861-21.354-63.976-3.559 29.619-7.515 63.188 0 92.807zm-32.824 79.774c-26.495 23.301-37.963 15.007-71.18 20.93 54.176 32.78 153.04 15.404 211.567-33.173l18.191-22.115c-36.382 3.949-73.158 26.855-109.937 11.847 1.187-20.535 33.614-28.434 48.642-37.122l-125.359-8.69c13.841 29.62 31.636 26.067 28.076 68.323z" fill="#F4F4F4"/><path d="M332.747 647.187c-27.287 0-51.014-5.923-69.6-16.98l-.79-.396h1.186c9.886-1.579 17.794-1.975 24.517-2.765 16.609-1.184 27.682-1.579 46.269-18.166 2.372-27.25-4.351-35.148-13.446-46.206-4.745-5.53-9.886-11.847-15.027-22.116l-.396-.79h.792l126.94 8.688-1.186.79c-3.559 1.975-8.305 4.345-13.446 6.32-15.027 6.713-34.009 15.006-34.799 30.014 24.518 9.872 49.035 2.764 73.158-3.95 11.864-3.159 24.123-6.713 35.987-7.898h1.186l-18.982 22.906c-28.473 23.694-67.623 40.677-107.563 47.39-11.864 1.975-23.332 3.159-34.8 3.159zm-68.019-16.98c52.992 31.198 150.669 15.402 209.987-33.965l17.399-21.325c-11.467 1.58-23.331 4.739-34.799 7.898-24.123 6.714-49.432 13.823-73.95 3.555h-.396v-.396c.792-15.796 20.169-24.09 35.591-31.198 4.35-1.975 8.701-3.949 11.864-5.53l-123.382-8.688c4.745 9.873 9.886 15.798 14.632 21.326 8.7 10.664 15.818 18.956 13.445 46.996-18.586 16.587-30.054 17.376-47.059 18.562-6.723.79-14.236 1.184-23.332 2.765zm102.423-100.706c-7.513-29.225-3.56-62.794 0-92.017l.396-3.161.791 1.58c3.164 8.294 4.745 16.192 5.931 24.091 2.374 13.033 4.351 25.67 15.423 39.888 11.072 15.006 22.542 17.77 34.009 20.535 7.119 1.58 14.236 3.555 21.75 7.898l1.186.79-79.486.396zm.791-92.017c-3.559 29.223-7.118 62.398 0 90.831l75.532-.394c-6.723-3.949-13.841-5.53-20.168-7.108-11.864-2.765-23.332-5.53-34.8-20.931-11.073-14.612-13.051-27.251-15.423-40.283-1.186-7.109-2.373-14.217-5.141-22.115zm98.073 46.205l-.791-1.184c-46.663-69.507-20.959-143.752-1.186-182.06 17.4-33.963 43.104-65.953 72.368-90.043 28.868-23.696 58.131-37.123 81.858-37.912 19.774-.396 35.197 7.502 44.687 23.694l.396.396h-.792c-68.018 7.898-126.545 15.006-170.045 77.404-41.918 60.424-37.173 101.496-31.636 153.627 1.978 16.981 3.954 34.357 4.35 54.104l.791 1.974zm154.227-310.014h-1.978c-23.727.79-52.594 14.217-81.462 37.517-29.265 24.09-54.97 55.684-72.369 89.647-19.378 37.914-45.082 110.974.395 180.086-.79-19.351-2.372-35.938-4.35-52.525-5.931-52.13-10.281-93.597 31.636-154.02 19.773-28.435 43.5-46.996 74.742-58.845 27.286-10.266 58.131-14.611 94.909-18.955-8.7-15.402-23.333-22.905-41.523-22.905zm-242.809 54.103v-.394c-3.164-31.99 32.031-54.894 63.273-75.035 18.191-11.848 35.591-23.301 43.104-34.754-22.54-12.637-48.245-9.083-73.158-5.529-10.678 1.58-22.146 3.16-32.824 3.555h-3.955l3.955-.79c5.933-1.58 12.26-3.16 18.587-4.739 45.873-11.848 98.073-25.275 160.159 7.108l.79.395-.394.395c-9.492 6.319-21.75 9.083-35.591 12.243-19.773 4.344-42.314 9.478-65.25 26.065-27.682 20.141-39.546 37.518-48.246 49.761-8.7 12.637-13.842 20.535-29.263 21.719h-1.187zm68.018-120.056c13.446 0 26.495 2.37 38.755 9.083l.396.395-.396.395c-7.515 11.848-24.913 23.301-43.5 35.543-30.846 20.141-65.645 42.652-62.878 73.85 14.632-1.578 19.773-9.082 28.473-21.325 8.7-12.637 20.168-29.62 48.246-50.155 22.936-16.982 45.478-21.721 65.646-26.065 13.839-3.16 25.703-5.529 34.799-11.848-61.296-31.594-113.1-18.561-158.973-6.714-5.141 1.185-9.886 2.37-14.631 3.555 9.49-.395 18.982-1.975 28.472-3.16 12.26-1.974 24.123-3.554 35.591-3.554z" fill="#F4F4F4"/><path fill-rule="evenodd" clip-rule="evenodd" d="M135.019 390.492s-11.862 10.269-15.421 12.243c-4.747 2.765-20.564 26.855-26.497 33.569-5.931 6.713-15.423 26.459-22.936 35.937-2.373 2.765-5.14 18.957-.791 22.512 12.26 10.267 41.523 5.133 54.177-1.581 3.163-1.58 15.027-31.198 16.215-36.333 1.976-10.268 7.117-27.249 3.953-37.122-2.767-7.899.396-13.823-5.931-24.091-1.582-2.369-1.582-5.924-2.769-5.134z" fill="#F9F9F9"/><path fill-rule="evenodd" clip-rule="evenodd" d="M371.105 79.285c9.096-1.974 26.101-10.268 34.8-11.847 90.164-16.982 150.273-6.32 206.428 40.282 59.712 49.76 69.204 35.938 91.35 106.234 13.445 42.651 37.172 106.235 23.727 133.879-98.073 205.36-578.55 221.948-590.809 52.131-3.559-8.294.791-23.696 7.118-42.653 4.746-14.216 11.468-33.173 18.983-59.237 16.608-57.661 43.499-128.747 116.263-179.296 26.495-18.562 51.013-28.04 92.14-39.493z" fill="#F4F4F4"/><path fill-rule="evenodd" clip-rule="evenodd" d="M456.921 434.327c-43.104-137.829 10.678-229.056 133.268-286.715 40.732-19.351 66.041 1.58 73.95 17.377-149.877 12.637-236.086 93.201-202.868 267.758 1.977 9.478-3.558 4.739-4.35 1.58z" fill="#fff" fill-opacity=".5"/><path fill-rule="evenodd" clip-rule="evenodd" d="M138.975 373.505c-3.954 17.773-1.978 33.965 5.141 48.182 17.796 33.963 21.75 9.083 25.705-16.982 2.371-15.798 5.141-31.594 7.908-46.601 20.168-105.049 59.319-204.175 168.464-260.65 8.304-4.739 16.608 3.555 10.282 6.714-127.336 63.977-154.227 182.455-170.046 315.939-4.349 36.728-1.977 43.837 20.564 54.104 20.168 9.084 44.686 14.613 69.995 20.537 42.71 9.873 47.851 13.427 52.2-36.333 1.187-13.033 2.373-25.671 3.955-38.308 15.423-133.09 53.386-237.744 149.877-287.899 12.655-5.924 19.772 3.949 12.655 6.713-88.186 47.787-119.428 135.853-133.268 252.357-2.769 22.115-5.932 43.441-6.328 67.927-.395 24.484-8.305 46.206 38.754 42.651 26.497-1.974 52.992-4.343 78.697-9.478 115.867-22.906 209.589-80.169 241.621-141.778 11.074-21.326 11.864-44.232 9.492-64.767 52.193 54.894 45.086 100.706-17.4 155.995-41.522 36.728-112.309 65.557-164.905 104.655-83.045 61.608-162.926 101.1-224.618 86.092-158.577-38.307-265.349-64.766-257.044-139.013 3.163-25.669 64.063-100.704 78.299-120.057z" fill="#fff" fill-opacity=".5"/><path fill-rule="evenodd" clip-rule="evenodd" d="M76.888 478.165c15.028-30.409 32.822-53.314 51.013-77.8-2.768 13.427-2.768 22.511 5.933 35.939-18.983.79-37.965 20.141-56.946 41.861zM282.92 609.668c66.833-21.325 62.482-69.9 24.915-87.672 44.29 7.898 81.068 3.159 113.494-8.688-81.068 30.013-59.712 84.513 60.506 55.29-54.177 30.013-126.941 63.582-198.915 41.07z" fill="#F4F4F4"/><path fill-rule="evenodd" clip-rule="evenodd" d="M388.505 87.977c-3.163 3.949 48.641-9.479 81.068-3.95 11.864 1.975 20.563 6.319 12.654 12.243-25.705 20.536-60.504 31.199-84.627 63.583-11.072 15.006-10.282 26.459-.395 16.587 53.782-54.5 104.794-66.348 134.85-79.775 10.281-4.74 8.699-9.083-4.351-14.217-54.967-21.326-130.104 0-139.199 5.529z" fill="#fff" fill-opacity=".5"/></svg>