<svg width="173" height="103" fill="none" xmlns="http://www.w3.org/2000/svg"><g clip-path="url(#clip0)" fill-rule="evenodd" clip-rule="evenodd" fill="#fff"><path d="M7.994 103V73.184c16.372-12.39 32.744-24.588 49.115-36.98l25.04 18.78 12.134-9.099 41.026 30.784V103h-2.697V78.024L94.476 49.37l-12.135 9.1-25.039-18.78-46.419 34.85V103H7.994z"/><path d="M.482 66.408l4.045 5.034L57.11 32.72l25.617 19.167 11.749-8.906 44.3 33.3 3.659-4.259-47.96-36.398-10.785 8.131-26.58-19.941L.481 66.408zM27.64 37.947H16.084v13.747L27.64 42.98v-5.034zM15.314 77.056h16.179v16.457H13.965V77.056h1.349zm13.482 2.71H16.855v11.037h11.941V79.767zm6.741-2.71h15.986v26.138H33.996V77.056h1.541zm13.29 2.71H36.885v20.523h11.942V79.767zm71.266.001H83.497v20.522h36.596V79.767zm-37.944-2.71h40.833v26.137H80.608V77.056h1.54zm-13.098 2.71H57.11v11.036h11.942V79.767zm-13.29-2.71h15.987v16.456H54.22V77.056h1.541zm107.668-36.399L146.672 103h-2.889l16.179-60.019 3.467-2.323zm9.053-6.776L154.955 103h-2.889l16.95-66.602 3.466-2.516zM25.137 6.39l134.826 36.59-3.081 2.13L22.055 8.519l3.082-2.13z"/><path d="M34.189 0l134.826 36.592-3.082 1.936L31.107 2.13 34.189 0z"/></g><defs><clipPath id="clip0"><path fill="#fff" transform="translate(.482)" d="M0 0h172v103H0z"/></clipPath></defs></svg>