<svg width="709" height="601" fill="none" xmlns="http://www.w3.org/2000/svg"><path d="M515.188 305.733L616.371 85.254l-79.923-46.458L601.41 1l79.924 46.458v133.075l27.166 15.748v48.427l-26.379 15.354v49.608l-41.733 24.016-43.308-24.972-77.955 45.052-3.937-48.033z" fill="#fff"/><path d="M536.448 38.796l79.923 46.458m-79.923-46.458L601.41 1l79.924 46.458m-144.886-8.662l-70.081 152.367m48.821 114.57L616.371 85.254M515.188 305.733l3.937 48.033m-3.937-48.033l-17.324-10.237M616.371 85.254l64.963-37.796m0 0v133.075m27.166 15.748l-27.166 16.142v-31.89m27.166 15.748v48.427l-26.379 15.354v49.608l-41.733 24.016M708.5 196.281l-27.166-15.748m-40.946 153.153v-50.001l-43.308 25.029m43.308 24.972l-43.308-24.972m-77.955 45.052l77.955-45.052m-77.955 45.052l-25.592-14.961" stroke="#E41D2C"/><path d="M639.6 236.046V115.57l-43.687 94.885m43.687 25.591l-75.592 43.702 31.905-69.293m43.687 25.591l-43.687-25.591m-4.134 10.114l37.313 22.005m-24.875-50.229l35.399 20.57m-31.572-28.702l31.572 18.178m-27.745-26.788l27.745 16.264m-23.919-24.397l23.919 13.873m-20.092-22.005l20.092 11.481m-16.265-19.613l16.265 9.089m-11.959-18.178l11.959 6.697m-8.133-15.785l8.133 4.305m-52.142 91.845l31.094 19.135m-35.399-9.567l25.353 15.307m-29.659-5.74l19.613 11.481m-24.875-1.435l12.916 8.132m-18.178 4.783l4.784 2.871" stroke="#262626"/><path d="M547.291 32.572l79.924 46.458m-68.443-53.155l79.924 46.458m-69.4-53.155l79.924 46.458m-68.443-52.198L660.7 59.895M591.301 6.74l79.923 46.46" stroke="#E41D2C"/><path d="M1 504.951l101.184-220.479 64.962-37.796 79.924 46.458v133.075l27.166 15.748v48.427l-26.379 15.354v49.608l-41.733 24.016-43.308-24.972-77.955 45.052L4.937 552.59 1 504.951z" fill="#fff"/><path d="M102.184 284.472L1 504.951m101.184-220.479l79.923 46.458m-79.923-46.458l64.962-37.796 79.924 46.458M1 504.951l79.924 46.458M1 504.951l3.937 47.639 79.924 46.852m-3.938-48.033L182.108 330.93M80.924 551.409l3.937 48.033m97.246-268.512l64.963-37.796m0 0v133.075m27.166 15.748l-27.166 16.142v-31.89m27.166 15.748v48.427l-26.379 15.354v49.608l-41.733 24.016m68.112-137.405l-27.166-15.748m-40.946 153.153v-50.001l-43.308 25.029m43.308 24.972l-43.308-24.972m-77.955 45.052l77.955-45.052" stroke="#E41D2C" fill="#fff"/><path d="M205.336 481.722V361.246l-43.687 94.885m43.687 25.591l-75.592 43.702 31.905-69.293m43.687 25.591l-43.687-25.591" stroke="#262626" fill="#fff"/><path d="M157.425 465.491l37.312 22.005m-24.875-50.228l35.878 21.048m-32.051-29.181l32.051 18.657m-28.224-27.267l28.224 16.743m-24.397-24.875l24.397 14.351m-20.57-22.483l20.57 11.959m-16.743-20.091l16.743 9.567m-12.438-18.656l12.438 7.175m-8.611-16.264l8.611 4.783m-52.62 91.368l32.528 19.613m-36.834-10.046l26.31 15.786m-30.615-6.219l20.091 11.959m-25.353-1.913l13.873 8.611m-19.135 4.305l5.74 3.348" stroke="#262626"/><path d="M374.151 266.362c15.711-17.131 36.803-30.161 57.569-25.985 20.148 4.051 22.836 35.827 22.836 35.827s1.181 41.34-1.181 61.813-9.056 41.34-31.104 70.474c-11.764 15.546-28.74 22.836-41.339 25.985-9.056.788-14.174 0-17.323-1.181-10.418-3.412-20.587-12.364-22.048-27.953-1.498-15.972-1.888-28.148-1.371-41.34m33.961-97.64c-6.163 6.719-11.498 14.069-15.661 21.26-8.661 14.961-14.489 29.741-16.536 51.576-.865 9.226-1.466 17.184-1.764 24.804m33.961-97.64s3.237 31.89-7.786 56.3c-11.024 24.411-26.175 41.34-26.175 41.34" stroke="#262626" fill="#fff"/><path d="M374.124 266.97l80.365 46.88m-74.625-53.577l74.625 43.053m-66.493-50.228l66.493 38.747m-56.925-44.488l56.925 33.008m-46.88-37.791l45.923 26.788m-32.05-29.659l27.266 15.786m-74.624 22.005l80.365 46.88m-80.365-37.312l79.886 46.401m-80.843-36.834l79.887 46.401m-81.8-35.877l79.886 46.401m-83.713-33.964l79.886 46.401m-86.583-33.006l79.886 46.401m-87.54-32.051l79.886 46.402M340.638 363.6l79.887 46.401m-80.843-30.137l70.319 41.14m-69.363-26.789l57.882 33.964m-56.925-23.44l47.358 27.267m-44.488-15.308l31.094 18.178" stroke="#262626"/><path d="M225.022 280.142s7.017-22.318 13.386-35.828c9.55-20.256 16.228-31.346 30.71-48.427 14.293-16.858 29.528-29.134 42.127-37.796 11.053-7.599 15.748-10.236 29.922-14.961 10.63-3.544 18.482-4.71 29.528-3.15 6.358.898 15.749 4.725 15.749 4.725s48.82 27.166 81.498 47.245m0 0c3.747 2.302 5.826 3.709 9.055 6.693 8.852 8.18 11.305 15.421 15.355 26.773 4.896 13.723 4.725 37.009 4.725 37.009s1.727 29.594 0 48.426c-1.656 18.05-2.909 28.356-8.268 45.671-4.805 15.525-8.747 23.926-16.536 38.19-11.128 20.379-18.711 31.526-35.04 48.033-17.411 17.599-29.529 27.166-51.183 37.402-4.724 2.234-18.09 7.483-30.316 7.875-6.789.217-10.748.133-17.323-1.575-6.86-1.782-16.536-7.481-16.536-7.481M467.942 191.95s-7.968-3.549-13.386-4.724c-9.166-1.989-14.751-1.458-24.017 0-12.889 2.027-19.637 5.976-31.103 12.205-13.132 7.134-19.573 12.868-30.709 22.835-12.408 11.105-18.789 18.147-28.741 31.497-9.566 12.833-14.335 20.61-21.261 35.04-8.163 17.009-11.85 27.212-15.748 45.671-2.435 11.532-2.92 18.18-3.937 29.922-1.977 22.824 0 58.663 0 58.663s.872 9.41 1.968 15.355c1.353 7.334 1.739 11.67 4.725 18.504 2.29 5.244 4.037 8.029 7.48 12.599 3.013 3.998 8.662 9.449 8.662 9.449m0 0l-47.639-27.953M112.937 278.451l79.924 46.458m-68.443-53.155l79.923 46.458m-69.399-53.155l79.923 46.458m-68.442-52.199l79.923 46.458m-69.399-53.155l79.923 46.458" stroke="#E41D2C"/></svg>