<svg width="268" height="188" fill="none" xmlns="http://www.w3.org/2000/svg"><g clip-path="url(#clip0)" stroke-miterlimit="22.926"><path d="M70.4 139.569c38.769 0 70.174 9.114 70.174 20.412 0 11.222-31.405 20.412-70.174 20.412-38.769 0-70.174-9.114-70.174-20.412 0-11.298 31.405-20.412 70.174-20.412z" stroke="#000" stroke-width=".567"/><path fill-rule="evenodd" clip-rule="evenodd" d="M77.462 137.912c0 9.867 25.921 19.357 57.853 19.357 31.931 0 57.852-9.49 57.852-19.357l10.744-103.566H66.718l10.744 103.566z" fill="#fff" stroke="#000"/><path fill-rule="evenodd" clip-rule="evenodd" d="M135.766.377c-40.948 0-75.96 13.482-74.683 19.96.451 2.41.977 6.326 1.653 8.586 3.682 11.449 34.787 19.508 72.654 19.508 39.069 0 71.001-8.662 72.879-20.638l1.352-7.607c1.127-6.478-32.908-19.81-73.855-19.81z" fill="#fff" stroke="#E41D2C"/><path fill-rule="evenodd" clip-rule="evenodd" d="M135.39.377c-40.947 0-74.156 8.586-74.156 19.206S94.443 38.79 135.39 38.79c40.948 0 74.157-8.587 74.157-19.207 0-10.62-33.209-19.206-74.157-19.206z" fill="#fff" stroke="#E41D2C"/><path d="M178.667 67.337c15.402-2.787 40.196-11.223 27.874-35.702" stroke="#000"/><path fill-rule="evenodd" clip-rule="evenodd" d="M198.802 56.49l-21.112 6.93 1.503 7.23 20.511-6.778c3.156-1.28 2.63-6.704-.902-7.382z" fill="#fff" stroke="#000"/><path fill-rule="evenodd" clip-rule="evenodd" d="M178.216 63.344c-1.728 0-3.155 1.658-3.155 3.767 0 2.033 1.427 3.766 3.155 3.766 1.728 0 3.156-1.657 3.156-3.766 0-2.034-1.428-3.767-3.156-3.767z" fill="#fff" stroke="#000"/><path d="M67.92 27.643v2.033c0 1.808.151 3.465 1.804 4.444 2.029 1.28 4.508 2.26 7.363 3.39 2.48.979 3.156-.904 3.23-3.164l.076-1.883c-5.034-1.356-9.241-3.013-12.472-4.82z" stroke="#E41D2C"/><path d="M73.33 32.69c25.32 32.387 80.768 38.714 103.909 34.873.376-.076.676-.151 1.052-.151" stroke="#000"/><path fill-rule="evenodd" clip-rule="evenodd" d="M135.39 4.218c38.694 0 70.024 7.155 70.024 15.968 0 8.812-31.33 15.968-70.024 15.968-38.693 0-70.024-7.156-70.024-15.968 0-8.888 31.33-15.968 70.024-15.968z" fill="#fff" stroke="#E41D2C"/><path fill-rule="evenodd" clip-rule="evenodd" d="M135.39 4.218c38.694 0 70.024 7.155 70.024 15.968a3.51 3.51 0 01-.45 1.732c-5.26-7.607-34.186-13.482-69.198-13.482-36.064 0-65.741 6.176-69.573 14.16-.526-.753-.827-1.582-.827-2.485 0-8.813 31.33-15.893 70.024-15.893z" fill="#fff" stroke="#E41D2C" stroke-width=".999"/><path fill-rule="evenodd" clip-rule="evenodd" d="M95.57 62.893c3.606.3 6.311 3.088 6.086 6.176-.301 3.088-3.457 5.348-7.063 4.971-3.606-.301-6.311-3.088-6.086-6.176.3-3.088 3.456-5.348 7.063-4.971z" fill="#fff" stroke="#000"/><path fill-rule="evenodd" clip-rule="evenodd" d="M88.958 66.885c3.907-3.164 11.72-.452 12.397 2.786-.226 11.901-3.156 23.124-7.063 33.819l-14.65-3.163c1.352-12.277 4.131-23.726 9.316-33.442z" fill="#fff" stroke="#000"/><path fill-rule="evenodd" clip-rule="evenodd" d="M94.292 103.49l-1.803 7.08c-2.254 1.507-5.935-.225-8.49-.753-2.179-.452-5.635.226-6.311-1.958l1.878-7.532c1.879-3.239 13.224-2.11 14.726 3.163z" fill="#fff" stroke="#000"/><path fill-rule="evenodd" clip-rule="evenodd" d="M86.253 105.976c4.058.904 6.838 2.937 6.236 4.595-.6 1.657-4.432 2.259-8.49 1.431-4.057-.904-6.837-2.938-6.236-4.595.676-1.657 4.433-2.26 8.49-1.431z" fill="#fff" stroke="#000"/><path fill-rule="evenodd" clip-rule="evenodd" d="M54.171 118.329l54.923 8.661-6.236 39.619-55.975-11.825c-6.536-1.281-10.518-11.298-8.94-20.939 1.502-9.641 9.016-16.42 15.552-15.667.226.075.451.075.676.151z" fill="#fff" stroke="#E41D2C"/><path fill-rule="evenodd" clip-rule="evenodd" d="M109.169 126.84c6.236.979 9.917 10.695 8.264 21.617-1.728 10.996-8.189 19.056-14.5 18.077-6.236-.98-9.918-10.696-8.265-21.617 1.728-10.997 8.19-19.056 14.501-18.077z" fill="#fff" stroke="#E41D2C" stroke-width=".999"/><path fill-rule="evenodd" clip-rule="evenodd" d="M84.074 108.01c1.127-.377 2.33.226 2.78.753.601.678-.225 2.184-.526 3.691-.3 1.28-.225 2.56 1.954 3.088l28.325 6.025c7.739 2.335 8.415 6.327 5.41 12.503l-4.508 9.114c-2.179 4.218-4.959 6.628-8.791 6.553v-.15h-.301c-1.127-.151-1.878-1.432-1.652-2.787.225-1.356 1.202-1.883 2.329-1.657 1.653-.452 3.23-1.657 4.583-3.917l3.907-8.059c1.577-3.691 2.254-6.327-2.329-7.608l-27.8-5.875c-4.883-1.356-6.461-3.239-5.334-8.586.225-1.13.751-2.636 1.953-3.088zm97.448 75.772c-4.132-2.937-9.166-8.586-12.247-11.147-4.207-3.39-6.236-8.135-6.311-17.098l-.225-79.69c0-10.318 4.132-17.474 8.189-19.357l14.351-5.875 46.056-9.189c14.877-.678 28.326 7.608 33.134 18.228 1.127 2.485 1.954 5.046 2.029 7.682l-.376 7.91.075 70.575c-.15 8.887-.075 23.951-11.044 25.985l-48.461 15.215c-6.086 1.356-19.76.678-25.17-3.239z" fill="#fff" stroke="#000"/><path fill-rule="evenodd" clip-rule="evenodd" d="M183.851 57.47c8.265 0 14.876 1.807 14.876 4.067 0 2.26-6.687 4.067-14.876 4.067-8.265 0-14.876-1.807-14.876-4.067 0-2.26 6.686-4.068 14.876-4.068z" fill="#fff" stroke="#000"/><path fill-rule="evenodd" clip-rule="evenodd" d="M200.08 50.54l.075 10.696c0 .075.075-.377.075.15s-6.837 2.862-14.951 2.862c-8.19 0-14.651-1.807-14.802-2.787l-.075-10.996c0 .979 6.687 1.807 14.877 1.807 7.814-.075 14.2-.828 14.801-1.732z" fill="#fff" stroke="#000"/><path fill-rule="evenodd" clip-rule="evenodd" d="M181.522 183.782c-5.635-4.067-4.208-15.893-4.133-22.37l1.203-80.141c.225-14.989 10.143-18.152 25.845-21.843l38.018-6.402c14.801-2.938 24.869-1.432 25.094 14.01.075 5.498-1.052 3.464-.976 8.435l.676 72.458c-.151 8.888 2.103 23.651-8.866 25.685l-51.767 13.482c-6.01 1.281-19.685.603-25.094-3.314z" fill="#fff" stroke="#000"/><path d="M201.056 64.625l.076 5.423c.225 14.236-6.838 14.386-6.838 24.856v71.554c-.075 10.846.376 19.96 3.907 21.09m-9.166-102.36v81.421c-.075 10.545 1.578 19.659 4.208 20.638m-9.542-105.826v88.05c-.076 10.244 2.103 16.119 4.658 17.023M167.472 64.776c1.353 1.657 4.884 2.937 12.172 3.088m21.863 17.474l60.783-11.524M200.155 55.21l39.671-7.005c4.207-.15 12.772-.075 17.43 3.992" stroke="#000"/><path fill-rule="evenodd" clip-rule="evenodd" d="M205.039 54.532c1.127-5.95 1.502-10.997 10.067-11.675l19.385-2.862c7.363-1.054 9.917 6.177 10.368 8.737.301 1.733-7.137 1.808-7.363.829-.3-1.431-.901-3.766-5.034-3.164l-14.576 2.26c-2.704.452-3.305 3.465-3.606 5.197-.526 2.034-9.542 2.636-9.241.678zm-19.761-7.306c8.265 0 14.877 1.506 14.877 3.39 0 1.882-6.687 3.389-14.877 3.389-8.264 0-14.876-1.507-14.876-3.39-.075-1.883 6.612-3.389 14.876-3.389z" fill="#fff" stroke="#000"/><path d="M216.459 104.62l2.479-2.862 9.843-1.582c.15-2.109 1.127-4.67 3.155-5.498 2.63-1.055 6.537.301 6.913 3.916l8.79-1.43 2.179 2.033v8.511l-1.878 2.938-29.077 5.423-2.479-2.335v-9.114h.075z" stroke="#E41D2C"/></g><defs><clipPath id="clip0"><path fill="#fff" d="M0 0h268v188H0z"/></clipPath></defs></svg>