<svg width="208" height="184" fill="none" xmlns="http://www.w3.org/2000/svg"><path fill-rule="evenodd" clip-rule="evenodd" d="M40.535 21.843c.37-7.337 4.002-10.746 10.228-11.19l50.769-4.744c7.189.074 10.376 1.556 10.302 8.004v140.671c0 5.337-1.186 8.227-6.745 9.487L40.46 180.302V21.844h.075z" fill="#fff" stroke="#000" stroke-width=".967" stroke-miterlimit="22.926"/><path fill-rule="evenodd" clip-rule="evenodd" d="M111.907 142.207v12.377c0 5.337-1.185 8.227-6.744 9.487l-64.629 16.231v-22.086l71.373-16.009zM40.534 21.843c.37-7.337 4.002-10.746 10.228-11.19l50.769-4.744c7.189.074 10.376 1.556 10.302 8.004v21.494l-71.299 8.968V21.843z" fill="#fff" stroke="#000" stroke-width=".967" stroke-miterlimit="22.926"/><path fill-rule="evenodd" clip-rule="evenodd" d="M40.534 25.03v155.272l-31.425-7.411c-6.003-1.927-8.3-3.039-7.856-20.53V18.731C1.327 6.872 5.329 6.353 13.408 5.612l49.88-4.373c3.853-.518 7.56-.148 13.044.667l26.607 3.929-52.103 4.891c-12.229.89-9.857 12.155-10.302 14.304z" fill="#fff" stroke="#000" stroke-width=".967" stroke-miterlimit="22.926"/><path fill-rule="evenodd" clip-rule="evenodd" d="M40.534 158.216v22.086l-31.425-7.411c-6.003-1.927-8.3-3.039-7.856-20.53v-2.817l39.281 8.672zm0-133.186v19.345L1.253 37.778V18.731C1.327 6.872 5.329 6.353 13.408 5.612l49.88-4.373c3.854-.518 7.56-.148 13.044.667l26.607 3.929-52.103 4.891c-12.229.89-9.857 12.155-10.302 14.304z" fill="#fff" stroke="#000" stroke-width=".967" stroke-miterlimit="22.926"/><path fill-rule="evenodd" clip-rule="evenodd" d="M71.07 1.684l-54.105 5.04L38.46 9.837l54.104-4.743-21.493-3.41z" fill="#fff" stroke="#E41D2C" stroke-width=".967" stroke-miterlimit="22.926"/><path fill-rule="evenodd" clip-rule="evenodd" d="M14.52 51.564l9.265 1.408v90.643l-9.265-1.408V51.564z" fill="#fff" stroke="#000" stroke-width=".97" stroke-miterlimit="22.926"/><path fill-rule="evenodd" clip-rule="evenodd" d="M58.248 75.132l3.039-3.557 12.155-1.927c.148-2.594 1.408-5.781 3.854-6.745 3.26-1.334 8.004.371 8.523 4.818l10.82-1.705 2.669 2.446v10.45L97.01 82.47l-35.797 6.67-3.04-2.816V75.132h.075z" fill="#fff" stroke="#E41D2C" stroke-width=".967" stroke-miterlimit="22.926"/><path d="M111.907 35.407l-71.373 8.968-39.207-6.597m0 111.767l39.207 8.671 68.186-15.268" stroke="#E41D2C" stroke-width=".966" stroke-miterlimit="22.926"/><path clip-rule="evenodd" d="M66.252 105.223c0-2.223-.667-4.076-1.927-5.336-1.26-1.26-3.113-1.853-5.41-1.482-2.891.519-5.782.963-8.672 1.482v26.533c1.482-.296 2.89-.592 4.372-.889V115.6c1.409-.297 2.891-.519 4.3-.816a8.713 8.713 0 005.41-3.409c1.26-1.779 1.927-3.928 1.927-6.152zm-4.373.816c0 2.149-1.26 3.78-3.261 4.15-1.334.223-2.742.519-4.077.741v-7.263c1.335-.222 2.743-.445 4.077-.741 2-.297 3.26.963 3.26 3.113zm24.977 12.748l-2.446-4.892c-.815-1.631-1.63-3.335-2.446-4.966a8.295 8.295 0 002.89-2.89c.742-1.26 1.26-2.743 1.26-4.521 0-2.076-.666-3.928-1.926-5.114-1.26-1.186-3.04-1.78-5.337-1.408-2.964.518-5.855.963-8.82 1.482v25.792c1.483-.296 2.891-.593 4.373-.889v-10.228c1.038-.223 2.076-.371 3.187-.593.741 1.556 1.409 3.113 2.15 4.669a239.795 239.795 0 012.149 4.595c1.556-.37 3.261-.667 4.966-1.037zm-5.262-16.454c0 1.927-1.26 3.557-3.187 3.928-1.409.222-2.743.519-4.15.741v-6.818a81.687 81.687 0 004.15-.742c2-.222 3.26.89 3.187 2.891zm23.865.222c0-2.075 0-3.928-.223-5.484-.296-1.557-.815-2.817-1.927-3.854-1.556-1.483-3.483-2.076-6.003-1.63-2.52.444-4.521 1.778-6.078 3.78-1.111 1.481-1.704 2.964-2 4.668-.297 1.705-.297 3.558-.297 5.707 0 2.15 0 4.002.222 5.633.223 1.556.816 2.891 1.927 3.928 1.557 1.408 3.484 2.001 6.078 1.482 2.52-.518 4.447-1.852 6.077-3.928 1.112-1.482 1.705-2.964 2.001-4.595.223-1.779.223-3.557.223-5.707zm-4.373.816c0 2.371-.074 3.854-.297 4.891-.148 1.038-.444 1.631-.889 2.224-.667.889-1.63 1.63-2.816 1.853-1.186.222-2.224-.075-2.817-.742-.444-.444-.667-.963-.815-1.927-.148-.963-.222-2.445-.222-4.817 0-2.372.074-3.854.222-4.892.148-1.037.445-1.63.89-2.223.666-.89 1.63-1.63 2.816-1.853 1.186-.222 2.15.148 2.816.815.445.445.667.964.815 1.927.223.964.297 2.446.297 4.744z" stroke="#000" stroke-width=".97" stroke-miterlimit="22.926"/><path fill-rule="evenodd" clip-rule="evenodd" d="M135.624 24.141c.371-7.337 4.002-10.747 10.228-11.191l50.769-4.744c7.189.074 10.376 1.557 10.302 8.005v140.671c0 5.336-1.186 8.227-6.745 9.487L135.55 182.6V24.141h.074z" fill="#fff" stroke="#000" stroke-width=".966" stroke-miterlimit="22.926"/><path fill-rule="evenodd" clip-rule="evenodd" d="M206.997 144.505v12.377c0 5.336-1.186 8.227-6.745 9.487L135.624 182.6v-22.086l71.373-16.009zM135.624 24.141c.371-7.337 4.002-10.747 10.228-11.191l50.769-4.744c7.189.074 10.376 1.557 10.302 8.005v21.493l-71.373 8.968v-22.53h.074z" fill="#fff" stroke="#000" stroke-width=".967" stroke-miterlimit="22.926"/><path fill-rule="evenodd" clip-rule="evenodd" d="M135.624 27.328V182.6l-31.425-7.412c-6.004-1.927-8.301-3.038-7.856-20.53V21.028c0-11.858 4.002-12.451 12.08-13.192l49.88-4.373c3.854-.519 7.56-.148 13.044.667l26.608 3.928-52.103 4.892c-12.155.89-9.858 12.229-10.228 14.378z" fill="#fff" stroke="#000" stroke-width=".967" stroke-miterlimit="22.926"/><path fill-rule="evenodd" clip-rule="evenodd" d="M135.623 160.439v22.087l-31.425-7.412c-6.003-1.927-8.3-3.038-7.856-20.53v-2.816l39.281 8.671zm.001-133.111v19.344l-39.281-6.596V21.028c0-11.858 4.002-12.451 12.081-13.192l49.879-4.373c3.854-.519 7.56-.148 13.045.667l26.607 3.928-52.103 4.892c-12.155.89-9.857 12.229-10.228 14.378z" fill="#fff" stroke="#000" stroke-width=".967" stroke-miterlimit="22.926"/><path fill-rule="evenodd" clip-rule="evenodd" d="M166.159 3.982l-54.104 4.965 21.493 3.113 54.104-4.743-21.493-3.335z" fill="#fff" stroke="#E41D2C" stroke-width=".966" stroke-miterlimit="22.926"/><path fill-rule="evenodd" clip-rule="evenodd" d="M109.609 53.787l9.265 1.409v90.717l-9.265-1.408V53.787z" fill="#fff" stroke="#000" stroke-width=".97" stroke-miterlimit="22.926"/><path fill-rule="evenodd" clip-rule="evenodd" d="M153.338 77.43l3.039-3.557 12.154-1.927c.149-2.594 1.409-5.781 3.854-6.745 3.262-1.334 8.005.37 8.524 4.818l10.821-1.705 2.668 2.446v10.45l-2.298 3.558-35.798 6.67-3.038-2.816V77.43h.074z" fill="#fff" stroke="#E41D2C" stroke-width=".967" stroke-miterlimit="22.926"/><path d="M206.997 37.704l-71.373 8.968-39.207-6.596m-.001 111.692l39.208 8.672 68.186-15.268" stroke="#E41D2C" stroke-width=".967" stroke-miterlimit="22.926"/><path clip-rule="evenodd" d="M161.341 107.521c0-2.224-.667-4.076-1.927-5.336-1.26-1.26-3.113-1.853-5.41-1.483-2.891.519-5.781.964-8.672 1.483v26.533c1.482-.297 2.891-.593 4.373-.889v-9.932c1.408-.296 2.89-.519 4.299-.815a8.723 8.723 0 005.41-3.409c1.186-1.853 1.927-4.003 1.927-6.152zm-4.373.741c0 2.149-1.26 3.78-3.261 4.151-1.334.222-2.742.518-4.076.741v-7.264c1.334-.222 2.742-.444 4.076-.741 2.001-.222 3.261.964 3.261 3.113zm24.977 12.748l-2.446-4.892c-.815-1.63-1.63-3.335-2.446-4.965 1.112-.667 2.076-1.631 2.891-2.891.741-1.26 1.26-2.742 1.26-4.521 0-2.075-.667-3.928-1.927-5.114s-3.039-1.779-5.336-1.408c-2.965.519-5.856.963-8.82 1.482v25.792c1.482-.296 2.89-.593 4.373-.889v-10.228c1.037-.222 2.075-.371 3.187-.593.741 1.557 1.408 3.113 2.149 4.669.741 1.557 1.482 3.113 2.149 4.596 1.557-.297 3.261-.667 4.966-1.038zm-5.262-16.454c0 1.927-1.26 3.558-3.187 3.928-1.408.223-2.742.519-4.151.742v-6.819a81.173 81.173 0 004.151-.741c2.001-.223 3.187.963 3.187 2.89zm23.865.297c0-2.075 0-3.928-.222-5.485-.297-1.556-.816-2.816-1.927-3.854-1.557-1.482-3.484-2.075-6.004-1.63-2.52.444-4.521 1.778-6.077 3.78-1.112 1.482-1.705 2.964-2.001 4.669-.297 1.705-.297 3.557-.297 5.707 0 2.149 0 4.002.223 5.633.222 1.556.815 2.89 1.927 3.928 1.556 1.408 3.483 2.001 6.077 1.482 2.52-.519 4.447-1.853 6.078-3.928 1.111-1.482 1.704-2.965 2.001-4.595.222-1.779.222-3.632.222-5.707zm-4.373.815c0 2.372-.074 3.854-.296 4.892-.148 1.037-.445 1.63-.89 2.223-.667.89-1.63 1.631-2.816 1.853-1.186.222-2.223-.074-2.816-.741-.445-.445-.667-.964-.816-1.927-.148-.964-.222-2.446-.222-4.818 0-2.371.074-3.854.222-4.891.149-1.038.445-1.631.89-2.224.667-.89 1.63-1.63 2.816-1.853 1.186-.222 2.149.149 2.817.816.444.444.667.963.815 1.927.222.889.296 2.371.296 4.743z" stroke="#000" stroke-width=".97" stroke-miterlimit="22.926"/></svg>