<svg width="276" height="180" fill="none" xmlns="http://www.w3.org/2000/svg"><g clip-path="url(#clip0)" stroke-miterlimit="22.926"><path d="M162.028 115.405c62.81 0 113.714 14.393 113.714 32.167 0 17.775-50.904 32.168-113.714 32.168-62.81 0-113.713-14.393-113.713-32.168 0-17.774 50.904-32.167 113.713-32.167z" stroke="#000" stroke-width=".567"/><path fill-rule="evenodd" clip-rule="evenodd" d="M234.76 128.671c0 12.225-31.923 22.109-71.351 22.109-39.429 0-71.351-9.884-71.351-22.109l-13.2-86.272H247.96l-13.2 86.272z" fill="#fff" stroke="#000"/><path fill-rule="evenodd" clip-rule="evenodd" d="M162.977.434c50.472 0 93.611 16.647 92.058 24.71-.604 3.035-1.122 7.804-2.071 10.578-4.486 14.133-42.879 24.105-89.469 24.105-48.142 0-87.398-10.665-89.814-25.405l-1.64-9.45C70.662 16.906 112.505.433 162.978.433z" fill="#fff" stroke="#E41D2C"/><path fill-rule="evenodd" clip-rule="evenodd" d="M163.495.434c50.472 0 91.368 10.664 91.368 23.757 0 13.092-40.896 23.757-91.368 23.757-50.472 0-91.367-10.665-91.367-23.757 0-13.093 40.895-23.757 91.367-23.757z" fill="#fff" stroke="#E41D2C"/><path fill-rule="evenodd" clip-rule="evenodd" d="M163.754 4.249c48.66 0 88.089 9.19 88.089 20.462s-39.429 20.462-88.089 20.462-88.089-9.19-88.089-20.462 39.429-20.462 88.089-20.462z" fill="#fff" stroke="#E41D2C"/><path fill-rule="evenodd" clip-rule="evenodd" d="M163.754 4.249c48.66 0 88.088 9.19 88.088 20.462 0 .78-.172 1.56-.517 2.254-6.557-9.797-43.052-17.254-86.967-17.254-45.296 0-82.654 7.977-87.485 18.208-.69-1.04-1.035-2.08-1.035-3.208-.173-11.272 39.255-20.462 87.916-20.462z" fill="#fff" stroke="#E41D2C"/><path d="M110.176 83.15c-18.981-3.468-49.523-13.873-34.338-44.046" stroke="#000"/><path fill-rule="evenodd" clip-rule="evenodd" d="M85.328 69.711l25.97 8.584-1.898 8.93-25.28-8.41c-3.882-1.56-3.106-8.237 1.208-9.104z" fill="#fff" stroke="#000"/><path fill-rule="evenodd" clip-rule="evenodd" d="M110.694 78.295c2.156 0 3.882 2.08 3.882 4.595 0 2.515-1.726 4.596-3.882 4.596-2.157 0-3.883-2.081-3.883-4.596 0-2.601 1.726-4.595 3.883-4.595z" fill="#fff" stroke="#000"/><path d="M246.494 34.075v2.515c0 2.167-.173 4.248-2.157 5.462-2.502 1.56-5.608 2.861-9.059 4.162-3.106 1.214-3.883-1.127-3.969-3.902l-.086-2.34c6.212-1.648 11.388-3.642 15.271-5.897z" stroke="#E41D2C"/><path d="M239.937 40.405c-31.146 39.97-99.564 47.774-128.035 43.005l-1.295-.26" stroke="#000"/><path fill-rule="evenodd" clip-rule="evenodd" d="M5.09 99.711l31.32 11.358-2.59 10.839-30.455-11.185c-4.659-2.168-3.537-10.232 1.726-11.012z" fill="#fff" stroke="#000"/><path fill-rule="evenodd" clip-rule="evenodd" d="M35.633 110.983c2.588.086 4.659 2.688 4.572 5.722-.086 3.122-2.329 5.549-4.917 5.463-2.589-.087-4.66-2.688-4.573-5.723.086-3.121 2.33-5.549 4.918-5.462z" fill="#fff" stroke="#000"/><path fill-rule="evenodd" clip-rule="evenodd" d="M133.988 167.428l-97.751-8.237c-19.672-1.908 34.252-30.26 48.66-21.85l50.04 26.965c3.106 1.561 1.985 3.382-.949 3.122z" fill="#fff" stroke="#E41D2C"/><path fill-rule="evenodd" clip-rule="evenodd" d="M36.237 115.751c-1.294-.433-1.64 1.474-.863 1.908l10.353 3.728 10.44 23.237 29.938 8.064-28.558-9.711-10.526-23.324-10.784-3.902z" fill="#fff" stroke="#000"/><path fill-rule="evenodd" clip-rule="evenodd" d="M216.038 134.566l42.793-14.393.949 25.839-40.119 15.086h-.863l-2.76-26.532z" fill="#fff" stroke="#E41D2C"/><path fill-rule="evenodd" clip-rule="evenodd" d="M217.504 134.48l41.327-14.307.949 25.839-40.119 15.086-2.157-26.618z" fill="#fff" stroke="#E41D2C"/><path fill-rule="evenodd" clip-rule="evenodd" d="M258.055 118.439l-20.276 7.284-20.016 7.369-2.329-.26c0-3.468-.087-7.023.086-10.404.086-2.688 1.38-4.336 3.451-5.463 1.898-1.04 11.475-4.942 12.424-7.543.604-1.561.518-3.642.345-5.116-1.726-13.786-9.922-41.705.604-45.52 10.526-3.815 7.161 28.353 7.679 42.572.086 1.474.345 3.469 1.121 4.596 1.294 1.821 9.404-.347 11.302-.694 2.157-.433 3.279.607 3.797 3.035.776 3.034 1.294 6.936 1.812 10.144zm-25.107-53.15c1.294-.433 2.502 1.734 2.761 4.942.259 3.208-.518 6.156-1.812 6.59-1.294.433-2.502-1.734-2.761-4.942-.259-3.209.604-6.157 1.812-6.59z" fill="#fff" stroke="#000"/><path fill-rule="evenodd" clip-rule="evenodd" d="M259.608 118.092l-20.276 7.284-21.655 7.37c0-3.469-.345-7.197-.259-10.578.086-2.688 1.035-4.422 3.106-5.55 1.898-1.04 11.475-4.942 12.424-7.543.604-1.561.518-3.641.345-5.115-1.725-13.787-9.922-41.706.604-45.52 10.526-3.816 7.161 28.352 7.679 42.572.086 1.474.345 3.468 1.121 4.595 1.294 1.821 9.404-.347 11.303-.694 2.156-.433 3.278.607 3.796 3.035.776 3.035 1.294 6.936 1.812 10.144zm-25.107-53.063c1.294-.434 2.502 1.734 2.761 4.942.259 3.208-.518 6.156-1.812 6.59-1.294.433-2.502-1.734-2.761-4.943-.259-3.208.604-6.156 1.812-6.59z" fill="#fff" stroke="#000"/><path fill-rule="evenodd" clip-rule="evenodd" d="M217.763 133.006l41.844-14.653-.776 1.82-41.327 14.393-1.639-.086-.173-1.474h2.071z" fill="#fff" stroke="#000"/><path d="M142.099 96.59l2.847-3.035c4.831.347 9.577.78 14.581.433.172-2.427 1.725-5.375 4.055-6.069 4.572-1.3 7.678 1.214 7.937 6.07 5.004.26 10.008 0 15.099-.434l2.847 3.035v10.491l-2.847 2.948c-14.236 1.734-28.127 1.734-41.672 0l-2.847-2.948V96.59z" stroke="#E41D2C"/></g><defs><clipPath id="clip0"><path fill="#fff" d="M0 0h276v180H0z"/></clipPath></defs></svg>