<svg width="157" height="218" fill="none" xmlns="http://www.w3.org/2000/svg"><g clip-path="url(#clip0)" stroke-width=".567" stroke-miterlimit="22.926"><path fill-rule="evenodd" clip-rule="evenodd" d="M7.556 189.265l10.052-2.49 5.059 1.277-10.053 2.491-5.058-1.278zm4.354 1.597c2.625 0 4.546 2.426 4.353 5.427-.192 3.002.32 6.258-2.24 6.258-.449 0-3.65-.894-4.034-1.021-1.985-.639-3.266-2.746-3.138-5.237.192-3.001 2.433-5.427 5.058-5.427z" fill="#fff" stroke="#000"/><path fill-rule="evenodd" clip-rule="evenodd" d="M14.79 191.564c2.626 0 4.547 2.427 4.354 5.428-.192 3.001-2.497 5.427-5.058 5.427s-4.546-2.426-4.354-5.427c.192-3.001 2.497-5.428 5.058-5.428z" fill="#fff" stroke="#000"/><path fill-rule="evenodd" clip-rule="evenodd" d="M14.599 194.629c1.152 0 1.985 1.086 1.857 2.363-.064 1.277-1.089 2.362-2.178 2.362-1.152 0-1.984-1.085-1.856-2.362.064-1.277 1.024-2.363 2.177-2.363z" fill="#fff" stroke="#E41D2C"/><path fill-rule="evenodd" clip-rule="evenodd" d="M12.614 190.543l9.988-2.491v12.516l-2.24.638-.065-7.918c-.128-1.277-.896-1.979-2.689-1.596l-4.994 1.277v-2.426zm-5.058-1.278l4.994 1.341v2.299l-4.994-1.213v-2.427zm134.973-2.873l9.156-2.235 4.547 1.149-9.157 2.235-4.546-1.149zm3.906 1.469c2.369 0 4.162 2.234 3.97 4.98-.192 2.746.32 5.683-2.049 5.683-.384 0-3.329-.83-3.714-.958-1.792-.574-3.009-2.49-2.817-4.789.192-2.745 2.241-4.916 4.61-4.916z" fill="#fff" stroke="#000"/><path fill-rule="evenodd" clip-rule="evenodd" d="M149.06 188.499c2.369 0 4.162 2.235 3.97 4.981-.192 2.745-2.241 4.98-4.61 4.98s-4.162-2.235-3.97-4.98c.192-2.746 2.241-4.981 4.61-4.981z" fill="#fff" stroke="#000"/><path fill-rule="evenodd" clip-rule="evenodd" d="M148.869 191.309c1.024 0 1.792.958 1.728 2.171-.064 1.213-.96 2.171-1.985 2.171-1.024 0-1.792-.958-1.728-2.171.064-1.213.96-2.171 1.985-2.171z" fill="#fff" stroke="#E41D2C"/><path fill-rule="evenodd" clip-rule="evenodd" d="M147.075 187.541l9.092-2.299v11.43l-2.049.575-.064-7.215c-.128-1.15-.832-1.788-2.433-1.469l-4.546 1.149v-2.171zm-4.546-1.149l4.482 1.213v2.107l-4.482-1.085v-2.235zm-72.545 17.815l10.245-2.49 5.122 1.213-10.244 2.618-5.123-1.341zm4.354 1.661c2.69 0 4.675 2.49 4.418 5.555-.192 3.065.32 6.385-2.305 6.385-.448 0-3.713-.894-4.161-1.021-1.985-.639-3.33-2.81-3.202-5.364.32-3.065 2.625-5.555 5.25-5.555z" fill="#fff" stroke="#000"/><path fill-rule="evenodd" clip-rule="evenodd" d="M77.348 206.57c2.689 0 4.674 2.49 4.418 5.555-.192 3.065-2.561 5.556-5.187 5.556-2.689 0-4.674-2.491-4.418-5.556.192-3.065 2.498-5.555 5.187-5.555z" fill="#fff" stroke="#000"/><path fill-rule="evenodd" clip-rule="evenodd" d="M77.156 209.699c1.152 0 1.984 1.085 1.92 2.426-.063 1.341-1.088 2.427-2.24 2.427-1.153 0-1.985-1.086-1.921-2.427.064-1.341 1.088-2.426 2.24-2.426z" fill="#fff" stroke="#E41D2C"/><path fill-rule="evenodd" clip-rule="evenodd" d="M75.107 205.548l10.245-2.554v12.771l-2.305.639-.064-8.11c-.129-1.341-.897-1.979-2.754-1.596l-5.122 1.341v-2.491zm-5.123-1.341l5.059 1.341v2.427l-5.059-1.277v-2.491z" fill="#fff" stroke="#000"/><path fill-rule="evenodd" clip-rule="evenodd" d="M56.73 180.262h-2.305v2.682c0 1.085-.576 1.66-1.6 1.915l-6.147 1.788v2.299l8.003-2.299c1.537-.447 2.05-1.404 2.05-3.384v-3.001z" fill="#fff" stroke="#E41D2C"/><path fill-rule="evenodd" clip-rule="evenodd" d="M19.337 87.8l68.255-3.64v89.78l-3.585.894v-7.982l-67.872 12.963v7.918c.192 1.979-3.201 2.107-3.585.766V95.016c0-.894-.513-6.897 6.787-7.216zm64.67 75.86V87.353l-64.158 3.64c-3.01.128-3.714 1.469-3.714 3.959v81.159l67.871-12.451z" fill="#fff" stroke="#000"/><path fill-rule="evenodd" clip-rule="evenodd" d="M93.483 81.99l-59.611-2.81-.128 22.03 59.74 5.236V81.99z" fill="#fff" stroke="#000"/><path fill-rule="evenodd" clip-rule="evenodd" d="M153.286 78.924l.064-14.686-32.206.766-3.714 9.387-12.87.447.064 6.577 48.662-2.49z" fill="#fff" stroke="#000" stroke-linejoin="round"/><path fill-rule="evenodd" clip-rule="evenodd" d="M104.624 81.415l-59.547-2.746-11.077.51 59.483 2.81 11.141-.574zm12.806-7.025L59.1 72.348l-13.767.384 60.956 2.17 11.141-.51zm35.921-10.152l-57.627-1.022-32.59.639 58.138 1.15 32.079-.767z" fill="#fff" stroke="#000" stroke-linejoin="round"/><path fill-rule="evenodd" clip-rule="evenodd" d="M104.624 81.415l-59.355-2.746v-5.938l59.355 2.107v6.577zm12.806-7.025L59.1 72.348l4.033-8.492 58.011 1.15-3.714 9.386z" fill="#fff" stroke="#000" stroke-linejoin="round"/><path fill-rule="evenodd" clip-rule="evenodd" d="M123.449 1.34c1.536-1.532 14.983-1.532 15.303 0l.064 62.706c-1.793.894-13.126.703-15.303 0l-.064-62.705z" fill="#fff" stroke="#E41D2C"/><path fill-rule="evenodd" clip-rule="evenodd" d="M123.513 61.3c1.473.511 14.535.703 15.303-.063v2.745c-1.793.894-13.126.767-15.303 0v-2.681zM101.551 3.512c1.408-1.469 14.086-1.469 14.406 0l.064 60.087c-1.664.83-12.357.703-14.406 0l-.064-60.087z" fill="#fff" stroke="#E41D2C"/><path fill-rule="evenodd" clip-rule="evenodd" d="M101.615 61.173c1.344.51 13.574.638 14.278-.064v2.618c-1.664.83-12.229.702-14.278 0v-2.554zM81.382 5.364c1.344-1.405 13.19-1.405 13.446 0l.064 57.916c-1.537.83-11.525.702-13.446 0l-.064-57.916z" fill="#fff" stroke="#E41D2C"/><path fill-rule="evenodd" clip-rule="evenodd" d="M81.51 60.981c1.28.447 12.742.575 13.446-.064v2.427c-1.537.83-11.525.638-13.446 0V60.98z" fill="#fff" stroke="#E41D2C"/><path fill-rule="evenodd" clip-rule="evenodd" d="M130.236 143.035l-36.753-36.589-59.74-5.236 32.143 33.013 64.35 8.812z" fill="#fff" stroke="#000"/><path d="M93.483 82.947l59.803-3" stroke="#000"/><path fill-rule="evenodd" clip-rule="evenodd" d="M24.268 118.067l19.144 2.235v56.32l-19.144-4.023v-54.532zm19.144 2.235l26.508-2.809 20.233 20.114v30.267l-46.74 8.748v-56.32zM.192 103.955l20.49 1.98v23.754l-20.49-2.937v-22.797z" fill="#fff" stroke="#000"/><path fill-rule="evenodd" clip-rule="evenodd" d="M7.428 112.065l6.147.319v7.088l-6.147-.638v-6.769z" fill="#fff" stroke="#E41D2C"/><path fill-rule="evenodd" clip-rule="evenodd" d="M20.682 129.689l55.13-6.449-20.298-20.115-35.024 2.746.192 23.818z" fill="#fff" stroke="#000"/><path fill-rule="evenodd" clip-rule="evenodd" d="M20.49 105.871l34.768-2.746-21.514-1.915-33.36 2.682 20.106 1.979z" fill="#fff" stroke="#000" stroke-linejoin="round"/><path fill-rule="evenodd" clip-rule="evenodd" d="M122.361 185.626l-70.433-14.304v-9.259l70.433 13.154v10.409zm32.783-17.56l-69.216-11.877-33.551 5.81 69.984 13.218 32.783-7.151z" fill="#fff" stroke="#000"/><path fill-rule="evenodd" clip-rule="evenodd" d="M122.36 175.217l32.783-7.151-.064 9.833-32.719 7.727v-10.409zm18.441-22.477l-49.943-7.407c-.577-.191-1.153-.255-1.793-.255-3.842 0-7.235 3.512-7.235 7.407 0 3.512 2.497 6.449 5.762 7.024h.128l53.017 8.876V152.74h.064z" fill="#fff" stroke="#000"/><path fill-rule="evenodd" clip-rule="evenodd" d="M127.355 158.807l-48.087-7.791a5.5 5.5 0 00-1.472-.191c-3.138 0-5.25 2.937-5.25 6.002 0 3.001 1.408 5.3 4.033 5.747h.128l50.584 9.004v-12.771h.064zm13.446-6.067c4.226 0 7.684 3.512 7.684 7.855 0 4.342-3.458 7.854-7.684 7.854s-7.683-3.512-7.683-7.854c0-4.343 3.457-7.855 7.683-7.855z" fill="#fff" stroke="#000"/><path fill-rule="evenodd" clip-rule="evenodd" d="M127.354 158.807c3.458 0 6.211 2.873 6.211 6.385 0 3.512-2.753 6.386-6.211 6.386-3.457 0-6.21-2.874-6.21-6.386s2.817-6.385 6.21-6.385zm-25.547-32.438l-24.971-2.81-7.94 27.138 25.484 4.151 7.427-28.479z" fill="#fff" stroke="#000"/><path fill-rule="evenodd" clip-rule="evenodd" d="M101.807 126.368l14.855 14.815-22.282 13.665 7.427-28.48z" fill="#fff" stroke="#000"/><path fill-rule="evenodd" clip-rule="evenodd" d="M85.095 91.76c2.305-.129 2.177 3.256.448 3.128l-4.61.32c-1.408.19-2.113 1.085-2.049 2.745v92.398l40.211-9.004c.704-.127 1.409.703 1.473 1.597.064.766-.513 1.532-1.089 1.66l-40.659 9.514v8.685c-.064 1.149-3.585 1.596-3.585.063V99.294c-.32-5.81 2.625-7.407 6.339-7.47l3.521-.065zm65.182 87.225v6.13c-.064 1.213-2.945 1.341-3.393.511v-5.875l3.393-.766zm-3.585-11.175v-54.915l3.585-6.641v61.684c0 .511-3.585.958-3.585-.128z" fill="#fff" stroke="#000" stroke-linejoin="round"/><path fill-rule="evenodd" clip-rule="evenodd" d="M135.358 130.647l1.793-.32 1.153 20.689-35.216 6.322-3.394-13.473c-.192-1.086 1.473-1.277 1.921-.83l2.945 12.068 31.695-5.619-.897-18.837z" fill="#fff" stroke="#000"/><path fill-rule="evenodd" clip-rule="evenodd" d="M153.286 78.924L93.483 81.99v24.457l36.753 36.589 23.05-42.4v-21.71z" fill="#fff" stroke="#000"/><path fill-rule="evenodd" clip-rule="evenodd" d="M53.273 176.303h4.674v3.64c0 .51-1.024.957-2.369.957-1.28 0-2.369-.447-2.369-.957 0-.064 0-.128.064-.192v-3.448z" fill="#fff" stroke="#E41D2C" stroke-linejoin="round"/><path fill-rule="evenodd" clip-rule="evenodd" d="M55.642 177.452c1.28 0 2.37-.447 2.37-.958 0-.51-1.025-.957-2.37-.957-1.28 0-2.37.447-2.37.957 0 .511 1.025.958 2.37.958z" fill="#fff" stroke="#E41D2C" stroke-linejoin="round"/><path d="M54.105 177.197v3.384m.961-3.065v3.384m1.088-3.512v3.512m1.025-3.639v3.32" stroke="#E41D2C"/><path fill-rule="evenodd" clip-rule="evenodd" d="M54.425 168.768h2.433v7.471c0 .128-.576.255-1.216.255-.705 0-1.217-.127-1.217-.255v-7.471z" fill="#fff" stroke="#E41D2C" stroke-linejoin="round"/><path fill-rule="evenodd" clip-rule="evenodd" d="M51.288 167.491h8.516v4.087h-.065c-.256.574-2.048 1.021-4.225 1.021-2.37 0-4.29-.51-4.29-1.149 0-.064 0-.128.064-.192v-3.767z" fill="#fff" stroke="#E41D2C" stroke-linejoin="round"/><path fill-rule="evenodd" clip-rule="evenodd" d="M55.514 168.513c2.369 0 4.29-.511 4.29-1.15 0-.638-1.921-1.149-4.29-1.149-2.37 0-4.29.511-4.29 1.149 0 .639 1.92 1.15 4.29 1.15z" fill="#fff" stroke="#E41D2C" stroke-linejoin="round"/><path d="M52.312 168.13v4.086m1.281-3.767v4.087m1.345-3.896v4.087m1.664-4.151v4.023m1.088-4.214v4.023m1.153-4.215v4.087" stroke="#E41D2C"/><path fill-rule="evenodd" clip-rule="evenodd" d="M53.273 142.077h4.738v24.903c0 .319-1.025.511-2.37.511-1.28 0-2.368-.255-2.368-.511v-24.903z" fill="#fff" stroke="#E41D2C" stroke-linejoin="round"/><path fill-rule="evenodd" clip-rule="evenodd" d="M50.456 128.603h10.372v14.24c0 .639-2.305 1.149-5.186 1.149s-5.186-.51-5.186-1.149v-14.24z" fill="#fff" stroke="#E41D2C" stroke-linejoin="round"/><path fill-rule="evenodd" clip-rule="evenodd" d="M55.642 129.817c2.817 0 5.186-.511 5.186-1.15 0-.638-2.305-1.149-5.186-1.149s-5.186.511-5.186 1.149c0 .639 2.305 1.15 5.186 1.15z" fill="#fff" stroke="#E41D2C" stroke-linejoin="round"/><path d="M51.48 129.434v14.111m.96-13.984v13.984m1.089-13.792v13.984m1.344-13.857v14.049m1.345-14.112v14.048m1.409-14.112v14.048m1.345-14.112v14.048m.96-14.24v14.112" stroke="#E41D2C"/><path fill-rule="evenodd" clip-rule="evenodd" d="M42.196 107.34h26.636l-10.117 10.6c-2.113.83-4.162.766-6.146 0l-10.373-10.6z" fill="#fff" stroke="#E41D2C"/><path fill-rule="evenodd" clip-rule="evenodd" d="M42.196 76.945h26.636v30.139C68.768 108.17 62.813 109 55.514 109c-7.3 0-13.19-.83-13.318-1.916v-30.14z" fill="#fff" stroke="#E41D2C" stroke-linejoin="round"/><path fill-rule="evenodd" clip-rule="evenodd" d="M68.576 76.562c.128.064.192.191.256.255v.064c0 .894-5.955 1.66-13.318 1.66-7.364 0-13.318-.766-13.318-1.66v-.064c0-.064.128-.191.256-.255l10.117-10.345c1.984-.766 4.033-.83 6.146 0l9.86 10.345z" fill="#fff" stroke="#E41D2C" stroke-linejoin="round"/><path fill-rule="evenodd" clip-rule="evenodd" d="M42.26 59.832h26.572v7.535c0 .383-5.955.766-13.318.766-7.364 0-13.318-.32-13.318-.766V59.83h.064z" fill="#fff" stroke="#E41D2C" stroke-linejoin="round"/><path fill-rule="evenodd" clip-rule="evenodd" d="M55.514 60.343c7.3 0 13.318-.256 13.318-.575 0-.32-5.955-.575-13.318-.575-7.3 0-13.318.256-13.318.575 0 .32 6.019.575 13.318.575z" fill="#fff" stroke="#E41D2C" stroke-linejoin="round"/><path fill-rule="evenodd" clip-rule="evenodd" d="M48.47 55.937h14.343v3.193c0 .383-3.138.446-7.108.446-3.97 0-7.235-.063-7.235-.447v-3.192z" fill="#fff" stroke="#E41D2C" stroke-linejoin="round"/><path d="M64.862 50.51H46.038v6.895h18.824V50.51z" fill="#fff" stroke="#E41D2C" stroke-linejoin="round"/><path fill-rule="evenodd" clip-rule="evenodd" d="M58.523 118.451v9.961c-.384.447-4.738.702-5.827 0v-10.345c.385.511 6.083.447 5.827 0v.384z" fill="#fff" stroke="#E41D2C" stroke-linejoin="round"/><path fill-rule="evenodd" clip-rule="evenodd" d="M46.678 185.115c1.217-.128 2.241 1.277 2.241 2.682 0 .958-.384 1.596-.64 1.979-.448.639-1.089.575-2.37.766-1.216.192-1.472-1.532-1.472-3.001 0-1.085 0-2.171.896-2.298l1.345-.128z" fill="#fff" stroke="#E41D2C"/><path fill-rule="evenodd" clip-rule="evenodd" d="M45.781 185.243c1.217.063 2.241 1.277 2.241 2.745 0 1.469-1.024 2.618-2.24 2.491-1.217-.064-2.242-1.277-2.242-2.746s1.025-2.554 2.241-2.49z" fill="#fff" stroke="#E41D2C"/><path fill-rule="evenodd" clip-rule="evenodd" d="M45.91 186.711c.511 0 .96.575.96 1.15 0 .638-.449 1.085-.96 1.085-.513 0-.961-.575-.961-1.149 0-.639.448-1.15.96-1.086z" fill="#fff" stroke="#E41D2C"/></g><defs><clipPath id="clip0"><path fill="#fff" d="M0 0h157v218H0z"/></clipPath></defs></svg>