<svg width="202" height="217" fill="none" xmlns="http://www.w3.org/2000/svg"><path fill-rule="evenodd" clip-rule="evenodd" d="M100.638 20.89c.321-6.956 3.59-10.23 9.168-10.639l45.456-4.501c6.411.068 9.296 1.432 9.232 7.57v133.952c0 5.047-1.09 7.775-6.026 9.071l-57.83 15.414V20.891z" fill="#fff" stroke="#000" stroke-miterlimit="22.926"/><path fill-rule="evenodd" clip-rule="evenodd" d="M164.43 135.473v11.799c0 5.047-1.09 7.776-6.026 9.071l-57.83 15.414v-21.074l63.856-15.21z" fill="#fff" stroke="#000" stroke-miterlimit="22.926"/><path d="M100.638 20.89c.321-6.956 3.59-10.23 9.168-10.639l45.456-4.501c6.411.068 9.296 1.432 9.232 7.57" stroke="#000" stroke-miterlimit="22.926"/><path fill-rule="evenodd" clip-rule="evenodd" d="M100.638 23.96v147.797l-28.146-7.093c-5.385-1.841-7.437-2.864-6.988-19.506v-127.2c0-11.321 3.59-11.867 10.771-12.55l44.686-4.16c3.398-.545 6.732-.136 11.669.682l23.786 3.752-46.61 4.637c-10.9.819-8.848 11.527-9.168 13.641z" fill="#fff" stroke="#000" stroke-miterlimit="22.926"/><path transform="matrix(.98616 .16583 -.14697 .98914 65.629 31.326)" stroke="#E41D2C" d="M0-.5h35.107"/><path transform="matrix(.99317 -.1167 .10327 .99465 100.891 37.148)" stroke="#E41D2C" d="M0-.5h64.291"/><path fill-rule="evenodd" clip-rule="evenodd" d="M100.638 150.682v21.075l-28.146-7.093c-5.385-1.841-7.437-2.864-6.988-19.506v-2.66l35.134 8.184z" fill="#fff" stroke="#000" stroke-miterlimit="22.926"/><path d="M100.638 23.96c.32-2.114-1.732-12.822 9.168-13.64l46.609-4.638L132.63 1.93c-4.937-.818-8.271-1.227-11.669-.682l-44.686 4.16c-7.18.683-10.771 1.229-10.771 12.55V36.1" stroke="#000" stroke-miterlimit="22.926"/><path fill-rule="evenodd" clip-rule="evenodd" d="M124.872 2.34L79.481 6.5l19.297 2.933 45.648-4.024-19.554-3.07z" fill="#fff" stroke="#E41D2C" stroke-miterlimit="22.926"/><path fill-rule="evenodd" clip-rule="evenodd" d="M77.301 49.127l8.27 1.364v86.346l-8.27-1.364V49.127z" fill="#fff" stroke="#000" stroke-miterlimit="22.926"/><path fill-rule="evenodd" clip-rule="evenodd" d="M116.411 71.634l2.693-3.342 10.835-1.841c.128-2.524 1.282-5.456 3.462-6.411 2.949-1.296 7.18.34 7.629 4.57l9.681-1.638 2.372 2.388v9.89l-2.052 3.41-31.992 6.41-2.692-2.66V71.635h.064z" fill="#fff" stroke="#E41D2C" stroke-miterlimit="22.926"/><path fill-rule="evenodd" clip-rule="evenodd" d="M166.226 164.528c-1.731-.341-7.052-2.66-8.271-3.274-4.167-2.182-5-5.252-5.321-11.595-.385-6.274.192-15.277.513-19.71.641-8.799 4.103-20.052 5.065-29.192.705-6.956.449-12.14 1.026-18.824.064-.068.064-.068.192-.068 0 6.207.962 12.072 2.18 17.938 1.539 7.434 3.59 14.732 4.359 20.87 1.667 13.572 1.732 25.849 1.347 41.263-.128.819-.449 2.455-1.09 2.592z" fill="#fff" stroke="#000" stroke-miterlimit="22.926"/><path fill-rule="evenodd" clip-rule="evenodd" d="M155.711 114.739c1.09-4.57 2.052-9.617 2.5-14.05.706-6.957.449-12.14 1.026-18.824.064-.068.064-.068.192-.068 0 6.206.962 12.072 2.18 17.937 1.154 5.457 2.501 10.845 3.462 15.755l-9.36-.75z" fill="#fff" stroke="#000" stroke-miterlimit="22.926"/><path fill-rule="evenodd" clip-rule="evenodd" d="M158.468 97.552c.384-5.457.256-10.026.705-15.687.064-.068.064-.068.192-.068 0 5.388.706 10.64 1.731 15.687l-2.628.068z" fill="#fff" stroke="#000" stroke-miterlimit="22.926"/><path fill-rule="evenodd" clip-rule="evenodd" d="M159.365 81.865l35.197-5.047c-1.346 18.074 5.129 27.008 6.219 42.491 1.347 18.824-.256 37.171-3.333 37.58l-22.76 5.797c-1.667.409-6.925 2.524-8.72 1.91.77.068 1.09-1.773 1.154-2.66.385-15.482.321-27.691-1.346-41.263-.769-6.139-2.821-13.436-4.36-20.87-1.09-5.866-2.051-11.8-2.051-17.938z" fill="#fff" stroke="#000" stroke-miterlimit="22.926"/><path fill-rule="evenodd" clip-rule="evenodd" d="M159.365 81.865l35.197-5.047c-1.025 13.64 2.437 22.03 4.681 31.987l-34.172 6.821c-.962-4.911-2.372-10.299-3.526-15.824-1.219-5.865-2.18-11.799-2.18-17.937z" fill="#fff" stroke="#000" stroke-miterlimit="22.926"/><path fill-rule="evenodd" clip-rule="evenodd" d="M159.365 81.865l35.197-5.047c-.448 5.865-.064 10.776.706 15.21-10.643 5.728-22.183 6.956-34.236 5.456-.962-5.116-1.667-10.3-1.667-15.62z" fill="#fff" stroke="#000" stroke-miterlimit="22.926"/><path fill-rule="evenodd" clip-rule="evenodd" d="M173.919 85.343c1.026-.136 1.859.887 1.859 2.251 0 1.364-.833 2.592-1.859 2.66-1.026.136-1.859-.887-1.859-2.25 0-1.297.833-2.524 1.859-2.66zm4.488-.613c.961-.137 1.731.818 1.731 2.114 0 1.296-.77 2.387-1.731 2.524-.962.136-1.731-.819-1.731-2.115 0-1.296.769-2.387 1.731-2.524zm4.486-.614c.962-.137 1.731.818 1.731 2.114 0 1.296-.769 2.455-1.731 2.524-.961.136-1.731-.819-1.731-2.115-.064-1.227.706-2.387 1.731-2.523z" fill="#fff" stroke="#000" stroke-miterlimit="22.926"/><path d="M176.227 127.357l1.282-1.569 5.001-.818c.064-1.16.577-2.524 1.602-3.001 1.347-.614 3.334.136 3.527 2.114l4.487-.75 1.09 1.091v4.57l-.961 1.568-14.81 2.933-1.218-1.227v-4.911zm23.016-18.62l-34.236 6.753-9.296-.751" stroke="#E41D2C" stroke-miterlimit="22.926"/><path fill-rule="evenodd" clip-rule="evenodd" d="M21.78 117.603l16.028 7.844-3.334 14.459-6.603 4.229-18.785-11.868c-2.116-1.296-1.86-1.432-2.372-4.092-1.218-6.82.897-11.458 10.642-11.39 1.988 0 2.629-.068 4.424.818z" fill="#fff" stroke="#000" stroke-miterlimit="22.926"/><path fill-rule="evenodd" clip-rule="evenodd" d="M29.217 124.22c1.475-1.706 7.95-3.342 10.322-2.729l4.488-7.366c2.244-3.683 7.566-2.182 10.45 3.07 2.758 4.978 4.68 12.413 4.873 18.551.064.955 1.026.955 1.86 1.5.64.41 1.282 1.296 1.154 1.91-.578 2.592-5.065 5.184-6.796 5.866-2.629 1.091-7.053-2.115-8.848-1.91-8.463.75-7.116 10.708-16.284 6.889l-9.745 8.525s-2.757 1.841-5.45 2.728c-1.41.478-1.346 1.91-3.013 2.455-4.104 1.296-9.425 1.092-11.156-2.659-.32-.683 3.91-2.797 3.077-5.934-2.692-10.094 1.731-24.213 3.398-28.509 1.283-3.274 4.424-7.298 8.912-6.002l12.758 3.615zm13.913-1.637c2.628-5.798 5.065-8.867 8.27.477 1.539 4.57 2.629 10.162 2.629 12.481-.192 7.503-7.245 2.66-7.565-.272-.257-1.842-2.5-10.367-3.334-12.686zm-25.068 4.979c-5.257-3.479-7.309 16.641-7.758 19.847-.897 6.002.193 12.617 6.796 8.252 2.693-1.773 9.232-7.297 7.95-9.821-4.039-7.434-1.539-14.868-1.539-15.891-.512-.819-3.846-1.637-5.45-2.387z" fill="#fff" stroke="#000" stroke-miterlimit="22.926"/><path fill-rule="evenodd" clip-rule="evenodd" d="M26.331 121.628c1.475-1.705 7.95-3.342 10.323-2.728l3.462-5.661c2.244-3.683 9.937-3.751 12.822 1.5.064.205.192.341.257.546-2.95-3.547-7.181-4.229-9.104-1.091l-4.488 7.366c-2.308-.614-8.784 1.023-10.322 2.728l-12.823-3.683c-4.488-1.296-7.63 2.728-8.911 6.002-1.667 4.296-6.091 18.415-3.334 28.577.769 2.796-2.565 4.842-3.014 5.661a6.252 6.252 0 01-.32-1.296c-.128-.75 3.013-2.183 2.18-5.32-2.757-10.162 1.41-23.394 3.077-27.691 1.282-3.273 3.206-9.071 7.693-7.911l12.502 3.001zm33.082 14.118c.065.205.129.341.129.546a1.354 1.354 0 01-.129-.546z" fill="#fff" stroke="#000" stroke-miterlimit="22.926"/><path fill-rule="evenodd" clip-rule="evenodd" d="M45.31 118.763c1.858-2.592 3.846-2.387 6.154 4.433 1.539 4.57 2.629 10.163 2.629 12.482-.065 2.591-.898 3.683-2.052 3.955.256-.613.449-1.432.449-2.523.064-2.319-1.026-7.912-2.629-12.481-1.667-4.979-3.141-6.411-4.552-5.866zm-35.007 34.784c-.064.068-.064.136 0 .273.705 3.001 2.693 4.569 6.86 1.841 2.693-1.773 9.232-7.298 7.95-9.821-4.04-7.434-1.539-14.869-1.539-15.892-.513-.818-3.847-1.637-5.45-2.455 1.604.75 3.014 1.296 3.527 2.183 0 1.023-2.95 8.048 1.09 15.482 1.346 2.455-2.95 5.32-5.45 7.366-4.424 3.751-6.347 3.342-6.988 1.023z" fill="#fff" stroke="#000" stroke-miterlimit="22.926"/><path fill-rule="evenodd" clip-rule="evenodd" d="M42.36 151.705l-9.424-3.137c-1.988-.955-3.078-2.455-3.142-4.911-.192-8.389-.961-13.845 4.104-15.55 3.141-1.023 7.116-1.296 9.873.409l6.86 4.638-8.27 18.551z" fill="#fff" stroke="#000" stroke-miterlimit="22.926"/><path fill-rule="evenodd" clip-rule="evenodd" d="M41.076 140.861c.064-4.433 3.334-8.048 7.117-8.048 3.782 0 6.026 3.41 6.475 7.503.257 2.25.128 3.955.128 6.274-.064 1.092-.448 1.637-1.73 2.046l-9.297 2.865c-2.757.818-2.693-1.501-2.693-2.66v-7.98z" fill="#fff" stroke="#000" stroke-miterlimit="22.926"/><path fill-rule="evenodd" clip-rule="evenodd" d="M50.245 138.133c2.244 0 4.039 2.114 4.039 4.706 0 2.591-1.795 4.706-4.04 4.706-2.243 0-4.038-2.115-4.038-4.706 0-2.592 1.795-4.706 4.039-4.706z" fill="#fff" stroke="#000" stroke-miterlimit="22.926"/><path fill-rule="evenodd" clip-rule="evenodd" d="M51.336 139.634c1.795 0 3.27 1.773 3.27 3.887 0 2.183-1.475 3.888-3.27 3.888s-3.27-1.774-3.27-3.888c0-2.182 1.474-3.887 3.27-3.887z" fill="#fff" stroke="#000" stroke-miterlimit="22.926"/><path fill-rule="evenodd" clip-rule="evenodd" d="M123.46 172.917c.897-.614 2.244.136 2.18 1.5l-18.08 18.074c-1.282.955-2.949-.682-1.667-1.91l17.567-17.664zm-.126 3.956l2.308-2.387c1.731 4.706 2.436 9.412 1.603 14.118l-1.282.068c.256-4.092-.129-8.048-2.629-11.799z" fill="#fff" stroke="#E41D2C" stroke-miterlimit="22.926"/><path fill-rule="evenodd" clip-rule="evenodd" d="M127.18 175.645c9.103 0 13.335 7.98 13.335 18.892 0 2.114-.257 4.229-.834 6.139-.192.682-1.154-.137-1.41.477 3.334-11.936-3.206-21.757-9.873-22.235-9.168-.613-18.144 7.23-19.298 13.368l-2.436.273a16.526 16.526 0 011.218-3.683c3.205-7.161 12.245-13.231 19.298-13.231z" fill="#fff" stroke="#E41D2C" stroke-miterlimit="22.926"/><path fill-rule="evenodd" clip-rule="evenodd" d="M52.426 142.498l89.757 55.313-1.667 1.773-89.244-55.04c-.962-.887.192-2.592 1.154-2.046z" fill="#fff" stroke="#E41D2C" stroke-miterlimit="22.926"/><path fill-rule="evenodd" clip-rule="evenodd" d="M149.812 191.468c.321-1.091 2.757-.068 2.244-1.296-2.372-5.32-8.078-8.184-14.874-6.547-7.629 1.841-16.092 8.593-17.951 16.914-.449 1.978 1.09 2.114 3.013.478.962-.887 1.859-2.115 2.565-3.547.513-1.023 1.154-3.206 1.41-4.365l-1.474 1.705c-.834 2.66-2.886 5.184-3.334 5.115-.257 0 .064-1.159 1.667-3.614 1.282-1.91 3.205-4.024 4.68-5.184 13.72-10.64 20.195-1.5 22.054.341z" fill="#fff" stroke="#E41D2C" stroke-miterlimit="22.926"/><path fill-rule="evenodd" clip-rule="evenodd" d="M132.246 210.497l20.901-17.392-.897-5.865-20.132 19.574.128 3.683z" fill="#fff" stroke="#E41D2C" stroke-miterlimit="22.926"/><path fill-rule="evenodd" clip-rule="evenodd" d="M150.966 183.966c4.744 3.001 4.744 12.276 0 20.734-4.745 8.457-12.374 12.958-17.118 9.957-4.745-3.001-4.745-12.276 0-20.734 4.68-8.457 12.373-12.958 17.118-9.957zm-1.026 1.978c3.847 2.455 2.693 11.321-1.09 17.937-3.783 6.616-9.937 11.526-13.784 9.071-3.847-2.455-2.885-10.571.962-17.528 3.91-6.957 10.065-11.936 13.912-9.48z" fill="#fff" stroke="#E41D2C" stroke-miterlimit="22.926"/><path fill-rule="evenodd" clip-rule="evenodd" d="M143.081 198.766c.256.205.256.75-.064 1.296-.321.477-.77.75-1.09.546-.257-.205-.257-.751.064-1.296.32-.478.769-.75 1.09-.546z" fill="#fff" stroke="#E41D2C" stroke-miterlimit="22.926"/></svg>