<svg width="194" height="213" fill="none" xmlns="http://www.w3.org/2000/svg"><g clip-path="url(#clip0)"><path fill-rule="evenodd" clip-rule="evenodd" d="M169.74 3.744l-121.702 9.08v199.937l121.702-27.242V3.744zM48.038 12.825L.723 8.523v191.254l47.315 12.984V12.825z" fill="#fff" stroke="#000" stroke-width=".567" stroke-miterlimit="22.926" stroke-linejoin="round"/><path fill-rule="evenodd" clip-rule="evenodd" d="M48.038 12.825L169.74 3.744 122.345.239.723 8.523l47.315 4.302z" fill="#fff" stroke="#000" stroke-width=".567" stroke-miterlimit="22.926" stroke-linejoin="round"/><path d="M.723 122.67l47.315 9.479m0-19.356L.081 104.031l47.957 8.762zM139.054 5.735L92.461 2.151l46.593 3.584zm-61.695 4.86L30.928 6.451l46.431 4.142zM62.98 4.54l45.87 3.744L62.98 4.54zM48.04 191.812L.722 179.783l47.315 12.029zM.722 160.746l47.315 11.152L.723 160.746zM48.038 52.573L.723 46.599l47.315 5.974zM.723 27.56l47.315 5.098L.723 27.56zm47.315 64.76L.723 84.595l47.315 7.726zM.723 65.557l47.315 6.93-47.315-6.93zm47.315 86.427L.723 141.708l47.315 10.276zm-26.589 33.375v20.074m0-59.344v20.073m0-58.228v18.799m0-58.07V88.02m0-58.468v19.755" stroke="#000" stroke-width=".567" stroke-miterlimit="22.926" stroke-linejoin="round"/><path d="M117.123 4.062l29.08-2.07m-92.06 6.531l30.767-2.15-30.766 2.15z" stroke="#000" stroke-width=".567" stroke-miterlimit="22.926" stroke-linejoin="round"/><path fill-rule="evenodd" clip-rule="evenodd" d="M60.972 209.814l7.792 2.151V32.34l-7.953-.876.16 178.35z" fill="#fff" stroke="#000" stroke-width=".567" stroke-miterlimit="22.926" stroke-linejoin="round"/><path fill-rule="evenodd" clip-rule="evenodd" d="M68.764 32.34l108.849-9.797-8.194-.717-108.608 9.638 7.953.876z" fill="#fff" stroke="#000" stroke-width=".567" stroke-miterlimit="22.926" stroke-linejoin="round"/><path fill-rule="evenodd" clip-rule="evenodd" d="M68.764 32.34l108.849-9.797V187.27l-108.85 24.693V32.34z" fill="#fff" stroke="#000" stroke-width=".567" stroke-miterlimit="22.926" stroke-linejoin="round"/><path fill-rule="evenodd" clip-rule="evenodd" d="M89.891 207.583l6.346 1.593V71.69l-6.346-.876v136.769z" fill="#fff" stroke="#000" stroke-width=".567" stroke-miterlimit="22.926" stroke-linejoin="round"/><path fill-rule="evenodd" clip-rule="evenodd" d="M96.237 71.69l87.802-10.753-6.426-.797-87.722 10.674 6.346.876z" fill="#fff" stroke="#000" stroke-width=".567" stroke-miterlimit="22.926" stroke-linejoin="round"/><path fill-rule="evenodd" clip-rule="evenodd" d="M96.237 71.69l87.802-10.674v128.167l-87.802 19.993V71.69z" fill="#fff" stroke="#000" stroke-width=".567" stroke-miterlimit="22.926" stroke-linejoin="round"/><path fill-rule="evenodd" clip-rule="evenodd" d="M106.439 206.946l5.704 1.434V98.853l-5.704-.876v108.969z" fill="#fff" stroke="#000" stroke-width=".567" stroke-miterlimit="22.926" stroke-linejoin="round"/><path fill-rule="evenodd" clip-rule="evenodd" d="M112.143 98.853l77.6-11.231-6.025-.877-77.52 11.232 5.945.876z" fill="#fff" stroke="#000" stroke-width=".567" stroke-miterlimit="22.926" stroke-linejoin="round"/><path fill-rule="evenodd" clip-rule="evenodd" d="M189.743 87.621l-77.6 11.232v109.368l77.6-17.684V87.621z" fill="#fff" stroke="#000" stroke-width=".567" stroke-miterlimit="22.926" stroke-linejoin="round"/><path fill-rule="evenodd" clip-rule="evenodd" d="M126.843 205.114l3.294.797v-86.905l-3.294-.637v86.745z" fill="#fff" stroke="#E41D2C" stroke-width=".567" stroke-miterlimit="22.926" stroke-linejoin="round"/><path fill-rule="evenodd" clip-rule="evenodd" d="M130.137 119.006l63.301-10.355-3.695-.478-62.9 10.196 3.294.637z" fill="#fff" stroke="#E41D2C" stroke-width=".567" stroke-miterlimit="22.926" stroke-linejoin="round"/><path fill-rule="evenodd" clip-rule="evenodd" d="M193.759 108.571l-63.622 10.355v86.985l63.622-14.577v-82.763z" fill="#fff" stroke="#E41D2C" stroke-width=".567" stroke-miterlimit="22.926" stroke-linejoin="round"/><path fill-rule="evenodd" clip-rule="evenodd" d="M171.025 29.313c.161 0 .241-.159.241-.239 0-.159-.161-.239-.241-.239-.08 0-.241.16-.241.24-.08.159.08.238.241.238zm1.286 4.939c.241 0 .401-.16.401-.398 0-.24-.16-.398-.401-.398-.241 0-.402.159-.402.398 0 .239.241.398.402.398zm-9.56-.558c.081 0 .241-.08.241-.239 0-.08-.08-.238-.241-.238-.08 0-.241.08-.241.239 0 .159.081.238.241.238zm3.856 1.912c.241 0 .402-.16.402-.398 0-.24-.161-.398-.402-.398-.241 0-.402.159-.402.398-.08.239.161.398.402.398zm-.482-5.177c.241 0 .482-.24.482-.478 0-.24-.241-.478-.482-.478s-.482.239-.482.478.161.478.482.478zm2.49 2.071c.161 0 .241-.16.241-.24 0-.159-.16-.238-.241-.238-.16 0-.241.159-.241.239-.08.159.081.239.241.239z" fill="#000"/><path d="M170.704 39.27a.64.64 0 00.643-.637.64.64 0 00-.643-.637.64.64 0 00-.642.637.64.64 0 00.642.637z" fill="#000"/><path fill-rule="evenodd" clip-rule="evenodd" d="M174.479 29.313c.241 0 .402-.159.402-.398 0-.239-.161-.398-.402-.398-.241 0-.401.16-.401.398 0 .24.16.398.401.398z" fill="#000"/><path d="M173.516 25.808a.32.32 0 00.321-.318.32.32 0 00-.321-.319.32.32 0 00-.322.319.32.32 0 00.322.319z" fill="#000"/><path fill-rule="evenodd" clip-rule="evenodd" d="M174.961 35.288c.241 0 .482-.24.482-.478 0-.24-.241-.478-.482-.478s-.482.239-.482.478c0 .318.241.478.482.478zm-.722 8.284c.16 0 .241-.16.241-.24 0-.159-.161-.238-.241-.238-.161 0-.241.16-.241.239 0 .16.08.239.241.239zm-6.829 3.106c.241 0 .402-.159.402-.398 0-.239-.161-.398-.402-.398-.241 0-.401.16-.401.398 0 .16.16.398.401.398zm4.66 4.939c.16 0 .241-.16.241-.239 0-.16-.161-.239-.241-.239-.161 0-.241.16-.241.24 0 .079.08.238.241.238zm-5.704 2.23c.08 0 .241-.08.241-.239 0-.08-.08-.239-.241-.239-.08 0-.241.08-.241.24 0 .159.161.238.241.238zm-8.595-1.752c.16 0 .321-.16.321-.319s-.161-.318-.321-.318c-.161 0-.322.16-.322.318 0 .16.161.319.322.319z" fill="#000"/><path d="M163.635 41.023a.64.64 0 00.643-.638.64.64 0 00-.643-.637.64.64 0 00-.643.638.64.64 0 00.643.637z" fill="#000"/><path fill-rule="evenodd" clip-rule="evenodd" d="M159.859 43.333c.241 0 .402-.16.402-.398 0-.24-.161-.399-.402-.399-.241 0-.401.16-.401.398 0 .24.16.399.401.399zm3.535 1.593c.08 0 .241-.08.241-.239 0-.08-.081-.239-.241-.239-.081 0-.241.08-.241.239.08.16.16.239.241.239zm.16 4.939c.081 0 .241-.08.241-.24 0-.079-.08-.238-.241-.238-.08 0-.241.08-.241.239 0 .159.081.239.241.239zm4.097-7.09a.547.547 0 00.563-.557.547.547 0 00-.563-.558.547.547 0 00-.562.558c0 .318.241.557.562.557zm3.053 12.108c.161 0 .241-.16.241-.239 0-.16-.161-.239-.241-.239-.161 0-.241.16-.241.239 0 .16.161.239.241.239z" fill="#000"/><path d="M174.721 48.51a.32.32 0 00.321-.318.32.32 0 00-.321-.319.32.32 0 00-.322.319.32.32 0 00.322.319z" fill="#000"/><path fill-rule="evenodd" clip-rule="evenodd" d="M174.56 55.998c.241 0 .482-.239.482-.478s-.241-.478-.482-.478-.482.24-.482.478c0 .24.241.478.482.478zm-5.382 3.425c.16 0 .321-.159.321-.318 0-.16-.161-.319-.321-.319-.161 0-.322.16-.322.319s.161.318.322.318zm-5.864.319c.16 0 .241-.16.241-.239 0-.16-.161-.239-.241-.239-.161 0-.241.16-.241.239 0 .08.16.239.241.239z" fill="#000"/><path d="M161.626 56.874a.32.32 0 00.322-.318.32.32 0 00-.322-.319.32.32 0 00-.321.319.32.32 0 00.321.318zm-6.586 2.709a.32.32 0 00.321-.319.32.32 0 00-.321-.319.32.32 0 00-.322.319.32.32 0 00.322.319z" fill="#000"/><path fill-rule="evenodd" clip-rule="evenodd" d="M152.951 55.6c.241 0 .482-.24.482-.478 0-.24-.241-.478-.482-.478s-.482.239-.482.478.16.478.482.478zm4.177.637a.547.547 0 00.562-.558.547.547 0 00-.562-.557.547.547 0 00-.563.557c.081.32.322.558.563.558zm-4.177-8.364c.16 0 .321-.16.321-.318 0-.16-.161-.319-.321-.319-.161 0-.322.16-.322.319-.08.159.081.318.322.318z" fill="#000"/><path d="M156.325 43.97a.4.4 0 00.401-.398.4.4 0 00-.401-.399.4.4 0 00-.402.399.4.4 0 00.402.398z" fill="#000"/><path fill-rule="evenodd" clip-rule="evenodd" d="M152.951 39.031c.241 0 .482-.239.482-.477 0-.24-.241-.478-.482-.478s-.482.239-.482.477c0 .32.16.478.482.478zm3.373-2.389c.161 0 .241-.16.241-.24 0-.159-.16-.238-.241-.238-.16 0-.241.16-.241.239 0 .159.081.239.241.239zm2.089-3.983c.161 0 .321-.16.321-.319s-.16-.318-.321-.318-.321.159-.321.318c0 .16.16.319.321.319zm5.865-5.735c.241 0 .401-.16.401-.399 0-.239-.16-.398-.401-.398-.241 0-.402.16-.402.398 0 .24.161.399.402.399zm-3.776 1.593c.241 0 .401-.16.401-.398 0-.24-.16-.399-.401-.399-.241 0-.402.16-.402.399 0 .239.161.398.402.398zm-6.427.239c.161 0 .241-.16.241-.24 0-.158-.16-.238-.241-.238-.16 0-.241.16-.241.239 0 .16.081.239.241.239z" fill="#000"/><path d="M154.558 32.5a.32.32 0 00.321-.319.32.32 0 00-.321-.319.32.32 0 00-.322.319.32.32 0 00.322.319z" fill="#000"/><path fill-rule="evenodd" clip-rule="evenodd" d="M147.649 28.517a.632.632 0 00.643-.637.63.63 0 00-.643-.638.632.632 0 00-.643.638c.081.398.322.637.643.637zm1.446 3.345c.241 0 .402-.159.402-.398 0-.239-.161-.398-.402-.398-.241 0-.402.16-.402.398 0 .239.161.398.402.398zm-.241 3.983c.16 0 .241-.16.241-.239 0-.16-.161-.239-.241-.239-.081 0-.241.16-.241.24-.081.159.08.238.241.238zm-8.274 2.708c.241 0 .482-.238.482-.477 0-.24-.241-.478-.482-.478s-.482.239-.482.477c0 .24.16.478.482.478zm8.916 3.585c.241 0 .402-.16.402-.398 0-.24-.161-.399-.402-.399-.241 0-.401.16-.401.399 0 .239.16.398.401.398zm-6.024 1.434c.16 0 .241-.16.241-.24 0-.159-.161-.238-.241-.238-.161 0-.241.16-.241.239-.08.16.08.239.241.239z" fill="#000"/><path d="M145.801 46.599a.32.32 0 00.322-.319.32.32 0 00-.322-.319.32.32 0 00-.321.32.32.32 0 00.321.318z" fill="#000"/><path fill-rule="evenodd" clip-rule="evenodd" d="M140.741 51.856c.16 0 .241-.16.241-.239 0-.16-.161-.239-.241-.239-.161 0-.241.16-.241.239 0 .08.08.239.241.239zm7.952-1.036c.161 0 .241-.159.241-.239 0-.159-.161-.239-.241-.239-.161 0-.241.16-.241.24 0 .08.08.239.241.239zm-3.535 6.771c.161 0 .241-.16.241-.239 0-.16-.16-.239-.241-.239-.16 0-.241.16-.241.24 0 .079.161.238.241.238zm-3.614-26.366a.547.547 0 00.562-.558.547.547 0 00-.562-.557.547.547 0 00-.563.558c.081.318.322.557.563.557zm-5.865 2.071c.081 0 .241-.08.241-.239 0-.08-.08-.239-.241-.239-.16 0-.241.08-.241.24.081.159.161.238.241.238z" fill="#000"/><path d="M133.832 39.031a.32.32 0 100-.637.32.32 0 00-.321.319.32.32 0 00.321.318z" fill="#000"/><path fill-rule="evenodd" clip-rule="evenodd" d="M126.522 36.482c.241 0 .401-.159.401-.398 0-.239-.16-.398-.401-.398-.241 0-.402.16-.402.398 0 .24.161.398.402.398zm3.856-5.018c.24 0 .481-.239.481-.478s-.241-.478-.481-.478c-.241 0-.482.24-.482.478 0 .24.16.478.482.478zm1.205 3.744c.16 0 .241-.16.241-.239 0-.08-.161-.239-.241-.239-.081 0-.241.16-.241.239 0 .08.16.239.241.239zm5.703 8.284c.161 0 .241-.16.241-.239 0-.16-.16-.239-.241-.239-.16 0-.241.16-.241.24-.08.079.081.238.241.238z" fill="#000"/><path d="M130.86 47.475a.32.32 0 00.321-.319.32.32 0 00-.321-.318.32.32 0 100 .637z" fill="#000"/><path fill-rule="evenodd" clip-rule="evenodd" d="M136.242 50.661c.241 0 .482-.239.482-.478s-.241-.478-.482-.478-.482.24-.482.478c0 .24.241.478.482.478zm-2.41 4.939c.241 0 .482-.24.482-.478 0-.24-.241-.478-.482-.478s-.482.239-.482.478.241.478.482.478zm4.981.398c.16 0 .321-.16.321-.319s-.161-.318-.321-.318c-.161 0-.322.16-.322.319s.161.318.322.318zm4.016 4.939c.241 0 .482-.24.482-.478 0-.24-.241-.478-.482-.478s-.482.239-.482.478.241.478.482.478zm5.945-.557c.08 0 .241-.08.241-.24 0-.08-.081-.239-.241-.239-.081 0-.241.08-.241.24 0 .159.08.238.241.238zm-11.568 2.707c.241 0 .482-.238.482-.477 0-.24-.241-.478-.482-.478s-.482.239-.482.478.241.477.482.477zm-5.543-2.15c.241 0 .482-.24.482-.478 0-.24-.241-.478-.482-.478s-.482.239-.482.478.241.478.482.478zm-3.535 4.142a.547.547 0 00.563-.558.547.547 0 00-.563-.557.547.547 0 00-.562.557c0 .319.241.558.562.558zm-2.972-5.656c.161 0 .241-.159.241-.239 0-.159-.161-.239-.241-.239-.161 0-.241.16-.241.24 0 .159.08.238.241.238zm3.615-7.009c.241 0 .401-.16.401-.399 0-.239-.16-.398-.401-.398-.241 0-.402.16-.402.398 0 .16.241.399.402.399zm-3.695-8.444c.08 0 .241-.08.241-.239 0-.08-.08-.239-.241-.239-.08 0-.241.08-.241.24.08.158.161.238.241.238zm-4.177-12.904c.16 0 .241-.16.241-.24 0-.159-.161-.238-.241-.238-.161 0-.241.16-.241.239-.081.08.08.239.241.239zm4.739-1.593c.241 0 .482-.24.482-.478 0-.24-.241-.478-.482-.478s-.482.239-.482.478.241.478.482.478zm11.006-1.115c.16 0 .321-.16.321-.32 0-.158-.161-.318-.321-.318-.161 0-.322.16-.322.319 0 .239.161.319.322.319zM119.372 39.43c.161 0 .241-.16.241-.24 0-.159-.16-.238-.241-.238-.16 0-.241.159-.241.239 0 .159.081.239.241.239zm-7.711-5.736c.241 0 .482-.239.482-.477 0-.24-.241-.478-.482-.478s-.482.239-.482.478c0 .318.241.477.482.477zm3.132 3.665c.241 0 .402-.16.402-.399 0-.239-.161-.398-.402-.398-.241 0-.401.16-.401.398 0 .24.16.399.401.399zm-3.132 8.204c.241 0 .482-.239.482-.478s-.241-.478-.482-.478-.482.24-.482.478c0 .319.241.478.482.478zm5.301.319c.161 0 .241-.16.241-.24 0-.159-.16-.238-.241-.238-.16 0-.241.16-.241.239 0 .08.081.239.241.239zm4.258-2.151c.08 0 .241-.08.241-.239 0-.08-.08-.239-.241-.239-.08 0-.241.08-.241.24 0 .158.08.238.241.238zm-.081 7.488c.161 0 .241-.16.241-.24 0-.158-.16-.238-.241-.238-.16 0-.241.16-.241.239 0 .08.081.239.241.239z" fill="#000"/><path d="M113.83 54.007a.32.32 0 00.321-.319.32.32 0 00-.321-.319.32.32 0 00-.322.32.32.32 0 00.322.318z" fill="#000"/><path fill-rule="evenodd" clip-rule="evenodd" d="M117.444 55.998c.08 0 .241-.08.241-.239 0-.08-.08-.239-.241-.239-.08 0-.241.08-.241.24 0 .159.08.238.241.238zm6.266-1.752c.161 0 .241-.16.241-.24 0-.159-.161-.238-.241-.238-.161 0-.241.16-.241.239-.08.159.08.239.241.239zm-9.88 5.974c.16 0 .321-.16.321-.319s-.161-.318-.321-.318c-.161 0-.322.159-.322.318 0 .16.081.319.322.319zm4.578 1.991c.161 0 .241-.159.241-.239 0-.159-.16-.239-.241-.239-.16 0-.241.16-.241.24 0 .159.161.238.241.238zm-8.756 3.505c.08 0 .241-.08.241-.239 0-.08-.08-.239-.241-.239-.08 0-.241.08-.241.24 0 .159.08.238.241.238zm-3.936-1.832c.241 0 .482-.239.482-.478s-.241-.478-.482-.478-.482.24-.482.478c0 .24.241.478.482.478zm-4.097-4.142a.802.802 0 00.804-.797c0-.398-.402-.796-.804-.796-.401 0-.803.398-.803.796 0 .399.402.797.803.797zm-1.848 5.417c.241 0 .402-.16.402-.399 0-.239-.161-.398-.402-.398-.24 0-.401.16-.401.398 0 .24.16.399.401.399zM96.96 60.38c.16 0 .24-.16.24-.24 0-.16-.16-.239-.24-.239-.161 0-.241.16-.241.24-.08.159.08.238.24.238zm-3.776-.638c.241 0 .402-.16.402-.398 0-.24-.16-.399-.402-.399-.24 0-.401.16-.401.399 0 .159.16.398.401.398zm-2.169 6.532a.547.547 0 00.563-.558.547.547 0 00-.563-.557.547.547 0 00-.562.557c0 .319.241.558.562.558zm-6.988 4.779a.547.547 0 00.562-.557.547.547 0 00-.562-.558.547.547 0 00-.563.558c0 .318.241.557.563.557zm-1.607-5.337c.16 0 .24-.16.24-.239 0-.16-.16-.239-.24-.239-.161 0-.241.16-.241.24 0 .079.08.238.24.238z" fill="#000"/><path d="M84.027 60.778a.24.24 0 00.24-.24.24.24 0 00-.24-.238.24.24 0 00-.241.239.24.24 0 00.24.239z" fill="#000"/><path fill-rule="evenodd" clip-rule="evenodd" d="M76.797 62.928c.24 0 .401-.16.401-.398 0-.239-.16-.398-.401-.398-.241 0-.402.159-.402.398 0 .239.16.398.402.398zm-.161 5.019c.241 0 .402-.16.402-.399 0-.239-.161-.398-.402-.398-.241 0-.402.16-.402.398 0 .24.161.398.402.398zm-4.659-1.594a.631.631 0 00.642-.637c0-.398-.24-.637-.642-.637a.631.631 0 00-.643.637.63.63 0 00.643.637z" fill="#000"/><path d="M74.708 57.591a.32.32 0 00.321-.318.32.32 0 00-.321-.319.32.32 0 00-.321.319.32.32 0 00.321.318z" fill="#000"/><path fill-rule="evenodd" clip-rule="evenodd" d="M71.575 60.14c.08 0 .241-.08.241-.239 0-.16-.08-.16-.241-.16-.08 0-.241.08-.241.24 0 .16.16.16.241.16zm6.828-2.31c.241 0 .402-.16.402-.398 0-.24-.16-.398-.402-.398-.24 0-.402.159-.402.398 0 .239.161.398.402.398zm-3.213-5.815c.241 0 .402-.159.402-.398 0-.239-.16-.398-.402-.398-.24 0-.401.16-.401.398 0 .16.16.398.401.398zm5.623-3.505c.16 0 .241-.159.241-.238 0-.16-.16-.24-.24-.24-.161 0-.242.16-.242.24 0 .159.08.239.241.239z" fill="#000"/><path d="M84.508 51.936a.32.32 0 00.322-.319.32.32 0 00-.322-.319.32.32 0 00-.321.319.32.32 0 00.321.319z" fill="#000"/><path fill-rule="evenodd" clip-rule="evenodd" d="M84.187 56.635a.547.547 0 00.563-.557.547.547 0 00-.563-.558.547.547 0 00-.562.558c0 .318.241.557.562.557zm13.496-2.549c.24 0 .482-.239.482-.478 0-.238-.241-.477-.482-.477s-.482.239-.482.557c0 .24.24.398.482.398zm8.756-1.274c.161 0 .321-.16.321-.319 0-.16-.16-.318-.321-.318s-.321.159-.321.318c-.081.16.08.319.321.319zm.241 3.744c.241 0 .482-.24.482-.478 0-.24-.241-.478-.482-.478s-.482.239-.482.478.241.478.482.478z" fill="#000"/><path d="M106.921 46.52a.32.32 0 00.321-.32.32.32 0 00-.321-.318.32.32 0 100 .637z" fill="#000"/><path fill-rule="evenodd" clip-rule="evenodd" d="M104.993 41.74c.241 0 .402-.16.402-.399 0-.239-.161-.398-.402-.398-.241 0-.402.16-.402.398 0 .16.161.399.402.399zm3.133-3.505c.08 0 .241-.08.241-.24 0-.079-.081-.238-.241-.238-.081 0-.241.08-.241.239.08.16.16.239.241.239z" fill="#000"/><path d="M105.314 33.854a.32.32 0 00.322-.319.32.32 0 00-.322-.318.32.32 0 00-.321.318.32.32 0 00.321.319zm9.56-2.947a.32.32 0 00.321-.32.32.32 0 00-.321-.318.32.32 0 00-.322.319.32.32 0 00.322.319z" fill="#000"/><path fill-rule="evenodd" clip-rule="evenodd" d="M100.173 32.898c.161 0 .241-.16.241-.24 0-.158-.161-.238-.241-.238-.161 0-.241.16-.241.239-.08.16.08.239.241.239zm.803 4.142c.241 0 .402-.16.402-.398 0-.24-.161-.399-.402-.399-.241 0-.401.16-.401.399 0 .239.16.398.401.398z" fill="#000"/><path d="M98.727 41.341a.32.32 0 00.321-.318.32.32 0 00-.32-.319.32.32 0 00-.322.319.32.32 0 00.321.318z" fill="#000"/><path fill-rule="evenodd" clip-rule="evenodd" d="M100.736 47.316c.16 0 .24-.16.24-.24 0-.159-.16-.238-.24-.238-.161 0-.241.159-.241.239-.081.159.08.239.241.239z" fill="#000"/><path d="M92.462 51.537a.32.32 0 00.32-.318.32.32 0 00-.32-.319.32.32 0 00-.322.319.32.32 0 00.322.318zm-3.375 5.895a.32.32 0 00.322-.319.32.32 0 00-.322-.318.32.32 0 00-.32.318.32.32 0 00.32.319z" fill="#000"/><path fill-rule="evenodd" clip-rule="evenodd" d="M88.365 47.953c.24 0 .401-.16.401-.398 0-.24-.16-.399-.401-.399-.241 0-.402.16-.402.399 0 .239.16.398.402.398zm2.088-3.027c.241 0 .482-.239.482-.478s-.24-.478-.482-.478c-.24 0-.482.24-.482.478 0 .239.16.478.482.478z" fill="#000"/><path d="M89.971 33.854a.32.32 0 00.322-.319.32.32 0 00-.322-.318.32.32 0 00-.321.318.32.32 0 00.321.319zm4.017.956a.4.4 0 00.401-.399.4.4 0 00-.401-.398.4.4 0 00-.402.398.4.4 0 00.402.399z" fill="#000"/><path fill-rule="evenodd" clip-rule="evenodd" d="M88.525 38.792c.16 0 .321-.159.321-.318 0-.16-.16-.319-.321-.319-.16 0-.321.16-.321.319 0 .16.16.318.32.318zm-6.667-3.106c.24 0 .401-.16.401-.398 0-.24-.16-.399-.401-.399-.241 0-.402.16-.402.399 0 .239.16.398.402.398zm2.731-2.39c.16 0 .241-.16.241-.239 0-.16-.16-.239-.241-.239-.16 0-.241.16-.241.24-.08.159.08.238.241.238z" fill="#000"/><path d="M76.716 34.491a.32.32 0 00.322-.319.32.32 0 00-.322-.318.32.32 0 00-.321.318.32.32 0 00.321.319z" fill="#000"/><path fill-rule="evenodd" clip-rule="evenodd" d="M80.09 39.828c.241 0 .482-.239.482-.478s-.24-.478-.482-.478c-.24 0-.482.239-.482.478s.161.478.482.478zm3.856 3.106c.08 0 .241-.08.241-.238 0-.08-.08-.24-.24-.24-.081 0-.242.08-.242.24.08.159.16.239.241.239zm-12.853-2.947a.547.547 0 00.562-.557.547.547 0 00-.562-.558.547.547 0 00-.562.558c0 .318.321.557.562.557zm2.491 3.903c.24 0 .481-.239.481-.477 0-.24-.24-.478-.481-.478s-.482.159-.482.477c0 .24.24.478.482.478zm-2.009 3.665c.08 0 .241-.08.241-.24 0-.079-.08-.238-.241-.238-.08 0-.241.08-.241.239.08.159.16.239.241.239zm57.196-7.169c.161 0 .241-.16.241-.24 0-.159-.16-.238-.241-.238-.16 0-.241.159-.241.239 0 .159.081.239.241.239zm-8.756-5.337c.161 0 .241-.16.241-.24 0-.159-.161-.238-.241-.238-.161 0-.241.159-.241.239 0 .159.161.239.241.239zm-8.194 4.381c.161 0 .241-.16.241-.24 0-.159-.161-.238-.241-.238-.08 0-.241.159-.241.239 0 .159.161.239.241.239zm32.374-3.824c.241 0 .482-.239.482-.478s-.241-.478-.482-.478-.482.24-.482.478c0 .24.241.478.482.478z" fill="#000"/><path d="M95.353 46.2a.32.32 0 00.321-.318.32.32 0 00-.32-.319.32.32 0 00-.322.319.32.32 0 00.321.318zm-17.994 2.47a.48.48 0 00.482-.478.48.48 0 00-.482-.478.48.48 0 00-.482.478.48.48 0 00.482.478z" fill="#000"/><path fill-rule="evenodd" clip-rule="evenodd" d="M80.331 74.08c.08 0 .241-.08.241-.239 0-.08-.08-.239-.24-.239-.161 0-.242.08-.242.24 0 .158.161.238.241.238zm-4.258.319c.242 0 .402-.16.402-.399 0-.239-.16-.398-.401-.398-.242 0-.402.16-.402.398 0 .16.24.399.401.399z" fill="#000"/><path d="M72.138 71.93a.32.32 0 00.321-.32.32.32 0 00-.321-.318.32.32 0 00-.322.319.32.32 0 00.322.318z" fill="#000"/><path fill-rule="evenodd" clip-rule="evenodd" d="M78.644 80.213c.161 0 .241-.159.241-.238 0-.08-.16-.24-.24-.24-.161 0-.242.16-.242.24 0 .08.08.239.241.239zm6.426-3.265c.242 0 .402-.16.402-.399 0-.239-.16-.398-.401-.398-.241 0-.402.16-.402.398 0 .16.24.399.402.399zm.965 5.735a.547.547 0 00.562-.558.547.547 0 00-.562-.557.547.547 0 00-.562.557c0 .319.24.558.562.558zm-7.632 5.177c.161 0 .241-.159.241-.239 0-.159-.16-.238-.24-.238-.161 0-.242.159-.242.239-.08.08.08.239.241.239zm-4.418-4.3c.161 0 .322-.16.322-.32 0-.159-.16-.318-.322-.318-.16 0-.32.16-.32.318 0 .16.16.32.32.32zm.241-5.178c.241 0 .402-.16.402-.399 0-.239-.16-.398-.402-.398-.24 0-.401.16-.401.398 0 .24.16.398.401.398zm-4.176-1.195a.547.547 0 00.562-.558.547.547 0 00-.563-.558.547.547 0 00-.562.558c0 .319.24.558.562.558zm14.057 9.479c.241 0 .482-.24.482-.478 0-.24-.241-.478-.482-.478s-.482.239-.482.478.241.478.482.478zm-3.294-2.549c.16 0 .241-.16.241-.24 0-.159-.16-.238-.24-.238-.161 0-.242.159-.242.239 0 .08.08.239.241.239zm5.463 8.283c.16 0 .24-.158.24-.238 0-.08-.16-.239-.24-.239-.161 0-.241.16-.241.239 0 .08.16.239.24.239zm0 68.744c.16 0 .24-.159.24-.239 0-.159-.16-.239-.24-.239-.161 0-.241.159-.241.239 0 .159.16.239.24.239zm1.767-73.682c.16 0 .241-.16.241-.239 0-.16-.16-.239-.24-.239-.161 0-.242.16-.242.24 0 .079.08.238.241.238zm-3.695 11.71c.24 0 .482-.24.482-.478 0-.24-.241-.478-.482-.478s-.482.239-.482.478.24.478.482.478zm0 68.822c.24 0 .482-.239.482-.478s-.241-.477-.482-.477-.482.238-.482.477.24.478.482.478zm-4.82-74.159c.24 0 .482-.24.482-.478 0-.24-.241-.478-.482-.478s-.482.239-.482.478.24.478.482.478zm0 68.822c.24 0 .482-.239.482-.478 0-.238-.241-.477-.482-.477s-.482.239-.482.477c0 .239.24.478.482.478zM73.985 90.09c.16 0 .241-.159.241-.238 0-.16-.16-.24-.241-.24-.16 0-.241.16-.241.24-.08.16.08.239.241.239zm0 68.824c.16 0 .241-.16.241-.239 0-.16-.16-.239-.241-.239-.16 0-.241.159-.241.239-.08.079.08.239.241.239zm-3.293-72.806c.08 0 .24-.08.24-.239 0-.08-.08-.239-.24-.239-.08 0-.241.08-.241.24 0 .158.08.238.24.238zm1.687 9.32c.24 0 .481-.24.481-.478 0-.24-.24-.478-.481-.478-.242 0-.483.239-.483.478s.242.478.483.478zm0 68.823c.24 0 .481-.239.481-.478s-.24-.478-.481-.478c-.242 0-.483.239-.483.478s.242.478.483.478zm1.044-61.097a.547.547 0 00.562-.557.547.547 0 00-.562-.558.547.547 0 00-.563.558c0 .318.241.557.563.557zm0 68.823a.547.547 0 00.562-.557.547.547 0 00-.562-.558.547.547 0 00-.563.558c0 .318.241.557.563.557z" fill="#000"/><path d="M70.53 100.526a.32.32 0 00.322-.319.32.32 0 00-.321-.319.32.32 0 00-.322.319.32.32 0 00.322.319zm0 68.743a.32.32 0 00.322-.319.32.32 0 00-.321-.318.32.32 0 00-.322.318.32.32 0 00.322.319z" fill="#000"/><path fill-rule="evenodd" clip-rule="evenodd" d="M78.082 98.614c.08 0 .24-.08.24-.239 0-.16-.08-.239-.24-.239-.08 0-.241.08-.241.24 0 .158.08.238.24.238zm0 68.823c.08 0 .24-.08.24-.239 0-.08-.08-.239-.24-.239-.08 0-.241.08-.241.239 0 .159.08.239.24.239zm-2.33-56.954a.717.717 0 100-1.434.717.717 0 100 1.434zm0 68.823a.717.717 0 100-1.434.717.717 0 100 1.434zm6.186-74.638c.08 0 .24-.08.24-.239 0-.08-.08-.239-.24-.239-.08 0-.241.08-.241.239.08.159.16.239.24.239zm0 68.743c.08 0 .24-.08.24-.239 0-.08-.08-.239-.24-.239-.08 0-.241.08-.241.239.08.159.16.239.24.239zm5.302-69.301a.717.717 0 100-1.433.716.716 0 100 1.433zm0 68.823a.717.717 0 100-1.434.717.717 0 00-.723.717c.08.398.321.717.723.717zm-.964-61.255c.08 0 .24-.08.24-.239 0-.08-.08-.239-.24-.239-.08 0-.241.079-.241.239 0 .159.08.239.24.239zm0 68.822c.08 0 .24-.079.24-.239 0-.159-.08-.239-.24-.239-.08 0-.241.08-.241.239 0 .16.08.239.24.239zm-2.732-72.566c.161 0 .322-.159.322-.319 0-.159-.16-.318-.322-.318-.16 0-.32.159-.32.318 0 .239.16.319.32.319zm0 68.823c.161 0 .322-.16.322-.319s-.16-.319-.322-.319c-.16 0-.32.16-.32.319s.16.319.32.319zm-2.249-64.124c.08 0 .241-.079.241-.238 0-.08-.08-.239-.24-.239-.081 0-.242.079-.242.239 0 .159.08.238.241.238zm0 68.823c.08 0 .241-.079.241-.239 0-.079-.08-.239-.24-.239-.081 0-.242.08-.242.239 0 .08.08.239.241.239zm-5.703-64.441c.24 0 .482-.239.482-.478s-.241-.478-.482-.478-.482.239-.482.478.24.478.482.478zm0 68.822c.24 0 .482-.239.482-.478s-.241-.478-.482-.478-.482.239-.482.478c.08.239.24.478.482.478zM72.94 108.89c.081 0 .242-.08.242-.239 0-.08-.08-.239-.241-.239-.08 0-.241.079-.241.239 0 .159.16.239.24.239zm0 68.822c.081 0 .242-.079.242-.239 0-.079-.08-.239-.241-.239-.08 0-.241.08-.241.239 0 .16.16.239.24.239zm7.471-55.599c.241 0 .402-.16.402-.399 0-.239-.16-.398-.402-.398-.24 0-.401.159-.401.398 0 .239.16.399.401.399zm0 68.743c.241 0 .402-.16.402-.399 0-.239-.16-.398-.402-.398-.24 0-.401.159-.401.398 0 .239.16.399.401.399zm2.169-72.248c.161 0 .322-.16.322-.319s-.16-.319-.321-.319-.322.16-.322.319.16.319.322.319z" fill="#000"/><path d="M82.58 187.43a.32.32 0 00.322-.318.32.32 0 00-.321-.319.32.32 0 00-.322.319.32.32 0 00.322.318z" fill="#000"/><path fill-rule="evenodd" clip-rule="evenodd" d="M85.472 119.325c.241 0 .402-.16.402-.399 0-.239-.16-.398-.401-.398-.242 0-.402.159-.402.398 0 .16.24.399.401.399zm0 68.743c.241 0 .402-.16.402-.399 0-.239-.16-.398-.401-.398-.242 0-.402.159-.402.398 0 .239.24.399.401.399z" fill="#000"/><path d="M84.67 128.087a.32.32 0 00.32-.319.32.32 0 00-.32-.318.32.32 0 00-.322.318.32.32 0 00.322.319zm0 68.743a.32.32 0 00.32-.319.32.32 0 00-.32-.318.32.32 0 00-.322.318.32.32 0 00.322.319z" fill="#000"/><path fill-rule="evenodd" clip-rule="evenodd" d="M75.03 124.502c.24 0 .401-.159.401-.398 0-.239-.16-.398-.401-.398-.241 0-.402.159-.402.398 0 .239.16.398.402.398zm0 68.743c.24 0 .401-.159.401-.398 0-.239-.16-.398-.401-.398-.241 0-.402.159-.402.398 0 .239.16.398.402.398zm1.205-64.76c.24 0 .401-.159.401-.398 0-.239-.16-.399-.401-.399-.241 0-.402.16-.402.399 0 .239.16.398.402.398zm0 68.823c.24 0 .401-.16.401-.399 0-.239-.16-.398-.401-.398-.241 0-.402.159-.402.398 0 .16.16.399.402.399zm-3.937-77.983c.16 0 .241-.16.241-.239 0-.16-.16-.239-.24-.239-.162 0-.242.159-.242.239 0 .079.16.239.241.239zm0 68.743c.16 0 .241-.16.241-.239 0-.16-.16-.239-.24-.239-.162 0-.242.159-.242.239 0 .159.16.239.241.239zm-1.606-74.001a.547.547 0 00.562-.557.547.547 0 00-.562-.558.547.547 0 00-.563.558c.08.318.322.557.563.557zm0 68.823a.547.547 0 00.562-.558.547.547 0 00-.562-.557.547.547 0 00-.563.557c.08.319.322.558.563.558zm.722-54.644a.547.547 0 00.563-.557.547.547 0 00-.563-.558.547.547 0 00-.562.558c0 .318.241.557.562.557zm0 68.743a.547.547 0 00.563-.557.547.547 0 00-.563-.558.547.547 0 00-.562.558c0 .318.241.557.562.557z" fill="#000"/><path d="M72.7 133.663a.32.32 0 00.321-.319.32.32 0 00-.321-.319.32.32 0 00-.322.319.32.32 0 00.322.319zm0 68.822a.32.32 0 00.321-.318.32.32 0 00-.321-.319.32.32 0 00-.322.319.32.32 0 00.322.318z" fill="#000"/><path fill-rule="evenodd" clip-rule="evenodd" d="M78.002 135.335a.547.547 0 00.562-.557.547.547 0 00-.562-.558.547.547 0 00-.563.558c0 .318.241.557.563.557zm0 68.744a.547.547 0 00.562-.558.547.547 0 00-.562-.558.547.547 0 00-.563.558c0 .319.241.558.563.558zm.241-59.026a.546.546 0 00.562-.557.547.547 0 00-.563-.558.547.547 0 00-.562.558c0 .319.241.557.563.557z" fill="#000"/><path d="M75.592 141.389a.32.32 0 00.321-.318.32.32 0 00-.321-.319.32.32 0 00-.322.319.32.32 0 00.322.318zm.722 65.637a.32.32 0 00.322-.319.32.32 0 00-.322-.318.32.32 0 00-.32.318.32.32 0 00.32.319z" fill="#000"/><path fill-rule="evenodd" clip-rule="evenodd" d="M74.387 147.523c.16 0 .321-.159.321-.319 0-.159-.16-.318-.321-.318-.16 0-.322.159-.322.318 0 .239.161.319.322.319zm4.338 10.992c.24 0 .482-.239.482-.478s-.241-.478-.482-.478-.482.239-.482.478.24.478.482.478z" fill="#000"/><path d="M85.07 140.354a.32.32 0 00.322-.319.32.32 0 00-.321-.319.32.32 0 00-.322.319.32.32 0 00.322.319zm-10.763 14.418a.32.32 0 00.321-.319.32.32 0 00-.321-.319.32.32 0 00-.322.319.32.32 0 00.322.319z" fill="#000"/><path fill-rule="evenodd" clip-rule="evenodd" d="M88.043 132.627c.16 0 .241-.159.241-.239 0-.159-.16-.239-.24-.239-.161 0-.242.159-.242.239 0 .159.08.239.241.239zm0 68.823c.16 0 .241-.159.241-.239 0-.159-.16-.239-.24-.239-.161 0-.242.159-.242.239 0 .08.08.239.241.239zm-1.285-78.382c.24 0 .482-.239.482-.478 0-.238-.241-.477-.482-.477s-.482.239-.482.477c0 .239.24.478.482.478zm0 68.743c.24 0 .482-.238.482-.477s-.241-.478-.482-.478-.482.239-.482.478.24.477.482.477zm-5.703-60.936a.547.547 0 00.562-.558.546.546 0 00-.563-.557.546.546 0 00-.562.557c0 .319.241.558.563.558zm0 68.822a.547.547 0 00.562-.557.547.547 0 00-.563-.558.547.547 0 00-.562.558c0 .318.241.557.563.557zm.642-65.238c.24 0 .482-.239.482-.478s-.241-.478-.482-.478-.482.239-.482.478.16.478.482.478zm0 68.823c.24 0 .482-.239.482-.478s-.241-.478-.482-.478-.482.239-.482.478.16.478.482.478zm1.928-56.635c.24 0 .401-.16.401-.399 0-.239-.16-.398-.401-.398-.241 0-.402.159-.402.398 0 .239.16.399.402.399zm2.49 58.069c.241 0 .402-.16.402-.399 0-.238-.161-.398-.402-.398-.241 0-.402.16-.402.398 0 .239.241.399.402.399zm.643-59.822a.717.717 0 100-1.434.717.717 0 100 1.434zm-1.125 5.735a.547.547 0 00.562-.557.547.547 0 00-.562-.558.547.547 0 00-.562.558c0 .318.24.557.562.557zm1.044 5.497a.631.631 0 00.643-.638.631.631 0 00-.643-.637.631.631 0 00-.642.637c0 .319.321.638.642.638zm-7.711-3.346c.24 0 .482-.239.482-.478s-.241-.478-.482-.478-.482.239-.482.478.24.478.482.478zm6.747 31.385c.241 0 .482-.239.482-.478s-.24-.478-.482-.478c-.24 0-.482.239-.482.478s.241.478.482.478z" fill="#000"/><path d="M73.101 150.629a.24.24 0 00.241-.239.24.24 0 00-.24-.239.24.24 0 00-.242.239.24.24 0 00.241.239z" fill="#000"/><path fill-rule="evenodd" clip-rule="evenodd" d="M71.495 142.743c.24 0 .402-.159.402-.398 0-.239-.161-.398-.402-.398-.241 0-.402.159-.402.398 0 .239.241.398.402.398zm1.606 66.513c.241 0 .402-.159.402-.398 0-.239-.16-.398-.402-.398-.24 0-.401.159-.401.398 0 .239.24.398.401.398zm-2.008-72.248c.16 0 .241-.159.241-.239 0-.159-.16-.239-.241-.239-.16 0-.24.16-.24.239 0 .16.16.239.24.239zm0 68.823c.16 0 .241-.159.241-.239 0-.159-.16-.239-.241-.239-.16 0-.24.159-.24.239 0 .08.16.239.24.239zm75.592-163.534c.241 0 .482-.239.482-.478s-.241-.478-.482-.478-.482.24-.482.478c0 .319.161.478.482.478zm-6.587.478c.241 0 .402-.16.402-.398 0-.239-.161-.398-.402-.398-.241 0-.402.159-.402.398 0 .239.161.398.402.398zm-1.527 4.302c.161 0 .322-.16.322-.319 0-.16-.161-.319-.322-.319-.16 0-.321.16-.321.319 0 .16.161.319.321.319zm-10.121-3.426c.241 0 .401-.159.401-.398 0-.239-.16-.398-.401-.398-.241 0-.402.16-.402.398 0 .24.161.398.402.398zm-3.615 5.895c.241 0 .482-.239.482-.478s-.241-.478-.482-.478-.482.24-.482.478c0 .239.241.478.482.478zm-2.812-2.788c.241 0 .402-.16.402-.398 0-.24-.161-.398-.402-.398-.241 0-.401.159-.401.398 0 .239.16.398.401.398zm-5.462 3.266c.241 0 .401-.16.401-.398 0-.24-.16-.399-.401-.399-.241 0-.402.16-.402.399 0 .159.161.398.402.398z" fill="#000"/><path d="M121.14 57.99a.32.32 0 00.321-.32.32.32 0 00-.321-.318.32.32 0 00-.322.319.32.32 0 00.322.319zm.321 6.611a.64.64 0 00.643-.637.64.64 0 00-.643-.637.64.64 0 00-.643.637.64.64 0 00.643.637z" fill="#000"/><path fill-rule="evenodd" clip-rule="evenodd" d="M112.946 64.282c.241 0 .401-.159.401-.398 0-.239-.16-.398-.401-.398-.241 0-.402.16-.402.398 0 .16.161.398.402.398zm-3.294-4.859c.081 0 .161-.08.161-.159 0-.08-.08-.16-.161-.16-.08 0-.16.08-.16.16.08.16.16.16.16.16zm-.883-8.204c.321 0 .642-.319.642-.638 0-.318-.321-.637-.642-.637-.322 0-.643.319-.643.637 0 .399.321.638.643.638zm-13.014-1.514c.321 0 .643-.318.643-.637s-.322-.637-.643-.637-.643.318-.643.637c0 .398.241.637.643.637zm-7.471 12.028c.16 0 .322-.159.322-.318 0-.16-.161-.319-.322-.319-.16 0-.321.16-.321.319s.16.318.321.318zm-.401 5.736c.24 0 .401-.16.401-.399 0-.239-.16-.398-.401-.398-.241 0-.402.16-.402.398 0 .24.16.399.402.399zm-3.696 6.292c.241 0 .402-.159.402-.398 0-.239-.16-.398-.402-.398-.24 0-.401.16-.401.398 0 .24.16.398.401.398z" fill="#000"/><path d="M80.733 44.528a.4.4 0 00.402-.399.4.4 0 00-.402-.398.4.4 0 00-.401.398.4.4 0 00.401.399z" fill="#000"/><path fill-rule="evenodd" clip-rule="evenodd" d="M92.22 38.474c.16 0 .322-.16.322-.319 0-.16-.161-.319-.322-.319-.16 0-.321.16-.321.32 0 .159.16.318.321.318z" fill="#000"/><path d="M94.871 41.341a.32.32 0 00.322-.318.32.32 0 00-.322-.319.32.32 0 00-.321.319.32.32 0 00.321.318z" fill="#000"/><path fill-rule="evenodd" clip-rule="evenodd" d="M105.234 37.837c.08 0 .241-.08.241-.24 0-.079-.08-.238-.241-.238-.08 0-.241.08-.241.239.08.159.161.239.241.239zm11.086 4.221a.547.547 0 00.562-.557.547.547 0 00-.562-.558.547.547 0 00-.563.558c.081.318.322.557.563.557zm28.035 10.674c.161 0 .322-.16.322-.318 0-.16-.161-.319-.322-.319-.16 0-.321.16-.321.319s.161.318.321.318zm3.213.558c.241 0 .482-.24.482-.478 0-.24-.241-.478-.482-.478s-.482.239-.482.478c.081.239.241.478.482.478zm7.471-3.744c.241 0 .402-.16.402-.398 0-.24-.161-.399-.402-.399-.241 0-.401.16-.401.399 0 .159.241.398.401.398z" fill="#000"/><path d="M158.494 46.838a.32.32 0 00.321-.319.32.32 0 00-.321-.319.32.32 0 00-.322.32.32.32 0 00.322.318z" fill="#000"/><path fill-rule="evenodd" clip-rule="evenodd" d="M166.688 49.626c.241 0 .482-.24.482-.478 0-.24-.241-.478-.482-.478s-.482.239-.482.478c0 .318.241.478.482.478zm-3.776 4.46c.241 0 .482-.239.482-.478 0-.238-.241-.477-.482-.477s-.482.239-.482.477c0 .24.241.478.482.478zm5.302-26.844a.547.547 0 00.562-.557.547.547 0 00-.562-.558.547.547 0 00-.563.558c.081.318.322.557.563.557zm-8.837 9.24a.63.63 0 00.643-.637.631.631 0 00-.643-.637.63.63 0 00-.642.637c-.081.319.241.637.642.637z" fill="#000"/><path d="M162.51 37.12a.32.32 0 00.322-.319.32.32 0 00-.322-.319.32.32 0 00-.321.319.32.32 0 00.321.319z" fill="#000"/><path fill-rule="evenodd" clip-rule="evenodd" d="M78.966 53.13a.547.547 0 00.562-.557.547.547 0 00-.562-.558.547.547 0 00-.563.558c0 .319.241.557.563.557z" fill="#000"/><path d="M81.858 52.414a.32.32 0 00.32-.319.32.32 0 00-.32-.319.32.32 0 00-.322.319.32.32 0 00.322.319z" fill="#000"/><path fill-rule="evenodd" clip-rule="evenodd" d="M74.628 39.27a.631.631 0 00.643-.637.63.63 0 00-.643-.637.631.631 0 00-.643.637c0 .319.322.637.643.637zM72.62 51.776a.63.63 0 00.642-.637c0-.319-.321-.637-.642-.637-.322 0-.643.319-.643.637 0 .319.321.637.643.637zm7.55 11.71c.161 0 .242-.16.242-.24 0-.079-.161-.238-.241-.238-.161 0-.241.16-.241.239 0 .08.08.239.24.239zm-.401 6.452c.24 0 .401-.16.401-.398 0-.24-.16-.399-.401-.399-.241 0-.402.16-.402.399 0 .159.16.398.402.398zm7.23 1.274c.24 0 .401-.159.401-.398 0-.239-.16-.398-.401-.398-.241 0-.402.16-.402.398 0 .24.241.398.402.398zM76.716 84.037c.161 0 .322-.16.322-.319s-.161-.318-.322-.318c-.16 0-.321.16-.321.318 0 .16.16.319.321.319zm5.463 4.381c.241 0 .402-.16.402-.398 0-.24-.161-.398-.402-.398-.241 0-.402.159-.402.398 0 .239.161.398.402.398zm-.08 12.267c.16 0 .321-.159.321-.319 0-.159-.16-.318-.321-.318s-.322.159-.322.318c0 .16.161.319.322.319zm-4.9 2.549a.547.547 0 00.562-.558.547.547 0 00-.562-.557.547.547 0 00-.563.557c0 .319.322.558.563.558zm1.446 3.346c.16 0 .32-.16.32-.319s-.16-.319-.32-.319c-.161 0-.322.16-.322.319s.16.319.322.319zm5.301 7.886a.547.547 0 00.562-.558.547.547 0 00-.562-.558.547.547 0 00-.562.558c0 .319.24.558.562.558zm-6.748 1.035c.242 0 .402-.159.402-.398 0-.239-.16-.398-.401-.398-.242 0-.402.159-.402.398 0 .239.24.398.401.398zm1.125 4.7a.547.547 0 00.562-.558.547.547 0 00-.562-.557.547.547 0 00-.562.557c0 .319.24.558.562.558z" fill="#000"/><path d="M81.215 127.211a.32.32 0 00.321-.319.32.32 0 00-.321-.319.32.32 0 00-.321.319.32.32 0 00.32.319z" fill="#000"/><path fill-rule="evenodd" clip-rule="evenodd" d="M84.187 133.264a.631.631 0 00.643-.637c0-.398-.241-.637-.643-.637a.631.631 0 00-.643.637c0 .398.241.637.643.637z" fill="#000"/><path d="M86.597 136.132a.24.24 0 00.241-.239.24.24 0 00-.24-.239.24.24 0 00-.242.239.24.24 0 00.241.239z" fill="#000"/><path fill-rule="evenodd" clip-rule="evenodd" d="M80.331 138.681c.16 0 .241-.159.241-.239 0-.159-.16-.239-.24-.239-.161 0-.242.159-.242.239-.08.159.08.239.241.239zm1.045 10.515c.16 0 .24-.16.24-.239 0-.16-.16-.239-.24-.239-.16 0-.241.159-.241.239 0 .159.08.239.24.239zm2.169 7.328a.547.547 0 00.562-.558.547.547 0 00-.562-.557.547.547 0 00-.563.557c0 .319.241.558.563.558zm-11.729-.876c.16 0 .241-.16.241-.239 0-.16-.16-.239-.24-.239-.161 0-.242.159-.242.239 0 .079.16.239.241.239zm-.482-7.727c.241 0 .402-.159.402-.398 0-.239-.16-.398-.402-.398-.24 0-.401.159-.401.398 0 .159.16.398.401.398zm4.418-13.063c.241 0 .402-.16.402-.399 0-.239-.16-.398-.402-.398-.24 0-.401.159-.401.398 0 .16.16.399.401.399zm4.178 35.606c.24 0 .401-.16.401-.399 0-.239-.16-.398-.401-.398-.242 0-.402.159-.402.398 0 .16.16.399.401.399z" fill="#000"/><path d="M78.082 174.526a.32.32 0 00.321-.318.32.32 0 00-.32-.319.32.32 0 00-.322.319.32.32 0 00.321.318z" fill="#000"/><path fill-rule="evenodd" clip-rule="evenodd" d="M79.287 179.624a.631.631 0 00.643-.637c0-.398-.241-.637-.643-.637s-.643.239-.643.637.322.637.643.637zm-.241 5.895c.24 0 .482-.239.482-.478s-.241-.478-.482-.478-.482.239-.482.478.241.478.482.478z" fill="#000"/><path d="M75.27 182.253a.32.32 0 00.322-.319.32.32 0 00-.322-.318.32.32 0 00-.32.318.32.32 0 00.32.319z" fill="#000"/><path fill-rule="evenodd" clip-rule="evenodd" d="M70.53 179.783c.242 0 .483-.239.483-.477 0-.239-.241-.478-.482-.478s-.482.239-.482.478c0 .238.24.477.482.477zm3.214-12.983c.24 0 .402-.16.402-.399 0-.239-.161-.398-.402-.398-.241 0-.402.159-.402.398 0 .239.16.399.402.399zm2.169-5.417c.24 0 .401-.159.401-.398 0-.239-.16-.399-.401-.399-.241 0-.402.16-.402.399 0 .159.16.398.402.398zm6.989 1.434c.24 0 .482-.239.482-.478s-.241-.478-.482-.478-.482.239-.482.478.24.478.482.478zm4.498 2.31c.161 0 .322-.16.322-.319s-.161-.318-.322-.318c-.16 0-.321.159-.321.318-.08.159.08.319.321.319zm-.24 5.337c.16 0 .24-.16.24-.239 0-.16-.16-.239-.24-.239-.161 0-.242.159-.242.239 0 .079.08.239.241.239zm0 8.921c.16 0 .24-.159.24-.239 0-.159-.16-.239-.24-.239-.161 0-.242.16-.242.239 0 .08.08.239.241.239z" fill="#000"/><path d="M86.918 185.359a.64.64 0 00.643-.637.64.64 0 00-.643-.637.64.64 0 00-.642.637.64.64 0 00.642.637z" fill="#000"/><path fill-rule="evenodd" clip-rule="evenodd" d="M80.17 194.918c.242 0 .402-.159.402-.398 0-.239-.16-.398-.401-.398-.241 0-.402.159-.402.398 0 .239.16.398.402.398zm4.339-.398c.24 0 .401-.159.401-.398 0-.239-.16-.399-.401-.399-.241 0-.402.16-.402.399 0 .239.16.398.402.398zm2.571 1.912c.24 0 .481-.239.481-.478s-.24-.478-.482-.478c-.24 0-.482.239-.482.478s.241.478.482.478z" fill="#000"/><path d="M84.589 202.406a.32.32 0 00.321-.319.32.32 0 00-.321-.318.32.32 0 00-.321.318.32.32 0 00.32.319z" fill="#000"/><path fill-rule="evenodd" clip-rule="evenodd" d="M80.01 207.344a.888.888 0 00.884-.876.888.888 0 00-.884-.876.887.887 0 00-.884.876c0 .478.402.876.884.876zm-4.017-7.169c.161 0 .241-.159.241-.239 0-.159-.16-.239-.24-.239-.161 0-.242.16-.242.239 0 .08.08.239.241.239zm-5.141-7.886a.631.631 0 00.643-.637c0-.398-.241-.637-.643-.637a.631.631 0 00-.642.637c0 .398.32.637.642.637zm5.784-3.743c.241 0 .482-.239.482-.478s-.24-.478-.482-.478c-.24 0-.482.239-.482.478s.241.478.482.478zm-6.587-14.418a.631.631 0 00.643-.637.631.631 0 00-.643-.638.631.631 0 00-.643.638c0 .398.322.637.643.637zm2.008-12.904c.16 0 .322-.16.322-.319s-.161-.319-.322-.319c-.16 0-.321.16-.321.319s.16.319.321.319zm11.488-67.071c.16 0 .24-.159.24-.239 0-.159-.16-.239-.24-.239-.161 0-.241.16-.241.24 0 .159.08.238.24.238zm4.257 2.788c.241 0 .482-.239.482-.478s-.24-.478-.482-.478c-.24 0-.482.24-.482.478 0 .319.161.478.482.478zm-5.864-17.922a.547.547 0 00.562-.558.547.547 0 00-.562-.558.547.547 0 00-.563.558c0 .319.242.558.563.558z" fill="#000"/><path d="M88.686 53.29a.8.8 0 00.803-.797.8.8 0 00-.803-.796.8.8 0 00-.804.796.8.8 0 00.804.797z" fill="#000"/><path fill-rule="evenodd" clip-rule="evenodd" d="M101.699 51.537c.161 0 .241-.159.241-.239 0-.159-.16-.239-.241-.239-.16 0-.241.16-.241.24 0 .08.081.238.241.238zm-6.426 12.506c.241 0 .482-.239.482-.478 0-.238-.241-.477-.482-.477s-.482.239-.482.477c0 .24.241.478.482.478zM66.354 71.77a.547.547 0 00.562-.558.547.547 0 00-.562-.557.547.547 0 00-.563.557c0 .32.242.558.563.558zm-1.607-5.337c.16 0 .241-.16.241-.239 0-.16-.16-.239-.24-.239-.161 0-.242.16-.242.24-.08.158.08.238.241.238zm1.607-4.939c.16 0 .24-.159.24-.239 0-.159-.16-.239-.24-.239-.161 0-.241.16-.241.24-.08.159.08.238.24.238z" fill="#000"/><path d="M63.14 49.227a.24.24 0 00.241-.239.24.24 0 00-.24-.239.24.24 0 00-.242.24.24.24 0 00.241.238z" fill="#000"/><path fill-rule="evenodd" clip-rule="evenodd" d="M66.836 52.732c.16 0 .321-.16.321-.318 0-.16-.16-.319-.321-.319-.16 0-.322.16-.322.319-.08.159.08.318.322.318zm-.402 4.62a.547.547 0 00.562-.557.547.547 0 00-.562-.558.547.547 0 00-.562.558c.08.318.32.557.562.557zm-2.249-20.87c.24 0 .401-.159.401-.398 0-.239-.16-.398-.401-.398-.241 0-.402.16-.402.398 0 .16.16.398.402.398zm2.651-2.389c.16 0 .24-.16.24-.24 0-.159-.16-.238-.24-.238-.16 0-.241.16-.241.239 0 .08.16.239.24.239zm-4.499 6.531c.241 0 .482-.239.482-.477 0-.24-.241-.478-.482-.478s-.482.239-.482.478.241.477.482.477zm3.937 3.027c.08 0 .24-.08.24-.239 0-.159-.08-.239-.24-.239-.08 0-.241.08-.241.24 0 .159.08.239.24.239zm-3.616 31.226c.08 0 .242-.08.242-.24 0-.159-.08-.238-.242-.238-.08 0-.24.08-.24.239 0 .159.08.239.24.239zm-1.686 6.133c.16 0 .24-.16.24-.239 0-.16-.16-.239-.24-.239-.16 0-.241.16-.241.24-.08.079.08.238.24.238zm4.578-4.062c.242 0 .402-.16.402-.399 0-.239-.16-.398-.401-.398-.241 0-.402.16-.402.398 0 .16.16.399.402.399zm.884 10.435c.241 0 .482-.24.482-.478 0-.24-.24-.478-.482-.478-.24 0-.482.239-.482.478s.16.478.482.478zm-3.294-2.549c.161 0 .242-.16.242-.24 0-.159-.16-.238-.241-.238-.16 0-.241.159-.241.239-.08.159.08.239.24.239zm3.535 15.054c.241 0 .482-.238.482-.477 0-.24-.24-.478-.482-.478-.24 0-.482.239-.482.478s.241.477.482.477zm0 68.823c.241 0 .482-.239.482-.478s-.24-.478-.482-.478c-.24 0-.482.239-.482.478s.241.478.482.478zM63.542 92.8c.241 0 .482-.24.482-.479s-.241-.478-.482-.478c-.24 0-.482.24-.482.478 0 .24.16.478.482.478zm.322 68.105c.24 0 .482-.239.482-.478s-.241-.478-.482-.478-.482.239-.482.478.16.478.482.478zm.401-55.52c.08 0 .241-.08.241-.239 0-.08-.08-.239-.24-.239-.08 0-.242.08-.242.239 0 .159.08.239.241.239zm0 68.743c.08 0 .241-.08.241-.239 0-.08-.08-.239-.24-.239-.08 0-.242.08-.242.239 0 .159.08.239.241.239z" fill="#000"/><path d="M65.872 108.73a.32.32 0 00.32-.318.32.32 0 00-.32-.319.32.32 0 00-.322.319.32.32 0 00.322.318zm0 68.743a.32.32 0 00.32-.318.32.32 0 00-.32-.319.32.32 0 00-.322.319.32.32 0 00.322.318z" fill="#000"/><path fill-rule="evenodd" clip-rule="evenodd" d="M63.542 113.35c.08 0 .241-.079.241-.239 0-.079-.08-.239-.24-.239-.081 0-.242.08-.242.239.08.16.16.239.241.239zm0 68.823c.08 0 .241-.08.241-.239 0-.08-.08-.239-.24-.239-.081 0-.242.08-.242.239.08.159.16.239.241.239zm-.803-59.344c.24 0 .401-.159.401-.398 0-.239-.16-.398-.401-.398-.241 0-.402.159-.402.398-.08.239.16.398.402.398zm0 68.823c.24 0 .401-.159.401-.398 0-.239-.16-.398-.401-.398-.241 0-.402.159-.402.398-.08.159.16.398.402.398z" fill="#000"/><path d="M64.908 119.325a.32.32 0 00.321-.319.32.32 0 00-.321-.319.32.32 0 00-.322.319.32.32 0 00.322.319zm0 68.822a.32.32 0 00.321-.318.32.32 0 00-.321-.319.32.32 0 00-.322.319.32.32 0 00.322.318zm2.008-59.343a.32.32 0 00.321-.319.32.32 0 00-.32-.319.32.32 0 00-.322.319.32.32 0 00.321.319zm0 68.822a.32.32 0 00.321-.318.32.32 0 00-.32-.319.32.32 0 00-.322.319.32.32 0 00.321.318z" fill="#000"/><path fill-rule="evenodd" clip-rule="evenodd" d="M62.257 157.48c.24 0 .482-.239.482-.478s-.241-.478-.482-.478-.482.239-.482.478.24.478.482.478z" fill="#000"/><path d="M67.318 141.071a.32.32 0 00.321-.319.32.32 0 00-.321-.319.32.32 0 00-.321.319.32.32 0 00.32.319z" fill="#000"/><path fill-rule="evenodd" clip-rule="evenodd" d="M63.382 131.671a.547.547 0 00.562-.557.547.547 0 00-.562-.558.547.547 0 00-.563.558c0 .318.241.557.563.557zm0 68.743a.547.547 0 00.562-.557.547.547 0 00-.562-.558.547.547 0 00-.563.558c0 .318.241.557.563.557zm.562-65.158c.24 0 .482-.239.482-.478s-.241-.478-.482-.478-.482.239-.482.478c.08.239.24.478.482.478zm0 68.743c.24 0 .482-.239.482-.478s-.241-.478-.482-.478-.482.239-.482.478c.08.319.24.478.482.478zm2.008-56.636c.241 0 .402-.159.402-.398 0-.239-.161-.398-.402-.398-.241 0-.402.159-.402.398 0 .239.161.398.402.398zm-2.169 5.258c.241 0 .482-.239.482-.478s-.24-.478-.482-.478c-.24 0-.482.239-.482.478s.241.478.482.478zm2.731-78.063c.241 0 .402-.16.402-.398 0-.24-.16-.399-.402-.399-.24 0-.401.16-.401.399 0 .159.16.398.401.398zM63.06 45.245c.241 0 .402-.16.402-.399 0-.239-.16-.398-.402-.398-.24 0-.401.16-.401.398 0 .24.16.399.401.399zm-.643 10.275a.547.547 0 00.563-.557.547.547 0 00-.563-.558c-.321 0-.562.319-.562.558 0 .239.241.557.562.557z" fill="#000"/><path d="M64.185 53.21a.32.32 0 00.321-.318.32.32 0 00-.32-.32.32.32 0 00-.322.32.32.32 0 00.321.318z" fill="#000"/><path fill-rule="evenodd" clip-rule="evenodd" d="M62.498 64.282c.16 0 .24-.159.24-.239 0-.159-.16-.239-.24-.239-.16 0-.241.16-.241.24-.08.079.08.238.24.238zm-.402 6.373c.242 0 .402-.16.402-.398 0-.24-.16-.399-.401-.399-.242 0-.402.16-.402.399 0 .239.16.398.401.398zm2.41 18.56c.241 0 .402-.16.402-.399 0-.239-.16-.398-.402-.398-.24 0-.401.16-.401.398 0 .16.16.399.401.399zm-.08 12.267c.16 0 .321-.16.321-.319s-.16-.319-.321-.319c-.16 0-.322.16-.322.319s.161.319.322.319zm-3.454 5.815c.16 0 .32-.16.32-.319s-.16-.319-.32-.319c-.161 0-.322.16-.322.319-.08.159.08.319.322.319zm5.301 7.885a.546.546 0 00.563-.557.547.547 0 00-.563-.558.547.547 0 00-.562.558c0 .319.24.557.562.557zm-3.453 3.266a.547.547 0 00.562-.557.547.547 0 00-.563-.558.547.547 0 00-.562.558c0 .318.24.557.562.557z" fill="#000"/><path d="M63.462 127.927a.32.32 0 00.321-.318.32.32 0 00-.321-.319.32.32 0 00-.321.319.32.32 0 00.321.318z" fill="#000"/><path fill-rule="evenodd" clip-rule="evenodd" d="M66.434 133.981a.631.631 0 00.643-.637c0-.398-.241-.637-.643-.637a.631.631 0 00-.642.637c0 .398.32.637.642.637zm-3.776 5.497c.161 0 .241-.16.241-.239 0-.16-.16-.239-.24-.239-.161 0-.242.159-.242.239-.08.079.08.239.241.239z" fill="#000"/><path d="M63.703 149.913a.24.24 0 00.24-.239.24.24 0 00-.24-.239.24.24 0 00-.241.239.24.24 0 00.24.239zm2.169 7.408a.56.56 0 00.562-.558.56.56 0 00-.562-.558.56.56 0 00-.562.558.56.56 0 00.562.558z" fill="#000"/><path fill-rule="evenodd" clip-rule="evenodd" d="M62.177 171.181c.24 0 .401-.16.401-.399 0-.239-.16-.398-.401-.398-.241 0-.402.159-.402.398 0 .239.24.399.402.399zm4.016 11.789a.631.631 0 00.643-.638c0-.398-.241-.637-.643-.637a.631.631 0 00-.643.637c0 .399.322.638.643.638zm-3.053 3.744c.242 0 .483-.239.483-.478s-.241-.478-.482-.478-.482.239-.482.478.24.478.482.478zm2.09-23.18c.24 0 .481-.239.481-.478s-.241-.478-.482-.478c-.24 0-.482.239-.482.478s.241.478.482.478zm-2.732 32.181c.24 0 .402-.16.402-.399 0-.239-.161-.398-.402-.398-.241 0-.402.159-.402.398 0 .16.16.399.402.399zm4.258-.399c.24 0 .401-.159.401-.398 0-.239-.16-.398-.401-.398-.241 0-.402.159-.402.398 0 .159.241.398.402.398z" fill="#000"/><path d="M66.836 203.123a.32.32 0 00.321-.319.32.32 0 00-.321-.319.32.32 0 00-.321.319.32.32 0 00.321.319z" fill="#000"/><path fill-rule="evenodd" clip-rule="evenodd" d="M64.426 208.46a.888.888 0 00.884-.877.888.888 0 00-.884-.876.887.887 0 00-.884.876c0 .478.402.877.884.877zm1.446-113.51c.16 0 .24-.16.24-.24 0-.158-.16-.238-.24-.238-.08 0-.241.16-.241.239-.08.08.08.239.24.239zm-1.607-15.214a.547.547 0 00.563-.558.547.547 0 00-.563-.558.547.547 0 00-.562.558c0 .319.241.558.562.558zm1.687-40.944c.241 0 .482-.239.482-.477 0-.24-.24-.478-.482-.478-.24 0-.482.238-.482.477.08.24.241.478.482.478zm.321 8.763c.161 0 .322-.16.322-.319 0-.16-.16-.319-.322-.319-.16 0-.32.16-.32.319 0 .239.08.319.32.319zm-2.811 13.063a.801.801 0 00.803-.796.802.802 0 00-.803-.797.802.802 0 00-.803.797c0 .477.401.796.803.796z" fill="#000"/><path d="M66.354 64.203a.32.32 0 00.321-.319.32.32 0 00-.321-.319.32.32 0 00-.321.32.32.32 0 00.321.318z" fill="#000"/><path fill-rule="evenodd" clip-rule="evenodd" d="M65.39 82.285a.547.547 0 00.562-.558.547.547 0 00-.562-.558.547.547 0 00-.562.558c0 .319.24.558.562.558zm-1.928 15.532c.241 0 .482-.238.482-.477 0-.24-.241-.478-.482-.478s-.482.239-.482.478.16.477.482.477zm.482 46.281c.24 0 .482-.239.482-.478s-.241-.478-.482-.478-.482.239-.482.478.24.478.482.478zm2.008-19.596c.16 0 .322-.159.322-.318 0-.16-.161-.319-.322-.319-.16 0-.321.159-.321.319 0 .159.16.318.321.318zm-2.49-14.099c.241 0 .482-.239.482-.478s-.241-.478-.482-.478-.482.239-.482.478.16.478.482.478zm2.731-6.532c.16 0 .241-.159.241-.239 0-.159-.16-.239-.24-.239-.162 0-.242.16-.242.239 0 .08.08.239.241.239zm-2.812 63.566a.801.801 0 00.804-.797.801.801 0 00-.804-.796.801.801 0 00-.803.796c0 .399.321.797.803.797zm1.768 5.337c.16 0 .24-.16.24-.239 0-.16-.16-.239-.24-.239-.161 0-.241.159-.241.239-.08.079.08.239.24.239zm-1.607 5.416c.241 0 .482-.239.482-.478s-.241-.478-.482-.478c-.24 0-.482.239-.482.478s.241.478.482.478z" fill="#000"/><path clip-rule="evenodd" d="M132.708 102.915c-22.252-19.515-37.274-10.355-36.47-4.7 0-14.258 47.314-30.03 87.801-37.278-31.731 7.487-50.287 37.836-51.331 41.978z" stroke="#000" stroke-width=".567" stroke-miterlimit="22.926" stroke-linejoin="round"/><path d="M168.294 64.123c-6.507 3.346-12.531 6.691-17.512 10.515-10.202 7.806-17.111 16.648-22.091 24.932m30.767-33.296c-16.468 8.125-26.51 17.763-34.623 31.066M150.3 68.663c-18.235 10.595-23.376 16.808-29.321 26.127m18.717-23.02c-11.166 7.01-17.11 11.63-22.814 21.109m13.335-17.923c-8.274 5.178-14.299 10.594-17.833 16.569m9.479-13.303c-4.579 2.55-11.568 8.603-14.138 12.825m4.257-8.205c-3.615 2.868-7.069 6.054-8.756 8.762m31.409 7.329c-11.487-9.002-22.733-14.338-34.14-8.444m36.711 5.018c-10.041-7.886-21.288-11.948-31.329-9.08m33.659 5.735c-8.515-6.691-20.886-10.993-29.642-8.125m31.971 4.779c-6.667-5.257-19.52-9.638-26.991-7.647m29.401 4.301c-5.944-4.62-17.03-7.726-23.537-6.77m26.429 3.983c-5.623-4.381-14.218-6.134-20.886-6.213m23.296 3.823c-4.418-3.505-15.986-6.452-19.36-5.337m21.85 3.027c-3.293-2.549-12.933-5.496-15.825-5.098m18.155 3.027c-2.731-2.15-8.676-4.54-13.335-4.54m16.227 2.708c-2.249-1.752-6.748-3.983-10.523-4.46m12.933 2.787c-2.008-1.593-5.543-3.584-9.399-3.823m11.568 2.15c-1.526-1.194-3.936-2.39-6.587-3.265m8.756 1.593c-1.205-.956-2.812-2.23-5.222-2.47m7.953 1.115c-.964-.796-2.33-1.513-3.856-2.23m6.346.637a13.616 13.616 0 00-2.651-1.593m5.142.399a11.32 11.32 0 00-1.446-.956" stroke="#000" stroke-width=".567" stroke-miterlimit="22.926"/></g><defs><clipPath id="clip0"><path fill="#fff" d="M0 0h194v213H0z"/></clipPath></defs></svg>