<svg width="126" height="64" fill="none" xmlns="http://www.w3.org/2000/svg"><path d="M8.87 20.62h32.694l1.6-2.179C46.506 6.681 50.266 4.605 56.02 2.117 58.763.925 63.872.082 66.49.411c2.471.267 4.61 1.172 5.691 2.035.56.288 1.475 1.09 2.389 1.85 1.412.946 2.555 1.625 2.929 2.221.789.966 1.89 3.269 2.99 7.936 1.226.966 3.241 2.508 2.015 6.168h32.072c3.323 3.289 4.569 4.502 8.101 8.018v27.569c-3.843 3.516-5.733 5.243-8.475 7.771H8.101C5.276 61.718 4.092 60.197 0 55.961V28.64c3.614-3.208 5.255-4.709 8.87-8.018z" fill="#000"/><path fill-rule="evenodd" clip-rule="evenodd" d="M80.303 13.363c3.531 4.194 2.472 8.347-1.683 11.986-2.638 2.303-6.065 3.557-8.87 5.613-3.863 2.857-9.409 6.208-14.435 5.016-3.095-.74-6.398-1.48-9.347-2.59-2.555-.967-5.214-2.426-6.211-5.12a6.093 6.093 0 01-.332-2.919c.249-2.159 2.783-5.263 4.32-7.237.041-.164.104-.308.145-.472.333-.987.665-1.974.956-2.982 1.33-4.543 3.323-8.264 7.353-11.04 1.849-1.254 3.656-1.912 5.816-2.487l.062-.02h.042c.685-.206 1.225-.515 1.973-.659 5.048-.945 9.389-.555 13.44 2.755 1.1.905 2.554 1.748 3.53 2.734 1.205 1.213 1.766 2.714 2.265 4.297.332 1.028.685 2.077.976 3.125z" fill="#000"/><path d="M95.175 41.056v-5.962l2.43-2.405h4.778l2.43 2.405v4.01h-3.988v-3.228h-1.64v4.42h3.323l2.326 2.343v6.785l-2.43 2.405h-4.778l-2.43-2.405v-4.811h3.988v4.03h1.641v-5.181h-3.22l-2.43-2.406zm-9.659-8.367h7.208v3.187h-3.22v4.029h2.867v3.187h-2.866v5.571h3.22v3.187h-7.209V32.689zm-2.077 19.14h-7.207V32.69h3.988v15.954h3.22v3.186zM69.336 32.648h3.988v16.735l-2.43 2.405h-4.778l-2.43-2.405V32.648h3.988V48.6h1.64V32.648h.022zm-13.71 19.181h-3.988V32.69h3.988v7.216l2.077-7.216h4.362l-2.596 9.95 2.596 9.19h-4.362l-2.077-7.216v7.216zm-10.655 0v-7.977H43.33v7.977h-3.99V32.69h7.208l2.43 2.405v5.798l-1.557 1.398 1.557 1.398v8.162H44.97v-.02zM43.33 40.666h1.64v-4.811h-1.64v4.81zm-13.647-7.977h7.207v3.187h-3.22v4.029h2.867v3.187h-2.866v5.571h3.22v3.187h-7.208V32.689zm-7.582 9.56h4.82v7.175l-2.41 2.405h-4.778l-2.43-2.405v-14.33l2.43-2.405h4.778l2.43 2.405v5.572h-3.988v-4.811h-1.641v12.788h1.64v-3.208h-.83V42.25h-.02z" fill="#fff"/><path d="M102.507 52.138h-5.026l-2.617-2.59v-5.223h4.59v4.03h1.039V43.77H97.46l-2.596-2.61v-6.21l2.596-2.57h5.027l2.596 2.57v4.42h-4.59v-3.227h-1.039v3.824h3.157l2.493 2.529v7.051l-2.597 2.59zm-4.777-.597h4.528l2.243-2.22v-6.538l-2.139-2.179h-3.49v-5.037h2.244v3.228h3.385v-3.577l-2.243-2.22H97.73l-2.243 2.22v5.694l2.243 2.262h3.386v5.777h-2.244v-4.03h-3.385v4.38l2.243 2.24zm-4.715.597h-7.81V32.4h7.81v3.783h-3.22v3.433h2.867v3.763h-2.867v4.975h3.22v3.783zm-7.187-.597h6.584v-2.57h-3.22v-6.188h2.867v-2.57h-2.866v-4.646h3.22v-2.57h-6.585v18.544zm-2.077.597h-7.81V32.4h4.59v15.954h3.22v3.783zm-7.208-.597h6.585v-2.57h-3.22V33.019h-3.386V51.54h.021zm-14.062.597h-5.006l-1.537-5.346v5.346h-4.59V32.4h4.59v5.345l1.537-5.345h4.985L59.8 42.66l2.68 9.478zm-4.55-.597h3.74l-2.514-8.881 2.514-9.663h-3.74l-2.616 9.067v-9.067h-3.386v18.544h3.386v-9.066l2.617 9.066zm-8.661.597h-4.59V44.16h-1.04v7.977h-4.59V32.4h7.624l2.596 2.57v6.044l-1.413 1.254 1.413 1.254v8.615zm-3.988-.597h3.386v-7.75l-1.724-1.522 1.724-1.521v-5.53l-2.244-2.22h-6.771V51.54h3.386v-7.976h2.243v7.976zm-8.08.597h-7.81V32.4h7.81v3.783h-3.22v3.433h2.867v3.763h-2.867v4.975h3.22v3.783zm-7.208-.597h6.585v-2.57h-3.22v-6.188h2.866v-2.57H33.36v-4.646h3.22v-2.57h-6.585v18.544zm-5.359.597h-5.027l-2.596-2.59V34.97l2.596-2.57h5.027l2.596 2.57v6.003h-4.59v-4.81h-1.039v12.19h1.039v-2.63h-.83V41.94h5.441v7.607l-2.617 2.59zm-4.777-.597h4.528l2.243-2.22v-6.764h-4.217v2.57h.831v3.824H20.98V35.567h2.264v4.81h3.386v-5.16l-2.243-2.22h-4.528l-2.244 2.22v14.084l2.244 2.24zm51.16.535H65.99l-2.596-2.57V32.34h4.59v15.954h1.039V32.34h4.59v17.167l-2.596 2.57zm-4.757-.596h4.528l2.244-2.22V32.955h-3.386V48.91h-2.264V32.956h-3.386V49.26l2.264 2.22zm-20.98-10.506h-2.263v-5.407h2.264v5.407zm-1.64-.596h1.038v-4.194h-1.038v4.194z" fill="#000"/><path fill-rule="evenodd" clip-rule="evenodd" d="M46.674 21.854s-.623.535-.81.637c-.25.144-1.06 1.378-1.371 1.727-.291.33-.81 1.357-1.184 1.85-.125.145-.25.967-.042 1.152.623.514 2.16.267 2.804-.082.166-.083.79-1.604.852-1.871.104-.535.374-1.398.208-1.912-.146-.39.02-.72-.312-1.234-.083-.123-.083-.287-.145-.267z" fill="#000"/><path d="M44.368 27.549c-.436 0-.852-.082-1.122-.308-.228-.186-.083-1.028.042-1.193.187-.247.415-.617.623-.987.208-.35.416-.699.56-.863.105-.124.292-.39.5-.658.332-.452.706-.987.872-1.07.145-.081.54-.41.727-.554l.083-.082h.041c.042.02.042.061.063.123.02.041.041.103.062.164.208.33.208.576.229.802 0 .144.02.288.062.432.145.411 0 1.048-.125 1.562-.02.124-.062.247-.083.35-.041.247-.685 1.788-.852 1.891-.332.206-1.038.39-1.682.39zm2.306-5.674s-.042.04-.083.061c-.167.144-.582.494-.727.576-.146.082-.54.596-.852 1.069-.208.267-.395.535-.498.658-.146.164-.354.493-.561.863-.208.37-.437.74-.623.987-.104.144-.25.946-.042 1.13.644.515 2.18.248 2.783-.081.146-.083.769-1.563.831-1.85.02-.103.042-.227.083-.35.125-.514.27-1.13.125-1.542-.062-.165-.062-.288-.083-.432-.021-.226-.042-.473-.229-.781-.041-.062-.041-.103-.062-.165-.02-.082-.041-.143-.062-.143z" fill="#000"/><path fill-rule="evenodd" clip-rule="evenodd" d="M46.881 20.99c-.02 1.707-.041 3.187 1.517 3.763-.457-4.605 1.87-12.459 5.982-15.933.914-.761 3.676-2.53 4.653-2.18-.54.206-1.662.905-2.16 1.234-2.223 1.5-3.843 3.474-4.965 5.9-1.64 3.537-2.202 7.957-2.763 11.596 2.327 1.069 4.882 2.22 7.873 2.138 0-6.332 1.205-16.406 7.83-19.696.375-.185.707-.329 1.288-.082-8.183 5.448-7.353 12.315-8.225 19.572l.748.268c-.395-1.522-.166-3.29 0-4.852.457 1.15.208 2.138 1.122 3.33.955 1.275 1.91.864 2.949 1.48 2.555-.061 7.56-2.302 9.68-3.495 2.43-1.377 6.148-3.783 4.86-7.524-2.16-8.244-2.7-6.476-5.65-9.046-3.344-2.899-7.228-3.084-11.466-2.118-9.264 2.056-10.863 7.545-13.273 15.646zm16.93 4.112c-5.568-8.182 7.331-19.921 10.364-14.864-3.718.432-6.71.843-8.932 4.05-2.887 4.153-1.557 6.538-1.433 10.814z" fill="#000"/><path d="M58.7 27.57l-.81-.288v-.02c.146-1.132.229-2.262.333-3.352.519-5.983.997-11.616 7.872-16.22-.56-.227-.893-.063-1.225.102-2.93 1.46-5.09 4.379-6.398 8.696-1.184 3.886-1.433 8.121-1.433 10.979v.02h-.021c-3.012.083-5.608-1.09-7.873-2.138h-.02v-.02c.062-.35.103-.7.166-1.049.52-3.433 1.1-7.34 2.596-10.547 1.163-2.487 2.784-4.42 4.986-5.92.477-.33 1.557-.987 2.097-1.214-.997-.246-3.635 1.398-4.57 2.2-3.987 3.351-6.438 11.164-5.981 15.913v.041l-.042-.02c-1.579-.576-1.558-2.056-1.537-3.783l.02-.041c1.185-3.989 2.202-7.422 4.072-10.074a12.146 12.146 0 013.572-3.393c1.538-.966 3.386-1.685 5.65-2.2 2.327-.534 4.32-.657 6.086-.39 2.057.308 3.822 1.13 5.401 2.508.685.596 1.246.966 1.745 1.275 1.558 1.007 2.264 1.48 3.926 7.792.56 1.644.207 3.227-1.039 4.687-1.06 1.234-2.596 2.18-3.822 2.878-2.098 1.193-7.104 3.434-9.68 3.495-.394-.226-.768-.329-1.121-.41-.623-.145-1.226-.289-1.828-1.09-.582-.761-.685-1.42-.81-2.097-.062-.37-.125-.761-.29-1.152-.188 1.522-.375 3.248 0 4.75l-.022.082zm-.747-.309l.685.247c-.374-1.5-.166-3.207 0-4.729l.02-.164.042.082c.166.432.25.843.312 1.254.125.679.228 1.337.81 2.077.582.78 1.184.925 1.786 1.069.374.082.748.185 1.143.41 2.575-.06 7.56-2.302 9.659-3.494 2.887-1.645 6.065-3.968 4.86-7.504-1.64-6.291-2.347-6.744-3.905-7.75a12.55 12.55 0 01-1.745-1.296c-2.928-2.55-6.564-3.228-11.445-2.118-9.243 2.097-10.843 7.484-13.252 15.625v.041c-.02 1.686-.062 3.146 1.475 3.721-.208-2.323.27-5.427 1.287-8.367 1.143-3.269 2.825-5.942 4.716-7.545.955-.802 3.718-2.529 4.673-2.18l.063.021-.063.02c-.54.206-1.661.905-2.16 1.234-2.202 1.46-3.822 3.372-4.985 5.86-1.496 3.207-2.077 7.092-2.597 10.526-.062.35-.104.699-.166 1.028 2.264 1.028 4.82 2.2 7.81 2.117 0-2.878.27-7.093 1.434-10.978 1.308-4.338 3.468-7.258 6.418-8.717.353-.185.706-.35 1.309-.083l.041.021-.041.02c-6.897 4.606-7.374 10.239-7.894 16.222a61.826 61.826 0 01-.29 3.33zm5.899-2.076l-.042-.062c-2.45-3.618-1.1-7.483-.062-9.478a15.182 15.182 0 013.801-4.687c1.516-1.234 3.053-1.933 4.3-1.974 1.038-.02 1.848.39 2.347 1.234l.02.02h-.04c-3.574.412-6.648.782-8.933 4.03-2.201 3.145-1.952 5.284-1.661 7.997.103.884.207 1.789.228 2.817l.042.103zm8.1-16.14h-.103c-1.247.042-2.763.741-4.28 1.954a15.104 15.104 0 00-3.8 4.667c-1.018 1.974-2.368 5.777.02 9.375a33.844 33.844 0 00-.228-2.735c-.312-2.713-.54-4.872 1.662-8.018 1.038-1.48 2.284-2.446 3.925-3.063 1.434-.534 3.054-.76 4.986-.987-.457-.801-1.226-1.192-2.181-1.192z" fill="#000"/><path fill-rule="evenodd" clip-rule="evenodd" d="M46.528 22.142l.063 1.87c-3.428 1.707-1.662 1.851-2.992 2.406.021-1.46 1.683-2.796 2.93-4.276zm.353-1.151l-2.783 3.7c-.748.946-1.163 1.768-1.309 2.488-.644 3.187 3.864 4.44 7.042 5.53 10.863 3.68 11.466 1.049 18.902-3.35 1.786-1.05 3.676-1.954 5.484-3.023 3.323-1.933 7.623-6.62 3.053-9.848 1.288 3.762-2.451 6.168-4.86 7.525-2.12 1.192-7.125 3.433-9.68 3.495l-4.071.02-.748-.267c.872-7.257.062-14.124 8.225-19.572-.581-.247-.913-.103-1.287.082-6.626 3.29-7.831 13.363-7.831 19.696-2.991.082-5.546-1.07-7.873-2.138.561-3.64 1.101-8.06 2.763-11.596 1.122-2.426 2.763-4.4 4.964-5.9.499-.33 1.62-1.028 2.16-1.234-.976-.35-3.738 1.398-4.652 2.18-4.113 3.474-6.44 11.328-5.982 15.933-1.558-.535-1.537-2.015-1.517-3.721zM56.956 31.7c.186-2.199-.748-2.035-1.496-3.576l6.584.452c-.768.452-2.492.863-2.554 1.932 1.931.782 3.863-.39 5.774-.616l-.955 1.15c-3.075 2.55-8.247 3.434-11.113 1.728 1.765-.288 2.368.164 3.76-1.07z" fill="#000"/><path d="M57.89 34.477c-2.014 0-4.528-.555-8.059-1.747-.208-.082-.436-.144-.665-.226-3.115-1.049-7-2.344-6.397-5.325.145-.76.581-1.604 1.308-2.508l2.825-3.763v.062c-.02 1.686-.062 3.146 1.475 3.721-.208-2.323.27-5.427 1.288-8.367 1.142-3.27 2.825-5.942 4.715-7.545.955-.802 3.718-2.53 4.673-2.18l.063.02-.063.021c-.54.206-1.661.905-2.16 1.234-2.18 1.5-3.8 3.413-4.964 5.9-1.496 3.208-2.077 7.093-2.597 10.527-.062.35-.103.699-.166 1.027 2.264 1.029 4.82 2.2 7.81 2.118 0-2.878.27-7.093 1.434-10.978 1.308-4.338 3.468-7.258 6.418-8.717.353-.185.706-.35 1.309-.083l.041.02-.041.022c-6.897 4.605-7.374 10.238-7.894 16.22a64.5 64.5 0 01-.332 3.331l.727.247 4.071-.02c2.576-.063 7.561-2.303 9.66-3.496 2.886-1.645 6.064-3.968 4.86-7.504l-.021-.061.062.04c1.371.967 2.056 2.16 1.994 3.496-.041 1.15-.644 2.405-1.724 3.66a13.359 13.359 0 01-3.323 2.733c-.873.514-1.787.987-2.659 1.46a95.605 95.605 0 00-2.825 1.542 70.253 70.253 0 00-3.323 2.097c-2.306 1.5-3.968 2.59-6.149 2.899a7.23 7.23 0 01-1.37.123zM46.86 21.052l-2.741 3.64c-.706.904-1.143 1.726-1.288 2.487-.602 2.96 3.261 4.256 6.356 5.284.229.082.436.143.665.226 8.994 3.042 10.905 1.788 15.558-1.255.955-.616 2.035-1.336 3.323-2.097.914-.534 1.89-1.048 2.825-1.541.872-.473 1.786-.946 2.659-1.46 2.347-1.377 4.923-3.947 5.026-6.353.063-1.316-.581-2.446-1.91-3.413.54 1.625.166 3.187-1.06 4.606-1.06 1.233-2.596 2.179-3.822 2.878-2.098 1.192-7.104 3.433-9.68 3.495l-4.07.02-.77-.267v-.02c.146-1.131.23-2.262.333-3.352.52-5.982.997-11.615 7.873-16.22-.561-.227-.894-.062-1.226.102-2.929 1.46-5.089 4.38-6.398 8.697-1.183 3.885-1.433 8.12-1.433 10.978v.02h-.02c-3.012.083-5.609-1.089-7.873-2.137h-.02v-.02c.062-.35.103-.7.165-1.05.52-3.433 1.101-7.339 2.597-10.546 1.163-2.488 2.783-4.42 4.985-5.921.478-.33 1.558-.987 2.098-1.213-.997-.247-3.635 1.398-4.57 2.2-3.988 3.35-6.439 11.163-5.982 15.912v.041l-.041-.02c-1.6-.555-1.6-2.015-1.558-3.7zm9.992 12.644c-1.433 0-2.68-.308-3.656-.884l-.042-.02h.063c.519-.083.934-.103 1.288-.145.872-.061 1.454-.082 2.43-.945.124-1.419-.229-1.83-.706-2.406a5.258 5.258 0 01-.79-1.15l-.02-.042h.041l6.668.452-.063.041a5.75 5.75 0 01-.706.33c-.79.349-1.786.78-1.828 1.562 1.288.514 2.576.144 3.843-.206.623-.164 1.267-.35 1.89-.411h.063l-.998 1.192c-1.495 1.234-3.551 2.118-5.65 2.468-.623.102-1.225.164-1.827.164zm-3.573-.884c2.783 1.624 7.914.802 11.03-1.768l.914-1.11c-.603.082-1.226.246-1.828.41-1.267.35-2.597.72-3.885.186h-.02v-.02c.041-.823 1.06-1.255 1.87-1.625.228-.103.456-.205.622-.288l-6.48-.452c.249.514.519.823.768 1.11.457.555.831.987.706 2.447-.976.863-1.578.904-2.471.966-.354.041-.748.062-1.226.144zm-9.7-6.353v-.04c.02-1.132.997-2.18 2.056-3.31.29-.33.602-.659.893-.988l.042-.04.062 1.932h-.02c-2.099 1.048-2.244 1.48-2.348 1.809-.062.206-.124.37-.644.596l-.041.041zm2.928-4.255c-.27.328-.581.637-.851.945-1.018 1.09-1.994 2.138-2.036 3.228.478-.206.52-.35.603-.555.104-.329.27-.802 2.347-1.83l-.063-1.788z" fill="#000"/><path fill-rule="evenodd" clip-rule="evenodd" d="M63.81 25.103c-.145-4.297-1.474-6.682 1.433-10.814 2.223-3.208 5.214-3.619 8.932-4.05-3.012-5.058-15.91 6.681-10.365 14.864zM59.2 5.983c1.849-.041 3.864-.864 5.588.123-1.018 1.665-5.837 3.084-5.588 5.736 1.6-.144 1.122-1.604 4.071-3.721 2.077-1.5 4.134-1.193 5.297-1.994-3.677-1.912-6.71-.761-9.368-.144zm-.52 21.566l4.072-.02c-1.018-.638-1.994-.227-2.95-1.48-.914-1.214-.664-2.18-1.121-3.331-.187 1.542-.395 3.29 0 4.831zm-1.723 4.153c-1.392 1.213-1.994.781-3.74 1.09 2.846 1.706 8.04.801 11.114-1.727l.955-1.152c-1.91.206-3.843 1.398-5.774.617.062-1.069 1.765-1.48 2.554-1.932l-6.584-.453c.727 1.542 1.662 1.357 1.475 3.557z" fill="#000"/><path d="M56.852 33.696c-1.433 0-2.68-.308-3.656-.884l-.042-.02h.063c.519-.083.934-.103 1.288-.144.872-.062 1.454-.083 2.43-.946.124-1.419-.229-1.83-.706-2.405a5.258 5.258 0 01-.79-1.152l-.02-.04h.041l6.668.451-.063.041a5.742 5.742 0 01-.706.33c-.79.349-1.786.78-1.828 1.562 1.288.514 2.576.144 3.843-.206.623-.164 1.267-.35 1.89-.41h.063l-.998 1.192c-1.495 1.233-3.551 2.117-5.65 2.467-.623.103-1.225.164-1.827.164zm-3.573-.884c2.783 1.624 7.914.802 11.03-1.768l.914-1.11c-.603.082-1.226.247-1.828.411-1.267.35-2.597.72-3.885.185h-.02v-.02c.041-.823 1.06-1.255 1.87-1.625.228-.103.456-.205.622-.288l-6.48-.452c.249.514.519.823.768 1.11.457.556.831.987.706 2.447-.976.863-1.578.904-2.471.966-.354.041-.748.062-1.226.144zm5.38-5.242c-.395-1.522-.187-3.27 0-4.79l.02-.165.042.082c.166.432.25.843.312 1.254.124.679.228 1.337.81 2.077.581.78 1.184.925 1.786 1.069.374.082.748.185 1.143.41l.062.042-4.175.02zm.041-4.79c-.187 1.52-.373 3.248 0 4.728l3.968-.02c-.353-.206-.727-.288-1.06-.37-.623-.145-1.225-.289-1.827-1.09-.582-.761-.686-1.419-.81-2.097-.063-.37-.125-.74-.27-1.152zm5.152 2.405l-.042-.062c-2.45-3.618-1.1-7.483-.062-9.478a15.18 15.18 0 013.801-4.687c1.516-1.234 3.053-1.933 4.3-1.974 1.038-.02 1.849.39 2.347 1.234l.02.02h-.04c-3.573.412-6.648.782-8.933 4.03-2.201 3.145-1.952 5.284-1.661 7.997.104.884.207 1.789.228 2.817l.042.103zm8.1-16.139h-.103c-1.246.041-2.763.74-4.28 1.953a15.103 15.103 0 00-3.8 4.667c-1.018 1.974-2.368 5.777.02 9.375a33.802 33.802 0 00-.228-2.735c-.312-2.713-.54-4.872 1.662-8.018 1.038-1.48 2.284-2.446 3.925-3.063 1.434-.534 3.054-.76 4.986-.987-.457-.801-1.226-1.192-2.181-1.192zM59.2 11.863v-.021c-.166-1.665 1.682-2.858 3.323-3.906.956-.617 1.87-1.213 2.265-1.81-1.185-.657-2.535-.472-3.843-.287-.561.082-1.163.164-1.724.185h-.208l.208-.041c.311-.083.644-.165.976-.247 2.41-.617 5.151-1.316 8.412.37l.042.02-.02.021c-.5.33-1.143.473-1.87.637-1.039.227-2.223.494-3.428 1.357-1.453 1.049-2.077 1.954-2.534 2.59-.457.659-.727 1.07-1.537 1.132H59.2zm3.573-6.25c.706 0 1.391.123 2.035.472l.021.021-.02.02c-.395.617-1.31 1.214-2.286 1.85-1.62 1.05-3.448 2.221-3.302 3.845.768-.082 1.038-.472 1.495-1.11.457-.658 1.06-1.542 2.534-2.61 1.205-.885 2.39-1.132 3.448-1.358.727-.164 1.35-.287 1.828-.616-3.22-1.645-5.94-.967-8.35-.35-.27.062-.52.123-.768.185.498-.02.997-.103 1.495-.164.644-.103 1.267-.185 1.87-.185z" fill="#000"/><path d="M10.49 60.896L4.217 54.81l-.52-24.856 7-6.414 29.122.103v1.192l-28.644-.082-6.231 5.715.477 23.808 5.567 5.407 100.493-.103 6.19-5.674.104-22.903-6.273-6.106-32.799-.062v-1.192l33.297.061 6.979 6.805v.247l-.083 23.664-6.937 6.373h-.229l-101.24.103z" fill="#fff"/><path fill-rule="evenodd" clip-rule="evenodd" d="M46.466 20.333s-.623.534-.81.637c-.25.144-1.08 1.398-1.392 1.748-.311.35-.81 1.377-1.205 1.87-.124.144-.27.987-.041 1.172.644.535 2.18.268 2.846-.082.166-.082.789-1.624.851-1.891.104-.535.374-1.419.208-1.933-.145-.411.02-.72-.312-1.254-.083-.123-.083-.308-.145-.267z" fill="#fff"/><path fill-rule="evenodd" clip-rule="evenodd" d="M58.867 4.132c.477-.102 1.37-.534 1.827-.616 4.736-.884 7.894-.33 10.843 2.097 3.137 2.59 3.635 1.87 4.798 5.53.707 2.22 1.953 5.53 1.247 6.97-5.152 10.69-30.39 11.554-31.033 2.713-.187-.431.041-1.233.374-2.22.25-.74.602-1.727.997-3.084.872-3.002 2.285-6.702 6.107-9.334 1.391-.966 2.68-1.46 4.84-2.056z" fill="#E41D2C"/><path fill-rule="evenodd" clip-rule="evenodd" d="M63.374 22.615c-2.264-7.175.56-11.924 7-14.926 2.14-1.007 3.469.082 3.884.905-7.872.657-12.4 4.851-10.656 13.939.104.493-.187.246-.228.082z" fill="#000"/><path fill-rule="evenodd" clip-rule="evenodd" d="M46.674 19.449c-.208.925-.104 1.768.27 2.508.934 1.768 1.142.473 1.35-.884.124-.822.27-1.645.415-2.426 1.06-5.469 3.116-10.629 8.849-13.569.436-.247.872.185.54.35-6.688 3.33-8.1 9.498-8.932 16.447-.228 1.912-.104 2.282 1.08 2.816 1.06.473 2.347.761 3.677 1.07 2.243.513 2.513.698 2.742-1.892.062-.678.124-1.336.208-1.994.81-6.929 2.804-12.377 7.872-14.988.665-.308 1.038.206.665.35-4.632 2.487-6.273 7.072-7 13.137-.146 1.151-.312 2.261-.333 3.536-.02 1.275-.436 2.405 2.036 2.22 1.392-.102 2.783-.226 4.133-.493 6.086-1.192 11.01-4.173 12.692-7.38.581-1.11.623-2.303.498-3.372 2.742 2.857 2.368 5.242-.914 8.12-2.18 1.913-5.899 3.413-8.661 5.449-4.362 3.207-8.558 5.263-11.799 4.481-8.329-1.994-13.937-3.371-13.501-7.236.166-1.337 3.365-5.243 4.113-6.25z" fill="#fff"/><path fill-rule="evenodd" clip-rule="evenodd" d="M43.412 24.897c.79-1.583 1.724-2.776 2.68-4.05-.145.699-.145 1.171.312 1.87-.998.042-1.995 1.049-2.992 2.18zm10.822 6.846c3.51-1.11 3.282-3.639 1.31-4.564 2.326.411 4.257.164 5.96-.452-4.258 1.562-3.136 4.4 3.179 2.878-2.846 1.562-6.668 3.31-10.449 2.138zM59.78 4.585c-.166.205 2.555-.494 4.259-.206.623.103 1.08.329.664.637-1.35 1.07-3.178 1.625-4.445 3.31-.581.782-.54 1.378-.02.864 2.824-2.837 5.504-3.454 7.082-4.153.54-.247.458-.473-.228-.74-2.887-1.11-6.834 0-7.311.288zm61.609 18.605v-4.152h1.558l.519.534v1.254l-.332.309.332.287v1.769h-.852v-1.727h-.353v1.727h-.872zm.872-2.405h.353v-1.069h-.353v1.07zm2.783.35c0 .822-.27 1.5-.768 2.014-.519.514-1.122.782-1.849.782-.747 0-1.371-.268-1.869-.782-.499-.514-.748-1.192-.748-2.014 0-.823.249-1.501.748-1.995.519-.514 1.122-.78 1.869-.78.727 0 1.35.267 1.849.78.519.535.768 1.193.768 1.995zm.956 0c0-1.11-.353-1.995-1.059-2.652-.686-.638-1.517-.946-2.514-.946-1.018 0-1.869.308-2.555.946-.747.699-1.121 1.562-1.121 2.652 0 1.11.374 1.994 1.121 2.672.707.638 1.558.967 2.555.967 1.018 0 1.849-.33 2.514-.967.706-.657 1.059-1.562 1.059-2.672z" fill="#000"/></svg>