<svg width="70" height="78" fill="none" xmlns="http://www.w3.org/2000/svg"><path fill-rule="evenodd" clip-rule="evenodd" d="M10.49 55.81c2.652 2.83 4.158 4.436 6.778 6.549h10.768l6.643 6.643 6.643-6.643h11.41c2.62-2.113 4.126-3.72 6.778-6.549.973-1.037 2.099-2.238 3.49-3.688V17.237C58.419 13.142 56.339 11.227 51.758 7H18.241c-4.58 4.226-6.66 6.142-11.242 10.237v34.885c1.391 1.45 2.517 2.651 3.49 3.688z" fill="#E11D2B"/><path d="M42.892 33.928h-7.364v4.75h1.275v4.78h-2.518v-19.06h2.518v7.17h6.121v-8.304l-3.73-3.585h-7.332l-3.73 3.585v21.358l3.73 3.586h7.332l3.698-3.586V33.928z" fill="#fff" stroke="#E41D2C"/><mask id="a" fill="#fff"><path fill-rule="evenodd" clip-rule="evenodd" d="M0 56.412a523.802 523.802 0 014.362 4.611c3.315 3.537 5.198 5.546 8.473 8.187H25.92l8.186 8.186 8.185-8.186h14.875c3.275-2.641 5.158-4.65 8.473-8.186a510.128 510.128 0 014.362-4.612V12.798C64.273 7.68 61.673 5.283 55.947 0H14.053C8.327 5.283 5.727 7.68 0 12.799v43.613z"/></mask><path d="M4.362 61.023l1.46-1.367-1.46 1.367zM0 56.413h-2v.804l.557.58L0 56.412zM12.835 69.21l-1.255 1.557.55.444h.705v-2zm13.084 0l1.415-1.414-.586-.586h-.829v2zm8.186 8.186L32.69 78.81l1.415 1.414 1.414-1.414-1.414-1.414zm8.185-8.186v-2h-.829l-.585.586 1.414 1.414zm14.875 0v2h.706l.55-.443-1.256-1.556zm8.473-8.186l-1.414-1.415-.023.023-.022.024 1.459 1.367zm0 0l1.414 1.414.023-.023.022-.024-1.459-1.367zM70 56.411l1.443 1.384.557-.58v-.804h-2zm0-43.614h2v-.894l-.667-.597L70 12.8zM55.947 0l1.356-1.47-.575-.53h-.781v2zM14.053 0v-2h-.782l-.574.53L14.053 0zM0 12.799l-1.333-1.492-.667.597v.895h2zm5.821 46.857a508.207 508.207 0 00-4.378-4.628l-2.886 2.768a524.082 524.082 0 014.346 4.595l2.918-2.735zm8.27 7.998c-3.155-2.545-4.953-4.46-8.27-7.998L2.903 62.39c3.313 3.535 5.281 5.638 8.677 8.376l2.511-3.113zm11.828-.444H12.835v4H25.92v-4zm9.6 8.772l-8.185-8.186-2.829 2.829 8.185 8.185 2.829-2.829zm5.357-8.186l-8.186 8.185 2.829 2.829 8.185-8.185-2.828-2.829zm16.289-.586H42.29v4h14.875v-4zm7.014-7.554c-3.317 3.538-5.115 5.453-8.27 7.998l2.511 3.113c3.396-2.738 5.364-4.84 8.677-8.376l-2.918-2.735zm.045-.047l2.828 2.829-2.828-2.829zm4.333-4.581a508.207 508.207 0 00-4.378 4.628l2.918 2.735a524.954 524.954 0 014.346-4.595l-2.886-2.768zM68 12.798v43.614h4V12.798h-4zM54.59 1.47c5.73 5.286 8.339 7.69 14.077 12.82l2.666-2.982c-5.715-5.11-8.306-7.497-14.03-12.778l-2.712 2.94zM35.402 2h20.546v-4H35.4v4zM34.6 2h.802v-4H34.6v4zM14.053 2H34.6v-4H14.053v4zM1.333 14.29C7.071 9.16 9.68 6.756 15.409 1.47l-2.712-2.94C6.973 3.811 4.382 6.2-1.333 11.307l2.666 2.983zM2 56.412V12.798h-4v43.614h4z" fill="#E11D2B" mask="url(#a)"/></svg>