<svg width="51" height="50" fill="none" xmlns="http://www.w3.org/2000/svg"><path fill-rule="evenodd" clip-rule="evenodd" d="M7.521 40.268A303.215 303.215 0 005 37.603V12.397C8.31 9.438 9.813 8.054 13.123 5H37.34c3.31 3.054 4.813 4.438 8.123 7.397v25.206c-1.005 1.048-1.818 1.916-2.52 2.665-1.917 2.044-3.006 3.205-4.899 4.732H12.42c-1.894-1.527-2.982-2.688-4.899-4.732z" fill="#E41D2C"/><mask id="a" fill="#fff"><path fill-rule="evenodd" clip-rule="evenodd" d="M3.152 44.085A378.168 378.168 0 000 40.754V9.246C4.138 5.548 6.016 3.817 10.154 0h30.271c4.138 3.817 6.017 5.548 10.154 9.246v31.508a377.796 377.796 0 00-3.151 3.331c-2.396 2.555-3.756 4.007-6.123 5.915H9.274c-2.366-1.908-3.727-3.36-6.122-5.915z"/></mask><path d="M0 40.754h-2v.804l.557.58L0 40.754zm3.152 3.331l1.459-1.367-1.46 1.367zM0 9.246l-1.333-1.491L-2 8.35v.895h2zM10.154 0v-2h-.781l-.575.53L10.154 0zm30.271 0l1.356-1.47-.574-.53h-.782v2zM50.58 9.246h2v-.895l-.667-.596-1.333 1.491zm0 31.508l1.444 1.384.556-.58v-.804h-2zm-3.151 3.331l1.459 1.368-1.46-1.368zM41.305 50v2h.706l.55-.443L41.304 50zm-32.03 0l-1.256 1.557.55.443h.705v-2zm-10.718-7.862a377.052 377.052 0 013.136 3.315l2.918-2.736a380.683 380.683 0 00-3.168-3.348l-2.886 2.77zM-2 9.246v31.508h4V9.246h-4zM8.798-1.47C4.663 2.345 2.793 4.067-1.332 7.755l2.665 2.982C5.483 7.028 7.37 5.29 11.51 1.47L8.798-1.47zM25-2H10.154v4H25v-4zm0 4h.58v-4H25v4zm.58 0h14.845v-4H25.58v4zm13.49-.53c4.14 3.82 6.027 5.558 10.177 9.267l2.665-2.982c-4.126-3.688-5.995-5.41-10.13-9.225l-2.713 2.94zm9.51 7.776v31.508h4V9.246h-4zm.556 30.123a380.44 380.44 0 00-3.167 3.349l2.918 2.735c.878-.936 1.888-2.014 3.136-3.315l-2.887-2.769zm-3.167 3.349c-2.397 2.556-3.673 3.914-5.92 5.725l2.511 3.114c2.487-2.006 3.933-3.55 6.327-6.104l-2.918-2.736zM41.305 48H25.58v4h15.726v-4zM25.58 48H25v4h.58v-4zM9.274 52H25v-4H9.274v4zm-7.581-6.547c2.393 2.553 3.839 4.098 6.326 6.104l2.51-3.114c-2.245-1.811-3.521-3.169-5.918-5.725l-2.918 2.735z" fill="#E41D2C" mask="url(#a)"/></svg>