<svg width="97" height="86" fill="none" xmlns="http://www.w3.org/2000/svg"><g clip-path="url(#clip0)"><path d="M35.706 86c-1.234 0-2.468-.247-3.373-.74L1.645 69.622C.247 68.965 0 68.142 0 67.648v-2.634c0-.164.082-.329.165-.411a.628.628 0 01.41-.165c.33 0 .577.247.577.576 0 .33.329.741.987 1.07l30.688 15.637c.74.411 1.81.576 2.88.576 1.07 0 2.139-.247 2.797-.576L94.86 53.493c.576-.33.987-.659.987-1.07 0-.33.247-.576.576-.576.33 0 .576.247.576.576v2.469c0 .494-.165 1.399-1.563 2.14L39.08 85.259c-.905.494-2.14.741-3.373.741zM1.152 67.483c0 .083 0 .083 0 0 0 .412.329.823.987 1.152l30.688 15.637c.74.411 1.81.576 2.88.576 1.07 0 2.139-.247 2.797-.576l56.357-28.31c.576-.33.987-.74.987-1.07v-.659c-.164.083-.247.165-.411.247L39.08 82.708c-.905.494-2.057.74-3.373.74-1.235 0-2.469-.246-3.374-.74L1.645 67.072c-.164-.082-.329-.165-.41-.247v.658h-.083z" fill="#262626"/><path d="M35.706 83.449c-1.234 0-2.468-.247-3.373-.74L1.645 67.071C.165 66.413 0 65.508 0 65.014c0-.823.576-1.481 1.563-2.057l32.58-16.13c.247-.165.658 0 .74.247.165.247 0 .658-.246.74L2.139 64.027c-.576.329-.987.658-.987 1.07 0 .329.329.74.987 1.07l30.688 15.636c1.563.823 4.114.823 5.677 0l56.357-28.31c.576-.33.987-.659.987-1.07 0-.33-.329-.74-.987-1.07L70.426 39.091c-.247-.165-.412-.494-.247-.74.165-.248.494-.412.74-.248l24.436 12.263c1.398.74 1.645 1.645 1.563 2.14 0 .822-.576 1.48-1.564 2.057L38.998 82.79c-.906.412-2.14.659-3.291.659zm5.924-5.925c-.082 0-.164 0-.247-.083L12.26 62.628c-.247-.165-.412-.494-.247-.74.164-.248.493-.412.74-.248l28.795 14.65 46.567-23.372c.246-.165.658 0 .74.247.164.246 0 .658-.247.74L41.877 77.441c-.082 0-.165.082-.247.082zM22.05 73.49c-.412 0-.741-.082-1.07-.247l-2.304-1.152c-.494-.247-.576-.576-.576-.74 0-.165.082-.495.576-.742l2.304-1.152c.576-.329 1.563-.329 2.139 0l2.303 1.153c.494.246.576.576.576.74 0 .165-.082.494-.576.74l-2.303 1.153c-.247.165-.658.247-1.07.247zm-2.305-2.14l1.81.906c.247.164.906.164 1.152 0l1.728-.906-1.728-.905c-.082-.082-.329-.082-.576-.082-.246 0-.493.082-.575.082l-1.81.905z" fill="#262626"/><path d="M45.662 60.982c-.083 0-.247 0-.33-.082-.246-.083-.493-.247-.658-.741-.082-.33 0-.659.33-.74.329-.083.658 0 .74.328l2.797-1.234s.082 0 .082-.082l.083-.083 3.537-5.267a.536.536 0 01.74-.164l9.874 4.938c.329.164.74.246.987.164.082 0 .082 0 .082-.082h.082l2.88-1.646s.082 0 .082-.082c.247-.165.412-.494.412-.988 0-.33.246-.576.576-.576.329 0 .576.247.576.576 0 .905-.33 1.564-.988 1.975 0 0-.082 0-.082.082l-2.962 1.646c-.082.083-.164.083-.247.083h-.082c-.082 0-.165.082-.247.082-.411.082-.987.165-1.727-.247l-9.462-4.69-3.29 4.855c-.165.247-.33.411-.495.493h-.082l-2.797 1.4h-.082c-.165.082-.247.082-.33.082z" fill="#262626"/><path d="M41.63 77.524c-.082 0-.164 0-.247-.083L12.26 62.628c-.165-.082-.33-.33-.33-.494 0-.247.165-.411.33-.494l25.587-12.756c.246-.164.658 0 .74.247.165.247 0 .659-.247.74L13.822 62.135 41.63 76.29l45.497-22.796-16.372-8.23c-.247-.164-.411-.493-.247-.74.165-.247.494-.412.74-.247L88.608 53c.165.082.33.33.33.494 0 .164-.083.411-.33.494L41.877 77.44c-.082 0-.165.083-.247.083z" fill="#262626"/><path d="M22.05 73.49c-.248 0-.659 0-1.07-.246l-2.304-1.152c-.494-.247-.576-.576-.576-.74 0-.166.082-.495.576-.742l2.304-1.152c.576-.329 1.563-.329 2.139 0l2.303 1.153c.494.246.576.575.576.74 0 .165-.082.494-.576.74l-2.303 1.153c-.33.165-.823.247-1.07.247zm-2.304-2.139l1.81.905c.082.083.329.083.575.083.247 0 .494-.083.576-.083l1.728-.905-1.728-.905c-.082-.082-.329-.082-.576-.082-.246 0-.493.082-.575.082l-1.81.905z" fill="#E41D2C"/><path d="M64.09 59.171c-.082 0-.164 0-.246-.082-.165-.082-.247-.247-.33-.411-.082-.247.083-.577.33-.659h.082c.247-.164.658 0 .74.247.165.247.083.658-.246.74l-.082.083c-.083.082-.165.082-.247.082zm-18.264 1.811a.628.628 0 01-.411-.165c-.165-.246-.165-.493-.082-.74l.246-.247.083-.082 5.018-7.407a.536.536 0 01.74-.165l1.646.823c.165.082.247.247.33.33.081.164 0 .328-.083.493l-3.538 5.267c-.164.247-.329.412-.493.494h-.083L46.073 60.9c-.082 0-.165.082-.247.082zm5.512-7.571l-3.784 5.514.987-.412s.082 0 .082-.082l.083-.082 3.208-4.691-.576-.247z" fill="#262626"/><path d="M64.338 59.007c-.165 0-.412-.083-.494-.247a.536.536 0 01.164-.74c.247-.165.412-.495.412-.988v-33.66c0-1.234-.905-2.715-1.975-3.21L28.22 3.046c-.412-.247-.823-.247-1.07-.082a.703.703 0 01-.576 0c-.164-.083-.247-.33-.247-.494 0-.165.083-.412.33-.494l2.96-1.729s.083 0 .083-.082c.658-.33 1.316-.247 2.056.082L65.9 17.365c1.48.74 2.633 2.633 2.633 4.28v33.658c0 .906-.33 1.564-.988 1.976 0 0-.082 0-.082.082l-2.962 1.646h-.164zM28.796 2.057l34.143 17.036c1.48.74 2.633 2.633 2.633 4.28v33.741l1.398-.74s.083 0 .083-.083c.246-.165.41-.494.41-.988V21.644c0-1.234-.904-2.716-1.974-3.21L31.264 1.317c-.412-.165-.74-.247-1.07-.083l-1.398.823z" fill="#262626"/><path d="M45.662 60.982c-.412 0-.823-.33-.988-.823l-5.183-12.591-11.271-5.679c-1.481-.74-2.633-2.633-2.633-4.28V3.95c0-.905.329-1.646.987-1.975.576-.329 1.399-.329 2.14.083l34.143 17.117c1.48.74 2.632 2.634 2.632 4.28v33.659c0 .823-.329 1.564-.905 1.893-.082.082-.164.082-.246.164-.083 0-.083.083-.165.083-.576.247-1.234.164-1.892-.165l-11.025-5.514-4.69 6.995c-.164.247-.329.33-.493.494-.082-.082-.247-.082-.411-.082zm-18.1-58.101c-.165 0-.247 0-.412.082-.247.164-.411.494-.411.987v33.66c0 1.234.905 2.715 1.974 3.21l11.518 5.76c.165.082.247.165.247.33l5.184 12.838 4.936-7.325a.536.536 0 01.74-.165l11.519 5.761c.329.165.74.247.987.165h.082s.082 0 .082-.082c.247-.165.412-.494.412-.988V23.372c0-1.234-.905-2.715-1.975-3.21L28.22 3.046c-.247-.082-.494-.164-.659-.164zm24.6 42.465s-.083 0 0 0l-2.88-.165c-.083 0-1.893-.165-3.95-2.387-1.07-1.152-2.797-3.291-4.525-6.583-.987-1.893-1.892-3.868-2.632-6.008l-.083-.33c-1.07-2.962-1.727-5.678-1.974-7.982-.165-1.728-.082-3.292.247-4.444.576-2.222 2.468-2.222 2.632-2.222l2.798.165c.905.082 1.48 1.07 1.563 1.316v.083l2.139 5.925c.165.494.33 1.152 0 1.646-.164.247-.411.33-.74.33h-.083l-1.974-.166h-.74c-.412 0-.494.083-.577.083 0 0-.082.082 0 .247 0 .247.083.576.247.987l.411 1.07a70.34 70.34 0 001.4 3.786l.081.164c.247.741.576 1.564.906 2.305.082.082.082.247.164.411.247.659.905 2.222 1.48 2.305 0 0 .33 0 3.292.246.164 0 1.07.083 1.563 1.729l2.14 5.925v.082c0 .165.164.823-.165 1.235-.165.082-.412.247-.74.247zM38.996 16.213c-.164 0-1.151.082-1.563 1.399-.164.74-.411 1.975-.164 4.032.246 2.222.822 4.856 1.892 7.736l.082.33c.74 2.139 1.646 4.114 2.55 5.925 1.729 3.21 3.292 5.184 4.361 6.336 1.728 1.811 3.209 2.058 3.209 2.058l2.633.164v-.164l-2.14-5.926c-.246-.658-.493-.905-.575-.987-.083 0-.494 0-1.646-.082l-1.645-.083c-1.399-.082-2.057-1.892-2.468-3.045-.083-.164-.083-.246-.165-.411-.33-.823-.658-1.564-.905-2.387l-.082-.164c-.494-1.235-.905-2.552-1.399-3.786l-.411-1.07c-.165-.494-.247-.987-.33-1.317 0-.493.083-.823.33-1.07.411-.41.905-.41 1.398-.41h.823l1.728.081c0-.082-.082-.247-.165-.493l-2.139-5.926c0-.164-.247-.494-.411-.494l-2.798-.246z" fill="#262626"/><path d="M52.161 45.345s-.082 0 0 0l-2.88-.164c-.082 0-1.892-.165-3.948-2.387-1.07-1.152-2.798-3.292-4.526-6.583-.987-1.893-1.892-3.868-2.632-6.008l-.082-.33c-1.07-2.962-1.728-5.678-1.975-7.982-.165-1.728-.082-3.292.247-4.444.576-2.222 2.468-2.222 2.633-2.222h.082l2.797.164c.905.083 1.481 1.07 1.563 1.317v.082l2.14 5.926c.164.494.328 1.152 0 1.646-.165.247-.412.329-.741.329h-.082l-1.975-.165h-.74c-.412 0-.494.083-.576.083 0 0-.083.082 0 .247 0 .247.082.576.246.987l.412 1.07a70.336 70.336 0 001.398 3.786l.083.164c.247.74.576 1.564.905 2.305.082.082.082.246.164.411.247.658.905 2.222 1.481 2.304 0 0 .247 0 3.291.247.165 0 1.07.083 1.563 1.728l2.14 5.926v.082c0 .165.164.823-.165 1.235-.247.082-.494.246-.823.246zm0-1.152v.576-.576zm-13.163-27.98c-.083 0-1.152 0-1.564 1.398-.164.741-.411 1.976-.164 4.033.247 2.222.822 4.856 1.892 7.736l.082.33c.74 2.139 1.646 4.114 2.55 5.924 1.729 3.21 3.292 5.185 4.361 6.337 1.728 1.81 3.209 2.058 3.209 2.058l2.633.164v-.164l-2.14-5.926c-.246-.658-.493-.905-.575-.987-.083 0-.494 0-1.646-.083l-1.645-.082c-1.399-.082-2.057-1.893-2.468-3.045-.083-.164-.083-.247-.165-.411-.33-.823-.658-1.564-.905-2.387l-.082-.165c-.494-1.234-.905-2.55-1.399-3.785l-.411-1.07c-.165-.494-.247-.988-.33-1.317 0-.494.083-.823.33-1.07.411-.411.905-.411 1.398-.411h.823l1.728.082c0-.082-.082-.247-.165-.494l-2.139-5.925c0-.165-.247-.494-.411-.494l-2.797-.247z" fill="#E41D2C"/></g><defs><clipPath id="clip0"><path fill="#fff" d="M0 0h97v86H0z"/></clipPath></defs></svg>