<svg width="16" height="16" fill="none" xmlns="http://www.w3.org/2000/svg"><path d="M8 12.61a.781.781 0 100-1.563.781.781 0 000 1.562z" fill="#E41D2C"/><path d="M8 0C3.578 0 0 3.578 0 8c0 4.422 3.578 8 8 8 4.422 0 8-3.578 8-8 0-4.422-3.578-8-8-8zm0 14.75A6.746 6.746 0 011.25 8 6.746 6.746 0 018 1.25 6.746 6.746 0 0114.75 8 6.746 6.746 0 018 14.75z" fill="#E41D2C"/><path d="M8 4.016a2.503 2.503 0 00-2.5 2.5c0 .343.281.625.625.625a.627.627 0 00.625-.625A1.25 1.25 0 118 7.766a.627.627 0 00-.625.625v1.562c0 .344.281.625.625.625a.627.627 0 00.625-.625V8.938A2.505 2.505 0 0010.5 6.515c0-1.378-1.122-2.5-2.5-2.5z" fill="#E41D2C"/></svg>