<svg width="22" height="23" fill="none" xmlns="http://www.w3.org/2000/svg"><g clip-path="url(#clip0)" fill-rule="evenodd" clip-rule="evenodd" fill="#E41D2C"><path d="M11 1.836c-1.945 0-3.81.773-5.185 2.15a7.347 7.347 0 00-2.148 5.192c0 2.843 1.848 5.602 3.874 7.744a26.998 26.998 0 003.46 3.06 26.992 26.992 0 003.46-3.061c2.025-2.14 3.873-4.9 3.873-7.743a7.347 7.347 0 00-2.148-5.192A7.329 7.329 0 0011 1.836zm0 19.274l-.509.763-.002-.002-.007-.004-.02-.014a26.086 26.086 0 01-1.321-.986 28.809 28.809 0 01-2.931-2.683c-2.1-2.218-4.377-5.425-4.377-9.006 0-2.434.966-4.769 2.685-6.49a9.16 9.16 0 0112.964 0 9.184 9.184 0 012.685 6.49c0 3.581-2.277 6.788-4.376 9.006a28.798 28.798 0 01-3.9 3.42 17.903 17.903 0 01-.352.249l-.021.014-.006.004-.002.001s-.001.001-.51-.762zm0 0l.509.763a.917.917 0 01-1.018 0l.51-.764z"/><path d="M11 7.342a1.834 1.834 0 00-1.833 1.836A1.835 1.835 0 1011 7.342zM7.333 9.178A3.669 3.669 0 0111 5.507a3.669 3.669 0 013.667 3.671A3.669 3.669 0 0111 12.85a3.669 3.669 0 01-3.667-3.67z"/></g><defs><clipPath id="clip0"><path fill="#fff" d="M0 0h22v22.027H0z"/></clipPath></defs></svg>