<svg xmlns="http://www.w3.org/2000/svg" xmlns:xlink="http://www.w3.org/1999/xlink" width="112" height="308" viewBox="0 0 112 308"><svg width="112" height="24" viewBox="0 0 112 24" fill="none" id="cm_logo" y="0"><g clip-path="url(#a)" fill="#E41D2C"><path d="M15.336 23.059l.755-1.386v1.386h-.755zM16.09 13.755v1.385l-.754-1.386h.755zM9.995 20.727c.242-.243.468-.486.677-.728a9.437 9.437 0 0 0 1.05-1.592 8.351 8.351 0 0 1-.728-1.66 7.396 7.396 0 0 1-.201-.857 6.104 6.104 0 0 1-.097-.85 6.43 6.43 0 0 1 .082-1.416c.08.03.16.052.243.067a.244.244 0 0 0 .082.02 6.662 6.662 0 0 0 .403 2.368c.403.78.84 1.551 1.257 2.328-.427.774-.835 1.553-1.279 2.324-.301.39-.626.76-.973 1.11-.366.359-.755.695-1.164 1.004-.148-.022-.293-.06-.441-.097a10.608 10.608 0 0 1-1.213-.354 10.314 10.314 0 0 0 1.526-.988c.273-.21.532-.436.776-.68z"></path><path d="M11.45 22.622a.855.855 0 0 0 .063-.073l.04-.07.317-.583.633-1.162 1.269-2.327-1.269-2.328-.633-1.162-.318-.582-.039-.07c0-.027-.012-.052-.02-.076l-.028-.15a6.103 6.103 0 0 1-.046-.294h.842l2.537 4.662-2.537 4.647h-1.209l.27-.28.128-.152z"></path><path d="M13.287 23.059l2.535-4.652-2.535-4.652h1.023l1.781 3.266v2.771l-1.78 3.267h-1.024zM7.826 17.33a7.187 7.187 0 0 1 1.897-4.485c.069.09.143.178.223.26a7.168 7.168 0 0 0-1.213 4.714 9.508 9.508 0 0 1-5.375 1.862 12.13 12.13 0 0 1-1.114-1.306 9.49 9.49 0 0 0 5.582-1.046z"></path><path d="M10.189 13.315a.652.652 0 0 0 .136.095c.05.024.092.063.14.085a6.859 6.859 0 0 0-.31 2.51c.02.29.056.58.109.868.044.25.103.499.177.743.073.242.158.485.255.728-.153.208-.316.417-.486.623-.175.21-.363.408-.562.595-.243.22-.486.437-.755.648a10.417 10.417 0 0 1-2.783 1.492c-.254-.133-.484-.286-.742-.434a7.012 7.012 0 0 1-.706-.486 9.46 9.46 0 0 0 5.041-2.625 7.137 7.137 0 0 1 .486-4.842zM2.375 15.917a8.923 8.923 0 0 0 3.908.075A7.346 7.346 0 0 1 8.26 13.08c.177-.157.362-.305.554-.444.198-.138.4-.264.601-.378a.9.9 0 0 1 .046.119c.012.038.04.07.054.106.014.037.024.054.036.08a7.15 7.15 0 0 0-2.545 4.155 9.458 9.458 0 0 1-5.681.206l-.2-.405c-.089-.192-.186-.381-.264-.577l-.223-.595c.291.121.578.243.864.33.286.087.584.172.873.24zM4.76 10.243a7.329 7.329 0 0 1 3.5-.271c.243.04.464.092.692.155.228.063.456.145.674.242-.02.036-.043.07-.068.102-.02.037-.031.076-.05.112-.02.036-.025.051-.04.075a7.086 7.086 0 0 0-4.82.602A9.415 9.415 0 0 1 .932 6.95l.194-.398c.092-.189.182-.38.284-.565l.327-.546c.085.303.177.597.28.878.101.282.242.568.358.835a8.978 8.978 0 0 0 2.385 3.09z"></path><path d="M4.677 12.284a7.15 7.15 0 0 1 4.69-1.325c-.029.106-.05.213-.066.32a7.226 7.226 0 0 0-4.432 2.012 9.564 9.564 0 0 1-4.816-3.02c.067-.574.174-1.142.32-1.7a9.481 9.481 0 0 0 4.304 3.713z"></path><path d="M9.294 11.62v.167c.011.054.02.11.024.165a6.82 6.82 0 0 0-2.763 1.941 7.313 7.313 0 0 0-.883 1.262c-.262.015-.531.02-.806 0-.274-.02-.533-.039-.807-.073a9.854 9.854 0 0 1-3.882-1.42c-.048-.283-.09-.567-.128-.851-.04-.284-.032-.546-.049-.832a9.46 9.46 0 0 0 5.199 2.28 7.17 7.17 0 0 1 4.095-2.64zM6.647 6.669a7.15 7.15 0 0 1 3.966 2.827.85.85 0 0 1-.15.07c-.046.027-.09.063-.141.088a7.163 7.163 0 0 0-4.34-2.204 9.52 9.52 0 0 1-.645-5.647c.242-.148.485-.3.74-.437.254-.136.514-.242.773-.376a9.453 9.453 0 0 0-.203 5.679z"></path><path d="M10.055 9.853c-.038.041-.082.075-.123.111-.042.037-.073.088-.112.127a6.927 6.927 0 0 0-3.256-.935h-.766c-.252 0-.51.049-.772.09a9.352 9.352 0 0 1-.509-.619 8.226 8.226 0 0 1-.449-.68 9.874 9.874 0 0 1-1.32-3.909c.19-.213.381-.424.578-.633.196-.209.417-.39.628-.582a9.52 9.52 0 0 0 1.48 5.484 7.175 7.175 0 0 1 4.621 1.546zM16.09 3.266v2.772l-.754-1.386.755-1.386zM9.218 1.653a11.21 11.21 0 0 0-.402.948 9.64 9.64 0 0 0-.284.971 8.54 8.54 0 0 0-.243 1.89A7.638 7.638 0 0 1 10.23 7.3c.167.233.321.476.46.728.117.208.221.424.312.645.092.216.173.438.242.663l-.121.019c-.04 0-.08.009-.117.024l-.09.012a7.08 7.08 0 0 0-3.493-3.397A9.436 9.436 0 0 1 8.464.412l.439-.111c.205-.053.413-.095.624-.124l.628-.092c-.182.257-.352.517-.51.776-.156.256-.299.52-.427.792z"></path><path d="M13.287 4.652L15.822 0h.27v1.386L14.31 4.652l1.78 3.266v1.386h-.27l-2.534-4.652z"></path><path d="M14.798 9.304h-1.026l-2.538-4.637c.847-1.58 1.691-3.109 2.538-4.667h1.026l-2.537 4.652 2.537 4.652z"></path><path d="M10.735 3.528a9.07 9.07 0 0 0-.517 1.25c.27.336.513.692.728 1.066.206.364.384.744.533 1.135.408.787.85 1.551 1.267 2.325h-1.024c-.073-.136-.155-.272-.218-.408-.063-.135-.061-.264-.102-.402a6.83 6.83 0 0 0-.658-1.573 6.56 6.56 0 0 0-.485-.74 7.614 7.614 0 0 0-1.036-1.138 8.127 8.127 0 0 1 .413-1.563c.11-.311.241-.614.393-.908.152-.307.32-.605.502-.895a17.504 17.504 0 0 1 .973-1.27c.119-.14.14-.271.218-.407h1.024c-.427.777-.835 1.548-1.279 2.327-.27.385-.514.786-.732 1.201zM62.77 13.07a1.228 1.228 0 0 1-1.225 1.214h-2.078a1.227 1.227 0 0 1-1.228-1.214V7.686h-1.247v5.384a2.3 2.3 0 0 0 2.297 2.299h2.426a2.302 2.302 0 0 0 2.3-2.299V7.686h-1.25l.006 5.384zM38.67 13.07V7.686h-1.25v5.384a2.303 2.303 0 0 0 2.3 2.299h3.461v-1.073h-3.287a1.228 1.228 0 0 1-1.225-1.226zM99.143 13.07V7.686h-1.25v5.384a2.303 2.303 0 0 0 2.298 2.299h3.459v-1.073h-3.282a1.227 1.227 0 0 1-1.225-1.226zM108.715 14.296a1.227 1.227 0 0 1-1.225-1.213V7.686h-1.249v5.384a2.302 2.302 0 0 0 2.3 2.299H112v-1.073h-3.285zM87.285 7.48a1.322 1.322 0 0 0-1.279.832v.014l-.844 2.546-.774 2.35a.066.066 0 0 1-.068.043.063.063 0 0 1-.065-.044l-.776-2.349-.84-2.546v-.014a1.32 1.32 0 0 0-1.276-.833c-.691 0-1.434.413-1.434 1.325v6.565h1.247V8.817c0-.168.056-.243.16-.243h.063l.015.012a.237.237 0 0 1 .039.058.295.295 0 0 1 .02.04l.014.028.053.165 1.73 5.118a1.136 1.136 0 0 0 1.055.62 1.14 1.14 0 0 0 1.058-.62l1.73-5.118.053-.165a.142.142 0 0 0 0-.029l.02-.039a.237.237 0 0 1 .021-.036l.017-.022.015-.012h.063c.106 0 .16.085.16.243v6.552h1.25V8.817c.007-.925-.738-1.338-1.427-1.338zM93.927 7.686h-1.25v7.685h1.25V7.686zM53.094 10.263v-.117a2.837 2.837 0 0 0-.095-.82 2.293 2.293 0 0 0-2.203-1.64h-2.668a2.32 2.32 0 0 0-1.674.728c-.626.665-.626 1.456-.626 2.232v2.313a2.337 2.337 0 0 0 1.786 2.351c.262.051.53.07.798.059h1.996a2.87 2.87 0 0 0 1.686-.41 2.33 2.33 0 0 0 .983-1.634c.017-.185.023-.372.017-.558v-2.504zm-6.017.878V9.996a1.252 1.252 0 0 1 1.235-1.235h2.009c.227-.016.456.005.677.063.109.037.212.088.308.153l-4.214 4.215a3.398 3.398 0 0 1-.012-.357V11.72c.002-.192 0-.386-.002-.578zm4.78 1.165c.019.57.04 1.213-.325 1.582-.381.415-.879.413-1.456.408h-1.528c-.19.011-.38-.003-.566-.044a1.275 1.275 0 0 1-.3-.133l4.165-4.17v1.98c0 .122.005.248.01.377zM31.556 7.688h-2.47a2.3 2.3 0 0 0-2.297 2.298v3.084a2.303 2.303 0 0 0 2.298 2.303h4.766v-1.077h-4.59a1.227 1.227 0 0 1-1.227-1.214V9.986a1.228 1.228 0 0 1 1.228-1.214h2.115a1.227 1.227 0 0 1 1.228 1.214v.776h1.246v-.776a2.3 2.3 0 0 0-2.297-2.298zM75.308 9.981c0-.085 0-.167-.012-.242a.128.128 0 0 1 0-.032 2.155 2.155 0 0 0-.039-.218.045.045 0 0 0 0-.02 1.66 1.66 0 0 0-.063-.22v-.032l-.049-.129-.012-.029-.021-.041V9a2.646 2.646 0 0 0-.11-.202l-.055-.082a2.203 2.203 0 0 0-.146-.2l-.039-.043a1.369 1.369 0 0 0-.114-.124l-.07-.063-.051-.043a2.28 2.28 0 0 0-.497-.326l-.049-.021a2.39 2.39 0 0 0-.58-.175h-.055a2.595 2.595 0 0 0-.309-.022h-5.812v1.073h.944v6.596h4.851c.104-.001.207-.01.309-.025h.055c.2-.03.396-.09.58-.174l.049-.022c.178-.086.345-.195.497-.323l.05-.046c.025-.022.05-.039.071-.06.022-.023.078-.083.114-.125.037-.04.027-.031.039-.046.053-.062.101-.128.146-.196l.055-.085c.04-.066.076-.131.11-.2v-.019l.021-.04.013-.03c.016-.041.031-.085.048-.126.017-.041 0-.022 0-.032.026-.072.047-.146.063-.22a.058.058 0 0 0 0-.02c.017-.073.03-.147.039-.22a.166.166 0 0 1 0-.032c0-.083.012-.165.012-.243V9.984l.017-.003zm-1.242 1.624V13.07a1.23 1.23 0 0 1-.97 1.2h-.022c-.075.013-.15.022-.226.024h-3.435V8.758h3.428c.076 0 .151.007.226.022h.021a1.225 1.225 0 0 1 .97 1.199V11.444l.008.16z"></path></g><defs><clipPath id="a"><path fill="#fff" d="M0 0h112v23.059H0z"></path></clipPath></defs></svg><svg width="16" height="16" viewBox="0 0 16 16" fill="none" id="expand" y="24"><path d="M12.667 13.333a.665.665 0 0 0 .215-.038.66.66 0 0 0 .151-.072l.005-.003a.68.68 0 0 0 .154-.147.665.665 0 0 0 .09-.15l.002-.006a.67.67 0 0 0 .045-.21c.001-.013.004-.026.004-.04v-2a.667.667 0 0 0-1.333 0v.39L8.943 8 12 4.943v.39a.667.667 0 0 0 1.333 0v-2c0-.014-.003-.027-.004-.04a.66.66 0 0 0-.046-.21v-.005a.68.68 0 0 0-.118-.183.681.681 0 0 0-.127-.115l-.005-.003a.657.657 0 0 0-.191-.084.665.665 0 0 0-.175-.026h-2a.667.667 0 0 0 0 1.333h.39L8 7.057 4.943 4h.39a.667.667 0 0 0 0-1.333h-2c-.013 0-.026.003-.04.004a.747.747 0 0 0-.21.045l-.005.001a.66.66 0 0 0-.183.118.662.662 0 0 0-.115.127l-.002.004a.651.651 0 0 0-.085.192.651.651 0 0 0-.026.175v2a.667.667 0 0 0 1.333 0v-.39L7.057 8 4 11.057v-.39a.667.667 0 0 0-1.333 0v2a.664.664 0 0 0 .038.215.652.652 0 0 0 .073.152l.002.004a.67.67 0 0 0 .115.127l.031.027a.672.672 0 0 0 .152.09c.01.005.021.007.031.01a.627.627 0 0 0 .224.041h2a.667.667 0 0 0 0-1.333h-.39L8 8.943 11.057 12h-.39a.667.667 0 0 0 0 1.333h2z" fill="#E41D2C"></path><path d="M15.333 0h-4a.667.667 0 0 0 0 1.333h3.334v3.334a.667.667 0 0 0 1.333 0v-4A.667.667 0 0 0 15.333 0zM.667 5.333a.667.667 0 0 0 .666-.666V1.333h3.334a.667.667 0 0 0 0-1.333h-4A.667.667 0 0 0 0 .667v4c0 .368.299.666.667.666zM15.333 10.667a.667.667 0 0 0-.666.666v3.334h-3.334a.667.667 0 0 0 0 1.333h4a.667.667 0 0 0 .667-.667v-4a.667.667 0 0 0-.667-.666zM4.667 14.667H1.333v-3.334a.667.667 0 0 0-1.333 0v4c0 .368.299.667.667.667h4a.667.667 0 0 0 0-1.333z" fill="#E41D2C"></path></svg><svg width="16" height="17" viewBox="0 0 16 17" fill="none" id="expand-white" y="40"><g clip-path="url(#a)" fill="#fff"><path d="M12.666 13.564a.66.66 0 0 0 .216-.04.654.654 0 0 0 .151-.072l.004-.002a.683.683 0 0 0 .128-.117.672.672 0 0 0 .118-.185v-.005a.68.68 0 0 0 .046-.211c0-.014.004-.027.004-.042v-2.02a.67.67 0 0 0-.667-.674.67.67 0 0 0-.666.674v.395l-3.057-3.09L12 5.088v.395a.67.67 0 0 0 .666.673.67.67 0 0 0 .667-.673v-2.02c0-.015-.003-.028-.004-.042a.671.671 0 0 0-.046-.212v-.005h-.001a.688.688 0 0 0-.09-.152l-.027-.033a.684.684 0 0 0-.128-.116l-.004-.002a.654.654 0 0 0-.191-.085.658.658 0 0 0-.176-.027h-2a.67.67 0 0 0-.666.673.67.67 0 0 0 .666.674h.39L8 7.224l-3.057-3.09h.39A.67.67 0 0 0 6 3.462a.67.67 0 0 0-.667-.673h-2c-.014 0-.027.003-.04.004a.749.749 0 0 0-.211.046l-.004.001a.66.66 0 0 0-.183.119.666.666 0 0 0-.115.129l-.002.003a.661.661 0 0 0-.085.194.664.664 0 0 0-.026.177v2.02a.67.67 0 0 0 .666.674A.67.67 0 0 0 4 5.482v-.395l3.057 3.089L4 11.264v-.394a.67.67 0 0 0-.667-.674.67.67 0 0 0-.667.674v2.02a.678.678 0 0 0 .04.217.66.66 0 0 0 .073.158c.033.048.073.09.116.13l.031.025a.668.668 0 0 0 .152.093l.03.009a.605.605 0 0 0 .225.042h2A.67.67 0 0 0 6 12.89a.67.67 0 0 0-.667-.673h-.39L8 9.128l3.057 3.089h-.39a.67.67 0 0 0-.667.673.67.67 0 0 0 .666.674h2z"></path><path d="M15.333.094h-4a.67.67 0 0 0-.667.673.67.67 0 0 0 .667.674h3.333v3.367a.67.67 0 0 0 .667.674.67.67 0 0 0 .667-.674V.768a.67.67 0 0 0-.667-.674zM.667 5.482a.67.67 0 0 0 .666-.674V1.441h3.334a.67.67 0 0 0 .666-.674.67.67 0 0 0-.666-.673h-4A.67.67 0 0 0 0 .767v4.041a.67.67 0 0 0 .667.674zM15.333 10.87a.67.67 0 0 0-.667.673v3.368h-3.333a.67.67 0 0 0-.667.673.67.67 0 0 0 .667.674h4a.67.67 0 0 0 .667-.674v-4.04a.67.67 0 0 0-.667-.674zM4.667 14.91H1.333v-3.367a.67.67 0 0 0-.666-.673.67.67 0 0 0-.667.673v4.041a.67.67 0 0 0 .667.674h4a.67.67 0 0 0 .666-.674.67.67 0 0 0-.666-.673z"></path></g><defs><clipPath id="a"><path fill="#fff" transform="translate(0 .094)" d="M0 0h16v16.164H0z"></path></clipPath></defs></svg><svg width="10" height="20" viewBox="0 0 10 20" fill="none" id="fb" y="57"><path d="M6.55 4.55V6.5H9.7L9.3 10H6.55v9.75h-4.3V10H.3V6.5h1.95V4.55S1.9.85 5.4.25h4.3V3.4H7.75c0-.05-1.1-.1-1.2 1.15z" fill="#262626"></path></svg><svg width="12" height="16" viewBox="0 0 12 16" fill="none" id="flag" y="77"><path d="M10.667 6.667A.667.667 0 0 0 11.333 6V.667A.667.667 0 0 0 10.667 0H1.333a.667.667 0 0 0-.666.667v14.666a.667.667 0 0 0 1.138.472L6 11.61l4.195 4.195a.666.666 0 0 0 1.138-.472v-10a.667.667 0 0 0-1.333 0v8.39l-3.529-3.528-1.333-1.333a.667.667 0 0 0-.943.943l.862.862L2 13.724V1.334h8V6c0 .368.299.667.667.667z" fill="#E41D2C"></path></svg><svg width="15" height="15" viewBox="0 0 15 15" fill="none" id="inst" y="93"><path d="M7.5 4.95a2.513 2.513 0 1 0 0 5.025 2.513 2.513 0 0 0 0-5.025z" fill="#262626"></path><path d="M10.125 0h-5.25C2.212 0 0 2.212 0 4.875v5.213c0 2.7 2.212 4.875 4.875 4.875h5.213c2.7 0 4.875-2.213 4.875-4.875V4.875C15 2.212 12.788 0 10.125 0zM7.5 11.4a3.897 3.897 0 0 1-3.9-3.9c0-2.175 1.762-3.9 3.9-3.9 2.137 0 3.9 1.725 3.9 3.9 0 2.137-1.725 3.9-3.9 3.9zm3.825-6.863a.953.953 0 0 1-.938-.937c0-.488.45-.975.938-.975.525 0 .938.45.938.938 0 .562-.413.974-.938.974z" fill="#262626"></path></svg><svg width="25" height="14" viewBox="0 0 25 14" fill="none" id="link-white-arrow" y="108"><path fill-rule="evenodd" clip-rule="evenodd" d="M17.707 13.414l6-6 .707-.707L23.707 6l-6-6-1.414 1.414 4.292 4.293H0v2h20.586L16.293 12l1.414 1.414z" fill="#fff"></path></svg><svg width="18" height="14" viewBox="0 0 18 14" fill="none" id="mail" y="122"><path fill-rule="evenodd" clip-rule="evenodd" d="M2.25.25h13.5a1.5 1.5 0 0 1 1.5 1.5v10.5a1.5 1.5 0 0 1-1.5 1.5H2.25a1.5 1.5 0 0 1-1.5-1.5V1.75a1.5 1.5 0 0 1 1.5-1.5zm0 4.964v7.036h13.5V5.214L9 8.589 2.25 5.214zm0-1.678L9 6.912l6.75-3.375V1.75H2.25v1.787z" fill="#E41D2C"></path></svg><svg width="22" height="23" viewBox="0 0 22 23" fill="none" id="map-pin" y="136"><g clip-path="url(#a)" fill-rule="evenodd" clip-rule="evenodd" fill="#E41D2C"><path d="M11 1.836c-1.945 0-3.81.773-5.185 2.15a7.347 7.347 0 0 0-2.148 5.192c0 2.843 1.848 5.602 3.874 7.744a26.998 26.998 0 0 0 3.46 3.06 26.992 26.992 0 0 0 3.46-3.061c2.025-2.14 3.873-4.9 3.873-7.743a7.347 7.347 0 0 0-2.148-5.192A7.329 7.329 0 0 0 11 1.836zm0 19.274l-.509.763-.002-.002-.007-.004-.02-.014a26.086 26.086 0 0 1-1.321-.986 28.809 28.809 0 0 1-2.931-2.683c-2.1-2.218-4.377-5.425-4.377-9.006 0-2.434.966-4.769 2.685-6.49a9.16 9.16 0 0 1 12.964 0 9.184 9.184 0 0 1 2.685 6.49c0 3.581-2.277 6.788-4.376 9.006a28.798 28.798 0 0 1-3.9 3.42 17.903 17.903 0 0 1-.352.249l-.021.014-.006.004-.002.001s-.001.001-.51-.762zm0 0l.509.763a.917.917 0 0 1-1.018 0l.51-.764z"></path><path d="M11 7.342a1.834 1.834 0 0 0-1.833 1.836A1.835 1.835 0 1 0 11 7.342zM7.333 9.178A3.669 3.669 0 0 1 11 5.507a3.669 3.669 0 0 1 3.667 3.671A3.669 3.669 0 0 1 11 12.85a3.669 3.669 0 0 1-3.667-3.67z"></path></g><defs><clipPath id="a"><path fill="#fff" d="M0 0h22v22.027H0z"></path></clipPath></defs></svg><svg width="17" height="21" viewBox="0 0 17 21" fill="none" id="map-pin-big" y="159"><path d="M16.5 7.679c0 1.977-1.005 4.475-2.578 6.847-1.5 2.263-3.472 4.341-5.437 5.663-1.5-.932-3.439-2.972-5.046-5.33-.844-1.238-1.583-2.544-2.109-3.793C.801 9.812.5 8.646.5 7.68.5 3.76 4.033.5 8.5.5c4.467 0 8 3.26 8 7.179z" stroke="#E41D2C"></path><circle cx="8.5" cy="7.5" r="3" stroke="#E41D2C"></circle></svg><svg width="16" height="16" viewBox="0 0 16 16" fill="none" id="person" y="180"><path d="M12.667 8H11.26a4.65 4.65 0 0 0 1.407-3.333A4.672 4.672 0 0 0 8 0a4.672 4.672 0 0 0-4.667 4.667A4.65 4.65 0 0 0 4.74 8H3.333A3.337 3.337 0 0 0 0 11.333v4a.667.667 0 0 0 1.333 0v-4c0-1.103.897-2 2-2h9.334c1.103 0 2 .897 2 2v4a.667.667 0 0 0 1.333 0v-4A3.337 3.337 0 0 0 12.667 8zm-8-3.333A3.337 3.337 0 0 1 8 1.333a3.337 3.337 0 0 1 3.333 3.334A3.337 3.337 0 0 1 8 8a3.337 3.337 0 0 1-3.333-3.333z" fill="#262626"></path></svg><svg width="12" height="18" viewBox="0 0 12 18" fill="none" id="phone" y="196"><path d="M1.789 18h8.217c.95 0 1.789-.783 1.789-1.789V1.79C11.739.783 10.957 0 10.006 0H1.79A1.766 1.766 0 0 0 0 1.789v14.478C0 17.217.783 18 1.789 18zm0-16.211h8.217v14.478H1.79V1.79zM6.54 12.857c.168.168.28.447.28.671 0 .28-.112.503-.28.67-.167.168-.447.28-.67.28a.926.926 0 0 1-.671-.28 1.031 1.031 0 0 1-.28-.67c0-.28.112-.503.28-.67.335-.392 1.006-.392 1.341 0z" fill="#E41D2C"></path></svg><svg width="21" height="21" viewBox="0 0 21 21" fill="none" id="plus-circle" y="214"><circle cx="10.5" cy="10.5" r="9.75" stroke="#E41D2C" stroke-width="1.5"></circle><path d="M10.5 6.176v8.647m4.323-4.323H6.176" stroke="#E41D2C" stroke-width="1.5"></path></svg><svg width="24" height="25" viewBox="0 0 24 25" fill="none" id="rating-red" y="235"><path d="M0 4.756v18.273a1 1 0 0 0 1 1h4a1 1 0 0 0 1-1V4.756c0-.553-.448-1.001-1-1.001H1c-.552 0-1 .448-1 1zm4 1.001v16.27H2V5.757h2zM9 10.012V23.03a1 1 0 0 0 1 1h4a1 1 0 0 0 1-1V10.012c0-.552-.448-1-1-1h-4c-.552 0-1 .448-1 1zm4 1.002v11.013h-2V11.014h2zM18 14.518v8.51a1 1 0 0 0 1 1.002h4a1 1 0 0 0 1-1.002v-8.51c0-.553-.448-1.001-1-1.001h-4c-.552 0-1 .448-1 1.001zm4 1.001v6.508h-2V15.52h2z" fill="#E41D2C"></path></svg><svg width="18" height="18" viewBox="0 0 18 18" fill="none" id="search" y="260"><path fill-rule="evenodd" clip-rule="evenodd" d="M8.25 3a5.25 5.25 0 1 0 0 10.5 5.25 5.25 0 0 0 0-10.5zM1.5 8.25a6.75 6.75 0 1 1 13.5 0 6.75 6.75 0 0 1-13.5 0z" fill="#fff"></path><path fill-rule="evenodd" clip-rule="evenodd" d="M11.957 11.957a.75.75 0 0 1 1.06 0l3.263 3.263a.75.75 0 0 1-1.06 1.06l-3.263-3.262a.75.75 0 0 1 0-1.06z" fill="#fff"></path></svg><svg width="18" height="18" viewBox="0 0 18 18" fill="none" id="time" y="278"><path d="M9 0C4.037 0 0 4.037 0 9s4.037 9 9 9 9-4.037 9-9-4.037-9-9-9zm0 16.875c-4.342 0-7.875-3.533-7.875-7.875 0-4.342 3.533-7.875 7.875-7.875 4.342 0 7.875 3.533 7.875 7.875 0 4.342-3.533 7.875-7.875 7.875z" fill="#E41D2C"></path><path d="M9.563 3.375H8.437v5.858l3.54 3.54.796-.796-3.21-3.21V3.375z" fill="#E41D2C"></path></svg><svg width="22" height="12" viewBox="0 0 22 12" fill="none" id="vk" y="296"><path d="M10.78 11.665h1.21s.385-.055.55-.22c.165-.165.165-.55.165-.55s0-1.595.715-1.815c.715-.22 1.705 1.54 2.695 2.255.77.495 1.32.385 1.32.385l2.695-.055s1.375-.11.715-1.21c-.055-.11-.385-.825-1.98-2.31-1.65-1.54-1.43-1.32.55-4.015 1.21-1.65 1.705-2.64 1.54-3.08C20.79.665 19.91.775 19.91.775h-3.025S16.665.72 16.5.83s-.275.33-.275.33-.495 1.265-1.1 2.365c-1.32 2.255-1.87 2.42-2.09 2.255-.495-.275-.385-1.265-.385-1.98 0-2.2.33-3.135-.66-3.355-.33-.055-.55-.11-1.43-.165-1.1 0-1.98 0-2.475.275-.33.165-.605.55-.44.55.22 0 .66.11.88.44.33.44.275 1.375.275 1.375s.165 2.585-.44 2.915c-.385.22-.935-.22-2.145-2.31-.605-1.045-1.1-2.2-1.1-2.2s0-.22-.165-.33C4.73.83 4.51.83 4.51.83H1.65s-.44 0-.605.22c-.165.165 0 .495 0 .495S3.3 6.77 5.83 9.41c2.31 2.42 4.95 2.255 4.95 2.255z" fill="#262626"></path></svg></svg>